<svg width="416" height="307" viewBox="0 0 416 307" fill="none" xmlns="http://www.w3.org/2000/svg">
<path d="M344.025 40.5056H375.31C377.252 40.5056 378.888 38.8648 378.888 36.9165V15.6895C378.888 13.7411 377.252 12.1004 375.31 12.1004H344.025C342.083 12.1004 340.447 13.7411 340.447 15.6895V36.9165C340.345 38.8648 341.98 40.5056 344.025 40.5056Z" fill="white"/>
<path d="M356.702 40.5057L345.763 48.5043V40.5057H356.702Z" fill="white"/>
<path d="M358.236 32.6098V31.1741C357.112 31.1741 356.192 30.8665 355.476 30.4563L355.987 28.2003C356.396 28.4054 356.805 28.6105 357.214 28.713C357.725 28.8156 358.236 28.9181 358.748 28.9181C359.668 28.9181 360.077 28.713 360.077 28.2003C360.077 27.7901 359.566 27.3799 358.441 27.0723C357.521 26.7647 356.805 26.3545 356.294 25.9443C355.783 25.4316 355.476 24.8163 355.476 24.0985C355.476 22.4578 356.396 21.5348 358.236 21.1247V19.689H360.077V21.0221C360.588 21.0221 361.099 21.1247 361.508 21.2272C361.815 21.3298 362.224 21.4323 362.53 21.5348L362.019 23.6883L361.61 23.4832C361.406 23.3807 361.304 23.3807 361.099 23.2781C360.588 23.1756 360.077 23.073 359.566 23.073C358.748 23.073 358.339 23.2781 358.339 23.7908C358.339 24.0985 358.952 24.5087 360.179 24.9188C362.019 25.5341 362.939 26.5596 362.939 27.8927C362.939 29.5334 361.917 30.5589 359.974 30.969V32.6098H358.236Z" fill="#548BF7"/>
<path d="M357.316 70.654C357.521 69.9362 356.192 69.4235 357.827 68.8082C359.463 68.1929 369.585 67.6802 370.607 68.6031C371.629 69.526 372.141 70.3464 370.3 70.9616C368.562 71.5769 360.383 71.782 357.316 70.654Z" fill="#548BF7"/>
<path d="M379.911 153.409C378.684 135.873 377.866 118.235 376.231 100.7C376.231 100.7 376.231 100.7 376.128 100.7C376.026 100.7 376.128 100.7 376.128 100.7C368.972 101.52 362.531 101.623 355.681 103.879C351.183 123.26 360.18 135.155 360.588 152.793C362.326 152.691 364.064 152.588 365.7 152.486C367.234 138.847 363.247 124.593 364.167 110.032C364.167 110.032 365.803 109.211 366.007 110.339C369.994 123.875 371.63 139.462 374.697 153.511C376.435 153.511 378.173 153.409 379.911 153.409Z" fill="#1E4783"/>
<path d="M356.703 104.289C356.703 104.494 356.601 104.597 356.601 104.802" stroke="#9999FF" stroke-width="0.5"/>
<path d="M356.498 105.827C353.942 122.337 360.69 135.155 361.303 150.742" stroke="#9999FF" stroke-width="0.5" stroke-dasharray="1.02 1.02"/>
<path d="M361.201 151.358C361.201 151.563 361.201 151.665 361.201 151.87" stroke="#9999FF" stroke-width="0.5"/>
<path d="M374.594 102.136C374.594 102.341 374.594 102.443 374.594 102.648" stroke="#9999FF" stroke-width="0.5"/>
<path d="M374.698 103.674C375.413 119.671 377.458 135.566 378.889 151.563" stroke="#9999FF" stroke-width="0.5" stroke-dasharray="0.99 0.99"/>
<path d="M378.991 152.075C378.991 152.28 378.991 152.383 378.991 152.588" stroke="#9999FF" stroke-width="0.5"/>
<path d="M376.23 109.314C371.936 109.827 370.914 106.545 371.016 102.751C372.55 102.136 373.981 101.418 375.412 100.7" fill="#1E4783"/>
<path d="M376.23 109.314C371.936 109.827 370.914 106.545 371.016 102.751C372.55 102.136 373.981 101.418 375.412 100.7" stroke="#9999FF" stroke-width="0.5" stroke-dasharray="1"/>
<path d="M354.965 110.134C358.543 109.416 359.054 106.955 359.565 103.674C358.543 103.571 357.419 103.571 356.396 103.571" fill="#1E4783"/>
<path d="M354.965 110.134C358.543 109.416 359.054 106.955 359.565 103.674C358.543 103.571 357.419 103.571 356.396 103.571" stroke="#9999FF" stroke-width="0.5" stroke-dasharray="1"/>
<path d="M348.013 61.7326C348.422 60.8097 348.626 57.9384 349.751 57.8359C350.875 57.7333 351.489 56.6053 351.387 56.913C352.409 56.2977 353.125 57.4257 354.249 58.2461C355.374 59.0664 350.773 62.7581 350.057 63.2708C349.342 62.7581 348.728 62.2453 348.013 61.7326Z" fill="white"/>
<path d="M380.115 109.211C379.4 109.826 377.457 111.467 377.866 112.493C378.173 113.416 379.809 110.749 379.911 110.544C379.911 111.775 378.888 115.672 380.013 116.389C381.138 117.005 382.058 111.159 382.16 110.339C381.444 109.826 380.729 109.621 380.115 109.211Z" fill="white"/>
<path d="M382.773 109.827C394.121 96.8032 393.099 76.1915 374.594 70.7566C373.981 70.5515 374.185 70.6541 373.879 70.5515C367.438 69.9362 360.69 69.9362 354.249 70.1413C353.738 70.1413 353.431 70.2439 352.92 70.449C352.409 70.6541 333.7 98.6491 349.955 63.9886C349.138 63.1682 348.217 62.6555 347.297 61.9377C334.824 75.5763 333.7 102.751 352.409 81.4214C352.511 89.8301 352.409 98.2389 352.511 106.545C361.61 105.212 370.812 105.827 379.399 103.674C379.195 97.6236 373.47 80.1908 374.288 78.4475C385.84 83.4723 383.591 99.0592 379.911 108.493C380.933 108.904 381.853 109.416 382.773 109.827Z" fill="#548BF7"/>
<path d="M365.291 152.793C363.757 152.896 362.428 152.896 360.894 153.101C360.69 153.613 356.805 154.947 357.827 155.767C358.85 156.587 363.962 155.459 365.7 155.357C365.802 154.536 365.7 153.511 365.291 152.793Z" fill="#0084B5"/>
<path d="M380.013 153.819C378.479 153.819 377.15 153.819 375.617 153.921C375.412 154.434 371.425 155.562 372.345 156.485C373.265 157.305 378.479 156.485 380.217 156.485C380.422 155.562 380.422 154.434 380.013 153.819Z" fill="#0084B5"/>
<path d="M370.505 71.9872C370.198 73.628 365.7 73.9356 364.371 73.9356C362.94 73.9356 357.93 73.9356 357.725 72.0898C357.521 70.1414 363.349 70.5516 364.371 70.5516C365.393 70.5516 370.812 70.244 370.505 71.9872Z" fill="white"/>
<path d="M367.642 62.1427C367.642 64.9114 367.642 68.9107 369.176 71.1667C365.7 73.0125 363.042 72.4998 359.361 71.2693C360.793 68.8082 361.099 65.9369 361.099 63.0656C363.349 62.8605 365.495 62.4503 367.642 62.1427Z" fill="url(#paint0_linear)"/>
<path d="M369.482 61.2205C368.665 64.502 362.633 66.6554 359.361 65.4249C356.089 64.1944 357.112 59.1696 357.828 56.1958C358.543 53.222 362.53 51.9915 365.597 52.9144C369.687 54.2475 370.709 56.5035 369.482 61.2205Z" fill="white"/>
<path d="M359.668 53.529C356.601 54.9647 356.294 58.4512 356.294 61.4251C356.907 61.3225 357.623 61.3225 358.236 61.22C358.85 58.6563 359.259 56.0927 359.668 53.529Z" fill="white"/>
<path d="M358.032 61.2198C357.726 61.4249 357.521 61.5275 357.214 61.7325C357.214 61.63 357.214 61.4249 357.214 61.3224C357.521 61.3224 357.828 61.2198 358.032 61.2198Z" fill="#EAEAEA"/>
<path d="M359.872 58.6565C359.872 58.8616 359.668 58.9641 359.463 58.8616C359.259 58.8616 359.157 58.6565 359.157 58.4514C359.157 58.2463 359.361 58.1437 359.566 58.2463C359.77 58.2463 359.872 58.4514 359.872 58.6565Z" fill="#C6C6C6"/>
<path d="M360.895 53.0162C362.428 53.1187 364.677 53.0162 364.575 55.3748C364.473 57.7333 365.086 59.4766 368.051 59.2715C368.051 60.7071 368.051 61.9377 368.153 63.4759C370.096 61.8351 370.607 62.6555 370.709 58.6562C370.811 54.6569 366.415 51.1704 360.895 53.0162Z" fill="#548BF7"/>
<path fill-rule="evenodd" clip-rule="evenodd" d="M357.894 58.496C357.813 59.403 358.321 60.1089 359.259 60.297C359.668 60.3995 360.179 60.297 360.486 59.9894C360.895 59.6817 361.099 59.2715 361.201 58.7588C361.406 57.7333 360.792 56.913 359.872 56.7079C359.463 56.7079 359.054 56.8104 358.645 57.0155C358.564 57.0968 358.483 57.1852 358.406 57.2807C358.152 57.5072 358.009 57.8456 357.93 58.2467C357.911 58.3308 357.899 58.414 357.894 58.496ZM357.894 58.496C357.839 59.314 358.413 60.0087 359.156 60.1951C359.565 60.2976 359.974 60.1951 360.281 59.99C360.588 59.7849 360.894 59.3747 360.997 58.862C361.303 57.9391 360.69 57.1187 359.77 56.9136C359.361 56.811 359.054 56.9136 358.645 57.1187C358.556 57.1633 358.477 57.2177 358.406 57.2807C358.191 57.547 358.005 57.8688 357.93 58.2461C357.913 58.3309 357.901 58.4142 357.894 58.496Z" fill="#1E4783"/>
<path d="M361.201 58.7588C363.348 58.8613 365.393 59.169 367.54 59.3741V59.4766C365.393 59.169 363.348 58.9639 361.201 58.7588Z" fill="#1E4783"/>
<rect width="1.63584" height="1.02543" transform="matrix(0.999394 -0.0348116 0.0346055 0.999401 356.294 58.3774)" fill="#1E4783"/>
<path d="M367.233 60.092C367.642 59.2716 367.745 57.8359 369.38 58.4512C371.016 59.0665 369.585 62.4505 367.336 61.8352" fill="white"/>
<path d="M367.233 60.092C367.642 59.2716 367.745 57.8359 369.38 58.4512C371.016 59.0665 369.585 62.4505 367.336 61.8352" stroke="#EAEAEA" stroke-width="0.25"/>
<path d="M357.521 72.0898C359.565 75.1662 359.667 78.9604 361.508 82.1393C364.575 78.6528 368.051 75.7815 370.709 72.0898C366.313 72.0898 361.917 71.8847 357.521 72.0898Z" fill="white"/>
<path d="M364.678 73.2178C364.064 73.2178 363.553 73.1153 362.94 73.1153C362.531 74.0382 361.917 74.8585 361.406 75.7815C361.713 76.2942 361.917 76.8069 362.122 77.4222C361.304 78.7553 360.69 80.1909 360.179 81.6266C360.588 82.3444 360.895 82.8571 361.406 83.3698C362.019 81.9342 363.042 80.7037 364.064 79.4731C363.962 78.6527 363.962 77.8324 364.064 77.012C364.473 76.4993 364.78 75.9865 365.189 75.4738C364.984 74.756 364.984 73.9356 364.678 73.2178Z" fill="#1E4783"/>
<path d="M348.728 59.3743C349.341 58.3488 350.671 56.503 351.284 56.8107C351.897 57.1183 349.444 60.6048 349.444 60.6048L348.728 59.3743Z" fill="white"/>
<rect width="3.88734" height="11.1697" transform="matrix(0.885773 -0.464119 0.46193 0.886916 346.538 54.7501)" fill="#1E4783"/>
<rect width="3.88732" height="9.63259" transform="matrix(0.885771 -0.464122 0.461927 0.886918 346.598 54.7638)" fill="#548BF7"/>
<path d="M357.828 155.767L376.23 186.326L416 183.762L380.217 156.382H372.345L386.863 170.534L365.598 155.357L357.828 155.767Z" fill="url(#paint1_linear)"/>
<path d="M331.348 251.602C331.348 258.575 324.089 265.24 311.821 270.778L362.326 285.031C387.067 275.802 402.504 264.112 402.504 251.704C402.504 239.194 387.067 227.606 362.326 218.377L311.821 232.631C324.089 238.066 331.348 244.423 331.348 251.602Z" fill="#B8D3F4"/>
<path d="M205.597 286.98C136.587 286.98 79.9485 270.983 79.9485 251.601C79.9485 232.22 136.587 216.223 205.597 216.223C231.361 216.223 254.057 218.274 273.584 222.068L324.089 207.814C291.169 200.841 249.865 196.534 205.597 196.534C97.4309 196.534 8.79199 221.145 8.79199 251.909C8.79199 282.673 97.4309 306.976 205.597 306.976C250.888 306.976 292.089 302.669 325.111 295.696L274.607 281.545C255.079 285.031 231.361 286.98 205.597 286.98Z" fill="#3385FF"/>
<path d="M331.348 251.602C331.348 258.575 324.089 265.24 311.821 270.778L362.326 285.031C387.067 275.802 402.504 264.112 402.504 251.704C402.504 239.194 387.067 227.606 362.326 218.377L311.821 232.631C324.089 238.066 331.348 244.423 331.348 251.602Z" fill="url(#paint2_linear)"/>
<path d="M205.597 286.98C136.587 286.98 79.9485 270.983 79.9485 251.601C79.9485 232.22 136.587 216.223 205.597 216.223C231.361 216.223 254.057 218.274 273.584 222.068L324.089 207.814C291.169 200.841 249.865 196.534 205.597 196.534C97.4309 196.534 8.79199 221.145 8.79199 251.909C8.79199 282.673 97.4309 306.976 205.597 306.976C250.888 306.976 292.089 302.669 325.111 295.696L274.607 281.545C255.079 285.031 231.361 286.98 205.597 286.98Z" fill="url(#paint3_linear)"/>
<path d="M278.812 62.0924C278.812 62.0924 267.055 51.3251 270.94 43.429C274.825 35.533 292.716 36.3534 295.783 39.7374C298.85 43.1214 299.975 62.0924 299.975 62.0924H278.812Z" fill="#B8D3F4"/>
<path d="M266.749 180.841C293.126 142.796 269.611 147.513 267.055 116.032H267.157C278.199 112.955 289.138 114.288 300.589 114.083C307.95 137.361 306.416 162.792 308.461 186.891C306.723 186.993 305.087 186.993 303.349 186.993C298.033 167.715 295.784 141.771 287.094 124.235C287.094 124.133 284.435 122.697 284.129 124.133C287.809 152.948 297.522 156.332 271.349 183.507C269.713 182.584 268.282 181.661 266.749 180.841Z" fill="#1E4783"/>
<path d="M269.304 112.955C269.304 113.16 269.304 113.263 269.304 113.468" stroke="#9999FF" stroke-width="0.5"/>
<path d="M269.407 114.493C271.963 146.282 295.375 141.36 269.203 179.815" stroke="#9999FF" stroke-width="0.5" stroke-dasharray="0.99 0.99"/>
<path d="M268.896 180.225C268.793 180.328 268.691 180.533 268.589 180.635" stroke="#9999FF" stroke-width="0.5"/>
<path d="M268.668 122.661C273.984 120.815 274.393 117.123 274.086 111.893C272.041 111.483 269.894 111.278 267.85 110.868" fill="#1E4783"/>
<path d="M268.668 122.661C273.984 120.815 274.393 117.123 274.086 111.893C272.041 111.483 269.894 111.278 267.85 110.868" stroke="#9999FF" stroke-width="0.5" stroke-dasharray="1"/>
<path d="M297.112 112.032C297.112 112.237 297.215 112.34 297.215 112.545" stroke="#9999FF" stroke-width="0.5"/>
<path d="M297.521 113.468C303.144 136.848 304.269 160.844 306.62 184.737" stroke="#9999FF" stroke-width="0.5" stroke-dasharray="1.01 1.01"/>
<path d="M306.621 185.353C306.621 185.558 306.621 185.66 306.723 185.865" stroke="#9999FF" stroke-width="0.5"/>
<path d="M301.406 120.339C296.192 120.646 292.409 117.672 291.489 112.34C293.738 111.725 295.987 111.007 298.134 110.289" fill="#1E4783"/>
<path d="M301.406 120.339C296.192 120.646 292.409 117.672 291.489 112.34C293.738 111.725 295.987 111.007 298.134 110.289" stroke="#9999FF" stroke-width="0.5" stroke-dasharray="1"/>
<path d="M303.962 187.506C305.291 187.506 306.518 187.403 307.95 187.403C308.563 188.121 313.879 189.659 312.959 190.992C312.039 192.326 305.7 191.198 303.758 191.3C303.553 190.172 303.451 188.531 303.962 187.506Z" fill="#0084B5"/>
<path d="M266.748 182.071C267.975 182.789 268.997 183.302 270.326 184.224C270.326 185.352 274.416 189.147 272.985 189.864C271.553 190.582 266.135 186.583 264.499 185.66C264.908 184.327 265.624 182.686 266.748 182.071Z" fill="#0084B5"/>
<path d="M273.291 93.574C274.109 86.1907 272.576 80.0379 272.678 72.2445C272.678 67.7325 281.777 67.1172 284.844 66.707C285.355 66.6044 285.764 66.707 286.173 66.6044C286.582 66.5019 287.093 66.707 287.604 66.5019C290.569 65.6815 302.326 67.7325 300.588 72.1419C299.873 74.0903 299.055 75.8336 298.339 77.6794C298.237 77.8845 298.135 78.1921 298.032 78.3972C298.646 81.8838 299.464 86.3958 295.476 87.934C295.272 88.0365 295.17 88.2416 294.965 88.3441C294.863 88.6518 294.863 89.062 294.761 89.3696C294.454 91.1129 294.352 92.8562 294.352 94.8045C287.298 95.7274 279.834 96.1376 273.291 93.574Z" fill="#B8D3F4"/>
<path d="M272.064 99.7268C272.678 97.5733 273.087 95.5224 273.291 93.574C279.834 96.2402 287.4 95.83 294.454 94.8046C294.454 96.2402 294.557 97.881 294.863 99.4191C295.681 105.162 300.997 110.084 302.122 115.929C295.988 116.442 289.854 116.339 283.719 116.134C277.994 115.929 272.78 116.954 267.362 118.288C266.032 111.827 270.531 105.264 272.064 99.7268Z" fill="#96C1EA"/>
<path d="M260.819 116.75C261.944 117.57 265.011 119.621 264.602 121.056C264.295 122.492 261.535 118.903 261.33 118.595C261.535 120.441 263.579 125.876 262.046 127.004C260.512 128.132 258.365 119.723 258.059 118.698C258.979 117.878 259.899 117.365 260.819 116.75Z" fill="white"/>
<path d="M255.195 82.1913C256.729 83.9346 257.956 85.5754 259.183 87.3186C255.195 96.035 256.115 107.315 260.307 116.544C259.592 117.057 258.774 117.672 258.058 118.185C249.879 106.7 249.061 92.4459 255.195 82.1913Z" fill="white"/>
<path d="M276.87 68.758C278.71 74.2955 278.506 77.4744 272.474 75.3209C265.93 77.5769 261.739 81.9864 259.285 87.2163C257.956 85.473 256.729 83.8322 255.298 82.089C259.285 75.2184 266.544 69.9885 276.87 68.758Z" fill="#B8D3F4"/>
<path d="M327.681 67.7325C327.885 66.2969 327.681 61.6823 329.112 61.1696C330.441 60.6568 329.419 65.1689 329.316 65.579C330.543 64.451 333.508 59.5288 335.348 60.2466C337.189 60.9645 331.872 68.0401 330.952 68.9631C329.725 68.758 328.805 68.3478 327.681 67.7325Z" fill="white"/>
<path d="M327.886 68.4503C328.703 69.0655 329.521 69.5783 330.441 70.091C322.058 103.623 315.515 101.06 309.688 92.0358C310.812 90.6002 311.732 89.062 312.755 87.5238C316.435 93.7791 319.809 93.574 327.886 68.4503Z" fill="white"/>
<path d="M297.521 68.2453C305.496 70.5013 309.176 81.6788 312.652 87.4214C311.63 88.9595 310.71 90.4977 309.585 91.9334C306.007 86.4984 302.735 78.705 299.464 75.2184C293.125 76.1413 294.556 73.065 297.521 68.2453Z" fill="#B8D3F4"/>
<path d="M277.176 69.0654C277.38 71.5265 284.435 71.424 286.173 71.424C287.911 71.5265 295.579 71.1163 295.783 68.4501C295.988 65.7839 287.502 66.2967 285.866 66.5018C284.23 66.7069 277.074 66.6043 277.176 69.0654Z" fill="white"/>
<path d="M279.425 56.5548C281.266 59.8363 283.719 65.5789 279.834 68.2451C284.026 70.3986 288.115 69.3731 292.307 67.7324C287.809 65.8865 286.889 58.9134 285.968 54.9141C283.719 55.4268 281.572 55.9396 279.425 56.5548Z" fill="url(#paint4_linear)"/>
<path d="M275.847 54.7093C278.096 58.8111 287.911 62.2976 292.818 59.6314C296.499 57.6831 294.147 48.454 292.103 44.4547C290.058 40.4554 283.822 39.3274 279.528 41.5834C273.598 44.5572 272.576 48.7616 275.847 54.7093Z" fill="white"/>
<path d="M284.537 52.3507C284.64 52.6583 284.946 52.7609 285.151 52.6583C285.457 52.5558 285.56 52.2481 285.457 52.043C285.355 51.7354 285.049 51.6329 284.844 51.7354C284.537 51.838 284.435 52.1456 284.537 52.3507Z" fill="#C6C6C6"/>
<path d="M291.796 50.5048C291.898 50.8125 292.205 50.915 292.41 50.8125C292.614 50.7099 292.819 50.4023 292.716 50.1972C292.614 49.8896 292.307 49.787 292.103 49.8896C291.796 49.8896 291.694 50.1972 291.796 50.5048Z" fill="#C6C6C6"/>
<path d="M290.365 40.4553C290.365 40.4553 284.435 52.7608 276.869 52.9659L277.176 57.8881C277.176 57.8881 270.122 49.2742 272.78 44.352C275.438 39.4298 290.365 40.4553 290.365 40.4553Z" fill="#B8D3F4"/>
<path d="M278.914 52.6582C277.994 51.5302 277.585 49.3768 275.132 50.8124C272.678 52.2481 276.154 56.6575 279.323 55.2219" fill="white"/>
<path d="M278.914 52.6582C277.994 51.5302 277.585 49.3768 275.132 50.8124C272.678 52.2481 276.154 56.6575 279.323 55.2219" stroke="#EAEAEA" stroke-width="0.25"/>
<rect width="11.1667" height="3.88919" transform="matrix(0.580605 -0.814185 0.812522 0.58293 325.736 65.9975)" fill="#1E4783"/>
<rect width="9.63" height="3.88918" transform="matrix(0.580604 -0.814186 0.812521 0.582932 326.536 64.7801)" fill="#548BF7"/>
<path d="M65.8408 160.177C63.4893 139.257 56.435 128.798 60.5245 107.16C60.5245 107.16 60.5245 107.16 60.4222 107.16C60.32 107.16 60.4222 107.16 60.4222 107.16C52.7545 106.032 45.189 104.392 37.5213 103.264C29.8536 124.388 32.8184 139.155 32.205 160.484C33.5341 160.484 34.7609 160.382 36.09 160.382C39.2593 144.897 38.8504 128.592 46.1091 114.031C46.1091 114.031 48.0516 113.416 48.0516 114.544C47.336 131.669 56.7417 144.487 61.9558 160.689C63.2849 160.484 64.6139 160.382 65.8408 160.177Z" fill="#1E4783"/>
<path d="M59.093 105.212C59.093 105.417 58.9907 105.52 58.9907 105.725" stroke="#9999FF" stroke-width="0.5"/>
<path d="M58.7865 106.75C54.5948 129.207 61.3424 137.103 64.5117 158.638" stroke="#9999FF" stroke-width="0.5" stroke-dasharray="1 1"/>
<path d="M64.6143 159.151C64.6143 159.356 64.6143 159.458 64.7165 159.664" stroke="#9999FF" stroke-width="0.5"/>
<path d="M58.8882 111.98C54.6965 111.57 54.492 108.596 55.5144 105.007C57.0479 104.699 58.6837 104.391 60.2173 104.084" fill="#0098D2"/>
<path d="M58.8882 111.98C54.6965 111.57 54.492 108.596 55.5144 105.007C57.0479 104.699 58.6837 104.391 60.2173 104.084" stroke="#9999FF" stroke-width="0.5" stroke-dasharray="1"/>
<path d="M40.1794 101.93C40.1794 102.136 40.0771 102.238 40.0771 102.443" stroke="#9999FF" stroke-width="0.5"/>
<path d="M39.7706 103.469C33.9431 123.67 33.8409 137.924 33.5342 158.638" stroke="#9999FF" stroke-width="0.5" stroke-dasharray="1.02 1.02"/>
<path d="M33.5342 159.151C33.5342 159.356 33.5342 159.459 33.5342 159.664" stroke="#9999FF" stroke-width="0.5"/>
<path d="M36.6011 108.493C40.6905 109.006 43.1442 106.853 44.1665 102.853C42.633 102.033 41.0995 101.315 39.5659 100.495" fill="#1E4783"/>
<path d="M36.6011 108.493C40.6905 109.006 43.1442 106.853 44.1665 102.853C42.633 102.033 41.0995 101.315 39.5659 100.495" stroke="#9999FF" stroke-width="0.5" stroke-dasharray="1"/>
<path d="M35.6808 160.792C34.6585 160.792 33.7384 160.792 32.6138 160.894C32.2048 161.51 28.3198 162.843 29.0355 163.663C29.7512 164.586 34.5563 163.458 35.9876 163.56C36.0898 162.74 36.0898 161.51 35.6808 160.792Z" fill="#0084B5"/>
<path d="M65.841 160.689C64.8186 160.792 63.8985 160.894 62.7739 160.997C62.3649 161.612 58.48 163.15 59.2978 164.073C60.1157 164.996 64.8186 163.56 66.2499 163.56C66.3521 162.535 66.3521 161.407 65.841 160.689Z" fill="#0084B5"/>
<path d="M60.0134 94.5471C60.4223 86.7536 61.0358 80.2932 62.876 73.0125C63.6939 69.6285 56.5374 69.731 54.5949 69.9361C54.2882 69.9361 53.8792 69.9361 53.5725 69.9361C53.2658 69.9361 52.9591 70.0387 52.5501 69.9361C50.4032 69.4234 42.7354 68.5005 42.8377 71.987C42.8377 73.3201 42.9399 74.5507 43.0422 75.6787C43.0422 75.8838 43.0422 76.1914 43.1444 76.3965C43.0422 76.7041 43.0422 76.9092 42.9399 77.2169C41.2019 79.0627 40.4862 82.3442 42.9399 84.3951C43.0422 84.4976 43.1444 84.6002 43.2466 84.7027C43.3489 84.8053 43.4511 84.9078 43.6556 85.0103C43.7578 85.2154 43.7578 85.4205 43.7578 85.5231C43.7578 85.7282 43.7578 85.8307 43.7578 86.0358C43.7578 86.2409 43.7578 86.5485 43.7578 86.7536C43.6556 88.4969 43.3489 90.2402 42.8377 92.1886C41.7131 96.2904 37.5214 100.29 36.499 104.597C40.5885 105.52 44.8824 106.237 48.9719 107.16C52.7546 107.776 56.5374 108.288 60.3201 108.596C61.4447 104.392 59.8089 98.7515 60.0134 94.5471Z" fill="#B8D3F4"/>
<path d="M43.1449 75.9863C43.1449 75.8837 43.1449 75.7812 43.1449 75.7812C43.0427 74.5506 42.9405 73.3201 42.9405 72.0895C42.8382 68.603 50.506 69.5259 52.6529 70.0386C53.0619 70.1412 53.3686 70.0386 53.6753 70.0386C53.982 70.0386 54.391 70.0386 54.6977 70.0386C56.6402 69.8335 63.7967 69.731 62.9788 73.115C62.4676 75.1659 62.0587 77.1143 61.752 79.0626C55.2088 79.5753 49.1769 77.2168 43.1449 75.9863Z" fill="white"/>
<path d="M18.7096 105.93C17.6873 106.34 14.9269 108.083 14.0068 107.468C13.0866 106.853 16.5627 105.827 16.7671 105.725C15.5403 105.417 11.0419 105.315 10.8374 103.981C10.5307 102.546 17.1761 103.161 18.0962 103.469C18.4029 104.289 18.5052 105.109 18.7096 105.93Z" fill="white"/>
<path d="M44.1665 70.2437C26.7863 79.678 46.8247 103.366 18.6074 103.674C18.8119 104.391 18.9141 105.007 19.1186 105.725C45.7001 108.903 35.1697 88.8045 43.4509 75.7812C48.256 75.0634 47.5403 73.4227 44.1665 70.2437Z" fill="white"/>
<path d="M60.32 70.9615C59.8088 72.7048 55.0037 73.0125 53.368 73.115C51.8344 73.3201 47.0293 72.2946 46.9271 70.3463C46.8248 68.3979 52.8568 70.0386 53.7769 69.9361C54.697 69.8335 60.8312 69.2182 60.32 70.9615Z" fill="white"/>
<path d="M58.2747 61.7325C57.4568 63.9885 55.6165 69.0133 58.3769 70.4489C55.1053 72.1922 52.3449 72.2948 49.2778 70.1413C52.8561 69.4235 53.0606 63.3733 53.3673 60.7071C55.0031 61.1172 56.6389 61.4249 58.2747 61.7325Z" fill="url(#paint5_linear)"/>
<path d="M60.8313 60.0918C59.5022 63.4758 52.6524 66.5522 48.6652 64.7064C45.7003 63.3733 46.7227 56.7078 47.9495 53.5289C49.1764 50.35 53.777 49.0169 57.253 50.35C61.9559 52.1958 62.7738 55.1696 60.8313 60.0918Z" fill="white"/>
<path d="M50.6072 51.7856C50.4027 52.606 49.9938 53.0162 49.2781 53.734C48.6647 54.3493 47.8468 55.8874 47.5401 56.8103C47.0289 58.3485 46.5177 59.4765 45.9043 60.9122C46.62 60.8096 47.4378 60.8096 48.1535 60.8096C48.9714 57.8358 49.6871 54.862 50.6072 51.7856Z" fill="white"/>
<path d="M47.8464 60.9122C47.5397 61.1173 47.233 61.3224 46.9263 61.5275C46.9263 61.3224 46.9263 61.1173 46.9263 61.0147C47.233 60.9122 47.5397 60.9122 47.8464 60.9122Z" fill="#EAEAEA"/>
<path d="M50.4032 57.8357C50.3009 58.0408 50.1987 58.1433 49.9942 58.1433C49.7897 58.1433 49.6875 57.9383 49.6875 57.7332C49.6875 57.5281 49.892 57.4255 50.0964 57.4255C50.4032 57.4255 50.5054 57.6306 50.4032 57.8357Z" fill="#C6C6C6"/>
<path fill-rule="evenodd" clip-rule="evenodd" d="M50.4028 59.9891C51.5886 59.9891 52.5498 59.025 52.5498 57.8357C52.5498 56.6463 51.5886 55.6822 50.4028 55.6822C49.2171 55.6822 48.2559 56.6463 48.2559 57.8357C48.2559 59.025 49.2171 59.9891 50.4028 59.9891Z" stroke="#548BF7" stroke-width="0.5"/>
<path d="M52.5503 57.8357H60.0135" stroke="#548BF7" stroke-width="0.5"/>
<path d="M48.2554 57.8357L46.9263 58.1433" stroke="#548BF7" stroke-width="0.5"/>
<path d="M59.3996 58.7587C59.3996 58.7587 54.9012 56.0925 55.5146 53.0161C55.5146 53.0161 50.1983 52.1958 49.6872 51.2729C49.176 50.35 49.6872 46.3507 49.6872 46.3507L52.5498 48.094L56.2303 46.3507L58.1728 49.1194L61.6488 48.5041L62.8757 52.606L65.5338 53.4263C65.5338 53.4263 63.3869 60.0918 61.6488 61.4249C59.9108 62.758 58.275 64.2962 58.275 64.2962L58.8885 66.3471L57.4571 65.7318V63.4758L59.2974 60.9122L59.3996 58.7587Z" fill="#548BF7"/>
<path d="M58.2749 58.6562C58.8883 57.7333 59.0928 56.0926 61.0353 56.9129C62.9777 57.8358 60.6263 61.63 58.2749 60.7071" fill="white"/>
<path d="M58.2749 58.6562C58.8883 57.7333 59.0928 56.0926 61.0353 56.9129C62.9777 57.8358 60.6263 61.63 58.2749 60.7071" stroke="#EAEAEA" stroke-width="0.25"/>
<path d="M81.8921 115.364H57.1509C56.0263 115.364 55.0039 114.441 55.0039 113.21V98.3414C55.0039 97.2134 55.924 96.1879 57.1509 96.1879H81.8921C83.0167 96.1879 84.0391 97.1108 84.0391 98.3414V113.21C84.0391 114.441 83.0167 115.364 81.8921 115.364Z" fill="#C1C1C1"/>
<path d="M68.2939 111.16C67.3738 111.672 65.329 113.518 65.738 114.544C66.1469 115.569 67.8849 112.595 67.9872 112.39C67.9872 113.723 66.8626 118.03 68.0894 118.748C69.3162 119.466 70.3386 113.005 70.5431 112.185C69.7252 111.775 69.0095 111.467 68.2939 111.16Z" fill="white"/>
<path d="M60.6265 70.6539C76.2687 71.0641 77.0865 102.033 70.4412 111.98C69.8278 111.672 69.2143 111.365 68.6009 111.057C72.8948 101.315 70.6456 82.4467 62.4667 75.4736C57.9683 76.2939 58.3773 74.5507 60.6265 70.6539Z" fill="white"/>
<path d="M56.7415 79.3703C56.537 79.3703 56.3325 79.1652 56.3325 78.9601C56.3325 71.4743 60.9332 69.5259 61.1377 69.4234C61.3421 69.3208 61.5466 69.4234 61.6488 69.6285C61.7511 69.8336 61.6488 70.0387 61.4444 70.1412C61.2399 70.2437 57.1504 72.0896 57.1504 78.9601C57.1504 79.2678 56.9459 79.3703 56.7415 79.3703Z" fill="#548BF7"/>
<path d="M46.0066 77.012C46.0066 77.012 45.9044 77.012 46.0066 77.012C45.8021 77.012 45.5977 76.8069 45.5977 76.6018C45.8021 70.8592 49.0737 68.7057 49.176 68.6032C49.3804 68.5006 49.5849 68.5006 49.7894 68.7057C49.8916 68.9108 49.8916 69.1159 49.6872 69.321C49.6872 69.321 46.7223 71.3719 46.5178 76.7043C46.4156 76.8069 46.2111 77.012 46.0066 77.012Z" fill="#548BF7"/>
<path d="M151.821 200.169C150.491 173.712 146.402 147.461 148.958 121.106H148.856C138.019 120.389 127.079 119.671 116.14 118.85C106.121 144.692 106.325 172.482 104.894 200.169C107.552 200.169 110.21 200.169 112.766 200.272C116.856 180.378 118.798 150.332 128.102 132.797C128.102 132.694 130.862 131.156 131.169 132.899C131.271 153.613 140.063 179.147 143.846 200.169C146.607 200.169 149.265 200.169 151.821 200.169Z" fill="#1E4783"/>
<path d="M117.878 120.594C117.776 120.799 117.776 120.901 117.673 121.106" stroke="#9999FF" stroke-width="0.5"/>
<path d="M117.368 122.029C108.371 145.615 108.678 172.584 106.326 197.708" stroke="#9999FF" stroke-width="0.5" stroke-dasharray="0.99 0.99"/>
<path d="M106.223 198.323C106.223 198.528 106.223 198.631 106.223 198.836" stroke="#9999FF" stroke-width="0.5"/>
<path d="M146.3 122.542C146.3 122.747 146.198 122.85 146.198 123.055" stroke="#9999FF" stroke-width="0.5"/>
<path d="M145.993 124.08C141.904 148.178 148.754 173.405 150.39 197.708" stroke="#9999FF" stroke-width="0.5" stroke-dasharray="1.01 1.01"/>
<path d="M150.389 198.323C150.389 198.528 150.389 198.631 150.389 198.836" stroke="#9999FF" stroke-width="0.5"/>
<path d="M146.607 131.874C140.575 131.361 140.064 127.874 141.495 122.645C143.54 122.029 145.687 121.517 147.834 120.901" fill="#1E4783"/>
<path d="M146.607 131.874C140.575 131.361 140.064 127.874 141.495 122.645C143.54 122.029 145.687 121.517 147.834 120.901" stroke="#9999FF" stroke-width="0.5" stroke-dasharray="1"/>
<path d="M112.255 130.233C118.083 130.848 121.866 126.746 123.604 121.311C121.559 120.491 119.514 119.671 117.469 118.748" fill="#1E4783"/>
<path d="M112.255 130.233C118.083 130.848 121.866 126.746 123.604 121.311C121.559 120.491 119.514 119.671 117.469 118.748" stroke="#9999FF" stroke-width="0.5" stroke-dasharray="1"/>
<path d="M87.3096 61.835C87.6163 60.2968 90.2744 55.067 89.1498 53.9389C87.923 52.9135 86.5939 57.8357 86.7984 58.451C86.0827 56.9128 85.4693 50.76 83.0156 50.9651C80.6642 51.1702 83.1179 60.3993 83.7313 62.0401C84.8559 62.0401 86.0827 62.1426 87.3096 61.835Z" fill="white"/>
<path d="M149.368 90.7529C148.345 85.9332 147.629 81.0111 148.038 75.371C148.345 71.987 148.345 68.3979 144.358 67.2699C135.463 64.8088 125.137 65.0139 116.55 68.0903C112.971 69.3209 111.642 71.4743 113.585 75.2685C116.345 80.7034 116.856 87.2663 116.243 94.0343C127.387 95.0598 138.837 93.3165 149.368 90.7529Z" fill="#B8D3F4"/>
<path d="M116.345 94.0343C115.629 102.853 113.175 112.185 112.051 120.183C124.626 123.978 138.939 124.285 151.821 124.08C154.786 109.826 151.514 100.495 149.367 90.7528C138.837 93.3164 127.386 95.0597 116.345 94.0343Z" fill="#548BF7"/>
<path d="M116.549 68.1929C97.6353 74.4482 94.057 117.517 88.2296 63.6809C86.696 63.2707 84.8558 63.6809 83.5267 62.963C74.5299 134.437 108.779 87.1638 117.98 81.4213C127.284 75.7812 117.674 73.0125 116.549 68.1929Z" fill="#B8D3F4"/>
<path d="M112.153 200.887C109.904 200.887 107.859 200.887 105.405 200.887C105.099 201.707 99.0668 203.348 100.498 204.784C101.929 206.219 109.904 204.989 112.46 205.091C112.664 203.656 112.767 201.912 112.153 200.887Z" fill="#0084B5"/>
<path d="M151.208 200.784C148.959 200.784 146.914 200.682 144.46 200.682C144.153 201.502 138.019 203.143 139.451 204.579C140.882 206.014 148.856 204.784 151.514 204.886C151.719 203.656 151.821 201.912 151.208 200.784Z" fill="#0084B5"/>
<path d="M139.86 68.9106C139.349 71.6793 133.521 70.9615 131.579 70.9615C129.636 70.9615 122.786 72.192 121.866 69.5259C120.946 66.8597 129.329 65.9368 131.068 65.9368C132.908 65.8342 140.371 66.1419 139.86 68.9106Z" fill="white"/>
<path d="M135.872 53.1186C135.974 57.7331 135.974 63.1681 138.121 67.3724C133.827 69.9361 128.613 68.9106 124.115 68.0903C125.853 63.7833 126.364 59.6815 126.159 54.9644C129.329 54.4517 132.6 53.7339 135.872 53.1186Z" fill="url(#paint6_linear)"/>
<path d="M137.61 50.8625C137.406 55.5796 129.227 60.7068 124.115 59.989C119.003 59.2712 119.208 51.2726 119.617 46.7606C120.026 42.2486 125.035 39.2748 129.738 39.8901C136.077 40.7104 138.019 44.0945 137.61 50.8625Z" fill="white"/>
<path d="M121.865 42.2488C117.776 45.2226 118.185 50.4524 118.696 54.8619C119.616 54.5543 120.639 54.2466 121.559 53.939C121.661 50.1448 121.661 46.2481 121.865 42.2488Z" fill="white"/>
<path d="M121.15 54.1439C120.844 54.4515 120.435 54.7591 120.128 55.0668C120.128 54.8617 120.128 54.6566 120.026 54.4515C120.333 54.349 120.742 54.2464 121.15 54.1439Z" fill="#EAEAEA"/>
<path d="M123.195 49.7345C123.195 50.0421 122.991 50.2472 122.684 50.2472C122.377 50.2472 122.173 50.0421 122.275 49.7345C122.275 49.4269 122.48 49.2218 122.786 49.2218C122.991 49.3243 123.195 49.5294 123.195 49.7345Z" fill="#C6C6C6"/>
<path d="M118.901 109.006C117.674 108.391 114.198 106.545 113.278 107.775C112.255 108.903 116.651 109.519 117.163 109.519C115.527 110.442 110.006 111.57 109.904 113.723C109.904 115.774 118.083 112.903 119.412 113.005C119.207 111.57 118.901 110.442 118.901 109.006Z" fill="white"/>
<path d="M141.189 66.7168C178.607 75.7408 173.904 126.193 121.355 114.298C120.435 112.35 120.946 111.324 119.719 108.863C143.643 113.58 169.099 92.7634 148.959 83.5343C128.921 74.2026 146.301 76.5612 141.189 66.7168Z" fill="#B8D3F4"/>
<rect width="5.93324" height="17.0107" transform="matrix(0.88577 -0.464125 0.461924 0.88692 79.8296 47.0638)" fill="#1E4783"/>
<rect width="5.93325" height="14.6538" transform="matrix(0.88577 -0.464124 0.461925 0.886919 79.8657 47.0218)" fill="#548BF7"/>
<path d="M129.942 70.4488L133.009 76.1913L141.393 69.0131L139.348 67.4749L129.942 70.4488Z" fill="white"/>
<path d="M128.614 70.4487L126.978 76.1913L119.617 71.2691L121.866 68.6029L128.614 70.4487Z" fill="white"/>
<path d="M124.837 57.3044C124.632 57.3044 124.428 57.2019 124.326 56.8943C124.121 56.1764 123.712 55.5612 123.201 55.2535C122.076 54.6382 120.441 55.151 120.338 55.151C120.032 55.2535 119.827 55.0484 119.725 54.8433C119.623 54.5357 119.827 54.3306 120.032 54.2281C120.134 54.2281 122.076 53.5102 123.712 54.4331C124.53 54.8433 125.041 55.6637 125.348 56.6892C125.45 56.9968 125.246 57.2019 124.939 57.3044C124.939 57.3044 124.939 57.3044 124.837 57.3044Z" fill="#548BF7"/>
<path d="M132.498 36.7112C131.476 36.6086 119.821 37.8392 117.265 42.3512C114.811 46.8632 129.942 42.8639 129.942 42.8639C129.942 42.8639 129.329 46.5556 131.067 47.2734C132.702 47.9912 133.214 47.2734 133.214 47.2734C133.214 47.2734 131.476 52.7083 132.498 52.9134C133.52 53.1185 133.52 53.1185 133.52 53.1185L134.338 48.2988L136.076 52.5032L135.667 56.605C135.667 56.605 140.575 53.1185 140.37 47.4785C140.166 41.8385 135.667 36.8137 135.667 36.8137L134.44 36.0959L134.543 37.0188L131.885 35.5832L132.498 36.7112Z" fill="#548BF7"/>
<path d="M134.032 49.8369C134.338 48.5038 134.032 46.4529 136.588 46.9657C139.143 47.4784 138.223 52.8107 134.747 52.4005" fill="white"/>
<path d="M134.032 49.8369C134.338 48.5038 134.032 46.4529 136.588 46.9657C139.143 47.4784 138.223 52.8107 134.747 52.4005" stroke="#EAEAEA" stroke-width="0.25"/>
<path d="M234.224 249.084C232.384 214.731 242.403 181.711 236.984 147.256H236.882C222.365 146.948 207.847 147.358 193.432 146.948C187.809 181.096 180.55 214.731 177.176 249.186C180.55 249.391 184.026 249.494 187.4 249.597C194.659 220.268 203.553 192.273 212.857 163.253C212.857 163.15 216.333 161.407 216.946 163.253C223.694 191.351 218.582 220.679 224 248.981C227.374 249.084 230.748 249.084 234.224 249.084Z" fill="#1E4783"/>
<path d="M196.09 148.896C196.09 149.102 196.09 149.204 195.987 149.409" stroke="#9999FF" stroke-width="0.5"/>
<path d="M195.886 150.435C192.205 182.736 182.799 214.115 178.71 246.417" stroke="#9999FF" stroke-width="0.5" stroke-dasharray="1 1"/>
<path d="M178.709 246.93C178.709 247.135 178.709 247.238 178.607 247.443" stroke="#9999FF" stroke-width="0.5"/>
<path d="M233.916 149.204C233.916 149.409 233.916 149.512 234.018 149.717" stroke="#9999FF" stroke-width="0.5"/>
<path d="M234.121 150.64C237.086 182.737 230.44 214.218 232.383 246.213" stroke="#9999FF" stroke-width="0.5" stroke-dasharray="1 1"/>
<path d="M232.383 246.828C232.383 247.033 232.383 247.135 232.383 247.34" stroke="#9999FF" stroke-width="0.5"/>
<path d="M237.598 160.792C230.544 160.484 227.374 156.69 227.272 149.717C230.032 148.794 232.793 147.871 235.451 147.05" fill="#3364FF"/>
<path d="M237.598 160.792C230.544 160.484 227.374 156.69 227.272 149.717C230.032 148.794 232.793 147.871 235.451 147.05" stroke="#9999FF" stroke-width="0.5" stroke-dasharray="1"/>
<path d="M192.614 160.176C199.77 160.586 202.94 156.792 203.144 149.717C200.486 148.691 197.726 147.768 195.067 146.743" fill="#1E4783"/>
<path d="M192.614 160.176C199.77 160.586 202.94 156.792 203.144 149.717C200.486 148.691 197.726 147.768 195.067 146.743" stroke="#9999FF" stroke-width="0.5" stroke-dasharray="1"/>
<path d="M186.071 152.383C187.911 152.691 192.614 154.126 192.614 156.28C192.614 158.433 188.115 154.537 187.706 154.331C188.524 156.485 192.614 162.945 190.876 164.894C189.138 166.842 184.128 156.69 182.901 155.665C183.821 154.331 184.946 153.409 186.071 152.383Z" fill="white"/>
<path d="M189.751 89.1122C194.862 106.75 187.808 129.208 188.115 148.794C206.108 151.87 223.386 151.973 241.482 150.64C241.175 130.028 235.757 109.621 240.153 89.2147C240.971 85.2154 239.233 81.4212 234.223 80.4983C222.875 78.5499 207.131 75.9863 195.782 79.2678C191.08 80.7034 188.217 83.7798 189.751 89.1122Z" fill="#86BCF2"/>
<path d="M202.019 81.8316L211.629 106.648L208.153 131.669L210.402 151.152H221.137L223.182 131.464L220.831 106.648L227.783 82.857C227.783 82.9596 214.594 79.473 202.019 81.8316Z" fill="#A8C5EF"/>
<path d="M163.783 116.697C163.272 119.671 163.17 122.747 163.272 125.721C168.077 125.824 172.984 125.516 177.687 124.491C177.994 122.542 178.505 120.696 179.016 118.748C173.905 119.158 168.793 118.543 163.783 116.697Z" fill="#A8C5EF"/>
<path d="M195.681 79.3705C178.301 84.8054 166.441 100.29 163.783 116.595C168.691 118.543 173.802 119.158 179.016 118.645C181.879 109.006 187.502 100.495 193.432 97.5211C206.825 90.9581 195.068 86.5487 195.681 79.3705Z" fill="#86BCF2"/>
<path d="M163.272 125.618C163.886 137.104 169.407 148.178 181.164 155.357C182.8 153.818 183.822 152.896 185.867 151.05C177.586 145.41 175.848 134.745 177.688 124.285C172.985 125.516 168.18 125.823 163.272 125.618Z" fill="white"/>
<path d="M186.275 250.314C183.31 250.212 180.652 250.109 177.483 250.006C176.971 251.032 168.997 252.878 170.837 254.724C172.575 256.569 183.003 255.236 186.479 255.544C186.888 253.903 186.991 251.647 186.275 250.314Z" fill="#0084B5"/>
<path d="M225.022 249.801C227.987 249.904 230.645 249.801 233.815 249.904C234.224 250.929 242.096 253.185 240.256 254.929C238.415 256.672 227.987 254.929 224.614 255.031C224.307 253.288 224.205 251.134 225.022 249.801Z" fill="#0084B5"/>
<path d="M225.33 82.2416C225.023 86.0358 216.947 85.4206 215.004 85.2155C213.062 85.0104 205.292 85.0104 205.087 81.1136C204.883 77.2169 213.47 77.9347 215.311 78.2423C217.151 78.4474 225.637 78.55 225.33 82.2416Z" fill="white"/>
<path d="M224.819 63.886C223.183 69.1158 221.547 76.1915 224.921 81.1137C218.071 84.3952 212.039 83.0621 205.292 80.3959C208.461 74.961 210.71 69.526 212.039 63.3733C216.333 63.5784 220.525 63.6809 224.819 63.886Z" fill="url(#paint7_linear)"/>
<path d="M218.48 109.109C218.377 109.109 211.221 108.288 206.518 99.7768C201.918 91.2655 205.394 67.2698 205.598 66.2444L206.109 66.3469C206.109 66.552 202.531 91.163 207.029 99.4692C211.63 107.775 218.48 108.596 218.582 108.596L218.48 109.109Z" fill="white"/>
<path d="M228.396 61.6299C225.84 67.1674 214.185 71.8845 207.949 69.6285C201.713 67.27 204.371 55.8874 206.518 50.1448C208.665 44.4023 216.741 42.659 222.671 45.1201C230.646 48.299 232.077 53.5288 228.396 61.6299Z" fill="white"/>
<path d="M224.103 59.2713C225.33 57.7331 225.739 55.0669 228.908 56.6051C232.078 58.1433 227.682 64.0909 223.694 62.5527" fill="white"/>
<path d="M224.103 59.2713C225.33 57.7331 225.739 55.0669 228.908 56.6051C232.078 58.1433 227.682 64.0909 223.694 62.5527" stroke="#EAEAEA" stroke-width="0.25"/>
<path d="M210.915 45.0176C204.269 47.3762 203.145 54.6569 202.531 60.8097C203.86 60.7071 205.189 60.7071 206.416 60.6046C207.848 55.2722 209.586 50.1449 210.915 45.0176Z" fill="white"/>
<path d="M205.291 60.6044C204.78 60.9121 204.166 61.2197 203.655 61.5273C203.655 61.2197 203.758 60.9121 203.758 60.6044C204.269 60.6044 204.78 60.6044 205.291 60.6044Z" fill="#EAEAEA"/>
<path d="M216.742 55.0671C216.639 55.3748 216.333 55.5799 215.924 55.4773C215.617 55.3748 215.413 55.0671 215.515 54.657C215.617 54.3493 215.924 54.1442 216.333 54.2468C216.639 54.3493 216.844 54.7595 216.742 55.0671Z" fill="#C6C6C6"/>
<path d="M205.803 55.0671C205.7 55.3748 205.394 55.5799 204.985 55.4773C204.678 55.3748 204.474 55.0671 204.576 54.657C204.678 54.3493 204.985 54.1442 205.394 54.2468C205.7 54.3493 205.905 54.7595 205.803 55.0671Z" fill="#C6C6C6"/>
<path d="M212.754 65.2191C212.754 68.8082 210.709 71.6795 208.153 71.6795C205.597 71.6795 203.553 68.8082 203.553 65.2191C203.553 61.63 205.597 61.8351 208.153 61.8351C210.709 61.8351 212.754 61.63 212.754 65.2191Z" fill="#86BCF2"/>
<rect width="33.7289" height="44.2772" transform="matrix(0.273942 -0.961746 0.961308 0.275476 220.624 164.093)" fill="#9B9B9B"/>
<rect width="33.7289" height="44.2772" transform="matrix(0.273942 -0.961746 0.961308 0.275476 222.668 164.093)" fill="#C1C1C1"/>
<path d="M242.096 149.922C240.256 150.434 235.553 152.28 235.655 154.331C235.757 156.382 240.358 152.28 240.665 151.973C239.642 154.023 235.859 160.997 237.597 162.842C239.335 164.688 244.243 154.229 245.367 152.998C244.345 151.87 243.22 150.947 242.096 149.922Z" fill="white"/>
<path d="M264.588 108.493C260.805 94.5472 248.946 82.8569 230.237 79.8831C229.93 89.8301 222.364 92.2911 237.189 98.7515C243.63 101.623 248.537 108.904 250.684 117.312C256.102 115.364 260.907 112.493 264.588 108.493Z" fill="#86BCF2"/>
<path d="M264.589 108.493C260.908 112.595 256.001 115.364 250.787 117.209C251.298 119.363 251.707 121.619 251.911 123.977C256.512 124.798 261.419 124.798 265.611 123.26C266.224 118.235 265.918 113.21 264.589 108.493Z" fill="#A8C5EF"/>
<path d="M251.911 123.978C252.524 133.104 249.866 142.538 242.301 148.486C244.448 150.229 245.368 151.152 247.208 152.485C258.25 144.487 264.179 133.925 265.611 123.362C261.419 124.798 256.512 124.798 251.911 123.978Z" fill="white"/>
<path d="M34.8626 63.7833H3.57828C1.63578 63.7833 0 62.1425 0 60.1942V38.9672C0 37.0188 1.63578 35.3781 3.57828 35.3781H34.8626C36.8051 35.3781 38.4409 37.0188 38.4409 38.9672V60.1942C38.4409 62.1425 36.8051 63.7833 34.8626 63.7833Z" fill="white"/>
<path d="M8.3833 49.6324L16.1532 46.1458V48.0942L10.5303 50.3502L16.1532 52.6062V54.5545L8.3833 51.1705V49.6324Z" fill="#548BF7"/>
<path d="M17.3804 55.2723L20.3452 43.7871H22.1855L19.2206 55.2723H17.3804Z" fill="#548BF7"/>
<path d="M30.7729 51.273L23.0029 54.657V52.7087L28.7282 50.4527L23.0029 48.1967V46.2483L30.7729 49.6323V51.273Z" fill="#548BF7"/>
<path d="M22.083 63.7832L33.0223 71.8844V63.7832H22.083Z" fill="white"/>
<path d="M203.655 39.48H172.371C170.428 39.48 168.792 37.8393 168.792 35.8909V14.6639C168.792 12.7156 170.428 11.0748 172.371 11.0748H203.655C205.598 11.0748 207.233 12.7156 207.233 14.6639V35.8909C207.336 37.8393 205.7 39.48 203.655 39.48Z" fill="white"/>
<path d="M177.278 25.329L185.048 21.8425V23.7908L179.425 26.0468L185.048 28.3029V30.2512L177.278 26.8672V25.329Z" fill="#548BF7"/>
<path d="M186.275 30.9689L189.24 19.4838H191.08L188.116 30.9689H186.275Z" fill="#548BF7"/>
<path d="M199.668 26.9696L191.898 30.3536V28.4052L197.623 26.1492L191.898 23.8932V21.9449L199.668 25.3289V26.9696Z" fill="#548BF7"/>
<path d="M190.978 39.4802L201.917 47.4787V39.4802H190.978Z" fill="white"/>
<path d="M118.185 28.4052H86.9005C84.958 28.4052 83.3223 26.7644 83.3223 24.8161V3.5891C83.3223 1.64073 84.958 0 86.9005 0H118.185C120.127 0 121.763 1.64073 121.763 3.5891V24.8161C121.865 26.7644 120.23 28.4052 118.185 28.4052Z" fill="white"/>
<path d="M105.507 28.4052L116.447 36.5063V28.4052H105.507Z" fill="white"/>
<path d="M102.031 20.5094V19.0737C100.907 19.0737 99.9867 18.7661 99.271 18.3559L99.7822 16.0999C100.191 16.305 100.6 16.5101 101.009 16.6126C101.52 16.7152 102.031 16.8177 102.543 16.8177C103.463 16.8177 103.872 16.6126 103.872 16.0999C103.872 15.6897 103.36 15.2795 102.236 14.9719C101.316 14.6643 100.6 14.2541 100.089 13.8439C99.5777 13.3312 99.271 12.7159 99.271 11.9981C99.271 10.3574 100.191 9.43444 102.031 9.02426V7.58862H103.872V8.92172C104.383 8.92172 104.894 9.02426 105.303 9.12681C105.61 9.22935 106.019 9.3319 106.325 9.43444L105.814 11.5879L105.405 11.3828C105.201 11.2803 105.098 11.2803 104.894 11.1777C104.383 11.0752 103.872 10.9726 103.36 10.9726C102.543 10.9726 102.134 11.1777 102.134 11.6904C102.134 11.9981 102.747 12.4083 103.974 12.8184C105.814 13.4337 106.734 14.4592 106.734 15.7923C106.734 17.433 105.712 18.4585 103.769 18.8686V20.5094H102.031Z" fill="#548BF7"/>
<path d="M268.372 29.3863H237.088C235.145 29.3863 233.509 27.7456 233.509 25.7972V4.57024C233.509 2.62187 235.145 0.98114 237.088 0.98114H268.372C270.314 0.98114 271.95 2.62187 271.95 4.57024V25.7972C271.95 27.7456 270.314 29.3863 268.372 29.3863Z" fill="white"/>
<path d="M255.592 29.3861L266.531 37.3846V29.3861H255.592Z" fill="white"/>
<path d="M252.116 21.3875V19.9519C250.992 19.9519 250.072 19.6442 249.356 19.234L249.867 16.978C250.276 17.1831 250.685 17.3882 251.094 17.4908C251.605 17.5933 252.116 17.6959 252.627 17.6959C253.548 17.6959 253.957 17.4908 253.957 16.978C253.957 16.5679 253.445 16.1577 252.321 15.85C251.401 15.5424 250.685 15.1322 250.174 14.722C249.663 14.2093 249.356 13.594 249.356 12.8762C249.356 11.2355 250.276 10.3126 252.116 9.90238V8.46674H253.957V9.79983C254.468 9.79983 254.979 9.90238 255.388 10.0049C255.695 10.1075 256.104 10.21 256.41 10.3126L255.899 12.466L255.49 12.2609C255.286 12.1584 255.183 12.1584 254.979 12.0558C254.468 11.9533 253.957 11.8507 253.445 11.8507C252.627 11.8507 252.219 12.0558 252.219 12.5686C252.219 12.8762 252.832 13.2864 254.059 13.6966C255.899 14.3118 256.819 15.3373 256.819 16.6704C256.819 18.3111 255.797 19.3366 253.854 19.7468V21.3875H252.116Z" fill="#548BF7"/>
<path d="M84.0384 187.864C89.1766 187.864 93.3419 183.686 93.3419 178.532C93.3419 173.378 89.1766 169.201 84.0384 169.201C78.9002 169.201 74.7349 173.378 74.7349 178.532C74.7349 183.686 78.9002 187.864 84.0384 187.864Z" fill="#C0D8F5"/>
<path d="M74.7347 170.841C76.3157 170.841 77.5973 169.556 77.5973 167.97C77.5973 166.384 76.3157 165.099 74.7347 165.099C73.1537 165.099 71.8721 166.384 71.8721 167.97C71.8721 169.556 73.1537 170.841 74.7347 170.841Z" fill="#C0D8F5"/>
<path d="M246.389 61.2198C251.528 61.2198 255.693 57.0419 255.693 51.8881C255.693 46.7344 251.528 42.5565 246.389 42.5565C241.251 42.5565 237.086 46.7344 237.086 51.8881C237.086 57.0419 241.251 61.2198 246.389 61.2198Z" fill="#C4DAF6"/>
<path d="M245.47 68.8084C247.051 68.8084 248.332 67.5228 248.332 65.9371C248.332 64.3513 247.051 63.0658 245.47 63.0658C243.889 63.0658 242.607 64.3513 242.607 65.9371C242.607 67.5228 243.889 68.8084 245.47 68.8084Z" fill="#C4DAF6"/>
<path d="M313.354 141.308C315.274 141.308 316.83 139.747 316.83 137.821C316.83 135.896 315.274 134.335 313.354 134.335C311.435 134.335 309.878 135.896 309.878 137.821C309.878 139.747 311.435 141.308 313.354 141.308Z" fill="#C5DBF6"/>
<path d="M6.41939 137.464C8.33915 137.464 9.89542 135.903 9.89542 133.977C9.89542 132.052 8.33915 130.491 6.41939 130.491C4.49963 130.491 2.94336 132.052 2.94336 133.977C2.94336 135.903 4.49963 137.464 6.41939 137.464Z" fill="#C3DAF6"/>
<path d="M316.013 72.8072C317.932 72.8072 319.489 71.2463 319.489 69.3207C319.489 67.3951 317.932 65.8341 316.013 65.8341C314.093 65.8341 312.537 67.3951 312.537 69.3207C312.537 71.2463 314.093 72.8072 316.013 72.8072Z" fill="#C5DBF6"/>
<path d="M57.6613 193.299L29.0352 163.663L35.9872 163.561L76.5751 182.839L61.7508 164.278L66.2492 163.458L99.3738 193.401L57.6613 193.299Z" fill="url(#paint8_linear)"/>
<path d="M100.498 204.681L132.498 233.599H217.457L151.514 204.989L139.45 204.681L168.588 220.371L112.46 204.989L100.498 204.681Z" fill="url(#paint9_linear)"/>
<path d="M356.907 224.78L312.741 190.53L303.642 190.838L319.897 207.04L276.958 201.605L269.904 202.118L298.121 221.807L356.907 224.78Z" fill="url(#paint10_linear)"/>
<path d="M170.837 254.621L179.118 287.128L291.987 284.052L240.255 254.826L226.965 254.621L238.62 277.899L189.955 255.646L174.62 254.621" fill="url(#paint11_linear)"/>
<path d="M197.419 157.305C195.987 131.874 208.563 117.928 217.866 107.776C219.706 105.725 221.444 103.776 222.978 101.93C233.917 88.3945 225.636 60.9122 225.636 60.6046L226.147 60.502C226.249 60.8097 234.531 88.497 223.489 102.238C221.955 104.084 220.217 106.032 218.377 108.083C208.665 118.748 196.601 132.079 198.134 157.203L197.419 157.305Z" fill="white"/>
<path d="M217.252 109.621C217.873 109.621 218.377 109.116 218.377 108.493C218.377 107.87 217.873 107.365 217.252 107.365C216.631 107.365 216.127 107.87 216.127 108.493C216.127 109.116 216.631 109.621 217.252 109.621Z" fill="white"/>
<path d="M199.974 154.639H195.783V159.459C195.783 159.459 199.361 157.203 200.179 154.639" fill="#A8C5EF"/>
<defs>
<linearGradient id="paint0_linear" x1="360.822" y1="63.6357" x2="360.822" y2="70.8244" gradientUnits="userSpaceOnUse">
<stop stop-color="#E2E3E4"/>
<stop offset="0.9872" stop-color="white"/>
</linearGradient>
<linearGradient id="paint1_linear" x1="276.696" y1="65.6796" x2="276.696" y2="183.031" gradientUnits="userSpaceOnUse">
<stop offset="0.0875" stop-color="#469AED"/>
<stop offset="1" stop-color="#469AED" stop-opacity="0.01"/>
</linearGradient>
<linearGradient id="paint2_linear" x1="-109.285" y1="196.671" x2="161.671" y2="511.076" gradientUnits="userSpaceOnUse">
<stop stop-color="white"/>
<stop offset="0.0932497" stop-color="white" stop-opacity="0.9068"/>
<stop offset="1" stop-color="white" stop-opacity="0.01"/>
</linearGradient>
<linearGradient id="paint3_linear" x1="-327.526" y1="197.518" x2="-270.884" y2="488.802" gradientUnits="userSpaceOnUse">
<stop stop-color="white"/>
<stop offset="0.0932497" stop-color="white" stop-opacity="0.9068"/>
<stop offset="1" stop-color="white" stop-opacity="0.01"/>
</linearGradient>
<linearGradient id="paint4_linear" x1="281.345" y1="56.944" x2="281.345" y2="67.1604" gradientUnits="userSpaceOnUse">
<stop stop-color="#E2E3E4"/>
<stop offset="0.9872" stop-color="white"/>
</linearGradient>
<linearGradient id="paint5_linear" x1="50.6623" y1="62.434" x2="50.6623" y2="70.1217" gradientUnits="userSpaceOnUse">
<stop stop-color="#E2E3E4"/>
<stop offset="0.9872" stop-color="white"/>
</linearGradient>
<linearGradient id="paint6_linear" x1="126.216" y1="55.4536" x2="126.216" y2="66.573" gradientUnits="userSpaceOnUse">
<stop stop-color="#E2E3E4"/>
<stop offset="0.9872" stop-color="white"/>
</linearGradient>
<linearGradient id="paint7_linear" x1="208.266" y1="66.2822" x2="208.266" y2="79.9959" gradientUnits="userSpaceOnUse">
<stop stop-color="#E2E3E4"/>
<stop offset="0.9872" stop-color="white"/>
</linearGradient>
<linearGradient id="paint8_linear" x1="-69.1534" y1="76.6744" x2="-69.1534" y2="190.216" gradientUnits="userSpaceOnUse">
<stop offset="0.0875" stop-color="#469AED"/>
<stop offset="1" stop-color="#469AED" stop-opacity="0.01"/>
</linearGradient>
<linearGradient id="paint9_linear" x1="-62.5817" y1="120.901" x2="-62.5817" y2="230.462" gradientUnits="userSpaceOnUse">
<stop offset="0.0875" stop-color="#469AED"/>
<stop offset="1" stop-color="#469AED" stop-opacity="0.01"/>
</linearGradient>
<linearGradient id="paint10_linear" x1="148.629" y1="91.3586" x2="148.629" y2="221.093" gradientUnits="userSpaceOnUse">
<stop offset="0.0875" stop-color="#469AED"/>
<stop offset="1" stop-color="#469AED" stop-opacity="0.01"/>
</linearGradient>
<linearGradient id="paint11_linear" x1="2.42812" y1="160.738" x2="2.42812" y2="283.62" gradientUnits="userSpaceOnUse">
<stop offset="0.0875" stop-color="#469AED"/>
<stop offset="1" stop-color="#469AED" stop-opacity="0.01"/>
</linearGradient>
</defs>
</svg>
