<svg width="398" height="361" viewBox="0 0 398 361" fill="none" xmlns="http://www.w3.org/2000/svg">
<path d="M370.924 289.056H362.814V277.822C347.915 276.567 338.374 269.281 334.207 255.965L347.122 252.932C349.442 261.473 354.67 266.066 362.806 266.71V242.736C352.186 240.269 345.276 237.141 342.075 233.358C338.866 229.576 337.27 225.053 337.27 219.789C337.27 206.15 345.785 198.281 362.806 196.172V187.431H370.915V196.172C383.373 197.793 391.249 204.007 394.527 214.804L382.329 217.41C380.25 211.179 376.436 207.815 370.915 207.336V228.522C378.766 230.788 384.054 232.531 386.78 233.742C389.506 234.953 391.956 237.324 394.139 240.845C396.322 244.365 397.417 248.496 397.417 253.228C397.417 259.948 395.157 265.534 390.628 269.979C386.099 274.432 379.534 277.038 370.915 277.813V289.056H370.924ZM362.814 207.344C359.329 207.388 356.413 208.268 354.066 209.985C351.72 211.711 350.555 214.247 350.555 217.602C350.555 223.267 354.645 226.648 362.814 227.737V207.344ZM370.924 266.71C374.685 266.667 377.843 265.56 380.388 263.373C382.933 261.185 384.201 258.335 384.201 254.815C384.201 248.906 379.775 245.124 370.924 243.459V266.71Z" fill="white"/>
<path d="M336.865 293.727C334.881 259.834 350.953 226.229 350.556 189.4C350.53 189.4 350.461 189.391 350.444 189.391C350.427 189.391 350.452 189.391 350.435 189.383C335.191 187.736 320.465 187.788 305.16 188.189C300.036 222.438 290.348 260.863 286.793 293.413C289.338 293.308 291.909 293.221 294.437 293.169C304.039 260.192 321.655 241.977 325.684 203.789C325.693 203.667 328.126 201.645 328.609 203.78C328.152 230.944 323.355 268.174 329.359 293.709C331.87 293.788 334.372 293.735 336.865 293.727Z" fill="#1E4783"/>
<path d="M334.449 292.315C333.138 274.092 336.848 253.359 340.437 233.306C343.266 217.506 346.191 201.174 346.76 185.801L347.192 185.818C346.614 201.218 343.689 217.567 340.859 233.384C337.279 253.411 333.569 274.118 334.881 292.289L334.449 292.315Z" fill="#9797FB"/>
<path d="M349.218 199.353C341.463 198.446 338.521 194.359 339.384 185.688L339.401 185.531L339.547 185.496C342.067 184.877 344.603 184.267 347.131 183.666L348.847 183.256L348.951 183.683L347.234 184.093C344.758 184.686 342.282 185.278 339.806 185.879C339.021 194.15 341.86 198.054 349.27 198.917L349.218 199.353Z" fill="#9797FB"/>
<path d="M289.537 291.923L289.106 291.87C291.151 275.434 294.739 259.59 298.544 242.805C302.728 224.33 307.05 205.227 309.259 184.912L309.69 184.956C307.481 205.296 303.159 224.417 298.967 242.901C295.171 259.669 291.582 275.512 289.537 291.923Z" fill="#9797FB"/>
<path d="M305.437 198.133L305.419 197.697C312.761 197.435 316.384 193.54 316.807 185.444C314.521 184.79 312.209 184.084 309.966 183.413L307.723 182.733L307.844 182.315L310.087 182.995C312.381 183.692 314.745 184.407 317.083 185.078L317.247 185.121L317.238 185.295C316.859 193.662 312.994 197.862 305.437 198.133Z" fill="#9797FB"/>
<path d="M293.316 294.023C291.28 294.11 289.537 294.145 287.328 294.258C286.586 295.208 279.133 298.154 280.668 299.87C282.204 301.596 291.185 299.504 294.032 299.504C294.247 297.762 294.221 295.478 293.316 294.023Z" fill="#343480"/>
<path d="M330.49 294.563C332.491 294.589 334.2 294.537 336.374 294.589C337.193 295.687 344.862 298.04 343.499 299.879C342.136 301.718 332.905 299.984 330.119 300.132C329.791 298.407 329.644 296.027 330.49 294.563Z" fill="#343480"/>
<path d="M343.723 161.573C342.145 147.081 346.639 139.551 345.009 125.633C344.258 119.202 331.231 119.28 326.53 118.339C325.693 118.173 325.158 118.304 324.537 118.103C323.916 117.912 323.07 117.938 322.458 117.746C318.998 116.665 302.21 117.52 305.04 123.585C308.257 130.479 303.444 136.039 306.627 143.516C309.215 149.608 313.485 156.885 313.183 164.101C312.838 172.232 303.84 182.794 303.452 191.291C311.372 191.5 319.369 191.213 327.323 191.248C335.105 191.248 342.895 192.128 350.625 192.503C351.462 184.006 344.569 169.33 343.723 161.573Z" fill="#1E4783"/>
<path d="M250.034 123.42C248.541 121.703 243.348 117.284 244.116 115.053C244.883 112.831 249.119 119.341 249.206 119.925C249.102 117.223 246.108 108.247 248.757 106.722C251.414 105.197 254.002 118.696 254.244 120.622C252.95 121.807 251.587 122.661 250.034 123.42Z" fill="white"/>
<path d="M308.43 119.794C285.81 124.84 282.583 180.955 254.235 121.528C253.105 122.408 251.949 123.228 250.767 124.021C272.722 197.113 290.667 141.372 305.669 129.206C315.409 130.81 315.159 129.598 308.43 119.794Z" fill="#1E4783"/>
<path d="M334.087 100.299H315.901V103.515H334.087V100.299Z" fill="#E0E1E2"/>
<path d="M334.086 103.515H315.9V104.011H334.086V103.515Z" fill="#E0E1E2"/>
<path d="M334.086 104.011H315.9V104.508H334.086V104.011Z" fill="#E1E2E3"/>
<path d="M334.086 104.499H315.9V104.996H334.086V104.499Z" fill="#E2E3E4"/>
<path d="M334.086 104.996H315.9V105.493H334.086V104.996Z" fill="#E3E4E5"/>
<path d="M334.086 105.493H315.9V105.99H334.086V105.493Z" fill="#E4E5E6"/>
<path d="M334.086 105.99H315.9V106.486H334.086V105.99Z" fill="#E5E6E7"/>
<path d="M334.086 106.478H315.9V106.975H334.086V106.478Z" fill="#E6E7E8"/>
<path d="M334.086 106.975H315.9V107.471H334.086V106.975Z" fill="#E7E8E9"/>
<path d="M334.086 107.471H315.9V107.968H334.086V107.471Z" fill="#E8E9EA"/>
<path d="M334.086 107.968H315.9V108.465H334.086V107.968Z" fill="#E9EAEB"/>
<path d="M334.086 108.456H315.9V108.953H334.086V108.456Z" fill="#EAEBEC"/>
<path d="M334.086 108.953H315.9V109.449H334.086V108.953Z" fill="#EBECED"/>
<path d="M334.086 109.45H315.9V109.946H334.086V109.45Z" fill="#ECEDEE"/>
<path d="M334.086 109.946H315.9V110.443H334.086V109.946Z" fill="#EDEEEF"/>
<path d="M334.086 110.434H315.9V110.931H334.086V110.434Z" fill="#EEEFF0"/>
<path d="M334.086 110.931H315.9V111.428H334.086V110.931Z" fill="#F0F0F1"/>
<path d="M334.086 111.428H315.9V111.925H334.086V111.428Z" fill="#F1F1F1"/>
<path d="M334.086 111.924H315.9V112.421H334.086V111.924Z" fill="#F2F2F2"/>
<path d="M334.086 112.413H315.9V112.909H334.086V112.413Z" fill="#F3F3F3"/>
<path d="M334.086 112.909H315.9V113.406H334.086V112.909Z" fill="#F4F4F4"/>
<path d="M334.086 113.406H315.9V113.903H334.086V113.406Z" fill="#F5F5F5"/>
<path d="M334.086 113.903H315.9V114.4H334.086V113.903Z" fill="#F6F6F6"/>
<path d="M334.086 114.4H315.9V114.896H334.086V114.4Z" fill="#F7F7F7"/>
<path d="M334.086 114.888H315.9V115.384H334.086V114.888Z" fill="#F8F8F8"/>
<path d="M334.086 115.385H315.9V115.881H334.086V115.385Z" fill="#F9F9F9"/>
<path d="M334.086 115.881H315.9V116.378H334.086V115.881Z" fill="#FAFAFA"/>
<path d="M334.086 116.378H315.9V116.875H334.086V116.378Z" fill="#FBFBFB"/>
<path d="M334.086 116.866H315.9V117.363H334.086V116.866Z" fill="#FCFCFC"/>
<path d="M334.086 117.363H315.9V117.859H334.086V117.363Z" fill="#FDFDFD"/>
<path d="M334.086 117.859H315.9V118.356H334.086V117.859Z" fill="#FEFEFE"/>
<path d="M334.086 118.356H315.9V118.853H334.086V118.356Z" fill="white"/>
<path d="M334.086 118.844H315.9V124.465H334.086V118.844Z" fill="white"/>
<path d="M334.88 99.9591C331.783 106.173 319.679 111.245 311.898 106.286C306.212 102.652 309.111 90.1374 312.691 84.1241C316.272 78.1107 325.649 77.9277 331.326 81.7362C339.03 86.9128 339.34 91.0088 334.88 99.9591Z" fill="white"/>
<path d="M318.282 81.8231C317.515 83.3744 316.643 84.0106 315.021 85.1435C313.615 86.1283 311.665 88.9868 310.88 90.6339C309.543 93.4575 308.18 95.5229 306.877 98.1897C308.344 98.3466 309.819 98.5296 311.286 98.7126C312.908 92.769 315.453 87.2874 318.282 81.8231Z" fill="white"/>
<path d="M310.604 98.5821C310.009 98.8522 309.414 99.1137 308.827 99.3839C308.836 99.0353 308.853 98.6779 308.862 98.3293C309.44 98.4078 310.018 98.4949 310.604 98.5821Z" fill="#E8E8E8"/>
<path d="M315.849 93.5186C315.702 93.8934 315.331 94.0939 314.96 93.9196C314.581 93.7453 314.469 93.3095 314.615 92.9347C314.762 92.56 315.142 92.3595 315.513 92.5338C315.883 92.7081 316.004 93.1439 315.849 93.5186Z" fill="#C4C4C4"/>
<path d="M313.322 120.073C318.3 128.509 322.45 151.708 327.074 156.702C331.698 161.696 334.847 123.115 336.822 121.084C329.032 120.23 320.819 118.391 313.322 120.073Z" fill="white"/>
<path d="M328.332 124.436C326.856 124.34 325.407 124.209 323.949 124C323.604 124.741 323.302 125.499 323 126.248C323.587 126.858 324.225 127.172 324.777 127.965C324.898 133.883 324.493 145.395 324.751 150.101C325.01 154.807 326.287 157.378 328.09 159.095C329.893 160.812 330.704 151.191 330.903 150.589C329.6 143.077 328.375 135.852 327.331 128.445C328.073 127.939 328.841 127.434 329.565 126.885C329.151 126.074 328.728 125.255 328.332 124.436Z" fill="#1E4783"/>
<path d="M308.059 118.687C309.845 118.199 311.674 117.947 313.494 117.624C317.074 119.149 320.197 121.189 323.484 123.237C322.734 124.64 321.975 126.112 321.474 127.629C317.35 124.16 313.166 120.579 308.059 118.687Z" fill="#9DBEF4"/>
<path d="M340.186 119.672C338.633 119.446 337.071 119.263 335.501 119.106C332.68 120.657 329.946 122.4 326.969 123.638C327.599 125.267 328.341 126.853 329.083 128.431C332.991 125.79 336.588 122.731 340.186 119.672Z" fill="#9DBEF4"/>
<path d="M317.566 79.9233C320.715 79.8362 329.731 79.8013 329.273 84.5771C328.816 89.3529 325.219 94.791 331.956 96.7955C332.785 97.728 327.479 104.508 330.887 104.543C334.294 104.578 340.066 101.292 342.05 92.987C344.034 84.6817 328.35 71.5918 317.566 79.9233Z" fill="#9DBEF4"/>
<path d="M330.413 97.2149C331.767 95.4894 332.474 92.8923 335.874 94.5743C339.273 96.2563 334.105 102.479 330.128 100.928" fill="white"/>
<path d="M331.482 101.292C331.016 101.292 330.55 101.214 330.084 101.031L330.162 100.831C332.716 101.833 335.718 99.4884 336.581 97.4927C337.133 96.2203 336.857 95.1919 335.813 94.6777C333.113 93.3443 332.172 94.7736 331.18 96.29C330.956 96.6212 330.731 96.9698 330.481 97.2922L330.309 97.1528C330.55 96.8478 330.775 96.4992 330.99 96.168C331.991 94.6429 333.026 93.0655 335.899 94.486C337.038 95.0525 337.366 96.2116 336.77 97.5886C336.02 99.3403 333.777 101.292 331.482 101.292Z" fill="#E8E8E8"/>
<path d="M320.129 78.0497C315.539 76.4723 310.82 79.6706 308.542 83.0259C306.256 86.3811 305.04 90.3289 308.655 92.5251C307.697 85.0129 315.461 81.7796 321.009 79.5486" fill="#9DBEF4"/>
<path d="M340.212 96.1767C344.223 95.5318 348.166 93.876 349.986 99.5494C351.815 105.223 344.102 110.347 344.689 115.994C340.772 115.027 338.141 112.395 338.659 108.29C339.176 104.186 337.934 100.569 339.444 96.7693C339.72 96.5515 339.901 96.473 340.212 96.1767Z" fill="#9DBEF4"/>
<path d="M366.68 197.584C366.68 196.486 349.556 168.824 349.556 168.824L327.608 179.422L345.078 206.83L366.68 197.584Z" fill="#75B1F9"/>
<path d="M238.43 126.722C239.517 126.67 266.097 108.142 266.097 108.142L254.632 86.4771L228.311 105.345L238.43 126.722Z" fill="#75B1F9"/>
<path d="M360.873 176.947C358.812 176.929 355.516 176.537 355.085 178.724C354.645 180.912 358.268 179.099 358.708 178.785C357.371 181.069 352.393 183.561 353.739 186.097C355.085 188.633 362.15 182.437 363.263 181.165C362.599 179.648 361.719 178.358 360.873 176.947Z" fill="white"/>
<path d="M338.616 121.189C376.195 122.113 408.469 158.759 363.686 180.59C363.047 179.387 362.409 178.193 361.771 176.99C393.07 161.548 372.667 135.159 345.828 130.54C337.071 135.594 336.778 128.814 338.616 121.189Z" fill="#1E4783"/>
<path d="M253.57 116.997C253.57 116.997 254.14 110.286 252.967 109.572C251.793 108.857 250.775 119.114 250.775 119.114L253.57 116.997Z" fill="white"/>
<path d="M240.353 351.402H233.477C231.148 351.402 229.241 349.476 229.241 347.123V245.681C229.241 243.328 231.148 241.402 233.477 241.402H240.353C242.682 241.402 244.589 243.328 244.589 245.681V347.123C244.589 349.476 242.682 351.402 240.353 351.402Z" fill="white"/>
<path d="M246.349 175.3C246.349 175.3 269.047 164.197 274.577 178.838C280.107 193.479 269.409 263.773 236.911 263.442C204.413 263.111 198.417 244.67 206.958 230.552C215.499 216.434 246.349 175.3 246.349 175.3Z" fill="white"/>
<path d="M235.376 335.492C192.378 289.285 236.368 285.085 246.134 240.264C246.108 240.255 246.047 240.238 246.03 240.238C246.013 240.229 246.039 240.238 246.03 240.229C230.855 234.686 214.714 238.643 198.952 235C175.098 278.453 141.772 256.325 153.384 333.209C157.171 332.128 161.071 330.385 164.78 329.034C155.869 275.219 186.969 284.091 214.636 253.484C214.723 253.388 218.915 250.539 219.442 252.116C196.657 287.795 189.462 307.831 224.497 341.81C228.163 339.884 232.08 338.037 235.376 335.492Z" fill="#1E4783"/>
<path d="M154.47 330.12C150.373 309.143 150.778 294.52 155.73 284.088C160.164 274.754 167.721 269.883 175.719 264.723C185.269 258.562 195.155 252.183 201.445 237.585L201.643 237.672C195.319 252.331 185.416 258.719 175.831 264.906C167.86 270.048 160.328 274.911 155.92 284.184C150.985 294.572 150.588 309.152 154.677 330.077L154.47 330.12Z" fill="#9797FB"/>
<path d="M232.072 334.887C218.519 322.695 212.627 311.723 213.541 300.359C214.361 290.11 220.676 280.436 227.362 270.196C233.133 261.359 239.103 252.218 242.77 241.367L242.977 241.437C239.301 252.313 233.323 261.464 227.543 270.318C220.874 280.532 214.576 290.18 213.757 300.376C212.851 311.662 218.717 322.573 232.219 334.722L232.072 334.887Z" fill="#9797FB"/>
<path d="M239.802 255.581C232.184 251.825 234.108 247.294 236.773 241.019C236.92 240.67 237.067 240.322 237.222 239.964L237.248 239.912L237.308 239.903C239.793 239.555 242.338 239.407 244.943 239.267L244.952 239.485C242.372 239.616 239.845 239.764 237.395 240.104C237.248 240.444 237.11 240.775 236.972 241.106C234.254 247.494 232.46 251.721 239.896 255.39L239.802 255.581Z" fill="#9797FB"/>
<path d="M196.501 250.265C194.802 250.265 193.102 249.908 191.446 249.202L191.532 249.002C194.793 250.396 198.253 250.396 201.531 248.984C205.31 247.363 208.398 244.034 210.011 239.851C206.793 238.587 203.748 236.827 200.936 235.128L201.048 234.945C203.886 236.661 206.949 238.431 210.192 239.694L210.296 239.729L210.261 239.834C208.64 244.121 205.491 247.529 201.626 249.194C199.943 249.908 198.218 250.265 196.501 250.265Z" fill="#9797FB"/>
<path d="M138.329 238.919C136.371 240.069 131.238 243.947 129.297 242.649C127.355 241.341 134.602 238.962 135.128 238.866C132.566 238.265 123.145 238.692 122.49 235.72C121.834 232.748 135.405 233.725 137.406 233.838C137.777 235.563 137.906 237.193 138.329 238.919Z" fill="white"/>
<path d="M200.039 176.459C203.032 188.729 195.734 221.184 192.654 235.651C211.375 243.93 229.543 240.583 249.472 245.551C256.977 218.386 243.277 206.325 258.314 181.993C261.282 177.191 256.537 163.047 250.127 163.474C235.763 164.432 220.718 169.321 205.525 168.868C199.288 168.676 199.141 172.764 200.039 176.459Z" fill="#1E4783"/>
<path d="M205.103 168.833C181.094 171.221 180.136 218.526 139.011 232.766C139.433 234.849 138.2 239.572 140.184 239.241C188.116 231.363 189.151 192.146 203.481 185.54C217.81 178.934 204.809 176.014 205.103 168.833Z" fill="#1E4783"/>
<path d="M164.176 330.19C160.812 331.34 157.904 332.7 154.272 333.815C153.962 335.053 145.222 340.813 147.836 342.068C150.45 343.323 162.131 337.301 166.031 336.09C166.005 334.12 165.479 331.506 164.176 330.19Z" fill="#343480"/>
<path d="M236.091 335.959C233.002 337.885 230.311 339.672 226.756 341.214C226.774 342.469 219.475 348.3 222.21 349.267C224.945 350.243 235.409 343.855 238.99 342.251C238.601 340.142 237.678 337.275 236.091 335.959Z" fill="#343480"/>
<path d="M194.001 233.838C191.999 232.984 186.219 230.169 184.658 231.894C183.096 233.62 189.886 234.256 190.429 234.256C188.204 235.502 179.689 237.341 179.697 240.313C179.706 243.293 192.396 239.215 194.424 239.067C194.467 237.297 194.217 235.607 194.001 233.838Z" fill="white"/>
<path d="M151.167 257.978C180.917 257.978 205.034 254.474 205.034 250.152C205.034 245.83 180.917 242.326 151.167 242.326C121.417 242.326 97.2993 245.83 97.2993 250.152C97.2993 254.474 121.417 257.978 151.167 257.978Z" fill="white"/>
<path d="M159.129 243.738L147.345 203.126L103.64 202.142L116.046 243.206L159.129 243.738Z" fill="#75B1F9"/>
<path d="M122.465 241.402V247.424H181.336V242.588L122.465 241.402Z" fill="#75B1F9"/>
<path d="M130.704 230.448C133.672 230.448 136.078 228.017 136.078 225.018C136.078 222.02 133.672 219.589 130.704 219.589C127.735 219.589 125.329 222.02 125.329 225.018C125.329 228.017 127.735 230.448 130.704 230.448Z" fill="#8AC5FF"/>
<path d="M182.5 360.143H180.162C178.229 360.143 176.659 358.548 176.659 356.605V253.69C176.659 251.738 178.238 250.152 180.162 250.152H182.5C184.432 250.152 186.002 251.747 186.002 253.69V356.605C186.011 358.557 184.432 360.143 182.5 360.143Z" fill="white"/>
<path d="M113.742 358.784H111.404C109.472 358.784 107.902 357.189 107.902 355.245V252.331C107.902 250.379 109.481 248.793 111.404 248.793H113.742C115.675 248.793 117.245 250.387 117.245 252.331V355.245C117.254 357.197 115.675 358.784 113.742 358.784Z" fill="white"/>
<path d="M209.71 168.668C214.696 179.038 220.114 205.471 224.005 212.53C227.896 219.58 237.765 166.358 241.354 164.807C229.759 166.759 221.037 167.256 209.71 168.668Z" fill="white"/>
<path d="M225.041 172C223.376 172.662 220.9 174.283 219.131 173.595C219.183 174.44 218.881 175.355 219.054 176.166C219.899 176.654 220.762 176.767 221.599 177.499C224.204 184.009 218.726 198.354 219.813 203.722C220.909 209.091 222.712 214.015 224.834 215.209C226.956 216.402 227.767 207.147 226.973 202.79C226.18 198.432 227.741 180.898 225.11 176.985C225.973 175.591 227.025 174.911 227.931 173.76C226.965 173.203 225.964 172.654 225.041 172Z" fill="#548BF7"/>
<path d="M36.1394 297.36C34.9575 263.851 41.6262 215.892 43.5759 180.397C43.6104 180.397 43.6708 180.397 43.6967 180.397C43.7312 180.397 43.688 180.388 43.7053 180.388C59.6481 179.874 75.5046 179.987 91.3611 178C99.1686 202.071 85.6673 267.084 82.967 296.671C79.1625 296.436 75.3407 296.096 71.5793 295.739C70.6821 271.302 78.9296 216.354 73.0804 197.565C73.0632 197.504 69.181 194.218 68.3097 196.293C60.3383 226.568 52.2375 266.509 48.0188 297.56C44.059 297.665 40.1078 297.656 36.1394 297.36Z" fill="#B8D3F4"/>
<path d="M82.0282 294.468L81.8125 294.441C82.287 290.389 82.8909 285.613 83.5897 280.07C87.3597 250.274 93.666 200.416 89.249 180.459L89.456 180.415C93.8903 200.416 87.8169 248.374 83.8053 280.105C83.1066 285.639 82.5027 290.415 82.0282 294.468Z" fill="#1E4783"/>
<path d="M38.8504 295.147L38.6348 295.13C39.7477 281.918 41.1711 269.673 42.5428 257.839C45.3725 233.498 48.0469 210.508 47.6759 182.437H47.8916C48.2625 210.525 45.5882 233.515 42.7499 257.865C41.3868 269.7 39.9633 281.935 38.8504 295.147Z" fill="#1E4783"/>
<path d="M44.708 196.738L44.6562 196.529C52.8433 194.507 55.8628 190.725 55.7765 182.585C52.688 181.862 49.565 181.051 46.5456 180.267L45.7605 180.067L45.8123 179.857L46.5973 180.058C49.6427 180.851 52.7916 181.67 55.9059 182.393L55.9922 182.411V182.498C56.0957 190.821 53.0417 194.682 44.708 196.738Z" fill="#1E4783"/>
<path d="M93.2003 192.259C87.5065 192.259 84.1333 189.121 82.4079 182.367L82.3906 182.289L82.4596 182.245C83.3482 181.74 84.2282 181.226 85.1081 180.711C86.7214 179.77 88.395 178.794 90.0687 177.879L90.1722 178.071C88.4986 178.977 86.8336 179.953 85.2203 180.894C84.3662 181.4 83.5035 181.897 82.6408 182.393C84.5905 189.932 88.6452 192.851 95.7798 191.849L95.8057 192.067C94.8912 192.198 94.0199 192.259 93.2003 192.259Z" fill="#1E4783"/>
<path d="M167.661 111.097C169.498 109.92 174.494 106.818 173.726 104.43C172.958 102.042 168.843 107.646 168.489 108.299C168.619 105.702 172.268 97.6757 168.903 96.2813C165.539 94.8782 163.235 106.347 162.761 108.665C164.305 109.72 165.97 110.33 167.661 111.097Z" fill="white"/>
<path d="M98.4545 117.293C95.0382 137.668 95.7111 158.34 97.6608 179.256C77.8013 183.404 59.1668 185.461 38.9019 184.354C39.0917 160.955 43.4828 137.224 43.2326 114.67C43.1809 110.216 44.7251 106.425 50.6433 106.103C63.8945 105.388 79.1471 103.445 92.5449 106.948C98.0663 108.378 99.4811 111.158 98.4545 117.293Z" fill="#B8D3F4"/>
<path d="M86.0751 107.454C80.3554 118.435 75.6795 144.824 68.7865 151.804C61.8935 158.785 60.539 110.495 57.0796 106.521C67.156 104.927 76.2317 104.116 86.0751 107.454Z" fill="white"/>
<path d="M92.1139 106.347C128.166 122.417 128.511 160.894 161.381 109.92C162.977 110.199 166.332 112.439 166.6 111.768C142.03 173.165 128.296 146.514 98.6964 128.326C69.0969 110.147 99.1622 122.226 92.1139 106.347Z" fill="#B8D3F4"/>
<path d="M72.9969 296.62C76.3183 296.951 79.4241 297.178 82.8749 297.483C83.2631 298.877 92.2957 301.413 89.0347 303.705C85.7736 305.997 76.396 302.86 72.1083 302.485C71.7633 300.385 72.0393 298.459 72.9969 296.62Z" fill="#343480"/>
<path d="M47.2274 298.494C43.768 298.528 40.5501 298.424 36.9698 298.206C36.5126 299.374 26.8762 300.55 29.8957 303.165C32.9151 305.779 42.7931 304.167 47.2015 304.446C47.7795 302.398 47.9176 300.481 47.2274 298.494Z" fill="#343480"/>
<path d="M82.3222 87.1481H60.5044V90.5033H82.3222V87.1481Z" fill="#E0E1E2"/>
<path d="M82.3217 90.5033H60.5039V91.0175H82.3217V90.5033Z" fill="#E0E1E2"/>
<path d="M82.3217 91.0261H60.5039V91.5403H82.3217V91.0261Z" fill="#E1E2E3"/>
<path d="M82.3217 91.5404H60.5039V92.0546H82.3217V91.5404Z" fill="#E2E3E4"/>
<path d="M82.3217 92.0546H60.5039V92.5687H82.3217V92.0546Z" fill="#E3E4E5"/>
<path d="M82.3217 92.5774H60.5039V93.0916H82.3217V92.5774Z" fill="#E4E5E6"/>
<path d="M82.3217 93.0916H60.5039V93.6058H82.3217V93.0916Z" fill="#E5E6E7"/>
<path d="M82.3217 93.6057H60.5039V94.1199H82.3217V93.6057Z" fill="#E6E7E8"/>
<path d="M82.3217 94.1287H60.5039V94.6429H82.3217V94.1287Z" fill="#E7E8E9"/>
<path d="M82.3217 94.6428H60.5039V95.157H82.3217V94.6428Z" fill="#E8E9EA"/>
<path d="M82.3217 95.157H60.5039V95.6712H82.3217V95.157Z" fill="#E9EAEB"/>
<path d="M82.3217 95.6713H60.5039V96.1855H82.3217V95.6713Z" fill="#EAEBEC"/>
<path d="M82.3217 96.1941H60.5039V96.7083H82.3217V96.1941Z" fill="#EBECED"/>
<path d="M82.3217 96.7083H60.5039V97.2224H82.3217V96.7083Z" fill="#ECEDEE"/>
<path d="M82.3217 97.2225H60.5039V97.7367H82.3217V97.2225Z" fill="#EDEEEF"/>
<path d="M82.3217 97.7454H60.5039V98.2595H82.3217V97.7454Z" fill="#EEEFF0"/>
<path d="M82.3217 98.2596H60.5039V98.7738H82.3217V98.2596Z" fill="#F0F0F1"/>
<path d="M82.3217 98.7737H60.5039V99.2879H82.3217V98.7737Z" fill="#F1F1F1"/>
<path d="M82.3217 99.2965H60.5039V99.8107H82.3217V99.2965Z" fill="#F2F2F2"/>
<path d="M82.3217 99.8109H60.5039V100.325H82.3217V99.8109Z" fill="#F3F3F3"/>
<path d="M82.3217 100.325H60.5039V100.839H82.3217V100.325Z" fill="#F4F4F4"/>
<path d="M82.3217 100.848H60.5039V101.362H82.3217V100.848Z" fill="#F5F5F5"/>
<path d="M82.3217 101.362H60.5039V101.876H82.3217V101.362Z" fill="#F6F6F6"/>
<path d="M82.3217 101.876H60.5039V102.39H82.3217V101.876Z" fill="#F7F7F7"/>
<path d="M82.3217 102.39H60.5039V102.905H82.3217V102.39Z" fill="#F8F8F8"/>
<path d="M82.3217 102.913H60.5039V103.427H82.3217V102.913Z" fill="#F9F9F9"/>
<path d="M82.3217 103.427H60.5039V103.942H82.3217V103.427Z" fill="#FAFAFA"/>
<path d="M82.3217 103.942H60.5039V104.456H82.3217V103.942Z" fill="#FBFBFB"/>
<path d="M82.3217 104.465H60.5039V104.979H82.3217V104.465Z" fill="#FCFCFC"/>
<path d="M82.3217 104.979H60.5039V105.493H82.3217V104.979Z" fill="#FDFDFD"/>
<path d="M82.3217 105.493H60.5039V106.007H82.3217V105.493Z" fill="#FEFEFE"/>
<path d="M82.3217 106.016H60.5039V106.53H82.3217V106.016Z" fill="white"/>
<path d="M82.3217 106.53H60.5039V111.271H82.3217V106.53Z" fill="white"/>
<path d="M62.2723 88.7169C66.5945 93.8936 75.929 97.9199 83.1757 93.7367C90.4311 89.5535 87.7912 76.577 83.029 70.494C78.2669 64.4197 69.9159 64.8816 64.317 69.0299C56.7251 74.6684 56.0436 81.2656 62.2723 88.7169Z" fill="white"/>
<path d="M76.7227 65.8489C85.134 67.8446 87.6618 74.189 89.6201 82.0672C88.1708 82.2589 86.7301 82.4681 85.2721 82.5988C82.9773 76.7076 79.906 71.2957 76.7227 65.8489Z" fill="white"/>
<path d="M85.8496 82.538C86.4794 82.8343 87.1177 83.1219 87.7475 83.4182C87.6957 83.0347 87.6526 82.6513 87.5663 82.2678C86.997 82.355 86.4276 82.4508 85.8496 82.538Z" fill="#E8E8E8"/>
<path d="M80.3802 77.0475C80.5787 77.4048 80.9669 77.5965 81.3464 77.4135C81.726 77.2305 81.7864 76.7948 81.6053 76.4287C81.4241 76.0627 81.0273 75.8623 80.6477 76.0627C80.2767 76.2632 80.1904 76.6902 80.3802 77.0475Z" fill="#C4C4C4"/>
<path d="M69.037 109.441C70.797 109.519 72.5482 109.554 74.3082 109.545C74.7999 110.809 75.2744 112.099 75.6885 113.38C75.0242 114.356 74.2909 114.774 73.7647 116.117C73.4627 123.533 72.1945 138.784 71.582 144.518C70.9695 150.262 71.3663 155.159 68.019 156.231C64.6717 157.303 64.1368 148.946 65.0341 143.856C65.9313 138.767 69.5374 123.446 70.6503 116.491C69.8739 114.801 68.7265 114.217 67.7085 113.005C68.2002 111.846 68.6316 110.644 69.037 109.441Z" fill="#548BF7"/>
<path d="M87.8268 105.528C86.0928 105.092 84.3415 104.682 82.5902 104.316C79.3982 105.859 76.4218 107.689 73.4023 109.545C74.2392 111.349 75.0242 113.162 75.6713 115.045C79.4413 111.341 83.1596 108.029 87.8268 105.528Z" fill="#9DBEF4"/>
<path d="M55.1992 105.118C57.0195 104.866 58.8485 104.77 60.6774 104.604C63.8176 106.164 66.9061 107.794 69.9774 109.485C69.4252 111.236 68.7954 112.962 68.0967 114.661C64.0074 111.158 59.7198 108.02 55.1992 105.118Z" fill="#9DBEF4"/>
<path d="M87.8265 82.6686C85.2039 83.6098 83.884 83.8277 81.3908 85.5619C78.8975 87.2962 81.3131 90.8519 77.0082 92.1504C72.7033 93.449 67.9929 90.1286 67.898 84.7863C66.8197 84.7602 65.9311 84.7602 64.939 84.7689C65.3099 85.1436 66.0001 85.3615 66.2416 85.7711C68.0706 88.9172 66.233 90.9129 69.8219 93.5971C73.4107 96.2901 81.6927 97.3358 85.2298 93.571C88.7669 89.8236 88.1975 87.2439 87.8265 82.6686Z" fill="#5DA4F9"/>
<path d="M57.7178 75.81C58.313 72.0974 62.0572 68.3239 64.9472 67.0776C69.9509 64.9076 73.4535 64.803 78.3278 65.7791C74.8511 66.363 68.3032 68.1496 67.104 71.4176C65.9048 74.6857 71.383 79.2698 69.3988 81.2829C67.4146 83.2961 67.0867 82.3723 67.475 84.9781C66.4656 85.6143 65.4131 86.4335 64.3692 87.1132C65.3441 88.7865 66.2586 90.3203 66.457 92.3073C63.4289 90.9739 60.72 90.3552 59.2016 87.0087C57.6833 83.6621 57.1225 79.5225 57.7178 75.81Z" fill="#5DA4F9"/>
<path d="M65.6045 86.5492C64.3536 84.7975 63.2494 80.7712 60.2817 83.8737C57.314 86.9762 63.5082 90.7672 66.821 88.5536" fill="white"/>
<path d="M64.489 89.3182C62.7981 89.3182 61.0382 88.5164 60.0892 87.366C59.123 86.1895 59.1661 84.8822 60.21 83.7929C61.0468 82.9214 61.7801 82.5379 62.4789 82.6338C63.5832 82.7819 64.3165 84.1066 64.9721 85.2831C65.2223 85.7276 65.4552 86.1459 65.6882 86.4858L65.5156 86.6165C65.2654 86.2679 65.0325 85.8496 64.7823 85.3964C64.1525 84.2722 63.4451 82.9911 62.453 82.8603C61.8319 82.7819 61.1503 83.1392 60.3653 83.9584C59.4077 84.9607 59.3645 86.1546 60.2617 87.2353C61.6334 88.8999 64.7737 89.8062 66.7666 88.4728L66.8873 88.6558C66.1799 89.109 65.3431 89.3182 64.489 89.3182Z" fill="#E8E8E8"/>
<path d="M0.365577 217.971C0.365577 217.971 49.9021 207.225 51.317 208.045C52.7318 208.864 57.3818 239.863 56.9763 241.728C56.5709 243.593 6.62882 251.959 5.42103 251.55C4.20462 251.14 -1.48061 218.363 0.365577 217.971Z" fill="#75B1F9"/>
<path d="M15.2654 215.336C15.2654 215.336 11.8319 206.394 21.9341 203.98C32.0364 201.566 34.4692 211.336 34.4692 211.336L30.8286 212.39C30.8286 212.39 30.0177 203.893 22.7451 206.177C15.4725 208.46 19.0441 214.36 19.0441 214.36L15.2654 215.336Z" fill="#75B1F9"/>
<path d="M25.8324 196.625C26.9367 198.577 29.5766 202.987 28.0237 204.895C26.4794 206.804 25.332 200.224 25.3665 199.597C24.3227 202.237 24.1674 211.031 20.682 211.336C17.1881 211.641 20.3111 199.449 20.7856 197.531C22.4679 197.026 24.1156 196.869 25.8324 196.625Z" fill="white"/>
<path d="M54.63 105.476C8.58746 111.28 2.19482 160.502 19.6473 195.806C22.1664 195.405 23.6503 195.71 26.687 194.717C17.7494 173.548 26.3247 135.028 44.6572 126.034C62.9897 117.049 53.2497 118.505 54.63 105.476Z" fill="#B8D3F4"/>
<path d="M236.912 151.055H213.455V154.366H236.912V151.055Z" fill="#E0E1E2"/>
<path d="M236.911 154.366H213.454V154.881H236.911V154.366Z" fill="#E0E1E2"/>
<path d="M236.911 154.872H213.454V155.386H236.911V154.872Z" fill="#E1E2E3"/>
<path d="M236.911 155.386H213.454V155.9H236.911V155.386Z" fill="#E2E3E4"/>
<path d="M236.911 155.891H213.454V156.406H236.911V155.891Z" fill="#E3E4E5"/>
<path d="M236.911 156.406H213.454V156.92H236.911V156.406Z" fill="#E4E5E6"/>
<path d="M236.911 156.911H213.454V157.425H236.911V156.911Z" fill="#E5E6E7"/>
<path d="M236.911 157.425H213.454V157.939H236.911V157.425Z" fill="#E6E7E8"/>
<path d="M236.911 157.931H213.454V158.445H236.911V157.931Z" fill="#E7E8E9"/>
<path d="M236.911 158.445H213.454V158.959H236.911V158.445Z" fill="#E8E9EA"/>
<path d="M236.911 158.95H213.454V159.465H236.911V158.95Z" fill="#E9EAEB"/>
<path d="M236.911 159.465H213.454V159.979H236.911V159.465Z" fill="#EAEBEC"/>
<path d="M236.911 159.97H213.454V160.484H236.911V159.97Z" fill="#EBECED"/>
<path d="M236.911 160.484H213.454V160.998H236.911V160.484Z" fill="#ECEDEE"/>
<path d="M236.911 160.99H213.454V161.504H236.911V160.99Z" fill="#EDEEEF"/>
<path d="M236.911 161.504H213.454V162.018H236.911V161.504Z" fill="#EEEFF0"/>
<path d="M236.911 162.009H213.454V162.523H236.911V162.009Z" fill="#F0F0F1"/>
<path d="M236.911 162.523H213.454V163.038H236.911V162.523Z" fill="#F1F1F1"/>
<path d="M236.911 163.029H213.454V163.543H236.911V163.029Z" fill="#F2F2F2"/>
<path d="M236.911 163.543H213.454V164.057H236.911V163.543Z" fill="#F3F3F3"/>
<path d="M236.911 164.057H213.454V164.572H236.911V164.057Z" fill="#F4F4F4"/>
<path d="M236.911 164.563H213.454V165.077H236.911V164.563Z" fill="#F5F5F5"/>
<path d="M236.911 165.077H213.454V165.591H236.911V165.077Z" fill="#F6F6F6"/>
<path d="M236.911 165.583H213.454V166.097H236.911V165.583Z" fill="#F7F7F7"/>
<path d="M236.911 166.097H213.454V166.611H236.911V166.097Z" fill="#F8F8F8"/>
<path d="M236.911 166.602H213.454V167.116H236.911V166.602Z" fill="#F9F9F9"/>
<path d="M236.911 167.116H213.454V167.631H236.911V167.116Z" fill="#FAFAFA"/>
<path d="M236.911 167.622H213.454V168.136H236.911V167.622Z" fill="#FBFBFB"/>
<path d="M236.911 168.136H213.454V168.65H236.911V168.136Z" fill="#FCFCFC"/>
<path d="M236.911 168.641H213.454V169.156H236.911V168.641Z" fill="#FDFDFD"/>
<path d="M236.911 169.156H213.454V169.67H236.911V169.156Z" fill="#FEFEFE"/>
<path d="M236.911 169.661H213.454V170.175H236.911V169.661Z" fill="white"/>
<path d="M236.911 170.175H213.454V176.816H236.911V170.175Z" fill="white"/>
<path d="M229.008 147.046C229.862 154.401 219.527 162.924 212.272 163.439C205.016 163.962 202.963 154.27 201.358 147.839C199.762 141.407 206.776 135.734 213.609 134.644C222.866 133.163 227.774 136.457 229.008 147.046Z" fill="white"/>
<path d="M202.385 141.155C197.856 146.479 200.72 153.242 203.213 158.741C204.455 158.001 205.706 157.277 206.966 156.571C205.792 151.325 204.024 146.27 202.385 141.155Z" fill="white"/>
<path d="M206.44 156.859C206.043 157.408 205.647 157.966 205.25 158.515C205.146 158.236 205.051 157.957 204.948 157.678C205.448 157.399 205.94 157.12 206.44 156.859Z" fill="#E8E8E8"/>
<path d="M207.794 150.453C207.898 150.819 207.656 151.142 207.294 151.238C206.94 151.325 206.56 151.159 206.457 150.793C206.353 150.427 206.595 150.105 206.957 150.009C207.311 149.922 207.69 150.079 207.794 150.453Z" fill="#C4C4C4"/>
<path d="M208.218 153.66C206.406 154.096 204.456 153.216 203.93 151.325C203.404 149.425 204.612 147.76 206.458 147.299C208.304 146.837 210.314 147.682 210.858 149.582C211.401 151.49 210.029 153.225 208.218 153.66ZM206.622 147.787C205.069 148.179 204.025 149.591 204.474 151.194C204.922 152.806 206.579 153.538 208.114 153.164C209.65 152.789 210.789 151.334 210.331 149.721C209.874 148.109 208.175 147.394 206.622 147.787Z" fill="#548BF7"/>
<path d="M210.763 149.878C210.694 149.721 210.616 149.564 210.547 149.407C215.309 147.473 220.054 145.503 224.807 143.525C224.876 143.699 224.937 143.873 225.006 144.039C220.261 146.009 215.516 147.952 210.763 149.878Z" fill="#548BF7"/>
<path d="M200.592 153.878C200.505 153.73 200.41 153.573 200.324 153.425C201.601 152.771 202.886 152.1 204.163 151.447C204.25 151.595 204.344 151.752 204.431 151.9C203.145 152.562 201.868 153.225 200.592 153.878Z" fill="#548BF7"/>
<path d="M195.769 131.882C193.077 134.505 190.886 138.958 193.5 142.017C196.114 145.076 199.288 144.641 202.567 143.725C208.062 143.717 212.936 142.401 216.724 138.296C216.249 139.778 216.016 142.671 217.431 143.394C218.846 144.118 219.838 143.656 221.192 143.656C221.218 145.251 221.201 146.915 221.192 148.536C222.029 148.318 222.927 148.153 223.729 147.909C223.539 147.412 222.564 145.948 223.996 145.861C225.428 145.773 225.722 149.878 226.11 151.273C226.507 152.667 225.765 157.539 228.845 157.425C231.933 157.303 233.236 153.87 230.501 150.828C231.89 146.976 232.227 144.893 231.278 140.109C230.329 135.324 225.221 126.078 218.466 126.025C211.711 125.964 204.853 131.037 198.805 133.651C197.787 133.137 196.804 132.396 195.769 131.882Z" fill="#1E4783"/>
<path d="M223.465 146.821C223.628 144.695 222.619 141.897 226.579 141.671C230.539 141.444 230.15 149.671 225.138 150.29" fill="white"/>
<path d="M225.143 150.401L225.118 150.183C228.189 149.8 229.31 146.662 229.121 144.553C229 143.194 228.31 141.773 226.731 141.773C226.679 141.773 226.627 141.773 226.576 141.782C223.478 141.956 223.53 143.699 223.573 145.547C223.582 145.974 223.599 146.418 223.565 146.837L223.349 146.819C223.383 146.418 223.366 145.983 223.358 145.556C223.306 143.691 223.254 141.756 226.558 141.573C228.077 141.495 229.164 142.654 229.328 144.545C229.569 147.133 228.068 150.035 225.143 150.401Z" fill="#E8E8E8"/>
<path d="M207.933 168.058C209.33 168.005 210.736 168.084 212.125 168.153C214.843 170.036 217.655 171.892 220.123 174.106C220.123 175.317 220.097 176.528 220.071 177.731C215.335 175.613 212.125 171.108 207.933 168.058Z" fill="#9DBEF4"/>
<path d="M243.779 163.474C241.234 163.691 238.68 164.162 236.178 164.676C231.977 167.081 227.991 169.827 224.161 172.798C225.446 173.722 226.835 174.515 228.215 175.291C233.055 170.925 238.024 166.593 243.779 163.474Z" fill="#9DBEF4"/>
<path d="M262.164 35.8651L235.4 59.3933C222.552 44.4486 224.116 21.7966 238.9 8.80368C245.612 2.90559 253.276 0.00640869 262.164 0.00640869V35.8651Z" fill="#75B1F9"/>
<path d="M262.164 35.8658L289.331 58.9168C276.744 74.0894 254.374 76.0697 239.372 63.3403C238.019 62.1935 236.561 60.7403 235.406 59.394L262.164 35.8658Z" fill="#B8D3F4"/>
<path d="M262.164 35.8658L294.303 20.7075C300.318 33.7573 298.48 47.8828 289.33 58.9168L262.164 35.8658Z" fill="#1E4783"/>
<path d="M262.164 35.8658L271.94 1.39624C282.203 4.37378 289.795 10.9272 294.303 20.7146L262.164 35.8658Z" fill="white"/>
<path d="M262.164 35.8658V0C265.707 0 268.531 0.398905 271.94 1.38904L262.164 35.8658Z" fill="#3D90F4"/>
<path d="M190.265 30.5012H62.7826C60.4878 30.5012 58.6157 28.61 58.6157 26.2918C58.6157 23.9737 60.4878 22.0825 62.7826 22.0825H190.265C192.559 22.0825 194.432 23.9737 194.432 26.2918C194.423 28.61 192.551 30.5012 190.265 30.5012Z" fill="#B8D3F4"/>
<path d="M190.264 30.5012H133.516C131.221 30.5012 129.349 28.61 129.349 26.2918C129.349 23.9737 131.221 22.0825 133.516 22.0825H190.264C192.559 22.0825 194.431 23.9737 194.431 26.2918C194.423 28.61 192.55 30.5012 190.264 30.5012Z" fill="#1E4783"/>
<path d="M160.596 188.546H158.267V185.322C153.988 184.964 151.244 182.873 150.054 179.047L153.763 178.176C154.428 180.624 155.929 181.949 158.267 182.132V175.247C155.221 174.541 153.237 173.644 152.314 172.554C151.391 171.465 150.934 170.167 150.934 168.659C150.934 164.746 153.375 162.48 158.267 161.879V159.369H160.596V161.879C164.176 162.341 166.436 164.127 167.377 167.23L163.874 167.979C163.279 166.193 162.183 165.225 160.596 165.086V171.169C162.848 171.822 164.366 172.319 165.151 172.668C165.936 173.016 166.635 173.696 167.265 174.707C167.894 175.718 168.205 176.903 168.205 178.263C168.205 180.189 167.558 181.792 166.255 183.073C164.953 184.354 163.072 185.104 160.596 185.322V188.546ZM158.267 165.077C157.266 165.086 156.429 165.338 155.756 165.835C155.083 166.332 154.747 167.055 154.747 168.023C154.747 169.652 155.92 170.62 158.267 170.933V165.077ZM160.596 182.132C161.674 182.123 162.58 181.801 163.313 181.173C164.047 180.546 164.409 179.727 164.409 178.716C164.409 177.016 163.141 175.936 160.596 175.456V182.132Z" fill="#75B1F9"/>
<path d="M197.545 76.5333H128.003C127.554 76.5333 127.183 76.1585 127.183 75.7054C127.183 75.2522 127.554 74.8774 128.003 74.8774H197.545C197.994 74.8774 198.365 75.2522 198.365 75.7054C198.365 76.1585 197.994 76.5333 197.545 76.5333Z" fill="white"/>
<path d="M141.116 52.3232H131.591V73.2217H141.116V52.3232Z" fill="#97CBFF"/>
<path d="M154.524 45H145V72.8616H154.524V45Z" fill="#75B1F9"/>
<path d="M167.386 59.2864H157.861V73.2216H167.386V59.2864Z" fill="#97CBFF"/>
<path d="M180.524 66.2496H171V73.2129H180.524V66.2496Z" fill="#75B1F9"/>
<path d="M193.655 45.3513H184.13V73.2129H193.655V45.3513Z" fill="#97CBFF"/>
</svg>
