<svg width="1718" height="1450" viewBox="0 0 1718 1450" fill="none" 
  xmlns="http://www.w3.org/2000/svg">
  <g opacity="0.64">
    <path fill-rule="evenodd" clip-rule="evenodd" d="M665.126 656.81C659.969 656.088 656.373 651.321 657.096 646.163C657.818 641.005 662.585 637.41 667.743 638.133C672.901 638.855 676.496 643.622 675.774 648.78C675.051 653.938 670.284 657.533 665.126 656.81Z" stroke="#D7DBE0"/>
    <path fill-rule="evenodd" clip-rule="evenodd" d="M822.952 676.528C819.074 675.985 816.37 672.4 816.913 668.521C817.457 664.643 821.042 661.939 824.92 662.482C828.799 663.026 831.503 666.611 830.959 670.489C830.416 674.368 826.831 677.072 822.952 676.528Z" fill="#F0F2F5" stroke="#D7DBE0"/>
    <path fill-rule="evenodd" clip-rule="evenodd" d="M256.661 574.631C249.739 573.661 244.914 567.264 245.884 560.342C246.854 553.421 253.251 548.596 260.173 549.565C267.094 550.535 271.919 556.932 270.95 563.854C269.98 570.776 263.583 575.601 256.661 574.631Z" fill="#F0F2F5" stroke="#D7DBE0"/>
    <path fill-rule="evenodd" clip-rule="evenodd" d="M1032.79 620.109C1023.94 618.87 1017.78 610.698 1019.02 601.856C1020.26 593.014 1028.43 586.851 1037.27 588.09C1046.11 589.328 1052.28 597.5 1051.04 606.342C1049.8 615.184 1041.63 621.348 1032.79 620.109Z" stroke="#D7DBE0"/>
    <path fill-rule="evenodd" clip-rule="evenodd" d="M408.998 574.341C397.815 572.774 390.02 562.438 391.586 551.256C393.153 540.073 403.488 532.278 414.671 533.844C425.854 535.411 433.649 545.747 432.082 556.929C430.516 568.112 420.18 575.907 408.998 574.341Z" fill="#F0F2F5" stroke="#D7DBE0"/>
    <path fill-rule="evenodd" clip-rule="evenodd" d="M766.055 644.07C752.351 642.15 742.797 629.484 744.717 615.779C746.637 602.074 759.304 592.52 773.008 594.44C786.713 596.36 796.267 609.027 794.347 622.732C792.427 636.437 779.76 645.99 766.055 644.07Z" stroke="#D7DBE0"/>
    <path fill-rule="evenodd" clip-rule="evenodd" d="M186.75 525.447C170.851 523.219 159.767 508.524 161.995 492.624C164.222 476.725 178.917 465.641 194.817 467.869C210.717 470.096 221.8 484.791 219.573 500.691C217.345 516.591 202.65 527.674 186.75 525.447Z" stroke="#D7DBE0"/>
    <path fill-rule="evenodd" clip-rule="evenodd" d="M596.158 615.128C568.748 611.288 549.641 585.955 553.481 558.546C557.321 531.136 582.654 512.029 610.064 515.869C637.473 519.709 656.58 545.042 652.74 572.452C648.9 599.861 623.567 618.968 596.158 615.128Z" stroke="#D7DBE0"/>
    <path fill-rule="evenodd" clip-rule="evenodd" d="M910.955 645.582C883.545 641.742 864.438 616.409 868.278 588.999C872.118 561.589 897.451 542.482 924.861 546.322C952.271 550.162 971.378 575.495 967.538 602.905C963.698 630.315 938.365 649.422 910.955 645.582Z" fill="#F0F2F5" stroke="#D7DBE0"/>
    <path fill-rule="evenodd" clip-rule="evenodd" d="M1466.94 574.144C1461.81 575.065 1456.91 571.655 1455.99 566.529C1455.07 561.403 1458.48 556.501 1463.6 555.581C1468.73 554.66 1473.63 558.07 1474.55 563.196C1475.47 568.322 1472.06 573.224 1466.94 574.144Z" stroke="#D7DBE0"/>
    <path fill-rule="evenodd" clip-rule="evenodd" d="M1597 531.903C1593.15 532.595 1589.46 530.031 1588.77 526.177C1588.08 522.322 1590.64 518.635 1594.49 517.943C1598.35 517.251 1602.04 519.815 1602.73 523.67C1603.42 527.525 1600.86 531.211 1597 531.903Z" fill="#F0F2F5" stroke="#D7DBE0"/>
    <path fill-rule="evenodd" clip-rule="evenodd" d="M1248.86 564.029C1240.08 565.607 1231.67 559.762 1230.1 550.975C1228.52 542.187 1234.36 533.784 1243.15 532.206C1251.94 530.628 1260.34 536.473 1261.92 545.261C1263.5 554.048 1257.65 562.451 1248.86 564.029Z" fill="#F0F2F5" stroke="#D7DBE0"/>
    <path fill-rule="evenodd" clip-rule="evenodd" d="M1689.71 595.557C1680.92 597.135 1672.52 591.29 1670.94 582.503C1669.37 573.715 1675.21 565.312 1684 563.734C1692.78 562.156 1701.19 568.001 1702.77 576.788C1704.34 585.576 1698.5 593.979 1689.71 595.557Z" stroke="#D7DBE0"/>
    <path fill-rule="evenodd" clip-rule="evenodd" d="M1284.51 822.606C1270.89 825.052 1257.86 815.992 1255.42 802.372C1252.97 788.751 1262.03 775.726 1275.65 773.28C1289.27 770.834 1302.3 779.893 1304.74 793.514C1307.19 807.135 1298.13 820.16 1284.51 822.606Z" stroke="#D7DBE0"/>
    <path fill-rule="evenodd" clip-rule="evenodd" d="M919.084 814.6C896.383 818.676 874.675 803.578 870.599 780.876C866.522 758.175 881.621 736.467 904.322 732.391C927.024 728.314 948.732 743.413 952.808 766.114C956.884 788.816 941.786 810.524 919.084 814.6Z" stroke="#D7DBE0"/>
    <path fill-rule="evenodd" clip-rule="evenodd" d="M1117.85 903.819C1129.53 908.55 1142.84 902.912 1147.58 891.226C1152.31 879.539 1146.67 866.229 1134.98 861.498C1123.3 856.766 1109.99 862.404 1105.25 874.091C1100.52 885.777 1106.16 899.087 1117.85 903.819Z" fill="#F0F2F5" stroke="#D7DBE0"/>
    <path fill-rule="evenodd" clip-rule="evenodd" d="M539.325 830.35C564.98 840.737 594.197 828.36 604.584 802.706C614.971 777.051 602.594 747.834 576.939 737.447C551.285 727.06 522.068 739.437 511.681 765.092C501.294 790.746 513.671 819.964 539.325 830.35Z" stroke="#D7DBE0"/>
    <path fill-rule="evenodd" clip-rule="evenodd" d="M258.429 872.81C272.388 878.462 288.286 871.727 293.937 857.768C299.589 843.809 292.854 827.912 278.896 822.26C264.937 816.609 249.039 823.343 243.388 837.302C237.736 851.261 244.47 867.158 258.429 872.81Z" stroke="#D7DBE0"/>
    <path fill-rule="evenodd" clip-rule="evenodd" d="M34.5406 698.754C38.5187 702.115 44.4685 701.615 47.8299 697.637C51.1913 693.659 50.6914 687.709 46.7133 684.348C42.7352 680.986 36.7853 681.486 33.4239 685.464C30.0625 689.442 30.5624 695.392 34.5406 698.754Z" fill="#F5F7FA" stroke="#D7DBE0"/>
    <path fill-rule="evenodd" clip-rule="evenodd" d="M241.806 710.724C248.626 716.486 258.826 715.629 264.588 708.809C270.35 701.99 269.493 691.79 262.674 686.027C255.854 680.265 245.654 681.122 239.892 687.942C234.13 694.761 234.987 704.961 241.806 710.724Z" stroke="#D7DBE0"/>
    <path fill-rule="evenodd" clip-rule="evenodd" d="M-17.7238 699.276C-7.15331 708.208 8.65638 706.879 17.5881 696.309C26.5198 685.739 25.1913 669.929 14.6208 660.997C4.05029 652.065 -11.7594 653.394 -20.6911 663.964C-29.6228 674.535 -28.2943 690.344 -17.7238 699.276Z" stroke="#D7DBE0"/>
    <path fill-rule="evenodd" clip-rule="evenodd" d="M1114.75 878.821C1100.11 881.451 1086.1 871.71 1083.47 857.063C1080.84 842.417 1090.58 828.412 1105.23 825.782C1119.87 823.152 1133.88 832.894 1136.51 847.54C1139.14 862.186 1129.4 876.191 1114.75 878.821Z" stroke="#D7DBE0"/>
    <path fill-rule="evenodd" clip-rule="evenodd" d="M318.933 756.06C336.55 770.946 362.9 768.732 377.786 751.114C392.672 733.497 390.458 707.148 372.841 692.261C355.223 677.375 328.874 679.589 313.988 697.207C299.101 714.824 301.315 741.174 318.933 756.06Z" stroke="#D7DBE0"/>
    <path fill-rule="evenodd" clip-rule="evenodd" d="M73.8837 747.436C95.0246 765.3 126.644 762.643 144.507 741.502C162.371 720.361 159.714 688.742 138.573 670.878C117.432 653.015 85.8128 655.672 67.9493 676.813C50.0859 697.954 52.7428 729.573 73.8837 747.436Z" fill="#F0F2F5" stroke="#D7DBE0"/>
    <path fill-rule="evenodd" clip-rule="evenodd" d="M1180.67 820.12C1153.43 825.012 1127.38 806.894 1122.49 779.652C1117.6 752.41 1135.72 726.361 1162.96 721.469C1190.2 716.577 1216.25 734.696 1221.14 761.937C1226.04 789.179 1207.92 815.228 1180.67 820.12Z" stroke="#D7DBE0"/>
    <path fill-rule="evenodd" clip-rule="evenodd" d="M1410.71 750.082C1383.47 754.974 1357.42 736.855 1352.53 709.614C1347.64 682.372 1365.75 656.323 1393 651.431C1420.24 646.539 1446.29 664.658 1451.18 691.899C1456.07 719.141 1437.95 745.19 1410.71 750.082Z" fill="#F0F2F5" stroke="#D7DBE0"/>
    <path fill-rule="evenodd" clip-rule="evenodd" d="M592.172 1001.62C586.986 1002.11 582.388 998.296 581.902 993.111C581.416 987.925 585.225 983.328 590.411 982.841C595.596 982.355 600.194 986.165 600.68 991.35C601.166 996.535 597.357 1001.13 592.172 1001.62Z" fill="#F0F2F5" stroke="#D7DBE0"/>
    <path fill-rule="evenodd" clip-rule="evenodd" d="M750.29 984.412C746.391 984.778 742.934 981.913 742.568 978.014C742.202 974.114 745.067 970.657 748.966 970.291C752.866 969.925 756.323 972.79 756.689 976.689C757.055 980.589 754.19 984.046 750.29 984.412Z" stroke="#D7DBE0"/>
    <path fill-rule="evenodd" clip-rule="evenodd" d="M175.763 1015.85C168.805 1016.5 162.635 1011.39 161.982 1004.43C161.33 997.469 166.442 991.298 173.4 990.646C180.359 989.993 186.529 995.106 187.182 1002.06C187.834 1009.02 182.722 1015.19 175.763 1015.85Z" fill="#F0F2F5" stroke="#D7DBE0"/>
    <path fill-rule="evenodd" clip-rule="evenodd" d="M941.459 881.125C932.57 881.959 924.688 875.428 923.854 866.539C923.021 857.65 929.551 849.768 938.44 848.935C947.329 848.101 955.211 854.631 956.045 863.521C956.878 872.41 950.348 880.292 941.459 881.125Z" fill="#F0F2F5" stroke="#D7DBE0"/>
    <path fill-rule="evenodd" clip-rule="evenodd" d="M323.927 980.435C312.685 981.489 302.716 973.23 301.662 961.987C300.608 950.745 308.867 940.776 320.109 939.722C331.352 938.668 341.32 946.927 342.375 958.169C343.429 969.412 335.17 979.381 323.927 980.435Z" stroke="#D7DBE0"/>
    <path fill-rule="evenodd" clip-rule="evenodd" d="M129.987 689.545C141.353 699.149 158.353 697.72 167.957 686.354C177.561 674.988 176.132 657.989 164.766 648.385C153.4 638.781 136.401 640.209 126.797 651.575C117.193 662.941 118.621 679.941 129.987 689.545Z" stroke="#D7DBE0"/>
    <path fill-rule="evenodd" clip-rule="evenodd" d="M687.442 965.947C673.664 967.239 661.447 957.117 660.155 943.339C658.863 929.561 668.985 917.344 682.763 916.052C696.542 914.76 708.759 924.882 710.051 938.66C711.343 952.438 701.221 964.655 687.442 965.947Z" stroke="#D7DBE0"/>
    <path fill-rule="evenodd" clip-rule="evenodd" d="M96.3954 984.109C80.4104 985.608 66.237 973.865 64.738 957.88C63.239 941.895 74.9822 927.721 90.9671 926.222C106.952 924.723 121.126 936.467 122.625 952.452C124.123 968.436 112.38 982.61 96.3954 984.109Z" stroke="#D7DBE0"/>
    <path fill-rule="evenodd" clip-rule="evenodd" d="M515.449 976.964C487.893 979.548 463.459 959.304 460.875 931.747C458.291 904.19 478.535 879.757 506.091 877.173C533.648 874.588 558.082 894.833 560.666 922.389C563.25 949.946 543.006 974.38 515.449 976.964Z" stroke="#D7DBE0"/>
    <path fill-rule="evenodd" clip-rule="evenodd" d="M781.242 871.308C759.891 873.31 740.959 857.624 738.957 836.274C736.955 814.923 752.64 795.992 773.991 793.989C795.342 791.987 814.273 807.673 816.275 829.023C818.277 850.374 802.592 869.305 781.242 871.308Z" fill="#F0F2F5" stroke="#D7DBE0"/>
    <path fill-rule="evenodd" clip-rule="evenodd" d="M1353.31 736.284C1348.53 738.362 1342.98 736.175 1340.9 731.399C1338.82 726.623 1341.01 721.067 1345.78 718.99C1350.56 716.912 1356.12 719.099 1358.19 723.875C1360.27 728.65 1358.08 734.206 1353.31 736.284Z" stroke="#D7DBE0"/>
    <path fill-rule="evenodd" clip-rule="evenodd" d="M1470.13 665.19C1466.54 666.752 1462.36 665.107 1460.8 661.516C1459.23 657.925 1460.88 653.747 1464.47 652.184C1468.06 650.622 1472.24 652.266 1473.8 655.858C1475.36 659.449 1473.72 663.627 1470.13 665.19Z" fill="#F0F2F5" stroke="#D7DBE0"/>
    <path fill-rule="evenodd" clip-rule="evenodd" d="M1138.78 776.73C1130.59 780.291 1121.07 776.542 1117.51 768.355C1113.95 760.168 1117.7 750.644 1125.88 747.082C1134.07 743.52 1143.59 747.27 1147.16 755.457C1150.72 763.644 1146.97 773.168 1138.78 776.73Z" fill="#F0F2F5" stroke="#D7DBE0"/>
    <path fill-rule="evenodd" clip-rule="evenodd" d="M1504.24 607.809C1496.06 611.371 1486.53 607.621 1482.97 599.434C1479.41 591.247 1483.16 581.723 1491.34 578.161C1499.53 574.599 1509.06 578.349 1512.62 586.536C1516.18 594.723 1512.43 604.247 1504.24 607.809Z" fill="#F0F2F5" stroke="#D7DBE0"/>
    <path fill-rule="evenodd" clip-rule="evenodd" d="M1252.44 761.072C1238.79 767.008 1222.92 760.76 1216.98 747.115C1211.05 733.47 1217.3 717.596 1230.94 711.659C1244.59 705.723 1260.46 711.972 1266.4 725.617C1272.33 739.262 1266.08 755.136 1252.44 761.072Z" stroke="#D7DBE0"/>
    <path fill-rule="evenodd" clip-rule="evenodd" d="M829.127 911.892C854.782 922.279 883.999 909.902 894.386 884.247C904.773 858.593 892.396 829.376 866.742 818.989C841.087 808.602 811.87 820.979 801.483 846.633C791.096 872.288 803.473 901.505 829.127 911.892Z" stroke="#D7DBE0"/>
    <path fill-rule="evenodd" clip-rule="evenodd" d="M1404.66 667.228C1391.97 672.748 1377.2 666.937 1371.68 654.247C1366.16 641.557 1371.97 626.795 1384.66 621.274C1397.35 615.753 1412.11 621.564 1417.64 634.254C1423.16 646.944 1417.34 661.707 1404.66 667.228Z" stroke="#D7DBE0"/>
    <path fill-rule="evenodd" clip-rule="evenodd" d="M1052.41 767.295C1031.26 776.497 1006.65 766.811 997.45 745.661C988.249 724.511 997.935 699.907 1019.08 690.706C1040.23 681.504 1064.84 691.19 1074.04 712.34C1083.24 733.489 1073.56 758.094 1052.41 767.295Z" stroke="#D7DBE0"/>
    <path fill-rule="evenodd" clip-rule="evenodd" d="M1303.05 688.752C1277.67 699.794 1248.14 688.171 1237.1 662.791C1226.06 637.411 1237.68 607.886 1263.06 596.844C1288.44 585.803 1317.97 597.426 1329.01 622.805C1340.05 648.185 1328.43 677.71 1303.05 688.752Z" stroke="#D7DBE0"/>
    <path fill-rule="evenodd" clip-rule="evenodd" d="M1545.34 618.927C1529.72 625.721 1511.56 618.569 1504.76 602.954C1497.97 587.338 1505.12 569.171 1520.73 562.377C1536.35 555.583 1554.52 562.735 1561.31 578.351C1568.11 593.967 1560.95 612.133 1545.34 618.927Z" stroke="#D7DBE0"/>
  </g>
</svg>
