<svg width="309" height="200" viewBox="0 0 309 200" fill="none" 
  xmlns="http://www.w3.org/2000/svg">
  <g opacity="0.64">
    <path opacity="0.64" d="M232.892 199.527C258.534 199.527 279.32 178.783 279.32 153.195C279.32 127.606 258.534 106.863 232.892 106.863C207.25 106.863 186.463 127.606 186.463 153.195C186.463 178.783 207.25 199.527 232.892 199.527Z" fill="#E7EEFA"/>
    <path opacity="0.64" d="M29.2051 174.119C45.3346 174.119 58.4101 161.071 58.4101 144.975C58.4101 128.879 45.3346 115.83 29.2051 115.83C13.0756 115.83 0 128.879 0 144.975C0 161.071 13.0756 174.119 29.2051 174.119Z" fill="#E7EEFA"/>
    <path opacity="0.64" d="M237.01 50.8159C246.316 50.8159 253.86 43.288 253.86 34.0018C253.86 24.7157 246.316 17.1877 237.01 17.1877C227.705 17.1877 220.161 24.7157 220.161 34.0018C220.161 43.288 227.705 50.8159 237.01 50.8159Z" fill="#E7EEFA"/>
    <path opacity="0.64" d="M195.075 17.1877C199.831 17.1877 203.687 13.3401 203.687 8.59386C203.687 3.8476 199.831 0 195.075 0C190.319 0 186.463 3.8476 186.463 8.59386C186.463 13.3401 190.319 17.1877 195.075 17.1877Z" fill="#E7EEFA"/>
    <path opacity="0.64" d="M303.758 199C306.653 199 309 196.658 309 193.769C309 190.88 306.653 188.538 303.758 188.538C300.863 188.538 298.516 190.88 298.516 193.769C298.516 196.658 300.863 199 303.758 199Z" fill="#E7EDF6"/>
    <path opacity="0.64" d="M14.2281 59.7834C17.1232 59.7834 19.4701 57.4414 19.4701 54.5523C19.4701 51.6633 17.1232 49.3213 14.2281 49.3213C11.3331 49.3213 8.98621 51.6633 8.98621 54.5523C8.98621 57.4414 11.3331 59.7834 14.2281 59.7834Z" fill="#E7EEFA"/>
    <path opacity="0.64" d="M55 196.967C59.4183 196.967 63 193.392 63 188.983C63 184.574 59.4183 181 55 181C50.5817 181 47 184.574 47 188.983C47 193.392 50.5817 196.967 55 196.967Z" fill="#DEE6F4"/>
    <path opacity="0.64" d="M86.9309 121.675C111.746 121.675 131.862 101.601 131.862 76.8375C131.862 52.0745 111.746 32 86.9309 32C62.1162 32 42 52.0745 42 76.8375C42 101.601 62.1162 121.675 86.9309 121.675Z" fill="#E7EEFA"/>
    <path opacity="0.64" d="M141.532 196.538C184.958 196.538 220.161 161.408 220.161 118.072C220.161 74.7367 184.958 39.6064 141.532 39.6064C98.1067 39.6064 62.9033 74.7367 62.9033 118.072C62.9033 161.408 98.1067 196.538 141.532 196.538Z" fill="#DBE7F9"/>
  </g>
  <path d="M267.28 84.7021L204.679 71.3957C200.357 70.4771 196.109 73.2359 195.19 77.5576L178.558 155.809C177.639 160.131 180.398 164.379 184.719 165.298L247.321 178.604C251.643 179.523 255.891 176.764 256.809 172.442L273.442 94.1905C274.361 89.8688 271.602 85.6207 267.28 84.7021Z" fill="white" stroke="#D5DAE0" stroke-width="4" stroke-dasharray="2 2"/>
  <path d="M121.321 71.3958L58.7195 84.7022C54.3977 85.6208 51.639 89.8689 52.5576 94.1907L69.1905 172.442C70.1091 176.764 74.3573 179.523 78.679 178.604L141.28 165.298C145.602 164.379 148.361 160.131 147.442 155.81L130.809 77.5577C129.891 73.236 125.643 70.4772 121.321 71.3958Z" fill="white" stroke="#D5DAE0" stroke-width="4" stroke-dasharray="2 2"/>
  <path d="M195 56H131C126.582 56 123 59.5817 123 64V144C123 148.418 126.582 152 131 152H195C199.418 152 203 148.418 203 144V64C203 59.5817 199.418 56 195 56Z" fill="white" stroke="#D5DAE0" stroke-width="4" stroke-dasharray="2 2"/>
  <path opacity="0.455333" d="M163 129C176.255 129 187 118.255 187 105C187 91.7452 176.255 81 163 81C149.745 81 139 91.7452 139 105C139 118.255 149.745 129 163 129Z" fill="#D5DAE0"/>
  <path d="M163 120.6C164.326 120.6 165.4 119.526 165.4 118.2C165.4 116.875 164.326 115.8 163 115.8C161.675 115.8 160.6 116.875 160.6 118.2C160.6 119.526 161.675 120.6 163 120.6Z" fill="#C2C6CC"/>
  <path fill-rule="evenodd" clip-rule="evenodd" d="M150.362 111C152.661 111 154.6 109.561 154.6 107.306C154.6 105.881 152.215 106.056 152.215 107.09C152.215 109.107 148.635 109.128 148.635 107.09C148.652 105.942 146.2 105.793 146.2 107.306C146.2 109.561 148.063 111 150.362 111Z" fill="#C2C6CC"/>
  <path fill-rule="evenodd" clip-rule="evenodd" d="M175.562 111C177.861 111 179.8 109.561 179.8 107.306C179.8 105.881 177.415 106.056 177.415 107.09C177.415 109.107 173.834 109.128 173.834 107.09C173.852 105.942 171.4 105.793 171.4 107.306C171.4 109.561 173.263 111 175.562 111Z" fill="#C2C6CC"/>
</svg>
