<svg width="1368" height="472" viewBox="0 0 1368 472" fill="none" 
  xmlns="http://www.w3.org/2000/svg">
  <path opacity="0.2" d="M31.9856 0.000437154C220.409 253.606 823.256 428.277 990.082 456.764C1103.27 476.092 1311.06 468.232 1368 446.069C1368 384.621 1368 1.13814 1368 1.13814C980.28 0.761682 370.991 0.00024623 31.9856 0.000437154Z" fill="#000000"/>
  <path opacity="0.075" d="M90.5209 -41.616C217.45 -41.616 1140.83 -42.8098 1395.72 -42.8098C1395.72 21.3165 1395.72 167.613 1395.72 208.566C1395.72 267.562 1644.2 535.611 1005.04 464.026C688.757 428.603 511.873 232.982 348.902 199.588C219.33 173.038 63.2511 94.2506 90.5209 -41.616Z" fill="#000000"/>
  <path opacity="0.3" fill-rule="evenodd" clip-rule="evenodd" d="M753.831 434.872C756.386 435.155 758.687 433.314 758.97 430.759C759.253 428.204 757.412 425.903 754.857 425.62C752.302 425.337 750.002 427.178 749.719 429.733C749.435 432.288 751.277 434.589 753.831 434.872Z" stroke="#000000"/>
  <path opacity="0.3" fill-rule="evenodd" clip-rule="evenodd" d="M675.948 425.06C677.87 425.273 679.6 423.888 679.813 421.967C680.026 420.046 678.641 418.315 676.72 418.102C674.799 417.889 673.069 419.274 672.856 421.195C672.642 423.117 674.027 424.847 675.948 425.06Z" stroke="#000000"/>
  <path opacity="0.3" fill-rule="evenodd" clip-rule="evenodd" d="M959.199 445.37C962.628 445.751 965.715 443.279 966.096 439.851C966.476 436.422 964.004 433.335 960.576 432.955C957.148 432.575 954.06 435.046 953.68 438.474C953.3 441.903 955.771 444.99 959.199 445.37Z" stroke="#000000"/>
  <path opacity="0.3" fill-rule="evenodd" clip-rule="evenodd" d="M582.474 372.494C586.854 372.979 590.798 369.823 591.283 365.443C591.769 361.063 588.612 357.119 584.233 356.634C579.853 356.148 575.909 359.305 575.423 363.684C574.938 368.064 578.095 372.008 582.474 372.494Z" stroke="#000000"/>
  <path opacity="0.3" fill-rule="evenodd" clip-rule="evenodd" d="M886.381 426.659C891.92 427.273 896.908 423.28 897.522 417.741C898.136 412.202 894.144 407.214 888.605 406.6C883.066 405.985 878.077 409.978 877.463 415.517C876.849 421.056 880.841 426.044 886.381 426.659Z" stroke="#000000"/>
  <path opacity="0.3" fill-rule="evenodd" clip-rule="evenodd" d="M707.117 416.473C713.905 417.226 720.018 412.333 720.771 405.544C721.524 398.756 716.631 392.643 709.842 391.89C703.054 391.137 696.941 396.03 696.188 402.819C695.435 409.607 700.328 415.721 707.117 416.473Z" stroke="#000000"/>
  <path opacity="0.3" fill-rule="evenodd" clip-rule="evenodd" d="M998.631 430.372C1006.51 431.245 1013.6 425.569 1014.47 417.693C1015.35 409.817 1009.67 402.725 1001.79 401.852C993.918 400.979 986.825 406.655 985.952 414.531C985.079 422.406 990.755 429.499 998.631 430.372Z" stroke="#000000"/>
  <path opacity="0.3" fill-rule="evenodd" clip-rule="evenodd" d="M791.898 423.346C805.475 424.851 817.702 415.065 819.207 401.488C820.712 387.911 810.927 375.685 797.35 374.179C783.773 372.674 771.546 382.46 770.041 396.037C768.536 409.614 778.321 421.84 791.898 423.346Z" stroke="#000000"/>
  <path opacity="0.3" fill-rule="evenodd" clip-rule="evenodd" d="M643.314 375.562C656.891 377.067 669.118 367.281 670.623 353.704C672.128 340.127 662.343 327.901 648.766 326.395C635.189 324.89 622.962 334.676 621.457 348.253C619.952 361.83 629.737 374.056 643.314 375.562Z" stroke="#000000"/>
  <path opacity="0.3" fill-rule="evenodd" clip-rule="evenodd" d="M380.447 297.578C382.786 298.644 385.546 297.611 386.611 295.271C387.676 292.932 386.643 290.172 384.304 289.107C381.965 288.042 379.205 289.075 378.14 291.414C377.074 293.753 378.107 296.513 380.447 297.578Z" stroke="#000000"/>
  <path opacity="0.3" fill-rule="evenodd" clip-rule="evenodd" d="M323.393 261.519C325.152 262.32 327.228 261.543 328.029 259.784C328.83 258.025 328.053 255.949 326.294 255.148C324.535 254.347 322.459 255.124 321.658 256.883C320.857 258.643 321.634 260.718 323.393 261.519Z" stroke="#000000"/>
  <path opacity="0.3" fill-rule="evenodd" clip-rule="evenodd" d="M485.973 319.329C489.983 321.155 494.714 319.384 496.54 315.374C498.366 311.363 496.596 306.632 492.585 304.806C488.575 302.98 483.844 304.751 482.018 308.761C480.192 312.771 481.962 317.503 485.973 319.329Z" stroke="#000000"/>
  <path opacity="0.3" fill-rule="evenodd" clip-rule="evenodd" d="M307.037 232.918C311.047 234.744 315.779 232.974 317.605 228.963C319.431 224.953 317.66 220.222 313.65 218.396C309.64 216.57 304.908 218.34 303.082 222.351C301.256 226.361 303.027 231.092 307.037 232.918Z" stroke="#000000"/>
  <path opacity="0.3" fill-rule="evenodd" clip-rule="evenodd" d="M430.016 310.653C436.7 313.696 444.586 310.745 447.629 304.061C450.673 297.377 447.721 289.492 441.038 286.448C434.354 283.405 426.468 286.356 423.425 293.04C420.381 299.724 423.333 307.609 430.016 310.653Z" stroke="#000000"/>
  <path opacity="0.3" fill-rule="evenodd" clip-rule="evenodd" d="M355.685 263.072C361.901 265.902 369.234 263.158 372.065 256.942C374.895 250.726 372.151 243.392 365.935 240.562C359.719 237.731 352.385 240.476 349.555 246.692C346.724 252.908 349.469 260.241 355.685 263.072Z" stroke="#000000"/>
  <path opacity="0.3" fill-rule="evenodd" clip-rule="evenodd" d="M528.675 315.395C539.035 320.112 551.258 315.538 555.975 305.178C560.692 294.818 556.118 282.596 545.758 277.878C535.398 273.161 523.176 277.735 518.459 288.095C513.741 298.455 518.315 310.678 528.675 315.395Z" stroke="#000000"/>
  <path opacity="0.3" fill-rule="evenodd" clip-rule="evenodd" d="M405.646 274.542C418.078 280.203 432.745 274.714 438.406 262.282C444.067 249.85 438.578 235.183 426.146 229.522C413.714 223.861 399.047 229.35 393.386 241.782C387.725 254.214 393.214 268.881 405.646 274.542Z" stroke="#000000"/>
  <path opacity="0.3" fill-rule="evenodd" clip-rule="evenodd" d="M307.807 204.317C320.239 209.977 334.906 204.488 340.567 192.056C346.228 179.625 340.739 164.957 328.307 159.297C315.875 153.636 301.208 159.125 295.547 171.557C289.886 183.989 295.375 198.656 307.807 204.317Z" stroke="#000000"/>
  <path opacity="0.3" d="M8.24658 -72.8276C277.61 240.58 728.826 446.069 1240 446.069C1750.45 446.069 2201.02 240.58 2470 -72.8276H8.24658Z" fill="#000000"/>
  <path opacity="1" d="M8.24658 -72.8276C277.61 240.58 728.826 446.069 1240 446.069C1750.45 446.069 2201.02 240.58 2470 -72.8276H8.24658Z" fill="#000000"/>
</svg>
