<?xml version="1.0" encoding="UTF-8"?>
<!-- Generator: Adobe Illustrator 24.0.0, SVG Export Plug-In . SVG Version: 6.00 Build 0)  -->
<svg version="1.1" id="Layer_1" xmlns="http://www.w3.org/2000/svg" xmlns:xlink="http://www.w3.org/1999/xlink" x="0px" y="0px" viewBox="0 0 41 40" style="enable-background:new 0 0 41 40;" xml:space="preserve">
<style type="text/css">
	.st0{fill:url(#SVGID_1_);}
	.st1{fill:url(#SVGID_2_);}
</style>
<linearGradient id="SVGID_1_" gradientUnits="userSpaceOnUse" x1="7.6651" y1="5.7703" x2="22.6441" y2="31.7166" gradientTransform="matrix(1 0 0 -1 -7.175004e-08 42)">
	<stop offset="0" style="stop-color:#174E5B"/>
	<stop offset="7.000000e-02" style="stop-color:#195A6C"/>
	<stop offset="0.21" style="stop-color:#1E779A"/>
	<stop offset="0.4" style="stop-color:#27A7E3"/>
	<stop offset="0.47" style="stop-color:#2ABAFF"/>
	<stop offset="0.7" style="stop-color:#1DDAF0"/>
	<stop offset="1" style="stop-color:#0EFFE0"/>
</linearGradient>
<path class="st0" d="M25.9,38.9c-0.1-0.1-0.2-0.2-0.3-0.2c-2.3-0.5-4.6-1.3-6.6-2.5c-4.2-2.5-7-6.2-7.1-10.5c0-1.6,0.3-3.2,1-4.7  c0.4-1,2.8-4.4,3.1-5c1.6-2.5,1.1-2.3-1.2-5.4l-3.2-4.7L9.5,2.7C8.3,3.5,7.1,4.5,6,5.5c-2.2,2.2-3.9,5-4.9,8c-1,3-1.3,6.2-0.9,9.3  s1.6,6.1,3.4,8.7c1.8,2.6,4.2,4.8,6.9,6.3c-7.1-5.2-10.4-13.1-7.7-21c0.7-2.1,1.8-4.1,3.2-5.9l2.3,3.4c0.1,0.2,0.2,0.4,0.2,0.7  c0,0.2-0.1,0.5-0.2,0.7c-1.1,1.4-2,2.9-2.6,4.6c-3,8.7,5.1,17.7,13.6,19.2c1.6,0.3,4.6,0.6,6.2,0.2c0.1,0,0.2-0.1,0.2-0.1  c0.1-0.1,0.1-0.1,0.1-0.2s0-0.2,0-0.3C26,39.1,26,39,25.9,38.9z"/>
<linearGradient id="SVGID_2_" gradientUnits="userSpaceOnUse" x1="33.3377" y1="38.2289" x2="18.3575" y2="12.2846" gradientTransform="matrix(1 0 0 -1 -7.175004e-08 42)">
	<stop offset="0" style="stop-color:#174E5B"/>
	<stop offset="7.000000e-02" style="stop-color:#195A6C"/>
	<stop offset="0.21" style="stop-color:#1E779A"/>
	<stop offset="0.4" style="stop-color:#27A7E3"/>
	<stop offset="0.47" style="stop-color:#2ABAFF"/>
	<stop offset="0.7" style="stop-color:#1DDAF0"/>
	<stop offset="1" style="stop-color:#0EFFE0"/>
</linearGradient>
<path class="st1" d="M15.1,1.1c0.1,0.1,0.2,0.2,0.3,0.2c2.3,0.5,4.6,1.3,6.6,2.5c4.2,2.5,7,6.2,7.1,10.5c0,1.6-0.3,3.2-1,4.7  c-0.4,1-2.8,4.4-3.1,5c-1.6,2.5-1.1,2.3,1.2,5.4l3.2,4.7l2.2,3.2c1.2-0.8,2.4-1.8,3.5-2.8c2.2-2.2,3.9-5,4.9-8c1-3,1.3-6.2,0.9-9.3  c-0.4-3.1-1.6-6.1-3.4-8.7s-4.2-4.8-6.9-6.3c7.1,5.2,10.4,13.1,7.6,21c-0.7,2.1-1.8,4.1-3.2,5.9l-2.3-3.4c-0.1-0.2-0.2-0.4-0.2-0.7  c0-0.2,0.1-0.5,0.2-0.7c1.1-1.4,2-2.9,2.6-4.6c3-8.7-5.1-17.7-13.6-19.2c-1.6-0.3-4.6-0.6-6.2-0.2c-0.1,0-0.2,0.1-0.2,0.1  C15.1,0.4,15,0.5,15,0.6c0,0.1,0,0.2,0,0.3C15,0.9,15,1,15.1,1.1z"/>
</svg>