<svg width="300" height="44" viewBox="0 0 300 44" fill="none" xmlns="http://www.w3.org/2000/svg">
  <path d="M23.912 15.616C24.136 16.544 24.248 17.648 24.248 18.928C24.248 19.76 24.2 20.64 24.104 21.568C23.752 24.032 23.24 25.952 22.568 27.328C21.672 29.44 20.328 31.152 18.536 32.464C16.776 33.744 14.84 34.384 12.728 34.384C10.456 34.384 8.792 33.52 7.736 31.792C7.672 31.696 7.608 31.664 7.544 31.696C7.48 31.696 7.432 31.76 7.4 31.888L7.256 33.184C7.16 33.728 6.856 34 6.344 34H1.352C0.84 34 0.616 33.728 0.68 33.184L4.616 1.216C4.68 0.671998 4.968 0.399998 5.48 0.399998H10.472C11.016 0.399998 11.256 0.671998 11.192 1.216L9.944 11.104C9.944 11.232 9.976 11.312 10.04 11.344C10.104 11.376 10.184 11.344 10.28 11.248C11.688 9.68 13.544 8.896 15.848 8.896C17.96 8.896 19.72 9.504 21.128 10.72C22.568 11.936 23.496 13.568 23.912 15.616ZM15.608 26.416C16.44 25.2 16.968 23.632 17.192 21.712C17.256 20.944 17.288 20.384 17.288 20.032C17.288 18.624 17.08 17.504 16.664 16.672C16.088 15.456 15.08 14.848 13.64 14.848C12.36 14.848 11.24 15.472 10.28 16.72C9.512 17.904 8.984 19.552 8.696 21.664C8.632 22.08 8.6 22.672 8.6 23.44C8.6 24.688 8.76 25.68 9.08 26.416C9.656 27.792 10.616 28.48 11.96 28.48C13.464 28.48 14.68 27.792 15.608 26.416ZM43.3859 10.144C43.4499 9.6 43.7379 9.328 44.2499 9.328H49.2419C49.7859 9.328 50.0259 9.6 49.9619 10.144L47.1299 33.184C47.0339 33.728 46.7299 34 46.2179 34H41.2259C40.9699 34 40.7779 33.936 40.6499 33.808C40.5539 33.648 40.5219 33.44 40.5539 33.184L40.6979 31.888C40.7299 31.76 40.6979 31.696 40.6019 31.696C40.5379 31.664 40.4739 31.696 40.4099 31.792C38.9059 33.52 37.0179 34.384 34.7459 34.384C32.6659 34.384 30.8899 33.744 29.4179 32.464C27.9459 31.184 27.0179 29.472 26.6339 27.328C26.4419 26.4 26.3459 25.44 26.3459 24.448C26.3459 23.808 26.4099 22.848 26.5379 21.568C26.8579 19.168 27.4019 17.184 28.1699 15.616C29.1299 13.568 30.4579 11.936 32.1539 10.72C33.8819 9.504 35.8019 8.896 37.9139 8.896C40.2179 8.896 41.8819 9.68 42.9059 11.248C42.9699 11.344 43.0339 11.376 43.0979 11.344C43.1939 11.312 43.2419 11.232 43.2419 11.104L43.3859 10.144ZM40.4099 26.416C41.1779 25.2 41.6739 23.616 41.8979 21.664C41.9939 20.928 42.0419 20.256 42.0419 19.648C42.0419 18.432 41.8819 17.456 41.5619 16.72C40.9219 15.472 39.9459 14.848 38.6339 14.848C37.1939 14.848 36.0419 15.456 35.1779 16.672C34.2499 17.952 33.6739 19.632 33.4499 21.712C33.3859 22.128 33.3539 22.704 33.3539 23.44C33.3539 24.688 33.5139 25.68 33.8339 26.416C34.0899 27.088 34.4899 27.6 35.0339 27.952C35.5779 28.304 36.2339 28.48 37.0019 28.48C38.3459 28.48 39.4819 27.792 40.4099 26.416ZM61.902 34.384C59.438 34.384 57.374 33.744 55.71 32.464C54.046 31.184 52.958 29.424 52.446 27.184C52.254 26.256 52.158 25.28 52.158 24.256C52.158 23.712 52.222 22.8 52.35 21.52C52.606 19.472 53.102 17.616 53.838 15.952C54.862 13.776 56.366 12.064 58.35 10.816C60.334 9.568 62.558 8.944 65.022 8.944C67.518 8.944 69.614 9.584 71.31 10.864C73.038 12.144 74.094 13.76 74.478 15.712C74.606 16.224 74.67 16.72 74.67 17.2C74.67 17.68 74.414 17.968 73.902 18.064L68.91 18.832L68.67 18.88C68.51 18.88 68.366 18.832 68.238 18.736C68.142 18.608 68.094 18.464 68.094 18.304L68.046 17.632C67.918 16.8 67.518 16.112 66.846 15.568C66.174 15.024 65.326 14.752 64.302 14.752C63.31 14.752 62.43 15.008 61.662 15.52C60.926 16.032 60.366 16.736 59.982 17.632C59.502 18.656 59.166 19.968 58.974 21.568C58.878 22.368 58.83 23.104 58.83 23.776C58.83 24.48 58.878 25.056 58.974 25.504C59.134 26.464 59.518 27.216 60.126 27.76C60.734 28.304 61.55 28.576 62.574 28.576C63.566 28.576 64.446 28.32 65.214 27.808C66.014 27.264 66.606 26.544 66.99 25.648L67.086 25.408C67.118 25.28 67.23 25.136 67.422 24.976C67.646 24.784 67.87 24.704 68.094 24.736L72.894 25.504C73.118 25.568 73.278 25.68 73.374 25.84C73.47 26 73.486 26.192 73.422 26.416C73.39 26.736 73.262 27.104 73.038 27.52C72.11 29.664 70.638 31.344 68.622 32.56C66.606 33.776 64.366 34.384 61.902 34.384ZM76.8853 34C76.3413 34 76.1013 33.728 76.1653 33.184L80.1013 1.216C80.1653 0.671998 80.4533 0.399998 80.9653 0.399998H85.9573C86.5013 0.399998 86.7413 0.671998 86.6773 1.216L84.7093 17.056C84.7093 17.184 84.7413 17.264 84.8053 17.296C84.8693 17.296 84.9493 17.248 85.0453 17.152L92.1013 9.808C92.4853 9.488 92.8373 9.328 93.1573 9.328H98.7733C99.2213 9.328 99.4453 9.488 99.4453 9.808C99.4453 10 99.3653 10.176 99.2053 10.336L92.5333 17.728C92.4693 17.792 92.4373 17.92 92.4373 18.112L97.4773 33.04C97.5093 33.104 97.5253 33.184 97.5253 33.28C97.5253 33.504 97.4453 33.68 97.2853 33.808C97.1573 33.936 96.9813 34 96.7573 34H91.4773C91.0293 34 90.7413 33.792 90.6133 33.376L87.4453 22.384C87.4133 22.16 87.3013 22.144 87.1093 22.336L83.7493 26.128C83.7173 26.16 83.6693 26.208 83.6053 26.272C83.5733 26.336 83.5573 26.4 83.5573 26.464L82.7413 33.184C82.6773 33.728 82.3733 34 81.8293 34H76.8853ZM195.37 34.336C192.458 34.336 190.154 33.76 188.458 32.608C186.762 31.424 185.914 29.888 185.914 28C185.914 27.648 185.93 27.376 185.962 27.184L186.01 26.944C186.074 26.4 186.362 26.128 186.874 26.128H191.578C192.09 26.128 192.346 26.224 192.346 26.416L192.298 26.752C192.202 27.456 192.49 28.064 193.162 28.576C193.866 29.056 194.794 29.296 195.946 29.296C197.066 29.296 197.978 29.072 198.682 28.624C199.386 28.144 199.738 27.552 199.738 26.848C199.738 26.336 199.466 25.952 198.922 25.696C198.378 25.408 197.546 25.12 196.426 24.832C195.018 24.416 193.93 24.048 193.162 23.728C191.434 23.088 190.042 22.32 188.986 21.424C187.962 20.528 187.45 19.264 187.45 17.632C187.45 15.904 187.914 14.384 188.842 13.072C189.77 11.76 191.05 10.752 192.682 10.048C194.314 9.344 196.154 8.992 198.202 8.992C200.986 8.992 203.194 9.632 204.826 10.912C206.458 12.16 207.274 13.824 207.274 15.904C207.274 16.288 207.258 16.576 207.226 16.768C207.194 16.928 207.098 17.072 206.938 17.2C206.778 17.296 206.586 17.344 206.362 17.344H201.802C201.258 17.344 201.002 17.248 201.034 17.056L201.082 16.768C201.146 16.064 200.874 15.472 200.266 14.992C199.658 14.512 198.778 14.272 197.626 14.272C196.538 14.272 195.626 14.48 194.89 14.896C194.154 15.312 193.786 15.888 193.786 16.624C193.786 17.2 194.09 17.648 194.698 17.968C195.306 18.256 196.298 18.56 197.674 18.88C197.994 18.976 198.362 19.088 198.778 19.216C199.194 19.312 199.642 19.44 200.122 19.6C202.074 20.208 203.61 20.992 204.73 21.952C205.882 22.88 206.458 24.192 206.458 25.888C206.458 26.272 206.442 26.576 206.41 26.8C206.09 29.168 204.938 31.024 202.954 32.368C200.97 33.68 198.442 34.336 195.37 34.336ZM225.081 13.936C224.985 14.48 224.681 14.752 224.169 14.752H219.993C219.833 14.752 219.721 14.848 219.657 15.04L218.457 24.976C218.425 25.168 218.409 25.456 218.409 25.84C218.409 27.312 219.177 28.048 220.713 28.048H222.009C222.553 28.048 222.793 28.32 222.729 28.864L222.201 32.992C222.169 33.216 222.073 33.408 221.913 33.568C221.753 33.728 221.561 33.824 221.337 33.856C220.121 33.92 219.257 33.952 218.745 33.952C216.377 33.952 214.601 33.6 213.417 32.896C212.265 32.16 211.689 30.816 211.689 28.864C211.689 28.608 211.721 28.192 211.785 27.616L213.321 15.04C213.385 14.848 213.305 14.752 213.081 14.752H210.729C210.185 14.752 209.945 14.48 210.009 13.936L210.489 10.144C210.553 9.6 210.841 9.328 211.353 9.328H213.753C213.945 9.328 214.057 9.232 214.089 9.04L214.713 3.616C214.809 3.072 215.113 2.8 215.625 2.8H220.377C220.921 2.8 221.145 3.072 221.049 3.616L220.377 9.04C220.377 9.232 220.473 9.328 220.665 9.328H224.841C225.097 9.328 225.273 9.408 225.369 9.568C225.497 9.696 225.545 9.888 225.513 10.144L225.081 13.936ZM243.458 10.144C243.522 9.6 243.81 9.328 244.322 9.328H249.314C249.858 9.328 250.098 9.6 250.034 10.144L247.202 33.184C247.106 33.728 246.802 34 246.29 34H241.298C241.042 34 240.85 33.936 240.722 33.808C240.626 33.648 240.594 33.44 240.626 33.184L240.77 31.888C240.802 31.76 240.77 31.696 240.674 31.696C240.61 31.664 240.546 31.696 240.482 31.792C238.978 33.52 237.09 34.384 234.818 34.384C232.738 34.384 230.962 33.744 229.49 32.464C228.018 31.184 227.09 29.472 226.706 27.328C226.514 26.4 226.418 25.44 226.418 24.448C226.418 23.808 226.482 22.848 226.61 21.568C226.93 19.168 227.474 17.184 228.242 15.616C229.202 13.568 230.53 11.936 232.226 10.72C233.954 9.504 235.874 8.896 237.986 8.896C240.29 8.896 241.954 9.68 242.978 11.248C243.042 11.344 243.106 11.376 243.17 11.344C243.266 11.312 243.314 11.232 243.314 11.104L243.458 10.144ZM240.482 26.416C241.25 25.2 241.746 23.616 241.97 21.664C242.066 20.928 242.114 20.256 242.114 19.648C242.114 18.432 241.954 17.456 241.634 16.72C240.994 15.472 240.018 14.848 238.706 14.848C237.266 14.848 236.114 15.456 235.25 16.672C234.322 17.952 233.746 19.632 233.522 21.712C233.458 22.128 233.426 22.704 233.426 23.44C233.426 24.688 233.586 25.68 233.906 26.416C234.162 27.088 234.562 27.6 235.106 27.952C235.65 28.304 236.306 28.48 237.074 28.48C238.418 28.48 239.554 27.792 240.482 26.416ZM261.974 34.384C259.51 34.384 257.446 33.744 255.782 32.464C254.118 31.184 253.03 29.424 252.518 27.184C252.326 26.256 252.23 25.28 252.23 24.256C252.23 23.712 252.294 22.8 252.422 21.52C252.678 19.472 253.174 17.616 253.91 15.952C254.934 13.776 256.438 12.064 258.422 10.816C260.406 9.568 262.63 8.944 265.094 8.944C267.59 8.944 269.686 9.584 271.382 10.864C273.11 12.144 274.166 13.76 274.55 15.712C274.678 16.224 274.742 16.72 274.742 17.2C274.742 17.68 274.486 17.968 273.974 18.064L268.982 18.832L268.742 18.88C268.582 18.88 268.438 18.832 268.31 18.736C268.214 18.608 268.166 18.464 268.166 18.304L268.118 17.632C267.99 16.8 267.59 16.112 266.918 15.568C266.246 15.024 265.398 14.752 264.374 14.752C263.382 14.752 262.502 15.008 261.734 15.52C260.998 16.032 260.438 16.736 260.054 17.632C259.574 18.656 259.238 19.968 259.046 21.568C258.95 22.368 258.902 23.104 258.902 23.776C258.902 24.48 258.95 25.056 259.046 25.504C259.206 26.464 259.59 27.216 260.198 27.76C260.806 28.304 261.622 28.576 262.646 28.576C263.638 28.576 264.518 28.32 265.286 27.808C266.086 27.264 266.678 26.544 267.062 25.648L267.158 25.408C267.19 25.28 267.302 25.136 267.494 24.976C267.718 24.784 267.942 24.704 268.166 24.736L272.966 25.504C273.19 25.568 273.35 25.68 273.446 25.84C273.542 26 273.558 26.192 273.494 26.416C273.462 26.736 273.334 27.104 273.11 27.52C272.182 29.664 270.71 31.344 268.694 32.56C266.678 33.776 264.438 34.384 261.974 34.384ZM276.957 34C276.413 34 276.173 33.728 276.237 33.184L280.173 1.216C280.237 0.671998 280.525 0.399998 281.037 0.399998H286.029C286.573 0.399998 286.813 0.671998 286.749 1.216L284.781 17.056C284.781 17.184 284.813 17.264 284.877 17.296C284.941 17.296 285.021 17.248 285.117 17.152L292.173 9.808C292.557 9.488 292.909 9.328 293.229 9.328H298.845C299.293 9.328 299.517 9.488 299.517 9.808C299.517 10 299.437 10.176 299.277 10.336L292.605 17.728C292.541 17.792 292.509 17.92 292.509 18.112L297.549 33.04C297.581 33.104 297.597 33.184 297.597 33.28C297.597 33.504 297.517 33.68 297.357 33.808C297.229 33.936 297.053 34 296.829 34H291.549C291.101 34 290.813 33.792 290.685 33.376L287.517 22.384C287.485 22.16 287.373 22.144 287.181 22.336L283.821 26.128C283.789 26.16 283.741 26.208 283.677 26.272C283.645 26.336 283.629 26.4 283.629 26.464L282.813 33.184C282.749 33.728 282.445 34 281.901 34H276.957Z" fill="white"/>
  <path d="M99.6021 43.6C99.5061 43.6 99.4261 43.536 99.3621 43.408C99.3301 43.312 99.3301 43.184 99.3621 43.024L99.5061 41.968C99.5701 41.584 99.6981 41.392 99.8901 41.392H100.226C101.41 41.36 102.354 41.152 103.058 40.768C103.762 40.416 104.402 39.744 104.978 38.752C105.586 37.792 106.354 36.256 107.282 34.144C107.346 33.984 107.362 33.888 107.33 33.856L102.29 10.48V10.336C102.29 10.176 102.338 10.048 102.434 9.952C102.53 9.856 102.658 9.808 102.818 9.808H104.21C104.53 9.808 104.722 9.968 104.786 10.288L108.914 30.304C108.946 30.368 108.994 30.4 109.058 30.4C109.122 30.4 109.17 30.368 109.202 30.304L118.034 10.288C118.194 9.968 118.418 9.808 118.706 9.808H120.146C120.338 9.808 120.466 9.872 120.53 10C120.626 10.096 120.626 10.256 120.53 10.48L108.578 36.448C107.618 38.528 106.77 40.064 106.034 41.056C105.298 42.048 104.482 42.72 103.586 43.072C102.69 43.424 101.474 43.6 99.9381 43.6H99.6021ZM130.491 34.384C128.283 34.384 126.475 33.808 125.067 32.656C123.659 31.472 122.811 29.872 122.523 27.856C122.427 27.28 122.379 26.64 122.379 25.936C122.379 25.008 122.491 23.648 122.715 21.856C123.003 19.424 123.403 17.44 123.915 15.904C124.715 13.92 125.963 12.352 127.659 11.2C129.355 10.016 131.307 9.424 133.515 9.424C135.723 9.424 137.531 10.016 138.939 11.2C140.379 12.384 141.227 13.952 141.483 15.904C141.579 16.48 141.627 17.088 141.627 17.728C141.627 18.688 141.515 20.064 141.291 21.856C140.939 24.576 140.523 26.576 140.043 27.856C139.275 29.84 138.027 31.424 136.299 32.608C134.603 33.792 132.667 34.384 130.491 34.384ZM130.731 32.128C132.395 32.128 133.851 31.664 135.099 30.736C136.379 29.808 137.291 28.56 137.835 26.992C138.155 26.032 138.459 24.336 138.747 21.904C139.003 19.92 139.131 18.464 139.131 17.536C139.131 15.808 138.587 14.4 137.499 13.312C136.443 12.224 135.019 11.68 133.227 11.68C131.563 11.68 130.091 12.144 128.811 13.072C127.563 14 126.667 15.248 126.123 16.816C125.771 17.744 125.467 19.44 125.211 21.904C124.955 23.792 124.827 25.2 124.827 26.128C124.827 27.952 125.355 29.408 126.411 30.496C127.467 31.584 128.907 32.128 130.731 32.128ZM164 10.384C164.032 10.224 164.096 10.096 164.192 10C164.32 9.872 164.464 9.808 164.624 9.808H165.92C166.272 9.808 166.448 10 166.448 10.384L163.616 33.424C163.584 33.584 163.504 33.728 163.376 33.856C163.28 33.952 163.152 34 162.992 34H161.648C161.488 34 161.36 33.952 161.264 33.856C161.168 33.728 161.136 33.584 161.168 33.424L161.456 31.168C161.456 31.072 161.424 31.024 161.36 31.024C161.328 30.992 161.296 31.024 161.264 31.12C159.632 33.264 157.312 34.336 154.304 34.336C152.192 34.336 150.48 33.744 149.168 32.56C147.856 31.376 147.2 29.744 147.2 27.664C147.2 27.408 147.232 26.992 147.296 26.416L149.264 10.384C149.264 10.224 149.328 10.096 149.456 10C149.584 9.872 149.728 9.808 149.888 9.808H151.184C151.344 9.808 151.472 9.872 151.568 10C151.664 10.096 151.696 10.224 151.664 10.384L149.792 25.744C149.76 26 149.744 26.352 149.744 26.8C149.744 28.432 150.208 29.728 151.136 30.688C152.096 31.616 153.408 32.08 155.072 32.08C156.96 32.08 158.544 31.504 159.824 30.352C161.104 29.168 161.872 27.632 162.128 25.744L164 10.384ZM183.067 9.616C184.027 9.616 184.891 9.792 185.659 10.144C185.883 10.272 185.947 10.512 185.851 10.864L185.275 12.256C185.147 12.64 184.907 12.752 184.555 12.592C183.915 12.368 183.179 12.272 182.347 12.304C180.619 12.336 179.099 13.024 177.787 14.368C176.507 15.68 175.739 17.296 175.483 19.216L173.755 33.424C173.723 33.584 173.643 33.728 173.515 33.856C173.419 33.952 173.291 34 173.131 34H171.787C171.435 34 171.259 33.808 171.259 33.424L174.091 10.384C174.123 10.224 174.203 10.096 174.331 10C174.459 9.872 174.603 9.808 174.763 9.808H176.107C176.267 9.808 176.395 9.872 176.491 10C176.587 10.096 176.619 10.224 176.587 10.384L176.203 13.552C176.171 13.648 176.187 13.712 176.251 13.744C176.315 13.744 176.363 13.696 176.395 13.6C177.195 12.352 178.155 11.376 179.275 10.672C180.395 9.968 181.659 9.616 183.067 9.616Z" fill="#9092FF"/>
</svg>
