<svg width="432" height="256" viewBox="0 0 432 256" fill="none" xmlns="http://www.w3.org/2000/svg">
<g filter="url(#filter0_d)">
<rect x="16" y="8" width="400" height="224" rx="16" fill="white"/>
</g>
<mask id="mask0" mask-type="alpha" maskUnits="userSpaceOnUse" x="16" y="8" width="400" height="224">
<rect x="16" y="8" width="400" height="224" rx="16" fill="white"/>
</mask>
<g mask="url(#mask0)">
</g>
<mask id="mask1" mask-type="alpha" maskUnits="userSpaceOnUse" x="16" y="8" width="401" height="191">
<path d="M16 33.5722C16 24.6299 16 20.1587 17.7439 16.7362C19.2779 13.7256 21.7256 11.2779 24.7362 9.7439C28.1587 8 32.6392 8 41.6 8H390.4C399.361 8 403.841 8 407.264 9.7439C410.275 11.2779 412.722 13.7256 414.256 16.7362C416 20.1587 416 24.6316 416 33.5773C416 61.7263 416 106.841 416 136C183 114 262 214 16 196C16 154.046 16 74.4191 16 33.5722Z" fill="url(#paint0_linear)"/>
</mask>
<g mask="url(#mask1)">
<path d="M16 33.5722C16 24.6299 16 20.1587 17.7439 16.7362C19.2779 13.7256 21.7256 11.2779 24.7362 9.7439C28.1587 8 32.6392 8 41.6 8H390.4C399.361 8 403.841 8 407.264 9.7439C410.275 11.2779 412.722 13.7256 414.256 16.7362C416 20.1587 416 24.6316 416 33.5773C416 61.7263 416 106.841 416 136C183 114 262 214 16 196C16 154.046 16 74.4191 16 33.5722Z" fill="url(#paint1_linear)"/>
<path opacity="0.4" d="M16 193C204.5 196 168.5 87 416 132.5C416 133.5 416 134 416 136C183 114 262 214 16 196C16 138 16 195.5 16 193Z" fill="white" fill-opacity="0.48"/>
<path opacity="0.24" d="M16 139.5C163.5 139.5 240.5 193 416 171C416 165 416 197 416 201C405.5 201 61 201 16 201C16 143 16 142 16 139.5Z" fill="white" fill-opacity="0.48"/>
</g>
<defs>
<filter id="filter0_d" x="0" y="0" width="432" height="256" filterUnits="userSpaceOnUse" color-interpolation-filters="sRGB">
<feFlood flood-opacity="0" result="BackgroundImageFix"/>
<feColorMatrix in="SourceAlpha" type="matrix" values="0 0 0 0 0 0 0 0 0 0 0 0 0 0 0 0 0 0 127 0"/>
<feOffset dy="8"/>
<feGaussianBlur stdDeviation="8"/>
<feColorMatrix type="matrix" values="0 0 0 0 0.0768 0 0 0 0 0.07808 0 0 0 0 0.08 0 0 0 0.12 0"/>
<feBlend mode="normal" in2="BackgroundImageFix" result="effect1_dropShadow"/>
<feBlend mode="normal" in="SourceGraphic" in2="effect1_dropShadow" result="shape"/>
</filter>
<linearGradient id="paint0_linear" x1="16" y1="8" x2="163.5" y2="318.232" gradientUnits="userSpaceOnUse">
<stop stop-color="#145ECC"/>
<stop offset="1" stop-color="#66A3FF"/>
</linearGradient>
<linearGradient id="paint1_linear" x1="16" y1="8" x2="163.5" y2="318.232" gradientUnits="userSpaceOnUse">
<stop stop-color="#145ECC"/>
<stop offset="1" stop-color="#66A3FF"/>
</linearGradient>
</defs>
</svg>
