<?xml version="1.0" encoding="UTF-8" standalone="no"?>
<svg width="32px" height="32px" viewBox="0 0 32 32" version="1.1" xmlns="http://www.w3.org/2000/svg" xmlns:xlink="http://www.w3.org/1999/xlink">
    <!-- Generator: sketchtool 39.1 (31720) - http://www.bohemiancoding.com/sketch -->
    <title>8B9BFFFA-4D4D-4946-90D0-CEBCB8AE95FA</title>
    <desc>Created with sketchtool.</desc>
    <defs></defs>
    <g id="Page-1" stroke="none" stroke-width="1" fill="none" fill-rule="evenodd">
        <g id="Editable-Version" transform="translate(-1475.000000, -1236.000000)">
            <g id="::-all" transform="translate(55.000000, 98.000000)">
                <g id="::-edit-URL" transform="translate(-5.000000, 1129.000000)">
                    <g id="::-edit-icon" transform="translate(1426.000000, 10.000000)">
                        <g id="::-default">
                            <circle id="Oval-179" stroke="#FFFFFF" stroke-width="2" cx="15" cy="15" r="15"></circle>
                            <path d="M18.3258569,22.215564 L14.9733643,18.8627018 L15.8954245,17.9408264 L16.4573453,18.5025625 C16.6016598,18.6468769 16.7906914,18.7191265 16.9799077,18.7191265 C17.1691241,18.7191265 17.3583404,18.6468769 17.5026549,18.5025625 C17.7912837,18.2139336 17.7912837,17.7458818 17.5026549,17.4572529 L16.940734,16.8953321 L17.8631638,15.9732719 L21.2156564,19.3257645 L18.3258569,22.215564 Z M11.1371134,15.0266357 L7.78462074,11.6739583 L10.6744202,8.78434356 L14.0269129,12.1368362 L13.1044831,13.059266 L12.5427471,12.4975299 C12.2541182,12.208901 11.7860664,12.208901 11.4974375,12.4975299 C11.2088086,12.7863436 11.2088086,13.2542106 11.4974375,13.5428394 L12.0591736,14.1045755 L11.1371134,15.0266357 Z M22.7835284,18.8032022 L18.3857262,14.4052152 C18.0972821,14.1167711 17.6292303,14.1167711 17.3404166,14.4052152 L15.8954245,15.8502073 L14.1497927,14.1045755 L15.5947848,12.6595834 C15.8834137,12.3707697 15.8834137,11.9029027 15.5947848,11.6142738 L11.1971674,7.21647165 C10.9087233,6.92784278 10.4406715,6.92784278 10.1520427,7.21647165 L6.21656404,11.1512111 C6.07797784,11.2897973 6,11.477905 6,11.6739583 C6,11.8700116 6.07797784,12.0579345 6.21656404,12.1967055 L10.614551,16.5945076 C10.7588654,16.7388221 10.947897,16.8110717 11.1371134,16.8110717 C11.3263297,16.8110717 11.5155461,16.7388221 11.6598605,16.5945076 L13.1044831,15.1498851 L14.8501149,16.8955169 L13.4054924,18.3401395 C13.1168635,18.6287683 13.1168635,19.0968201 13.4054924,19.385449 L17.8031098,23.783436 C17.941696,23.9220222 18.1298036,24 18.3258569,24 C18.5219102,24 18.7098331,23.9220222 18.8486041,23.783436 L22.7835284,19.8485117 C23.0721572,19.559698 23.0721572,19.091831 22.7835284,18.8032022 L22.7835284,18.8032022 Z" id="link" fill="#FFFFFF"></path>
                        </g>
                    </g>
                </g>
            </g>
        </g>
    </g>
</svg>