<svg width="166" height="32" viewBox="0 0 166 32" fill="none" xmlns="http://www.w3.org/2000/svg">
<path d="M110.732 7H109.111C109.045 7 109.012 7.03423 109.012 7.1027V21.4126C109.012 21.4811 109.045 21.5153 109.111 21.5153H110.732C110.798 21.5153 110.831 21.4811 110.831 21.4126V7.1027C110.798 7.03423 110.765 7 110.732 7Z" fill="white"/>
<path d="M140.268 11.4505H142.087C142.12 11.4505 142.186 11.5189 142.186 11.5532V13.2306C142.186 13.2991 142.153 13.3333 142.087 13.3333H140.268C140.235 13.3333 140.202 13.3676 140.202 13.4018V21.4126C140.202 21.4811 140.169 21.5153 140.102 21.5153H138.482C138.416 21.5153 138.382 21.4811 138.382 21.4126V13.4018C138.382 13.3676 138.349 13.3333 138.316 13.3333H136.53C136.464 13.3333 136.431 13.2991 136.431 13.2306V11.5532C136.431 11.4847 136.464 11.4505 136.53 11.4505H138.316C138.349 11.4505 138.382 11.4162 138.382 11.382V7.1027C138.382 7.03423 138.416 7 138.482 7H140.102C140.169 7 140.202 7.03423 140.202 7.1027V11.382C140.202 11.4162 140.235 11.4505 140.268 11.4505Z" fill="white"/>
<path d="M143.807 8.23248H145.427C145.494 8.23248 145.527 8.26672 145.527 8.33519V10.0127C145.527 10.0811 145.494 10.1154 145.427 10.1154H143.807C143.741 10.1154 143.708 10.0811 143.708 10.0127V8.33519C143.708 8.26672 143.741 8.23248 143.807 8.23248Z" fill="white"/>
<path d="M143.807 11.4505H145.427C145.494 11.4505 145.527 11.519 145.527 11.5532V21.4127C145.527 21.4811 145.494 21.5154 145.427 21.5154H143.807C143.741 21.5154 143.708 21.4811 143.708 21.4127V11.5532C143.708 11.4847 143.741 11.4505 143.807 11.4505Z" fill="white"/>
<path fill-rule="evenodd" clip-rule="evenodd" d="M161.105 19.8037C160.146 19.8037 159.319 19.3928 158.723 18.7082C158.69 18.6397 158.69 18.5712 158.757 18.537L164.313 16.1064L165.934 15.3874C166 15.3532 166 15.319 166 15.2847C165.471 12.9226 163.387 11.1766 160.94 11.2793C158.36 11.382 156.21 13.5388 156.111 16.2091C155.978 19.1874 158.26 21.6523 161.138 21.6523C163.222 21.6523 165.008 20.3172 165.768 18.4343C165.802 18.3658 165.768 18.2973 165.702 18.2973L164.082 17.9892C164.049 17.9892 163.982 17.9892 163.982 18.0577C163.387 19.0847 162.329 19.8037 161.105 19.8037ZM161.105 13.1623C162.064 13.1623 162.924 13.6073 163.486 14.292C163.519 14.3605 163.519 14.4289 163.453 14.4632C163.453 14.4632 158.095 16.8253 158.029 16.8595C157.963 16.8938 157.897 16.8253 157.897 16.7911V16.5172C157.864 14.6343 159.319 13.1623 161.105 13.1623Z" fill="white"/>
<path d="M154.291 11.4505H155.879C155.945 11.4505 155.978 11.519 155.912 11.5874L152.638 21.4469C152.605 21.4811 152.572 21.5154 152.539 21.5154H150.289C150.223 21.5154 150.19 21.4811 150.19 21.4469L146.916 11.5874C146.916 11.519 146.949 11.4505 147.015 11.4505H148.603C148.669 11.4505 148.702 11.4847 148.702 11.519L151.282 19.3586C151.348 19.5298 151.546 19.5298 151.612 19.3586L154.192 11.519C154.225 11.4847 154.258 11.4505 154.291 11.4505Z" fill="white"/>
<path d="M131.47 19.8036C129.485 19.8036 127.931 17.9549 128.295 15.8324C128.493 14.6685 129.618 13.4703 130.742 13.2306C131.966 12.9567 133.124 13.4018 133.851 14.2576C133.884 14.2919 133.95 14.2919 133.984 14.2576L135.141 13.0594C135.174 13.0252 135.174 12.9567 135.141 12.9225C134.182 11.827 132.76 11.1766 131.205 11.245C128.658 11.382 126.542 13.5387 126.409 16.1748C126.277 19.1531 128.559 21.618 131.437 21.618C132.892 21.618 134.215 20.9676 135.141 19.9405C135.174 19.9063 135.174 19.8721 135.141 19.8378L133.984 18.6396C133.95 18.6054 133.884 18.6054 133.851 18.6396C133.289 19.3928 132.429 19.8036 131.47 19.8036Z" fill="white"/>
<path fill-rule="evenodd" clip-rule="evenodd" d="M120.654 19.8036C119.695 19.8036 118.868 19.3928 118.273 18.7081C118.24 18.6396 118.24 18.5712 118.306 18.5369L123.863 16.1063L125.483 15.3874C125.549 15.3531 125.549 15.3189 125.549 15.2847C125.02 12.9225 122.936 11.1766 120.489 11.2793C117.909 11.382 115.759 13.5387 115.66 16.209C115.528 19.1874 117.81 21.6522 120.687 21.6522C122.771 21.6522 124.557 20.3171 125.318 18.4342C125.351 18.3658 125.318 18.2973 125.252 18.2973L123.631 17.9892C123.598 17.9892 123.532 17.9892 123.532 18.0576C122.936 19.0847 121.845 19.8036 120.654 19.8036ZM120.654 13.1622C121.614 13.1622 122.473 13.6072 123.036 14.2919C123.069 14.3604 123.069 14.4288 123.003 14.4631C123.003 14.4631 117.645 16.8252 117.578 16.8595C117.512 16.8937 117.446 16.8252 117.446 16.791V16.5171C117.413 14.6342 118.868 13.1622 120.654 13.1622Z" fill="white"/>
<path d="M112.65 7H114.271C114.304 7 114.37 7.03423 114.37 7.1027V21.4126C114.37 21.4811 114.337 21.5153 114.271 21.5153H112.65C112.584 21.5153 112.551 21.4811 112.551 21.4126V7.1027C112.551 7.03423 112.584 7 112.65 7Z" fill="white"/>
<path fill-rule="evenodd" clip-rule="evenodd" d="M97.7665 16.4829C97.7665 13.6072 100.016 11.2793 102.794 11.2793C105.572 11.2793 107.821 13.6072 107.821 16.4829C107.821 19.3586 105.572 21.6865 102.794 21.6865C100.016 21.6865 97.7665 19.3586 97.7665 16.4829ZM106.002 16.4829C106.002 14.6685 104.58 13.1622 102.794 13.1622C101.008 13.1622 99.5856 14.6685 99.5856 16.4829C99.5856 18.2973 101.041 19.8036 102.794 19.8036C104.547 19.8036 106.002 18.2973 106.002 16.4829Z" fill="white"/>
<path d="M90.3908 15.8324C90.027 17.9549 91.5815 19.8036 93.566 19.8036C94.5251 19.8036 95.3851 19.3928 95.9474 18.6396C95.9804 18.6054 96.0466 18.6054 96.0797 18.6396L97.2373 19.8378C97.2704 19.8721 97.2704 19.9063 97.2373 19.9405C96.3112 20.9676 94.9882 21.618 93.5329 21.618C90.6554 21.618 88.3732 19.1531 88.5055 16.1748C88.6378 13.5387 90.7546 11.382 93.3014 11.245C94.8559 11.1766 96.2781 11.827 97.2373 12.9225C97.2704 12.9567 97.2704 13.0252 97.2373 13.0594L96.0797 14.2576C96.0466 14.2919 95.9804 14.2919 95.9474 14.2576C95.2197 13.4018 94.0621 12.9567 92.8383 13.2306C91.7138 13.4703 90.5892 14.6685 90.3908 15.8324Z" fill="white"/>
<path d="M79.0731 11.2793C78.0147 11.2793 76.7909 11.964 76.2286 12.7856C76.1956 12.8541 76.0633 12.8198 76.0633 12.7514V11.5532C76.0633 11.5189 76.0302 11.4505 75.964 11.4505H74.3434C74.3103 11.4505 74.2441 11.4847 74.2441 11.5532V21.4469C74.2441 21.4811 74.2772 21.5496 74.3434 21.5496H75.964C75.9971 21.5496 76.0633 21.5153 76.0633 21.4469V16.5171C76.0633 14.6343 77.287 13.2991 79.04 13.2991C81.3552 13.2991 82.0498 14.8739 82.0498 16.7225V21.4469C82.0498 21.4811 82.0829 21.5496 82.149 21.5496H83.7697C83.8028 21.5496 83.8689 21.5153 83.8689 21.4469V16.7225C83.902 13.8469 82.579 11.2793 79.0731 11.2793Z" fill="white"/>
<path fill-rule="evenodd" clip-rule="evenodd" d="M68.3899 19.8036C67.4307 19.8036 66.6038 19.3928 66.0085 18.7081C65.9754 18.6396 65.9754 18.5712 66.0416 18.5369L71.5981 16.1063L73.2188 15.3874C73.285 15.3531 73.285 15.3189 73.285 15.2847C72.7558 12.9225 70.672 11.1766 68.2245 11.2793C65.6447 11.382 63.4948 13.5387 63.3956 16.209C63.2633 19.1874 65.5454 21.6522 68.423 21.6522C70.5067 21.6522 72.2927 20.3171 73.0534 18.4342C73.0865 18.3658 73.0534 18.2973 72.9873 18.2973L71.3666 17.9892C71.3335 17.9892 71.2674 17.9892 71.2674 18.0576C70.672 19.0847 69.6136 19.8036 68.3899 19.8036ZM68.3899 13.1622C69.3491 13.1622 70.209 13.6072 70.7713 14.2919C70.8044 14.3604 70.8044 14.4288 70.7382 14.4631C70.7382 14.4631 65.3801 16.8252 65.3139 16.8595C65.2478 16.8937 65.1816 16.8252 65.1816 16.791V16.5171C65.1816 14.6342 66.6369 13.1622 68.3899 13.1622Z" fill="white"/>
<path fill-rule="evenodd" clip-rule="evenodd" d="M54.4654 12.5802C55.1599 11.7243 56.1522 11.2108 57.409 11.1766C59.8235 11.1423 62.0064 12.9225 62.4033 15.4216C62.9987 18.7081 60.5511 21.5838 57.4752 21.5838C56.1522 21.5838 55.1269 21.036 54.4323 20.1802C54.3661 20.1117 54.2669 20.1459 54.2669 20.2486V25.8973C54.2669 25.9658 54.2338 26 54.1677 26H52.5801C52.5139 26 52.4809 25.9658 52.4809 25.8973V11.5531C52.4809 11.4847 52.5139 11.4504 52.5801 11.4504H54.2008C54.2669 11.4504 54.3 11.4847 54.3 11.5531V12.5117C54.3 12.6144 54.3992 12.6486 54.4654 12.5802ZM54.3331 15.8324C53.9692 18.0919 55.8545 20.0432 58.0375 19.6666C59.3604 19.427 60.4519 18.3315 60.6504 16.9621C61.0142 14.7027 59.1289 12.7513 56.946 13.1279C55.623 13.3333 54.5646 14.463 54.3331 15.8324Z" fill="white"/>
<path fill-rule="evenodd" clip-rule="evenodd" d="M46.5274 11.2793C43.7491 11.2793 41.5 13.6072 41.5 16.4829C41.5 19.3586 43.7491 21.6865 46.5274 21.6865C49.3057 21.6865 51.5548 19.3586 51.5548 16.4829C51.5548 13.6072 49.3057 11.2793 46.5274 11.2793ZM46.5274 13.1622C48.3134 13.1622 49.7356 14.6685 49.7356 16.4829C49.7356 18.2973 48.2803 19.8036 46.5274 19.8036C44.7744 19.8036 43.3191 18.2973 43.3191 16.4829C43.3191 14.6685 44.7744 13.1622 46.5274 13.1622Z" fill="white"/>
<path fill-rule="evenodd" clip-rule="evenodd" d="M29.2706 6.88721C31.0727 9.4733 32.1289 12.6135 32.1289 15.9998C32.1289 19.3861 31.0727 22.5266 29.2706 25.1124L25.1094 20.9679C25.9266 19.4952 26.3917 17.8014 26.3917 15.9998C26.3917 14.1982 25.9266 12.5048 25.1094 11.0321L29.2706 6.88721Z" fill="white" fill-opacity="0.48"/>
<path fill-rule="evenodd" clip-rule="evenodd" d="M25.2139 2.84685L21.0523 6.99138C19.5737 6.17745 17.8734 5.71417 16.0645 5.71417C10.361 5.71417 5.73722 10.3194 5.73722 16C5.73722 21.6806 10.361 26.2858 16.0645 26.2858C17.8734 26.2858 19.5737 25.8225 21.0523 25.0086L25.2139 29.1532C22.6174 30.948 19.4645 32 16.0645 32C7.1924 32 0 24.8365 0 16C0 7.16351 7.1924 0 16.0645 0C19.4645 0 22.6174 1.05197 25.2139 2.84685Z" fill="white"/>
</svg>
