<svg width="2560" height="376" viewBox="0 0 2560 376" fill="none" 
  xmlns="http://www.w3.org/2000/svg">
  <mask id="mask0" mask-type="alpha" maskUnits="userSpaceOnUse" x="0" y="0" width="2560" height="376">
    <path d="M0 0H2560V344C2560 344 1866.67 376 1278.22 376C689.778 376 0 344 0 344V0Z" fill="url(#paint1_radial)"/>
  </mask>
  <g mask="url(#mask0)">
    <g opacity="0.24">
      <path fill-rule="evenodd" clip-rule="evenodd" d="M2294.52 155.691C2289.76 158.281 2287.81 164.613 2290.17 169.832C2292.54 175.053 2298.31 177.184 2303.07 174.595L2294.52 155.691Z" stroke="#EEEEEE" stroke-width="2" stroke-linecap="round" stroke-linejoin="round"/>
      <path d="M2403.65 17.3957L2410.84 22.7754L2405.71 30.3138L2413 36.3585L2407.87 43.8854L2415.1 49.5777" stroke="#EEEEEE" stroke-width="2" stroke-linecap="round" stroke-linejoin="round"/>
      <path fill-rule="evenodd" clip-rule="evenodd" d="M2065.11 122.183C2065.43 127.581 2069.72 131.67 2074.68 131.316C2079.64 130.963 2083.4 126.3 2083.08 120.9L2065.11 122.183Z" stroke="#EEEEEE" stroke-width="2" stroke-linecap="round" stroke-linejoin="round"/>
      <path d="M2014.02 220.055L2012.77 211.85L2020.99 210.596L2020.09 201.903L2028.31 200.659L2027.22 192.222" stroke="#EEEEEE" stroke-width="2" stroke-linecap="round" stroke-linejoin="round"/>
      <path fill-rule="evenodd" clip-rule="evenodd" d="M2130.06 235.35C2132.81 232.501 2132.87 227.82 2130.19 224.896C2127.51 221.973 2123.11 221.914 2120.36 224.765C2117.61 227.615 2117.55 232.296 2120.23 235.22C2122.92 238.143 2127.32 238.202 2130.06 235.35Z" stroke="#EEEEEE" stroke-width="2"/>
      <path d="M2161.6 167L2166.19 162.65L2170.03 167.848L2175.05 163.541L2178.89 168.738L2183.68 164.41" stroke="#EEEEEE" stroke-width="2" stroke-linecap="round" stroke-linejoin="round"/>
      <path fill-rule="evenodd" clip-rule="evenodd" d="M2384.84 222.665L2396.78 216.919L2398.75 200.92L2386.81 206.666L2384.84 222.665Z" stroke="#EEEEEE" stroke-width="2" stroke-linejoin="round"/>
      <path fill-rule="evenodd" clip-rule="evenodd" d="M2158.12 60.0151L2143.61 62.8505L2146.27 78.2806L2160.78 75.4452L2158.12 60.0151Z" stroke="#EEEEEE" stroke-width="2" stroke-linejoin="round"/>
      <path d="M2006.23 196.571L2007.74 190.702L2013.38 192.273L2015.26 186.183L2020.9 187.76L2022.58 181.785" stroke="#EEEEEE" stroke-width="2" stroke-linecap="round" stroke-linejoin="round"/>
      <path fill-rule="evenodd" clip-rule="evenodd" d="M2267.5 27.8331L2275.27 32.3995V41.5322L2267.5 46.0986L2259.73 41.5322V32.3995L2267.5 27.8331Z" stroke="#EEEEEE" stroke-width="2" stroke-linecap="round" stroke-linejoin="round"/>
      <path fill-rule="evenodd" clip-rule="evenodd" d="M1963.58 144.643L1971.34 144.577L1975.16 151.622L1971.23 158.733L1963.47 158.8L1959.65 151.755L1963.58 144.643Z" stroke="#EEEEEE" stroke-width="2" stroke-linecap="round" stroke-linejoin="round"/>
      <path fill-rule="evenodd" clip-rule="evenodd" d="M2224.16 130.468C2228 130.468 2231.11 127.158 2231.11 123.074C2231.11 118.991 2228 115.681 2224.16 115.681C2220.32 115.681 2217.21 118.991 2217.21 123.074C2217.21 127.158 2220.32 130.468 2224.16 130.468Z" stroke="#EEEEEE" stroke-width="2"/>
      <path fill-rule="evenodd" clip-rule="evenodd" d="M2230.7 125.249C2236.35 125.249 2240.92 120.381 2240.92 114.377C2240.92 108.372 2236.35 103.504 2230.7 103.504C2225.05 103.504 2220.48 108.372 2220.48 114.377C2220.48 120.381 2225.05 125.249 2230.7 125.249Z" stroke="#EEEEEE" stroke-width="2"/>
      <path d="M2308.79 88.118C2308.79 88.118 2330.52 85.8508 2334.96 102.635" stroke="#EEEEEE" stroke-width="2" stroke-linecap="round" stroke-linejoin="round"/>
      <path fill-rule="evenodd" clip-rule="evenodd" d="M2097.53 37.3693C2086.3 27.1828 2083.44 17.0411 2088.94 6.9443L2097.53 37.3693Z" stroke="#EEEEEE" stroke-width="2" stroke-linecap="round" stroke-linejoin="round"/>
      <path fill-rule="evenodd" clip-rule="evenodd" d="M2243.82 221.251C2257.02 235.291 2242.46 245.879 2237.1 236.808L2243.82 221.251Z" stroke="#EEEEEE" stroke-width="2" stroke-linecap="round" stroke-linejoin="round"/>
      <path fill-rule="evenodd" clip-rule="evenodd" d="M1968.97 20.6824C1952.81 30.6105 1946.96 12.9117 1956.59 9.74803L1968.97 20.6824Z" stroke="#EEEEEE" stroke-width="2" stroke-linecap="round" stroke-linejoin="round"/>
      <path fill-rule="evenodd" clip-rule="evenodd" d="M2414.28 166.129C2416.99 166.129 2419.19 163.792 2419.19 160.91C2419.19 158.028 2416.99 155.691 2414.28 155.691C2411.57 155.691 2409.38 158.028 2409.38 160.91C2409.38 163.792 2411.57 166.129 2414.28 166.129Z" stroke="#EEEEEE" stroke-width="2"/>
      <path fill-rule="evenodd" clip-rule="evenodd" d="M2025.85 73.9317C2030.37 73.9317 2034.03 70.0375 2034.03 65.2338C2034.03 60.4301 2030.37 56.536 2025.85 56.536C2021.34 56.536 2017.68 60.4301 2017.68 65.2338C2017.68 70.0375 2021.34 73.9317 2025.85 73.9317Z" stroke="#EEEEEE" stroke-width="2"/>
      <path d="M2344.78 5.21387C2348.78 -10.8306 2350.57 16.7595 2360.31 1.06785" stroke="#EEEEEE" stroke-width="2" stroke-linecap="round" stroke-linejoin="round"/>
      <path fill-rule="evenodd" clip-rule="evenodd" d="M2034.85 65.2338C2037.11 65.2338 2038.94 63.2867 2038.94 60.8849C2038.94 58.4831 2037.11 56.536 2034.85 56.536C2032.59 56.536 2030.76 58.4831 2030.76 60.8849C2030.76 63.2867 2032.59 65.2338 2034.85 65.2338Z" stroke="#EEEEEE" stroke-width="2"/>
      <path d="M2525.5 293.117L2532.68 298.497L2527.55 306.035L2534.84 312.08L2529.71 319.607L2536.95 325.299" stroke="#EEEEEE" stroke-width="2" stroke-linecap="round" stroke-linejoin="round"/>
      <path fill-rule="evenodd" clip-rule="evenodd" d="M2314.31 280.94L2299.8 283.776L2302.46 299.206L2316.97 296.37L2314.31 280.94Z" stroke="#EEEEEE" stroke-width="2" stroke-linejoin="round"/>
      <path fill-rule="evenodd" clip-rule="evenodd" d="M2395.07 296.596L2402.84 301.163V310.296L2395.07 314.862L2387.3 310.296V301.163L2395.07 296.596Z" stroke="#EEEEEE" stroke-width="2" stroke-linecap="round" stroke-linejoin="round"/>
      <path fill-rule="evenodd" clip-rule="evenodd" d="M2408.52 90.5716L2416.27 90.5052L2420.1 97.55L2416.16 104.661L2408.41 104.728L2404.58 97.6829L2408.52 90.5716Z" stroke="#EEEEEE" stroke-width="2" stroke-linecap="round" stroke-linejoin="round"/>
      <path fill-rule="evenodd" clip-rule="evenodd" d="M2336.19 381.835C2340.03 381.835 2343.14 378.525 2343.14 374.442C2343.14 370.359 2340.03 367.049 2336.19 367.049C2332.35 367.049 2329.24 370.359 2329.24 374.442C2329.24 378.525 2332.35 381.835 2336.19 381.835Z" stroke="#EEEEEE" stroke-width="2"/>
      <path fill-rule="evenodd" clip-rule="evenodd" d="M2342.73 376.617C2348.38 376.617 2352.95 371.749 2352.95 365.744C2352.95 359.74 2348.38 354.872 2342.73 354.872C2337.09 354.872 2332.51 359.74 2332.51 365.744C2332.51 371.749 2337.09 376.617 2342.73 376.617Z" stroke="#EEEEEE" stroke-width="2"/>
      <path fill-rule="evenodd" clip-rule="evenodd" d="M2224.85 305.336C2213.62 295.149 2210.76 285.008 2216.26 274.911L2224.85 305.336Z" stroke="#EEEEEE" stroke-width="2" stroke-linecap="round" stroke-linejoin="round"/>
      <path fill-rule="evenodd" clip-rule="evenodd" d="M2096.74 288.649C2080.57 298.577 2074.73 280.878 2084.35 277.715L2096.74 288.649Z" stroke="#EEEEEE" stroke-width="2" stroke-linecap="round" stroke-linejoin="round"/>
      <path fill-rule="evenodd" clip-rule="evenodd" d="M2153.42 342.695C2157.94 342.695 2161.6 338.801 2161.6 333.997C2161.6 329.194 2157.94 325.299 2153.42 325.299C2148.91 325.299 2145.25 329.194 2145.25 333.997C2145.25 338.801 2148.91 342.695 2153.42 342.695Z" stroke="#EEEEEE" stroke-width="2"/>
      <path d="M2473.16 273.107C2477.16 257.063 2478.95 284.653 2488.7 268.961" stroke="#EEEEEE" stroke-width="2" stroke-linecap="round" stroke-linejoin="round"/>
      <path fill-rule="evenodd" clip-rule="evenodd" d="M2161.6 333.997C2163.86 333.997 2165.69 332.05 2165.69 329.648C2165.69 327.246 2163.86 325.299 2161.6 325.299C2159.34 325.299 2157.51 327.246 2157.51 329.648C2157.51 332.05 2159.34 333.997 2161.6 333.997Z" stroke="#EEEEEE" stroke-width="2"/>
      <path d="M2021.76 293.117L2028.95 298.497L2023.82 306.035L2031.11 312.08L2025.98 319.607L2033.21 325.299" stroke="#EEEEEE" stroke-width="2" stroke-linecap="round" stroke-linejoin="round"/>
      <path d="M1962.07 369.058C1962.07 369.058 1983.79 366.791 1988.24 383.575" stroke="#EEEEEE" stroke-width="2" stroke-linecap="round" stroke-linejoin="round"/>
      <path d="M1968.61 273.107C1972.61 257.063 1974.4 284.653 1984.15 268.961" stroke="#EEEEEE" stroke-width="2" stroke-linecap="round" stroke-linejoin="round"/>
      <path d="M2477.25 110.464L2481.84 106.114L2485.68 111.312L2490.7 107.005L2494.54 112.202L2499.33 107.874" stroke="#EEEEEE" stroke-width="2" stroke-linecap="round" stroke-linejoin="round"/>
      <path fill-rule="evenodd" clip-rule="evenodd" d="M2541.44 73.9317C2545.28 73.9317 2548.39 70.6216 2548.39 66.5385C2548.39 62.4554 2545.28 59.1453 2541.44 59.1453C2537.6 59.1453 2534.49 62.4554 2534.49 66.5385C2534.49 70.6216 2537.6 73.9317 2541.44 73.9317Z" stroke="#EEEEEE" stroke-width="2"/>
      <path fill-rule="evenodd" clip-rule="evenodd" d="M2547.99 68.713C2553.63 68.713 2558.21 63.8453 2558.21 57.8407C2558.21 51.8361 2553.63 46.9684 2547.99 46.9684C2542.34 46.9684 2537.76 51.8361 2537.76 57.8407C2537.76 63.8453 2542.34 68.713 2547.99 68.713Z" stroke="#EEEEEE" stroke-width="2"/>
      <path fill-rule="evenodd" clip-rule="evenodd" d="M2502.22 8.69785C2497.46 11.2874 2495.52 17.6197 2497.88 22.8388C2500.24 28.059 2506.02 30.1909 2510.78 27.6014L2502.22 8.69785Z" stroke="#EEEEEE" stroke-width="2" stroke-linecap="round" stroke-linejoin="round"/>
      <path fill-rule="evenodd" clip-rule="evenodd" d="M2538.12 386.693C2540.87 383.843 2540.92 379.162 2538.24 376.238C2535.56 373.316 2531.16 373.256 2528.41 376.108C2525.67 378.958 2525.61 383.639 2528.29 386.563C2530.97 389.485 2535.37 389.544 2538.12 386.693Z" stroke="#EEEEEE" stroke-width="2"/>
      <path fill-rule="evenodd" clip-rule="evenodd" d="M2558.32 186.248C2542.16 196.176 2536.31 178.477 2545.94 175.313L2558.32 186.248Z" stroke="#EEEEEE" stroke-width="2" stroke-linecap="round" stroke-linejoin="round"/>
      <path fill-rule="evenodd" clip-rule="evenodd" d="M2471.53 205.682C2471.85 211.08 2476.14 215.169 2481.1 214.815C2486.06 214.462 2489.82 209.799 2489.5 204.399L2471.53 205.682Z" stroke="#EEEEEE" stroke-width="2" stroke-linecap="round" stroke-linejoin="round"/>
      <path d="M2206.58 18.2655L2208.09 12.3964L2213.73 13.9677L2215.61 7.87767L2221.25 9.45379L2222.93 3.47914" stroke="#EEEEEE" stroke-width="2" stroke-linecap="round" stroke-linejoin="round"/>
      <path fill-rule="evenodd" clip-rule="evenodd" d="M2552.37 238.494L2557.64 238.157L2560 242.508L2557.09 247.196L2551.82 247.533L2549.46 243.181L2552.37 238.494Z" stroke="#EEEEEE" stroke-width="2"/>
      <path fill-rule="evenodd" clip-rule="evenodd" d="M2453.54 382.705C2458.05 382.705 2461.71 378.811 2461.71 374.007C2461.71 369.204 2458.05 365.309 2453.54 365.309C2449.02 365.309 2445.36 369.204 2445.36 374.007C2445.36 378.811 2449.02 382.705 2453.54 382.705Z" stroke="#EEEEEE" stroke-width="2"/>
      <path fill-rule="evenodd" clip-rule="evenodd" d="M2320.6 237.09C2323.35 234.24 2323.4 229.559 2320.72 226.635C2318.04 223.713 2313.64 223.653 2310.89 226.505C2308.14 229.355 2308.09 234.036 2310.77 236.96C2313.45 239.882 2317.85 239.941 2320.6 237.09Z" stroke="#EEEEEE" stroke-width="2"/>
      <path fill-rule="evenodd" clip-rule="evenodd" d="M1646.24 155.691C1641.48 158.281 1639.54 164.613 1641.9 169.832C1644.26 175.053 1650.03 177.184 1654.8 174.595L1646.24 155.691Z" stroke="#EEEEEE" stroke-width="2" stroke-linecap="round" stroke-linejoin="round"/>
      <path d="M1755.38 17.3957L1762.56 22.7754L1757.43 30.3138L1764.72 36.3585L1759.59 43.8854L1766.83 49.5777" stroke="#EEEEEE" stroke-width="2" stroke-linecap="round" stroke-linejoin="round"/>
      <path fill-rule="evenodd" clip-rule="evenodd" d="M1416.83 122.183C1417.16 127.581 1421.44 131.67 1426.41 131.316C1431.37 130.963 1435.13 126.3 1434.8 120.9L1416.83 122.183Z" stroke="#EEEEEE" stroke-width="2" stroke-linecap="round" stroke-linejoin="round"/>
      <path d="M1365.75 220.055L1364.49 211.85L1372.71 210.596L1371.82 201.903L1380.03 200.659L1378.95 192.222" stroke="#EEEEEE" stroke-width="2" stroke-linecap="round" stroke-linejoin="round"/>
      <path fill-rule="evenodd" clip-rule="evenodd" d="M1481.79 235.35C1484.54 232.501 1484.59 227.82 1481.91 224.896C1479.23 221.973 1474.83 221.914 1472.08 224.765C1469.33 227.615 1469.28 232.296 1471.96 235.22C1474.64 238.143 1479.04 238.202 1481.79 235.35Z" stroke="#EEEEEE" stroke-width="2"/>
      <path d="M1513.32 167L1517.91 162.65L1521.76 167.848L1526.78 163.541L1530.61 168.738L1535.4 164.41" stroke="#EEEEEE" stroke-width="2" stroke-linecap="round" stroke-linejoin="round"/>
      <path fill-rule="evenodd" clip-rule="evenodd" d="M1736.57 222.665L1748.51 216.919L1750.47 200.92L1738.53 206.666L1736.57 222.665Z" stroke="#EEEEEE" stroke-width="2" stroke-linejoin="round"/>
      <path fill-rule="evenodd" clip-rule="evenodd" d="M1509.84 60.0151L1495.33 62.8505L1498 78.2806L1512.51 75.4452L1509.84 60.0151Z" stroke="#EEEEEE" stroke-width="2" stroke-linejoin="round"/>
      <path d="M1357.95 196.571L1359.46 190.702L1365.11 192.273L1366.98 186.183L1372.62 187.76L1374.31 181.785" stroke="#EEEEEE" stroke-width="2" stroke-linecap="round" stroke-linejoin="round"/>
      <path fill-rule="evenodd" clip-rule="evenodd" d="M1619.22 27.8331L1626.99 32.3995V41.5322L1619.22 46.0986L1611.45 41.5322V32.3995L1619.22 27.8331Z" stroke="#EEEEEE" stroke-width="2" stroke-linecap="round" stroke-linejoin="round"/>
      <path fill-rule="evenodd" clip-rule="evenodd" d="M1315.3 144.643L1323.06 144.577L1326.88 151.622L1322.95 158.733L1315.2 158.8L1311.37 151.755L1315.3 144.643Z" stroke="#EEEEEE" stroke-width="2" stroke-linecap="round" stroke-linejoin="round"/>
      <path fill-rule="evenodd" clip-rule="evenodd" d="M1575.88 130.468C1579.72 130.468 1582.83 127.158 1582.83 123.074C1582.83 118.991 1579.72 115.681 1575.88 115.681C1572.04 115.681 1568.93 118.991 1568.93 123.074C1568.93 127.158 1572.04 130.468 1575.88 130.468Z" stroke="#EEEEEE" stroke-width="2"/>
      <path fill-rule="evenodd" clip-rule="evenodd" d="M1582.42 125.249C1588.07 125.249 1592.65 120.381 1592.65 114.377C1592.65 108.372 1588.07 103.504 1582.42 103.504C1576.78 103.504 1572.2 108.372 1572.2 114.377C1572.2 120.381 1576.78 125.249 1582.42 125.249Z" stroke="#EEEEEE" stroke-width="2"/>
      <path d="M1660.52 88.118C1660.52 88.118 1682.24 85.8508 1686.69 102.635" stroke="#EEEEEE" stroke-width="2" stroke-linecap="round" stroke-linejoin="round"/>
      <path fill-rule="evenodd" clip-rule="evenodd" d="M1449.26 37.3693C1438.03 27.1828 1435.16 17.0411 1440.67 6.9443L1449.26 37.3693Z" stroke="#EEEEEE" stroke-width="2" stroke-linecap="round" stroke-linejoin="round"/>
      <path fill-rule="evenodd" clip-rule="evenodd" d="M1595.54 221.251C1608.74 235.291 1594.18 245.879 1588.82 236.808L1595.54 221.251Z" stroke="#EEEEEE" stroke-width="2" stroke-linecap="round" stroke-linejoin="round"/>
      <path fill-rule="evenodd" clip-rule="evenodd" d="M1320.7 20.6824C1304.53 30.6105 1298.68 12.9117 1308.31 9.74803L1320.7 20.6824Z" stroke="#EEEEEE" stroke-width="2" stroke-linecap="round" stroke-linejoin="round"/>
      <path fill-rule="evenodd" clip-rule="evenodd" d="M1766.01 166.129C1768.72 166.129 1770.92 163.792 1770.92 160.91C1770.92 158.028 1768.72 155.691 1766.01 155.691C1763.3 155.691 1761.1 158.028 1761.1 160.91C1761.1 163.792 1763.3 166.129 1766.01 166.129Z" stroke="#EEEEEE" stroke-width="2"/>
      <path fill-rule="evenodd" clip-rule="evenodd" d="M1377.58 73.9317C1382.09 73.9317 1385.76 70.0375 1385.76 65.2338C1385.76 60.4301 1382.09 56.536 1377.58 56.536C1373.06 56.536 1369.4 60.4301 1369.4 65.2338C1369.4 70.0375 1373.06 73.9317 1377.58 73.9317Z" stroke="#EEEEEE" stroke-width="2"/>
      <path d="M1696.5 5.21387C1700.5 -10.8306 1702.29 16.7595 1712.04 1.06785" stroke="#EEEEEE" stroke-width="2" stroke-linecap="round" stroke-linejoin="round"/>
      <path fill-rule="evenodd" clip-rule="evenodd" d="M1386.57 65.2338C1388.83 65.2338 1390.66 63.2867 1390.66 60.8849C1390.66 58.4831 1388.83 56.536 1386.57 56.536C1384.32 56.536 1382.48 58.4831 1382.48 60.8849C1382.48 63.2867 1384.32 65.2338 1386.57 65.2338Z" stroke="#EEEEEE" stroke-width="2"/>
      <path d="M1877.22 293.117L1884.41 298.497L1879.28 306.035L1886.57 312.08L1881.44 319.607L1888.67 325.299" stroke="#EEEEEE" stroke-width="2" stroke-linecap="round" stroke-linejoin="round"/>
      <path fill-rule="evenodd" clip-rule="evenodd" d="M1666.03 280.94L1651.52 283.776L1654.19 299.206L1668.7 296.37L1666.03 280.94Z" stroke="#EEEEEE" stroke-width="2" stroke-linejoin="round"/>
      <path fill-rule="evenodd" clip-rule="evenodd" d="M1746.79 296.596L1754.56 301.163V310.296L1746.79 314.862L1739.02 310.296V301.163L1746.79 296.596Z" stroke="#EEEEEE" stroke-width="2" stroke-linecap="round" stroke-linejoin="round"/>
      <path fill-rule="evenodd" clip-rule="evenodd" d="M1760.24 90.5716L1768 90.5052L1771.82 97.55L1767.89 104.661L1760.13 104.728L1756.31 97.6829L1760.24 90.5716Z" stroke="#EEEEEE" stroke-width="2" stroke-linecap="round" stroke-linejoin="round"/>
      <path fill-rule="evenodd" clip-rule="evenodd" d="M1687.91 381.835C1691.75 381.835 1694.86 378.525 1694.86 374.442C1694.86 370.359 1691.75 367.049 1687.91 367.049C1684.07 367.049 1680.96 370.359 1680.96 374.442C1680.96 378.525 1684.07 381.835 1687.91 381.835Z" stroke="#EEEEEE" stroke-width="2"/>
      <path fill-rule="evenodd" clip-rule="evenodd" d="M1694.46 376.617C1700.1 376.617 1704.68 371.749 1704.68 365.744C1704.68 359.74 1700.1 354.872 1694.46 354.872C1688.81 354.872 1684.23 359.74 1684.23 365.744C1684.23 371.749 1688.81 376.617 1694.46 376.617Z" stroke="#EEEEEE" stroke-width="2"/>
      <path fill-rule="evenodd" clip-rule="evenodd" d="M1576.57 305.336C1565.34 295.149 1562.48 285.008 1567.99 274.911L1576.57 305.336Z" stroke="#EEEEEE" stroke-width="2" stroke-linecap="round" stroke-linejoin="round"/>
      <path fill-rule="evenodd" clip-rule="evenodd" d="M1448.47 288.649C1432.3 298.577 1426.45 280.878 1436.08 277.715L1448.47 288.649Z" stroke="#EEEEEE" stroke-width="2" stroke-linecap="round" stroke-linejoin="round"/>
      <path fill-rule="evenodd" clip-rule="evenodd" d="M1505.15 342.695C1509.66 342.695 1513.32 338.801 1513.32 333.997C1513.32 329.194 1509.66 325.299 1505.15 325.299C1500.63 325.299 1496.97 329.194 1496.97 333.997C1496.97 338.801 1500.63 342.695 1505.15 342.695Z" stroke="#EEEEEE" stroke-width="2"/>
      <path d="M1824.89 273.107C1828.89 257.063 1830.68 284.653 1840.42 268.961" stroke="#EEEEEE" stroke-width="2" stroke-linecap="round" stroke-linejoin="round"/>
      <path fill-rule="evenodd" clip-rule="evenodd" d="M1513.32 333.997C1515.58 333.997 1517.41 332.05 1517.41 329.648C1517.41 327.246 1515.58 325.299 1513.32 325.299C1511.07 325.299 1509.24 327.246 1509.24 329.648C1509.24 332.05 1511.07 333.997 1513.32 333.997Z" stroke="#EEEEEE" stroke-width="2"/>
      <path d="M1373.49 293.117L1380.67 298.497L1375.55 306.035L1382.83 312.08L1377.71 319.607L1384.94 325.299" stroke="#EEEEEE" stroke-width="2" stroke-linecap="round" stroke-linejoin="round"/>
      <path d="M1313.79 369.058C1313.79 369.058 1335.52 366.791 1339.96 383.575" stroke="#EEEEEE" stroke-width="2" stroke-linecap="round" stroke-linejoin="round"/>
      <path d="M1320.34 273.107C1324.34 257.063 1326.13 284.653 1335.87 268.961" stroke="#EEEEEE" stroke-width="2" stroke-linecap="round" stroke-linejoin="round"/>
      <path d="M1828.98 110.464L1833.56 106.114L1837.41 111.312L1842.43 107.005L1846.26 112.202L1851.05 107.874" stroke="#EEEEEE" stroke-width="2" stroke-linecap="round" stroke-linejoin="round"/>
      <path fill-rule="evenodd" clip-rule="evenodd" d="M1893.17 73.9317C1897.01 73.9317 1900.12 70.6216 1900.12 66.5385C1900.12 62.4554 1897.01 59.1453 1893.17 59.1453C1889.33 59.1453 1886.22 62.4554 1886.22 66.5385C1886.22 70.6216 1889.33 73.9317 1893.17 73.9317Z" stroke="#EEEEEE" stroke-width="2"/>
      <path fill-rule="evenodd" clip-rule="evenodd" d="M1899.71 68.713C1905.36 68.713 1909.93 63.8453 1909.93 57.8407C1909.93 51.8361 1905.36 46.9684 1899.71 46.9684C1894.07 46.9684 1889.49 51.8361 1889.49 57.8407C1889.49 63.8453 1894.07 68.713 1899.71 68.713Z" stroke="#EEEEEE" stroke-width="2"/>
      <path fill-rule="evenodd" clip-rule="evenodd" d="M1853.95 8.69785C1849.19 11.2874 1847.24 17.6197 1849.61 22.8388C1851.97 28.059 1857.74 30.1909 1862.5 27.6014L1853.95 8.69785Z" stroke="#EEEEEE" stroke-width="2" stroke-linecap="round" stroke-linejoin="round"/>
      <path fill-rule="evenodd" clip-rule="evenodd" d="M1889.84 386.693C1892.59 383.843 1892.65 379.162 1889.97 376.238C1887.29 373.316 1882.89 373.256 1880.14 376.108C1877.39 378.958 1877.33 383.639 1880.02 386.563C1882.7 389.485 1887.1 389.544 1889.84 386.693Z" stroke="#EEEEEE" stroke-width="2"/>
      <path fill-rule="evenodd" clip-rule="evenodd" d="M1910.05 186.248C1893.88 196.176 1888.03 178.477 1897.66 175.313L1910.05 186.248Z" stroke="#EEEEEE" stroke-width="2" stroke-linecap="round" stroke-linejoin="round"/>
      <path fill-rule="evenodd" clip-rule="evenodd" d="M1823.25 205.682C1823.58 211.08 1827.86 215.169 1832.83 214.815C1837.79 214.462 1841.55 209.799 1841.22 204.399L1823.25 205.682Z" stroke="#EEEEEE" stroke-width="2" stroke-linecap="round" stroke-linejoin="round"/>
      <path d="M1558.3 18.2655L1559.81 12.3964L1565.46 13.9677L1567.33 7.87767L1572.97 9.45379L1574.66 3.47914" stroke="#EEEEEE" stroke-width="2" stroke-linecap="round" stroke-linejoin="round"/>
      <path fill-rule="evenodd" clip-rule="evenodd" d="M1904.09 238.494L1909.36 238.157L1911.72 242.508L1908.81 247.196L1903.54 247.533L1901.18 243.181L1904.09 238.494Z" stroke="#EEEEEE" stroke-width="2"/>
      <path fill-rule="evenodd" clip-rule="evenodd" d="M1805.26 382.705C1809.78 382.705 1813.44 378.811 1813.44 374.007C1813.44 369.204 1809.78 365.309 1805.26 365.309C1800.74 365.309 1797.08 369.204 1797.08 374.007C1797.08 378.811 1800.74 382.705 1805.26 382.705Z" stroke="#EEEEEE" stroke-width="2"/>
      <path fill-rule="evenodd" clip-rule="evenodd" d="M1672.32 237.09C1675.07 234.24 1675.13 229.559 1672.45 226.635C1669.77 223.713 1665.37 223.653 1662.62 226.505C1659.87 229.355 1659.81 234.036 1662.49 236.96C1665.18 239.882 1669.58 239.941 1672.32 237.09Z" stroke="#EEEEEE" stroke-width="2"/>
      <path fill-rule="evenodd" clip-rule="evenodd" d="M990.866 156.44C986.105 159.03 984.16 165.362 986.523 170.581C988.885 175.801 994.659 177.933 999.42 175.344L990.866 156.44Z" stroke="#EEEEEE" stroke-width="2" stroke-linecap="round" stroke-linejoin="round"/>
      <path d="M1100 18.1445L1107.19 23.5242L1102.06 31.0627L1109.35 37.1073L1104.22 44.6342L1111.45 50.3265" stroke="#EEEEEE" stroke-width="2" stroke-linecap="round" stroke-linejoin="round"/>
      <path fill-rule="evenodd" clip-rule="evenodd" d="M761.454 122.932C761.781 128.329 766.067 132.419 771.029 132.065C775.991 131.711 779.75 127.048 779.425 121.649L761.454 122.932Z" stroke="#EEEEEE" stroke-width="2" stroke-linecap="round" stroke-linejoin="round"/>
      <path d="M710.373 220.804L709.119 212.599L717.338 211.345L716.442 202.652L724.656 201.408L723.571 192.971" stroke="#EEEEEE" stroke-width="2" stroke-linecap="round" stroke-linejoin="round"/>
      <path fill-rule="evenodd" clip-rule="evenodd" d="M826.412 236.099C829.16 233.25 829.216 228.568 826.535 225.644C823.856 222.722 819.455 222.663 816.706 225.514C813.958 228.364 813.902 233.045 816.583 235.969C819.264 238.891 823.665 238.951 826.412 236.099Z" stroke="#EEEEEE" stroke-width="2"/>
      <path d="M857.949 167.749L862.538 163.399L866.379 168.597L871.402 164.29L875.235 169.487L880.028 165.159" stroke="#EEEEEE" stroke-width="2" stroke-linecap="round" stroke-linejoin="round"/>
      <path fill-rule="evenodd" clip-rule="evenodd" d="M1081.19 223.414L1093.13 217.668L1095.1 201.669L1083.16 207.415L1081.19 223.414Z" stroke="#EEEEEE" stroke-width="2" stroke-linejoin="round"/>
      <path fill-rule="evenodd" clip-rule="evenodd" d="M854.465 60.7639L839.958 63.5994L842.622 79.0294L857.131 76.194L854.465 60.7639Z" stroke="#EEEEEE" stroke-width="2" stroke-linejoin="round"/>
      <path d="M702.576 197.32L704.087 191.451L709.731 193.022L711.609 186.932L717.247 188.508L718.931 182.534" stroke="#EEEEEE" stroke-width="2" stroke-linecap="round" stroke-linejoin="round"/>
      <path fill-rule="evenodd" clip-rule="evenodd" d="M963.847 28.5819L971.616 33.1483V42.281L963.847 46.8474L956.079 42.281V33.1483L963.847 28.5819Z" stroke="#EEEEEE" stroke-width="2" stroke-linecap="round" stroke-linejoin="round"/>
      <path fill-rule="evenodd" clip-rule="evenodd" d="M659.929 145.392L667.685 145.326L671.509 152.371L667.577 159.482L659.821 159.548L655.997 152.504L659.929 145.392Z" stroke="#EEEEEE" stroke-width="2" stroke-linecap="round" stroke-linejoin="round"/>
      <path fill-rule="evenodd" clip-rule="evenodd" d="M920.507 131.216C924.346 131.216 927.458 127.906 927.458 123.823C927.458 119.74 924.346 116.43 920.507 116.43C916.668 116.43 913.556 119.74 913.556 123.823C913.556 127.906 916.668 131.216 920.507 131.216Z" stroke="#EEEEEE" stroke-width="2"/>
      <path fill-rule="evenodd" clip-rule="evenodd" d="M927.048 125.998C932.694 125.998 937.27 121.13 937.27 115.125C937.27 109.121 932.694 104.253 927.048 104.253C921.403 104.253 916.826 109.121 916.826 115.125C916.826 121.13 921.403 125.998 927.048 125.998Z" stroke="#EEEEEE" stroke-width="2"/>
      <path d="M1005.14 88.8669C1005.14 88.8669 1026.87 86.5997 1031.31 103.383" stroke="#EEEEEE" stroke-width="2" stroke-linecap="round" stroke-linejoin="round"/>
      <path fill-rule="evenodd" clip-rule="evenodd" d="M793.882 38.1181C782.651 27.9316 779.788 17.7899 785.292 7.69313L793.882 38.1181Z" stroke="#EEEEEE" stroke-width="2" stroke-linecap="round" stroke-linejoin="round"/>
      <path fill-rule="evenodd" clip-rule="evenodd" d="M940.168 222C953.368 236.04 938.809 246.628 933.444 237.556L940.168 222Z" stroke="#EEEEEE" stroke-width="2" stroke-linecap="round" stroke-linejoin="round"/>
      <path fill-rule="evenodd" clip-rule="evenodd" d="M665.323 21.4313C649.156 31.3593 643.309 13.6605 652.936 10.4969L665.323 21.4313Z" stroke="#EEEEEE" stroke-width="2" stroke-linecap="round" stroke-linejoin="round"/>
      <path fill-rule="evenodd" clip-rule="evenodd" d="M1110.63 166.878C1113.34 166.878 1115.54 164.541 1115.54 161.659C1115.54 158.777 1113.34 156.44 1110.63 156.44C1107.92 156.44 1105.73 158.777 1105.73 161.659C1105.73 164.541 1107.92 166.878 1110.63 166.878Z" stroke="#EEEEEE" stroke-width="2"/>
      <path fill-rule="evenodd" clip-rule="evenodd" d="M722.203 74.6805C726.719 74.6805 730.38 70.7864 730.38 65.9827C730.38 61.179 726.719 57.2848 722.203 57.2848C717.686 57.2848 714.025 61.179 714.025 65.9827C714.025 70.7864 717.686 74.6805 722.203 74.6805Z" stroke="#EEEEEE" stroke-width="2"/>
      <path d="M1041.12 5.9627C1045.12 -10.0818 1046.92 17.5084 1056.66 1.81668" stroke="#EEEEEE" stroke-width="2" stroke-linecap="round" stroke-linejoin="round"/>
      <path fill-rule="evenodd" clip-rule="evenodd" d="M731.198 65.9827C733.456 65.9827 735.287 64.0356 735.287 61.6337C735.287 59.2319 733.456 57.2848 731.198 57.2848C728.94 57.2848 727.109 59.2319 727.109 61.6337C727.109 64.0356 728.94 65.9827 731.198 65.9827Z" stroke="#EEEEEE" stroke-width="2"/>
      <path d="M1221.85 293.866L1229.03 299.246L1223.9 306.784L1231.19 312.829L1226.06 320.356L1233.3 326.048" stroke="#EEEEEE" stroke-width="2" stroke-linecap="round" stroke-linejoin="round"/>
      <path fill-rule="evenodd" clip-rule="evenodd" d="M1010.66 281.689L996.148 284.525L998.812 299.955L1013.32 297.119L1010.66 281.689Z" stroke="#EEEEEE" stroke-width="2" stroke-linejoin="round"/>
      <path fill-rule="evenodd" clip-rule="evenodd" d="M1091.42 297.345L1099.18 301.912V311.044L1091.42 315.611L1083.65 311.044V301.912L1091.42 297.345Z" stroke="#EEEEEE" stroke-width="2" stroke-linecap="round" stroke-linejoin="round"/>
      <path fill-rule="evenodd" clip-rule="evenodd" d="M1104.86 91.3204L1112.62 91.254L1116.44 98.2989L1112.51 105.41L1104.76 105.477L1100.93 98.4317L1104.86 91.3204Z" stroke="#EEEEEE" stroke-width="2" stroke-linecap="round" stroke-linejoin="round"/>
      <path fill-rule="evenodd" clip-rule="evenodd" d="M1032.54 382.584C1036.38 382.584 1039.49 379.274 1039.49 375.191C1039.49 371.108 1036.38 367.798 1032.54 367.798C1028.7 367.798 1025.59 371.108 1025.59 375.191C1025.59 379.274 1028.7 382.584 1032.54 382.584Z" stroke="#EEEEEE" stroke-width="2"/>
      <path fill-rule="evenodd" clip-rule="evenodd" d="M1039.08 377.365C1044.73 377.365 1049.3 372.498 1049.3 366.493C1049.3 360.489 1044.73 355.621 1039.08 355.621C1033.43 355.621 1028.86 360.489 1028.86 366.493C1028.86 372.498 1033.43 377.365 1039.08 377.365Z" stroke="#EEEEEE" stroke-width="2"/>
      <path fill-rule="evenodd" clip-rule="evenodd" d="M921.199 306.085C909.969 295.898 907.106 285.757 912.61 275.66L921.199 306.085Z" stroke="#EEEEEE" stroke-width="2" stroke-linecap="round" stroke-linejoin="round"/>
      <path fill-rule="evenodd" clip-rule="evenodd" d="M793.09 289.398C776.923 299.326 771.076 281.627 780.703 278.464L793.09 289.398Z" stroke="#EEEEEE" stroke-width="2" stroke-linecap="round" stroke-linejoin="round"/>
      <path fill-rule="evenodd" clip-rule="evenodd" d="M849.771 343.444C854.288 343.444 857.949 339.55 857.949 334.746C857.949 329.942 854.288 326.048 849.771 326.048C845.255 326.048 841.594 329.942 841.594 334.746C841.594 339.55 845.255 343.444 849.771 343.444Z" stroke="#EEEEEE" stroke-width="2"/>
      <path d="M1169.51 273.856C1173.51 257.812 1175.3 285.402 1185.05 269.71" stroke="#EEEEEE" stroke-width="2" stroke-linecap="round" stroke-linejoin="round"/>
      <path fill-rule="evenodd" clip-rule="evenodd" d="M857.949 334.746C860.207 334.746 862.037 332.799 862.037 330.397C862.037 327.995 860.207 326.048 857.949 326.048C855.69 326.048 853.86 327.995 853.86 330.397C853.86 332.799 855.69 334.746 857.949 334.746Z" stroke="#EEEEEE" stroke-width="2"/>
      <path d="M718.114 293.866L725.297 299.246L720.17 306.784L727.459 312.829L722.33 320.356L729.562 326.048" stroke="#EEEEEE" stroke-width="2" stroke-linecap="round" stroke-linejoin="round"/>
      <path d="M658.418 369.807C658.418 369.807 680.142 367.54 684.586 384.324" stroke="#EEEEEE" stroke-width="2" stroke-linecap="round" stroke-linejoin="round"/>
      <path d="M664.96 273.856C668.961 257.812 670.753 285.402 680.498 269.71" stroke="#EEEEEE" stroke-width="2" stroke-linecap="round" stroke-linejoin="round"/>
      <path d="M1173.6 111.213L1178.19 106.863L1182.03 112.061L1187.05 107.754L1190.89 112.951L1195.68 108.623" stroke="#EEEEEE" stroke-width="2" stroke-linecap="round" stroke-linejoin="round"/>
      <path fill-rule="evenodd" clip-rule="evenodd" d="M1237.79 74.6805C1241.63 74.6805 1244.74 71.3705 1244.74 67.2873C1244.74 63.2042 1241.63 59.8942 1237.79 59.8942C1233.95 59.8942 1230.84 63.2042 1230.84 67.2873C1230.84 71.3705 1233.95 74.6805 1237.79 74.6805Z" stroke="#EEEEEE" stroke-width="2"/>
      <path fill-rule="evenodd" clip-rule="evenodd" d="M1244.33 69.4618C1249.98 69.4618 1254.56 64.5941 1254.56 58.5895C1254.56 52.5849 1249.98 47.7172 1244.33 47.7172C1238.69 47.7172 1234.11 52.5849 1234.11 58.5895C1234.11 64.5941 1238.69 69.4618 1244.33 69.4618Z" stroke="#EEEEEE" stroke-width="2"/>
      <path fill-rule="evenodd" clip-rule="evenodd" d="M1198.57 9.44667C1193.81 12.0362 1191.87 18.3685 1194.23 23.5876C1196.59 28.8079 1202.37 30.9397 1207.13 28.3502L1198.57 9.44667Z" stroke="#EEEEEE" stroke-width="2" stroke-linecap="round" stroke-linejoin="round"/>
      <path fill-rule="evenodd" clip-rule="evenodd" d="M1234.47 387.442C1237.22 384.592 1237.27 379.911 1234.59 376.987C1231.91 374.065 1227.51 374.005 1224.76 376.857C1222.01 379.707 1221.96 384.388 1224.64 387.312C1227.32 390.234 1231.72 390.293 1234.47 387.442Z" stroke="#EEEEEE" stroke-width="2"/>
      <path fill-rule="evenodd" clip-rule="evenodd" d="M1254.67 186.996C1238.5 196.924 1232.66 179.226 1242.28 176.062L1254.67 186.996Z" stroke="#EEEEEE" stroke-width="2" stroke-linecap="round" stroke-linejoin="round"/>
      <path fill-rule="evenodd" clip-rule="evenodd" d="M1167.88 206.431C1168.2 211.829 1172.49 215.918 1177.45 215.564C1182.41 215.211 1186.17 210.548 1185.85 205.148L1167.88 206.431Z" stroke="#EEEEEE" stroke-width="2" stroke-linecap="round" stroke-linejoin="round"/>
      <path d="M902.925 19.0143L904.436 13.1453L910.08 14.7165L911.958 8.62649L917.596 10.2026L919.28 4.22797" stroke="#EEEEEE" stroke-width="2" stroke-linecap="round" stroke-linejoin="round"/>
      <path fill-rule="evenodd" clip-rule="evenodd" d="M1248.72 239.242L1253.99 238.906L1256.35 243.257L1253.44 247.945L1248.17 248.281L1245.81 243.93L1248.72 239.242Z" stroke="#EEEEEE" stroke-width="2"/>
      <path fill-rule="evenodd" clip-rule="evenodd" d="M1149.88 383.454C1154.4 383.454 1158.06 379.56 1158.06 374.756C1158.06 369.952 1154.4 366.058 1149.88 366.058C1145.37 366.058 1141.71 369.952 1141.71 374.756C1141.71 379.56 1145.37 383.454 1149.88 383.454Z" stroke="#EEEEEE" stroke-width="2"/>
      <path fill-rule="evenodd" clip-rule="evenodd" d="M1016.95 237.839C1019.7 234.989 1019.75 230.308 1017.07 227.384C1014.39 224.462 1009.99 224.402 1007.24 227.254C1004.49 230.104 1004.44 234.785 1007.12 237.709C1009.8 240.631 1014.2 240.69 1016.95 237.839Z" stroke="#EEEEEE" stroke-width="2"/>
      <path fill-rule="evenodd" clip-rule="evenodd" d="M342.591 156.44C337.83 159.03 335.885 165.362 338.247 170.581C340.61 175.801 346.383 177.933 351.144 175.344L342.591 156.44Z" stroke="#EEEEEE" stroke-width="2" stroke-linecap="round" stroke-linejoin="round"/>
      <path d="M451.727 18.1445L458.911 23.5242L453.783 31.0627L461.072 37.1073L455.943 44.6342L463.176 50.3265" stroke="#EEEEEE" stroke-width="2" stroke-linecap="round" stroke-linejoin="round"/>
      <path fill-rule="evenodd" clip-rule="evenodd" d="M113.179 122.932C113.506 128.329 117.792 132.419 122.754 132.065C127.716 131.711 131.475 127.048 131.15 121.649L113.179 122.932Z" stroke="#EEEEEE" stroke-width="2" stroke-linecap="round" stroke-linejoin="round"/>
      <path d="M62.0979 220.804L60.8435 212.599L69.0628 211.345L68.1663 202.652L76.3807 201.408L75.2956 192.971" stroke="#EEEEEE" stroke-width="2" stroke-linecap="round" stroke-linejoin="round"/>
      <path fill-rule="evenodd" clip-rule="evenodd" d="M178.137 236.099C180.885 233.25 180.941 228.568 178.26 225.644C175.58 222.722 171.179 222.663 168.43 225.514C165.683 228.364 165.627 233.045 168.308 235.969C170.989 238.891 175.39 238.951 178.137 236.099Z" stroke="#EEEEEE" stroke-width="2"/>
      <path d="M209.674 167.749L214.263 163.399L218.104 168.597L223.127 164.29L226.96 169.487L231.753 165.159" stroke="#EEEEEE" stroke-width="2" stroke-linecap="round" stroke-linejoin="round"/>
      <path fill-rule="evenodd" clip-rule="evenodd" d="M432.919 223.414L444.859 217.668L446.821 201.669L434.881 207.415L432.919 223.414Z" stroke="#EEEEEE" stroke-width="2" stroke-linejoin="round"/>
      <path fill-rule="evenodd" clip-rule="evenodd" d="M206.19 60.7639L191.683 63.5994L194.347 79.0294L208.856 76.194L206.19 60.7639Z" stroke="#EEEEEE" stroke-width="2" stroke-linejoin="round"/>
      <path d="M54.3014 197.32L55.8121 191.451L61.4564 193.022L63.3342 186.932L68.9723 188.508L70.6564 182.534" stroke="#EEEEEE" stroke-width="2" stroke-linecap="round" stroke-linejoin="round"/>
      <path fill-rule="evenodd" clip-rule="evenodd" d="M315.572 28.5819L323.341 33.1483V42.281L315.572 46.8474L307.803 42.281V33.1483L315.572 28.5819Z" stroke="#EEEEEE" stroke-width="2" stroke-linecap="round" stroke-linejoin="round"/>
      <path fill-rule="evenodd" clip-rule="evenodd" d="M11.6535 145.392L19.4097 145.326L23.2337 152.371L19.3016 159.482L11.5454 159.548L7.72137 152.504L11.6535 145.392Z" stroke="#EEEEEE" stroke-width="2" stroke-linecap="round" stroke-linejoin="round"/>
      <path fill-rule="evenodd" clip-rule="evenodd" d="M272.231 131.216C276.07 131.216 279.182 127.906 279.182 123.823C279.182 119.74 276.07 116.43 272.231 116.43C268.392 116.43 265.28 119.74 265.28 123.823C265.28 127.906 268.392 131.216 272.231 131.216Z" stroke="#EEEEEE" stroke-width="2"/>
      <path fill-rule="evenodd" clip-rule="evenodd" d="M278.773 125.998C284.419 125.998 288.995 121.13 288.995 115.125C288.995 109.121 284.419 104.253 278.773 104.253C273.128 104.253 268.551 109.121 268.551 115.125C268.551 121.13 273.128 125.998 278.773 125.998Z" stroke="#EEEEEE" stroke-width="2"/>
      <path d="M356.868 88.8669C356.868 88.8669 378.592 86.5997 383.036 103.383" stroke="#EEEEEE" stroke-width="2" stroke-linecap="round" stroke-linejoin="round"/>
      <path fill-rule="evenodd" clip-rule="evenodd" d="M145.606 38.1181C134.376 27.9316 131.513 17.7899 137.017 7.69313L145.606 38.1181Z" stroke="#EEEEEE" stroke-width="2" stroke-linecap="round" stroke-linejoin="round"/>
      <path fill-rule="evenodd" clip-rule="evenodd" d="M291.893 222C305.093 236.04 290.534 246.628 285.169 237.556L291.893 222Z" stroke="#EEEEEE" stroke-width="2" stroke-linecap="round" stroke-linejoin="round"/>
      <path fill-rule="evenodd" clip-rule="evenodd" d="M17.0479 21.4313C0.880817 31.3593 -4.96634 13.6605 4.6604 10.4969L17.0479 21.4313Z" stroke="#EEEEEE" stroke-width="2" stroke-linecap="round" stroke-linejoin="round"/>
      <path fill-rule="evenodd" clip-rule="evenodd" d="M462.358 166.878C465.068 166.878 467.264 164.541 467.264 161.659C467.264 158.777 465.068 156.44 462.358 156.44C459.648 156.44 457.451 158.777 457.451 161.659C457.451 164.541 459.648 166.878 462.358 166.878Z" stroke="#EEEEEE" stroke-width="2"/>
      <path fill-rule="evenodd" clip-rule="evenodd" d="M73.9275 74.6805C78.4438 74.6805 82.105 70.7864 82.105 65.9827C82.105 61.179 78.4438 57.2848 73.9275 57.2848C69.4112 57.2848 65.75 61.179 65.75 65.9827C65.75 70.7864 69.4112 74.6805 73.9275 74.6805Z" stroke="#EEEEEE" stroke-width="2"/>
      <path d="M392.849 5.9627C396.849 -10.0818 398.642 17.5084 408.386 1.81668" stroke="#EEEEEE" stroke-width="2" stroke-linecap="round" stroke-linejoin="round"/>
      <path fill-rule="evenodd" clip-rule="evenodd" d="M82.9226 65.9827C85.1808 65.9827 87.0113 64.0356 87.0113 61.6337C87.0113 59.2319 85.1808 57.2848 82.9226 57.2848C80.6645 57.2848 78.8339 59.2319 78.8339 61.6337C78.8339 64.0356 80.6645 65.9827 82.9226 65.9827Z" stroke="#EEEEEE" stroke-width="2"/>
      <path d="M573.572 293.866L580.755 299.246L575.628 306.784L582.917 312.829L577.788 320.356L585.02 326.048" stroke="#EEEEEE" stroke-width="2" stroke-linecap="round" stroke-linejoin="round"/>
      <path fill-rule="evenodd" clip-rule="evenodd" d="M362.38 281.689L347.873 284.525L350.537 299.955L365.046 297.119L362.38 281.689Z" stroke="#EEEEEE" stroke-width="2" stroke-linejoin="round"/>
      <path fill-rule="evenodd" clip-rule="evenodd" d="M443.141 297.345L450.909 301.912V311.044L443.141 315.611L435.372 311.044V301.912L443.141 297.345Z" stroke="#EEEEEE" stroke-width="2" stroke-linecap="round" stroke-linejoin="round"/>
      <path fill-rule="evenodd" clip-rule="evenodd" d="M456.589 91.3204L464.345 91.254L468.169 98.2989L464.237 105.41L456.481 105.477L452.657 98.4317L456.589 91.3204Z" stroke="#EEEEEE" stroke-width="2" stroke-linecap="round" stroke-linejoin="round"/>
      <path fill-rule="evenodd" clip-rule="evenodd" d="M384.263 382.584C388.102 382.584 391.214 379.274 391.214 375.191C391.214 371.108 388.102 367.798 384.263 367.798C380.424 367.798 377.312 371.108 377.312 375.191C377.312 379.274 380.424 382.584 384.263 382.584Z" stroke="#EEEEEE" stroke-width="2"/>
      <path fill-rule="evenodd" clip-rule="evenodd" d="M390.805 377.365C396.45 377.365 401.027 372.498 401.027 366.493C401.027 360.489 396.45 355.621 390.805 355.621C385.159 355.621 380.583 360.489 380.583 366.493C380.583 372.498 385.159 377.365 390.805 377.365Z" stroke="#EEEEEE" stroke-width="2"/>
      <path fill-rule="evenodd" clip-rule="evenodd" d="M272.924 306.085C261.693 295.898 258.83 285.757 264.334 275.66L272.924 306.085Z" stroke="#EEEEEE" stroke-width="2" stroke-linecap="round" stroke-linejoin="round"/>
      <path fill-rule="evenodd" clip-rule="evenodd" d="M144.815 289.398C128.648 299.326 122.801 281.627 132.427 278.464L144.815 289.398Z" stroke="#EEEEEE" stroke-width="2" stroke-linecap="round" stroke-linejoin="round"/>
      <path fill-rule="evenodd" clip-rule="evenodd" d="M201.496 343.444C206.012 343.444 209.674 339.55 209.674 334.746C209.674 329.942 206.012 326.048 201.496 326.048C196.98 326.048 193.319 329.942 193.319 334.746C193.319 339.55 196.98 343.444 201.496 343.444Z" stroke="#EEEEEE" stroke-width="2"/>
      <path d="M521.236 273.856C525.236 257.812 527.028 285.402 536.773 269.71" stroke="#EEEEEE" stroke-width="2" stroke-linecap="round" stroke-linejoin="round"/>
      <path fill-rule="evenodd" clip-rule="evenodd" d="M209.674 334.746C211.932 334.746 213.762 332.799 213.762 330.397C213.762 327.995 211.932 326.048 209.674 326.048C207.415 326.048 205.585 327.995 205.585 330.397C205.585 332.799 207.415 334.746 209.674 334.746Z" stroke="#EEEEEE" stroke-width="2"/>
      <path d="M69.8386 293.866L77.0221 299.246L71.8947 306.784L79.1838 312.829L74.0547 320.356L81.2871 326.048" stroke="#EEEEEE" stroke-width="2" stroke-linecap="round" stroke-linejoin="round"/>
      <path d="M10.143 369.807C10.143 369.807 31.8671 367.54 36.311 384.324" stroke="#EEEEEE" stroke-width="2" stroke-linecap="round" stroke-linejoin="round"/>
      <path d="M16.685 273.856C20.6851 257.812 22.4774 285.402 32.2222 269.71" stroke="#EEEEEE" stroke-width="2" stroke-linecap="round" stroke-linejoin="round"/>
      <path d="M525.324 111.213L529.914 106.863L533.755 112.061L538.778 107.754L542.611 112.951L547.404 108.623" stroke="#EEEEEE" stroke-width="2" stroke-linecap="round" stroke-linejoin="round"/>
      <path fill-rule="evenodd" clip-rule="evenodd" d="M589.518 74.6805C593.357 74.6805 596.469 71.3705 596.469 67.2873C596.469 63.2042 593.357 59.8942 589.518 59.8942C585.679 59.8942 582.567 63.2042 582.567 67.2873C582.567 71.3705 585.679 74.6805 589.518 74.6805Z" stroke="#EEEEEE" stroke-width="2"/>
      <path fill-rule="evenodd" clip-rule="evenodd" d="M596.06 69.4618C601.705 69.4618 606.282 64.5941 606.282 58.5895C606.282 52.5849 601.705 47.7172 596.06 47.7172C590.414 47.7172 585.838 52.5849 585.838 58.5895C585.838 64.5941 590.414 69.4618 596.06 69.4618Z" stroke="#EEEEEE" stroke-width="2"/>
      <path fill-rule="evenodd" clip-rule="evenodd" d="M550.299 9.44667C545.538 12.0362 543.593 18.3685 545.955 23.5876C548.318 28.8079 554.092 30.9397 558.852 28.3502L550.299 9.44667Z" stroke="#EEEEEE" stroke-width="2" stroke-linecap="round" stroke-linejoin="round"/>
      <path fill-rule="evenodd" clip-rule="evenodd" d="M586.194 387.442C588.941 384.592 588.997 379.911 586.316 376.987C583.637 374.065 579.236 374.005 576.487 376.857C573.739 379.707 573.684 384.388 576.364 387.312C579.045 390.234 583.446 390.293 586.194 387.442Z" stroke="#EEEEEE" stroke-width="2"/>
      <path fill-rule="evenodd" clip-rule="evenodd" d="M606.396 186.996C590.229 196.924 584.382 179.226 594.009 176.062L606.396 186.996Z" stroke="#EEEEEE" stroke-width="2" stroke-linecap="round" stroke-linejoin="round"/>
      <path fill-rule="evenodd" clip-rule="evenodd" d="M519.6 206.431C519.927 211.829 524.213 215.918 529.175 215.564C534.137 215.211 537.896 210.548 537.571 205.148L519.6 206.431Z" stroke="#EEEEEE" stroke-width="2" stroke-linecap="round" stroke-linejoin="round"/>
      <path d="M254.65 19.0143L256.16 13.1453L261.805 14.7165L263.683 8.62649L269.321 10.2026L271.005 4.22797" stroke="#EEEEEE" stroke-width="2" stroke-linecap="round" stroke-linejoin="round"/>
      <path fill-rule="evenodd" clip-rule="evenodd" d="M600.44 239.242L605.712 238.906L608.074 243.257L605.164 247.945L599.892 248.281L597.53 243.93L600.44 239.242Z" stroke="#EEEEEE" stroke-width="2"/>
      <path fill-rule="evenodd" clip-rule="evenodd" d="M501.61 383.454C506.126 383.454 509.787 379.56 509.787 374.756C509.787 369.952 506.126 366.058 501.61 366.058C497.093 366.058 493.432 369.952 493.432 374.756C493.432 379.56 497.093 383.454 501.61 383.454Z" stroke="#EEEEEE" stroke-width="2"/>
      <path fill-rule="evenodd" clip-rule="evenodd" d="M368.673 237.839C371.42 234.989 371.476 230.308 368.795 227.384C366.116 224.462 361.715 224.402 358.966 227.254C356.218 230.104 356.162 234.785 358.843 237.709C361.524 240.631 365.925 240.69 368.673 237.839Z" stroke="#EEEEEE" stroke-width="2"/>
    </g>
  </g>
  <defs>
    <radialGradient id="paint1_radial" cx="0" cy="0" r="1" gradientUnits="userSpaceOnUse" gradientTransform="translate(1280 347.077) rotate(-91.7855) scale(347.245 4178.76)">
      <stop stop-color="#8A00DF"/>
      <stop offset="1" stop-color="#2E0044"/>
    </radialGradient>
  </defs>
</svg>
