<?xml version="1.0" standalone="no"?><!DOCTYPE svg PUBLIC "-//W3C//DTD SVG 1.1//EN" "http://www.w3.org/Graphics/SVG/1.1/DTD/svg11.dtd"><svg width="100%" height="100%" viewBox="0 0 223 223" version="1.1" xmlns="http://www.w3.org/2000/svg" xmlns:xlink="http://www.w3.org/1999/xlink" xml:space="preserve" style="fill-rule:evenodd;clip-rule:evenodd;stroke-linejoin:round;stroke-miterlimit:1.41421;"><g><circle cx="111.269" cy="111.269" r="111.269" style="fill:#fff;"/><g><circle cx="111.269" cy="111.269" r="85.781" style="fill:#c2d7ef;fill-opacity:0.3;"/><path d="M170.649,46.491c0,-2.209 -1.791,-4 -4,-4c-18.104,0 -92.271,0 -110.375,0c-2.209,0 -4,1.791 -4,4c0,19.563 0,105.016 0,124.579c0,2.21 1.791,4 4,4c18.104,0 92.271,0 110.375,0c2.209,0 4,-1.79 4,-4c0,-19.563 0,-105.016 0,-124.579Z" style="fill:none;stroke-width:5px;stroke:#7faff5;"/><path d="M170.649,46.491c0,-1.061 -0.422,-2.078 -1.172,-2.828c-0.75,-0.75 -1.767,-1.172 -2.828,-1.172c-18.104,0 -92.271,0 -110.375,0c-1.061,0 -2.078,0.422 -2.828,1.172c-0.75,0.75 -1.172,1.767 -1.172,2.828c0,17.342 0,85.93 0,103.272c0,1.061 0.422,2.078 1.172,2.829c0.75,0.75 1.767,1.171 2.828,1.171c18.104,0 92.271,0 110.375,0c1.061,0 2.078,-0.421 2.828,-1.171c0.75,-0.751 1.172,-1.768 1.172,-2.829c0,-17.342 0,-85.93 0,-103.272Z" style="fill:none;stroke-width:5px;stroke:#7faff5;"/><path d="M51.889,167.968l118.375,0" style="fill:none;stroke-width:5px;stroke:#7faff5;"/><path d="M93.183,160.866l-33.267,0l0,19.181c10.797,-7.927 21.864,-8.538 33.267,0l0,-19.181Z" style="fill:#fff;stroke-width:5px;stroke:#7190b7;"/><path d="M51.889,160.866l118.375,0" style="fill:none;stroke-width:5px;stroke:#7faff5;"/><path d="M79.641,58.731c0,-1.061 -0.422,-2.078 -1.172,-2.828c-0.75,-0.751 -1.767,-1.172 -2.828,-1.172c-2.275,0 -5.114,0 -7.389,0c-1.061,0 -2.078,0.421 -2.828,1.172c-0.75,0.75 -1.172,1.767 -1.172,2.828c0,2.275 0,5.114 0,7.389c0,1.061 0.422,2.078 1.172,2.828c0.75,0.75 1.767,1.172 2.828,1.172c2.275,0 5.114,0 7.389,0c1.061,0 2.078,-0.422 2.828,-1.172c0.75,-0.75 1.172,-1.767 1.172,-2.828c0,-2.275 0,-5.114 0,-7.389Z" style="fill:#fff;stroke-width:5px;stroke:#7faff5;"/><path d="M79.641,85.957c0,-1.061 -0.422,-2.078 -1.172,-2.828c-0.75,-0.75 -1.767,-1.172 -2.828,-1.172c-2.275,0 -5.114,0 -7.389,0c-1.061,0 -2.078,0.422 -2.828,1.172c-0.75,0.75 -1.172,1.767 -1.172,2.828c0,2.275 0,5.114 0,7.389c0,1.061 0.422,2.078 1.172,2.828c0.75,0.75 1.767,1.172 2.828,1.172c2.275,0 5.114,0 7.389,0c1.061,0 2.078,-0.422 2.828,-1.172c0.75,-0.75 1.172,-1.767 1.172,-2.828c0,-2.275 0,-5.114 0,-7.389Z" style="fill:#fff;stroke-width:5px;stroke:#7faff5;"/><path d="M79.641,113.183c0,-1.061 -0.422,-2.078 -1.172,-2.828c-0.75,-0.75 -1.767,-1.172 -2.828,-1.172c-2.275,0 -5.114,0 -7.389,0c-1.061,0 -2.078,0.422 -2.828,1.172c-0.75,0.75 -1.172,1.767 -1.172,2.828c0,2.275 0,5.114 0,7.389c0,1.061 0.422,2.078 1.172,2.828c0.75,0.751 1.767,1.172 2.828,1.172c2.275,0 5.114,0 7.389,0c1.061,0 2.078,-0.421 2.828,-1.172c0.75,-0.75 1.172,-1.767 1.172,-2.828c0,-2.275 0,-5.114 0,-7.389Z" style="fill:#fff;stroke-width:5px;stroke:#7faff5;"/><path d="M149.143,200.181c1.656,-0.707 3.574,0.059 4.288,1.713c0.134,0.309 0.221,0.512 0.221,0.512c0.066,0.166 0.087,0.207 0.137,0.379c0.075,0.258 0.119,0.525 0.129,0.794c0.02,0.537 -0.094,1.078 -0.331,1.561c-0.206,0.423 -0.505,0.799 -0.87,1.097c-0.156,0.127 -0.324,0.24 -0.5,0.337c-0.158,0.086 -0.201,0.1 -0.365,0.171c-0.063,0.022 -0.127,0.045 -0.19,0.068c-0.172,0.05 -0.214,0.067 -0.39,0.101c-0.198,0.038 -0.399,0.058 -0.6,0.06c-0.471,0.003 -0.941,-0.096 -1.37,-0.29c-0.429,-0.194 -0.814,-0.481 -1.123,-0.836c-0.132,-0.152 -0.25,-0.316 -0.352,-0.49c-0.091,-0.155 -0.106,-0.197 -0.182,-0.359c0,0 -0.088,-0.204 -0.222,-0.515c-0.345,-0.798 -0.357,-1.701 -0.034,-2.508c0.322,-0.807 0.953,-1.453 1.752,-1.794c0.001,0 0.001,0 0.002,-0.001ZM71.193,199.979c0.068,-0.17 0.202,-0.306 0.371,-0.375c0.17,-0.069 0.36,-0.065 0.527,0.009c1.776,0.789 3.58,1.527 5.41,2.211l-0.227,0.57c-0.027,0.062 -0.051,0.124 -0.08,0.185c-0.057,0.121 -0.122,0.239 -0.194,0.353c-0.251,0.398 -0.588,0.74 -0.982,0.997c-0.282,0.183 -0.592,0.322 -0.916,0.412c-0.324,0.089 -0.661,0.128 -0.997,0.115c-0.878,-0.035 -1.721,-0.431 -2.308,-1.086c-0.224,-0.25 -0.409,-0.535 -0.547,-0.841c-0.166,-0.368 -0.262,-0.766 -0.284,-1.169c-0.017,-0.335 0.017,-0.673 0.101,-0.998c0.046,-0.174 0.065,-0.215 0.126,-0.383c0,0 0,0 0,0ZM17.695,146.692c0.814,-0.351 1.734,-0.361 2.555,-0.03c0.822,0.332 1.476,0.979 1.818,1.796c0,0.001 0.001,0.002 0.001,0.002c0.681,1.629 -0.076,3.503 -1.697,4.203c-1.62,0.7 -3.298,1.424 -3.298,1.424c-0.062,0.024 -0.124,0.051 -0.187,0.074c-0.127,0.045 -0.256,0.083 -0.387,0.113c-0.459,0.104 -0.939,0.107 -1.4,0.01c-0.328,-0.07 -0.646,-0.19 -0.938,-0.356c-0.292,-0.166 -0.558,-0.377 -0.786,-0.624c-0.597,-0.645 -0.913,-1.522 -0.865,-2.4c0.019,-0.335 0.089,-0.667 0.208,-0.982c0.143,-0.377 0.356,-0.726 0.626,-1.026c0.224,-0.25 0.488,-0.465 0.777,-0.635c0.155,-0.091 0.198,-0.106 0.36,-0.182c0,0 1.613,-0.696 3.213,-1.387ZM201.291,146.429c0.319,-0.814 0.948,-1.467 1.749,-1.815c0.802,-0.348 1.709,-0.362 2.52,-0.04c1.164,0.461 2.208,0.876 2.208,0.876c0.164,0.071 0.208,0.085 0.365,0.171c0.235,0.129 0.455,0.288 0.652,0.47c0.395,0.366 0.696,0.829 0.87,1.338c0.153,0.445 0.208,0.922 0.161,1.391c-0.021,0.2 -0.059,0.399 -0.116,0.592c-0.051,0.172 -0.071,0.213 -0.137,0.379c-0.029,0.061 -0.057,0.122 -0.086,0.182c-0.086,0.157 -0.104,0.199 -0.204,0.347c-0.113,0.168 -0.241,0.324 -0.383,0.468c-0.33,0.335 -0.733,0.597 -1.173,0.763c-0.44,0.166 -0.916,0.236 -1.385,0.203c-0.201,-0.014 -0.401,-0.047 -0.596,-0.098c-0.173,-0.045 -0.214,-0.064 -0.383,-0.125c0,0 -1.061,-0.421 -2.233,-0.887c-1.665,-0.661 -2.483,-2.544 -1.83,-4.212c0.001,-0.001 0.001,-0.002 0.001,-0.003ZM21.647,75.103c-0.67,1.658 -2.554,2.464 -4.217,1.804c-1.818,-0.721 -3.774,-1.498 -3.774,-1.498c-0.061,-0.027 -0.124,-0.051 -0.185,-0.08c-0.121,-0.057 -0.239,-0.122 -0.353,-0.194c-0.398,-0.251 -0.74,-0.588 -0.997,-0.982c-0.183,-0.282 -0.322,-0.592 -0.411,-0.916c-0.09,-0.324 -0.129,-0.661 -0.115,-0.997c0.034,-0.878 0.431,-1.721 1.085,-2.308c0.25,-0.224 0.535,-0.409 0.841,-0.547c0.368,-0.165 0.766,-0.262 1.169,-0.283c0.335,-0.018 0.673,0.016 0.998,0.101c0.174,0.045 0.215,0.064 0.383,0.125c0,0 1.929,0.766 3.742,1.486c0.814,0.323 1.465,0.958 1.809,1.762c0.345,0.805 0.354,1.714 0.026,2.526c-0.001,0 -0.001,0 -0.001,0.001ZM199.483,71.8c-0.353,-0.786 -0.375,-1.681 -0.063,-2.484c0.312,-0.803 0.934,-1.447 1.725,-1.789c1.859,-0.803 3.88,-1.675 3.88,-1.675c0.166,-0.066 0.207,-0.087 0.379,-0.137c0.258,-0.075 0.525,-0.119 0.794,-0.129c0.537,-0.02 1.078,0.094 1.561,0.331c0.423,0.207 0.799,0.505 1.097,0.87c0.127,0.156 0.24,0.324 0.337,0.501c0.086,0.157 0.1,0.2 0.171,0.364c0.022,0.064 0.045,0.127 0.068,0.19c0.05,0.172 0.067,0.214 0.101,0.39c0.038,0.198 0.058,0.399 0.06,0.601c0.003,0.47 -0.096,0.94 -0.29,1.369c-0.194,0.429 -0.481,0.814 -0.836,1.123c-0.152,0.132 -0.316,0.25 -0.49,0.352c-0.155,0.091 -0.197,0.106 -0.359,0.182c0,0 -1.962,0.847 -3.785,1.634c-1.669,0.72 -3.606,-0.034 -4.35,-1.692c0,0 0,-0.001 0,-0.001ZM72.544,22.725c-0.791,0.347 -1.689,0.365 -2.493,0.048c-0.805,-0.317 -1.449,-0.941 -1.792,-1.735c-1.105,-2.558 -2.502,-5.797 -2.502,-5.797c-0.025,-0.062 -0.052,-0.124 -0.075,-0.187c-0.045,-0.127 -0.083,-0.256 -0.112,-0.387c-0.104,-0.459 -0.108,-0.939 -0.01,-1.4c0.069,-0.328 0.19,-0.646 0.356,-0.938c0.166,-0.292 0.377,-0.558 0.623,-0.786c0.646,-0.597 1.522,-0.913 2.4,-0.865c0.335,0.018 0.668,0.089 0.982,0.208c0.377,0.143 0.727,0.356 1.026,0.626c0.25,0.224 0.465,0.487 0.635,0.777c0.091,0.155 0.106,0.197 0.182,0.36c0,0 1.385,3.209 2.484,5.755c0.717,1.663 -0.043,3.594 -1.702,4.321c-0.001,0 -0.001,0 -0.002,0ZM145.855,21.024c-0.825,-0.317 -1.489,-0.95 -1.844,-1.76c-0.354,-0.809 -0.371,-1.726 -0.044,-2.548c0.741,-1.869 1.537,-3.873 1.537,-3.873c0.071,-0.164 0.085,-0.207 0.171,-0.365c0.129,-0.235 0.287,-0.455 0.47,-0.652c0.366,-0.395 0.829,-0.696 1.338,-0.87c0.445,-0.153 0.922,-0.208 1.391,-0.161c0.2,0.021 0.399,0.06 0.592,0.116c0.172,0.051 0.212,0.071 0.379,0.137c0.061,0.029 0.121,0.058 0.182,0.086c0.157,0.086 0.199,0.104 0.347,0.204c0.167,0.113 0.324,0.241 0.467,0.383c0.336,0.33 0.597,0.733 0.764,1.173c0.166,0.44 0.236,0.916 0.203,1.385c-0.014,0.201 -0.047,0.401 -0.098,0.596c-0.045,0.173 -0.064,0.214 -0.125,0.383c0,0 -0.819,2.063 -1.566,3.943c-0.654,1.646 -2.51,2.459 -4.162,1.824c-0.001,0 -0.002,-0.001 -0.002,-0.001Z" style="fill:#facfe2;"/></g></g></svg>