<?xml version="1.0" standalone="no"?><!DOCTYPE svg PUBLIC "-//W3C//DTD SVG 1.1//EN" "http://www.w3.org/Graphics/SVG/1.1/DTD/svg11.dtd"><svg width="100%" height="100%" viewBox="0 0 223 223" version="1.1" xmlns="http://www.w3.org/2000/svg" xmlns:xlink="http://www.w3.org/1999/xlink" xml:space="preserve" style="fill-rule:evenodd;clip-rule:evenodd;stroke-linejoin:round;stroke-miterlimit:1.41421;"><g><circle cx="111.269" cy="111.269" r="111.269" style="fill:#fff;"/><g><circle cx="111.826" cy="113.715" r="85.781" style="fill:#c2d7ef;fill-opacity:0.3;"/><path id=":: travel" d="M139.686,65.655c0.12,0 0.264,0 0.456,0c1.795,0.021 3.585,0.092 5.377,0.213l31.651,2.291c0.131,0.018 0.263,0.027 0.393,0.053c0.389,0.077 0.763,0.227 1.097,0.441c1.02,0.649 1.597,1.852 1.464,3.054c-0.029,0.263 -0.09,0.522 -0.183,0.77c-0.046,0.124 -0.107,0.241 -0.161,0.362c-5.035,9.65 -10.03,19.322 -15.109,28.95c-0.809,1.502 -1.651,2.984 -2.545,4.437c-1.908,3.097 -4.021,6.068 -6.322,8.886c-4.287,5.251 -9.224,9.968 -14.664,14.01c-2.541,1.887 -5.191,3.612 -7.924,5.206l-22.462,12.969c-5.689,10.152 -11.949,19.976 -17.914,29.97c-0.249,0.39 -0.547,0.73 -0.931,0.995c-0.536,0.37 -1.169,0.559 -1.804,0.562l-0.029,0c-0.587,-0.002 -1.174,-0.161 -1.685,-0.48c-0.395,-0.247 -0.709,-0.572 -0.976,-0.95c-3.087,-4.989 -5.872,-10.159 -8.805,-15.24l-0.001,-0.001c-0.07,-0.121 -0.132,-0.247 -0.186,-0.377c-0.028,-0.068 -0.051,-0.138 -0.074,-0.209c-0.013,-0.038 -0.025,-0.075 -0.037,-0.114c-0.005,-0.015 -0.01,-0.03 -0.015,-0.045c-0.25,-0.899 -0.249,-0.897 -0.505,-1.793c-0.954,-3.238 -2.023,-6.437 -3.246,-9.584c-2.225,-5.719 -4.915,-11.255 -8.025,-16.545c-3.185,-5.416 -6.806,-10.571 -10.782,-15.434c-2.267,-2.773 -4.654,-5.438 -7.124,-8.031l-0.065,-0.076c-0.038,-0.044 -0.076,-0.088 -0.112,-0.134l-0.072,-0.085c-0.012,-0.018 -0.025,-0.036 -0.037,-0.055c-0.02,-0.026 -0.039,-0.053 -0.059,-0.08l-0.046,-0.075c-0.024,-0.036 -0.047,-0.072 -0.068,-0.11c-3.055,-4.929 -5.799,-10.044 -8.699,-15.066c-0.199,-0.372 -0.344,-0.755 -0.401,-1.176c-0.169,-1.262 0.449,-2.536 1.544,-3.185c0.427,-0.252 0.889,-0.382 1.378,-0.437c11.675,-0.549 23.373,-0.734 35.059,-0.542c7.352,-4.252 14.71,-8.494 22.085,-12.707c1.568,-0.876 3.154,-1.714 4.772,-2.494c2.99,-1.44 6.067,-2.698 9.209,-3.766c0.628,-0.214 1.258,-0.419 1.891,-0.618c0.278,-0.176 0.584,-0.31 0.903,-0.394c0.206,-0.055 0.261,-0.057 0.471,-0.087c0.144,-0.011 0.201,-0.015 0.275,-0.016c4.433,-1.287 8.974,-2.201 13.561,-2.728c2.791,-0.32 5.594,-0.484 8.402,-0.531c0.481,-0.003 0.661,-0.004 0.916,-0.005l0.164,0.001ZM85.764,161.725l4.37,7.568l9.189,-15.397c-4.52,2.61 -9.039,5.219 -13.559,7.829ZM116.66,75.612c-0.723,0.229 -1.444,0.469 -2.16,0.72c-3.112,1.09 -6.152,2.384 -9.095,3.87c-1.271,0.641 -2.519,1.323 -3.754,2.029l-22.113,12.767c-7.687,4.772 -15.633,9.112 -23.5,13.584c0.466,0.511 0.923,1.029 1.382,1.546c0.67,0.766 0.669,0.765 1.334,1.537c1.522,1.793 3.011,3.613 4.445,5.478c3.213,4.179 6.176,8.55 8.848,13.094c2.956,5.028 5.554,10.267 7.756,15.669c1.302,3.195 2.458,6.446 3.488,9.739c7.745,-4.633 15.679,-8.947 23.495,-13.46c0.121,-0.065 0.241,-0.126 0.365,-0.18l0.018,-0.007c7.817,-4.502 15.628,-9.013 23.419,-13.559c2.315,-1.378 4.565,-2.856 6.728,-4.463c2.667,-1.981 5.202,-4.138 7.585,-6.45c0.007,-0.329 0.014,-0.657 0.014,-0.985c-0.009,-1.416 -0.059,-2.83 -0.174,-4.241c-0.227,-2.775 -0.684,-5.533 -1.415,-8.221c-0.721,-2.646 -1.708,-5.22 -2.967,-7.658c-0.864,-1.675 -1.855,-3.284 -2.959,-4.813c-3.258,-4.512 -7.472,-8.255 -12.119,-11.29c-2.747,-1.793 -5.643,-3.336 -8.621,-4.706ZM66.267,143.932c0.059,0.001 0.117,0.002 0.177,0.004c0.477,0.042 0.933,0.165 1.353,0.399c0.273,0.152 0.524,0.344 0.742,0.569c0.934,0.963 1.167,2.45 0.572,3.652c-0.259,0.525 -0.653,0.945 -1.134,1.272c-2.825,1.729 -5.694,3.387 -8.604,4.968c-0.454,0.219 -0.934,0.348 -1.439,0.353l-0.024,0c-0.017,0 -0.033,0 -0.05,0c-1.173,-0.019 -2.267,-0.699 -2.802,-1.743c-0.144,-0.279 -0.246,-0.58 -0.302,-0.89c-0.066,-0.36 -0.069,-0.731 -0.009,-1.093c0.068,-0.415 0.219,-0.816 0.441,-1.174c0.253,-0.406 0.59,-0.731 0.983,-0.999c2.824,-1.729 5.694,-3.386 8.603,-4.967c0.385,-0.186 0.775,-0.297 1.2,-0.343c0.089,-0.005 0.177,-0.007 0.264,-0.008l0.029,0ZM66.789,146.85c-0.02,0.002 -0.197,0.093 -0.569,0.296c-2.765,1.596 -5.571,3.121 -8.294,4.788l0.136,-0.074c2.519,-1.376 8.795,-4.99 8.728,-5.01l-0.001,0ZM59.865,132.838c0.058,0.001 0.117,0.002 0.176,0.004c0.582,0.053 1.133,0.229 1.617,0.564c1.1,0.762 1.618,2.172 1.272,3.466c-0.082,0.305 -0.209,0.597 -0.376,0.865c-0.252,0.406 -0.589,0.731 -0.983,0.999c-4.65,2.839 -9.37,5.566 -14.154,8.172c-0.429,0.207 -0.879,0.336 -1.357,0.352c-0.027,0.001 -0.053,0.001 -0.079,0.001l-0.04,0c-0.381,-0.001 -0.762,-0.071 -1.119,-0.206c-0.293,-0.111 -0.571,-0.265 -0.82,-0.456c-0.841,-0.645 -1.316,-1.692 -1.247,-2.75c0.024,-0.369 0.112,-0.733 0.259,-1.071c0.255,-0.587 0.676,-1.058 1.202,-1.416c4.65,-2.839 9.37,-5.569 14.156,-8.173c0.385,-0.186 0.774,-0.297 1.199,-0.342c0.089,-0.006 0.177,-0.008 0.264,-0.009l0.03,0ZM53.447,121.724c0.059,0.001 0.117,0.002 0.176,0.004c0.583,0.052 1.135,0.229 1.618,0.564c1.056,0.731 1.581,2.062 1.308,3.317c-0.076,0.351 -0.212,0.689 -0.399,0.995c-0.253,0.413 -0.593,0.743 -0.991,1.015c-6.474,3.957 -13.048,7.755 -19.712,11.382c-0.428,0.206 -0.879,0.335 -1.356,0.351c-0.026,0.001 -0.052,0.002 -0.079,0.002l-0.039,0c-0.381,-0.001 -0.762,-0.072 -1.119,-0.206c-1,-0.377 -1.761,-1.254 -1.996,-2.295c-0.069,-0.305 -0.092,-0.619 -0.071,-0.93c0.026,-0.358 0.111,-0.711 0.252,-1.04c0.254,-0.592 0.676,-1.066 1.204,-1.427c6.473,-3.957 13.048,-7.754 19.712,-11.381c0.385,-0.186 0.774,-0.297 1.199,-0.343c0.089,-0.005 0.176,-0.007 0.264,-0.008l0.029,0ZM116.191,89.622c0.077,0.001 0.168,0.002 0.314,0.003c0.771,0.027 1.537,0.09 2.299,0.218c1.517,0.255 2.997,0.728 4.38,1.401c1.759,0.856 3.356,2.035 4.69,3.464c1.294,1.387 2.338,3.006 3.071,4.755c0.613,1.462 1.006,3.015 1.163,4.593c0.33,3.334 -0.411,6.742 -2.09,9.641c-0.787,1.357 -1.773,2.597 -2.921,3.667c-1.387,1.293 -3.004,2.337 -4.753,3.07c-1.911,0.801 -3.974,1.224 -6.046,1.24l-0.099,0.001c-3.613,0.005 -7.188,-1.234 -10.017,-3.482c-1.143,-0.908 -2.16,-1.974 -3.014,-3.158c-0.953,-1.32 -1.705,-2.785 -2.219,-4.33c-0.498,-1.492 -0.771,-3.057 -0.812,-4.629c-0.049,-1.925 0.251,-3.857 0.881,-5.677c0.634,-1.831 1.601,-3.545 2.843,-5.032c1.379,-1.651 3.092,-3.012 5.006,-3.991c1.425,-0.73 2.959,-1.244 4.537,-1.519c0.77,-0.134 1.545,-0.201 2.326,-0.231c0.194,-0.002 0.29,-0.004 0.387,-0.004l0.074,0ZM116.07,96.034c-0.058,0 -0.116,0 -0.174,0.001c-0.468,0.018 -0.932,0.058 -1.393,0.138c-0.944,0.165 -1.862,0.473 -2.715,0.91c-1.15,0.588 -2.179,1.403 -3.007,2.394c-0.745,0.892 -1.324,1.921 -1.704,3.019c-0.379,1.095 -0.561,2.257 -0.531,3.415c0.024,0.94 0.188,1.875 0.485,2.767c0.31,0.93 0.763,1.812 1.336,2.606c0.511,0.708 1.119,1.346 1.803,1.889c1.638,1.302 3.696,2.041 5.787,2.088c0.074,0.002 0.147,0.003 0.22,0.003l0.056,-0.001c1.083,-0.007 2.163,-0.198 3.183,-0.566c1.073,-0.388 2.078,-0.968 2.951,-1.704c0.661,-0.557 1.245,-1.205 1.732,-1.92c1.673,-2.456 2.127,-5.634 1.187,-8.456c-0.36,-1.083 -0.916,-2.101 -1.63,-2.992c-0.785,-0.98 -1.764,-1.8 -2.865,-2.403c-1.227,-0.672 -2.576,-1.05 -3.968,-1.166c-0.232,-0.013 -0.463,-0.021 -0.695,-0.022l-0.058,0ZM118.525,97.768c0.3,0.029 0.582,0.125 0.827,0.303c0.132,0.096 0.248,0.212 0.345,0.342c0.429,0.581 0.411,1.401 -0.043,1.962c-0.24,0.296 -0.583,0.499 -0.958,0.568c-0.158,0.029 -0.316,0.025 -0.477,0.032c-0.184,0.007 -0.232,0.013 -0.414,0.028c-0.198,0.022 -0.394,0.048 -0.59,0.08c-0.583,0.113 -1.149,0.284 -1.679,0.558c-0.33,0.171 -0.642,0.378 -0.926,0.62c-0.235,0.2 -0.451,0.424 -0.642,0.667c-0.878,1.113 -1.189,2.558 -1.127,3.953c0.027,0.594 0.117,1.184 0.256,1.761c0.071,0.297 0.174,0.585 0.239,0.883c0.013,0.081 0.022,0.16 0.027,0.242c0.003,0.246 -0.037,0.485 -0.137,0.711c-0.077,0.173 -0.185,0.332 -0.318,0.468c-0.567,0.581 -1.509,0.64 -2.144,0.135c-0.237,-0.189 -0.404,-0.437 -0.513,-0.718c-0.072,-0.221 -0.133,-0.446 -0.195,-0.67c-0.268,-1.063 -0.436,-2.144 -0.428,-3.243c0.014,-1.973 0.592,-3.946 1.822,-5.507c0.377,-0.477 0.808,-0.911 1.284,-1.289c0.553,-0.441 1.164,-0.806 1.811,-1.091c1.031,-0.454 2.128,-0.684 3.247,-0.775c0.244,-0.013 0.489,-0.032 0.733,-0.02ZM139.526,72.065c-0.234,0 -0.4,0.001 -0.843,0.004c-2.59,0.043 -5.174,0.195 -7.748,0.49c-1.628,0.187 -3.251,0.427 -4.863,0.719c2.079,1.216 4.093,2.54 6.021,3.991c2.85,2.146 5.5,4.56 7.848,7.247c2.698,3.089 4.982,6.533 6.746,10.237c1.38,2.898 2.44,5.945 3.188,9.067c0.551,2.298 0.934,4.635 1.167,6.987c2.043,-2.523 3.923,-5.178 5.625,-7.943c0.945,-1.533 1.826,-3.102 2.666,-4.695l12.506,-23.968c-9.162,-0.664 -18.321,-1.367 -27.485,-1.987c-0.71,-0.041 -0.708,-0.041 -1.419,-0.076c-0.946,-0.037 -1.89,-0.061 -2.836,-0.072c-0.177,0 -0.31,-0.001 -0.421,-0.001l-0.152,0ZM47.739,95.863l4.369,7.568c4.51,-2.606 9.016,-5.217 13.523,-7.827l-17.892,0.259Z" style="fill:#7faff5;"/><circle cx="116.014" cy="105.569" r="13.229" style="fill:#fff;stroke-width:6px;stroke:#7190b7;"/><path d="M111.11,105.569c0,-2.707 2.197,-4.904 4.904,-4.904" style="fill:#fff;stroke-width:6px;stroke-linecap:round;stroke:#7190b7;"/><path d="M149.699,202.627c1.657,-0.708 3.574,0.058 4.288,1.712c0.135,0.309 0.222,0.512 0.222,0.512c0.066,0.167 0.087,0.207 0.137,0.379c0.075,0.258 0.119,0.526 0.129,0.794c0.02,0.538 -0.094,1.078 -0.331,1.562c-0.207,0.422 -0.505,0.799 -0.87,1.096c-0.156,0.128 -0.324,0.241 -0.501,0.337c-0.157,0.086 -0.2,0.1 -0.364,0.171c-0.064,0.023 -0.127,0.046 -0.19,0.068c-0.172,0.051 -0.214,0.067 -0.39,0.101c-0.198,0.039 -0.399,0.059 -0.601,0.06c-0.47,0.004 -0.94,-0.096 -1.369,-0.29c-0.429,-0.193 -0.814,-0.48 -1.123,-0.835c-0.132,-0.152 -0.25,-0.317 -0.352,-0.491c-0.091,-0.154 -0.106,-0.197 -0.182,-0.359c0,0 -0.088,-0.204 -0.222,-0.514c-0.345,-0.799 -0.357,-1.701 -0.035,-2.509c0.323,-0.807 0.954,-1.453 1.753,-1.794c0.001,0 0.001,0 0.001,0ZM71.75,202.424c0.067,-0.17 0.201,-0.305 0.371,-0.374c0.17,-0.069 0.36,-0.066 0.527,0.009c1.776,0.789 3.58,1.526 5.409,2.21l-0.226,0.57c-0.027,0.062 -0.052,0.124 -0.08,0.185c-0.057,0.122 -0.122,0.24 -0.194,0.354c-0.251,0.398 -0.588,0.74 -0.983,0.996c-0.281,0.183 -0.591,0.323 -0.915,0.412c-0.324,0.089 -0.661,0.128 -0.997,0.115c-0.878,-0.034 -1.721,-0.431 -2.308,-1.085c-0.224,-0.251 -0.409,-0.535 -0.547,-0.842c-0.166,-0.367 -0.262,-0.765 -0.284,-1.168c-0.018,-0.336 0.017,-0.674 0.101,-0.999c0.045,-0.173 0.065,-0.214 0.126,-0.382c0,0 0,-0.001 0,-0.001ZM18.252,149.138c0.814,-0.351 1.734,-0.362 2.555,-0.03c0.822,0.332 1.476,0.978 1.818,1.796c0,0 0,0.001 0.001,0.002c0.681,1.629 -0.076,3.502 -1.697,4.202c-1.62,0.7 -3.298,1.424 -3.298,1.424c-0.062,0.025 -0.124,0.052 -0.187,0.074c-0.127,0.046 -0.256,0.084 -0.387,0.113c-0.459,0.104 -0.939,0.107 -1.4,0.01c-0.328,-0.07 -0.646,-0.19 -0.938,-0.356c-0.292,-0.166 -0.558,-0.377 -0.786,-0.624c-0.597,-0.645 -0.913,-1.522 -0.865,-2.399c0.018,-0.336 0.089,-0.668 0.208,-0.982c0.143,-0.377 0.356,-0.727 0.626,-1.027c0.224,-0.25 0.487,-0.464 0.777,-0.634c0.155,-0.091 0.197,-0.107 0.36,-0.182c0,0 1.613,-0.697 3.213,-1.387ZM201.848,148.874c0.319,-0.813 0.948,-1.466 1.749,-1.814c0.802,-0.348 1.708,-0.363 2.52,-0.04c1.164,0.461 2.208,0.875 2.208,0.875c0.164,0.071 0.207,0.086 0.365,0.172c0.235,0.129 0.455,0.287 0.652,0.47c0.395,0.366 0.696,0.829 0.87,1.338c0.153,0.445 0.208,0.922 0.161,1.39c-0.021,0.201 -0.059,0.399 -0.116,0.593c-0.051,0.172 -0.071,0.212 -0.137,0.378c-0.029,0.061 -0.058,0.122 -0.086,0.183c-0.086,0.157 -0.104,0.198 -0.204,0.347c-0.113,0.167 -0.241,0.324 -0.383,0.467c-0.33,0.335 -0.733,0.597 -1.173,0.763c-0.44,0.167 -0.916,0.236 -1.385,0.204c-0.201,-0.015 -0.401,-0.047 -0.596,-0.098c-0.173,-0.045 -0.214,-0.064 -0.383,-0.125c0,0 -1.061,-0.422 -2.233,-0.887c-1.665,-0.662 -2.483,-2.544 -1.83,-4.213c0.001,-0.001 0.001,-0.002 0.001,-0.003ZM22.204,77.548c-0.671,1.659 -2.554,2.465 -4.217,1.804c-1.818,-0.721 -3.774,-1.497 -3.774,-1.497c-0.061,-0.027 -0.124,-0.052 -0.185,-0.081c-0.121,-0.057 -0.239,-0.121 -0.353,-0.193c-0.398,-0.251 -0.74,-0.588 -0.997,-0.983c-0.183,-0.282 -0.322,-0.591 -0.412,-0.915c-0.089,-0.324 -0.128,-0.662 -0.115,-0.997c0.035,-0.878 0.431,-1.722 1.086,-2.308c0.25,-0.224 0.535,-0.41 0.841,-0.548c0.368,-0.165 0.766,-0.262 1.169,-0.283c0.335,-0.018 0.673,0.016 0.998,0.101c0.174,0.045 0.215,0.064 0.383,0.125c0,0 1.929,0.766 3.742,1.486c0.814,0.324 1.465,0.958 1.809,1.763c0.345,0.805 0.354,1.714 0.025,2.525c0,0.001 0,0.001 0,0.001ZM200.04,74.246c-0.353,-0.787 -0.375,-1.681 -0.063,-2.484c0.312,-0.804 0.933,-1.448 1.725,-1.789c1.859,-0.804 3.88,-1.676 3.88,-1.676c0.166,-0.066 0.207,-0.086 0.379,-0.136c0.258,-0.076 0.525,-0.119 0.794,-0.129c0.537,-0.021 1.078,0.094 1.561,0.33c0.423,0.207 0.799,0.506 1.097,0.87c0.127,0.156 0.24,0.324 0.337,0.501c0.085,0.157 0.1,0.2 0.17,0.365c0.023,0.063 0.046,0.126 0.069,0.189c0.05,0.172 0.067,0.214 0.101,0.39c0.038,0.198 0.058,0.4 0.06,0.601c0.003,0.471 -0.097,0.941 -0.29,1.37c-0.194,0.428 -0.481,0.814 -0.836,1.122c-0.152,0.133 -0.316,0.251 -0.49,0.353c-0.155,0.09 -0.197,0.106 -0.36,0.182c0,0 -1.962,0.847 -3.785,1.633c-1.668,0.72 -3.605,-0.034 -4.349,-1.691c0,-0.001 0,-0.001 0,-0.001ZM73.101,25.171c-0.791,0.347 -1.689,0.364 -2.493,0.047c-0.805,-0.316 -1.45,-0.941 -1.792,-1.735c-1.105,-2.558 -2.503,-5.796 -2.503,-5.796c-0.024,-0.063 -0.051,-0.125 -0.074,-0.188c-0.045,-0.126 -0.083,-0.255 -0.113,-0.386c-0.104,-0.46 -0.107,-0.94 -0.009,-1.4c0.069,-0.329 0.19,-0.647 0.356,-0.939c0.166,-0.292 0.377,-0.558 0.623,-0.786c0.646,-0.597 1.522,-0.912 2.4,-0.864c0.335,0.018 0.668,0.088 0.982,0.207c0.377,0.143 0.726,0.357 1.026,0.626c0.25,0.225 0.465,0.488 0.635,0.778c0.091,0.154 0.106,0.197 0.182,0.359c0,0 1.385,3.21 2.484,5.755c0.717,1.663 -0.043,3.594 -1.702,4.322c-0.001,-0.001 -0.001,0 -0.002,0ZM146.411,23.47c-0.824,-0.317 -1.488,-0.951 -1.843,-1.76c-0.355,-0.809 -0.371,-1.727 -0.045,-2.548c0.742,-1.87 1.538,-3.874 1.538,-3.874c0.071,-0.164 0.085,-0.207 0.171,-0.364c0.129,-0.236 0.287,-0.455 0.47,-0.652c0.366,-0.395 0.829,-0.696 1.338,-0.871c0.445,-0.152 0.922,-0.208 1.39,-0.16c0.201,0.02 0.4,0.059 0.593,0.116c0.172,0.05 0.212,0.071 0.379,0.137c0.06,0.028 0.121,0.057 0.182,0.086c0.157,0.086 0.199,0.104 0.347,0.204c0.167,0.113 0.324,0.241 0.467,0.382c0.335,0.331 0.597,0.733 0.764,1.174c0.166,0.44 0.236,0.915 0.203,1.385c-0.014,0.201 -0.047,0.4 -0.098,0.595c-0.045,0.174 -0.064,0.215 -0.125,0.383c0,0 -0.82,2.064 -1.566,3.944c-0.654,1.645 -2.51,2.458 -4.162,1.823c-0.001,0 -0.002,0 -0.003,0Z" style="fill:#facfe2;"/></g></g></svg>