<svg width="1498" height="283" viewBox="0 0 1498 283" fill="none" xmlns="http://www.w3.org/2000/svg">
<path fill-rule="evenodd" clip-rule="evenodd" d="M505.2 74.4C525.745 74.4 542.4 57.745 542.4 37.2C542.4 16.655 525.745 0 505.2 0C484.655 0 468 16.655 468 37.2C468 57.745 484.655 74.4 505.2 74.4ZM730 273C777.496 273 816 234.496 816 187C816 139.504 777.496 101 730 101C682.504 101 644 139.504 644 187C644 234.496 682.504 273 730 273ZM936.5 243C962.733 243 984 221.734 984 195.5C984 169.266 962.733 148 936.5 148C910.266 148 889 169.266 889 195.5C889 221.734 910.266 243 936.5 243ZM604 181C604 215.242 576.242 243 542 243C507.758 243 480 215.242 480 181C480 146.758 507.758 119 542 119C576.242 119 604 146.758 604 181ZM373 283C407.242 283 435 255.242 435 221C435 186.758 407.242 159 373 159C338.758 159 311 186.758 311 221C311 255.242 338.758 283 373 283ZM295.8 211.4C295.8 235.369 276.369 254.8 252.4 254.8C228.431 254.8 209 235.369 209 211.4C209 187.431 228.431 168 252.4 168C276.369 168 295.8 187.431 295.8 211.4ZM141.2 269.4C161.745 269.4 178.4 252.745 178.4 232.2C178.4 211.655 161.745 195 141.2 195C120.655 195 104 211.655 104 232.2C104 252.745 120.655 269.4 141.2 269.4ZM37.2 201.6C37.2 211.872 28.8724 220.2 18.6 220.2C8.32751 220.2 0 211.872 0 201.6C0 191.328 8.32751 183 18.6 183C28.8724 183 37.2 191.328 37.2 201.6ZM472 101C472 118.121 458.121 132 441 132C423.879 132 410 118.121 410 101C410 83.8792 423.879 70 441 70C458.121 70 472 83.8792 472 101ZM341.2 97.4C361.745 97.4 378.4 80.745 378.4 60.2C378.4 39.655 361.745 23 341.2 23C320.655 23 304 39.655 304 60.2C304 80.745 320.655 97.4 341.2 97.4ZM250.6 111.8C250.6 125.497 239.497 136.6 225.8 136.6C212.103 136.6 201 125.497 201 111.8C201 98.1034 212.103 87 225.8 87C239.497 87 250.6 98.1034 250.6 111.8ZM154.2 175.4C174.745 175.4 191.4 158.745 191.4 138.2C191.4 117.655 174.745 101 154.2 101C133.655 101 117 117.655 117 138.2C117 158.745 133.655 175.4 154.2 175.4ZM344 148C344 154.627 338.627 160 332 160C325.373 160 320 154.627 320 148C320 141.373 325.373 136 332 136C338.627 136 344 141.373 344 148ZM1447 143C1453.63 143 1459 137.627 1459 131C1459 124.373 1453.63 119 1447 119C1440.37 119 1435 124.373 1435 131C1435 137.627 1440.37 143 1447 143ZM92.9999 117C92.9999 123.627 87.6273 129 81 129C74.3726 129 69 123.627 69 117C69 110.373 74.3726 105 81 105C87.6273 105 92.9999 110.373 92.9999 117ZM618.5 97C626.508 97 633 90.5081 633 82.5C633 74.4919 626.508 68 618.5 68C610.492 68 604 74.4919 604 82.5C604 90.5081 610.492 97 618.5 97ZM1088 225C1088 242.121 1074.12 256 1057 256C1039.88 256 1026 242.121 1026 225C1026 218.593 1027.94 212.64 1031.27 207.699C1026.7 201.484 1024 193.807 1024 185.5C1024 164.789 1040.79 148 1061.5 148C1082.21 148 1099 164.789 1099 185.5C1099 196.863 1093.95 207.046 1085.96 213.923C1087.28 217.363 1088 221.097 1088 225ZM1216 261C1260.74 261 1297 224.735 1297 180C1297 135.265 1260.74 99 1216 99C1171.26 99 1135 135.265 1135 180C1135 224.735 1171.26 261 1216 261ZM1062 92.5C1062 123.704 1036.7 149 1005.5 149C974.296 149 949 123.704 949 92.5C949 61.2959 974.296 36 1005.5 36C1036.7 36 1062 61.2959 1062 92.5ZM906.6 61.2C916.873 61.2 925.2 52.8725 925.2 42.6C925.2 32.3275 916.873 24 906.6 24C896.328 24 888 32.3275 888 42.6C888 52.8725 896.328 61.2 906.6 61.2ZM907 124C907 141.121 893.121 155 876 155C858.879 155 845 141.121 845 124C845 106.879 858.879 93 876 93C893.121 93 907 106.879 907 124ZM1181 74C1201.43 74 1218 57.4345 1218 37C1218 16.5655 1201.43 0 1181 0C1160.57 0 1144 16.5655 1144 37C1144 57.4345 1160.57 74 1181 74ZM1498 204C1498 217.807 1486.81 229 1473 229C1459.19 229 1448 217.807 1448 204C1448 190.193 1459.19 179 1473 179C1486.81 179 1498 190.193 1498 204ZM672 69C685.255 69 696 58.2548 696 45C696 31.7452 685.255 21 672 21C658.745 21 648 31.7452 648 45C648 58.2548 658.745 69 672 69ZM826 41C826 61.4345 809.435 78 789 78C768.565 78 752 61.4345 752 41C752 20.5655 768.565 4 789 4C809.435 4 826 20.5655 826 41ZM1356 211C1376.99 211 1394 193.987 1394 173C1394 152.013 1376.99 135 1356 135C1335.01 135 1318 152.013 1318 173C1318 193.987 1335.01 211 1356 211ZM1338 70C1338 86.0163 1325.02 99 1309 99C1292.98 99 1280 86.0163 1280 70C1280 53.9837 1292.98 41 1309 41C1325.02 41 1338 53.9837 1338 70ZM1103.6 125.2C1113.87 125.2 1122.2 116.872 1122.2 106.6C1122.2 96.3275 1113.87 88 1103.6 88C1093.33 88 1085 96.3275 1085 106.6C1085 116.872 1093.33 125.2 1103.6 125.2Z" fill="white"/>
</svg>
