<?xml version="1.0" encoding="UTF-8" standalone="no"?>
<svg width="26px" height="20px" viewBox="0 0 26 20" version="1.1" xmlns="http://www.w3.org/2000/svg" xmlns:xlink="http://www.w3.org/1999/xlink">
    <!-- Generator: sketchtool 3.7.2 (28276) - http://www.bohemiancoding.com/sketch -->
    <title>31F7ACEB-E420-4A13-821A-FA88D96B55A3</title>
    <desc>Created with sketchtool.</desc>
    <defs></defs>
    <g id="Page-1" stroke="none" stroke-width="1" fill="none" fill-rule="evenodd">
        <g id="Onboarding" transform="translate(-470.000000, -2798.000000)" fill="#CED5D9">
            <g id="::-step-3" transform="translate(80.000000, 2418.000000)">
                <g id="::-added-member" transform="translate(370.000000, 355.000000)">
                    <path d="M22.3054348,42.8043478 C23.3122935,41.7388261 25.7206739,40.5520978 27.73325,39.8506522 L29.9085761,41.7007065 C30.2495978,41.9908261 30.7506304,41.9908261 31.0916522,41.7007065 L33.2669783,39.8506522 C35.2795543,40.5520978 37.6879348,41.7388261 38.6947935,42.8043478 L22.3054348,42.8043478 Z M33.3455,37.95175 C33.0451087,37.8554239 32.7166413,37.9216196 32.4765109,38.125913 L30.5,39.8065978 L28.5237174,38.125913 C28.283587,37.9216196 27.9551196,37.8554239 27.6547283,37.95175 C26.3764674,38.3594239 20,40.5539239 20,43.7173913 C20,44.2216196 20.4088152,44.6304348 20.9130435,44.6304348 L40.0869565,44.6304348 C40.5911848,44.6304348 41,44.2216196 41,43.7173913 C41,40.5539239 34.6235326,38.3594239 33.3455,37.95175 L33.3455,37.95175 Z M30.5,26.826087 C32.8821304,26.826087 34.8200652,28.7761196 34.8200652,31.1733152 C34.8200652,33.5709674 32.8821304,35.5214565 30.5,35.5214565 C28.1180978,35.5214565 26.180163,33.5709674 26.180163,31.1733152 C26.180163,28.7761196 28.1180978,26.826087 30.5,26.826087 L30.5,26.826087 Z M43,33 L43,30.9970301 C43,30.4530363 42.5522847,30 42,30 C41.4438648,30 41,30.4463856 41,30.9970301 L41,33 L38.9970301,33 C38.4530363,33 38,33.4477153 38,34 C38,34.5561352 38.4463856,35 38.9970301,35 L41,35 L41,37.0029699 C41,37.5469637 41.4477153,38 42,38 C42.5561352,38 43,37.5536144 43,37.0029699 L43,35 L45.0029699,35 C45.5469637,35 46,34.5522847 46,34 C46,33.4438648 45.5536144,33 45.0029699,33 L43,33 Z M30.5,37.3475435 C33.8889891,37.3475435 36.6461522,34.5778261 36.6461522,31.1733152 C36.6461522,27.7692609 33.8889891,25 30.5,25 C27.1112391,25 24.3540761,27.7692609 24.3540761,31.1733152 C24.3540761,34.5778261 27.1112391,37.3475435 30.5,37.3475435 Z" id="add-contributor"></path>
                </g>
            </g>
        </g>
    </g>
</svg>