<?xml version="1.0" encoding="UTF-8" standalone="no"?>
<svg width="162px" height="127px" viewBox="0 0 162 127" version="1.1" xmlns="http://www.w3.org/2000/svg" xmlns:xlink="http://www.w3.org/1999/xlink">
    <!-- Generator: Sketch 3.8.3 (29802) - http://www.bohemiancoding.com/sketch -->
    <title>fluid icon</title>
    <desc>Created with Sketch.</desc>
    <defs></defs>
    <g id="home" stroke="none" stroke-width="1" fill="none" fill-rule="evenodd">
        <g id="HOME" transform="translate(-961.000000, -969.000000)">
            <g id="::-what-is-open-collective" transform="translate(0.000000, 708.000000)">
                <path d="M0,450 C157.015625,424.997161 194.957031,301.002612 271.957031,308.003407 C348.957031,315.004202 368.957031,385.012152 426.957031,390.012719 C484.957031,395.013287 459.957031,325.93517 426.957031,325.935169 C393.957031,325.935169 388.957031,400.013855 481.957031,395.013287 C574.957031,390.01272 569.996094,278 653.996094,278 C737.996094,278 760.499023,396.513458 848.499023,396.513458 C936.499023,396.513458 965,285.016422 1044,285.016422 C1123,285.016422 1280,364 1280,364" id="Path-1752" stroke="#E6E6E6" stroke-width="2" stroke-linecap="round" stroke-dasharray="4,6"></path>
                <g id="fluid-icon" transform="translate(961.000000, 261.000000)">
                    <path d="M51.0095419,123.847457 L7.67842867,123.847457 L7.67842867,98.0404378 C7.67842867,84.4488049 18.7164802,73.4306256 32.3329371,73.4303159 L32.3338681,73.4303159 C40.9947533,73.4304707 48.6123603,77.8880159 53.0099861,84.6301671 C51.6999923,88.0364 51.0095419,91.6843976 51.0095419,95.4033293 L51.0095419,123.847457 Z M161.850875,123.847457 L112.540306,123.847457 L112.540306,98.0404378 C112.540306,84.44865 123.578513,73.4303159 137.194815,73.4303159 L137.195901,73.4303159 C150.812202,73.4303159 161.850875,84.44865 161.850875,98.0404378 L161.850875,123.847457 Z M30.3155808,28.2189354 C40.2771504,28.2189354 48.3645739,36.2917988 48.3645739,46.2352793 C48.3645739,56.1789146 40.2771504,64.251778 30.3155808,64.251778 C20.3541664,64.251778 12.2667429,56.1789146 12.2667429,46.2352793 C12.2667429,36.2917988 20.3541664,28.2189354 30.3155808,28.2189354 L30.3155808,28.2189354 Z M135.905922,28.2189354 C125.944508,28.2189354 117.857084,36.2917988 117.857084,46.2352793 C117.857084,56.1789146 125.944508,64.251778 135.905922,64.251778 C145.867337,64.251778 153.954915,56.1789146 153.954915,46.2352793 C153.954915,36.2917988 145.867337,28.2189354 135.905922,28.2189354 L135.905922,28.2189354 Z" id="Fill-1" fill="#DCEAFA"></path>
                    <circle id="Oval-12" fill="#FFFFFF" cx="81" cy="35" r="26"></circle>
                    <path d="M132.89742,69.6853646 C133.902065,69.70395 134.90345,69.7659012 135.900957,69.8894939 C137.9841,70.1478305 140.036367,70.6490159 142.003763,71.3795756 C145.955776,72.8472 149.543946,75.2419244 152.412496,78.3266305 C155.047534,81.1604341 157.058063,84.5567549 158.274497,88.2272098 C158.865646,90.0086171 159.269056,91.8513561 159.478518,93.7160878 C159.590231,94.7125732 159.639882,95.712311 159.646088,96.7145268 L159.646088,123.450195 C159.642985,123.50812 159.642985,123.566199 159.636779,123.623659 C159.610402,123.854117 159.531272,124.077916 159.408697,124.274301 C159.315603,124.421435 159.197683,124.552772 159.061145,124.661187 C158.600327,125.028248 157.953321,125.101195 157.421131,124.845646 C157.264422,124.770221 157.120126,124.668311 156.997552,124.545338 C156.791192,124.340124 156.646896,124.077916 156.58173,123.794954 C156.547595,123.643948 156.550698,123.604144 156.54294,123.450195 C156.54294,114.440784 156.597246,105.431218 156.541389,96.4219622 C156.52277,95.4356988 156.456052,94.4529976 156.321065,93.4754073 C156.030921,91.3489317 155.450632,89.2624146 154.603628,87.289578 C153.561126,84.8617098 152.114594,82.6107122 150.338662,80.6524341 C148.751092,78.9021573 146.903633,77.3891537 144.873864,76.1769232 C142.274822,74.6247354 139.382999,73.5715646 136.393427,73.0885 C132.553437,72.4679037 128.577529,72.7954707 124.891765,74.0363537 C123.33445,74.5606159 121.831751,75.2451768 120.414543,76.0756329 C119.734333,76.4741341 119.077862,76.9084122 118.438149,77.3685549 L118.291525,77.4619463 C118.152969,77.5297829 118.120076,77.5530146 117.971435,77.597 C117.692617,77.6792402 117.392388,77.6814085 117.112329,77.6030402 C116.944759,77.5561122 116.785257,77.4808415 116.642512,77.3812549 C116.209002,77.0789329 115.95563,76.563189 115.981542,76.0359841 C115.990075,75.8623659 116.028089,75.6904512 116.093565,75.529378 C116.180919,75.3144073 116.316992,75.1201902 116.489062,74.9643829 C116.53204,74.9255085 116.579208,74.8915902 116.624359,74.8551939 C116.838631,74.7010902 117.0543,74.5493098 117.271675,74.3993878 C118.226048,73.7550951 119.213005,73.163461 120.239371,72.6404378 C122.444933,71.5163329 124.804566,70.6965634 127.232624,70.2105561 C128.985282,69.8597573 130.765248,69.6921793 132.552195,69.6833512 C132.667322,69.6833512 132.782449,69.6847451 132.89742,69.6853646 L132.89742,69.6853646 Z M27.3598326,69.6845902 C28.7016337,69.7047244 30.0386249,69.8105061 31.3641344,70.0220695 C34.3355535,70.4959963 37.2238082,71.4678561 39.876534,72.8857646 C40.7354853,73.344978 41.5697666,73.8505 42.3742576,74.3993878 C42.5204159,74.4991293 42.6670396,74.6013488 42.8111808,74.7040329 C42.9070681,74.7721793 43.0628461,74.8793549 43.1567163,74.9643829 C43.2428287,75.0422866 43.3199419,75.1296378 43.3863492,75.224578 C43.4861154,75.3672207 43.5615219,75.5262805 43.6085346,75.6937037 C43.6555473,75.8611268 43.6741662,76.0362939 43.66315,76.2097573 C43.6218782,76.8593159 43.161371,77.4274085 42.5334491,77.6030402 C42.1969127,77.6972061 41.832448,77.6742841 41.5106516,77.5384561 C41.3677517,77.4782085 41.3378063,77.4514146 41.2077844,77.3685549 C41.014148,77.2293195 40.8194255,77.0920976 40.6229962,76.9567341 C39.9728868,76.5178098 39.306641,76.1049049 38.6182077,75.7282415 C37.177261,74.9399122 35.6551671,74.2996463 34.0834228,73.8213829 C30.5885027,72.7579902 26.8594501,72.505539 23.2523512,73.0885 C20.1659605,73.5872073 17.1844562,74.693811 14.5211797,76.3287037 C12.5053749,77.5661793 10.6760693,79.1027244 9.10929007,80.8732902 C7.3586493,82.8517024 5.9405108,85.1195817 4.92872949,87.5584463 C4.10546441,89.542589 3.55139738,91.6363854 3.28607826,93.7675073 C3.16381424,94.7492793 3.10919884,95.7352329 3.1031477,96.7241293 L3.1031477,123.450195 C3.09988939,123.50812 3.09988939,123.566199 3.09337278,123.623659 C3.06730634,123.854117 2.98895186,124.077916 2.86529143,124.274301 C2.77266247,124.421435 2.65505317,124.552772 2.51898015,124.661187 C2.05769724,125.028248 1.40991516,125.101195 0.878345956,124.845646 C0.72148184,124.770221 0.577650944,124.668311 0.454455981,124.545338 C0.248872446,124.340124 0.103645133,124.077916 0.0389445036,123.794954 C0.00434440678,123.643948 0.00868881356,123.604144 0,123.450195 L0,96.7145268 C0.00558566586,95.8233585 0.0442198547,94.9342037 0.132504407,94.0472171 C0.329243971,92.0694244 0.745376077,90.1142439 1.37066034,88.2273646 C2.72828746,84.1300659 5.07752542,80.379539 8.17229462,77.365922 C10.8683093,74.740739 14.1120296,72.6904634 17.6420153,71.3795756 C19.6094109,70.6490159 21.6618328,70.1478305 23.7449759,69.8894939 C24.6309246,69.7796854 25.5201315,69.7192829 26.4122865,69.6915598 C26.7281869,69.6858293 27.043777,69.6830415 27.3598326,69.6845902 L27.3598326,69.6845902 Z M27.1682133,24.0432683 C28.0825557,24.0607695 28.9928641,24.1290707 29.8971214,24.267222 C31.728444,24.5469317 33.5180292,25.0883854 35.1963667,25.8712939 C37.2643043,26.8358744 39.1586208,28.1636439 40.7725679,29.7746854 C42.2741811,31.2735951 43.5309559,33.014889 44.476485,34.9132293 C45.2625123,36.4912817 45.8324054,38.1755805 46.1649077,39.9064976 C46.5715752,42.0225963 46.6251045,44.206222 46.3256508,46.3399768 C46.0462123,48.3312439 45.4556833,50.2763573 44.580906,52.0875012 C43.5559363,54.2096402 42.1441592,56.1412793 40.4361867,57.7668793 C38.6673925,59.4505585 36.5848701,60.8009402 34.3223651,61.724478 C31.9766958,62.6819341 29.4490268,63.1721232 26.9154619,63.1721232 C24.3815866,63.1721232 21.854228,62.6819341 19.5085586,61.724478 C17.2458985,60.8010951 15.1635312,59.4505585 13.3945819,57.7670341 C11.6866094,56.1414341 10.2748323,54.2096402 9.24986266,52.0875012 C8.37508533,50.2763573 7.78455632,48.3312439 7.50511787,46.3399768 C7.20566412,44.206222 7.25934857,42.0225963 7.66586092,39.9064976 C7.9983632,38.1755805 8.56825627,36.4912817 9.35428358,34.9132293 C10.3347231,32.9448841 11.6498371,31.1452012 13.2254603,29.6097402 C14.80248,28.0727305 16.6375264,26.8027305 18.6344019,25.8712939 C20.3127394,25.0883854 22.1023246,24.5469317 23.9334921,24.267222 C24.8377493,24.1290707 25.7482129,24.0607695 26.6625554,24.0432683 C26.9159274,24.0417195 26.9154619,24.0417195 27.1682133,24.0432683 L27.1682133,24.0432683 Z M132.983378,24.0432683 C133.897565,24.0607695 134.808028,24.1292256 135.712286,24.267222 C137.543453,24.5469317 139.333038,25.0883854 141.011376,25.8712939 C142.937189,26.7695866 144.71281,27.9827463 146.251196,29.4468085 C147.844352,30.9630646 149.180567,32.7460207 150.184436,34.701511 C151.063092,36.4130683 151.685273,38.253639 152.024602,40.1467134 C152.390308,42.1875415 152.428787,44.2869134 152.14066,46.3399768 C151.861222,48.331089 151.270848,50.2763573 150.39607,52.0875012 C149.371101,54.2096402 147.959168,56.1412793 146.251351,57.7668793 C144.482557,59.4505585 142.399879,60.8009402 140.137374,61.724478 C137.791705,62.6819341 135.264191,63.1721232 132.730471,63.1721232 C130.196751,63.1721232 127.669082,62.6819341 125.323568,61.724478 C123.061063,60.8009402 120.978385,59.4505585 119.209591,57.7668793 C117.501619,56.1412793 116.089842,54.2096402 115.064872,52.0875012 C114.190095,50.2765122 113.599566,48.331089 113.320127,46.3399768 C113.032,44.2870683 113.070479,42.1873866 113.43634,40.1467134 C113.775514,38.2534841 114.39785,36.4132232 115.276351,34.701511 C116.28022,32.7460207 117.616435,30.9630646 119.209591,29.4468085 C120.748132,27.9827463 122.523598,26.7695866 124.449411,25.8712939 C126.127904,25.0883854 127.917489,24.5469317 129.748656,24.267222 C130.652914,24.1290707 131.563377,24.0607695 132.477565,24.0432683 C132.730937,24.0417195 132.730471,24.0417195 132.983378,24.0432683 L132.983378,24.0432683 Z M132.51713,27.1406744 C131.746773,27.1553878 130.97983,27.2128476 130.218008,27.329161 C128.678536,27.5644207 127.17413,28.0196073 125.763129,28.6776841 C122.514288,30.193011 119.804465,32.77235 118.130161,35.9374378 C117.374855,37.3654134 116.833356,38.9042817 116.528471,40.490078 C116.185884,42.2727244 116.141043,44.1128305 116.393329,45.9101902 C116.628238,47.5842671 117.124741,49.2196244 117.860187,50.7422305 C118.723328,52.5295232 119.912764,54.1560524 121.351073,55.5251744 C122.840274,56.9426183 124.593397,58.0797329 126.498109,58.8573756 C128.471866,59.6630512 130.598453,60.0745622 132.730471,60.0745622 C134.862334,60.0745622 136.988921,59.6630512 138.962678,58.8573756 C140.867545,58.0797329 142.620668,56.9426183 144.109869,55.5251744 C145.548178,54.1560524 146.737614,52.5295232 147.600755,50.7422305 C148.336201,49.2196244 148.832549,47.5842671 149.067458,45.9101902 C149.319744,44.1126756 149.275058,42.2727244 148.932316,40.490078 C148.627431,38.9042817 148.086087,37.3654134 147.330626,35.9374378 C145.656478,32.77235 142.946499,30.193011 139.697658,28.6776841 C138.286812,28.0196073 136.782406,27.5642659 135.242935,27.329161 C134.481112,27.2128476 133.714014,27.1553878 132.943812,27.1406744 C132.730471,27.1392805 132.731247,27.1392805 132.51713,27.1406744 L132.51713,27.1406744 Z M26.7019653,27.1406744 C25.9317641,27.1553878 25.164666,27.2128476 24.4028432,27.329161 C22.8635268,27.5644207 21.3589656,28.0196073 19.9481195,28.6776841 C18.2665238,29.4619866 16.7213114,30.5318841 15.3933193,31.8260451 C14.0665685,33.1192768 12.9585896,34.6346037 12.1329972,36.2922634 C11.4721819,37.6189488 10.9930559,39.0348439 10.7134623,40.4899232 C10.3710299,42.2727244 10.3260343,44.1126756 10.5783202,45.9101902 C10.8132285,47.5842671 11.3095769,49.2196244 12.045023,50.7422305 C12.9083186,52.5293683 14.0976,54.1562073 15.535909,55.5250195 C17.0252647,56.9424634 18.7780777,58.0798878 20.6829449,58.8573756 C22.6568571,59.6628963 24.7834443,60.0745622 26.9154619,60.0745622 C29.0473244,60.0745622 31.1739115,59.6630512 33.1476686,58.8573756 C35.0523806,58.0798878 36.8056591,56.9426183 38.2947045,55.5251744 C39.7330135,54.1560524 40.92245,52.5295232 41.7857457,50.7422305 C42.5211917,49.2196244 43.0175401,47.5842671 43.2524484,45.9101902 C43.5047343,44.1126756 43.4597387,42.2727244 43.1173063,40.4899232 C42.8377127,39.0348439 42.3585867,37.6189488 41.6977714,36.2922634 C40.9015037,34.6936122 39.8428649,33.2273817 38.5783322,31.9649707 C37.2191535,30.6083939 35.6241356,29.4898646 33.8826491,28.6776841 C32.471803,28.0196073 30.9672418,27.5644207 29.4277703,27.329161 C28.6659475,27.2128476 27.8990046,27.1553878 27.1288033,27.1406744 C26.9145309,27.1392805 26.9154619,27.1392805 26.7019653,27.1406744 L26.7019653,27.1406744 Z" id="Fill-2" fill="#7FAFF5"></path>
                    <polygon id="Fill-3" fill="#7FAFF5" points="105.318661 1.70241951 106.857667 5.85408049 111.016661 7.39031585 106.857667 8.92655122 105.318661 13.0780573 103.779655 8.92655122 99.6205058 7.39031585 103.779655 5.85408049"></polygon>
                    <polygon id="Fill-4" fill="#7FAFF5" points="54.8628755 4.79998049 53.3238694 8.95164146 49.1647206 10.4878768 53.3238694 12.0241122 54.8628755 16.1756183 56.4018816 12.0241122 60.5608754 10.4878768 56.4018816 8.95164146"></polygon>
                    <path d="M111.072672,12.364689 L111.072672,11.2268 C111.072672,10.9128622 111.327596,10.6583976 111.6421,10.6583976 L111.642876,10.6583976 C111.95738,10.6583976 112.212303,10.9128622 112.212303,11.2268 L112.212303,12.364689 L113.352245,12.364689 C113.666749,12.364689 113.921672,12.6191537 113.921672,12.9330915 L113.921672,12.9338659 C113.921672,13.2478037 113.666749,13.5022683 113.352245,13.5022683 L112.212303,13.5022683 L112.212303,14.6403122 C112.212303,14.9540951 111.95738,15.2087146 111.642876,15.2085598 L111.6421,15.2085598 C111.327596,15.2087146 111.072672,14.9540951 111.072672,14.6403122 L111.072672,13.5022683 L109.932731,13.5022683 C109.618227,13.5022683 109.363303,13.2478037 109.363303,12.9338659 L109.363303,12.9330915 C109.363303,12.6191537 109.618227,12.364689 109.932731,12.364689 L111.072672,12.364689 Z M99.3010367,1.70629146 L99.3010367,0.568402439 C99.3010367,0.254464634 99.5559603,0 99.8704643,0 L99.8712401,0 C100.185744,0 100.440668,0.254464634 100.440668,0.568402439 L100.440668,1.70629146 L101.580609,1.70629146 C101.895113,1.70629146 102.150037,1.9607561 102.150037,2.2746939 L102.150037,2.27546829 C102.150037,2.5894061 101.895113,2.84387073 101.580609,2.84387073 L100.440668,2.84387073 L100.440668,3.98175976 C100.440668,4.29569756 100.185744,4.5501622 99.8712401,4.5501622 L99.8704643,4.5501622 C99.5559603,4.5501622 99.3010367,4.29569756 99.3010367,3.98175976 L99.3010367,2.84387073 L98.1609402,2.84387073 C97.8465914,2.84387073 97.5915126,2.5894061 97.5916678,2.27546829 L97.5916678,2.2746939 C97.5915126,1.9607561 97.8465914,1.70629146 98.1609402,1.70629146 L99.3010367,1.70629146 Z" id="Fill-5" fill="#7FAFF5"></path>
                    <path d="M47.9692329,15.46225 L47.9692329,14.324361 C47.9692329,14.0104232 48.2241565,13.7559585 48.5386605,13.7559585 L48.5392812,13.7559585 C48.8537852,13.7559585 49.1088639,14.0104232 49.1088639,14.324361 L49.1088639,15.46225 L50.2488052,15.46225 C50.5633092,15.46225 50.8182328,15.7167146 50.8182328,16.0306524 L50.8182328,16.0314268 C50.8182328,16.3453646 50.5633092,16.5998293 50.2488052,16.5998293 L49.1088639,16.5998293 L49.1088639,17.7378732 C49.1088639,18.0516561 48.8537852,18.3062756 48.5392812,18.3061207 L48.5386605,18.3061207 C48.2241565,18.3062756 47.9692329,18.0516561 47.9692329,17.7378732 L47.9692329,16.5998293 L46.8291365,16.5998293 C46.5146324,16.5998293 46.2597089,16.3453646 46.2597089,16.0314268 L46.2597089,16.0306524 C46.2597089,15.7167146 46.5146324,15.46225 46.8291365,15.46225 L47.9692329,15.46225 Z" id="Fill-6" fill="#7FAFF5"></path>
                    <path d="M51.1443737,123.531971 C51.2598108,123.562946 51.2927041,123.563566 51.3975905,123.623968 C51.5546098,123.714417 51.6765635,123.859693 51.7386264,124.029749 C51.7800535,124.143274 51.7749333,124.175644 51.785484,124.29459 L51.785484,125.396238 C51.7814499,125.441152 51.7814499,125.486377 51.773692,125.530672 C51.7421951,125.708937 51.6472387,125.873107 51.5083729,125.989421 C51.4390175,126.0475 51.3600424,126.093034 51.2750162,126.12401 C50.9256017,126.250855 50.5237441,126.10496 50.3378656,125.783433 C50.2925596,125.70522 50.261373,125.619727 50.2457021,125.530672 C50.2377891,125.486377 50.2377891,125.441152 50.2339101,125.396238 L50.2339101,124.29459 C50.2443057,124.175644 50.2393406,124.143274 50.2806125,124.029749 C50.3585015,123.816327 50.5304159,123.644567 50.7443779,123.566973 C50.8579531,123.525621 50.8905362,123.530577 51.009697,123.5202 C51.0545375,123.524072 51.099378,123.528099 51.1443737,123.531971 L51.1443737,123.531971 Z M111.379884,123.084838 C111.495321,123.115813 111.528214,123.116433 111.633101,123.176835 C111.79012,123.267284 111.912074,123.41256 111.974137,123.582616 C112.015564,123.696141 112.010444,123.728511 112.020994,123.847457 L112.020994,125.396238 C112.01696,125.441152 112.01696,125.486377 112.009202,125.530672 C111.993376,125.619727 111.96219,125.70522 111.917039,125.783433 C111.871733,125.861646 111.813083,125.931341 111.743883,125.989421 C111.459014,126.228088 111.0314,126.228088 110.746532,125.989421 C110.607511,125.873107 110.512709,125.708937 110.481212,125.530672 C110.473299,125.486377 110.473299,125.441152 110.46942,125.396238 L110.46942,123.847457 C110.479816,123.728511 110.474696,123.696141 110.516123,123.582616 C110.594012,123.369194 110.765926,123.197434 110.979888,123.11984 C111.093463,123.078488 111.126046,123.083444 111.245207,123.073067 C111.290048,123.076939 111.334888,123.080966 111.379884,123.084838 L111.379884,123.084838 Z M51.773692,121.331463 C51.7619,121.374984 51.753987,121.419589 51.7386264,121.461871 C51.7077501,121.546744 51.6621338,121.625577 51.6039498,121.694807 C51.3648523,121.979163 50.9437552,122.05335 50.6218036,121.867651 C50.5434491,121.822582 50.4734731,121.764038 50.4152891,121.694807 C50.3280907,121.591039 50.2691308,121.464813 50.2457021,121.331463 C50.2377891,121.287168 50.2377891,121.241944 50.2339101,121.197029 L50.2339101,115.001907 C50.2377891,114.957148 50.2377891,114.911768 50.2457021,114.867473 C50.261373,114.778418 50.2925596,114.692926 50.3378656,114.614712 C50.3830164,114.536499 50.4416659,114.466804 50.5110212,114.408724 C50.7958902,114.170057 51.2235039,114.170057 51.5083729,114.408724 C51.6472387,114.525038 51.7421951,114.689209 51.773692,114.867473 C51.7814499,114.911768 51.7814499,114.957148 51.785484,115.001907 L51.785484,121.197029 C51.7814499,121.241944 51.7775709,121.286704 51.773692,121.331463 L51.773692,121.331463 Z M112.009202,120.88433 C111.99741,120.927851 111.989497,120.972456 111.974137,121.014738 C111.94326,121.099611 111.897644,121.178444 111.83946,121.247674 C111.600363,121.53203 111.179265,121.606217 110.857314,121.420518 C110.778959,121.375449 110.708983,121.316905 110.650799,121.247674 C110.563601,121.143906 110.504641,121.01768 110.481212,120.88433 C110.473299,120.840035 110.473299,120.794811 110.46942,120.749896 L110.46942,114.554774 C110.473299,114.510015 110.473299,114.464635 110.481212,114.42034 C110.496883,114.33144 110.52807,114.245793 110.573221,114.167579 C110.759254,113.846207 111.161112,113.700157 111.510526,113.827157 C111.595553,113.857978 111.674528,113.903512 111.743883,113.961591 C111.882749,114.077905 111.977705,114.242076 112.009202,114.42034 C112.01696,114.464635 112.01696,114.510015 112.020994,114.554774 L112.020994,120.749896 C112.01696,120.794811 112.013081,120.839571 112.009202,120.88433 L112.009202,120.88433 Z M51.773692,112.03878 C51.7619,112.082301 51.753987,112.126906 51.7386264,112.169188 C51.7077501,112.254061 51.6621338,112.332894 51.6039498,112.402124 C51.3648523,112.68648 50.9437552,112.760667 50.6218036,112.574968 C50.5434491,112.529899 50.4734731,112.471355 50.4152891,112.402124 C50.3280907,112.298356 50.2691308,112.17213 50.2457021,112.03878 C50.2377891,111.994485 50.2377891,111.949261 50.2339101,111.904346 L50.2339101,105.709224 C50.2377891,105.664465 50.2377891,105.619085 50.2457021,105.57479 C50.261373,105.485735 50.2925596,105.400243 50.3378656,105.322029 C50.3830164,105.243816 50.4416659,105.174121 50.5110212,105.116041 C50.7958902,104.877374 51.2235039,104.877374 51.5083729,105.116041 C51.6472387,105.232355 51.7421951,105.396526 51.773692,105.57479 C51.7814499,105.619085 51.7814499,105.664465 51.785484,105.709224 L51.785484,111.904346 C51.7814499,111.949261 51.7775709,111.994021 51.773692,112.03878 L51.773692,112.03878 Z M112.009202,111.591648 C111.99741,111.635168 111.989497,111.679773 111.974137,111.722055 C111.94326,111.806928 111.897644,111.885761 111.83946,111.954991 C111.600363,112.239348 111.179265,112.313534 110.857314,112.127835 C110.778959,112.082766 110.708983,112.024222 110.650799,111.954991 C110.563601,111.851223 110.504641,111.724998 110.481212,111.591648 C110.473299,111.547352 110.473299,111.502128 110.46942,111.457213 L110.46942,105.262091 C110.473299,105.217332 110.473299,105.171952 110.481212,105.127657 C110.496883,105.038757 110.52807,104.95311 110.573221,104.874896 C110.759254,104.553524 111.161112,104.407474 111.510526,104.534474 C111.595553,104.565295 111.674528,104.610829 111.743883,104.668909 C111.882749,104.785222 111.977705,104.949393 112.009202,105.127657 C112.01696,105.171952 112.01696,105.217332 112.020994,105.262091 L112.020994,111.457213 C112.01696,111.502128 112.013081,111.546888 112.009202,111.591648 L112.009202,111.591648 Z M51.773692,102.746098 C51.7619,102.789618 51.753987,102.834223 51.7386264,102.876505 C51.7077501,102.961378 51.6621338,103.040211 51.6039498,103.109441 C51.3648523,103.393798 50.9437552,103.467984 50.6218036,103.282285 C50.5434491,103.237216 50.4734731,103.178672 50.4152891,103.109441 C50.3280907,103.005673 50.2691308,102.879448 50.2457021,102.746098 C50.2377891,102.701802 50.2377891,102.656578 50.2339101,102.611663 L50.2339101,96.4165415 C50.2377891,96.3717817 50.2377891,96.3264024 50.2457021,96.2821073 C50.261373,96.1930524 50.2925596,96.1075598 50.3378656,96.0293463 C50.3830164,95.9511329 50.4416659,95.8814378 50.5110212,95.8233585 C50.7958902,95.5846915 51.2235039,95.5846915 51.5083729,95.8233585 C51.6472387,95.939672 51.7421951,96.1038427 51.773692,96.2821073 C51.7814499,96.3264024 51.7814499,96.3717817 51.785484,96.4165415 L51.785484,102.611663 C51.7814499,102.656578 51.7775709,102.701338 51.773692,102.746098 L51.773692,102.746098 Z M112.009202,102.298965 C111.99741,102.342485 111.989497,102.38709 111.974137,102.429372 C111.94326,102.514245 111.897644,102.593078 111.83946,102.662309 C111.600363,102.946665 111.179265,103.020851 110.857314,102.835152 C110.778959,102.790083 110.708983,102.731539 110.650799,102.662309 C110.563601,102.55854 110.504641,102.432315 110.481212,102.298965 C110.473299,102.25467 110.473299,102.209445 110.46942,102.16453 L110.46942,95.9694085 C110.473299,95.9246488 110.473299,95.8792695 110.481212,95.8349744 C110.512709,95.6567098 110.607511,95.492539 110.746532,95.3762256 C110.815732,95.3181463 110.894707,95.2726122 110.979888,95.2417915 C111.329303,95.1147915 111.731005,95.2608415 111.917039,95.5822134 C111.96219,95.6604268 111.993376,95.7460744 112.009202,95.8349744 C112.01696,95.8792695 112.01696,95.9246488 112.020994,95.9694085 L112.020994,102.16453 C112.01696,102.209445 112.013081,102.254205 112.009202,102.298965 L112.009202,102.298965 Z M52.2242691,86.4578829 C52.3417232,86.4803402 52.3746166,86.4787915 52.4833819,86.53145 C52.7303924,86.650861 52.8988934,86.8989756 52.9187535,87.1723354 C52.9275975,87.2928305 52.9137885,87.3225671 52.8912907,87.4398098 C52.8461399,87.5987146 52.8031613,87.7583939 52.7598723,87.9177634 C52.5203093,88.8445537 52.3156568,89.7781585 52.1623613,90.7230695 C52.0273743,91.5543 51.9341247,92.3892476 51.8664761,93.2283768 L51.8563909,93.3736524 C51.8494088,93.4181024 51.8463057,93.4633268 51.8354446,93.5070024 C51.7918454,93.6826341 51.6858729,93.8399902 51.5394044,93.9465463 C51.4663252,93.9996695 51.3844021,94.0397829 51.2973588,94.0647183 C50.9401865,94.1675573 50.5491899,93.9945585 50.385654,93.6611061 C50.3459338,93.5801049 50.3206431,93.4925988 50.3110233,93.4027695 C50.3062135,93.3580098 50.3093166,93.3127854 50.3085408,93.2678707 C50.3206431,93.089761 50.3353831,92.911961 50.3496575,92.734161 C50.3968254,92.229878 50.4498892,91.7266793 50.5186239,91.2248744 C50.6553176,90.2260659 50.8413513,89.2339171 51.0756389,88.2532293 C51.1339781,88.008522 51.1954204,87.7652085 51.2598108,87.5218951 C51.2919283,87.4006256 51.325132,87.2793561 51.3584908,87.1582415 C51.3816093,87.0742976 51.4082964,86.9699098 51.4469306,86.8904573 C51.5260608,86.7276805 51.662289,86.5955695 51.8276868,86.5215378 C51.9381588,86.4721317 51.970897,86.4747646 52.0889718,86.4558695 C52.1341226,86.456489 52.1791183,86.4572634 52.2242691,86.4578829 L52.2242691,86.4578829 Z M110.164846,86.0457524 C110.278267,86.0835427 110.31116,86.0861756 110.412167,86.1526183 C110.525277,86.2272695 110.617906,86.3315024 110.678573,86.4526171 C110.698743,86.4928854 110.711621,86.5362512 110.728223,86.5780683 C110.81449,86.8676902 110.813404,86.8673805 110.896258,87.1582415 C111.160181,88.1302561 111.387797,89.1098598 111.561263,90.1024732 C111.713628,90.9750561 111.822858,91.8524402 111.905092,92.734161 L111.911453,92.8126841 C111.911143,92.8577537 111.914711,92.9028232 111.910522,92.9477378 C111.893455,93.127861 111.811997,93.2991561 111.682906,93.4261561 C111.618516,93.4896561 111.54342,93.5413854 111.461186,93.5790207 C111.123098,93.7334341 110.710845,93.6202183 110.499676,93.3146439 C110.448164,93.2403024 110.410305,93.1575976 110.387497,93.0700915 C110.376016,93.0265707 110.372447,92.9813463 110.364844,92.9370512 C110.353363,92.7940988 110.339088,92.6514561 110.325745,92.5086585 C110.250028,91.7921927 110.156778,91.0786695 110.032652,90.3687085 C109.834982,89.2376341 109.568887,88.1200341 109.241039,87.0196256 L109.213887,86.8873598 C109.210629,86.7681037 109.20194,86.7363537 109.230023,86.6189561 C109.293793,86.352411 109.500307,86.1348073 109.763454,86.0565939 C109.879357,86.022211 109.91163,86.0291805 110.031101,86.025928 C110.075786,86.0325878 110.120316,86.0390927 110.164846,86.0457524 L110.164846,86.0457524 Z M56.189316,78.0616341 C56.3027361,78.0991146 56.3356294,78.1017476 56.4366369,78.1681902 C56.7061453,78.3452159 56.8394255,78.6805268 56.7649499,78.9938451 C56.7370216,79.1113976 56.7149892,79.1357134 56.6582016,79.2408756 C56.4887698,79.4976634 56.4897007,79.4975085 56.3236823,79.7561549 C55.8175589,80.566322 55.3421567,81.3935256 54.9123708,82.2469037 C54.5368899,82.9924866 54.1989571,83.7535573 53.8839876,84.5262439 L53.8630414,84.5793671 C53.8428709,84.6196354 53.8262691,84.6617622 53.8028403,84.700172 C53.7555173,84.7773012 53.6951611,84.8454476 53.6244093,84.9018232 C53.5536575,84.9580439 53.4734412,85.0015646 53.3876391,85.0302171 C53.0351215,85.1482341 52.6371429,84.9921171 52.4594877,84.6659439 C52.3729098,84.507039 52.3446712,84.3194817 52.3806677,84.1421463 C52.3896668,84.0980061 52.4062687,84.0558793 52.4189916,84.0126683 C52.4729863,83.8756012 52.5296188,83.7393085 52.5853203,83.602861 C52.734892,83.2485 52.8850844,82.8942939 53.0475341,82.5455085 C53.0475341,82.5455085 53.1457488,82.3331707 53.1957094,82.2275439 C53.2495491,82.1141732 53.3044748,82.001422 53.358935,81.888361 C53.526505,81.5504171 53.5261947,81.5511915 53.6976436,81.2158805 C54.1078797,80.4373085 54.5410791,79.6725207 55.0121369,78.9286415 C55.0794753,78.8223951 55.1474342,78.7164585 55.2160138,78.6108317 C55.2630264,78.5383488 55.3702402,78.3636463 55.445957,78.2834195 C55.5392066,78.1849171 55.657902,78.1119695 55.7879239,78.0730951 C55.9038264,78.0385573 55.935944,78.045372 56.0555704,78.0419646 C56.1001005,78.0484695 56.1446307,78.0551293 56.189316,78.0616341 L56.189316,78.0616341 Z M106.075208,77.6736646 C106.119583,77.6821829 106.164734,77.6868293 106.208023,77.6992195 C106.33851,77.7363902 106.458137,77.8080988 106.552472,77.9053622 C106.583814,77.9377317 106.60926,77.9752122 106.637654,78.0102146 C106.840134,78.3092841 106.839513,78.3086646 107.038735,78.6108317 C107.785818,79.7748951 108.466959,80.9770585 109.058885,82.2275439 C109.219938,82.5676561 109.37463,82.9105561 109.523116,83.2562439 C109.548561,83.3154073 109.673618,83.5869085 109.701702,83.709572 C109.721717,83.7976976 109.726217,83.888611 109.715045,83.9781305 C109.662447,84.3967659 109.267882,84.70265 108.848646,84.6501463 C108.668819,84.6275341 108.499853,84.5411122 108.376502,84.4083817 C108.294269,84.3197915 108.286201,84.2878866 108.230344,84.1824146 C108.094116,83.8598037 108.094426,83.8604232 107.954009,83.5388963 C107.610646,82.7781354 107.24494,82.0291451 106.842151,81.2976561 C106.384747,80.4665805 105.884054,79.6630732 105.352175,78.8775317 L105.286543,78.7595146 C105.247443,78.6466085 105.2296,78.6190402 105.221067,78.4985451 C105.198259,78.177328 105.384137,77.8678817 105.678626,77.7367 C105.789098,77.6874488 105.821991,77.6902366 105.940066,77.6713415 C105.985062,77.6721159 106.030212,77.6728902 106.075208,77.6736646 L106.075208,77.6736646 Z M62.4044554,71.2143207 C62.4477443,71.226711 62.4922745,71.2353841 62.5343221,71.2514915 C62.6188829,71.283861 62.6970822,71.330789 62.7653515,71.3901073 C63.0086383,71.601361 63.0959919,71.9515402 62.9802445,72.2521585 C62.9478166,72.3364122 62.9008039,72.4144707 62.8415338,72.4826171 C62.8118987,72.5165354 62.7765228,72.5450329 62.7440949,72.5763183 C62.4969292,72.776111 62.497705,72.776111 62.2525563,72.9790012 C61.6066361,73.5277341 60.9788693,74.0952073 60.3788757,74.6939659 C59.700838,75.3709378 59.0617447,76.0822927 58.4493385,76.8187378 L58.354227,76.9147622 C58.3174547,76.9407817 58.2828546,76.9700537 58.2439101,76.9926659 C58.1267663,77.061122 57.9922448,77.097828 57.8566373,77.0986024 C57.7660254,77.0990671 57.6761892,77.0837341 57.5910078,77.0532232 C57.2408176,76.9282366 57.0251489,76.5596268 57.0876773,76.1938049 C57.1028827,76.10475 57.1336039,76.0191024 57.1784444,75.9405793 C57.200787,75.90155 57.2298015,75.8665476 57.2554024,75.8295317 C57.4864318,75.5518354 57.4861215,75.5526098 57.7200988,75.2781659 C58.6432852,74.2214329 59.6232593,73.2187524 60.6766228,72.2902585 C60.9624227,72.038272 61.2530324,71.791861 61.5478315,71.5504061 C61.6887144,71.4348671 61.8274251,71.3026012 62.003839,71.2420439 C62.11819,71.2028598 62.1506179,71.2084354 62.2699339,71.200072 C62.3147744,71.2048732 62.3596149,71.2095195 62.4044554,71.2143207 L62.4044554,71.2143207 Z M99.7593716,70.9302744 C99.8757397,70.9576878 99.908633,70.957378 100.015071,71.014528 C100.054791,71.0359012 100.090477,71.0639341 100.128181,71.0885598 C100.419256,71.3179341 100.418635,71.3174695 100.707073,71.5504061 C101.689064,72.3636707 102.628542,73.2237085 103.508595,74.1469366 C103.772207,74.4233939 104.030699,74.7049622 104.283761,74.991022 C104.368011,75.086272 104.451641,75.1819866 104.53465,75.278011 C104.591283,75.3435244 104.728597,75.4943756 104.784454,75.589161 C104.998261,75.9531244 104.872118,76.4355695 104.507653,76.6489915 C104.429609,76.6946805 104.344117,76.7264305 104.255057,76.7426927 C104.076781,76.775372 103.889506,76.743622 103.731866,76.6542573 C103.626669,76.5946293 103.609447,76.5665963 103.524266,76.4828073 C103.324113,76.2478573 103.324113,76.2487866 103.120856,76.0163146 C102.554687,75.3841024 101.969744,74.7707854 101.354234,74.1861207 C100.655716,73.522778 99.9238385,72.900478 99.1671359,72.3045073 L99.0686109,72.2118902 C99.0416136,72.1758037 99.011513,72.1420402 98.9877739,72.1037854 C98.9401406,72.026811 98.9064715,71.9424024 98.8880077,71.8538122 C98.8225313,71.5386354 98.9652761,71.2071963 99.2397495,71.0379146 C99.3167076,70.9903671 99.4014235,70.9566037 99.4900184,70.938328 C99.5340831,70.9291902 99.5795442,70.9277963 99.6242295,70.9225305 C99.6692252,70.9250085 99.714376,70.9276415 99.7593716,70.9302744 L99.7593716,70.9302744 Z M70.4155415,66.5901268 C70.4591407,66.6011232 70.5039812,66.6085573 70.5466495,66.6232707 C70.6319861,66.6531622 70.7115818,66.6976122 70.7817129,66.7547622 C71.1089399,67.0216171 71.1590557,67.5176915 70.8915644,67.8443293 C70.8343113,67.9143341 70.7652662,67.9738073 70.6875324,68.019961 C70.6487431,68.0428829 70.6063851,68.0589902 70.5657338,68.0785049 C70.3412211,68.1635329 70.1199667,68.254911 69.8976262,68.3452049 C69.12758,68.6692098 68.3688604,69.0158268 67.6267427,69.3997695 C66.7912201,69.8318793 65.9809883,70.3065805 65.1889098,70.8131866 L65.0691283,70.8757573 C65.0261497,70.8893866 64.9842572,70.9068878 64.9401925,70.9168 C64.8078433,70.9463817 64.668512,70.9406512 64.5389555,70.900228 C64.1841106,70.7896451 63.9533916,70.4301732 64.0008697,70.062028 C64.0125065,69.9725085 64.0396591,69.885622 64.0812413,69.8053951 C64.1228234,69.7251683 64.1782146,69.6526854 64.2447771,69.5915085 C64.2779808,69.5609976 64.3161495,69.5365268 64.3518357,69.5091134 C64.6457038,69.3210915 64.6452384,69.3218659 64.9420544,69.1370963 C65.8030228,68.6159317 66.6810584,68.1271366 67.5864017,67.6865085 C68.3772389,67.3016366 69.184678,66.9562585 70.0034435,66.6350415 L70.0160112,66.6302402 C70.1463434,66.5935341 70.1461883,66.593689 70.2807097,66.5800598 C70.3255502,66.5834671 70.3705459,66.5867195 70.4155415,66.5901268 L70.4155415,66.5901268 Z M91.6800163,66.4344744 L91.8106588,66.4694768 C91.9580583,66.5232195 92.1045269,66.5794402 92.2513058,66.6350415 C93.1873703,67.0022573 94.1071432,67.4021524 95.0061251,67.8534671 C95.7935489,68.248561 96.5594057,68.6809805 97.3126948,69.1370963 L97.5167268,69.2640963 C97.5528785,69.2912 97.5913575,69.3152061 97.6248715,69.3452524 C97.7597032,69.4662122 97.8490739,69.6334805 97.8745197,69.8126744 C97.9266526,70.1802 97.7004331,70.5424598 97.3468294,70.6575341 C97.2608723,70.6855671 97.1705707,70.6982671 97.0801139,70.6951695 C96.9896571,70.6922268 96.9004416,70.6733317 96.8165015,70.6395683 C96.7747642,70.6228415 96.73613,70.5988354 96.6959442,70.5783915 C96.4455202,70.4225841 96.4456754,70.4236683 96.1930791,70.2706488 C95.4725282,69.8464378 94.7404957,69.4446841 93.9884478,69.0787073 C93.1293414,68.6606915 92.2514609,68.2913073 91.3580647,67.9533634 L91.2786241,67.9244012 C91.2378177,67.9053512 91.1951494,67.8898634 91.1562049,67.8672512 C91.0778505,67.8220268 91.0080296,67.7634829 90.9498456,67.6942524 C90.6786305,67.3708671 90.72254,66.8741732 91.0465087,66.6032915 C91.1504641,66.5164049 91.2770725,66.4577061 91.4106631,66.4343195 C91.4550381,66.4264207 91.5004992,66.4264207 91.5453397,66.4225488 C91.5901801,66.4265756 91.6351758,66.4306024 91.6800163,66.4344744 L91.6800163,66.4344744 Z M79.4449255,64.6250341 C79.4889902,64.6343268 79.534141,64.6397476 79.5772748,64.6527573 C79.6638526,64.6787768 79.7453102,64.7198195 79.8177687,64.7740268 C80.1153606,64.9964317 80.2129546,65.4119695 80.0452294,65.7432537 C80.0044231,65.8239451 79.9498077,65.8967378 79.8838658,65.958689 C79.7848754,66.0513061 79.6619907,66.1171293 79.5297966,66.14795 C79.4858871,66.158172 79.4405811,66.1608049 79.3960509,66.1671549 C79.2461689,66.1755183 79.0965972,66.1865146 78.9468703,66.1967366 C78.3461009,66.2450585 77.7471934,66.3043768 77.1499926,66.3858427 C75.8989586,66.5566732 74.6601821,66.8091244 73.441576,67.1387049 L73.3084509,67.1624012 C73.2634553,67.1625561 73.2181493,67.1665829 73.1733089,67.1628659 C73.0380116,67.1514049 72.9069036,67.1041671 72.7955006,67.026728 C72.4903061,66.8147 72.3784376,66.4027244 72.5346811,66.0658646 C72.5726946,65.9839341 72.6248275,65.909128 72.6885972,65.8451634 C72.7523669,65.7810439 72.8269976,65.7286951 72.9089207,65.6902854 C72.9497271,65.6710805 72.9934815,65.6593098 73.0358394,65.643822 C73.3152779,65.5682415 73.3149676,65.5693256 73.5958024,65.4971524 C74.5768626,65.2572463 75.5644393,65.0538915 76.5639632,64.9050537 C77.4429298,64.7740268 78.3259305,64.6866756 79.2124998,64.6262732 C79.329023,64.6197683 79.3285575,64.621472 79.4449255,64.6250341 L79.4449255,64.6250341 Z M82.6608726,64.6050549 C83.6757571,64.6614305 84.685211,64.7551317 85.6907861,64.9050537 C86.6899996,65.0538915 87.6778867,65.2572463 88.6589468,65.4971524 L88.7765561,65.5273537 C88.8190692,65.5423768 88.8629788,65.5536829 88.9040955,65.5722683 C89.069183,65.6472293 89.2046354,65.7799598 89.2828347,65.9433561 C89.4432674,66.2782024 89.3365191,66.691572 89.0339622,66.9073171 C88.9602625,66.9598207 88.8780291,66.9991598 88.7908306,67.0233207 C88.7036322,67.0474817 88.6128651,67.0563098 88.5227186,67.0493402 C88.477723,67.045778 88.4336583,67.034472 88.3892833,67.0271927 C88.2372291,66.9880085 88.0847093,66.9513024 87.9321896,66.9139768 C87.3484876,66.7787683 86.7630787,66.6545561 86.1727049,66.5517171 C84.9326871,66.3356622 83.6785499,66.1993695 82.4208442,66.1448524 L82.2867882,66.1271963 C82.2438096,66.113722 82.1994346,66.1039646 82.1578524,66.0866183 C82.0324852,66.034889 81.9217029,65.9501707 81.8391591,65.8426854 C81.6127845,65.5482622 81.6312482,65.1218829 81.882448,64.8480585 C81.94358,64.781461 82.0158834,64.7260146 82.0960998,64.6843524 C82.1764713,64.6426902 82.2633594,64.6152768 82.3530404,64.6035061 C82.3978809,64.5976207 82.4431868,64.5994793 82.4881825,64.5974659 C82.5457459,64.5999439 82.6033092,64.6025768 82.6608726,64.6050549 L82.6608726,64.6050549 Z M86.0723181,55.5784524 C86.1104868,55.5843378 86.1492761,55.5874354 86.1868242,55.5961085 C86.3000891,55.6222829 86.4068374,55.6740122 86.4974493,55.74665 C86.5578055,55.7951268 86.6107142,55.8524317 86.6541583,55.9165512 C86.8544664,56.2122134 86.822504,56.6183037 86.5782863,56.8791183 C86.4990009,56.9639915 86.4006311,57.0302793 86.2923312,57.0722512 C86.2563347,57.0861902 86.2184763,57.0947085 86.1813937,57.1060146 C85.9841887,57.1501549 85.7862078,57.1885646 85.5877615,57.2277488 C84.9075516,57.3536646 84.2243936,57.4577427 83.5358051,57.5275927 C82.8362005,57.5986817 82.1347339,57.633839 81.4317158,57.6473134 L81.3992879,57.6474683 C81.3608089,57.6448354 81.3218644,57.6451451 81.2836957,57.6395695 C81.1300899,57.617422 80.9848626,57.5486561 80.8703564,57.4441134 C80.5749368,57.1738512 80.5370784,56.7082878 80.7848647,56.3940402 C80.8328083,56.333328 80.8895959,56.28005 80.9533656,56.2360646 C81.0489426,56.1700866 81.1592595,56.1261012 81.2740759,56.1081354 C81.3122446,56.1020951 81.351034,56.1017854 81.389513,56.0986878 C81.5862526,56.0974488 81.7823715,56.0904793 81.9788008,56.0842841 C83.2770026,56.0266695 84.5725668,55.8792256 85.841599,55.5948695 L85.9564155,55.5779878 C85.9950497,55.5781427 86.0336839,55.5782976 86.0723181,55.5784524 L86.0723181,55.5784524 Z M73.9113925,54.9003963 L74.0235713,54.9298232 C74.2080535,54.9936329 74.3942423,55.0523317 74.580276,55.1113402 C75.8258795,55.4900171 77.0980149,55.7757671 78.3917172,55.9318841 L78.5054476,55.9543415 C78.5417544,55.9673512 78.5793025,55.977728 78.6145232,55.9933707 C78.7206508,56.0407634 78.8156072,56.1118524 78.8907033,56.2002878 C78.940664,56.2594512 78.9816256,56.3255841 79.0120364,56.396828 C79.1524538,56.7251695 79.0435334,57.1177854 78.7540097,57.3274902 C78.6284874,57.4184037 78.476278,57.4701329 78.3211206,57.4747793 C78.2824864,57.4758634 78.2440074,57.4712171 78.2053732,57.4695134 C77.9827223,57.4425646 77.7611576,57.41035 77.5392825,57.3778256 C76.8613999,57.2698756 76.188172,57.141172 75.5209953,56.97855 C74.8618867,56.8177866 74.2122427,56.6248085 73.5681844,56.4115415 L73.5166722,56.3937305 C73.4811411,56.3783976 73.4443688,56.3656976 73.4102342,56.3478866 C73.3072097,56.293989 73.2169081,56.2170146 73.1475527,56.1239329 C72.9342113,55.8375634 72.9478652,55.430389 73.1801358,55.1588878 C73.2304068,55.1000341 73.2893666,55.0490793 73.354843,55.0077268 C73.4529025,54.9456207 73.5649261,54.905972 73.680208,54.8926524 C73.7186871,54.888161 73.7574764,54.8894 73.7961106,54.8878512 C73.8345896,54.8920329 73.8729135,54.8962146 73.9113925,54.9003963 L73.9113925,54.9003963 Z M93.3132029,52.6861049 C93.3504407,52.6963268 93.3884542,52.7039159 93.4249162,52.7169256 C93.534147,52.7562646 93.6340684,52.8202293 93.715526,52.9029341 C93.9662603,53.1575537 94.008308,53.5628695 93.8154474,53.8634878 C93.7496606,53.9658622 93.6663411,54.034628 93.5690574,54.1049427 C93.3383384,54.246811 93.3388039,54.2465012 93.1066884,54.385272 C92.2007245,54.9127866 91.2680734,55.3899659 90.3020635,55.7980695 C90.0372099,55.9098915 89.770184,56.0169122 89.5014514,56.1191317 C89.3511039,56.1762817 89.1970326,56.2473707 89.0333416,56.2568183 C88.9559181,56.2613098 88.8783394,56.2541854 88.803088,56.2357549 C88.4556907,56.150572 88.2066631,55.8278061 88.212559,55.4709671 C88.2138003,55.393528 88.2266784,55.3168634 88.2508829,55.2432963 C88.2989817,55.0960073 88.3917658,54.9649805 88.5146505,54.87035 C88.5967287,54.8073146 88.6235709,54.8012744 88.7168205,54.7583732 C88.9594867,54.6679244 88.9590212,54.6679244 89.2002909,54.5745329 C89.7807347,54.3417512 90.3524897,54.0920878 90.9126078,53.8139268 C91.5434778,53.5009183 92.1555737,53.1550756 92.7552569,52.786311 L92.8582815,52.7331878 C92.8948986,52.7207976 92.9305848,52.7056195 92.9679777,52.6958622 C93.0682094,52.6699976 93.0953619,52.6749537 93.1980761,52.672011 C93.2364,52.6768122 93.2747239,52.6814585 93.3132029,52.6861049 L93.3132029,52.6861049 Z M67.1649943,51.2149183 C67.2632089,51.2451195 67.2906718,51.2474427 67.3803527,51.2990171 C67.4138667,51.3183768 67.4442776,51.3423829 67.47624,51.3642207 C67.6331041,51.4887427 67.7926059,51.6095476 67.952418,51.7301976 C68.3791008,52.0450646 68.8127657,52.3489354 69.2594638,52.6349951 C69.9061598,53.0489841 70.5745778,53.4273512 71.2605286,53.7728841 L71.3598293,53.8325122 C71.3896196,53.8571378 71.4212717,53.8795951 71.4490448,53.906389 C71.5607582,54.0138744 71.6386472,54.1543488 71.6702993,54.3059744 C71.6861253,54.3817098 71.6904697,54.4594585 71.6833325,54.5364329 C71.6499737,54.891878 71.3668114,55.185372 71.0121216,55.2319902 C70.8969949,55.2470134 70.7787649,55.2360171 70.668448,55.1997756 C70.6316757,55.1876951 70.5970756,55.1701939 70.5612343,55.1554805 C70.350996,55.0495439 70.3516167,55.0492341 70.14293,54.9408195 C69.5569005,54.6273463 68.9814218,54.2969915 68.4217691,53.9386037 C67.7845377,53.5306549 67.1710454,53.0897171 66.573224,52.6261671 L66.510075,52.5761415 C66.4818363,52.5498122 66.4514255,52.5256512 66.4250487,52.4974634 C66.3459185,52.4124354 66.2864932,52.3099061 66.2520482,52.1991683 C66.1463861,51.8581268 66.2950268,51.4786756 66.6045658,51.2999463 C66.7051078,51.2417122 66.8185278,51.2067098 66.9344304,51.1978817 C66.9729094,51.1950939 67.0116988,51.1978817 67.050333,51.1978817 C67.0885017,51.2034573 67.1268256,51.2091878 67.1649943,51.2149183 L67.1649943,51.2149183 Z M99.0484405,47.560261 C99.1654292,47.5867451 99.2690743,47.617411 99.3699266,47.6858671 C99.6309013,47.8630476 99.7599923,48.1904598 99.6900163,48.4975829 C99.6630189,48.6162195 99.6080932,48.7091463 99.5404446,48.8082683 C99.4087159,48.973678 99.2729532,49.1356805 99.1371905,49.2979927 C98.4622559,50.0852378 97.7463597,50.8346927 96.9780203,51.5317988 C96.7685579,51.7218341 96.5555268,51.9078427 96.3397029,52.0904439 C96.2258173,52.1866232 96.1158108,52.2902366 95.9763243,52.3486256 C95.9047967,52.3785171 95.8292351,52.3975671 95.7521218,52.4050012 C95.3961908,52.4398488 95.0537585,52.2180634 94.9406487,51.8793451 C94.9161338,51.8059329 94.9027903,51.7292683 94.9009284,51.6519841 C94.897515,51.4971061 94.9412693,51.3426927 95.0258301,51.21275 C95.0821523,51.1260183 95.105581,51.1114598 95.1791256,51.040061 C95.3601943,50.8892098 95.3595737,50.8892098 95.5387804,50.7361902 C96.5482344,49.8524561 97.4897294,48.8934512 98.3264932,47.8438427 L98.4053131,47.7589695 C98.4354137,47.7348085 98.4639626,47.7084793 98.495925,47.6866415 C98.5918123,47.6212829 98.7022844,47.5777622 98.8171008,47.5604159 C98.8554247,47.5546854 98.894214,47.5545305 98.9326931,47.5517427 C98.9713273,47.5545305 99.0098063,47.5573183 99.0484405,47.560261 L99.0484405,47.560261 Z M61.9153993,45.4690976 C62.0162516,45.4878378 62.0438696,45.4872183 62.1389811,45.5281061 C62.2455742,45.5742598 62.3413063,45.6442646 62.4173335,45.7319256 C62.4427793,45.7610427 62.4635704,45.7938768 62.4865337,45.8248524 C62.6097286,46.0190695 62.7360267,46.2108085 62.8638764,46.401928 C63.581169,47.4479744 64.3732475,48.4391939 65.2556275,49.3520451 L65.3296376,49.4411 C65.3496529,49.474089 65.3721507,49.5056841 65.3895283,49.540222 C65.4596595,49.6783732 65.4866569,49.8365037 65.4664864,49.9901427 C65.4200943,50.344039 65.1263814,50.6270012 64.7704504,50.6606098 C64.693182,50.667889 64.6154481,50.6637073 64.539421,50.6479098 C64.4256907,50.6243683 64.3178563,50.5749622 64.2255376,50.5044927 C64.1948165,50.4809512 64.1678191,50.4530732 64.139115,50.4273634 C63.9825612,50.2655159 63.8297311,50.1005707 63.6770563,49.9350061 C63.2354784,49.4441976 62.809261,48.9411537 62.4070931,48.417511 C62.0039942,47.8927841 61.6268066,47.3500915 61.2659105,46.7957829 L61.1754538,46.6531402 C61.1191316,46.5473585 61.0744463,46.449011 61.0604821,46.3282061 C61.0240201,46.0151976 61.1877112,45.7035829 61.4662187,45.5555195 C61.5738979,45.4983695 61.6801807,45.4790098 61.7994968,45.4652256 C61.8381309,45.4664646 61.8767651,45.4678585 61.9153993,45.4690976 L61.9153993,45.4690976 Z M74.550641,44.4867061 C74.6153416,44.4930561 74.6772494,44.5014195 74.7394675,44.5207793 C74.9241048,44.5783939 75.0831411,44.7055488 75.1798042,44.8726622 C75.2234034,44.9480878 75.2493147,45.0272305 75.2694851,45.1113293 C75.2828287,45.1988354 75.2814323,45.2866512 75.2938448,45.3741573 C75.353115,45.6761695 75.5624223,45.9218061 75.786935,46.1214439 C75.9962423,46.3074524 76.2322367,46.4623305 76.4767647,46.5978488 C76.8221451,46.789278 77.1881614,46.9426073 77.5613149,47.0711561 C78.7079279,47.4659402 79.9311888,47.638939 81.1403303,47.6736317 C82.4413249,47.7109573 83.7640416,47.5903073 85.0184891,47.2333134 C85.2277964,47.1736854 85.4352418,47.1069329 85.6395841,47.0318171 C85.7902419,46.9763707 85.939193,46.916278 86.0858168,46.8507646 C86.4945013,46.6681634 86.8982208,46.4435902 87.2273096,46.136622 C87.3956554,45.9795756 87.5543814,45.7920183 87.6291673,45.5710073 C87.6646983,45.4663098 87.6662499,45.3630061 87.6736974,45.2538171 L87.6834723,45.1906268 C87.7290886,44.9998171 87.8249759,44.8328585 87.9855638,44.7151512 C88.0544537,44.664661 88.131722,44.6256317 88.2133348,44.6000768 C88.5936256,44.4814402 89.0137918,44.6795293 89.1636738,45.0479841 C89.2179789,45.1817988 89.2257368,45.3210341 89.2173583,45.4636768 C89.210221,45.5874244 89.1931537,45.7100878 89.1660012,45.8310476 C89.0015343,46.5626915 88.4876531,47.1543256 87.8971241,47.5909268 C87.4941803,47.8887573 87.0481029,48.1260305 86.5877509,48.3221061 C85.9163849,48.6078561 85.2097982,48.8084232 84.4946778,48.9507561 C83.1969414,49.2089378 81.8599502,49.279872 80.5403367,49.1962378 C79.3592786,49.1214317 78.1758933,48.9211744 77.0553466,48.5352183 C76.8195074,48.4540622 76.5867713,48.3642329 76.3583797,48.2644915 C76.1844482,48.1884463 76.0129993,48.1065159 75.8452742,48.0177707 C75.7242514,47.953961 75.6049354,47.8864341 75.4881019,47.8150354 C74.7521904,47.3654244 74.0564647,46.725778 73.8167465,45.8705415 C73.7625966,45.6774085 73.7380817,45.4816427 73.7326512,45.2815402 L73.733427,45.2174207 C73.7418055,45.1313085 73.7563903,45.049378 73.7892837,44.9686866 C73.8702758,44.7696683 74.0342772,44.6101439 74.2358266,44.5348732 C74.2969586,44.5119512 74.358401,44.5001805 74.422481,44.4902683 C74.486561,44.4859317 74.4860955,44.4859317 74.550641,44.4867061 L74.550641,44.4867061 Z M102.755306,40.8133085 C102.87338,40.8351463 102.978112,40.8614756 103.081602,40.92575 C103.314648,41.0707159 103.455996,41.3352476 103.446687,41.609072 C103.443273,41.7123756 103.430861,41.7370012 103.404639,41.8359683 C103.330784,42.0492354 103.252275,42.2606439 103.173144,42.4718976 C102.930944,43.0957463 102.670124,43.7110768 102.378894,44.3138622 C102.08968,44.9127756 101.771918,45.496511 101.436313,46.0707988 L101.368819,46.1829305 C101.346632,46.2145256 101.326616,46.2478244 101.301946,46.277561 C101.203266,46.396972 101.0689,46.4852524 100.919949,46.5284634 C100.535159,46.6399756 100.117009,46.4302707 99.9767471,46.0556207 C99.9495946,45.9831378 99.9336134,45.9070927 99.9291138,45.8298085 C99.9222869,45.7139598 99.9419919,45.5971817 99.9862117,45.4900061 C100.000797,45.4542293 100.020812,45.4209305 100.038189,45.3865476 C100.150368,45.1999195 100.258513,45.0111232 100.366192,44.8218622 C100.984649,43.7022488 101.519477,42.5394244 101.938092,41.3301366 L101.984173,41.2238902 C102.038478,41.1368488 102.047788,41.1109841 102.120712,41.037572 C102.229943,40.9277634 102.371912,40.8521829 102.524276,40.8227561 C102.562135,40.8154768 102.601079,40.8137732 102.639403,40.8092817 C102.678037,40.8106756 102.716671,40.8119146 102.755306,40.8133085 L102.755306,40.8133085 Z M58.9973544,38.3530707 C59.0974309,38.3763024 59.1248938,38.3767671 59.2181433,38.4219915 C59.3576298,38.4896732 59.4752391,38.599172 59.5521972,38.7336061 C59.6037094,38.8232805 59.6060368,38.8506939 59.6359822,38.9487317 C59.6854774,39.1685037 59.739317,39.3870366 59.7942427,39.6055695 C59.8637532,39.8683976 59.9334189,40.1312256 60.0127043,40.3912659 C60.3039347,41.3456244 60.6449707,42.2848049 61.0628095,43.1919256 L61.1033056,43.3003402 C61.1112186,43.3381305 61.1219245,43.3754561 61.1270446,43.413711 C61.1422501,43.5286305 61.1313891,43.6466476 61.0950822,43.7567659 C61.0708777,43.8303329 61.0358121,43.8998732 60.9911268,43.9629085 C60.7844571,44.2542341 60.3922193,44.36745 60.061734,44.2311573 C59.9183686,44.1719939 59.7943979,44.0696195 59.7093716,43.9401415 C59.6881151,43.9079268 59.6718235,43.8726146 59.6532046,43.8388512 C59.5666268,43.6509841 59.4851692,43.4611037 59.4032461,43.2712232 C59.1445987,42.6507817 58.9055012,42.0235256 58.6974352,41.3843439 C58.4875072,40.739122 58.3101623,40.0852268 58.1529879,39.4252915 L58.1221116,39.2882244 C58.1072165,39.1867793 58.0975967,39.1609146 58.1056649,39.0579207 C58.1270766,38.7847159 58.2971291,38.5376854 58.5449154,38.4196683 C58.654922,38.3671646 58.7619806,38.3526061 58.8817621,38.3440878 C58.9202412,38.3471854 58.9588754,38.350128 58.9973544,38.3530707 L58.9973544,38.3530707 Z M104.097262,33.2236646 C104.195476,33.2532463 104.223094,33.2555695 104.313086,33.3066793 C104.482052,33.4027037 104.610833,33.5617634 104.669172,33.7468427 C104.700359,33.8453451 104.69679,33.8726037 104.705168,33.9748232 C104.706565,34.1962988 104.705479,34.1953695 104.704082,34.4168451 C104.682981,35.5147756 104.600592,36.6088341 104.434108,37.6945293 C104.389578,37.9858549 104.338997,38.2759415 104.283761,38.5654085 C104.257695,38.7026305 104.236748,38.8403171 104.16941,38.9646841 C104.132483,39.0328305 104.085625,39.0950915 104.030389,39.1492988 C103.77531,39.3994268 103.369263,39.4415537 103.068258,39.2488854 C103.002937,39.2072232 102.944287,39.1559585 102.894171,39.0967951 C102.794095,38.9786232 102.731101,38.8308695 102.714965,38.6769207 C102.704414,38.5740817 102.713258,38.5480622 102.725671,38.4463073 C102.769735,38.224522 102.768959,38.2252963 102.810076,38.0036659 C103.039399,36.675122 103.162128,35.3335683 103.153595,33.9845805 L103.161508,33.8690415 C103.183695,33.7689902 103.184005,33.7415768 103.22838,33.6481854 C103.328612,33.4367768 103.523955,33.2792659 103.752037,33.2258329 C103.852734,33.2021366 103.879886,33.2077122 103.982445,33.2070927 C104.020769,33.2126683 104.058938,33.218089 104.097262,33.2236646 L104.097262,33.2236646 Z M58.6333552,30.6619817 C58.7323456,30.6892402 58.7598084,30.6909439 58.851041,30.7398854 C59.0572451,30.850778 59.2046446,31.0538232 59.246382,31.2838171 C59.2648457,31.385572 59.2577085,31.412211 59.2530538,31.5145854 C59.2277631,31.7236707 59.2077478,31.9332207 59.1875773,32.1430805 C59.1490983,32.6100378 59.1194632,33.0769951 59.1075161,33.5455012 C59.086725,34.3632573 59.1131018,35.1807037 59.1804401,35.9958268 L59.181371,36.1115207 C59.1757854,36.1497756 59.1731477,36.1884951 59.1649244,36.2261305 C59.1314104,36.3772915 59.0521249,36.5169915 58.9391704,36.6230829 C58.6788163,36.8679451 58.2719936,36.9013988 57.9750224,36.7023805 C57.9106321,36.6593244 57.8530687,36.6068207 57.8043492,36.546728 C57.7312701,36.456589 57.6789821,36.3501878 57.652295,36.2372817 C57.6432959,36.1998012 57.6401927,36.1610817 57.6341416,36.1229817 C57.6135057,35.8726988 57.6141263,35.8731634 57.5965935,35.6228805 C57.5562526,34.9177207 57.5384095,34.212561 57.5564077,33.5061622 C57.5742508,32.8062683 57.6271595,32.1088524 57.702566,31.4128305 L57.7128064,31.3285768 C57.7326665,31.228061 57.7322011,31.2004927 57.7744039,31.106172 C57.8698257,30.8925951 58.0616002,30.7305927 58.2882851,30.6720488 C58.3885168,30.6460293 58.4156693,30.6509854 58.5182284,30.6480427 C58.5567074,30.652689 58.5950313,30.6573354 58.6333552,30.6619817 L58.6333552,30.6619817 Z M102.71993,25.6295293 C102.81923,25.655239 102.846848,25.656478 102.938857,25.7038707 C103.076637,25.7751146 103.191298,25.887711 103.264998,26.0240037 C103.283306,26.057922 103.296495,26.0944732 103.312165,26.1296305 C103.39083,26.3480085 103.390054,26.3478537 103.466082,26.5674707 C103.802928,27.5811476 104.082212,28.6113963 104.283761,29.6605402 C104.339462,29.9498524 104.389423,30.2402488 104.434108,30.5314195 C104.458313,30.6886207 104.49462,30.8513976 104.469795,31.0113866 C104.457848,31.0877415 104.434574,31.1620829 104.40075,31.2316232 C104.36677,31.3011634 104.32255,31.3652829 104.269642,31.4218134 C104.025269,31.6824732 103.621394,31.7416366 103.312476,31.5618232 C103.17842,31.4837646 103.069499,31.3657476 103.002782,31.2258927 C102.958251,31.1326561 102.957941,31.1050878 102.935598,31.0050366 C102.897895,30.7485585 102.89774,30.7490232 102.856934,30.4934744 C102.7792,30.043089 102.693087,29.5947171 102.590063,29.1494427 C102.394254,28.3034988 102.146313,27.4707195 101.852134,26.6535829 L101.821103,26.5420707 C101.808846,26.4403159 101.799846,26.4142963 101.810552,26.3114573 C101.838946,26.038872 102.015205,25.7963329 102.265939,25.684511 C102.377187,25.63495 102.484556,25.6230244 102.604493,25.6176037 C102.642972,25.6216305 102.681451,25.6255024 102.71993,25.6295293 L102.71993,25.6295293 Z M60.742875,23.2623732 C60.8614152,23.2809585 60.9669222,23.3045 61.0721189,23.3659866 C61.3088891,23.5046024 61.4573747,23.7652622 61.4555128,24.0392415 C61.454737,24.1609756 61.4210679,24.2635049 61.3763826,24.3747073 C61.2659105,24.5999 61.266376,24.5995902 61.1588519,24.8258671 C60.8969462,25.3942695 60.653194,25.969022 60.4376804,26.5564744 C60.1940833,27.219972 59.9863276,27.8944659 59.8055692,28.577478 L59.7677108,28.686822 C59.7497125,28.72105 59.734352,28.756672 59.7138712,28.7893512 C59.6524289,28.8878537 59.568799,28.9719524 59.4705844,29.0339037 C59.168493,29.2248683 58.7627564,29.180728 58.5089189,28.9292061 C58.4539932,28.874689 58.407446,28.8122732 58.370984,28.743972 C58.2979049,28.6073695 58.267494,28.4497037 58.2844062,28.2957549 C58.2885954,28.2573451 58.2985255,28.2198646 58.3055076,28.1819195 C58.3731562,27.9263707 58.3733114,27.9269902 58.443908,27.6728354 C58.7669457,26.5656122 59.1570113,25.4810012 59.6333445,24.4301537 C59.7129402,24.2546768 59.7920705,24.0857049 59.8757003,23.9122415 C59.9067318,23.8479671 59.9861724,23.6735744 60.0415636,23.5936573 C60.1076606,23.4982524 60.1953246,23.4183354 60.296332,23.3608756 C60.4021493,23.3007829 60.5079667,23.2786354 60.6268172,23.2615988 C60.6654514,23.2617537 60.7040856,23.2620634 60.742875,23.2623732 L60.742875,23.2623732 Z M98.872492,18.9259427 C98.9103504,18.9339963 98.9488294,18.9394171 98.9859121,18.9504134 C99.0973151,18.9834024 99.2006499,19.0414817 99.2867622,19.1195402 C99.3153112,19.1454049 99.3399812,19.1754512 99.3665131,19.2034841 C99.5218257,19.3935195 99.5210499,19.3933646 99.6740351,19.5852585 C100.080082,20.1071976 100.469837,20.6404427 100.833992,21.1925829 C101.251675,21.8260341 101.633983,22.4799293 101.992707,23.1483829 L102.02048,23.2018159 C102.035686,23.2372829 102.053684,23.2716659 102.066252,23.3082171 C102.116523,23.4547317 102.121488,23.6151854 102.080216,23.7644878 C101.974088,24.1501341 101.576265,24.3959256 101.183096,24.3191061 C101.106914,24.3042378 101.033524,24.2780634 100.965255,24.2413573 C100.862851,24.1865305 100.77348,24.1086268 100.705056,24.0149256 C100.682248,23.9836402 100.664405,23.9492573 100.644079,23.9164232 C100.554243,23.7441988 100.460062,23.5742976 100.366192,23.4040866 C100.103666,22.9422402 99.8305889,22.487828 99.537962,22.0442573 C99.112986,21.3996549 98.652634,20.7801427 98.1640434,20.1823134 L98.0977912,20.0873732 C98.044417,19.9798878 98.0028349,19.8803012 97.9924393,19.7591866 C97.9652868,19.4452488 98.1382873,19.1385902 98.4211392,18.9988902 C98.53037,18.9448378 98.6371183,18.9287305 98.7568998,18.9185085 C98.7953788,18.9209866 98.834013,18.9234646 98.872492,18.9259427 L98.872492,18.9259427 Z M65.3268447,17.0372049 C65.4442989,17.0616756 65.5485646,17.090328 65.6505031,17.1569256 C65.9499568,17.3522268 66.0778065,17.7391122 65.9536806,18.0739585 C65.9113226,18.1881037 65.8446049,18.2729768 65.7646989,18.3624963 C65.6306429,18.4915098 65.5001555,18.6240854 65.3692027,18.7565061 C64.9405029,19.2000768 64.5257672,19.6552634 64.1325984,20.1308939 C63.6894689,20.6669268 63.2750435,21.2244878 62.8818747,21.7978463 L62.8094162,21.8881402 C62.7810224,21.9143146 62.7544905,21.9426573 62.7242348,21.9666634 C62.6027465,22.0629976 62.4528645,22.1213866 62.2981726,22.1326927 C62.2209042,22.1382683 62.1431704,22.1323829 62.0676087,22.1150366 C61.7191252,22.0349646 61.4652877,21.7159159 61.4659084,21.358922 C61.4660635,21.2429183 61.4927506,21.1273793 61.5433319,21.0229915 C61.5602441,20.9882988 61.5821213,20.956239 61.6015159,20.9229402 C61.7503119,20.706111 61.7501567,20.7067305 61.9017455,20.4912951 C62.2883977,19.955572 62.6902553,19.432239 63.1175587,18.928111 C63.6050632,18.3525841 64.1222028,17.8047805 64.6590474,17.2750976 L64.6874412,17.247839 C64.7172314,17.2232134 64.7451597,17.1962646 64.7766567,17.1738073 C64.8714578,17.1067451 64.9809989,17.061211 65.0955051,17.0416963 C65.1336738,17.0351915 65.1724631,17.0344171 65.2109422,17.0308549 C65.2495764,17.0330232 65.2882106,17.0351915 65.3268447,17.0372049 L65.3268447,17.0372049 Z M93.0055258,13.8694841 C93.0435394,13.8758341 93.0823287,13.8793963 93.1198768,13.888689 C93.2204188,13.9133146 93.2418305,13.9305061 93.3336837,13.9765049 C93.5020294,14.0773305 93.6671169,14.1826476 93.8329801,14.2873451 C94.705275,14.8532695 95.5451419,15.4648829 96.3397029,16.1355049 C96.5556819,16.3179512 96.7685579,16.5042695 96.9780203,16.6943049 C97.0967157,16.8019451 97.2293753,16.9064878 97.3117639,17.0475817 C97.4919016,17.3559439 97.4327866,17.7590915 97.1716568,18.0030244 C97.1150243,18.0558378 97.0507892,18.099978 96.9811235,18.1338963 C96.9114578,18.1676598 96.8371374,18.1910463 96.7604897,18.2028171 C96.6071942,18.2265134 96.4480027,18.2032817 96.3078956,18.1366841 C96.2144908,18.0922341 96.1969581,18.0710159 96.1162762,18.0075159 C95.9276048,17.8342073 95.9279152,17.834672 95.737537,17.6639963 C94.7390993,16.7898646 93.6758057,15.9871317 92.5357092,15.304739 L92.4410632,15.2379866 C92.3543303,15.1551268 92.2812511,15.0755195 92.2302044,14.9650915 C92.0804775,14.6409317 92.1779163,14.2452183 92.4610785,14.0273049 C92.5530869,13.9565256 92.6609213,13.9068098 92.7746516,13.8829585 C92.8123549,13.8750598 92.8512994,13.8727366 92.8894681,13.8676256 C92.9281023,13.8682451 92.9668916,13.8688646 93.0055258,13.8694841 L93.0055258,13.8694841 Z M71.7159155,12.6732061 C71.7534636,12.6824988 71.7917875,12.6888488 71.8285598,12.7009293 C71.9388767,12.7370159 72.04066,12.7981927 72.1244449,12.8785744 C72.3821614,13.1259146 72.4358458,13.5298366 72.2515188,13.8358756 C72.1916281,13.9351524 72.1093947,14.0206451 72.0122662,14.0843 C71.9798383,14.1053634 71.9446175,14.1216256 71.9107932,14.1403659 C71.7197945,14.2280268 71.5309679,14.3197146 71.3421414,14.412022 C70.1905633,14.9921951 69.0881701,15.6581707 68.050012,16.4237329 L67.9519525,16.4853744 C67.9164215,16.5008622 67.8821317,16.5189829 67.8456697,16.5316829 C67.7359735,16.5700927 67.6180538,16.5834122 67.5026168,16.5705573 C67.4255035,16.5618841 67.3502522,16.54175 67.2791901,16.5109293 C66.9513426,16.3682866 66.7603438,16.0081951 66.8267512,15.6573963 C66.8554553,15.5051512 66.9305515,15.3632829 67.0402477,15.2536293 C67.0675554,15.2263707 67.0987421,15.2032939 67.1280668,15.1780488 C67.3212378,15.0357159 67.5167361,14.8969451 67.7131653,14.7592585 C68.2608709,14.3850732 68.8186617,14.0279244 69.3939853,13.6974146 C69.9717914,13.3656659 70.5644926,13.0624146 71.1666584,12.7771293 L71.2625457,12.7331439 C71.3588984,12.6973671 71.382172,12.6826537 71.484731,12.6690244 C71.5230549,12.6639134 71.5619994,12.6646878 71.6004785,12.6625195 C71.6389575,12.6660817 71.6774365,12.6696439 71.7159155,12.6732061 L71.7159155,12.6732061 Z M85.9106441,11.0626293 C87.0384831,11.3006768 88.1487893,11.6096585 89.2313224,12.0063012 C89.5016066,12.1052683 89.770184,12.2090366 90.0368996,12.317761 C90.1254944,12.3540024 90.213779,12.3908634 90.3020635,12.4280341 C90.3729705,12.4577707 90.5138534,12.5138366 90.5900356,12.5610744 C90.6558224,12.6019622 90.7150925,12.6524524 90.7659841,12.7108415 C91.0005821,12.9801744 91.0179597,13.3873488 90.8069457,13.6755768 C90.7611742,13.7379927 90.7064037,13.7932841 90.6441856,13.8395927 C90.4884076,13.9555963 90.290737,14.0094939 90.0974109,13.9887402 C89.9945416,13.9777439 89.9708025,13.9634951 89.8738292,13.9301963 C89.6621945,13.8392829 89.6625048,13.8399024 89.4496289,13.7514671 C88.8654613,13.5171366 88.2757081,13.3015463 87.6744732,13.1146085 C86.9883673,12.9014963 86.2926415,12.7261744 85.5897786,12.5779561 L85.4785308,12.5455866 C85.4434652,12.5294793 85.4070032,12.51585 85.3731789,12.4971098 C85.271706,12.4407341 85.1834214,12.3615915 85.1163934,12.2668061 C84.9101892,11.9751707 84.9340835,11.5683061 85.173181,11.3028451 C85.2250036,11.2452305 85.2850495,11.1956695 85.351612,11.1560207 C85.4512231,11.0963927 85.5641776,11.0596866 85.6797699,11.0491549 C85.7184041,11.0455927 85.7571934,11.0479159 85.7958276,11.0472963 C85.8341515,11.0524073 85.8723202,11.0575183 85.9106441,11.0626293 L85.9106441,11.0626293 Z M79.2016387,10.68705 C79.2388765,10.6975817 79.2768901,10.7054805 79.3131969,10.7189549 C79.4221174,10.7590683 79.5215733,10.8238073 79.6022551,10.9072866 C79.8508172,11.1639195 79.8896066,11.5695451 79.6941083,11.8684598 C79.6517503,11.9333537 79.5999277,11.9914329 79.5403473,12.040839 C79.4509767,12.1150256 79.3450042,12.1686134 79.2323599,12.1966463 C79.1948118,12.205939 79.1561776,12.2096561 79.1180089,12.216161 C78.8579651,12.2409415 78.8585858,12.2410963 78.5986971,12.2691293 C77.2809455,12.4280341 75.9807266,12.6888488 74.7101428,13.0752695 L74.5968779,13.1005146 C74.5583988,13.1033024 74.5199198,13.108878 74.4812856,13.108878 C74.3650727,13.1084134 74.2494805,13.0816195 74.1449044,13.0309744 C74.0752387,12.9970561 74.0110036,12.9530707 73.9543711,12.9002573 C73.6930861,12.6564793 73.6336608,12.2533317 73.8136434,11.9448146 C73.8916876,11.811 74.0099175,11.7022756 74.1500246,11.6355232 C74.1847799,11.6189512 74.2220176,11.6076451 74.2580141,11.5935512 C74.4670111,11.5300512 74.4663905,11.5312902 74.6756978,11.4704232 C75.6179686,11.2092988 76.5718762,10.9940183 77.5392825,10.8481232 C77.8329954,10.8039829 78.1271738,10.7640244 78.4222832,10.7304159 C78.642917,10.7051707 78.8644817,10.6765183 79.0866671,10.6720268 C79.124991,10.6769829 79.1633149,10.6820939 79.2016387,10.68705 L79.2016387,10.68705 Z M81.4317158,10.5787902 C81.835125,10.5863793 82.237293,10.6017122 82.6400815,10.6246341 L82.7317796,10.6309841 C82.7701034,10.6365598 82.8088928,10.6391927 82.846596,10.647711 C82.9980296,10.6813195 83.1376713,10.7609268 83.2437989,10.8738329 C83.2967076,10.9303634 83.3410826,10.9944829 83.3750621,11.0640232 C83.5507002,11.4233402 83.4150927,11.8704732 83.0690917,12.0721244 C82.9687049,12.1306683 82.85544,12.1661354 82.7396926,12.175428 C82.7012136,12.1785256 82.6624242,12.1758927 82.62379,12.1760476 C82.408897,12.1610244 82.1940041,12.1512671 81.9788008,12.1418195 C81.693156,12.1326817 81.4081319,12.1274159 81.122332,12.1255573 L81.0068949,12.1162646 C80.9691917,12.1074366 80.9308678,12.1013963 80.8939403,12.0897805 C80.783158,12.054778 80.6807541,11.9949951 80.5960382,11.9155427 C80.5395609,11.8625744 80.4913069,11.8013976 80.4529831,11.7340256 C80.2762588,11.4238049 80.3397182,11.0212768 80.6033306,10.7801317 C80.7178367,10.675589 80.863064,10.6068232 81.0166698,10.5846756 C81.0549937,10.5792549 81.0937831,10.5794098 81.1324172,10.5767768 C81.2321834,10.5775512 81.3319496,10.5781707 81.4317158,10.5787902 L81.4317158,10.5787902 Z" id="Fill-7" fill="#729CDC"></path>
                </g>
            </g>
        </g>
    </g>
</svg>