<?xml version="1.0" encoding="UTF-8" standalone="no"?>
<svg width="199px" height="198px" viewBox="0 0 199 198" version="1.1" xmlns="http://www.w3.org/2000/svg" xmlns:xlink="http://www.w3.org/1999/xlink">
    <!-- Generator: Sketch 3.8.2 (29753) - http://www.bohemiancoding.com/sketch -->
    <title>:: star</title>
    <desc>Created with Sketch.</desc>
    <defs></defs>
    <g id="Page-1" stroke="none" stroke-width="1" fill="none" fill-rule="evenodd">
        <g id="Onboarding" transform="translate(-621.000000, -1898.000000)">
            <g id="Group-8" transform="translate(80.000000, 1648.000000)">
                <g id="::-star" transform="translate(541.000000, 250.000000)">
                    <polygon id="Path-2200" fill="#FFFFFF" points="36.2178141 104.614583 171.106635 104.614583 196.019897 83.7708333 193.863647 73.46875 131.092814 70.8333333 105.936564 2.3125 100.186564 2.3125 76.2282308 70.8333333 4.83239746 72.5104167 2.43656413 78.0208333 32.8636475 101.739583"></polygon>
                    <g id="Page-1">
                        <path d="M154.013578,92.9100333 C173.994679,92.9100333 176.246422,91.5068 184.829358,94.116 L147.247523,121.503067 C146.415596,122.063517 146.067523,123.056817 146.385321,123.9634 C149.390275,132.5368 160.616514,175.5863 166.353211,191.953383 C166.671009,192.859967 166.322936,193.853267 165.490826,194.413533 C164.658899,194.973983 163.532294,194.973983 162.700367,194.413533 C147.681101,184.2983 112.352844,160.32775 104.485505,155.02905 C103.653578,154.468783 102.526972,154.468783 101.695046,155.02905 C93.8277064,160.32775 57.6645872,184.2983 42.6453211,194.413533 C41.8133945,194.973983 40.686789,194.973983 39.8548624,194.413533 C39.0227523,193.853267 38.6746789,192.859967 38.9924771,191.953383 C44.7291743,175.5863 56.7902752,132.5368 59.7952294,123.9634 C60.1130275,123.056817 59.7649541,122.063517 58.9330275,121.503067 L16.3974312,90.9949333 C32.0985321,93.3361 45.8359633,97.68165 69.6812844,97.68165 C92.4055046,97.68165 106.554312,96.5171167 118.366606,95.33865 C118.117798,94.7888333 118.362752,94.1409333 118.912844,93.8923333 C119.463119,93.6439167 120.11156,93.8886667 120.360183,94.4383 C120.462385,94.6639833 120.481284,94.90635 120.429908,95.1305667 C131.588624,93.9951833 140.91211,92.9100333 154.013578,92.9100333 Z M65.4515596,94.9851833 C65.1497248,95.5076833 64.48,95.6869833 63.9572477,95.3852167 C63.4343119,95.0836333 63.2548624,94.41465 63.5566972,93.89215 C63.8587156,93.3698333 64.5282569,93.1905333 65.0511927,93.4921167 C65.573945,93.7937 65.7533945,94.4628667 65.4515596,94.9851833 L65.4515596,94.9851833 Z M69.6968807,94.6146667 C69.26,95.37055 68.2913761,95.6299667 67.5348624,95.19345 C66.7783486,94.7571167 66.5187156,93.7891167 66.9555963,93.0334167 C67.3922936,92.2775333 68.3611009,92.0181167 69.1176147,92.45445 C69.873945,92.8909667 70.133578,93.8587833 69.6968807,94.6146667 L69.6968807,94.6146667 Z M115.248257,91.7192833 C116.04422,91.35995 116.982569,91.7137833 117.342202,92.5090833 C117.702018,93.3043833 117.347706,94.24195 116.551743,94.6014667 C115.75578,94.9608 114.817431,94.6069667 114.457798,93.8116667 C114.097982,93.0163667 114.45211,92.0788 115.248257,91.7192833 L115.248257,91.7192833 Z M66.9766972,91.3969833 C66.7853211,91.7280833 66.3609174,91.84175 66.0295413,91.6505333 C65.6981651,91.4595 65.5845872,91.03545 65.7757798,90.70435 C65.967156,90.37325 66.3915596,90.2595833 66.7229358,90.4508 C67.0543119,90.6418333 67.1680734,91.0658833 66.9766972,91.3969833 L66.9766972,91.3969833 Z M165.533211,89.01805 C166.137064,89.01805 166.627156,89.5079167 166.627156,90.1110833 C166.627156,90.7144333 166.137064,91.2041167 165.533211,91.2041167 C164.929541,91.2041167 164.439266,90.7144333 164.439266,90.1110833 C164.439266,89.5079167 164.929541,89.01805 165.533211,89.01805 L165.533211,89.01805 Z M161.66055,89.4925167 C162.043303,89.4925167 162.353945,89.8029 162.353945,90.18515 C162.353945,90.5674 162.043303,90.8779667 161.66055,90.8779667 C161.277982,90.8779667 160.967339,90.5674 160.967339,90.18515 C160.967339,89.8029 161.277982,89.4925167 161.66055,89.4925167 L161.66055,89.4925167 Z M163.089541,85.5297667 C163.962936,85.5297667 164.67211,86.2385333 164.67211,87.1112 C164.67211,87.98405 163.962936,88.6926333 163.089541,88.6926333 C162.215963,88.6926333 161.506789,87.98405 161.506789,87.1112 C161.506789,86.2385333 162.215963,85.5297667 163.089541,85.5297667 L163.089541,85.5297667 Z" id="Fill-1" fill="#F2F905"></path>
                        <path d="M152.261651,166.862117 C152.515963,166.87165 152.766422,166.9096 153.009908,166.985317 C153.606606,167.17085 154.130459,167.561167 154.478532,168.079817 C154.607523,168.272133 154.708073,168.478933 154.78789,168.696 C155.300367,170.2074 155.830092,171.71495 156.266055,173.250183 C156.369908,173.65425 156.391009,174.072067 156.312661,174.482733 C156.260734,174.754433 156.167706,175.017883 156.037431,175.2619 C155.654312,175.979283 154.956147,176.499583 154.158716,176.662017 C153.910092,176.712617 153.654679,176.72875 153.401835,176.709683 C153.079817,176.6853 152.762569,176.6039 152.468624,176.47025 C152.153578,176.327067 151.866606,176.124117 151.626606,175.874967 C151.352477,175.590617 151.149541,175.252367 151.013761,174.882767 C150.501101,173.371367 149.971376,171.863633 149.535413,170.328583 C149.448991,169.992167 149.418349,169.646767 149.457798,169.300817 C149.568624,168.32585 150.21156,167.46455 151.115229,167.08065 C151.43578,166.944433 151.775963,166.875133 152.123303,166.862117 C152.193578,166.8612 152.192477,166.8612 152.261651,166.862117 L152.261651,166.862117 Z M139.956881,128.579917 C140.197798,128.606683 140.430275,128.647933 140.659633,128.72915 C141.227523,128.930083 141.721101,129.31875 142.049174,129.82365 C142.181651,130.027517 142.276147,130.24385 142.358532,130.47155 L151.977064,160.04945 C152.027523,160.223983 152.071193,160.3954 152.092661,160.576167 C152.142018,160.993617 152.094312,161.420967 151.953761,161.817333 C151.853578,162.100217 151.706789,162.366233 151.520734,162.601817 C150.917798,163.366133 149.92844,163.760483 148.964404,163.620967 C148.726789,163.5865 148.493578,163.520683 148.273028,163.426083 C147.941651,163.283817 147.63945,163.076283 147.38789,162.818333 C147.178349,162.603283 147.004587,162.354133 146.875229,162.083167 C146.806239,161.9387 146.796147,161.899467 146.741835,161.749133 L137.123303,132.171233 C137.078899,132.0176 137.063853,131.980017 137.034679,131.822533 C136.991009,131.586583 136.978165,131.34495 136.997064,131.1057 C137.073578,130.1355 137.676881,129.25825 138.555963,128.839333 C138.772844,128.735933 139.003119,128.661133 139.239266,128.6175 C139.396881,128.58835 139.437431,128.588717 139.596881,128.57515 C139.776881,128.571667 139.77633,128.571667 139.956881,128.579917 L139.956881,128.579917 Z" id="Fill-2" fill="#F1FAB9"></path>
                        <path d="M103.435229,0.00183333333 C104.256881,0.0256666667 105.067156,0.155833333 105.849174,0.4125 C107.580367,0.980833333 109.097982,2.1285 110.11633,3.63916667 C110.515413,4.23133333 110.827156,4.87116667 111.06789,5.54216667 C117.96789,26.0348 123.428807,47.02555 131.135229,67.2296167 C131.216881,67.4314667 131.317798,67.6237833 131.443303,67.8021667 C131.782385,68.28415 132.276147,68.6499 132.836147,68.83415 C133.078532,68.9139 133.329174,68.9564333 133.58367,68.9692667 C151.380734,69.5011167 169.193761,68.97165 186.998165,68.97165 C187.473394,68.9764167 187.946789,69.0006167 188.420183,69.0576333 C189.583486,69.1980667 190.724771,69.5113833 191.79633,69.9842 C193.06422,70.543 194.233028,71.3236333 195.233028,72.281 C196.075229,73.0858333 196.798165,74.0142333 197.370642,75.0280667 C197.957798,76.0679333 198.387156,77.1959833 198.640367,78.3629 C198.922936,79.66035 198.985321,81.0036333 198.825688,82.3218 C198.640367,83.84915 198.155963,85.3378167 197.407339,86.6823833 C196.838532,87.7041 196.119266,88.6411167 195.277064,89.45365 C194.933945,89.7862167 194.566972,90.09275 194.188991,90.3855333 C179.813211,101.040317 164.683853,110.700883 150.750826,121.928033 C150.583853,122.068283 150.431743,122.223567 150.300734,122.3981 C149.935963,122.883567 149.73945,123.4871 149.748991,124.094117 C149.753028,124.350233 149.795413,124.601583 149.867156,124.847067 C156.330826,145.442367 163.427523,165.835633 169.891376,186.430933 C169.984037,186.748833 170.064037,187.068933 170.121284,187.395083 C170.261468,188.1924 170.283119,189.0097 170.185505,189.813433 C169.951927,191.735683 169.029908,193.54555 167.609908,194.863717 C167.003486,195.42655 166.312294,195.897717 165.566422,196.256133 C164.838349,196.606117 164.059083,196.848117 163.260917,196.972233 C162.313394,197.119817 161.341284,197.100933 160.400183,196.91705 C159.604954,196.7614 158.833211,196.48805 158.117431,196.108367 C157.824771,195.953083 157.544587,195.778183 157.270826,195.591733 C139.63945,183.0565 122.869174,169.287067 104.746972,157.47105 C104.562018,157.355733 104.367156,157.2593 104.16055,157.188533 C103.602752,156.997867 102.988073,156.992 102.426789,157.171667 C102.18367,157.249583 101.955963,157.362517 101.742569,157.501667 C83.8748624,169.665283 66.8842202,183.0708 49.2655046,195.591733 C48.9917431,195.778183 48.7117431,195.953083 48.4188991,196.108367 C47.7031193,196.48805 46.9315596,196.7614 46.1361468,196.916867 C45.1952294,197.100933 44.2229358,197.119817 43.2754128,196.972233 C42.4772477,196.847933 41.6979817,196.606117 40.9699083,196.256133 C40.1255046,195.850233 39.3513761,195.299867 38.6906422,194.63565 C37.4025688,193.341133 36.5711927,191.6255 36.3510092,189.813433 C36.253211,189.0097 36.2748624,188.192033 36.4152294,187.394717 C36.4726606,187.0682 36.5524771,186.7481 36.6453211,186.4302 C43.1269725,165.801533 51.0515596,145.61085 56.699633,124.739083 C56.7522936,124.527517 56.7838532,124.312467 56.7873394,124.094117 C56.7966972,123.50525 56.6122936,122.919317 56.2677064,122.441367 C56.1183486,122.234567 55.9405505,122.052883 55.7420183,121.893017 C38.6449541,108.669917 20.6293578,96.6738667 3.26972477,83.7967167 C3.00770642,83.5941333 2.7546789,83.3818333 2.51614679,83.1515667 C1.93357798,82.5887333 1.43522936,81.9401 1.04146789,81.2324333 C0.575412844,80.39515 0.25706422,79.4772 0.104770642,78.5312 C-0.0236697248,77.7344333 -0.0341284404,76.9195167 0.0739449541,76.1196333 C0.199266055,75.1914167 0.484036697,74.2853833 0.912110092,73.4521333 C1.74642202,71.8279833 3.12256881,70.5078 4.77944954,69.7387167 C5.51412844,69.3977167 6.29889908,69.1656167 7.10110092,69.0525 C7.4293578,69.0061167 7.75889908,68.9832 8.09009174,68.9731167 C29.7282569,68.7534833 51.3963303,70.0568 73.0080734,68.9663333 C73.2258716,68.9511167 73.440367,68.9146333 73.6491743,68.8504667 C74.2297248,68.6720833 74.7436697,68.2991833 75.092844,67.8025333 C75.24,67.5931667 75.3537615,67.3651 75.4401835,67.1245667 C82.3216514,46.66475 88.586789,26.0016167 95.4684404,5.54216667 C95.7277064,4.81983333 96.0697248,4.13416667 96.5119266,3.50533333 C97.5284404,2.06066667 99.0080734,0.964333333 100.687339,0.4125 C101.362936,0.190666667 102.060183,0.0641666667 102.768807,0.0146666667 C102.991193,0.00366666667 103.212477,-0.00183333333 103.435229,0.00183333333 L103.435229,0.00183333333 Z M103.211927,5.5 C102.974495,5.50733333 102.739817,5.54033333 102.511009,5.60633333 C101.909541,5.77683333 101.375413,6.15816667 101.015596,6.66966667 C100.86844,6.87866667 100.754862,7.106 100.668624,7.34616667 C93.7869725,27.80635 87.5218349,48.4696667 80.6401835,68.9293 C80.3625688,69.7022333 79.9891743,70.4320833 79.5029358,71.0955667 C78.4262385,72.5649833 76.8645872,73.6527 75.1122936,74.15375 C74.4255046,74.3501 73.7205505,74.4487333 73.007156,74.47 C51.3689908,74.6896333 29.7012844,73.3938333 8.08917431,74.4767833 C7.71027523,74.5033667 7.34165138,74.6001667 7.00311927,74.7736 C6.71798165,74.9197167 6.4587156,75.1155167 6.24055046,75.35 C6.06954128,75.5337 5.9240367,75.7408667 5.8093578,75.9639833 C5.39247706,76.7757833 5.40899083,77.7623 5.85266055,78.5596167 C6.02917431,78.8769667 6.26770642,79.15105 6.55009174,79.3785667 C23.653578,92.5936 41.659633,104.602667 59.0227523,117.475233 C59.672844,117.978117 60.2524771,118.55855 60.7337615,119.225883 C61.7992661,120.703183 62.3521101,122.52295 62.2873394,124.3429 C62.2620183,125.056067 62.1379817,125.756033 61.9381651,126.440233 C55.4631193,147.0711 47.5317431,167.25995 41.8836697,188.131717 C41.7963303,188.4828 41.7719266,188.844517 41.8225688,189.203483 C41.9502752,190.10695 42.533578,190.904083 43.3566972,191.299717 C43.5823853,191.40825 43.8233028,191.485617 44.0700917,191.528883 C44.3856881,191.58425 44.7106422,191.58425 45.026422,191.528883 C45.4018349,191.462883 45.7550459,191.317133 46.0737615,191.109417 C63.940367,178.943967 80.9330275,165.541567 98.5508257,153.019167 C99.1405505,152.617667 99.7686239,152.28345 100.439633,152.038883 C102.151927,151.415183 104.054862,151.37815 105.790275,151.934017 C106.574312,152.185183 107.305872,152.556617 107.985505,153.019167 C125.615963,165.555683 142.387156,179.323833 160.509174,191.139667 C160.831743,191.340783 161.186789,191.479017 161.563119,191.537683 C161.879633,191.587 162.204404,191.580583 162.518716,191.519167 C162.764771,191.47095 163.004404,191.389 163.228257,191.275883 C164.059266,190.855683 164.632661,190.024083 164.726606,189.097883 C164.763486,188.73525 164.72422,188.373167 164.622385,188.023733 C158.158532,167.428433 151.061835,147.035167 144.598165,126.439867 C144.383303,125.703417 144.256881,124.948817 144.244771,124.180833 C144.215229,122.305517 144.84055,120.4445 145.997064,118.967017 C146.437064,118.404917 146.949174,117.911567 147.513578,117.475417 C161.855413,106.836583 176.518165,96.63445 190.86422,86.0016667 C191.568807,85.4566167 192.163303,84.7887333 192.59633,84.0090167 C193.20367,82.9183667 193.482569,81.65465 193.388991,80.41 C193.319266,79.4713333 193.038532,78.5508167 192.576147,77.7311333 C192.288073,77.2222 191.930275,76.7534167 191.515596,76.3412833 C190.987156,75.8151167 190.366972,75.3820833 189.688073,75.06785 C188.878899,74.6920167 188.005505,74.4998833 187.115596,74.4731167 C169.254128,74.2918 151.390275,74.6513167 133.529174,74.47 C132.81578,74.4487333 132.110826,74.3501 131.424037,74.15375 C129.619266,73.6374833 128.018899,72.4995333 126.939633,70.96485 C126.497431,70.3363833 126.155413,69.65145 125.896147,68.9293 C119.002752,48.4342833 113.541651,27.44335 105.828991,7.24166667 C105.740367,7.0235 105.628991,6.81633333 105.489174,6.62566667 C105.151743,6.1655 104.670459,5.81533333 104.128073,5.6375 C103.885688,5.55683333 103.635046,5.51466667 103.380367,5.50183333 C103.32422,5.5 103.268257,5.5 103.211927,5.5 L103.211927,5.5 Z" id="Fill-4" fill="#DCEAFA"></path>
                    </g>
                </g>
            </g>
        </g>
    </g>
</svg>