<?xml version="1.0" encoding="UTF-8" standalone="no"?>
<svg width="146px" height="85px" viewBox="0 0 146 85" version="1.1" xmlns="http://www.w3.org/2000/svg" xmlns:xlink="http://www.w3.org/1999/xlink">
    <!-- Generator: sketchtool 3.8.3 (29802) - http://www.bohemiancoding.com/sketch -->
    <title>20CA81E8-6046-4CCE-A68C-12BBE7D77EAF</title>
    <desc>Created with sketchtool.</desc>
    <defs></defs>
    <g id="home" stroke="none" stroke-width="1" fill="none" fill-rule="evenodd" fill-opacity="0.2">
        <g id="HOME" transform="translate(-917.000000, -4671.000000)" fill="#CECECE">
            <g id="::-data" transform="translate(163.000000, 4506.000000)">
                <g id="::-funds-collected" transform="translate(739.000000, 165.000000)">
                    <path d="M157.141941,84.7185542 L18.4651364,84.7185542 C18.3286404,84.7100156 18.1859401,84.7100156 18.0494441,84.6926221 C17.7702478,84.6584676 17.4972558,84.5898425 17.2366726,84.4889603 C16.3153248,84.1328685 15.5739035,83.3760942 15.223357,82.4371628 C15.1240872,82.1705683 15.0589414,81.8929052 15.0248174,81.6098659 C15.0062044,81.4685044 15.0062044,81.3258779 15,81.1835677 L15,3.5349865 C15.0062044,3.3929925 15.0062044,3.25004976 15.0248174,3.1090045 C15.0589414,2.82596523 15.1240872,2.54798589 15.223357,2.28139136 C15.5739035,1.34277623 16.3153248,0.586001967 17.2366726,0.229910108 C17.4972558,0.128711711 17.7702478,0.0604027931 18.0494441,0.0259320892 C18.1859401,0.00885485973 18.3286404,0.00885485973 18.4651364,0 L157.141941,0 C157.281539,0.00885485973 157.421138,0.0173934745 157.560736,0.0259320892 C157.697232,0.0515479334 157.83683,0.0689414079 157.973326,0.102779622 C158.243216,0.17108854 158.506901,0.272603182 158.755075,0.405109833 C159.626788,0.871571193 160.275144,1.71404785 160.51091,2.68903115 C160.600873,3.05872155 160.588465,3.15707374 160.61018,3.5349865 L160.61018,81.1835677 C160.600873,81.3258779 160.600873,81.4685044 160.585362,81.6098659 C160.551238,81.8929052 160.486093,82.1705683 160.386823,82.4371628 C160.036276,83.3760942 159.294855,84.1328685 158.373507,84.4889603 C158.112924,84.5898425 157.839932,84.6584676 157.560736,84.6926221 C157.42424,84.7100156 157.281539,84.7100156 157.141941,84.7185542 L157.141941,84.7185542 Z M153.676805,48.9110827 L153.676805,7.069973 L50.1601214,7.069973 C50.0949756,7.50417737 50.0236254,7.93743301 49.9398665,8.36910742 C49.502459,10.6343703 48.8230813,12.8506152 47.9234488,14.9685079 C46.0125052,19.4598192 43.0964549,23.4878317 39.4575963,26.6815898 C36.2685541,29.4800417 32.5428345,31.6263965 28.5410208,32.9533605 C26.3974136,33.6645955 24.1762519,34.1399117 21.9333749,34.3720355 L21.9333749,77.6488974 L125.484182,77.6488974 C125.521409,77.315259 125.561737,76.982253 125.605167,76.6495633 C125.933999,74.2596999 126.526515,71.9081021 127.367206,69.6526429 C129.054793,65.1344507 131.744384,61.0232658 135.175396,57.6878299 C138.330315,54.6199372 142.102567,52.2215352 146.197446,50.691542 C148.297623,49.9066219 150.478456,49.3506632 152.696516,49.034102 C153.022245,48.9872977 153.347974,48.9465021 153.676805,48.9110827 L153.676805,48.9110827 Z M153.676805,56.0386123 C151.638672,56.3339851 149.643969,56.8684391 147.733026,57.6650603 C144.857304,58.8645775 142.211143,60.618156 139.962062,62.8043576 C137.350025,65.3428561 135.283973,68.4550231 133.959341,71.8777426 C133.242738,73.7328357 132.743286,75.6739475 132.470294,77.6488974 L153.676805,77.6488974 L153.676805,56.0386123 Z M99.2645471,19.2242167 C99.6616263,19.2583712 100.055603,19.2979018 100.44958,19.3605183 C101.485709,19.5246495 102.500122,19.8057912 103.474207,20.1988838 C104.55997,20.6375156 105.589895,21.2165602 106.529855,21.9252652 C107.26197,22.4780614 107.935144,23.1096027 108.536967,23.8091366 C108.961965,24.3050087 109.349738,24.8344028 109.697182,25.3890966 C109.973277,25.831207 110.227655,26.289446 110.454115,26.7603348 C112.361956,30.7257308 112.424,35.3701047 111.558491,39.6239161 C111.000099,42.3575378 110.057035,45.0038758 108.844083,47.5047412 C108.245362,48.7399941 107.606312,49.9464688 106.84938,51.0906432 C105.074932,53.7850505 102.866179,56.1711189 100.520931,58.3560556 C97.173677,61.4767611 93.491388,64.2046904 89.672603,66.6935385 L89.4740634,66.8140278 C89.263115,66.9218674 89.0583711,67.0199033 88.8319119,67.0910584 C88.2424974,67.2782755 87.6034481,67.3000964 86.9985228,67.1533587 C86.694509,67.0790411 86.4153127,66.9576031 86.1361164,66.8137116 C85.717322,66.5603993 85.7235263,66.5537582 85.2923231,66.2729326 C83.6884955,65.2068708 82.1156896,64.0990646 80.5739056,62.9425567 L80.3877747,62.7929728 C79.9720824,62.4090514 79.6370469,61.9720008 79.4229964,61.4397605 C79.2709895,61.0675401 79.1841284,60.6693877 79.1655153,60.2674403 C79.1469022,59.8654929 79.193435,59.4603831 79.3082157,59.0751967 C79.7021927,57.7412753 80.8655106,56.7470011 82.224266,56.5844511 C82.773352,56.5186722 83.3348468,56.5888786 83.8529111,56.7881129 C84.0762681,56.8744478 84.2810121,56.9876635 84.4888582,57.1113153 C84.913857,57.4082693 84.9045505,57.4174404 85.323345,57.7270443 C85.8569201,58.1223505 86.0399488,58.2510622 86.5766262,58.6378298 C87.190858,59.0701368 87.1877558,59.0695043 87.8050899,59.4948538 C88.3945043,59.0887952 88.3914021,59.0894277 88.9777144,58.6776767 C91.7696774,56.6745809 94.4716772,54.5294912 96.9224004,52.1004134 C98.5231258,50.5141285 100.040092,48.8051406 101.25925,46.8937559 C101.702862,46.1980169 102.081328,45.4706534 102.450487,44.7319051 C103.182602,43.2724345 103.799936,41.7512961 104.265263,40.1824047 C104.699569,38.7219853 105.006684,37.2157105 105.115261,35.6917258 C105.226939,34.1408604 105.136976,32.5466694 104.684058,31.0543093 C104.361431,29.9964698 103.843367,28.991127 103.074026,28.1989333 C101.699759,26.7831045 99.6647285,26.1379647 97.738274,26.2767962 C96.8045175,26.3444727 95.8831697,26.5987336 95.0393764,27.0171258 C93.7023363,27.6812402 92.5917554,28.7384472 91.7324513,29.9686403 C91.3632917,30.4992994 91.0654823,31.0666429 90.7459576,31.6289265 L90.615666,31.8268958 C90.324061,32.2089198 89.9952298,32.5381308 89.5888441,32.7879643 C88.4286283,33.4954044 86.933377,33.4438565 85.8258983,32.6589364 C85.4350235,32.3815895 85.1279075,32.0302413 84.8642221,31.6295589 C84.6780913,31.3035104 84.5074713,30.9705044 84.3151361,30.6479345 C83.2728032,28.9364166 81.830289,27.4718861 79.9534694,26.7454713 C77.4841331,25.789779 74.4284847,26.2464367 72.5361542,28.1989333 C71.9188201,28.8352182 71.4596973,29.6122322 71.1370705,30.4414265 C70.494919,32.0966528 70.3677295,33.93119 70.494919,35.6917258 C70.7306847,39.0031271 71.8629809,42.1813893 73.3520278,45.1095017 L73.4512976,45.3273945 C73.5288521,45.526945 73.5536696,45.5753305 73.612611,45.7821547 C73.7615157,46.3251474 73.7801288,46.902927 73.6684503,47.4550907 C73.3706409,48.9034928 72.1825055,50.0362824 70.7430935,50.2374142 C70.3522186,50.2924408 69.9520373,50.278526 69.5673668,50.1966186 C69.1020396,50.0982664 68.6584277,49.9018782 68.2737572,49.6232664 C67.9511304,49.3911426 67.6657297,49.1027271 67.4392705,48.7738324 C67.259344,48.513879 67.122848,48.2257798 66.9801477,47.943373 C66.762995,47.5082199 66.5551489,47.0692719 66.3535071,46.6258964 C65.4011375,44.5209697 64.6411031,42.3205371 64.1447541,40.0571717 C63.9865429,39.344988 63.8562513,38.6264794 63.7569815,37.9038596 C63.167567,33.6532106 63.6018724,29.0746157 65.9129974,25.3894128 C66.47139,24.4991832 67.1321546,23.6759974 67.8828824,22.9483177 C70.066818,20.8348524 72.961153,19.5594364 75.9485535,19.2583712 C77.5709942,19.0948725 79.2182524,19.2175756 80.8003648,19.6198392 C82.6337539,20.0856681 84.364771,20.9265635 85.8848397,22.0647292 C86.5704218,22.5779948 87.2063689,23.1510308 87.8050899,23.7661273 C88.0253448,23.5406446 88.2487018,23.3208543 88.4782632,23.1054915 C89.1049038,22.5327718 89.7656684,21.9967365 90.4791701,21.5356513 C91.8162101,20.6694563 93.2680309,20.0113505 94.8067128,19.6198392 C95.8769653,19.3481847 96.9596265,19.220738 98.0577987,19.1894298 C98.4610822,19.1894298 98.8612636,19.2008146 99.2645471,19.2242167 L99.2645471,19.2242167 Z M75.4522045,50.2623975 C75.9206338,50.264295 76.385961,50.3616985 76.814062,50.549548 C78.132489,51.1276438 79.0321215,52.5191218 78.988691,53.9861823 C78.9762823,54.400147 78.8925234,54.8115817 78.7405165,55.1958194 C78.5854075,55.5939718 78.3589482,55.9617647 78.0735476,56.2767448 C77.7695338,56.6103832 77.4065786,56.8836189 77.0032951,57.0771608 C76.5720919,57.2846175 76.0974582,57.3997307 75.6197223,57.4133292 C75.1326798,57.427244 74.6425352,57.3352167 74.1927189,57.1442048 C72.8991094,56.5964684 71.9901703,55.2628633 71.9777616,53.8315385 C71.9746594,53.4099839 72.0429074,52.9884293 72.1856077,52.5921744 C72.328308,52.1892783 72.5423585,51.8135792 72.8184527,51.4891118 C73.1100577,51.1450373 73.4637063,50.8597843 73.8607855,50.6523276 C74.2857844,50.4300074 74.7542137,50.2997144 75.2319496,50.2690387 C75.306402,50.2646112 75.3777521,50.2623975 75.4522045,50.2623975 L75.4522045,50.2623975 Z M43.1212723,7.069973 L21.9333749,7.069973 L21.9333749,27.2489333 C23.7388444,27.0082709 25.513292,26.5762802 27.2287982,25.9374654 C30.0424765,24.8897457 32.6638196,23.3170594 34.931514,21.3240834 C37.6335138,18.9538272 39.8298581,15.9963041 41.3220072,12.6978688 C42.1378809,10.9022298 42.7428062,9.00918728 43.1212723,7.069973 L43.1212723,7.069973 Z" id="money"></path>
                </g>
            </g>
        </g>
    </g>
</svg>