<?xml version="1.0" encoding="utf-8"?>
<!-- Generator: Adobe Illustrator 22.1.0, SVG Export Plug-In . SVG Version: 6.00 Build 0)  -->
<svg version="1.1" id="Capa_1" xmlns="http://www.w3.org/2000/svg" xmlns:xlink="http://www.w3.org/1999/xlink" x="0px" y="0px"
	 viewBox="0 0 460 348" style="enable-background:new 0 0 460 348;" xml:space="preserve">
<style type="text/css">
	.st0{fill:#FFFFFF;}
	.st1{fill:#2AABD3;}
	.st2{fill:#0098D2;}
	.st3{fill:#3385FF;}
	.st4{fill:none;stroke:#9999FF;stroke-width:0.5;stroke-miterlimit:10;}
	.st5{fill:none;stroke:#9999FF;stroke-width:0.5;stroke-miterlimit:10;stroke-dasharray:1.0177,1.0177;}
	.st6{fill:none;stroke:#9999FF;stroke-width:0.5;stroke-miterlimit:10;stroke-dasharray:0.9865,0.9865;}
	.st7{fill:#3385FF;stroke:#9999FF;stroke-width:0.5;stroke-miterlimit:10;stroke-dasharray:1;}
	.st8{fill:#0084B5;}
	.st9{fill:url(#SVGID_1_);}
	.st10{fill:#EAEAEA;}
	.st11{fill:#C6C6C6;}
	.st12{fill:#46B0ED;}
	.st13{fill:#FFFFFF;stroke:#EAEAEA;stroke-width:0.25;stroke-miterlimit:10;}
	.st14{fill:#8EDCF4;}
	.st15{fill:url(#SVGID_2_);}
	.st16{fill:#B8D3F4;}
	.st17{fill:url(#Shape_5_);}
	.st18{fill:url(#Shape_6_);}
	.st19{fill:none;stroke:#9999FF;stroke-width:0.5;stroke-miterlimit:10;stroke-dasharray:0.9901,0.9901;}
	.st20{fill:none;stroke:#9999FF;stroke-width:0.5;stroke-miterlimit:10;stroke-dasharray:1.0098,1.0098;}
	.st21{fill:#96C1EA;}
	.st22{fill:url(#SVGID_3_);}
	.st23{fill:none;stroke:#9999FF;stroke-width:0.5;stroke-miterlimit:10;stroke-dasharray:0.9976,0.9976;}
	.st24{fill:#0098D2;stroke:#9999FF;stroke-width:0.5;stroke-miterlimit:10;stroke-dasharray:1;}
	.st25{fill:none;stroke:#9999FF;stroke-width:0.5;stroke-miterlimit:10;stroke-dasharray:1.0162,1.0162;}
	.st26{fill:url(#SVGID_4_);}
	.st27{fill:none;stroke:#0098D2;stroke-width:0.5;stroke-miterlimit:10;}
	.st28{fill:#C1C1C1;}
	.st29{fill:none;stroke:#9999FF;stroke-width:0.5;stroke-miterlimit:10;stroke-dasharray:0.992,0.992;}
	.st30{fill:none;stroke:#9999FF;stroke-width:0.5;stroke-miterlimit:10;stroke-dasharray:1.0099,1.0099;}
	.st31{fill:#4195F9;}
	.st32{fill:#24C4E2;}
	.st33{fill:url(#SVGID_5_);}
	.st34{fill:#3364FF;}
	.st35{fill:none;stroke:#9999FF;stroke-width:0.5;stroke-miterlimit:10;stroke-dasharray:0.9958,0.9958;}
	.st36{fill:none;stroke:#9999FF;stroke-width:0.5;stroke-miterlimit:10;stroke-dasharray:0.9983,0.9983;}
	.st37{fill:#3364FF;stroke:#9999FF;stroke-width:0.5;stroke-miterlimit:10;stroke-dasharray:1;}
	.st38{fill:#86BCF2;}
	.st39{fill:#A8C5EF;}
	.st40{fill:url(#SVGID_6_);}
	.st41{fill:#9B9B9B;}
	.st42{fill:url(#SVGID_7_);}
	.st43{fill:url(#SVGID_8_);}
	.st44{fill:url(#SVGID_9_);}
	.st45{fill:url(#SVGID_10_);}
</style>
<g>
	<g>
		<path class="st0" d="M362.9,81.8h30.6c1.9,0,3.5-1.6,3.5-3.5V57.6c0-1.9-1.6-3.5-3.5-3.5h-30.6c-1.9,0-3.5,1.6-3.5,3.5v20.7
			C359.3,80.2,360.9,81.8,362.9,81.8z"/>
		<polygon class="st0" points="375.3,81.8 364.6,89.6 364.6,81.8 		"/>
		<g>
			<g>
				<path class="st1" d="M376.8,74.1v-1.4c-1.1,0-2-0.3-2.7-0.7l0.5-2.2c0.4,0.2,0.8,0.4,1.2,0.5c0.5,0.1,1,0.2,1.5,0.2
					c0.9,0,1.3-0.2,1.3-0.7c0-0.4-0.5-0.8-1.6-1.1c-0.9-0.3-1.6-0.7-2.1-1.1c-0.5-0.5-0.8-1.1-0.8-1.8c0-1.6,0.9-2.5,2.7-2.9v-1.4
					h1.8v1.3c0.5,0,1,0.1,1.4,0.2c0.3,0.1,0.7,0.2,1,0.3l-0.5,2.1l-0.4-0.2c-0.2-0.1-0.3-0.1-0.5-0.2c-0.5-0.1-1-0.2-1.5-0.2
					c-0.8,0-1.2,0.2-1.2,0.7c0,0.3,0.6,0.7,1.8,1.1c1.8,0.6,2.7,1.6,2.7,2.9c0,1.6-1,2.6-2.9,3v1.6
					C378.5,74.1,376.8,74.1,376.8,74.1z"/>
			</g>
		</g>
	</g>
	<g>
		<g>
			<path class="st2" d="M375.9,111.2c0.2-0.7-1.1-1.2,0.5-1.8c1.6-0.6,11.5-1.1,12.5-0.2s1.5,1.7-0.3,2.3
				C386.9,112.1,378.9,112.3,375.9,111.2z"/>
			<path class="st3" d="M398,191.9c-1.2-17.1-2-34.3-3.6-51.4c0,0,0,0-0.1,0s0,0,0,0c-7,0.8-13.3,0.9-20,3.1
				c-4.4,18.9,4.4,30.5,4.8,47.7c1.7-0.1,3.4-0.2,5-0.3c1.5-13.3-2.4-27.2-1.5-41.4c0,0,1.6-0.8,1.8,0.3c3.9,13.2,5.5,28.4,8.5,42.1
				C394.6,192,396.3,191.9,398,191.9z"/>
			<g>
				<g>
					<path class="st4" d="M375.3,144c0,0.2-0.1,0.3-0.1,0.5"/>
					<path class="st5" d="M375.1,145.5c-2.5,16.1,4.1,28.6,4.7,43.8"/>
					<path class="st4" d="M379.7,189.9c0,0.2,0,0.3,0,0.5"/>
				</g>
			</g>
			<g>
				<g>
					<path class="st4" d="M392.8,141.9c0,0.2,0,0.3,0,0.5"/>
					<path class="st6" d="M392.9,143.4c0.7,15.6,2.7,31.1,4.1,46.7"/>
					<path class="st4" d="M397.1,190.6c0,0.2,0,0.3,0,0.5"/>
				</g>
			</g>
			<path class="st7" d="M394.4,148.9c-4.2,0.5-5.2-2.7-5.1-6.4c1.5-0.6,2.9-1.3,4.3-2"/>
			<path class="st7" d="M373.6,149.7c3.5-0.7,4-3.1,4.5-6.3c-1-0.1-2.1-0.1-3.1-0.1"/>
			<path class="st0" d="M366.8,102.5c0.4-0.9,0.6-3.7,1.7-3.8c1.1-0.1,1.7-1.2,1.6-0.9c1-0.6,1.7,0.5,2.8,1.3
				c1.1,0.8-3.4,4.4-4.1,4.9C368.1,103.5,367.5,103,366.8,102.5z"/>
			<path class="st0" d="M398.2,148.8c-0.7,0.6-2.6,2.2-2.2,3.2c0.3,0.9,1.9-1.7,2-1.9c0,1.2-1,5,0.1,5.7c1.1,0.6,2-5.1,2.1-5.9
				C399.5,149.4,398.8,149.2,398.2,148.8z"/>
			<path class="st2" d="M400.8,149.4c11.1-12.7,10.1-32.8-8-38.1c-0.6-0.2-0.4-0.1-0.7-0.2c-6.3-0.6-12.9-0.6-19.2-0.4
				c-0.5,0-0.8,0.1-1.3,0.3c-0.5,0.2-18.8,27.5-2.9-6.3c-0.8-0.8-1.7-1.3-2.6-2c-12.2,13.3-13.3,39.8,5,19c0.1,8.2,0,16.4,0.1,24.5
				c8.9-1.3,17.9-0.7,26.3-2.8c-0.2-5.9-5.8-22.9-5-24.6c11.3,4.9,9.1,20.1,5.5,29.3C399,148.5,399.9,149,400.8,149.4z"/>
			<path class="st8" d="M383.7,191.3c-1.5,0.1-2.8,0.1-4.3,0.3c-0.2,0.5-4,1.8-3,2.6s6-0.3,7.7-0.4C384.2,193,384.1,192,383.7,191.3
				z"/>
			<path class="st8" d="M398.1,192.3c-1.5,0-2.8,0-4.3,0.1c-0.2,0.5-4.1,1.6-3.2,2.5c0.9,0.8,6,0,7.7,0
				C398.5,194,398.5,192.9,398.1,192.3z"/>
			<path class="st0" d="M388.8,112.5c-0.3,1.6-4.7,1.9-6,1.9c-1.4,0-6.3,0-6.5-1.8c-0.2-1.9,5.5-1.5,6.5-1.5
				S389.1,110.8,388.8,112.5z"/>
			
				<linearGradient id="SVGID_1_" gradientUnits="userSpaceOnUse" x1="382.7" y1="243.6441" x2="382.7" y2="236.6338" gradientTransform="matrix(1 0 0 -1 0 348)">
				<stop  offset="0" style="stop-color:#E2E3E4"/>
				<stop  offset="0.9872" style="stop-color:#FFFFFF"/>
			</linearGradient>
			<path class="st9" d="M386,102.9c0,2.7,0,6.6,1.5,8.8c-3.4,1.8-6,1.3-9.6,0.1c1.4-2.4,1.7-5.2,1.7-8
				C381.8,103.6,383.9,103.2,386,102.9z"/>
			<path class="st0" d="M387.8,102c-0.8,3.2-6.7,5.3-9.9,4.1s-2.2-6.1-1.5-9s4.6-4.1,7.6-3.2C388,95.2,389,97.4,387.8,102z"/>
			<path class="st0" d="M378.2,94.5c-3,1.4-3.3,4.8-3.3,7.7c0.6-0.1,1.3-0.1,1.9-0.2C377.4,99.5,377.8,97,378.2,94.5z"/>
			<path class="st10" d="M376.6,102c-0.3,0.2-0.5,0.3-0.8,0.5c0-0.1,0-0.3,0-0.4C376.1,102.1,376.4,102,376.6,102z"/>
			<path class="st11" d="M378.4,99.5c0,0.2-0.2,0.3-0.4,0.2c-0.2,0-0.3-0.2-0.3-0.4c0-0.2,0.2-0.3,0.4-0.2
				C378.3,99.1,378.4,99.3,378.4,99.5z"/>
			<path class="st12" d="M379.4,94c1.5,0.1,3.7,0,3.6,2.3s0.5,4,3.4,3.8c0,1.4,0,2.6,0.1,4.1c1.9-1.6,2.4-0.8,2.5-4.7
				S384.8,92.2,379.4,94z"/>
			<g>
				<path class="st12" d="M377.8,101.1L377.8,101.1c-1-0.2-1.5-1-1.3-2c0.1-0.5,0.4-0.9,0.7-1.2c0.4-0.2,0.8-0.3,1.2-0.3
					c0.9,0.2,1.5,1,1.3,2c-0.1,0.5-0.3,0.9-0.7,1.2C378.7,101.1,378.2,101.2,377.8,101.1z M378.3,97.8c-0.4-0.1-0.7,0-1.1,0.2
					s-0.6,0.6-0.7,1.1c-0.2,0.9,0.4,1.7,1.2,1.9c0.4,0.1,0.8,0,1.1-0.2c0.3-0.2,0.6-0.6,0.7-1.1C379.8,98.8,379.2,98,378.3,97.8
					C378.4,97.8,378.4,97.8,378.3,97.8z"/>
			</g>
			<g>
				<path class="st12" d="M379.7,99.6L379.7,99.6c2.1,0.1,4.1,0.4,6.2,0.6v0.1C383.8,100,381.8,99.8,379.7,99.6z"/>
			</g>
			<g>
				
					<rect x="374.9" y="99.2" transform="matrix(0.9994 -3.470846e-02 3.470846e-02 0.9994 -3.2184 13.0997)" class="st12" width="1.6" height="0.1"/>
			</g>
			<path class="st13" d="M385.6,100.9c0.4-0.8,0.5-2.2,2.1-1.6s0.2,3.9-2,3.3"/>
			<path class="st0" d="M376.1,112.6c2,3,2.1,6.7,3.9,9.8c3-3.4,6.4-6.2,9-9.8C384.7,112.6,380.4,112.4,376.1,112.6z"/>
			<path class="st2" d="M383.1,113.7c-0.6,0-1.1-0.1-1.7-0.1c-0.4,0.9-1,1.7-1.5,2.6c0.3,0.5,0.5,1,0.7,1.6
				c-0.8,1.3-1.4,2.7-1.9,4.1c0.4,0.7,0.7,1.2,1.2,1.7c0.6-1.4,1.6-2.6,2.6-3.8c-0.1-0.8-0.1-1.6,0-2.4c0.4-0.5,0.7-1,1.1-1.5
				C383.4,115.2,383.4,114.4,383.1,113.7z"/>
			<path class="st0" d="M367.5,100.2c0.6-1,1.9-2.8,2.5-2.5s-1.8,3.7-1.8,3.7L367.5,100.2z"/>
			<g>
				
					<rect x="367.7" y="94.2" transform="matrix(0.8863 -0.463 0.463 0.8863 -4.1492 182.4463)" class="st2" width="3.8" height="10.9"/>
				
					<rect x="367.4" y="94.3" transform="matrix(0.8863 -0.463 0.463 0.8863 -3.8703 182.2321)" class="st14" width="3.8" height="9.4"/>
			</g>
		</g>
	</g>
	
		<linearGradient id="SVGID_2_" gradientUnits="userSpaceOnUse" x1="404.85" y1="241.651" x2="404.85" y2="127.2126" gradientTransform="matrix(1 0 0 -1 0 348)">
		<stop  offset="8.750000e-02" style="stop-color:#469AED"/>
		<stop  offset="1" style="stop-color:#469AED;stop-opacity:0"/>
	</linearGradient>
	<polygon class="st15" points="376.4,194.2 394.4,224 433.3,221.5 398.3,194.8 390.6,194.8 404.8,208.6 384,193.8 	"/>
	<g id="home_1_">
		<g id="HOME_1_" transform="translate(-20.000000, -15.000000)">
			<g id="::-loged-in_1_" transform="translate(0.000000, 5.000000)">
				<g id="icon_1_" transform="translate(20.000000, 10.000000)">
					<g id="::-icon_1_">
						<path id="Shape_3_" class="st16" d="M350.5,261.5c0,6.8-7.1,13.3-19.1,18.7l49.4,13.9c24.2-9,39.3-20.4,39.3-32.5
							c0-12.2-15.1-23.5-39.3-32.5L331.4,243C343.4,248.3,350.5,254.5,350.5,261.5L350.5,261.5z"/>
						<path id="Shape_2_" class="st3" d="M227.5,296c-67.5,0-122.9-15.6-122.9-34.5S160,227,227.5,227c25.2,0,47.4,2,66.5,5.7
							l49.4-13.9c-32.2-6.8-72.6-11-115.9-11c-105.8,0-192.5,24-192.5,54s86.7,53.7,192.5,53.7c44.3,0,84.6-4.2,116.9-11L295,290.7
							C275.9,294.1,252.7,296,227.5,296L227.5,296z"/>
					</g>
				</g>
			</g>
		</g>
		<g id="home_2_">
			<g id="HOME_2_" transform="translate(-20.000000, -15.000000)">
				<g id="::-loged-in_2_" transform="translate(0.000000, 5.000000)">
					<g id="icon_2_" transform="translate(20.000000, 10.000000)">
						<g id="::-icon_2_">
							
								<linearGradient id="Shape_5_" gradientUnits="userSpaceOnUse" x1="73.0248" y1="271.9722" x2="433.0248" y2="46.9721" gradientTransform="matrix(1 0 0 -1 0 348)">
								<stop  offset="0" style="stop-color:#FFFFFF"/>
								<stop  offset="9.324974e-02" style="stop-color:#FFFFFF;stop-opacity:0.9068"/>
								<stop  offset="1" style="stop-color:#FFFFFF;stop-opacity:0"/>
							</linearGradient>
							<path id="Shape_4_" class="st17" d="M350.5,261.5c0,6.8-7.1,13.3-19.1,18.7l49.4,13.9c24.2-9,39.3-20.4,39.3-32.5
								c0-12.2-15.1-23.5-39.3-32.5L331.4,243C343.4,248.3,350.5,254.5,350.5,261.5L350.5,261.5z"/>
							
								<linearGradient id="Shape_6_" gradientUnits="userSpaceOnUse" x1="29.228" y1="201.8972" x2="389.228" y2="-23.1028" gradientTransform="matrix(1 0 0 -1 0 348)">
								<stop  offset="0" style="stop-color:#FFFFFF"/>
								<stop  offset="9.324974e-02" style="stop-color:#FFFFFF;stop-opacity:0.9068"/>
								<stop  offset="1" style="stop-color:#FFFFFF;stop-opacity:0"/>
							</linearGradient>
							<path id="Shape_1_" class="st18" d="M227.5,296c-67.5,0-122.9-15.6-122.9-34.5S160,227,227.5,227c25.2,0,47.4,2,66.5,5.7
								l49.4-13.9c-32.2-6.8-72.6-11-115.9-11c-105.8,0-192.5,24-192.5,54s86.7,53.7,192.5,53.7c44.3,0,84.6-4.2,116.9-11L295,290.7
								C275.9,294.1,252.7,296,227.5,296L227.5,296z"/>
						</g>
					</g>
				</g>
			</g>
		</g>
	</g>
	<g>
		<g>
			<g>
				<path class="st16" d="M298.9,102.4c0,0-11.5-10.5-7.7-18.2s21.3-6.9,24.3-3.6s4.1,21.8,4.1,21.8S298.9,102.4,298.9,102.4z"/>
				<path class="st3" d="M287.1,218.2c25.8-37.1,2.8-32.5,0.3-63.2h0.1l0,0c10.8-3,21.5-1.7,32.7-1.9c7.2,22.7,5.7,47.5,7.7,71
					c-1.7,0.1-3.3,0.1-5,0.1c-5.2-18.8-7.4-44.1-15.9-61.2c0-0.1-2.6-1.5-2.9-0.1c3.6,28.1,13.1,31.4-12.5,57.9
					C290,219.9,288.6,219,287.1,218.2z"/>
				<g>
					<g>
						<path class="st4" d="M289.6,152c0,0.2,0,0.3,0,0.5"/>
						<path class="st19" d="M289.7,153.5c2.5,31,25.4,26.2-0.2,63.7"/>
						<path class="st4" d="M289.2,217.6c-0.1,0.1-0.2,0.3-0.3,0.4"/>
					</g>
				</g>
				<path class="st7" d="M289.1,161.9c5.2-1.8,5.6-5.4,5.3-10.5c-2-0.4-4.1-0.6-6.1-1"/>
				<g>
					<g>
						<path class="st4" d="M316.8,151.1c0,0.2,0.1,0.3,0.1,0.5"/>
						<path class="st20" d="M317.2,152.5c5.5,22.8,6.6,46.2,8.9,69.5"/>
						<path class="st4" d="M326.1,222.6c0,0.2,0,0.3,0.1,0.5"/>
					</g>
				</g>
				<path class="st7" d="M321,159.2c-5.1,0.3-8.8-2.6-9.7-7.8c2.2-0.6,4.4-1.3,6.5-2"/>
				<path class="st8" d="M323.5,224.7c1.3,0,2.5-0.1,3.9-0.1c0.6,0.7,5.8,2.2,4.9,3.5s-7.1,0.2-9,0.3
					C323.1,227.3,323,225.7,323.5,224.7z"/>
				<path class="st8" d="M287.1,219.4c1.2,0.7,2.2,1.2,3.5,2.1c0,1.1,4,4.8,2.6,5.5s-6.7-3.2-8.3-4.1
					C285.3,221.6,286,220,287.1,219.4z"/>
				<path class="st16" d="M293.5,133.1c0.8-7.2-0.7-13.2-0.6-20.8c0-4.4,8.9-5,11.9-5.4c0.5-0.1,0.9,0,1.3-0.1s0.9,0.1,1.4-0.1
					c2.9-0.8,14.4,1.2,12.7,5.5c-0.7,1.9-1.5,3.6-2.2,5.4c-0.1,0.2-0.2,0.5-0.3,0.7c0.6,3.4,1.4,7.8-2.5,9.3
					c-0.2,0.1-0.3,0.3-0.5,0.4c-0.1,0.3-0.1,0.7-0.2,1c-0.3,1.7-0.4,3.4-0.4,5.3C307.2,135.2,299.9,135.6,293.5,133.1z"/>
				<path class="st21" d="M292.3,139.1c0.6-2.1,1-4.1,1.2-6c6.4,2.6,13.8,2.2,20.7,1.2c0,1.4,0.1,3,0.4,4.5c0.8,5.6,6,10.4,7.1,16.1
					c-6,0.5-12,0.4-18,0.2c-5.6-0.2-10.7,0.8-16,2.1C286.4,150.9,290.8,144.5,292.3,139.1z"/>
				<path class="st0" d="M281.3,155.7c1.1,0.8,4.1,2.8,3.7,4.2c-0.3,1.4-3-2.1-3.2-2.4c0.2,1.8,2.2,7.1,0.7,8.2
					c-1.5,1.1-3.6-7.1-3.9-8.1C279.5,156.8,280.4,156.3,281.3,155.7z"/>
				<path class="st0" d="M275.8,122c1.5,1.7,2.7,3.3,3.9,5c-3.9,8.5-3,19.5,1.1,28.5c-0.7,0.5-1.5,1.1-2.2,1.6
					C270.6,145.9,269.8,132,275.8,122z"/>
				<path class="st16" d="M297,108.9c1.8,5.4,1.6,8.5-4.3,6.4c-6.4,2.2-10.5,6.5-12.9,11.6c-1.3-1.7-2.5-3.3-3.9-5
					C279.8,115.2,286.9,110.1,297,108.9z"/>
				<path class="st0" d="M346.7,107.9c0.2-1.4,0-5.9,1.4-6.4c1.3-0.5,0.3,3.9,0.2,4.3c1.2-1.1,4.1-5.9,5.9-5.2
					c1.8,0.7-3.4,7.6-4.3,8.5C348.7,108.9,347.8,108.5,346.7,107.9z"/>
				<path class="st0" d="M346.9,108.6c0.8,0.6,1.6,1.1,2.5,1.6c-8.2,32.7-14.6,30.2-20.3,21.4c1.1-1.4,2-2.9,3-4.4
					C335.7,133.3,339,133.1,346.9,108.6z"/>
				<path class="st16" d="M317.2,108.4c7.8,2.2,11.4,13.1,14.8,18.7c-1,1.5-1.9,3-3,4.4c-3.5-5.3-6.7-12.9-9.9-16.3
					C312.9,116.1,314.3,113.1,317.2,108.4z"/>
				<path class="st0" d="M297.3,109.2c0.2,2.4,7.1,2.3,8.8,2.3c1.7,0.1,9.2-0.3,9.4-2.9c0.2-2.6-8.1-2.1-9.7-1.9
					C304.2,106.9,297.2,106.8,297.3,109.2z"/>
				
					<linearGradient id="SVGID_3_" gradientUnits="userSpaceOnUse" x1="4378.7158" y1="250.6205" x2="4378.7158" y2="240.6578" gradientTransform="matrix(-1 0 0 -1 4684.5156 348)">
					<stop  offset="0" style="stop-color:#E2E3E4"/>
					<stop  offset="0.9872" style="stop-color:#FFFFFF"/>
				</linearGradient>
				<path class="st22" d="M299.5,97c1.8,3.2,4.2,8.8,0.4,11.4c4.1,2.1,8.1,1.1,12.2-0.5c-4.4-1.8-5.3-8.6-6.2-12.5
					C303.7,95.9,301.6,96.4,299.5,97z"/>
				<path class="st0" d="M296,95.2c2.2,4,11.8,7.4,16.6,4.8c3.6-1.9,1.3-10.9-0.7-14.8s-8.1-5-12.3-2.8
					C293.8,85.3,292.8,89.4,296,95.2z"/>
				<path class="st11" d="M304.5,92.9c0.1,0.3,0.4,0.4,0.6,0.3c0.3-0.1,0.4-0.4,0.3-0.6c-0.1-0.3-0.4-0.4-0.6-0.3
					C304.5,92.4,304.4,92.7,304.5,92.9z"/>
				<path class="st11" d="M311.6,91.1c0.1,0.3,0.4,0.4,0.6,0.3s0.4-0.4,0.3-0.6c-0.1-0.3-0.4-0.4-0.6-0.3
					C311.6,90.5,311.5,90.8,311.6,91.1z"/>
				<path class="st16" d="M310.2,81.3c0,0-5.8,12-13.2,12.2l0.3,4.8c0,0-6.9-8.4-4.3-13.2S310.2,81.3,310.2,81.3z"/>
				<path class="st13" d="M299,93.2c-0.9-1.1-1.3-3.2-3.7-1.8c-2.4,1.4,1,5.7,4.1,4.3"/>
			</g>
		</g>
		<g>
			
				<rect x="343.9" y="101" transform="matrix(0.5818 -0.8134 0.8134 0.5818 62.4465 327.1664)" class="st2" width="10.9" height="3.8"/>
			
				<rect x="345" y="100.4" transform="matrix(0.5818 -0.8134 0.8134 0.5818 63.0769 327.2228)" class="st14" width="9.4" height="3.8"/>
		</g>
	</g>
	<g>
		<g>
			<g>
				<path class="st3" d="M90.8,198.5c-2.3-20.4-9.2-30.6-5.2-51.7c0,0,0,0-0.1,0s0,0,0,0c-7.5-1.1-14.9-2.7-22.4-3.8
					c-7.5,20.6-4.6,35-5.2,55.8c1.3,0,2.5-0.1,3.8-0.1c3.1-15.1,2.7-31,9.8-45.2c0,0,1.9-0.6,1.9,0.5c-0.7,16.7,8.5,29.2,13.6,45
					C88.3,198.8,89.6,198.7,90.8,198.5z"/>
				<g>
					<g>
						<path class="st4" d="M84.2,144.9c0,0.2-0.1,0.3-0.1,0.5"/>
						<path class="st23" d="M83.9,146.4c-4.1,21.9,2.5,29.6,5.6,50.6"/>
						<path class="st4" d="M89.6,197.5c0,0.2,0,0.3,0.1,0.5"/>
					</g>
				</g>
				<path class="st24" d="M84,151.5c-4.1-0.4-4.3-3.3-3.3-6.8c1.5-0.3,3.1-0.6,4.6-0.9"/>
				<g>
					<g>
						<path class="st4" d="M65.7,141.7c0,0.2-0.1,0.3-0.1,0.5"/>
						<path class="st25" d="M65.3,143.2c-5.7,19.7-5.8,33.6-6.1,53.8"/>
						<path class="st4" d="M59.2,197.5c0,0.2,0,0.3,0,0.5"/>
					</g>
				</g>
				<path class="st7" d="M62.2,148.1c4,0.5,6.4-1.6,7.4-5.5c-1.5-0.8-3-1.5-4.5-2.3"/>
				<path class="st8" d="M61.3,199.1c-1,0-1.9,0-3,0.1c-0.4,0.6-4.2,1.9-3.5,2.7c0.7,0.9,5.4-0.2,6.8-0.1
					C61.7,201,61.7,199.8,61.3,199.1z"/>
				<path class="st8" d="M90.8,199c-1,0.1-1.9,0.2-3,0.3c-0.4,0.6-4.2,2.1-3.4,3c0.8,0.9,5.4-0.5,6.8-0.5
					C91.3,200.8,91.3,199.7,90.8,199z"/>
				<path class="st16" d="M85.1,134.5c0.4-7.6,1-13.9,2.8-21c0.8-3.3-6.2-3.2-8.1-3c-0.3,0-0.7,0-1,0s-0.6,0.1-1,0
					c-2.1-0.5-9.6-1.4-9.5,2c0,1.3,0.1,2.5,0.2,3.6c0,0.2,0,0.5,0.1,0.7c-0.1,0.3-0.1,0.5-0.2,0.8c-1.7,1.8-2.4,5,0,7
					c0.1,0.1,0.2,0.2,0.3,0.3c0.1,0.1,0.2,0.2,0.4,0.3c0.1,0.2,0.1,0.4,0.1,0.5c0,0.2,0,0.3,0,0.5s0,0.5,0,0.7
					c-0.1,1.7-0.4,3.4-0.9,5.3c-1.1,4-5.2,7.9-6.2,12.1c4,0.9,8.2,1.6,12.2,2.5c3.7,0.6,7.4,1.1,11.1,1.4
					C86.5,144.1,84.9,138.6,85.1,134.5z"/>
				<path class="st0" d="M68.6,116.4c0-0.1,0-0.2,0-0.2c-0.1-1.2-0.2-2.4-0.2-3.6c-0.1-3.4,7.4-2.5,9.5-2c0.4,0.1,0.7,0,1,0
					s0.7,0,1,0c1.9-0.2,8.9-0.3,8.1,3c-0.5,2-0.9,3.9-1.2,5.8C80.4,119.9,74.5,117.6,68.6,116.4z"/>
				<path class="st0" d="M44.7,145.6c-1,0.4-3.7,2.1-4.6,1.5c-0.9-0.6,2.5-1.6,2.7-1.7c-1.2-0.3-5.6-0.4-5.8-1.7
					c-0.3-1.4,6.2-0.8,7.1-0.5C44.4,144,44.5,144.8,44.7,145.6z"/>
				<path class="st0" d="M69.6,110.8c-17,9.2,2.6,32.3-25,32.6c0.2,0.7,0.3,1.3,0.5,2c26,3.1,15.7-16.5,23.8-29.2
					C73.6,115.5,72.9,113.9,69.6,110.8z"/>
				<path class="st0" d="M85.4,111.5c-0.5,1.7-5.2,2-6.8,2.1c-1.5,0.2-6.2-0.8-6.3-2.7c-0.1-1.9,5.8-0.3,6.7-0.4
					C79.9,110.4,85.9,109.8,85.4,111.5z"/>
				
					<linearGradient id="SVGID_4_" gradientUnits="userSpaceOnUse" x1="2887.3452" y1="244.8159" x2="2887.3452" y2="237.3191" gradientTransform="matrix(1 0 0 -1 -2808.2952 348)">
					<stop  offset="0" style="stop-color:#E2E3E4"/>
					<stop  offset="0.9872" style="stop-color:#FFFFFF"/>
				</linearGradient>
				<path class="st26" d="M83.4,102.5c-0.8,2.2-2.6,7.1,0.1,8.5c-3.2,1.7-5.9,1.8-8.9-0.3c3.5-0.7,3.7-6.6,4-9.2
					C80.2,101.9,81.8,102.2,83.4,102.5z"/>
				<path class="st0" d="M85.9,100.9c-1.3,3.3-8,6.3-11.9,4.5c-2.9-1.3-1.9-7.8-0.7-10.9c1.2-3.1,5.7-4.4,9.1-3.1
					C87,93.2,87.8,96.1,85.9,100.9z"/>
				<path class="st0" d="M75.9,92.8c-0.2,0.8-0.6,1.2-1.3,1.9c-0.6,0.6-1.4,2.1-1.7,3c-0.5,1.5-1,2.6-1.6,4c0.7-0.1,1.5-0.1,2.2-0.1
					C74.3,98.7,75,95.8,75.9,92.8z"/>
				<path class="st10" d="M73.2,101.7c-0.3,0.2-0.6,0.4-0.9,0.6c0-0.2,0-0.4,0-0.5C72.6,101.7,72.9,101.7,73.2,101.7z"/>
				<path class="st11" d="M75.7,98.7c-0.1,0.2-0.2,0.3-0.4,0.3c-0.2,0-0.3-0.2-0.3-0.4c0-0.2,0.2-0.3,0.4-0.3
					C75.7,98.3,75.8,98.5,75.7,98.7z"/>
				<circle class="st27" cx="75.7" cy="98.7" r="2.1"/>
				<line class="st27" x1="77.8" y1="98.7" x2="85.1" y2="98.7"/>
				<line class="st27" x1="73.6" y1="98.7" x2="72.3" y2="99"/>
				<path class="st2" d="M84.5,99.6c0,0-4.4-2.6-3.8-5.6c0,0-5.2-0.8-5.7-1.7c-0.5-0.9,0-4.8,0-4.8l2.8,1.7l3.6-1.7l1.9,2.7l3.4-0.6
					l1.2,4l2.6,0.8c0,0-2.1,6.5-3.8,7.8c-1.7,1.3-3.3,2.8-3.3,2.8l0.6,2l-1.4-0.6v-2.2l1.8-2.5L84.5,99.6z"/>
				<path class="st13" d="M83.4,99.5c0.6-0.9,0.8-2.5,2.7-1.7c1.9,0.9-0.4,4.6-2.7,3.7"/>
				<path class="st28" d="M106.5,154.8H82.3c-1.1,0-2.1-0.9-2.1-2.1v-14.5c0-1.1,0.9-2.1,2.1-2.1h24.2c1.1,0,2.1,0.9,2.1,2.1v14.5
					C108.6,153.9,107.6,154.8,106.5,154.8z"/>
				<path class="st0" d="M93.2,150.7c-0.9,0.5-2.9,2.3-2.5,3.3s2.1-1.9,2.2-2.1c0,1.3-1.1,5.5,0.1,6.2s2.2-5.6,2.4-6.4
					C94.6,151.3,93.9,151,93.2,150.7z"/>
				<path class="st0" d="M85.7,111.2c15.3,0.4,16.1,30.6,9.6,40.3c-0.6-0.3-1.2-0.6-1.8-0.9c4.2-9.5,2-27.9-6-34.7
					C83.1,116.7,83.5,115,85.7,111.2z"/>
			</g>
			<g>
				<path class="st2" d="M81.9,119.7c-0.2,0-0.4-0.2-0.4-0.4c0-7.3,4.5-9.2,4.7-9.3c0.2-0.1,0.4,0,0.5,0.2s0,0.4-0.2,0.5
					s-4.2,1.9-4.2,8.6C82.3,119.6,82.1,119.7,81.9,119.7L81.9,119.7z"/>
			</g>
			<g>
				<path class="st2" d="M71.4,117.4C71.4,117.4,71.3,117.4,71.4,117.4c-0.2,0-0.4-0.2-0.4-0.4c0.2-5.6,3.4-7.7,3.5-7.8
					c0.2-0.1,0.4-0.1,0.6,0.1c0.1,0.2,0.1,0.4-0.1,0.6c0,0-2.9,2-3.1,7.2C71.8,117.2,71.6,117.4,71.4,117.4z"/>
			</g>
		</g>
	</g>
	<g>
		<g>
			<g>
				<path class="st3" d="M174.9,237.5c-1.3-25.8-5.3-51.4-2.8-77.1H172l0,0c-10.6-0.7-21.3-1.4-32-2.2c-9.8,25.2-9.6,52.3-11,79.3
					c2.6,0,5.2,0,7.7,0.1c4-19.4,5.9-48.7,15-65.8c0-0.1,2.7-1.6,3,0.1c0.1,20.2,8.7,45.1,12.4,65.6
					C169.8,237.5,172.4,237.5,174.9,237.5z"/>
				<g>
					<g>
						<path class="st4" d="M141.7,159.9c-0.1,0.2-0.1,0.3-0.2,0.5"/>
						<path class="st29" d="M141.2,161.3c-8.8,23-8.5,49.3-10.8,73.8"/>
						<path class="st4" d="M130.3,235.7c0,0.2,0,0.3,0,0.5"/>
					</g>
				</g>
				<g>
					<g>
						<path class="st4" d="M169.5,161.8c0,0.2-0.1,0.3-0.1,0.5"/>
						<path class="st30" d="M169.2,163.3c-4,23.5,2.7,48.1,4.3,71.8"/>
						<path class="st4" d="M173.5,235.7c0,0.2,0,0.3,0,0.5"/>
					</g>
				</g>
				<path class="st7" d="M169.8,170.9c-5.9-0.5-6.4-3.9-5-9c2-0.6,4.1-1.1,6.2-1.7"/>
				<path class="st7" d="M136.2,169.3c5.7,0.6,9.4-3.4,11.1-8.7c-2-0.8-4-1.6-6-2.5"/>
				<path class="st0" d="M111.8,102.6c0.3-1.5,2.9-6.6,1.8-7.7c-1.2-1-2.5,3.8-2.3,4.4c-0.7-1.5-1.3-7.5-3.7-7.3
					c-2.3,0.2,0.1,9.2,0.7,10.8C109.4,102.8,110.6,102.9,111.8,102.6z"/>
				<path class="st31" d="M172.5,130.8c-1-4.7-1.7-9.5-1.3-15c0.3-3.3,0.3-6.8-3.6-7.9c-8.7-2.4-18.8-2.2-27.2,0.8
					c-3.5,1.2-4.8,3.3-2.9,7c2.7,5.3,3.2,11.7,2.6,18.3C151,135,162.2,133.3,172.5,130.8z"/>
				<path class="st32" d="M140.2,134c-0.7,8.6-3.1,17.7-4.2,25.5c12.3,3.7,26.3,4,38.9,3.8c2.9-13.9-0.3-23-2.4-32.5
					C162.2,133.3,151,135,140.2,134z"/>
				<path class="st31" d="M140.4,108.8c-18.5,6.1-22,48.1-27.7-4.4c-1.5-0.4-3.3,0-4.6-0.7c-8.8,69.7,24.7,23.6,33.7,18
					C150.9,116.2,141.5,113.5,140.4,108.8z"/>
				<path class="st8" d="M136.1,238.2c-2.2,0-4.2,0-6.6,0c-0.3,0.8-6.2,2.4-4.8,3.8s9.2,0.2,11.7,0.3
					C136.6,240.9,136.7,239.2,136.1,238.2z"/>
				<path class="st8" d="M174.3,238.1c-2.2,0-4.2-0.1-6.6-0.1c-0.3,0.8-6.3,2.4-4.9,3.8c1.4,1.4,9.2,0.2,11.8,0.3
					C174.8,240.9,174.9,239.2,174.3,238.1z"/>
				<path class="st0" d="M163.2,109.5c-0.5,2.7-6.2,2-8.1,2s-8.6,1.2-9.5-1.4s7.3-3.5,9-3.5C156.4,106.5,163.7,106.8,163.2,109.5z"
					/>
				
					<linearGradient id="SVGID_5_" gradientUnits="userSpaceOnUse" x1="154.65" y1="251.623" x2="154.65" y2="240.7796" gradientTransform="matrix(1 0 0 -1 0 348)">
					<stop  offset="0" style="stop-color:#E2E3E4"/>
					<stop  offset="0.9872" style="stop-color:#FFFFFF"/>
				</linearGradient>
				<path class="st33" d="M159.3,94.1c0.1,4.5,0.1,9.8,2.2,13.9c-4.2,2.5-9.3,1.5-13.7,0.7c1.7-4.2,2.2-8.2,2-12.8
					C152.9,95.4,156.1,94.7,159.3,94.1z"/>
				<path class="st0" d="M161,91.9c-0.2,4.6-8.2,9.6-13.2,8.9s-4.8-8.5-4.4-12.9s5.3-7.3,9.9-6.7C159.5,82,161.4,85.3,161,91.9z"/>
				<path class="st0" d="M145.6,83.5c-4,2.9-3.6,8-3.1,12.3c0.9-0.3,1.9-0.6,2.8-0.9C145.4,91.2,145.4,87.4,145.6,83.5z"/>
				<path class="st10" d="M144.9,95.1c-0.3,0.3-0.7,0.6-1,0.9c0-0.2,0-0.4-0.1-0.6C144.1,95.3,144.5,95.2,144.9,95.1z"/>
				<path class="st11" d="M146.9,90.8c0,0.3-0.2,0.5-0.5,0.5s-0.5-0.2-0.4-0.5c0-0.3,0.2-0.5,0.5-0.5
					C146.7,90.4,146.9,90.6,146.9,90.8z"/>
				<path class="st0" d="M142.7,148.6c-1.2-0.6-4.6-2.4-5.5-1.2c-1,1.1,3.3,1.7,3.8,1.7c-1.6,0.9-7,2-7.1,4.1c0,2,8-0.8,9.3-0.7
					C143,151.1,142.7,150,142.7,148.6z"/>
				<path class="st31" d="M164.5,107c36.6,8.8,32,58-19.4,46.4c-0.9-1.9-0.4-2.9-1.6-5.3c23.4,4.6,48.3-15.7,28.6-24.7
					C152.5,114.3,169.5,116.6,164.5,107z"/>
				<g>
					
						<rect x="108" y="85.9" transform="matrix(0.8863 -0.463 0.463 0.8863 -31.0082 62.0664)" class="st2" width="5.8" height="16.6"/>
					
						<rect x="107.5" y="86" transform="matrix(0.8863 -0.463 0.463 0.8863 -30.5766 61.7053)" class="st14" width="5.8" height="14.3"/>
				</g>
				<polygon class="st0" points="153.5,111 156.5,116.6 164.7,109.6 162.7,108.1 				"/>
				<polygon class="st0" points="152.2,111 150.6,116.6 143.4,111.8 145.6,109.2 				"/>
				<g>
					<path class="st1" d="M148.8,98.5c-0.2,0-0.4-0.1-0.5-0.4c-0.2-0.7-0.6-1.3-1.1-1.6c-1.1-0.6-2.7-0.1-2.8-0.1
						c-0.3,0.1-0.5-0.1-0.6-0.3c-0.1-0.3,0.1-0.5,0.3-0.6c0.1,0,2-0.7,3.6,0.2c0.8,0.4,1.3,1.2,1.6,2.2c0.1,0.3-0.1,0.5-0.4,0.6
						C148.9,98.5,148.9,98.5,148.8,98.5z"/>
				</g>
				<path class="st2" d="M156,78.1c-1-0.1-12.4,1.1-14.9,5.5c-2.4,4.4,12.4,0.5,12.4,0.5s-0.6,3.6,1.1,4.3c1.6,0.7,2.1,0,2.1,0
					s-1.7,5.3-0.7,5.5s1,0.2,1,0.2l0.8-4.7l1.7,4.1l-0.4,4c0,0,4.8-3.4,4.6-8.9s-4.6-10.4-4.6-10.4l-1.2-0.7l0.1,0.9l-2.6-1.4
					L156,78.1z"/>
				<path class="st13" d="M157.5,90.9c0.3-1.3,0-3.3,2.5-2.8s1.6,5.7-1.8,5.3"/>
			</g>
		</g>
	</g>
	<g>
		<path class="st34" d="M255.5,285.2c-1.8-33.5,8-65.7,2.7-99.3h-0.1l0,0c-14.2-0.3-28.4,0.1-42.5-0.3
			c-5.5,33.3-12.6,66.1-15.9,99.7c3.3,0.2,6.7,0.3,10,0.4c7.1-28.6,15.8-55.9,24.9-84.2c0-0.1,3.4-1.8,4,0c6.6,27.4,1.6,56,6.9,83.6
			C248.8,285.2,252.1,285.2,255.5,285.2z"/>
		<g>
			<g>
				<path class="st4" d="M218.2,187.5c0,0.2,0,0.3-0.1,0.5"/>
				<path class="st35" d="M218,189c-3.6,31.5-12.8,62.1-16.8,93.6"/>
				<path class="st4" d="M201.2,283.1c0,0.2,0,0.3-0.1,0.5"/>
			</g>
		</g>
		<g>
			<g>
				<path class="st4" d="M255.2,187.8c0,0.2,0,0.3,0.1,0.5"/>
				<path class="st36" d="M255.4,189.2c2.9,31.3-3.6,62-1.7,93.2"/>
				<path class="st4" d="M253.7,283c0,0.2,0,0.3,0,0.5"/>
			</g>
		</g>
		<path class="st37" d="M258.8,199.1c-6.9-0.3-10-4-10.1-10.8c2.7-0.9,5.4-1.8,8-2.6"/>
		<path class="st37" d="M214.8,198.5c7,0.4,10.1-3.3,10.3-10.2c-2.6-1-5.3-1.9-7.9-2.9"/>
		<path class="st0" d="M208.4,190.9c1.8,0.3,6.4,1.7,6.4,3.8s-4.4-1.7-4.8-1.9c0.8,2.1,4.8,8.4,3.1,10.3s-6.6-8-7.8-9
			C206.2,192.8,207.3,191.9,208.4,190.9z"/>
		<path class="st38" d="M212,129.2c5,17.2-1.9,39.1-1.6,58.2c17.6,3,34.5,3.1,52.2,1.8c-0.3-20.1-5.6-40-1.3-59.9
			c0.8-3.9-0.9-7.6-5.8-8.5c-11.1-1.9-26.5-4.4-37.6-1.2C213.3,121,210.5,124,212,129.2z"/>
		<path class="st39" d="M224,122.1l9.4,24.2l-3.4,24.4l2.2,19h10.5l2-19.2l-2.3-24.2l6.8-23.2C249.2,123.2,236.3,119.8,224,122.1z"
			/>
		<path class="st39" d="M186.6,156.1c-0.5,2.9-0.6,5.9-0.5,8.8c4.7,0.1,9.5-0.2,14.1-1.2c0.3-1.9,0.8-3.7,1.3-5.6
			C196.5,158.5,191.5,157.9,186.6,156.1z"/>
		<path class="st38" d="M217.8,119.7c-17,5.3-28.6,20.4-31.2,36.3c4.8,1.9,9.8,2.5,14.9,2c2.8-9.4,8.3-17.7,14.1-20.6
			C228.7,131,217.2,126.7,217.8,119.7z"/>
		<path class="st0" d="M186.1,164.8c0.6,11.2,6,22,17.5,29c1.6-1.5,2.6-2.4,4.6-4.2c-8.1-5.5-9.8-15.9-8-26.1
			C195.6,164.7,190.9,165,186.1,164.8z"/>
		<path class="st8" d="M208.6,286.4c-2.9-0.1-5.5-0.2-8.6-0.3c-0.5,1-8.3,2.8-6.5,4.6c1.7,1.8,11.9,0.5,15.3,0.8
			C209.2,289.9,209.3,287.7,208.6,286.4z"/>
		<path class="st8" d="M246.5,285.9c2.9,0.1,5.5,0,8.6,0.1c0.4,1,8.1,3.2,6.3,4.9c-1.8,1.7-12,0-15.3,0.1
			C245.8,289.3,245.7,287.2,246.5,285.9z"/>
		<path class="st0" d="M246.8,122.5c-0.3,3.7-8.2,3.1-10.1,2.9c-1.9-0.2-9.5-0.2-9.7-4s8.2-3.1,10-2.8
			C238.8,118.8,247.1,118.9,246.8,122.5z"/>
		
			<linearGradient id="SVGID_6_" gradientUnits="userSpaceOnUse" x1="236.8" y1="241.0633" x2="236.8" y2="227.69" gradientTransform="matrix(1 0 0 -1 0 348)">
			<stop  offset="0" style="stop-color:#E2E3E4"/>
			<stop  offset="0.9872" style="stop-color:#FFFFFF"/>
		</linearGradient>
		<path class="st40" d="M246.3,104.6c-1.6,5.1-3.2,12,0.1,16.8c-6.7,3.2-12.6,1.9-19.2-0.7c3.1-5.3,5.3-10.6,6.6-16.6
			C238,104.3,242.1,104.4,246.3,104.6z"/>
		<g>
			<path class="st0" d="M240.1,148.7c-0.1,0-7.1-0.8-11.7-9.1c-4.5-8.3-1.1-31.7-0.9-32.7l0.5,0.1c0,0.2-3.5,24.2,0.9,32.3
				c4.5,8.1,11.2,8.9,11.3,8.9L240.1,148.7z"/>
		</g>
		<path class="st0" d="M249.8,102.4c-2.5,5.4-13.9,10-20,7.8c-6.1-2.3-3.5-13.4-1.4-19s10-7.3,15.8-4.9
			C252,89.4,253.4,94.5,249.8,102.4z"/>
		<path class="st13" d="M245.6,100.1c1.2-1.5,1.6-4.1,4.7-2.6s-1.2,7.3-5.1,5.8"/>
		<path class="st0" d="M232.7,86.2c-6.5,2.3-7.6,9.4-8.2,15.4c1.3-0.1,2.6-0.1,3.8-0.2C229.7,96.2,231.4,91.2,232.7,86.2z"/>
		<path class="st10" d="M227.2,101.4c-0.5,0.3-1.1,0.6-1.6,0.9c0-0.3,0.1-0.6,0.1-0.9C226.2,101.4,226.7,101.4,227.2,101.4z"/>
		<path class="st11" d="M238.4,96c-0.1,0.3-0.4,0.5-0.8,0.4c-0.3-0.1-0.5-0.4-0.4-0.8c0.1-0.3,0.4-0.5,0.8-0.4
			C238.3,95.3,238.5,95.7,238.4,96z"/>
		<path class="st11" d="M227.7,96c-0.1,0.3-0.4,0.5-0.8,0.4c-0.3-0.1-0.5-0.4-0.4-0.8c0.1-0.3,0.4-0.5,0.8-0.4
			C227.6,95.3,227.8,95.7,227.7,96z"/>
		<path class="st38" d="M234.5,105.9c0,3.5-2,6.3-4.5,6.3s-4.5-2.8-4.5-6.3s2-3.3,4.5-3.3S234.5,102.4,234.5,105.9z"/>
		
			<rect x="251.1" y="170.8" transform="matrix(0.2747 -0.9615 0.9615 0.2747 8.9959 396.8335)" class="st41" width="32.9" height="43.3"/>
		
			<rect x="253.1" y="170.8" transform="matrix(0.2747 -0.9615 0.9615 0.2747 10.4465 398.7565)" class="st28" width="32.9" height="43.3"/>
		<g>
			<path class="st0" d="M263.2,188.5c-1.8,0.5-6.4,2.3-6.3,4.3s4.6-2,4.9-2.3c-1,2-4.7,8.8-3,10.6s6.5-8.4,7.6-9.6
				C265.4,190.4,264.3,189.5,263.2,188.5z"/>
			<path class="st38" d="M285.2,148.1c-3.7-13.6-15.3-25-33.6-27.9c-0.3,9.7-7.7,12.1,6.8,18.4c6.3,2.8,11.1,9.9,13.2,18.1
				C276.9,154.8,281.6,152,285.2,148.1z"/>
			<path class="st39" d="M285.2,148.1c-3.6,4-8.4,6.7-13.5,8.5c0.5,2.1,0.9,4.3,1.1,6.6c4.5,0.8,9.3,0.8,13.4-0.7
				C286.8,157.6,286.5,152.7,285.2,148.1z"/>
			<path class="st0" d="M272.8,163.2c0.6,8.9-2,18.1-9.4,23.9c2.1,1.7,3,2.6,4.8,3.9c10.8-7.8,16.6-18.1,18-28.4
				C282.1,164,277.3,164,272.8,163.2z"/>
		</g>
	</g>
	<g>
		<path class="st0" d="M60.5,104.5H29.9c-1.9,0-3.5-1.6-3.5-3.5V80.3c0-1.9,1.6-3.5,3.5-3.5h30.6c1.9,0,3.5,1.6,3.5,3.5V101
			C64,102.9,62.4,104.5,60.5,104.5z"/>
		<g>
			<g>
				<path class="st1" d="M34.6,90.7l7.6-3.4v1.9l-5.5,2.2l0,0l5.5,2.2v1.9l-7.6-3.3V90.7z"/>
				<path class="st1" d="M43.4,96.2L46.3,85h1.8l-2.9,11.2H43.4z"/>
				<path class="st1" d="M56.5,92.3l-7.6,3.3v-1.9l5.6-2.2l0,0l-5.6-2.2v-1.9l7.6,3.3V92.3z"/>
			</g>
		</g>
		<polygon class="st0" points="48,104.5 58.7,112.4 58.7,104.5 		"/>
	</g>
	<g>
		<path class="st0" d="M225.6,80.8H195c-1.9,0-3.5-1.6-3.5-3.5V56.6c0-1.9,1.6-3.5,3.5-3.5h30.6c1.9,0,3.5,1.6,3.5,3.5v20.7
			C229.2,79.2,227.6,80.8,225.6,80.8z"/>
		<g>
			<g>
				<path class="st1" d="M199.8,67l7.6-3.4v1.9l-5.5,2.2l0,0l5.5,2.2v1.9l-7.6-3.3V67z"/>
				<path class="st1" d="M208.6,72.5l2.9-11.2h1.8l-2.9,11.2H208.6z"/>
				<path class="st1" d="M221.7,68.6l-7.6,3.3V70l5.6-2.2l0,0l-5.6-2.2v-1.9l7.6,3.3V68.6z"/>
			</g>
		</g>
		<polygon class="st0" points="213.2,80.8 223.9,88.6 223.9,80.8 		"/>
	</g>
	<g>
		<path class="st0" d="M142,70h-30.6c-1.9,0-3.5-1.6-3.5-3.5V45.8c0-1.9,1.6-3.5,3.5-3.5H142c1.9,0,3.5,1.6,3.5,3.5v20.7
			C145.6,68.4,144,70,142,70z"/>
		<polygon class="st0" points="129.6,70 140.3,77.9 140.3,70 		"/>
		<g>
			<g>
				<path class="st1" d="M126.2,62.3v-1.4c-1.1,0-2-0.3-2.7-0.7L124,58c0.4,0.2,0.8,0.4,1.2,0.5c0.5,0.1,1,0.2,1.5,0.2
					c0.9,0,1.3-0.2,1.3-0.7c0-0.4-0.5-0.8-1.6-1.1c-0.9-0.3-1.6-0.7-2.1-1.1c-0.5-0.5-0.8-1.1-0.8-1.8c0-1.6,0.9-2.5,2.7-2.9v-1.4
					h1.8V51c0.5,0,1,0.1,1.4,0.2c0.3,0.1,0.7,0.2,1,0.3l-0.5,2.1l-0.4-0.2c-0.2-0.1-0.3-0.1-0.5-0.2c-0.5-0.1-1-0.2-1.5-0.2
					c-0.8,0-1.2,0.2-1.2,0.7c0,0.3,0.6,0.7,1.8,1.1c1.8,0.6,2.7,1.6,2.7,2.9c0,1.6-1,2.6-2.9,3v1.6
					C127.9,62.3,126.2,62.3,126.2,62.3z"/>
			</g>
		</g>
	</g>
	<g>
		<path class="st0" d="M289.2,71.1h-30.6c-1.9,0-3.5-1.6-3.5-3.5V46.9c0-1.9,1.6-3.5,3.5-3.5h30.6c1.9,0,3.5,1.6,3.5,3.5v20.7
			C292.7,69.5,291.1,71.1,289.2,71.1z"/>
		<polygon class="st0" points="276.7,71.1 287.4,78.9 287.4,71.1 		"/>
		<g>
			<g>
				<path class="st1" d="M273.3,63.3v-1.4c-1.1,0-2-0.3-2.7-0.7l0.5-2.2c0.4,0.2,0.8,0.4,1.2,0.5c0.5,0.1,1,0.2,1.5,0.2
					c0.9,0,1.3-0.2,1.3-0.7c0-0.4-0.5-0.8-1.6-1.1c-0.9-0.3-1.6-0.7-2.1-1.1c-0.5-0.5-0.8-1.1-0.8-1.8c0-1.6,0.9-2.5,2.7-2.9v-1.4
					h1.8V52c0.5,0,1,0.1,1.4,0.2c0.3,0.1,0.7,0.2,1,0.3l-0.5,2.1l-0.4-0.2c-0.2-0.1-0.3-0.1-0.5-0.2c-0.5-0.1-1-0.2-1.5-0.2
					c-0.8,0-1.2,0.2-1.2,0.7c0,0.3,0.6,0.7,1.8,1.1c1.8,0.6,2.7,1.6,2.7,2.9c0,1.6-1,2.6-2.9,3v1.6C275,63.3,273.3,63.3,273.3,63.3z
					"/>
			</g>
		</g>
	</g>
	<g>
		<circle class="st2" cx="108.6" cy="216.4" r="9.1"/>
		<circle class="st2" cx="99.5" cy="206.1" r="2.8"/>
	</g>
	<g>
		<circle class="st2" cx="267.4" cy="92.9" r="9.1"/>
		<circle class="st2" cx="266.5" cy="106.6" r="2.8"/>
	</g>
	<circle class="st2" cx="332.9" cy="176.7" r="3.4"/>
	<circle class="st2" cx="32.7" cy="172.5" r="3.4"/>
	<circle class="st2" cx="335.5" cy="109.9" r="3.4"/>
	
		<linearGradient id="SVGID_7_" gradientUnits="userSpaceOnUse" x1="89.2" y1="230.9293" x2="89.2" y2="120.2064" gradientTransform="matrix(1 0 0 -1 0 348)">
		<stop  offset="8.750000e-02" style="stop-color:#469AED"/>
		<stop  offset="1" style="stop-color:#469AED;stop-opacity:0"/>
	</linearGradient>
	<polygon class="st42" points="82.8,230.8 54.8,201.9 61.6,201.8 101.3,220.6 86.8,202.5 91.2,201.7 123.6,230.9 	"/>
	
		<linearGradient id="SVGID_8_" gradientUnits="userSpaceOnUse" x1="181.9" y1="187.8004" x2="181.9" y2="80.9597" gradientTransform="matrix(1 0 0 -1 0 348)">
		<stop  offset="8.750000e-02" style="stop-color:#469AED"/>
		<stop  offset="1" style="stop-color:#469AED;stop-opacity:0"/>
	</linearGradient>
	<polygon class="st43" points="124.7,241.9 156,270.1 239.1,270.1 174.6,242.2 162.8,241.9 191.3,257.2 136.4,242.2 	"/>
	
		<linearGradient id="SVGID_9_" gradientUnits="userSpaceOnUse" x1="332.95" y1="216.6093" x2="332.95" y2="90.0958" gradientTransform="matrix(1 0 0 -1 0 348)">
		<stop  offset="8.750000e-02" style="stop-color:#469AED"/>
		<stop  offset="1" style="stop-color:#469AED;stop-opacity:0"/>
	</linearGradient>
	<polygon class="st44" points="375.5,261.5 332.3,228.1 323.4,228.4 339.3,244.2 297.3,238.9 290.4,239.4 318,258.6 	"/>
	
		<linearGradient id="SVGID_10_" gradientUnits="userSpaceOnUse" x1="252.75" y1="148.9521" x2="252.75" y2="29.1208" gradientTransform="matrix(1 0 0 -1 0 348)">
		<stop  offset="8.750000e-02" style="stop-color:#469AED"/>
		<stop  offset="1" style="stop-color:#469AED;stop-opacity:0"/>
	</linearGradient>
	<polyline class="st45" points="193.5,290.6 201.6,322.3 312,319.3 261.4,290.8 248.4,290.6 259.8,313.3 212.2,291.6 197.2,290.6 	
		"/>
</g>
<g>
	<path class="st0" d="M219.5,195.7c-1.4-24.8,10.9-38.4,20-48.3c1.8-2,3.5-3.9,5-5.7c10.7-13.2,2.6-40,2.6-40.3l0.5-0.1
		c0.1,0.3,8.2,27.3-2.6,40.7c-1.5,1.8-3.2,3.7-5,5.7c-9.5,10.4-21.3,23.4-19.8,47.9L219.5,195.7z"/>
</g>
<circle class="st0" cx="238.9" cy="148.1" r="1.1"/>
<path class="st39" d="M222,193.1h-4.1v4.7c0,0,3.5-2.2,4.3-4.7"/>
</svg>
