<?xml version="1.0" encoding="UTF-8" standalone="no"?>
<svg width="135px" height="138px" viewBox="0 0 135 138" version="1.1" xmlns="http://www.w3.org/2000/svg" xmlns:xlink="http://www.w3.org/1999/xlink">
    <!-- Generator: sketchtool 3.8.3 (29802) - http://www.bohemiancoding.com/sketch -->
    <title>5ED8C60A-759B-4685-B2CC-114AE1138711</title>
    <desc>Created with sketchtool.</desc>
    <defs></defs>
    <g id="home" stroke="none" stroke-width="1" fill="none" fill-rule="evenodd" fill-opacity="0.2">
        <g id="HOME" transform="translate(-163.000000, -4644.000000)" fill="#CECECE">
            <g id="::-data" transform="translate(163.000000, 4506.000000)">
                <g id="::-collective" transform="translate(0.000000, 138.000000)">
                    <path d="M67.9316875,0.363902354 C69.6528259,0.388630529 71.3714834,0.462253048 73.0868332,0.610622096 C76.227828,0.882351014 79.3498032,1.37719551 82.4227133,2.09290756 C87.7953442,3.3444904 93.0116835,5.27385002 97.9303242,7.80736391 C100.275527,9.01539144 102.541068,10.367011 104.745415,11.8237253 C104.915489,11.9442751 104.91411,11.9431511 105.080877,12.068197 C105.771096,12.6164319 106.369801,13.2618934 106.839503,14.0163837 C107.379495,14.8838369 107.740592,15.8648148 107.892474,16.880637 C108.095074,18.2361905 107.923346,19.6406385 107.399342,20.9037424 C107.056437,21.7307312 106.567164,22.4700474 105.971216,23.1284351 C103.925641,25.2632072 101.829623,27.3473989 99.7573109,29.4551947 C97.8429442,31.4025385 95.9260967,33.3470722 94.0084222,35.291044 C93.5012321,35.7844834 92.948836,36.2135735 92.3294578,36.5513379 C90.6560063,37.4634703 88.6581186,37.6750648 86.8369204,37.1316069 C86.4468803,37.0152721 86.0667634,36.8657791 85.7009802,36.6848138 C85.4473851,36.5594869 85.2067455,36.4136469 84.9616956,36.2723029 C84.7177482,36.1315209 84.4715956,35.9952349 84.2248918,35.859792 C83.8932887,35.6810747 83.5597561,35.5068535 83.2237427,35.3365663 C81.4245963,34.443261 79.560673,33.6969197 77.6396907,33.1219896 C73.3834291,31.8482076 68.8909383,31.3893314 64.4692886,31.7338398 C58.6291607,32.188782 52.9326448,34.0993145 47.9652146,37.2622729 C42.8591341,40.5134658 38.5604229,45.0443418 35.5522898,50.3611804 C33.3906679,54.1814023 31.9035537,58.391374 31.193212,62.7424088 C30.5832057,66.4774871 30.5360701,70.3089492 31.0540103,74.0583587 C31.5350139,77.5408163 32.508047,80.9499323 33.9342433,84.1525119 C35.3932416,87.4287141 37.3213907,90.4843296 39.6346183,93.2016188 C42.3276871,96.3651392 45.5392475,99.0652872 49.1008792,101.154256 C52.3284271,103.047366 55.8390643,104.433268 59.4773258,105.242835 C62.6370646,105.945902 65.8872155,106.213416 69.1172442,106.05184 C72.8508796,105.864973 76.5734891,105.094185 80.0165927,103.591105 C81.0998845,103.118179 82.1531307,102.57444 83.1653056,101.959327 C83.7055733,101.631116 84.2281995,101.276492 84.7494475,100.917933 L85.0308829,100.742869 C85.5998178,100.42337 86.1855672,100.15979 86.8148687,99.9886597 C88.4458706,99.5452386 90.2091829,99.6966987 91.7442597,100.412411 C92.233257,100.640584 92.6971705,100.923553 93.1252499,101.255417 C93.3559663,101.434415 93.4080635,101.487243 93.626927,101.681697 C95.7091627,103.706316 97.7034669,105.823104 99.738567,107.89718 C101.794065,109.991768 103.846806,112.089448 105.898996,114.187409 C106.449463,114.763182 106.914203,115.412016 107.263723,116.13391 C107.941263,117.5333 108.170326,119.140631 107.911218,120.678555 C107.754926,121.606704 107.423874,122.503101 106.940941,123.305642 C106.452771,124.117738 105.816027,124.808722 105.075364,125.386181 C104.731357,125.639645 104.7286,125.633463 104.366125,125.883836 C103.348437,126.573414 102.319448,127.243323 101.269233,127.880636 C99.165773,129.156385 96.9939522,130.314956 94.7656238,131.347076 C88.5191926,134.240273 81.8347587,136.119614 75.0185657,136.914006 C65.9988525,137.965797 56.7790197,137.162693 48.075749,134.524647 C39.9910295,132.074309 32.3862111,128.051204 25.751945,122.743638 C19.3974602,117.660032 13.9498534,111.410828 9.7498237,104.376506 C5.97842475,98.0598621 3.2233354,91.1227661 1.63202667,83.9077592 C0.134437831,77.1190323 -0.331680837,70.0979167 0.230362903,63.1639117 C0.757950798,56.6550628 2.20454498,50.2282664 4.52273422,44.1395154 C7.70507604,35.7811114 12.5162146,28.0909301 18.5887126,21.6068093 C24.3681982,15.4348818 31.2723226,10.373474 38.8575701,6.76484655 C44.6183117,4.0242342 50.7599971,2.12915682 57.0441919,1.15042691 C60.2891055,0.644904338 63.5632377,0.39453157 66.845088,0.362216342 C67.2072879,0.361092334 67.5694877,0.362216342 67.9316875,0.363902354 L67.9316875,0.363902354 Z M66.8980122,8.79199486 C64.0166766,8.82037606 61.1422322,9.04011961 58.2931473,9.48382174 C52.9039776,10.3231747 47.6338872,11.931068 42.679688,14.2507394 C35.8965726,17.4266238 29.7240147,21.9243416 24.5699717,27.4277654 C19.493661,32.8485747 15.4165698,39.2312538 12.6314349,46.1683497 C10.5577443,51.3331662 9.20183794,56.7927538 8.61360776,62.3411379 C7.95591459,68.5436947 8.23927946,74.8513463 9.4692153,80.9634204 C10.7247863,87.2030695 12.9699291,93.226066 16.0885965,98.745226 C19.687165,105.113855 24.4368343,110.794872 30.0272262,115.435339 C35.7551658,120.190173 42.351944,123.837298 49.3927892,126.118191 C56.977761,128.575554 65.0423582,129.426428 72.9633435,128.657606 C78.951218,128.076494 84.8409623,126.547562 90.3635451,124.115209 C93.3195809,122.813327 96.1499218,121.250956 98.8625616,119.484577 L99.1897543,119.267082 C95.6578924,115.656487 92.1188636,112.052918 88.5803862,108.448786 C88.2906814,108.640149 87.9993228,108.827577 87.705759,109.012476 C86.0750328,110.015373 84.3773244,110.89238 82.6115313,111.621018 C78.2204784,113.432076 73.5038868,114.346737 68.7768205,114.502693 C63.2189549,114.686188 57.6412428,113.824354 52.3959606,111.937145 C49.4854065,110.890132 46.6829059,109.534016 44.0452421,107.899709 C40.0558065,105.428015 36.448693,102.321257 33.389014,98.7269608 C30.1964733,94.9769894 27.6034642,90.6995772 25.7549771,86.1049137 C24.1388601,82.0882714 23.093332,77.8372733 22.6608422,73.5182728 C22.1988582,68.9042203 22.4259912,64.2185122 23.3430679,59.6752721 C24.3014917,54.9283056 26.0138094,50.3468493 28.3887818,46.1492416 C32.3432102,39.1598793 38.1169072,33.2846898 44.9769281,29.2610224 C51.2341095,25.5908555 58.3380778,23.5091928 65.5517534,23.2281908 C71.1228501,23.0112573 76.7363963,23.830659 82.0048328,25.6979172 C84.2191032,26.4827558 86.3603272,27.4567086 88.4235432,28.5902706 L88.7245494,28.7585908 C92.2004551,25.235107 95.6691939,21.704036 99.1382083,18.1735271 C98.7368666,17.9178153 98.3324928,17.6671615 97.9270165,17.4187558 C96.2461225,16.4088346 94.5296702,15.466354 92.7655309,14.616042 C89.1997645,12.8977148 85.4688856,11.5368222 81.6407034,10.5687704 C78.7847273,9.84659531 75.8761028,9.34332075 72.946529,9.06147576 C71.6325209,8.93530587 70.3163076,8.85971634 68.9976135,8.81559903 C68.2974708,8.79873891 67.598155,8.78974684 66.8980122,8.79199486 L66.8980122,8.79199486 Z M117.51861,27.7379916 C118.05364,27.7627198 118.581228,27.8315653 119.100547,27.9675702 C120.186319,28.2513822 121.203456,28.7925921 122.052172,29.5386523 C122.457097,29.8944008 122.813233,30.2951097 123.13822,30.7270097 C123.386854,31.0771382 123.380789,31.0799482 123.626391,31.4483418 C124.642149,33.0028448 125.609393,34.587977 126.50497,36.2177885 C128.605122,40.0399775 130.340319,44.0695459 131.670866,48.2356813 C135.918031,61.5346622 135.957173,76.1459224 131.919775,89.5025087 C130.606042,93.8482044 128.866987,98.0584571 126.74809,102.059644 C125.788288,103.872107 124.74469,105.633428 123.643756,107.360466 C123.524401,107.53553 123.525504,107.534125 123.402014,107.704693 C122.862022,108.409165 122.227483,109.020064 121.484064,109.49861 C120.173639,110.342178 118.608517,110.743449 117.062414,110.632453 C116.197435,110.570351 115.344308,110.349765 114.554856,109.984462 C113.816398,109.642764 113.153468,109.175458 112.557519,108.616826 C110.385423,106.470252 108.27452,104.25989 106.134674,102.079877 C104.164351,100.072398 102.196233,98.0629531 100.228667,96.052665 C99.7490415,95.5434894 99.3311611,94.9882294 99.0006606,94.366091 C98.1086677,92.6862612 97.8853938,90.681312 98.3859683,88.840468 C98.4934706,88.4448172 98.6329478,88.0584395 98.8030219,87.6863929 C98.9251334,87.419722 99.0679184,87.1662582 99.2065687,86.9088604 C99.3956624,86.5581699 99.5778649,86.2043884 99.7578622,85.8486399 C99.9792066,85.4032518 100.19366,84.9547726 100.401773,84.5026404 C101.749961,81.5183993 102.75111,78.3796072 103.314257,75.1421833 C104.251456,69.7548133 103.966988,64.1746759 102.473534,58.9185338 C101.920862,56.972595 101.205559,55.0747076 100.33672,53.2526908 C99.9306928,52.4009738 99.480286,51.5759519 99.0224367,50.7523351 L98.8826838,50.4755482 C98.6249541,49.9070811 98.4171164,49.326531 98.2930754,48.7114177 C97.9719469,47.1189795 98.1773037,45.4354966 98.8713823,43.9717572 C99.184517,43.3116836 99.594955,42.7238274 100.068792,42.1750306 C102.012928,40.1062939 104.042515,38.1227009 106.032134,36.0994867 C108.070266,34.026816 110.111154,31.9569554 112.152319,29.8873758 C113.098063,28.9499532 114.259363,28.2716144 115.543049,27.9495861 C116.059336,27.8200442 116.583616,27.7562568 117.114236,27.7363056 C117.317663,27.7340576 117.316009,27.7340576 117.51861,27.7379916 L117.51861,27.7379916 Z M115.113867,38.7740635 C112.292623,41.6408458 109.472757,44.509314 106.65289,47.3777823 C106.875613,47.7872022 107.092822,48.1994321 107.305346,48.614472 C108.799903,51.5933741 109.978568,54.7234552 110.788694,57.9670611 C112.367048,64.2867957 112.545667,70.9372696 111.324827,77.3379328 C110.710135,80.5604636 109.748955,83.7119008 108.481806,86.7295811 C107.921141,88.0643406 107.296525,89.3687518 106.624774,90.6489968 L106.623672,90.6512448 C110.216452,94.3214117 113.81502,97.9853966 117.413313,101.649943 C117.666356,101.237995 117.914439,100.823517 118.160591,100.407353 C119.152368,98.6968936 120.07799,96.9496233 120.912648,95.1537396 C122.677339,91.3576838 124.058605,87.3772907 125.016477,83.2909598 C127.472214,72.8146439 127.148054,61.6495921 123.972052,51.3694155 C122.371922,46.1894249 120.049047,41.2679562 117.136012,36.7238731 C116.462056,37.4072699 115.787824,38.0906667 115.113867,38.7740635 L115.113867,38.7740635 Z" id="oc-icon"></path>
                </g>
            </g>
        </g>
    </g>
</svg>