<?xml version="1.0" encoding="utf-8"?>
<!-- Generator: Adobe Illustrator 22.1.0, SVG Export Plug-In . SVG Version: 6.00 Build 0)  -->
<svg version="1.1" id="Capa_1" xmlns="http://www.w3.org/2000/svg" xmlns:xlink="http://www.w3.org/1999/xlink" x="0px" y="0px"
	 viewBox="0 0 460 348" style="enable-background:new 0 0 460 348;" xml:space="preserve">
<style type="text/css">
	.st0{fill:url(#SVGID_1_);}
	.st1{fill:#0098D2;}
	.st2{fill:#DEECFC;}
	.st3{fill:#B8D3F4;}
	.st4{fill:#FFFFFF;}
	.st5{enable-background:new    ;}
	.st6{fill:#329FD6;}
	.st7{fill:#46B0ED;}
	.st8{fill:#6C7C8F;}
	.st9{fill:url(#SVGID_2_);}
	.st10{fill:#3385FF;}
	.st11{fill:none;stroke:#9999FF;stroke-width:0.5;stroke-miterlimit:10;}
	.st12{fill:none;stroke:#9999FF;stroke-width:0.5;stroke-miterlimit:10;stroke-dasharray:0.992,0.992;}
	.st13{fill:#3385FF;stroke:#9999FF;stroke-width:0.5;stroke-miterlimit:10;stroke-dasharray:1;}
	.st14{fill:none;stroke:#9999FF;stroke-width:0.5;stroke-miterlimit:10;stroke-dasharray:1.0097,1.0097;}
	.st15{fill:#B7B7B7;}
	.st16{fill:#D1D1D1;}
	.st17{fill:#0098D2;stroke:#9999FF;stroke-width:0.5;stroke-miterlimit:10;stroke-dasharray:1;}
	.st18{fill:#0084B5;}
	.st19{fill:url(#SVGID_3_);}
	.st20{fill:#EAEAEA;}
	.st21{fill:#C6C6C6;}
	.st22{fill:#FFFFFF;stroke:#EAEAEA;stroke-width:0.25;stroke-miterlimit:10;}
	.st23{fill:none;stroke:#9999FF;stroke-width:0.5;stroke-miterlimit:10;stroke-dasharray:1.0143,1.0143;}
	.st24{fill:none;stroke:#9999FF;stroke-width:0.5;stroke-miterlimit:10;stroke-dasharray:0.9936,0.9936;}
	.st25{fill:#00B9F2;}
	.st26{fill:#8DD8F8;}
	.st27{fill:url(#SVGID_4_);}
	.st28{fill:#9E9E9E;}
	.st29{fill:none;stroke:#9999FF;stroke-width:0.5;stroke-miterlimit:10;stroke-dasharray:1.0109,1.0109;}
	.st30{fill:none;stroke:#9999FF;stroke-width:0.5;stroke-miterlimit:10;stroke-dasharray:0.9946,0.9946;}
	.st31{fill:#C6EAFA;}
	.st32{fill:url(#SVGID_5_);}
	.st33{fill:none;}
	.st34{fill:none;stroke:#9999FF;stroke-width:0.5;stroke-miterlimit:10;stroke-dasharray:1.0053,1.0053;}
	.st35{fill:none;stroke:#9999FF;stroke-width:0.5;stroke-miterlimit:10;stroke-dasharray:1.0142,1.0142;}
	.st36{fill:url(#SVGID_6_);}
	.st37{fill:url(#SVGID_7_);}
	.st38{fill:url(#SVGID_8_);}
	.st39{fill:none;stroke:#9999FF;stroke-width:0.5;stroke-miterlimit:10;stroke-dasharray:1.0058,1.0058;}
	.st40{fill:none;stroke:#9999FF;stroke-width:0.5;stroke-miterlimit:10;stroke-dasharray:1.0046,1.0046;}
	.st41{fill:url(#SVGID_9_);}
	.st42{fill:none;stroke:#9999FF;stroke-width:0.5;stroke-miterlimit:10;stroke-dasharray:0.998,0.998;}
	.st43{fill:none;stroke:#9999FF;stroke-width:0.5;stroke-miterlimit:10;stroke-dasharray:1.0069,1.0069;}
	.st44{fill:url(#SVGID_10_);}
	.st45{fill:url(#SVGID_11_);}
	.st46{fill:url(#SVGID_12_);}
	.st47{fill:url(#SVGID_13_);}
	.st48{fill:url(#SVGID_14_);}
</style>
<linearGradient id="SVGID_1_" gradientUnits="userSpaceOnUse" x1="161.6667" y1="300.6667" x2="161.6667" y2="-160.6787">
	<stop  offset="0" style="stop-color:#469AED;stop-opacity:0"/>
	<stop  offset="0.8775" style="stop-color:#469AED"/>
</linearGradient>
<path class="st0" d="M279.1,127v-31c0-44.3-36.3-80.6-80.6-80.6h-118C36.3,15.5,0,51.8,0,96.1v90.5c0,44.3,36.3,80.6,80.6,80.6h118
	c44.3,0,80.6-36.3,80.6-80.6v-10.4c34.8,1.1,44.2,27.5,44.2,27.5C323.3,148.3,292.4,131.7,279.1,127z"/>
<circle class="st1" cx="228.5" cy="189.6" r="3.4"/>
<g>
	<g>
		<path class="st2" d="M125.8,96.8H50.5c-6.6,0-12-5.4-12-12V41.5c0-6.6,5.4-12,12-12h75.2c6.6,0,12,5.4,12,12v43.3
			C137.8,91.4,132.4,96.8,125.8,96.8z"/>
		<g>
			<path class="st3" d="M137.8,33.8c0-2.4-1.9-4.3-4.3-4.3H42.9c-2.4,0-4.3,1.9-4.3,4.3v3h99.2V33.8z"/>
		</g>
		<path class="st4" d="M110.4,34.9H43.5c-1,0-1.8-0.8-1.8-1.8V33c0-1,0.8-1.8,1.8-1.8h66.8c1,0,1.8,0.8,1.8,1.8v0.1
			C112.1,34.1,111.3,34.9,110.4,34.9z"/>
		<circle class="st4" cx="125.5" cy="33.1" r="1.1"/>
		<circle class="st4" cx="128.6" cy="33.1" r="1.1"/>
		<circle class="st4" cx="131.6" cy="33.1" r="1.1"/>
	</g>
	<g>
		<g>
			<g class="st5">
				<g>
					<polygon class="st6" points="172,177.6 146.4,163.7 146.5,94.9 172.1,108.8 					"/>
				</g>
				<g>
					<polygon class="st3" points="172.1,108.8 146.5,94.9 183.3,89.7 208.9,103.6 					"/>
				</g>
				<g>
					<polygon class="st7" points="208.9,103.6 208.8,172.4 172,177.6 172.1,108.8 					"/>
				</g>
			</g>
		</g>
		<g>
			<g class="st5">
				<g>
					<polygon class="st8" points="93.4,195.9 67.8,182 67.9,132.5 93.5,146.4 					"/>
				</g>
				<g>
					<polygon class="st6" points="93.5,146.4 67.9,132.5 68,94.5 93.5,108.4 					"/>
				</g>
				<g>
					<polygon class="st3" points="93.5,108.4 68,94.5 114.8,88 140.3,101.9 					"/>
				</g>
				<g>
					<polygon class="st7" points="140.3,101.9 140.2,189.3 93.4,195.9 93.5,146.4 93.5,108.4 					"/>
				</g>
				<g>
					<polygon class="st6" points="65.5,199.8 39.9,185.8 40,136.4 65.6,150.3 					"/>
				</g>
				<g>
					<polygon class="st3" points="65.6,150.3 40,136.4 67.9,132.5 93.5,146.4 					"/>
				</g>
				<g>
					<polygon class="st7" points="93.5,146.4 93.4,195.8 65.5,199.8 65.6,150.3 					"/>
				</g>
			</g>
		</g>
	</g>
	
		<radialGradient id="SVGID_2_" cx="288.5652" cy="36.8152" r="57.8669" gradientTransform="matrix(1.4475 0 0 -0.5567 -300.8981 131.595)" gradientUnits="userSpaceOnUse">
		<stop  offset="0" style="stop-color:#FFFFFF;stop-opacity:0.5"/>
		<stop  offset="1" style="stop-color:#FFFFFF;stop-opacity:0"/>
	</radialGradient>
	<ellipse class="st9" cx="116.8" cy="111.1" rx="83.8" ry="32.2"/>
	<g>
		<path class="st4" d="M63.6,111.1c0.8,0.2,1.6,0.4,2.5,0.5s1.9,0.2,2.9,0.3c-7.2,8.6-18.1,18.3-27.2,7.5c0.5-0.5,1-1,1.5-1.6
			C52.8,122.9,57.6,117.3,63.6,111.1z"/>
		<path class="st10" d="M55.2,171c-37.5-23.7,12-18.5,20.8-33.2l0,0l0,0c-3.8-4.7-15.2-8.8-16-10.9c-6.7,8.7-41.7-14.5-36.9,42.2
			c1.4-0.2,2.8-0.5,4.1-0.9c-1.3-33.4,9.3-28.4,31.8-33c0.1,0,3.1-0.4,3.2,0.5c-16.6,10.2-48.8,20.9-9.3,38.8
			C53.8,173.4,54.6,172.4,55.2,171z"/>
		<g>
			<g>
				<path class="st11" d="M75.6,135c-0.1,0.1-0.1,0.3-0.2,0.4"/>
				<path class="st12" d="M74.9,136.2c-8.6,11.1-60.3,16.7-21.8,34.9"/>
				<path class="st11" d="M53.6,171.3c0.2,0.1,0.3,0.1,0.5,0.2"/>
			</g>
		</g>
		<path class="st13" d="M72.9,141.4c-1.6-3.1-1.6-5.4-0.2-8.6c1.4,0.5,2.8,1,4.1,1.5"/>
		<g>
			<g>
				<path class="st11" d="M61,127c-0.1,0.1-0.2,0.3-0.3,0.4"/>
				<path class="st14" d="M60,128.1c-7.5,5-42.3-7.5-35.9,38.9"/>
				<path class="st11" d="M24.2,167.5c0,0.2,0,0.3,0.1,0.5"/>
			</g>
		</g>
		<polygon class="st15" points="47.6,127 62.9,132.8 46.6,139.3 30.9,132.2 		"/>
		<polygon class="st15" points="30.9,132.2 30.9,131.2 62.9,131.9 62.9,132.8 		"/>
		<polygon class="st16" points="47.6,126 62.9,131.9 46.6,138.3 30.9,131.2 		"/>
		<path class="st17" d="M58.1,129.1c-0.3,3.5,4.1,1.2,4.8-0.8c-0.8-0.7-1.6-1.5-2-2.5"/>
		<path class="st18" d="M26.7,168.8c-1.1,0.3-2,0.5-3.3,0.7c-0.4,0.6-4.5,2.7-3.6,3.5s6-1.2,7.5-1.4
			C27.4,170.7,27.3,169.5,26.7,168.8z"/>
		<path class="st18" d="M55.6,171.4c-0.5,1.1-1,1.8-1.8,2.8c0.1,0.7-1.9,5.2-0.6,5.2c1.2,0,3.9-5.1,4.9-6.3
			C57.5,172.3,56.6,171.5,55.6,171.4z"/>
		<path class="st4" d="M81.9,100.8c-0.7,1.9-6.4,1.6-7.9,1.9s-6,0.4-6.2-1.5c-0.1-2,4.7-1.2,5.7-1.4C74.7,99.5,82.6,98.9,81.9,100.8
			z"/>
		
			<linearGradient id="SVGID_3_" gradientUnits="userSpaceOnUse" x1="74.35" y1="255.1221" x2="74.35" y2="248.1714" gradientTransform="matrix(1 0 0 -1 0 348)">
			<stop  offset="0" style="stop-color:#E2E3E4"/>
			<stop  offset="0.9872" style="stop-color:#FFFFFF"/>
		</linearGradient>
		<path class="st19" d="M76.4,91.4c-0.3,3.3-0.3,7.4,3.2,8.8c-3.6,1.3-6.7,1.6-10.5,0.4c3.4-1.4,2.7-6.2,2.3-8.9
			C73.1,91.6,74.8,91.5,76.4,91.4z"/>
		<path class="st4" d="M78.4,89.2c-0.4,3.7-6.5,7.6-10.6,7.1c-3-0.4-3.8-6.8-3.7-10.1c0.1-3.3,4.3-5.9,7.9-5.5
			C77,81.3,79,83.9,78.4,89.2z"/>
		<path class="st4" d="M65.9,84c0.1,0.9-0.2,1.4-0.6,2.2c-0.3,0.8-0.6,2.4-0.6,3.3c0,1.5-0.2,2.7-0.4,4.2c0.7-0.2,1.5-0.5,2.2-0.7
			C66.4,90,66.1,87,65.9,84z"/>
		<path class="st20" d="M66.2,93.1c-0.2,0.2-0.5,0.5-0.7,0.7c0-0.2-0.1-0.3-0.1-0.5C65.6,93.3,65.9,93.2,66.2,93.1z"/>
		<path class="st21" d="M67.8,89.7c0,0.2-0.1,0.4-0.3,0.4c-0.2,0-0.4-0.1-0.4-0.4c0-0.2,0.1-0.4,0.3-0.4
			C67.6,89.4,67.8,89.5,67.8,89.7z"/>
		<path class="st7" d="M78.5,90c1.1-3,2.3-6-0.2-8.9s-7.9-3.4-11.8-3.4c0.3,0.5,0.8,1.1,1.1,1.6c-2.3,0.4-4.4,1-6.1,2.7
			c0.5,0.2,1,0.4,1.6,0.6c-1.4,1.6-1.4,3.6-0.9,5.5c0.8-0.4,1.5-0.8,2.3-1.3c0.1-1.9,0.8-3.4,2.3-4.5c0.4,1.8,1.7,2.7,3.3,3.3
			c0-0.6,0-1.2,0-1.7c0.8,2.1,2.3,3.4,4.5,3.9c0.1,0.9,0.2,1.9,0.4,2.8c0.4-1.1,0.7-2.3,1.1-3.4c0.4,1.6,0.8,3.3,1.2,4.9
			C77.9,91.5,78.3,90.9,78.5,90z"/>
		<path class="st22" d="M75.6,88.5c0.3-1.1,0-2.7,2.1-2.3s1,4.5-1.6,4.3"/>
		<path class="st4" d="M56.7,128.5c-0.7-0.7-2.7-2.8-3.7-2.3s2.1,2,2.3,2.1c-1.3,0.2-5.5-0.4-6,0.9c-0.5,1.3,5.7,1.6,6.5,1.6
			C56.2,130,56.4,129.3,56.7,128.5z"/>
		<path class="st4" d="M42.9,122.6c0.7,0.8,2.5,3.1,1.9,4s-1.8-2.4-1.9-2.6c-0.3,1.3,0,5.8-1.5,6.3c-1.4,0.5-1.1-6.2-1-7
			C41.3,122.9,42.1,122.8,42.9,122.6z"/>
		<polygon class="st15" points="46.6,138.3 44.9,118.1 28.2,112.9 30.9,131.2 		"/>
		<ellipse class="st16" cx="36.9" cy="125.2" rx="1.3" ry="2.6"/>
		<g>
			<path class="st3" d="M62.5,108.5c0.1,3.6,0.5,6.5-0.3,11c-0.6,3.5-1.2,4.8-2.8,7.7c0.4,3.8,4.3,3.5,7.3,4.5
				c3.3,2.2,6.1,4.6,8.5,7.6c3.2-4.1,1.4-10.6,2.5-14.8c1.4-5.4,2.3-13.1,3.8-17.6C75.9,102.3,65.6,107.6,62.5,108.5z"/>
		</g>
		<g>
			<path class="st4" d="M84,101.5c-0.1-0.1-0.2-0.2-0.3-0.2c-2.8-1.7-6-1.8-9-1.6c-0.9,0.1-0.7,0.1-1.3,0.1c-0.6,0-0.5,0-1.2,0
				c-2,0-3.2,0.2-5.3,0.8c-0.3,0.1-0.5,0.3-0.7,0.5c-0.4,0.7-0.7,1.5-1,2.2c-0.5,1.1-2,3.7-2.5,4.8l0,0c2.3-0.5,4.7-0.3,6.9-0.2
				c3.9,0.1,7.7,0.3,11.6,0.9c0-0.1,0-0.1,0.1-0.2c0.4-1.1,2-0.9,2.1,0.3c1.2,11.9-14.8,21.1-25.7,20c-0.5-0.1-1,0.3-1.1,0.7
				c0,0,0,0,0,0.1c-0.2,0.6,0.1,1.3,0.8,1.4C73.6,135.3,97,116.5,84,101.5z"/>
		</g>
	</g>
	<g>
		<path class="st7" d="M164.4,51.7c0,0-5.6,8.9-0.9,19.1l12.7-1.6c0,0-3.6-12.7-3.1-15.5S166.4,48.3,164.4,51.7z"/>
		<path class="st10" d="M184.3,123.2c30.2-19.1-9.6-14.9-16.7-26.7l0,0l0,0c3-3.7,12.2-7.1,12.9-8.8c5.4,7,33.6-11.6,29.7,34
			c-1.1-0.2-2.2-0.4-3.3-0.8C208,94,199.4,98,181.3,94.4c-0.1,0-2.5-0.3-2.6,0.4c13.3,8.2,39.3,16.8,7.5,31.2
			C185.5,125.1,184.8,124.3,184.3,123.2z"/>
		<g>
			<g>
				<path class="st11" d="M167.9,94.2c0.1,0.1,0.1,0.3,0.2,0.4"/>
				<path class="st23" d="M168.7,95.4c7.4,8.8,47.9,13.3,17.5,27.8"/>
				<path class="st11" d="M185.7,123.4c-0.1,0.1-0.3,0.1-0.5,0.2"/>
			</g>
		</g>
		<path class="st13" d="M170.1,99.4c1.3-2.5,1.3-4.4,0.2-6.9c-1.1,0.4-2.2,0.8-3.3,1.2"/>
		<g>
			<g>
				<path class="st11" d="M179.7,87.8c0.1,0.1,0.2,0.3,0.3,0.4"/>
				<path class="st24" d="M180.7,88.8c6.5,3.6,33.7-5.7,28.7,31"/>
				<path class="st11" d="M209.3,120.3c0,0.2,0,0.3-0.1,0.5"/>
			</g>
		</g>
		<polygon class="st15" points="190.4,87.8 178.1,92.5 191.2,97.6 203.9,91.9 		"/>
		<polygon class="st15" points="203.9,91.9 203.9,91.1 178.1,91.7 178.1,92.5 		"/>
		<polygon class="st16" points="190.4,87 178.1,91.7 191.2,96.9 203.9,91.1 		"/>
		<path class="st17" d="M182,89.5c0.3,2.8-3.3,1-3.8-0.7c0.7-0.6,1.3-1.2,1.6-2"/>
		<path class="st18" d="M207.3,121.4c0.9,0.2,1.6,0.4,2.6,0.6c0.3,0.5,3.7,2.2,2.9,2.8c-0.7,0.6-4.8-1-6.1-1.1
			C206.7,122.9,206.8,122,207.3,121.4z"/>
		<path class="st18" d="M184,123.5c0.4,0.9,0.8,1.4,1.5,2.2c-0.1,0.6,1.5,4.2,0.5,4.2s-3.1-4.1-4-5.1
			C182.5,124.2,183.2,123.6,184,123.5z"/>
		<path class="st25" d="M166.2,85.7c-1.6-6.3-1.6-11.4-5.2-16.9c-1.7-2.5,6.1-3.7,7.8-3.1c0.3,0.1,0.6,0,0.9,0.1
			c0.3,0.1,0.5,0,0.9,0c2-0.1,7.5,0.4,7.8,2.8c0.5,5.3-0.6,7.8,0.3,13.1c0.5,2.8,1,3.9,2.2,6.2c-0.3,3-3.4,2.9-5.9,3.6
			c-2.6,1.8-4.9,3.7-6.8,6.2C165.6,94.3,167.1,89.1,166.2,85.7z"/>
		<path class="st4" d="M183.5,90.8c-13.7,6-33-13.7-22.3-23.7c2.1-1.6,5.1-1.5,7.5-1.3c0.7,0.1,0.5,0,1,0.1c0.5,0,0.3,0,0.9,0
			c1.9,0,4.1,0.2,6,0.9c8.8,1.5,25.7,6.5,19.5,17.7c-0.6-0.2-1.1-0.3-1.7-0.5c1.7-9.3-7.4-10-15.7-13.4c-0.3,0.8-0.7,1.6-0.8,2.5
			c-0.1,0-0.1,0-0.2,0c-3.8-0.3-7.8,0.1-11.5,0.1c-1.3,0-1.7,0.5-2.6,1.1c-0.3-1.3-0.6-2.4-1.6-3.5c-4.5,9.2,12.1,20.8,20.8,18.3
			C183.2,89.7,183.3,90.3,183.5,90.8z"/>
		<path class="st3" d="M194.8,83.1c0.7-0.2,1.4-0.4,2.1-0.6l0.1-0.1c0.2-0.6,0.3-1.2,0.4-1.8C196.6,81.4,195.7,82.3,194.8,83.1z"/>
		<path class="st26" d="M192.3,72.2c-4.6-3-11.2-4.7-15.7-5.4c-1.9-0.7-4.1-0.9-6-0.9c-0.6,0-0.4,0-0.9,0s-0.3,0-1-0.1
			c-2.4-0.2-5.4-0.3-7.5,1.3c-7.1,6.6-1.1,17.5,7.8,22.3c0.4-1.1,0.7-2.2,1-3.3c-6-3.7-10.6-9.9-7.9-15.3c0.9,1,1.3,2.1,1.6,3.5
			c1-0.6,1.3-1.1,2.6-1.1c3.7,0,7.7-0.4,11.5-0.1c0.1,0,0.1,0,0.2,0c0.2-0.9,0.5-1.7,0.8-2.5c3.4,1.4,6.9,2.3,9.8,3.6
			C189.8,73.5,191.1,72.9,192.3,72.2z"/>
		<path class="st4" d="M162.8,66.7c0.5,1.5,5.1,1.3,6.3,1.5s5.7,0.3,5.8-1.2c0.1-1.6-4.6-1-5.4-1.1
			C168.7,65.6,162.3,65.2,162.8,66.7z"/>
		
			<linearGradient id="SVGID_4_" gradientUnits="userSpaceOnUse" x1="996.3791" y1="287.7148" x2="996.3791" y2="282.1168" gradientTransform="matrix(-1 0 0 -1 1165.1791 348)">
			<stop  offset="0" style="stop-color:#E2E3E4"/>
			<stop  offset="0.9872" style="stop-color:#FFFFFF"/>
		</linearGradient>
		<path class="st27" d="M167.2,59.1c0.3,2.6,0.2,5.9-2.6,7.1c2.9,1.1,5.4,1.3,8.4,0.3c-2.7-1.1-2.1-5-1.9-7.2
			C169.9,59.3,168.5,59.2,167.2,59.1z"/>
		<path class="st4" d="M165.6,57.3c0.3,3,5.2,6.2,8.6,5.7c2.4-0.3,3.1-5.5,3-8.1c-0.1-2.7-3.4-4.7-6.4-4.4
			C166.8,51,165.1,53,165.6,57.3z"/>
		<path class="st4" d="M175.7,53.1c-0.1,0.7,0.1,1.1,0.4,1.8c0.3,0.6,0.5,2,0.5,2.7c0,1.2,0.2,2.2,0.3,3.4c-0.6-0.2-1.2-0.4-1.8-0.6
			C175.3,58,175.5,55.6,175.7,53.1z"/>
		<path class="st20" d="M175.5,60.5c0.2,0.2,0.4,0.4,0.6,0.6c0-0.1,0.1-0.3,0.1-0.4C176,60.6,175.7,60.6,175.5,60.5z"/>
		<path class="st21" d="M174.2,57.8c0,0.2,0.1,0.3,0.3,0.3s0.3-0.1,0.3-0.3s-0.1-0.3-0.3-0.3S174.2,57.6,174.2,57.8z"/>
		<path class="st22" d="M167.9,56.8c-0.2-0.9,0-2.1-1.7-1.9c-1.7,0.3-0.8,3.6,1.3,3.5"/>
		<path class="st4" d="M183.2,89c0.5-0.6,2.2-2.2,3-1.8c0.8,0.4-1.7,1.6-1.9,1.7c1,0.1,4.4-0.3,4.8,0.8c0.4,1.1-4.6,1.3-5.3,1.3
			C183.5,90.2,183.4,89.6,183.2,89z"/>
		<path class="st4" d="M194.2,84.2c-0.6,0.6-2,2.5-1.5,3.3s1.5-1.9,1.5-2.1c0.2,1.1,0,4.7,1.2,5.1c1.1,0.4,0.9-5,0.8-5.7
			C195.5,84.5,194.9,84.4,194.2,84.2z"/>
		<polygon class="st15" points="191.2,96.9 192.6,80.6 206.1,76.4 203.9,91.1 		"/>
		<ellipse class="st16" cx="199" cy="86.3" rx="1.1" ry="2.1"/>
		<path class="st7" d="M167.1,50.1c0,0,3.8-1.7,6.5-1.1c2.7,0.6,7.6,6.4,4.5,5.8s-5-1.9-5-1.9s1.3,5.9-1.7,6.2s-4.1,0-4.1,0
			s3,4.1-1.7,4.3S164.6,51.3,167.1,50.1z"/>
	</g>
	<g>
		<polygon class="st28" points="163.3,159.2 157.4,154.9 140,154.7 139.8,174.1 143.2,178 		"/>
		<path class="st7" d="M167,141.8c-0.1-0.6-0.2-1.2-0.3-1.8c5.6,1,10.8-1.9,16.4-1.3c-0.3,0.6-0.6,1.2-0.9,1.7
			C177.1,139.7,172.2,142.6,167,141.8z"/>
		<path class="st10" d="M187.7,229.5c-1.2-20.5-0.7-37.4-4.8-57.7l0,0l0,0c-7.5,1.3-13.5,1.3-20.9,1.8c-2,20.9-5.2,33,10.4,49.6
			c1.1-1.3,2.2-2.6,3.3-3.9c-12.1-16.7-6.4-20.4-3.3-38.5c0-0.1,1.6-0.5,1.8,0.1c6.5,15.1,5.3,32.1,8.3,48.1
			C184.3,229.2,186,229.5,187.7,229.5z"/>
		<g>
			<g>
				<path class="st11" d="M163.4,174.5c0,0.2,0,0.3,0,0.5"/>
				<path class="st29" d="M163.3,176c-0.8,18.7-5.8,29.6,8.2,45.4"/>
				<path class="st11" d="M171.9,221.7c0.1,0.1,0.2,0.2,0.3,0.4"/>
			</g>
		</g>
		<g>
			<g>
				<path class="st11" d="M181.6,172.9c0,0.2,0,0.3,0.1,0.5"/>
				<path class="st30" d="M181.7,174.4c2,17.9,3.4,34.9,5,53"/>
				<path class="st11" d="M186.7,227.9c0,0.2,0,0.3,0,0.5"/>
			</g>
		</g>
		<path class="st13" d="M183.7,177.5c-3.1,0.6-5-0.2-5.1-3.6c1.2-0.7,2.4-1.4,3.6-2"/>
		<path class="st13" d="M162.5,179.9c3.1-0.5,4.6-2.1,4.6-5.3c-1.4-0.4-2.9-0.7-4.3-1.1"/>
		<path class="st31" d="M158.5,170.8c33,11.7,44.8-20.6,24.9-30.3c-0.6-0.3-0.3-0.1-0.6-0.2c-5.7-0.8-10.9,1.9-16.6,0.8
			c-0.5-0.1-0.7-0.2-1.1-0.2c-16-5.4-31.1,2-24.8,21.1c1,0,2,0.1,3,0.1c-2.3-14,6.6-16.3,17.8-14.1c-1.6,9-2.6,17.7-1.7,26.9
			c10.1,0.4,15.7,0.7,25.7-1.9c-0.5-8-2.5-16.1-2.6-23.8c16.4,15.9-12.3,20.6-23.3,18.7C158.8,168.9,158.5,169.8,158.5,170.8z"/>
		<path class="st3" d="M167.3,142.2c0.1-0.4,0.1-0.4,0.1-0.8c-0.4-0.1-0.9-0.2-1.3-0.3s-0.7-0.2-1.1-0.2c-16-5.4-31.1,2-24.8,21.1
			c1,0,2,0.1,3,0.1c-2.3-14,6.6-16.3,17.8-14.1c-1.6,9-2.6,17.7-1.7,26.9c2.2,0.1,4.5,0.1,6.7,0.2
			C165.6,164,165.8,153.1,167.3,142.2z"/>
		
			<rect x="143.6" y="158.8" transform="matrix(8.094194e-03 -1 1 8.094194e-03 -16.7351 320.6399)" class="st16" width="19.3" height="19.9"/>
		<path class="st18" d="M175.7,220c-1,1.2-1.8,2.2-2.9,3.4c0.2,0.5-1.6,4.3-0.4,4.2c1.2-0.1,4-4.7,5.2-6
			C177.2,220.9,176.4,220.1,175.7,220z"/>
		<path class="st18" d="M183.1,229.6c1.5,0.2,2.8,0.3,4.4,0.3c0.2,0.5,4.1,1.6,3.2,2.5c-0.9,0.8-6.1,0-7.8,0
			C182.8,231.5,182.7,230.3,183.1,229.6z"/>
		<path class="st4" d="M179.8,141.6c-0.3,1.7-4.6,2.2-5.8,2.5c-1.2,0.4-5.7,0.8-5.7-0.8s4.8-1.6,5.7-2
			C174.9,141,180.1,139.9,179.8,141.6z"/>
		
			<linearGradient id="SVGID_5_" gradientUnits="userSpaceOnUse" x1="177.4963" y1="209.8089" x2="177.4963" y2="202.2838" gradientTransform="matrix(1 8.094460e-03 8.094460e-03 -1 -4.8298 342.2203)">
			<stop  offset="0" style="stop-color:#E2E3E4"/>
			<stop  offset="0.9872" style="stop-color:#FFFFFF"/>
		</linearGradient>
		<path class="st32" d="M175.3,132.3c1,2.7,1.8,6.4,3.5,8.7c-2.9,1.9-5.6,2.5-9,1.7c1.5-2.5,1-5.2,0.1-7.8
			C171.7,134.1,173.5,133.2,175.3,132.3z"/>
		<path class="st4" d="M175.9,130.4c1,3.1-2.8,7.8-6.2,7.8c-3.4-0.1-5-4-6.2-6.8c-1.3-2.8,1.6-5.7,4.6-6.3
			C172.2,124.1,174.5,125.9,175.9,130.4z"/>
		<path class="st4" d="M163.4,128.3c-1.8,2.7,0.1,5.4,1.7,7.7c0.5-0.3,1.1-0.7,1.6-1C165.7,132.7,164.3,130.6,163.4,128.3z"/>
		<path class="st20" d="M166.5,135.1c-0.1,0.2-0.3,0.5-0.4,0.7c-0.1-0.1-0.1-0.2-0.2-0.4C166.1,135.4,166.3,135.3,166.5,135.1z"/>
		<path class="st21" d="M166.6,132.3c0.1,0.2,0,0.3-0.2,0.4c-0.2,0-0.3,0-0.4-0.2c-0.1-0.2,0-0.3,0.2-0.4
			C166.3,132.1,166.5,132.1,166.6,132.3z"/>
		<path class="st7" d="M164.2,127.4c1.3-0.7,3.1-1.9,4.1,0.2s3,3.1,5.3,1.6c0.9,1.3,1.5,2.4,2.4,3.9c0.8-2.3,1.6-2.3-0.4-5.6
			C173.5,124.2,168.1,122.9,164.2,127.4z"/>
		<path class="st22" d="M173.3,130.3c-0.2-0.9-0.9-2.2,0.8-2.4c1.7-0.2,2.7,3.5,0.3,4"/>
		<path class="st1" d="M162.6,130.3c-0.2-1.5-1.5-2.8-1.6-4.2c-0.1-1.3,0.3-2.5,1.9-3.3c1.6-0.8,6.9-2.7,8.7-2.3s0.8,3.2,1.4,4.4
			c-3.5,2-12.5,7.9-15,8.3C155.6,133.6,163.1,130,162.6,130.3z"/>
		<path class="st7" d="M167.8,137.7c1.1-0.6,2.3-0.8,3.2,0.2c-0.2,0.8-0.6,1.2-1.4,1.5C169,139,168.3,138.4,167.8,137.7z"/>
		<path class="st7" d="M171.7,129.9c0.5,1,1.6,3.6,2.4,4.1c0.8,0.5,0.7-0.5,1-0.6c-0.8-1.4-1.6-2.8-2.5-4.1
			C172.3,129.4,172,129.6,171.7,129.9z"/>
		<path class="st4" d="M158.2,168c-0.7-0.6-2.6-2.1-3.4-1.6c-0.8,0.5,1.9,1.6,2.2,1.6c-1.2,0.3-4.9,0.2-5.3,1.4
			c-0.4,1.2,5.2,0.9,5.9,0.8C157.9,169.5,158.1,168.8,158.2,168z"/>
		<path class="st3" d="M158.5,170.9c32.9,11.7,44.8-20.6,24.9-30.3c-0.6-0.3-0.2-0.1-0.6-0.2c-0.4-0.1-0.7-0.1-1.1-0.2
			c-0.1,0.5-0.1,0.7-0.3,1.3c-4.2,9.9-1.7,22.3-1.8,33.1c1.8-0.5,3.6-1.1,5.5-1.5c-0.5-8-2.5-16.1-2.6-23.8
			c16.4,15.9-12.3,20.6-23.3,18.7C158.8,168.9,158.5,169.8,158.5,170.9z"/>
		<path class="st4" d="M143.1,162.6c0.5,0.8,1.6,3.2,0.9,3.9c-0.7,0.7-1.2-2.4-1.2-2.7c-0.5,1.1-1.1,5.1-2.4,5.3
			c-1.3,0.2,0.2-5.6,0.4-6.4C141.6,162.6,142.3,162.7,143.1,162.6z"/>
		<polygon class="st28" points="159.8,156.7 163.3,159.2 158.3,159.2 		"/>
	</g>
	<g>
		<g>
			<path class="st33" d="M91.4,231.2c-1.8,12.9,0.7,24.9-2,35.9H112c-6.5-12.4-13.2-25.2-17.9-35.5
				C94.1,231.6,91.9,229.9,91.4,231.2z"/>
			<path class="st10" d="M91.4,231.2c0.6-1.3,2.7,0.4,2.7,0.5c4.7,10.2,11.4,23.1,17.9,35.5h7.9c-6.4-17-13.9-36.9-16.7-47.7
				c-8.5,2.5-17.7,1.1-26.4,2.3l0,0h-0.1c-0.1,16.4,7.2,31.1,4.5,45.4h8.2C92.1,256.1,89.6,244,91.4,231.2z"/>
		</g>
		<g>
			<g>
				<path class="st11" d="M78.9,219.5c0,0.2,0,0.3,0,0.5"/>
				<path class="st34" d="M78.9,221c1,14.4,6.3,28.8,4.5,43.4"/>
				<path class="st11" d="M83.3,264.8c0,0.2,0,0.3-0.1,0.5"/>
			</g>
		</g>
		<g>
			<g>
				<path class="st11" d="M100.8,218.2c0,0.2,0.1,0.3,0.1,0.5"/>
				<path class="st35" d="M101.1,219.7c3,14.9,10.5,29.1,16.3,43.1"/>
				<path class="st11" d="M117.5,263.3c0.1,0.2,0.1,0.3,0.2,0.5"/>
			</g>
		</g>
		
			<rect x="60.1" y="229.6" transform="matrix(0.9751 -0.2216 0.2216 0.9751 -51.292 22.5987)" class="st15" width="29.9" height="20.6"/>
		<path class="st13" d="M77.5,227.7c4.8-0.8,6.6-3.5,6-8.3c-1.9-0.5-3.9-0.9-5.9-1.3"/>
		<path class="st13" d="M103.7,224.8c-4.6,2.1-6-1.5-6.6-5.7c1.5-0.8,3-1.6,4.5-2.5"/>
		<path class="st4" d="M80.7,185.8c-10.3,13-13.2,34.4-7.1,49.4c-0.7,0.4-1.4,0.8-2.1,1.2c-9.9-13.4-6.9-50,10.2-56.5
			c2.7-1.2,6-1.5,8.8-1.6c0.8,0,0.6,0,1.1,0c0.6,0,0.4-0.1,1.1-0.1c2.3-0.1,4.8,0.9,7,1.8c13.8,1.6,44.7,7.7,32.2-18.5
			c0.8-0.2,1.7-0.3,2.5-0.5c13.1,25-11.8,29.4-31.4,24.9c-0.1,0.1-0.2,0.2-0.4,0.2c-0.8,7.1-2.5,13.8-2.8,21.1
			c-0.2,4.7,4,8.7,4.5,13.4c-4.1,1.7-7.7,2.4-12.1,2.4c-5.2-0.1-10.3,0-15.4,0.5c-0.6-5.2,2.8-11.2,3.1-16
			c0.6-7.5,2.2-14.7,1.2-21.9C80.8,185.8,80.8,185.8,80.7,185.8z"/>
		<path class="st10" d="M80.7,185.8c-10.3,13-13.2,34.4-7.1,49.4c-0.7,0.4-1.4,0.8-2.1,1.2c-9.9-13.4-6.9-50,10.2-56.5
			c2.7-1.2,6-1.5,8.8-1.6c0.8,0,0.6,0,1.1,0c0.6,0,0.4-0.1,1.1-0.1c2.3-0.1,4.8,0.9,7,1.8c13.8,1.6,44.7,7.7,32.2-18.5
			c0.8-0.2,1.7-0.3,2.5-0.5c13.1,25-11.8,29.4-31.4,24.9c-0.1,0.1-0.2,0.2-0.4,0.2c-0.8,7.1-2.5,13.8-2.8,21.1
			c-0.2,4.7,4,8.7,4.5,13.4c-4.1,1.7-7.7,2.4-12.1,2.4c-5.2-0.1-10.3,0-15.4,0.5c-0.6-5.2,2.8-11.2,3.1-16
			c0.6-7.5,2.2-14.7,1.2-21.9C80.8,185.8,80.8,185.8,80.7,185.8z"/>
		<path class="st3" d="M135.8,179.1c-0.6-0.8-1.4-1.7-2.2-2.5c0.9-1.7,1.3-3.8,0.9-6.5c1-0.1,2-0.2,3-0.2c0.8,4.1,0.3,7.3-1.2,9.9
			C136.2,179.5,136,179.3,135.8,179.1z"/>
		<path class="st3" d="M124.4,181.5c2.5-0.4,4.7-1,6.4-2.1c1.1,1.2,2.2,2.8,2.7,3.4c0,0.1,0.1,0.1,0.1,0.2c-2,1.6-4.6,2.8-7.5,3.6
			C125.6,184.8,125,183.2,124.4,181.5z"/>
		<path class="st3" d="M111.8,181.6c2.8,0.2,5.6,0.4,8.3,0.3c0.7,1.8,1.3,3.6,1.9,5.4c-2.9,0.4-6.1,0.4-9.3,0.2
			C112.4,185.6,112,183.6,111.8,181.6z"/>
		<path class="st3" d="M79.9,180.8c0.3,0.6,0.7,1.2,1.2,1.7c4.9,4.2,20.4,7,21.6-1.9c1.5,0.2,3.1,0.4,4.7,0.6c0.3,2,0.6,4,0.9,5.9
			c-1.8-0.3-3.7-0.6-5.4-1c-0.1,0.1-0.2,0.2-0.4,0.2c-0.1,1.3-0.3,2.7-0.5,4c-2.9,0.6-5.9,1.3-8.9,1.5c-4.2,0.4-7.8-0.9-11.9-1.5
			c0-1.5-0.1-3-0.3-4.5c-0.1,0.1-0.2,0.1-0.3,0.1c-1.4,1.8-2.7,3.8-3.9,5.9c-1.8-0.7-3.5-1.5-5.2-2.3
			C73.7,185.6,76.5,182.6,79.9,180.8z"/>
		<path class="st3" d="M93.1,201.6c-4.1,0.1-8.6-0.7-12.4-2.6c0.2-1.5,0.3-3.1,0.4-4.6c4.1,0.8,7.9,1.9,12.2,1.5
			c2.7-0.2,5.3-0.7,7.9-1.3c-0.3,1.9-0.6,3.7-0.9,5.6C98.1,201,95.7,201.6,93.1,201.6z"/>
		<path class="st3" d="M100.3,210.8c-2.8,1.1-5.7,2-8.7,2.3c-4.2,0.5-8.6-0.3-12.6-1.7c0.4-1.3,0.6-2.6,0.7-3.8
			c0.1-1.4,0.2-2.7,0.4-4.1c3.7,1.6,7.9,2.2,11.9,2.4c2.8,0.1,5.3-0.4,7.8-1c-0.1,0.8-0.1,1.7-0.2,2.6
			C99.7,208.5,99.9,209.7,100.3,210.8z"/>
		<path class="st3" d="M90.7,217.4c3.9-0.2,7.7-1.4,11.3-2.8c1,2,2,4,2.2,6.1c-4.1,1.7-7.7,2.4-12.1,2.4c-5.2-0.1-10.3,0-15.4,0.5
			c-0.3-2.6,0.4-5.4,1.2-8.2C82,216.8,86.4,217.7,90.7,217.4z"/>
		<path class="st3" d="M70.4,217.7c-1.3,1-2.6,1.9-4.3,2.5c-0.4-3.8-0.4-7.7,0-11.7c1.7-0.1,3.4-0.2,5.2-0.3
			C70.7,211.4,70.4,214.6,70.4,217.7z"/>
		<path class="st3" d="M66.9,224.4c1.4-0.4,2.6-1,3.7-1.7c0.4,4.4,1.4,8.7,2.9,12.6c-0.7,0.4-1.4,0.8-2.1,1.2c-2.2-3-3.8-7.2-4.7-12
			C66.7,224.4,66.8,224.4,66.9,224.4z"/>
		<path class="st3" d="M66.6,204.4c0.6-4,1.7-7.8,3.1-11.2c1.7,0.8,3.5,1.6,5.2,2.3c-1.2,2.7-2.1,5.6-2.9,8.5
			C70.2,204.1,68.4,204.2,66.6,204.4z"/>
		<path class="st3" d="M133.6,166c-0.5-1.3-1-2.8-1.8-4.4c0.8-0.2,1.7-0.3,2.5-0.5c0.9,1.6,1.6,3.2,2.1,4.7
			C135.5,165.9,134.5,165.9,133.6,166z"/>
		<path class="st4" d="M83.3,180c0.4,2,6,2.2,7.7,2.5c1.6,0.3,7,0.5,7.2-1.9s-5.5-2.2-6.8-2.2C90,178.4,82.9,178,83.3,180z"/>
		
			<linearGradient id="SVGID_6_" gradientUnits="userSpaceOnUse" x1="3001.2664" y1="177.9489" x2="3001.2664" y2="169.2207" gradientTransform="matrix(-1 0 0 -1 3091.9663 348)">
			<stop  offset="0" style="stop-color:#E2E3E4"/>
			<stop  offset="0.9872" style="stop-color:#FFFFFF"/>
		</linearGradient>
		<path class="st36" d="M86.8,169.1c1.2,3.2,2.8,8.4-1.1,10.3c3.6,1.7,6.3,1.8,10,0.4c-2.9-2.1-2.6-8.5-2.9-11.5
			C90.8,168.5,88.8,168.8,86.8,169.1z"/>
		<path class="st4" d="M83.9,167c1.5,4.1,9.6,7.6,14.5,5.7c3.6-1.3,2.3-9,1-12.8c-1.4-3.8-6.7-5.7-10.8-4.2
			C83,157.7,81.7,161.1,83.9,167z"/>
		<path class="st4" d="M96.4,157.7c0.2,1,0.7,1.5,1.5,2.5c0.7,0.8,1.7,2.7,2,3.8c0.6,1.8,1.3,3.1,2,4.8c-0.9-0.1-1.9-0.2-2.8-0.3
			C98.2,164.9,97.2,161.4,96.4,157.7z"/>
		<path class="st20" d="M99.4,168.5c0.4,0.2,0.7,0.5,1.1,0.7c0-0.2,0-0.4,0-0.6C100.2,168.6,99.8,168.6,99.4,168.5z"/>
		<path class="st21" d="M96.4,164.9c0.1,0.2,0.3,0.4,0.5,0.4s0.4-0.3,0.3-0.5s-0.3-0.4-0.5-0.4C96.5,164.5,96.4,164.7,96.4,164.9z"
			/>
		<path class="st1" d="M96.8,156.4c0.7,3.8-0.9,5.3-4.6,6.5s-2.9,3.9-0.2,6.4c-2.9-0.4-4.5-2.2-5.5-4.9c0.4,3.9,0.1,7.2-1.4,10.8
			c-3.7-3.7-5.2-5.3-6.3-11.5c-1.1-6.2,6.2-11.6,12.3-11.1c6.1,0.5,7.6,2.5,10.1,7C99.6,158.6,98.2,157.5,96.8,156.4z"/>
		<path class="st22" d="M86.9,165.5c-0.7-1.1-0.8-3.1-3.2-2.1s0.2,5.4,3.2,4.5"/>
		<path class="st4" d="M73.9,235.5c1,0.8,3.5,2.8,3.1,4.1c-0.4,1.2-2.6-2.2-2.7-2.5c0,1.6,1.5,6.6,0.1,7.5s-2.8-6.7-3-7.6
			C72.2,236.3,73,235.9,73.9,235.5z"/>
		<path class="st4" d="M131.4,160.8c-0.8-1-3.5-2.9-3-4.1c0.5-1.2,2.6,2.1,2.8,2.4c0-1.5-1.2-6.3,0.3-7c1.5-0.8,2.6,6.4,2.7,7.4
			C133.2,160,132.3,160.3,131.4,160.8z"/>
	</g>
	<g>
		<circle class="st1" cx="145.8" cy="75.7" r="6.5"/>
		<circle class="st1" cx="145.2" cy="85.5" r="2"/>
	</g>
	<circle class="st1" cx="30.9" cy="179.4" r="3.4"/>
	<circle class="st1" cx="117.1" cy="203.1" r="3.4"/>
	
		<linearGradient id="SVGID_7_" gradientUnits="userSpaceOnUse" x1="209.2" y1="192.8051" x2="209.2" y2="93.595" gradientTransform="matrix(1 0 0 -1 0 348)">
		<stop  offset="8.750000e-02" style="stop-color:#469AED"/>
		<stop  offset="1" style="stop-color:#469AED;stop-opacity:0"/>
	</linearGradient>
	<polyline class="st37" points="236.9,256.3 192.1,231.2 181.5,231 195.1,257.2 	"/>
	
		<linearGradient id="SVGID_8_" gradientUnits="userSpaceOnUse" x1="183.9" y1="132.4826" x2="183.9" y2="91.9362" gradientTransform="matrix(1 0 0 -1 0 348)">
		<stop  offset="8.750000e-02" style="stop-color:#469AED"/>
		<stop  offset="1" style="stop-color:#469AED;stop-opacity:0"/>
	</linearGradient>
	<polyline class="st38" points="196.1,256.8 182.3,246.6 171.7,246.5 174.7,257.2 	"/>
	<g>
		<g class="st5">
			<g>
				<polygon class="st4" points="216.7,48.6 216.6,57.9 198.3,47.3 198.3,38 				"/>
			</g>
			<g>
				<polygon class="st7" points="216.7,38.2 216.7,47.5 198.3,37 198.4,27.6 				"/>
			</g>
		</g>
		<g>
			<polygon class="st7" points="235.8,49.3 235.8,58.6 217.5,48 217.5,38.7 			"/>
		</g>
		<g>
			<polygon class="st7" points="254.9,60.3 254.9,69.6 236.6,59 236.6,49.7 			"/>
		</g>
		<g>
			<polygon class="st4" points="235.8,69.9 235.7,79.3 217.4,68.7 217.4,59.4 			"/>
		</g>
		<g>
			<polygon class="st4" points="235.8,59.6 235.8,68.9 217.4,58.3 217.4,49 			"/>
		</g>
		<g>
			<polygon class="st4" points="254.9,91.3 254.8,100.6 236.5,90.1 236.5,80.7 			"/>
		</g>
		<g>
			<polygon class="st4" points="254.9,81 254.9,90.3 236.5,79.7 236.5,70.4 			"/>
		</g>
		<g>
			<polygon class="st4" points="254.9,70.6 254.9,80 236.5,69.4 236.6,60.1 			"/>
		</g>
		<g>
			<polygon class="st4" points="216.6,69.3 216.6,78.6 198.2,68 198.3,58.7 			"/>
		</g>
		<g>
			<polygon class="st4" points="216.6,58.9 216.6,68.2 198.3,57.6 198.3,48.3 			"/>
		</g>
		<g>
			<polygon class="st4" points="235.7,80.3 235.7,89.6 217.4,79 217.4,69.7 			"/>
		</g>
	</g>
	<g>
		<g>
			<polygon class="st7" points="233.2,98.2 233.2,105.2 219.4,97.3 219.5,90.3 			"/>
		</g>
		<g>
			<polygon class="st4" points="247.5,114.3 247.5,121.2 233.7,113.3 233.8,106.3 			"/>
		</g>
		<g>
			<polygon class="st7" points="247.5,106.5 247.5,113.5 233.8,105.6 233.8,98.6 			"/>
		</g>
		<g>
			<polygon class="st4" points="261.8,138 261.8,145 248,137.1 248,130.1 			"/>
		</g>
		<g>
			<polygon class="st4" points="261.8,130.3 261.8,137.3 248,129.3 248.1,122.3 			"/>
		</g>
		<g>
			<polygon class="st4" points="261.8,122.5 261.8,129.5 248.1,121.6 248.1,114.6 			"/>
		</g>
		<g>
			<polygon class="st7" points="261.9,114.8 261.8,121.8 248.1,113.8 248.1,106.9 			"/>
		</g>
		<g>
			<polygon class="st4" points="233.2,113.7 233.1,120.7 219.4,112.8 219.4,105.8 			"/>
		</g>
		<g>
			<polygon class="st4" points="233.2,106 233.2,113 219.4,105 219.4,98.1 			"/>
		</g>
		<g>
			<polygon class="st4" points="247.5,122 247.5,129 233.7,121.1 233.7,114.1 			"/>
		</g>
		<g>
			<polygon class="st4" points="233.1,121.5 233.1,128.5 219.4,120.5 219.4,113.6 			"/>
		</g>
		<g>
			<polygon class="st4" points="247.5,129.8 247.4,136.7 233.7,128.8 233.7,121.8 			"/>
		</g>
	</g>
</g>
<g>
	<g>
		<g>
			<path class="st10" d="M412.2,305.9c-4.3-24.6-6.8-49.4-9.3-74.3h-0.1l0,0c-11.3-0.6-22.7-1.5-33.9-2.9
				c-5.3,25.9-6.4,51.3-5.3,77.7c2.7-0.2,5.4-0.4,8.1-0.6c2.4-20.9,5-41.1,12-61.3c0-0.1,2.7-1,3.1,0.3
				c5.5,20.7,10.5,41.7,17.3,62.1C406.8,306.6,409.5,306.2,412.2,305.9z"/>
			<g>
				<g>
					<path class="st11" d="M370.7,230.9c0,0.2-0.1,0.3-0.1,0.5"/>
					<path class="st39" d="M370.5,232.4c-3.9,23.9-6.3,47.3-5.9,71.6"/>
					<path class="st11" d="M364.6,304.5c0,0.2,0,0.3,0,0.5"/>
				</g>
			</g>
			<g>
				<g>
					<path class="st11" d="M400.3,233.2c0,0.2,0,0.3,0,0.5"/>
					<path class="st40" d="M400.4,234.7c1.4,23.3,5.3,46.2,10,69"/>
					<path class="st11" d="M410.5,304.3c0,0.2,0.1,0.3,0.1,0.5"/>
				</g>
			</g>
			<path class="st13" d="M402.9,242.7c-5.8-0.7-7.7-3.4-7.9-9.2c2.2-0.8,4.4-1.5,6.6-2.2"/>
			<path class="st13" d="M367.3,241.1c6-0.3,8-3.1,8.7-8.9c-2-1.2-4-2.4-6-3.5"/>
			<path class="st4" d="M332.5,217.8c-1.6-0.9-5.2-2.9-6.8-2c-1.6,0.9,4,2,4.2,2c-1.8,0.4-8.6,0.5-8.5,3.1c0.1,2.7,8.9,0.1,10.6,0
				C332.6,219.8,332.5,218.9,332.5,217.8z"/>
			<path class="st4" d="M405.2,234.7c-1.4,0.1-5.1,0.1-5.3,1.8c-0.2,1.7,3.3-0.1,3.8-0.5c-0.8,1.9-5,5.6-3.6,7.7
				c1.4,2.1,6-4.8,6.9-5.8C406.6,236.6,406,235.7,405.2,234.7z"/>
			<path class="st1" d="M367.5,181.8c11.7,11.8,0.3,34.1-2.8,48.4c14.1,3.7,27.2,5.1,41.7,4.4c0.2-17-1.9-33.5,2.3-50.3
				c0.8-3.3,0.9-6.4-3.4-8c-9.8-3.5-24.8-4.8-34.8-1.7C366.3,175.9,364,178.2,367.5,181.8z"/>
			<path class="st3" d="M401.6,174.8c-7.4-1.5-15-1.6-22.6-1.7c-1,1.6-1.5,3.3-1.6,5.2c-1.2,18.3,1.1,36.6-0.1,55
				c3.4,0.6,6.8,1.1,10.2,1.4C390.4,214.8,394.6,193.6,401.6,174.8z"/>
			<path class="st1" d="M402.8,175.2c22.3,11.2,38.3,57.5,5.8,62.6c-0.8-1.5-1.8-2.6-2.7-4.2c18.7-5.7,9.3-28.2-0.5-40.4
				C395.6,180.9,399.7,186.7,402.8,175.2z"/>
			<path class="st1" d="M370.1,174.2c-22.7,17-5.5,41.2-35.5,43.2c0.3,1-0.1,2.9,0.7,3.5c32.6,8.2,25.6-20.1,36.6-34.9
				C382.9,171.1,371.5,183.8,370.1,174.2z"/>
			<path class="st18" d="M371,306.4c-2.4,0.2-4.6,0.3-7.1,0.6c-0.2,0.9-6.8,2.5-4.5,4s9.1-0.5,12.1-0.8
				C371.9,308.9,371.7,307.6,371,306.4z"/>
			<path class="st18" d="M412.4,306.5c-2.4,0.3-4.6,0.6-7,0.9c-0.2,0.9-6.8,3-4.4,4.4s9-1.1,12.1-1.5
				C413.3,308.9,413.1,307.7,412.4,306.5z"/>
			
				<linearGradient id="SVGID_9_" gradientUnits="userSpaceOnUse" x1="390.85" y1="185.3598" x2="390.85" y2="173.4942" gradientTransform="matrix(1 0 0 -1 0 348)">
				<stop  offset="0" style="stop-color:#E2E3E4"/>
				<stop  offset="0.9872" style="stop-color:#FFFFFF"/>
			</linearGradient>
			<path class="st41" d="M396.4,160.2c0.2,5.5,0.5,10.8,2.7,15.9c-5.7,1.8-11,1.2-16.5-1c4.6-3.4,3.7-8.8,3.5-13.9
				C389.5,160.9,392.9,160.5,396.4,160.2z"/>
			<path class="st4" d="M398.2,158c-0.8,5.2-8.7,11.3-14.6,8.9c-5.9-2.5-5.4-10.7-4.4-16.1c0.9-5.4,6.9-7.5,11.8-5.9
				C397.6,146.9,399.3,150.5,398.2,158z"/>
			<path class="st1" d="M379.9,148.6c-0.9-1.8-4.7-0.8-3-4.7c1.7-4,17-4.2,20.2,0.7c0.6-0.5,0.8-0.8,1.3-1.2
				c-0.1,0.6-0.2,1.3-0.3,1.9c2.5,2.6,4.1,6,3.8,9.6c-0.3,3.6-2.4,6.2-5.6,7.6c-0.1-1.3-0.1-2.9-0.2-4.2s-0.4-2.1-0.6-3.4
				c-1.3,1.1-3.2,1.2-3.5-0.4c-0.3-1.5,1-3.2-1-3.4c-2-0.3-2.1-1-2.5-3.1C387.9,146,381.6,147.8,379.9,148.6z"/>
			<path class="st22" d="M394.4,155.9c0.6-1.5,0.5-3.9,3.2-2.7c2.7,1.3,1,6.2-2.4,5.9"/>
			<path class="st20" d="M382.1,160.1c-0.4,0.3-0.8,0.7-1.2,1c0-0.3,0-0.5-0.1-0.8C381.3,160.2,381.7,160.2,382.1,160.1z"/>
			<path class="st21" d="M380,155.7c0,0.3-0.2,0.5-0.5,0.5s-0.5-0.3-0.5-0.6s0.2-0.5,0.5-0.5C379.9,155.2,380,155.4,380,155.7z"/>
			<path class="st21" d="M387.3,155.9c0,0.3-0.2,0.5-0.5,0.5s-0.5-0.3-0.5-0.6s0.2-0.5,0.5-0.5C387.1,155.4,387.3,155.6,387.3,155.9
				z"/>
			<g>
				<path class="st10" d="M326.7,210.8h-15c-0.9,0-1.6,0.7-1.6,1.6v0.5h18.3v-0.5C328.3,211.5,327.6,210.8,326.7,210.8z"/>
				<path class="st3" d="M310,212.9v5.7c0,0.9,0.7,1.6,1.6,1.6h15c0.9,0,1.6-0.7,1.6-1.6v-5.7H310z"/>
				<circle class="st10" cx="313.9" cy="216.4" r="2.1"/>
			</g>
			<path class="st4" d="M325.7,215.7c-1.6,0.9,3.9,2,4.3,2c-0.4,0.1-0.9,0.1-1.3,0.2c1.6,0.4,2.4,1.3,2.9,2.9c0.2,0,0.4,0,0.6,0
				c0.4-1,0.4-2,0.4-3.1C330.9,216.8,327.3,214.9,325.7,215.7z"/>
		</g>
		<g>
			<path class="st10" d="M256.1,309.1c6.4-36.3,3.3-46.6,5.6-80.2h0.1l0,0c11.8-1.8,23.5-1,35.3-2c9,31.1,6.3,49.9,8.3,80.4
				c-2.7-0.1-5.5-0.2-8.2-0.2c-5.3-24-3.5-43.3-14.3-67.3c0-0.1-3-1.7-3.5-0.1c-3,37.6-2.8,34.5-15,70.8
				C261.6,309.9,258.8,309.5,256.1,309.1z"/>
			<g>
				<g>
					<path class="st11" d="M295.2,228.5c0,0.2,0.1,0.3,0.1,0.5"/>
					<path class="st42" d="M295.5,230c6.1,27.5,7.4,46.8,8.6,74.7"/>
					<path class="st11" d="M304.2,305.2c0,0.2,0,0.3,0,0.5"/>
				</g>
			</g>
			<g>
				<g>
					<path class="st11" d="M264.2,230c0,0.2,0,0.3,0,0.5"/>
					<path class="st43" d="M264.2,231.6c-0.5,37,3.5,36.1-6.2,75.4"/>
					<path class="st11" d="M257.8,307.4c0,0.2-0.1,0.3-0.1,0.5"/>
				</g>
			</g>
			<path class="st13" d="M262.4,239.7c5.4-1.2,7.5-4.6,7.2-10c-2.3-0.4-4.5-0.8-6.8-1.2"/>
			<path class="st13" d="M299.2,237.3c-5.9,0.7-8.5-2.4-9.2-8.1c2-0.8,3.9-1.6,5.9-2.5"/>
			<path class="st4" d="M302.7,217.3c1.1-1.1,4-4.4,5.5-3.7s-2.9,3-3.3,3.2c1.9,0.3,8.1-1,8.9,1.1s-8.5,2.5-9.9,2.9
				C303.4,219.7,303,218.5,302.7,217.3z"/>
			<path class="st10" d="M298.6,198.2c-0.4-5.5-0.8-10.9-1.1-16.3c-0.3-4.6-1.6-5.1-5.3-5.8c-9.1-1.7-20.7-2.6-29.6,0.3
				c-4,1.3-3.2,5.3-2,7.4c2.2,4,2.2,9.9,1.5,16.5C273.7,197.4,286.3,197,298.6,198.2z"/>
			<path class="st3" d="M261.9,200.3c-1.2,10.5-4.4,22.7-3.6,31.9c14.3-1,29.1-0.5,43-4.1c-1.1-10-2-20-2.8-29.8
				C286.3,197,273.7,197.4,261.9,200.3z"/>
			<path class="st10" d="M261.5,191.7c12.5-15.7,2-4.4,2.6-16c-15.6,5.1-19.1,31.9-7.5,46.1c2.1-3,4.6-5.8,7.1-8.4
				C257.8,207.1,256.1,198.5,261.5,191.7z"/>
			<path class="st4" d="M301.6,216.9c-15.2,9.3-30.1,4.9-37.9-3.5c-2.5,2.7-5,5.5-7.1,8.4c7.9,9.7,23,13.5,45.9,0.4
				C302.5,220.2,301.2,219.7,301.6,216.9z"/>
			<path class="st18" d="M298,307.6c2.4,0.1,4.5,0.1,7.1,0.2c0.4,0.8,6.8,2.7,5.3,4.1s-9.9-0.2-12.6-0.2
				C297.4,310.4,297.4,308.6,298,307.6z"/>
			<path class="st18" d="M256.7,309.8c2.4,0.4,4.5,0.6,7,1c0.3,0.9,6.4,3.5,4.8,4.7c-1.7,1.2-9.8-1.4-12.6-1.7
				C255.8,312.5,256,310.8,256.7,309.8z"/>
			
				<linearGradient id="SVGID_10_" gradientUnits="userSpaceOnUse" x1="-2772.8706" y1="184.2059" x2="-2772.8706" y2="172.1734" gradientTransform="matrix(-1 0 0 -1 -2494.1206 348)">
				<stop  offset="0" style="stop-color:#E2E3E4"/>
				<stop  offset="0.9872" style="stop-color:#FFFFFF"/>
			</linearGradient>
			<path class="st44" d="M271.6,161.3c1,4.5,1.7,10.8-1.2,14.6c5.4,1.8,11.2,3.8,16.7,1.6c-2-5.2-3.8-10.2-4.7-15.7
				C278.8,161.7,275.2,161.5,271.6,161.3z"/>
			<path class="st4" d="M269.9,160.6c1.1,5.1,10.4,9.3,15.9,7.7s4.9-10.1,3.7-15.2c-1.2-5.1-7.5-7.2-12.5-5.9
				C270.1,149,268.3,153.2,269.9,160.6z"/>
			<path class="st4" d="M286.5,148.5c5,2.6,5.3,8.3,5.1,13.2c-1.1-0.2-2.2-0.3-3.3-0.5C287.7,157,287.1,152.7,286.5,148.5z"/>
			<path class="st20" d="M288.8,161.3c0.4,0.3,0.9,0.6,1.3,0.9c0-0.2,0-0.5,0-0.7C289.6,161.4,289.2,161.3,288.8,161.3z"/>
			<path class="st21" d="M285.9,156.9c0,0.3,0.3,0.5,0.6,0.4s0.5-0.3,0.4-0.6c0-0.3-0.3-0.5-0.6-0.4
				C286.1,156.3,285.9,156.6,285.9,156.9z"/>
			<path class="st7" d="M284.6,147.7c-2.6,0-6.1-0.1-6,3.7c0.1,3.9-1.2,6.6-6,6.1c-0.2,2.4-0.3,4.3-0.6,6.9c-3.1-2.6-4.2-1.4-3.9-8
				C268.4,149.8,275.5,144.1,284.6,147.7z"/>
			<path class="st22" d="M273.8,158.9c-0.6-1.5-0.6-3.7-3.5-2.7s-0.7,6.6,3.1,5.6"/>
			<path class="st7" d="M290.1,162.4c-2.1-1-4.8-1.4-6,0.8s-6.9,3.1-7.6,0.7c-0.7-2.5,1.9-7-0.3-8.7c-2.2-1.7-2.1,0.5-2.2,2.3
				s0.2,5.6-0.9,7.7c3.7,2.4,8.6,4.9,12.9,3.8C289.4,168.1,289.9,165.1,290.1,162.4z"/>
		</g>
	</g>
	
		<linearGradient id="SVGID_11_" gradientUnits="userSpaceOnUse" x1="327.65" y1="113.401" x2="327.65" y2="14.7884" gradientTransform="matrix(1 0 0 -1 0 348)">
		<stop  offset="8.750000e-02" style="stop-color:#469AED"/>
		<stop  offset="1" style="stop-color:#469AED;stop-opacity:0"/>
	</linearGradient>
	<polyline class="st45" points="358.2,335.1 308.8,310.1 297.1,310 312.1,336 	"/>
	
		<linearGradient id="SVGID_12_" gradientUnits="userSpaceOnUse" x1="287" y1="103.9723" x2="287" y2="14.5291" gradientTransform="matrix(1 0 0 -1 0 348)">
		<stop  offset="8.750000e-02" style="stop-color:#469AED"/>
		<stop  offset="1" style="stop-color:#469AED;stop-opacity:0"/>
	</linearGradient>
	<polyline class="st46" points="317.6,335.2 268.1,312.5 256.4,312.4 271.4,336 	"/>
	
		<linearGradient id="SVGID_13_" gradientUnits="userSpaceOnUse" x1="429.8" y1="113.401" x2="429.8" y2="14.7884" gradientTransform="matrix(1 0 0 -1 0 348)">
		<stop  offset="8.750000e-02" style="stop-color:#469AED"/>
		<stop  offset="1" style="stop-color:#469AED;stop-opacity:0"/>
	</linearGradient>
	<polyline class="st47" points="458.4,335.1 413,310.1 401.2,310 416.3,336 	"/>
	
		<linearGradient id="SVGID_14_" gradientUnits="userSpaceOnUse" x1="390.15" y1="113.401" x2="390.15" y2="14.7884" gradientTransform="matrix(1 0 0 -1 0 348)">
		<stop  offset="8.750000e-02" style="stop-color:#469AED"/>
		<stop  offset="1" style="stop-color:#469AED;stop-opacity:0"/>
	</linearGradient>
	<polyline class="st48" points="420.7,335.1 371.3,310.1 359.6,310 374.6,336 	"/>
</g>
</svg>
