<svg xmlns="http://www.w3.org/2000/svg" xmlns:xlink="http://www.w3.org/1999/xlink" width="2560" height="640" viewBox="0 0 2560 640">
    <defs>
        <radialGradient id="b" cx="49.577%" cy="100%" r="100%" fx="49.577%" fy="100%" gradientTransform="matrix(0 -1 .40821 0 .088 1.496)">
            <stop offset="0%" stop-color="#8A3D99"/>
            <stop offset="100%" stop-color="#1F084D"/>
        </radialGradient>
        <path id="a" d="M0 0h2560v561.727C2133.333 613.909 1706.667 640 1280 640c-426.667 0-853.333-26.091-1280-78.273V0z"/>
    </defs>
    <g fill="none" fill-rule="evenodd">
        <mask id="c" fill="#fff">
            <use xlink:href="#a"/>
        </mask>
        <use fill="url(#b)" xlink:href="#a"/>
        <g stroke="#B3D9FF" stroke-width="4" mask="url(#c)" opacity=".16">
            <g transform="translate(-524 -1)">
                <path stroke-linecap="round" stroke-linejoin="round" d="M2909.083 163.165c.46 7.208 6.497 12.669 13.485 12.197 6.988-.472 12.282-6.7 11.825-13.91l-25.31 1.713zM2837.142 293.866l-1.766-10.958 11.575-1.675-1.262-11.609 11.569-1.661-1.529-11.266"/>
                <path d="M3000.567 314.29c3.87-3.805 3.948-10.056.172-13.96a9.731 9.731 0 0 0-13.843-.174c-3.87 3.805-3.948 10.056-.172 13.961a9.731 9.731 0 0 0 13.843.174z"/>
                <path stroke-linecap="round" stroke-linejoin="round" d="M3044.981 223.014l6.464-5.809 5.41 6.942 7.074-5.751 5.397 6.94 6.75-5.78"/>
                <path stroke-linejoin="round" d="M3040.075 80.145l-20.43 3.787 3.751 20.605 20.434-3.786z"/>
                <path stroke-linecap="round" stroke-linejoin="round" d="M2826.162 262.505l2.128-7.838 7.95 2.098 2.644-8.133 7.94 2.105 2.372-7.978M2766.1 193.16l10.923-.09 5.385 9.408-5.538 9.497-10.923.089-5.386-9.408zM2954.752 49.904c-15.816-13.604-19.848-27.147-12.097-40.63l12.097 40.63zM2773.696 27.62c-22.769 13.258-31.003-10.378-17.446-14.602l17.446 14.602z"/>
                <ellipse cx="2853.803" cy="87.114" rx="11.517" ry="11.615"/>
                <ellipse cx="2866.471" cy="81.307" rx="5.758" ry="5.808"/>
                <path stroke-linecap="round" stroke-linejoin="round" d="M3028.32 622.577l-1.766-10.958 11.576-1.674-1.263-11.61 11.57-1.66-1.53-11.267M3017.34 591.216l2.128-7.838 7.95 2.099 2.644-8.133 7.94 2.105 2.372-7.979M2947.941 524.168l10.924-.089 5.385 9.408-5.538 9.497-10.923.088-5.386-9.408zM2953.638 385.467c-22.77 13.258-31.004-10.377-17.446-14.602l17.446 14.602z"/>
                <ellipse cx="3033.464" cy="446.025" rx="11.517" ry="11.615"/>
                <ellipse cx="3044.981" cy="440.218" rx="5.758" ry="5.808"/>
                <path stroke-linecap="round" stroke-linejoin="round" d="M2848.044 391.434l10.117 7.184-7.221 10.067 10.266 8.072-7.224 10.052 10.186 7.601"/>
                <path stroke-linejoin="round" d="M2784.702 628.385l16.815-7.674 2.764-21.364-16.816 7.673z"/>
                <path stroke-linecap="round" stroke-linejoin="round" d="M2763.972 492.847c20.397-2.019 32.681 4.443 36.853 19.385"/>
                <ellipse cx="2871.078" cy="572.632" rx="6.91" ry="6.969"/>
                <path stroke-linecap="round" stroke-linejoin="round" d="M2773.185 364.712c5.634-21.426 8.158 15.418 21.882-5.536M2319.175 207.913c-6.704 3.458-9.444 11.914-6.117 18.884 3.328 6.971 11.459 9.818 18.163 6.36l-12.046-25.244zM2472.878 23.23l10.117 7.185-7.222 10.067 10.266 8.072-7.223 10.051L2489 66.207M1996.083 163.165c.46 7.208 6.497 12.669 13.485 12.197 6.988-.472 12.282-6.7 11.825-13.91l-25.31 1.713zM1924.142 293.866l-1.766-10.958 11.575-1.675-1.262-11.609 11.569-1.661-1.529-11.266"/>
                <path d="M2087.567 314.29c3.87-3.805 3.948-10.056.172-13.96a9.731 9.731 0 0 0-13.843-.174c-3.87 3.805-3.948 10.056-.172 13.961a9.731 9.731 0 0 0 13.843.174z"/>
                <path stroke-linecap="round" stroke-linejoin="round" d="M2131.981 223.014l6.464-5.809 5.41 6.942 7.074-5.751 5.397 6.94 6.75-5.78"/>
                <path stroke-linejoin="round" d="M2446.39 297.35l16.815-7.673 2.763-21.365-16.816 7.673zM2127.075 80.145l-20.43 3.787 3.751 20.605 20.434-3.786z"/>
                <path stroke-linecap="round" stroke-linejoin="round" d="M1913.162 262.505l2.128-7.838 7.95 2.098 2.644-8.133 7.94 2.105 2.372-7.978M2281.123 37.169l10.941 6.098v12.196l-10.94 6.098-10.941-6.098V43.267zM1853.1 193.16l10.923-.09 5.385 9.408-5.538 9.497-10.923.089-5.386-9.408z"/>
                <ellipse cx="2220.085" cy="164.356" rx="9.789" ry="9.873"/>
                <ellipse cx="2229.298" cy="152.74" rx="14.396" ry="14.519"/>
                <path stroke-linecap="round" stroke-linejoin="round" d="M2339.283 117.674c20.397-2.018 32.682 4.444 36.854 19.386M2041.752 49.904c-15.816-13.604-19.848-27.147-12.097-40.63l12.097 40.63zM2247.775 295.462c18.59 18.75-1.914 32.89-9.47 20.775l9.47-20.775zM1860.696 27.62c-22.769 13.258-31.003-10.378-17.446-14.602l17.446 14.602z"/>
                <ellipse cx="2487.85" cy="214.882" rx="6.91" ry="6.969"/>
                <ellipse cx="1940.803" cy="87.114" rx="11.517" ry="11.615"/>
                <path stroke-linecap="round" stroke-linejoin="round" d="M2389.957 6.963c5.634-21.426 8.158 15.418 21.882-5.537"/>
                <ellipse cx="1953.471" cy="81.307" rx="5.758" ry="5.808"/>
                <path stroke-linecap="round" stroke-linejoin="round" d="M2468.893 556.37c-6.704 3.458-9.444 11.915-6.117 18.884 3.328 6.972 11.459 9.818 18.164 6.36l-12.047-25.244zM2644.478 391.434l10.117 7.184-7.222 10.067 10.266 8.072-7.223 10.052 10.185 7.601M2176.897 520.914c.46 7.209 6.496 12.67 13.485 12.197 6.988-.472 12.282-6.699 11.824-13.91l-25.31 1.713zM2115.32 622.577l-1.766-10.958 11.576-1.674-1.263-11.61 11.57-1.66-1.53-11.267M2317.401 558.695l6.464-5.81 5.41 6.943 7.074-5.751 5.398 6.94 6.75-5.781"/>
                <path stroke-linejoin="round" d="M2550.04 640l16.816-7.673 2.763-21.365-16.816 7.673zM2347.046 375.172l-20.431 3.787 3.752 20.605 20.433-3.786z"/>
                <path stroke-linecap="round" stroke-linejoin="round" d="M2104.34 591.216l2.128-7.838 7.95 2.099 2.644-8.133 7.94 2.105 2.372-7.979M2460.785 396.08l10.941 6.098v12.196l-10.94 6.098-10.942-6.098v-12.196zM2034.941 524.168l10.924-.089 5.385 9.408-5.538 9.497-10.923.088-5.386-9.408zM2479.725 120.95l10.924-.088 5.385 9.408-5.537 9.496-10.924.09-5.385-9.409z"/>
                <ellipse cx="2377.864" cy="500.036" rx="9.789" ry="9.873"/>
                <ellipse cx="2387.078" cy="488.421" rx="14.396" ry="14.519"/>
                <path stroke-linecap="round" stroke-linejoin="round" d="M2221.06 407.75c-15.816-13.602-19.849-27.146-12.097-40.63l12.097 40.63zM2403.006 611.134c18.59 18.75-1.914 32.89-9.47 20.775l9.47-20.775zM2040.638 385.467c-22.77 13.258-31.004-10.377-17.446-14.602l17.446 14.602z"/>
                <ellipse cx="2266.728" cy="629.546" rx="6.91" ry="6.969"/>
                <ellipse cx="2120.464" cy="446.025" rx="11.517" ry="11.615"/>
                <path stroke-linecap="round" stroke-linejoin="round" d="M2570.77 364.712c5.634-21.426 8.158 15.418 21.882-5.536"/>
                <ellipse cx="2131.981" cy="440.218" rx="5.758" ry="5.808"/>
                <path stroke-linecap="round" stroke-linejoin="round" d="M1935.044 391.434l10.117 7.184-7.221 10.067 10.266 8.072-7.224 10.052 10.186 7.601"/>
                <path stroke-linejoin="round" d="M1871.702 628.385l16.815-7.674 2.764-21.364-16.816 7.673z"/>
                <path stroke-linecap="round" stroke-linejoin="round" d="M1850.972 492.847c20.397-2.019 32.681 4.443 36.853 19.385"/>
                <ellipse cx="1958.078" cy="572.632" rx="6.91" ry="6.969"/>
                <path stroke-linecap="round" stroke-linejoin="round" d="M1860.185 364.712c5.634-21.426 8.158 15.418 21.882-5.536M2576.529 147.515l6.464-5.809 5.409 6.942 7.074-5.751 5.398 6.94 6.75-5.78"/>
                <ellipse cx="2666.936" cy="88.857" rx="9.789" ry="9.873"/>
                <ellipse cx="2676.149" cy="77.241" rx="14.396" ry="14.519"/>
                <path stroke-linecap="round" stroke-linejoin="round" d="M2611.701 11.615c-6.704 3.458-9.444 11.915-6.116 18.884 3.327 6.972 11.458 9.818 18.163 6.36L2611.7 11.615z"/>
                <path d="M2662.254 516.396c3.87-3.805 3.948-10.057.173-13.961a9.731 9.731 0 0 0-13.844-.174c-3.87 3.805-3.948 10.057-.172 13.961a9.731 9.731 0 0 0 13.843.174z"/>
                <path stroke-linecap="round" stroke-linejoin="round" d="M2690.707 248.718c-22.77 13.258-31.004-10.377-17.446-14.602l17.446 14.602zM2568.467 274.671c.46 7.209 6.497 12.67 13.485 12.197 6.988-.472 12.282-6.699 11.824-13.91l-25.309 1.713z"/>
                <path stroke-linejoin="round" d="M2677.577 599.347l-20.43 3.786 3.751 20.606 20.434-3.787z"/>
                <path stroke-linecap="round" stroke-linejoin="round" d="M2195.323 24.392l2.128-7.838 7.95 2.099 2.644-8.133 7.94 2.105 2.372-7.979"/>
                <path d="M2682.318 318.488l7.424-.45 3.327 5.812-4.099 6.26-7.424.45-3.327-5.811z"/>
                <ellipse cx="2543.13" cy="499.456" rx="11.517" ry="11.615"/>
                <path d="M2355.908 316.614c3.87-3.806 3.948-10.057.172-13.962a9.731 9.731 0 0 0-13.843-.173c-3.87 3.805-3.948 10.056-.172 13.961a9.731 9.731 0 0 0 13.843.174z"/>
                <path stroke-linecap="round" stroke-linejoin="round" d="M1396.175 208.913c-6.704 3.458-9.444 11.914-6.117 18.884 3.328 6.971 11.459 9.818 18.163 6.36l-12.046-25.244zM1549.878 24.23l10.117 7.185-7.222 10.067 10.266 8.072-7.223 10.051L1566 67.207M1073.083 164.165c.46 7.208 6.497 12.669 13.485 12.197 6.988-.472 12.282-6.7 11.825-13.91l-25.31 1.713zM1001.142 294.866l-1.766-10.958 11.575-1.675-1.262-11.609 11.569-1.661-1.529-11.266"/>
                <path d="M1164.567 315.29c3.87-3.805 3.948-10.056.172-13.96a9.731 9.731 0 0 0-13.843-.174c-3.87 3.805-3.948 10.056-.172 13.961a9.731 9.731 0 0 0 13.843.174z"/>
                <path stroke-linecap="round" stroke-linejoin="round" d="M1208.981 224.014l6.464-5.809 5.41 6.942 7.074-5.751 5.397 6.94 6.75-5.78"/>
                <path stroke-linejoin="round" d="M1523.39 298.35l16.815-7.673 2.763-21.365-16.816 7.673zM1204.075 81.145l-20.43 3.787 3.751 20.605 20.434-3.786z"/>
                <path stroke-linecap="round" stroke-linejoin="round" d="M990.162 263.505l2.128-7.838 7.95 2.098 2.644-8.133 7.94 2.105 2.372-7.978M1358.123 38.169l10.941 6.098v12.196l-10.94 6.098-10.941-6.098V44.267zM930.1 194.16l10.923-.09 5.385 9.408-5.538 9.497-10.923.089-5.386-9.408z"/>
                <ellipse cx="1297.085" cy="165.356" rx="9.789" ry="9.873"/>
                <ellipse cx="1306.298" cy="153.74" rx="14.396" ry="14.519"/>
                <path stroke-linecap="round" stroke-linejoin="round" d="M1416.283 118.674c20.397-2.018 32.682 4.444 36.854 19.386M1118.752 50.904c-15.816-13.604-19.848-27.147-12.097-40.63l12.097 40.63zM1324.775 296.462c18.59 18.75-1.914 32.89-9.47 20.775l9.47-20.775zM937.696 28.62c-22.769 13.258-31.003-10.378-17.446-14.602l17.446 14.602z"/>
                <ellipse cx="1564.85" cy="215.882" rx="6.91" ry="6.969"/>
                <ellipse cx="1017.803" cy="88.114" rx="11.517" ry="11.615"/>
                <path stroke-linecap="round" stroke-linejoin="round" d="M1466.957 7.963c5.634-21.426 8.158 15.418 21.882-5.537"/>
                <ellipse cx="1030.471" cy="82.307" rx="5.758" ry="5.808"/>
                <path stroke-linecap="round" stroke-linejoin="round" d="M1545.893 557.37c-6.704 3.458-9.444 11.915-6.117 18.884 3.328 6.972 11.459 9.818 18.164 6.36l-12.047-25.244zM1721.478 392.434l10.117 7.184-7.222 10.067 10.266 8.072-7.223 10.052 10.185 7.601M1253.897 521.914c.46 7.209 6.496 12.67 13.485 12.197 6.988-.472 12.282-6.699 11.824-13.91l-25.31 1.713zM1192.321 623.577l-1.767-10.958 11.576-1.674-1.263-11.61 11.57-1.66-1.529-11.267M1394.401 559.695l6.464-5.81 5.41 6.943 7.074-5.751 5.398 6.94 6.75-5.781"/>
                <path stroke-linejoin="round" d="M1627.04 641l16.816-7.673 2.763-21.365-16.816 7.673zM1424.046 376.172l-20.431 3.787 3.752 20.605 20.433-3.786z"/>
                <path stroke-linecap="round" stroke-linejoin="round" d="M1181.34 592.216l2.129-7.838 7.949 2.099 2.644-8.133 7.94 2.105 2.372-7.979M1537.785 397.08l10.941 6.098v12.196l-10.94 6.098-10.942-6.098v-12.196zM1111.941 525.168l10.924-.089 5.385 9.408-5.538 9.497-10.923.088-5.386-9.408zM1556.725 121.95l10.924-.088 5.385 9.408-5.537 9.496-10.924.09-5.385-9.409z"/>
                <ellipse cx="1454.864" cy="501.036" rx="9.789" ry="9.873"/>
                <ellipse cx="1464.078" cy="489.421" rx="14.396" ry="14.519"/>
                <path stroke-linecap="round" stroke-linejoin="round" d="M1298.06 408.75c-15.816-13.602-19.849-27.146-12.097-40.63l12.097 40.63zM1480.006 612.134c18.59 18.75-1.914 32.89-9.47 20.775l9.47-20.775zM1117.638 386.467c-22.77 13.258-31.004-10.377-17.446-14.602l17.446 14.602z"/>
                <ellipse cx="1343.728" cy="630.546" rx="6.91" ry="6.969"/>
                <ellipse cx="1197.464" cy="447.025" rx="11.517" ry="11.615"/>
                <path stroke-linecap="round" stroke-linejoin="round" d="M1647.77 365.712c5.634-21.426 8.158 15.418 21.882-5.536"/>
                <ellipse cx="1208.981" cy="441.218" rx="5.758" ry="5.808"/>
                <path stroke-linecap="round" stroke-linejoin="round" d="M1012.044 392.434l10.117 7.184-7.221 10.067 10.266 8.072-7.224 10.052 10.186 7.601"/>
                <path stroke-linejoin="round" d="M948.702 629.385l16.815-7.674 2.764-21.364-16.816 7.673z"/>
                <path stroke-linecap="round" stroke-linejoin="round" d="M927.972 493.847c20.397-2.019 32.681 4.443 36.854 19.385"/>
                <ellipse cx="1035.078" cy="573.632" rx="6.91" ry="6.969"/>
                <path stroke-linecap="round" stroke-linejoin="round" d="M937.185 365.712c5.634-21.426 8.158 15.418 21.882-5.536M1653.529 148.515l6.464-5.809 5.409 6.942 7.074-5.751 5.398 6.94 6.75-5.78"/>
                <ellipse cx="1743.936" cy="89.857" rx="9.789" ry="9.873"/>
                <ellipse cx="1753.149" cy="78.241" rx="14.396" ry="14.519"/>
                <path stroke-linecap="round" stroke-linejoin="round" d="M1688.701 12.615c-6.704 3.458-9.444 11.915-6.116 18.884 3.327 6.972 11.458 9.818 18.163 6.36L1688.7 12.615z"/>
                <path d="M1739.254 517.396c3.87-3.805 3.948-10.057.173-13.961a9.731 9.731 0 0 0-13.844-.174c-3.87 3.805-3.948 10.057-.172 13.961a9.731 9.731 0 0 0 13.843.174z"/>
                <path stroke-linecap="round" stroke-linejoin="round" d="M1767.707 249.718c-22.77 13.258-31.004-10.377-17.446-14.602l17.446 14.602zM1645.467 275.671c.46 7.209 6.497 12.67 13.485 12.197 6.988-.472 12.282-6.699 11.824-13.91l-25.309 1.713z"/>
                <path stroke-linejoin="round" d="M1754.577 600.347l-20.43 3.786 3.751 20.606 20.434-3.787z"/>
                <path stroke-linecap="round" stroke-linejoin="round" d="M1272.323 25.392l2.128-7.838 7.95 2.099 2.644-8.133 7.94 2.105 2.372-7.979"/>
                <path d="M1759.318 319.488l7.424-.45 3.327 5.812-4.099 6.26-7.424.45-3.327-5.811z"/>
                <ellipse cx="1620.13" cy="500.456" rx="11.517" ry="11.615"/>
                <path d="M1432.908 317.614c3.87-3.806 3.948-10.057.172-13.962a9.731 9.731 0 0 0-13.843-.173c-3.87 3.805-3.948 10.056-.172 13.961a9.731 9.731 0 0 0 13.843.174z"/>
                <path stroke-linecap="round" stroke-linejoin="round" d="M636.878 24.23l10.117 7.185-7.222 10.067 10.266 8.072-7.223 10.051L653 67.207"/>
                <path stroke-linejoin="round" d="M610.39 298.35l16.815-7.673 2.763-21.365-16.816 7.673z"/>
                <path stroke-linecap="round" stroke-linejoin="round" d="M503.283 118.674c20.397-2.018 32.682 4.444 36.854 19.386"/>
                <ellipse cx="651.85" cy="215.882" rx="6.91" ry="6.969"/>
                <path stroke-linecap="round" stroke-linejoin="round" d="M553.957 7.963c5.634-21.426 8.158 15.418 21.882-5.537M632.893 557.37c-6.704 3.458-9.444 11.915-6.117 18.884 3.328 6.972 11.459 9.818 18.164 6.36l-12.047-25.244zM808.478 392.434l10.117 7.184-7.222 10.067 10.266 8.072-7.223 10.052 10.185 7.601"/>
                <path stroke-linejoin="round" d="M714.04 641l16.816-7.673 2.763-21.365-16.816 7.673z"/>
                <path stroke-linecap="round" stroke-linejoin="round" d="M624.785 397.08l10.941 6.098v12.196l-10.94 6.098-10.942-6.098v-12.196zM643.725 121.95l10.924-.088 5.385 9.408-5.537 9.496-10.924.09-5.385-9.409z"/>
                <ellipse cx="541.864" cy="501.036" rx="9.789" ry="9.873"/>
                <ellipse cx="551.078" cy="489.421" rx="14.396" ry="14.519"/>
                <path stroke-linecap="round" stroke-linejoin="round" d="M567.006 612.134c18.59 18.75-1.914 32.89-9.47 20.775l9.47-20.775zM734.77 365.712c5.634-21.426 8.158 15.418 21.882-5.536M740.529 148.515l6.464-5.809 5.409 6.942 7.074-5.751 5.398 6.94 6.75-5.78"/>
                <ellipse cx="830.936" cy="89.857" rx="9.789" ry="9.873"/>
                <ellipse cx="840.149" cy="78.241" rx="14.396" ry="14.519"/>
                <path stroke-linecap="round" stroke-linejoin="round" d="M775.701 12.615c-6.704 3.458-9.444 11.915-6.116 18.884 3.327 6.972 11.458 9.818 18.163 6.36L775.7 12.615z"/>
                <path d="M826.254 517.396c3.87-3.805 3.948-10.057.173-13.961a9.731 9.731 0 0 0-13.844-.174c-3.869 3.805-3.948 10.057-.172 13.961a9.731 9.731 0 0 0 13.843.174z"/>
                <path stroke-linecap="round" stroke-linejoin="round" d="M854.707 249.718c-22.77 13.258-31.004-10.377-17.446-14.602l17.446 14.602zM732.467 275.671c.46 7.209 6.497 12.67 13.485 12.197 6.988-.472 12.282-6.699 11.824-13.91l-25.309 1.713z"/>
                <path stroke-linejoin="round" d="M841.577 600.347l-20.43 3.786 3.751 20.606 20.434-3.787z"/>
                <path d="M846.318 319.488l7.424-.45 3.327 5.812-4.099 6.26-7.424.45-3.327-5.811z"/>
                <ellipse cx="707.13" cy="500.456" rx="11.517" ry="11.615"/>
            </g>
        </g>
    </g>
</svg>
