<?xml version="1.0" encoding="UTF-8" standalone="no"?>
<svg width="19px" height="19px" viewBox="0 0 19 19" version="1.1" xmlns="http://www.w3.org/2000/svg" xmlns:xlink="http://www.w3.org/1999/xlink">
    <!-- Generator: sketchtool 3.7.2 (28276) - http://www.bohemiancoding.com/sketch -->
    <title>3C1DB4EC-6B24-473E-B956-8FC6C41988B9</title>
    <desc>Created with sketchtool.</desc>
    <defs></defs>
    <g id="Page-1" stroke="none" stroke-width="1" fill="none" fill-rule="evenodd">
        <g id="Onboarding" transform="translate(-470.000000, -2854.000000)" fill="#CED5D9">
            <g id="::-step-3" transform="translate(80.000000, 2418.000000)">
                <g id="::-search-and-results" transform="translate(370.000000, 421.000000)">
                    <g id="::-filter" transform="translate(0.000000, 14.000000)">
                        <path d="M33.6524151,9.49321591 C33.8113242,9.652125 33.9037333,9.87321591 33.9037333,10.098625 C33.9037333,10.3261932 33.8113242,10.5472841 33.6524151,10.7061932 C33.4937219,10.8672614 33.270256,10.9572955 33.0450628,10.9572955 C32.8196537,10.9572955 32.5985628,10.8672614 32.4374946,10.7061932 C32.2785855,10.5472841 32.1863924,10.3261932 32.1863924,10.098625 C32.1863924,9.87321591 32.2785855,9.652125 32.4374946,9.49321591 C32.5985628,9.33214773 32.8196537,9.23995455 33.0450628,9.23995455 C33.270256,9.23995455 33.4937219,9.33214773 33.6524151,9.49321591 M35.234381,7.84561364 C35.1840742,8.22323864 34.861506,8.497875 34.4905742,8.497875 C34.4575401,8.497875 34.4240742,8.49571591 34.3903924,8.49118182 C33.9790855,8.43634091 33.6901992,8.0585 33.7450401,7.64697727 C33.894881,6.52252273 32.6415287,5.93481818 32.5879833,5.91042045 C32.2123015,5.73834091 32.0441083,5.29421591 32.2138128,4.91745455 C32.3835174,4.54069318 32.8233242,4.37120455 33.2011651,4.53831818 C33.2965969,4.58063636 35.5338469,5.60015909 35.234381,7.84561364 M31.8836878,12.8167045 C29.1444492,12.8167045 26.9162674,10.5513864 26.9162674,7.76702273 C26.9162674,4.982875 29.1444492,2.71755682 31.8836878,2.71755682 C34.6224946,2.71755682 36.8508924,4.982875 36.8508924,7.76702273 C36.8508924,10.5513864 34.6224946,12.8167045 31.8836878,12.8167045 M31.8836878,1 C28.1976878,1 25.1989265,4.03568182 25.1989265,7.76702273 C25.1989265,9.33495455 25.729631,10.7787386 26.6170174,11.927375 L20.2781424,18.3556364 C19.9035401,18.7356364 19.9078583,19.3473068 20.2878583,19.7219091 C20.4759151,19.9075909 20.7209719,20 20.9660287,20 C21.2154037,20 21.4647787,19.9041364 21.6539151,19.7124091 L28.0038015,13.2727045 C29.0986765,14.0655227 30.4377446,14.5342614 31.8836878,14.5342614 C35.5696878,14.5342614 38.5682333,11.4985795 38.5682333,7.76702273 C38.5682333,4.03568182 35.5696878,1 31.8836878,1" id="search"></path>
                    </g>
                </g>
            </g>
        </g>
    </g>
</svg>