<svg width="42" height="42" xmlns="http://www.w3.org/2000/svg" aria-labelledby="adduser" role="presentation">
    <title id="adduser">Add a User</title>
    <g transform="translate(1 1)" fill="none" fill-rule="evenodd">
        <circle stroke="#FFF" stroke-width="2" cx="20" cy="20" r="20"/>
        <path d="M3.995 33.072c1.286-1.42 4.362-3.003 6.932-3.938l2.778 2.467a1.129 1.129 0 001.511 0l2.778-2.467c2.57.935 5.646 2.518 6.932 3.938H3.995zm12.64-6.237L14 29.075l-2.635-2.24a1.215 1.215 0 00-1.159-.233C9.19 26.927 5.75 28.1 3.142 29.89c-1.76 1.21 1.75 5.617 3.587 5.617h20.054c.672 0 1.217-.545 1.217-1.217 0-4.218-8.502-7.144-10.206-7.688-.4-.128-.838-.04-1.159.233zM14 11.768c3.176 0 5.76 2.6 5.76 5.796 0 3.197-2.584 5.798-5.76 5.798-3.176 0-5.76-2.6-5.76-5.798 0-3.196 2.584-5.796 5.76-5.796zM30.667 20v-2.67c0-.726-.597-1.33-1.334-1.33-.741 0-1.333.595-1.333 1.33V20h-2.67c-.726 0-1.33.597-1.33 1.333 0 .742.595 1.334 1.33 1.334H28v2.67c0 .726.597 1.33 1.333 1.33.742 0 1.334-.596 1.334-1.33v-2.67h2.67c.726 0 1.33-.597 1.33-1.334 0-.741-.596-1.333-1.33-1.333h-2.67zM14 25.797c4.519 0 8.195-3.693 8.195-8.233 0-4.538-3.676-8.23-8.195-8.23-4.518 0-8.195 3.692-8.195 8.23 0 4.54 3.677 8.233 8.195 8.233z" fill="#FFF"/>
    </g>
</svg>