<svg width="26" height="20" xmlns="http://www.w3.org/2000/svg" aria-labelledby="add" role="presentation">
    <title id="add">Add a Contributor</title>
    <path d="M2.305 17.804c1.007-1.065 3.416-2.252 5.428-2.953L9.91 16.7c.34.29.842.29 1.183 0l2.175-1.85c2.013.701 4.42 1.888 5.428 2.953H2.305zm11.04-4.852a.911.911 0 00-.868.174l-1.977 1.68-1.976-1.68a.911.911 0 00-.87-.174C6.377 13.359 0 15.554 0 18.717c0 .505.409.913.913.913h19.174a.913.913 0 00.913-.913c0-3.163-6.376-5.358-7.654-5.765zM10.5 1.826c2.382 0 4.32 1.95 4.32 4.347 0 2.398-1.938 4.348-4.32 4.348-2.382 0-4.32-1.95-4.32-4.348 0-2.397 1.938-4.347 4.32-4.347zM23 8V5.997C23 5.453 22.552 5 22 5c-.556 0-1 .446-1 .997V8h-2.003C18.453 8 18 8.448 18 9c0 .556.446 1 .997 1H21v2.003c0 .544.448.997 1 .997.556 0 1-.446 1-.997V10h2.003c.544 0 .997-.448.997-1 0-.556-.446-1-.997-1H23zm-12.5 4.348c3.389 0 6.146-2.77 6.146-6.175C16.646 2.77 13.89 0 10.5 0S4.354 2.77 4.354 6.173c0 3.405 2.757 6.175 6.146 6.175z" fill="#CED5D9" fill-rule="evenodd"/>
</svg>