<svg viewBox="0 0 81 81" xmlns="http://www.w3.org/2000/svg" fill-rule="evenodd" clip-rule="evenodd" stroke-linejoin="round" stroke-miterlimit="1.414" aria-labelledby="avatar1" role="presentation">
    <title id="avatar1">Avatar 1</title>
    <circle cx="40.232" cy="40.232" r="38.5" fill="#fafafa" stroke-width="2" stroke="#dadada"/>
    <g stroke-width="2" stroke-linecap="round" stroke="#dadada">
      <path d="M15.968 40.49a1.798 1.798 0 01-2.269-1.112 7.7 7.7 0 01-.353-2.271c0-3.863 3.137-7 7-7a7.004 7.004 0 016.486 9.637 1.472 1.472 0 01-1.851.812c-1.4-.455-2.972-.72-4.635-.72a14.62 14.62 0 00-4.378.654zM56.065 40.392a2.179 2.179 0 01-2.757-1.562 8.405 8.405 0 01-.19-1.723c0-3.863 3.137-7 7-7a7.003 7.003 0 016.734 8.917 2.024 2.024 0 01-2.559 1.378 15.692 15.692 0 00-4.175-.566c-1.438 0-2.808.198-4.053.556z" fill="#fff"/>
      <path d="M46.789 50.732c0 2.001-2.717 3.625-6.063 3.625-3.346 0-6.063-1.624-6.063-3.625" fill="none"/>
    </g>
</svg>