<?xml version="1.0" encoding="UTF-8"?>
<svg width="550px" height="631px" viewBox="0 0 550 631" version="1.1" xmlns="http://www.w3.org/2000/svg" xmlns:xlink="http://www.w3.org/1999/xlink">
    <!-- Generator: Sketch 42 (36781) - http://www.bohemiancoding.com/sketch -->
    <title>:: kapaow</title>
    <desc>Created with Sketch.</desc>
    <defs>
        <radialGradient cx="50%" cy="52.0143841%" fx="50%" fy="52.0143841%" r="44.4366964%" id="radialGradient-1">
            <stop stop-color="#FFFFFF" stop-opacity="0" offset="0%"></stop>
            <stop stop-color="#FFFFFF" offset="100%"></stop>
        </radialGradient>
    </defs>
    <g id="Page-1" stroke="none" stroke-width="1" fill="none" fill-rule="evenodd">
        <g id="ticket-aquired" transform="translate(-237.000000, -40.000000)">
            <g id="::-kapaow" transform="translate(237.000000, 40.000000)">
                <g transform="translate(-81.000000, -79.000000)" id="Star">
                    <polygon fill="#F1F1F1" points="355.271862 441.258348 308.568138 710.021862 333.016922 438.328429 218.343473 685.846236 312.278619 429.738343 137.450251 639.142512 294.470235 416.073489 71.4012118 573.093473 280.805381 398.265105 24.6974882 492.200251 272.215295 377.526802 0.521861998 401.975586 269.285376 355.271862 0.521861998 308.568138 272.215295 333.016922 24.6974882 218.343473 280.805381 312.278619 71.4012118 137.450251 294.470235 294.470235 137.450251 71.4012118 312.278619 280.805381 218.343473 24.6974882 333.016922 272.215295 308.568138 0.521861998 355.271862 269.285376 401.975586 0.521861998 377.526802 272.215295 492.200251 24.6974882 398.265105 280.805381 573.093473 71.4012118 416.073489 294.470235 639.142512 137.450251 429.738343 312.278619 685.846236 218.343473 438.328429 333.016922 710.021862 308.568138 441.258348 355.271862 710.021862 401.975586 438.328429 377.526802 685.846236 492.200251 429.738343 398.265105 639.142512 573.093473 416.073489 416.073489 573.093473 639.142512 398.265105 429.738343 492.200251 685.846236 377.526802 438.328429 401.975586 710.021862"></polygon>
                    <polygon fill="url(#radialGradient-1)" points="355.271862 441.258348 308.568138 710.021862 333.016922 438.328429 218.343473 685.846236 312.278619 429.738343 137.450251 639.142512 294.470235 416.073489 71.4012118 573.093473 280.805381 398.265105 24.6974882 492.200251 272.215295 377.526802 0.521861998 401.975586 269.285376 355.271862 0.521861998 308.568138 272.215295 333.016922 24.6974882 218.343473 280.805381 312.278619 71.4012118 137.450251 294.470235 294.470235 137.450251 71.4012118 312.278619 280.805381 218.343473 24.6974882 333.016922 272.215295 308.568138 0.521861998 355.271862 269.285376 401.975586 0.521861998 377.526802 272.215295 492.200251 24.6974882 398.265105 280.805381 573.093473 71.4012118 416.073489 294.470235 639.142512 137.450251 429.738343 312.278619 685.846236 218.343473 438.328429 333.016922 710.021862 308.568138 441.258348 355.271862 710.021862 401.975586 438.328429 377.526802 685.846236 492.200251 429.738343 398.265105 639.142512 573.093473 416.073489 416.073489 573.093473 639.142512 398.265105 429.738343 492.200251 685.846236 377.526802 438.328429 401.975586 710.021862"></polygon>
                </g>
            </g>
        </g>
    </g>
</svg>