<?xml version="1.0" encoding="UTF-8" standalone="no"?>
<svg xmlns="http://www.w3.org/2000/svg" width="216" height="94" viewBox="0 0 216 94" fill="none" version="1.1" id="collective-card-mask">
   <defs id="defs57">
      <mask height="106" width="218" y="-1" x="-1" maskUnits="userSpaceOnUse" mask-type="alpha" id="mask0">
         <path id="path2" fill="white" d="M0 8C0 3.58172 3.58172 0 8 0H208C212.418 0 216 3.58172 216 8V103.719H0V8Z" />
         <path id="path4" stroke-opacity="0.08" stroke="#141414" d="M216 104.219H216.5V103.719V8C216.5 3.30558 212.694 -0.5 208 -0.5H8C3.30558 -0.5 -0.5 3.30557 -0.5 8V103.719V104.219H0H216Z" />
      </mask>
   </defs>
   <g id="g1075">
      <path id="rect912" d="M -29.076172,-51.033203 V 94.01562 H 321.8457 V -51.033203 Z m 7.888672,10.677734 H 299.80469 V 81.875 l -30.2168,0.01563 c -120.671,0 -227.18799,-48.410694 -290.77539,-122.246094 z" clip-path="none" style="opacity:1;fill:#ffffff;fill-opacity:1;stroke-width:1.01910532" />
      <g transform="translate(-0.47264771,-2.2188183)" style="opacity:0.25600011" id="g915">
         <path d="m 154.819,85.2531 c 0.603,0.0667 1.146,-0.3671 1.213,-0.969 0.067,-0.6019 -0.368,-1.1439 -0.971,-1.2106 -0.603,-0.0668 -1.146,0.3671 -1.213,0.969 -0.067,0.6018 0.368,1.1439 0.971,1.2106 z" id="path11" style="clip-rule:evenodd;opacity:0.4;fill-rule:evenodd;stroke:#000000" />
         <path d="m 136.433,82.9414 c 0.454,0.0502 0.862,-0.2761 0.912,-0.7287 0.051,-0.4526 -0.276,-0.8602 -0.73,-0.9104 -0.453,-0.0502 -0.862,0.276 -0.912,0.7287 -0.05,0.4526 0.277,0.8602 0.73,0.9104 z" id="path13" style="clip-rule:evenodd;opacity:0.4;fill-rule:evenodd;stroke:#000000" />
         <path d="m 203.299,87.7263 c 0.809,0.0896 1.538,-0.4926 1.628,-1.3003 0.089,-0.8077 -0.494,-1.5351 -1.303,-1.6247 -0.81,-0.0895 -1.539,0.4926 -1.628,1.3004 -0.09,0.8077 0.493,1.5351 1.303,1.6246 z" id="path15" style="clip-rule:evenodd;opacity:0.8;fill-rule:evenodd;stroke:#000000" />
         <path d="m 114.367,70.5574 c 1.034,0.1144 1.965,-0.6293 2.08,-1.6611 0.114,-1.0318 -0.631,-1.961 -1.665,-2.0754 -1.034,-0.1144 -1.965,0.6293 -2.079,1.6611 -0.115,1.0318 0.63,1.961 1.664,2.0754 z" id="path17" style="clip-rule:evenodd;opacity:0.56000001;fill-rule:evenodd;stroke:#000000" />
         <path d="m 186.109,83.3182 c 1.308,0.1447 2.485,-0.7959 2.63,-2.1009 0.145,-1.3049 -0.797,-2.4801 -2.105,-2.6248 -1.307,-0.1446 -2.485,0.7959 -2.63,2.1009 -0.145,1.3049 0.798,2.4801 2.105,2.6248 z" id="path19" style="clip-rule:evenodd;fill-rule:evenodd;stroke:#000000" />
         <path d="m 143.791,80.9185 c 1.603,0.1773 3.046,-0.9754 3.224,-2.5747 0.177,-1.5993 -0.978,-3.0395 -2.58,-3.2168 -1.603,-0.1773 -3.046,0.9754 -3.224,2.5747 -0.177,1.5992 0.978,3.0395 2.58,3.2168 z" id="path21" style="clip-rule:evenodd;opacity:0.8;fill-rule:evenodd;stroke:#000000" />
         <path d="m 212.607,84.1929 c 1.859,0.2057 3.534,-1.1317 3.74,-2.9871 0.206,-1.8554 -1.134,-3.5263 -2.993,-3.732 -1.86,-0.2057 -3.534,1.1316 -3.74,2.987 -0.206,1.8555 1.134,3.5263 2.993,3.7321 z" id="path23" style="clip-rule:evenodd;fill-rule:evenodd;stroke:#000000" />
         <path d="m 163.805,82.5377 c 3.205,0.3546 6.092,-1.9508 6.447,-5.1494 0.355,-3.1986 -1.955,-6.079 -5.16,-6.4337 -3.205,-0.3546 -6.091,1.9508 -6.446,5.1494 -0.356,3.1986 1.954,6.079 5.159,6.4337 z" id="path25" style="clip-rule:evenodd;fill-rule:evenodd;stroke:#000000" />
         <path d="m 128.729,71.2803 c 3.205,0.3547 6.092,-1.9508 6.447,-5.1493 0.355,-3.1986 -1.955,-6.079 -5.16,-6.4337 -3.205,-0.3546 -6.091,1.9508 -6.447,5.1494 -0.355,3.1985 1.955,6.079 5.16,6.4336 z" id="path27" style="clip-rule:evenodd;fill-rule:evenodd;stroke:#000000" />
         <path d="m 66.6752,52.9082 c 0.5523,0.2509 1.2038,0.0076 1.4553,-0.5435 0.2514,-0.5512 0.0076,-1.2014 -0.5447,-1.4523 -0.5522,-0.251 -1.2037,-0.0076 -1.4552,0.5435 -0.2514,0.5511 -0.0076,1.2013 0.5446,1.4523 z" id="path29" style="clip-rule:evenodd;opacity:0.4;fill-rule:evenodd;stroke:#000000" />
         <path d="m 53.2068,44.4131 c 0.4153,0.1887 0.9052,0.0057 1.0943,-0.4087 0.1891,-0.4145 0.0058,-0.9034 -0.4095,-1.0921 -0.4153,-0.1888 -0.9052,-0.0058 -1.0943,0.4087 -0.1891,0.4144 -0.0058,0.9034 0.4095,1.0921 z" id="path31" style="clip-rule:evenodd;opacity:0.4;fill-rule:evenodd;stroke:#000000" />
         <path d="m 91.5867,58.0323 c 0.9467,0.4302 2.0635,0.0131 2.4946,-0.9317 0.4311,-0.9448 0.0131,-2.0594 -0.9336,-2.4896 -0.9467,-0.4302 -2.0636,-0.0131 -2.4946,0.9317 -0.4311,0.9448 -0.0131,2.0594 0.9336,2.4896 z" id="path33" style="clip-rule:evenodd;opacity:0.8;fill-rule:evenodd;stroke:#000000" />
         <path d="m 49.3464,37.6749 c 0.9467,0.4302 2.0636,0.0131 2.4947,-0.9317 0.4311,-0.9448 0.0131,-2.0594 -0.9336,-2.4896 -0.9467,-0.4302 -2.0636,-0.0131 -2.4947,0.9317 -0.431,0.9448 -0.013,2.0594 0.9336,2.4896 z" id="path35" style="clip-rule:evenodd;opacity:0.56000001;fill-rule:evenodd;stroke:#000000" />
         <path d="m 78.3772,55.9883 c 1.5778,0.717 3.4393,0.0218 4.1578,-1.5529 0.7184,-1.5746 0.0218,-3.4324 -1.556,-4.1494 -1.5779,-0.717 -3.4394,-0.0217 -4.1578,1.5529 -0.7185,1.5747 -0.0218,3.4324 1.556,4.1494 z" id="path37" style="clip-rule:evenodd;opacity:0.8;fill-rule:evenodd;stroke:#000000" />
         <path d="m 60.8301,44.7788 c 1.4674,0.6668 3.1986,0.0202 3.8667,-1.4442 0.6682,-1.4644 0.0203,-3.1921 -1.4471,-3.8589 -1.4674,-0.6668 -3.1986,-0.0202 -3.8667,1.4442 -0.6682,1.4644 -0.0203,3.1921 1.4471,3.8589 z" id="path39" style="clip-rule:evenodd;opacity:0.8;fill-rule:evenodd;stroke:#000000" />
         <path d="m 101.667,57.1057 c 2.446,1.1113 5.331,0.0337 6.445,-2.407 1.113,-2.4407 0.033,-5.3202 -2.412,-6.4315 -2.446,-1.1114 -5.331,-0.0338 -6.4449,2.4069 -1.1136,2.4407 -0.0338,5.3202 2.4119,6.4316 z" id="path41" style="clip-rule:evenodd;fill-rule:evenodd;stroke:#000000" />
         <path d="m 72.624,47.4812 c 2.9347,1.3336 6.3971,0.0404 7.7335,-2.8884 1.3363,-2.9288 0.0405,-6.3842 -2.8942,-7.7179 -2.9348,-1.3336 -6.3972,-0.0404 -7.7335,2.8884 -1.3363,2.9288 -0.0406,6.3842 2.8942,7.7179 z" id="path43" style="clip-rule:evenodd;fill-rule:evenodd;stroke:#000000" />
         <path d="m 49.5273,30.9367 c 2.9348,1.3337 6.3971,0.0405 7.7335,-2.8883 1.3363,-2.9289 0.0405,-6.3843 -2.8942,-7.7179 -2.9348,-1.3336 -6.3972,-0.0404 -7.7335,2.8884 -1.3363,2.9288 -0.0405,6.3842 2.8942,7.7178 z" id="path45" style="clip-rule:evenodd;fill-rule:evenodd;stroke:#000000" />
      </g>
      <path style="opacity:0.06300001;fill:#000000;stroke:#d7dbe0" id="path7" d="m 299.255,-21.8836 v -0.6003 C 277.449,-22.505 252.701,-22.5313 226.568,-22.559 143.45,-22.6472 46.334,-22.7503 -14.5877,-22.7514 7.77739,6.7134 53.9949,31.6478 99.6825,50.0921 145.713,68.6747 191.094,80.6265 210.734,83.9733 c 13.3,2.2665 32.194,2.9426 49.455,2.3969 8.627,-0.2727 16.833,-0.8502 23.715,-1.684 6.667,-0.8077 12.04,-1.8502 15.351,-3.0682 V 24.08 -8.55922 -18.9915 Z" />
      <path style="opacity:0.06000001;fill:#000000;stroke:#c0c5cc" id="path9" d="M 15.177,4.6719 C 3.13831,-4.60398 -4.30294,-16.9474 -1.3534,-32.5079 11.6322,-32.509 55.758,-32.5567 107.4,-32.6125 c 10.915,-0.0118 22.166,-0.0239 33.53,-0.0361 65.42,-0.0699 134.576,-0.1399 164.911,-0.1406 v 58.7603 c 0,0.9423 0.247,2.0577 0.644,3.2949 0.4,1.2432 0.963,2.6419 1.62,4.1581 0.513,1.1851 1.08,2.4375 1.675,3.749 0.937,2.0682 1.942,4.2837 2.904,6.6145 3.141,7.6114 5.693,16.1474 3.643,23.6817 -2.028,7.4502 -8.62,14.098 -24.231,17.838 -15.628,3.7442 -40.181,4.5372 -77.885,0.3229 C 176.974,81.4681 147.934,67.8948 123.374,54.3583 118.028,51.4118 112.883,48.4603 107.91,45.6079 101.48,41.9195 95.3392,38.3966 89.4256,35.2642 78.9232,29.701 69.0517,25.3196 59.3645,23.3387 44.1151,20.2203 27.3325,14.0379 15.177,4.6719 Z" />
   </g>
</svg>
