<svg width="264" height="70" viewBox="0 0 264 64" fill="none" 
  xmlns="http://www.w3.org/2000/svg">
  <rect y="31" width="264" height="1" fill="#E3E4E6"/>
  <circle cx="132" cy="32" r="32" fill="url(#paint0_linear)"/>
  <path fill-rule="evenodd" clip-rule="evenodd" d="M131.346 5.00777C131.563 5.0026 131.781 5 132 5C132.219 5 132.437 5.0026 132.654 5.00777L132.624 6.26323C132.417 6.2583 132.209 6.25581 132 6.25581C131.791 6.25581 131.583 6.2583 131.376 6.26323L131.346 5.00777ZM128.098 5.27998C128.527 5.2179 128.959 5.1659 129.394 5.12422L129.513 6.37431C129.099 6.41405 128.687 6.46364 128.278 6.52283L128.098 5.27998ZM134.606 5.12422C135.041 5.1659 135.473 5.2179 135.902 5.27998L135.722 6.52283C135.313 6.46364 134.901 6.41405 134.487 6.37431L134.606 5.12422ZM124.905 5.94215C125.323 5.82846 125.746 5.72457 126.172 5.63076L126.442 6.85724C126.035 6.94666 125.633 7.04567 125.234 7.15404L124.905 5.94215ZM137.828 5.63076C138.254 5.72457 138.677 5.82846 139.095 5.94215L138.766 7.15404C138.367 7.04567 137.965 6.94666 137.558 6.85724L137.828 5.63076ZM140.964 6.524C141.376 6.66877 141.783 6.82321 142.185 6.98706L141.711 8.14999C141.328 7.99381 140.94 7.8466 140.548 7.70862L140.964 6.524ZM121.815 6.98706C122.217 6.82321 122.624 6.66877 123.036 6.524L123.452 7.70862C123.06 7.8466 122.672 7.99381 122.289 8.14999L121.815 6.98706ZM143.969 7.79141C144.36 7.98482 144.745 8.1874 145.124 8.39886L144.513 9.49585C144.151 9.29424 143.784 9.10111 143.412 8.91673L143.969 7.79141ZM118.876 8.39886C119.255 8.1874 119.64 7.98482 120.031 7.79141L120.588 8.91673C120.216 9.10111 119.849 9.29424 119.487 9.49585L118.876 8.39886ZM146.798 9.41298C147.162 9.65192 147.52 9.89941 147.871 10.1552L147.133 11.1706C146.797 10.9266 146.456 10.6906 146.109 10.4628L146.798 9.41298ZM116.129 10.1552C116.48 9.89941 116.838 9.65192 117.202 9.41298L117.891 10.4628C117.544 10.6906 117.203 10.9266 116.867 11.1706L116.129 10.1552ZM149.411 11.3631C149.744 11.6438 150.069 11.9325 150.388 12.2287L149.532 13.1481C149.228 12.8656 148.918 12.5903 148.601 12.3225L149.411 11.3631ZM113.612 12.2287C113.931 11.9325 114.256 11.6438 114.589 11.3631L115.399 12.3225C115.082 12.5903 114.772 12.8656 114.468 13.1481L113.612 12.2287ZM151.771 13.6125C152.068 13.9308 152.356 14.2564 152.637 14.5888L151.677 15.3991C151.41 15.082 151.134 14.7716 150.852 14.4679L151.771 13.6125ZM111.363 14.5888C111.644 14.2564 111.932 13.9308 112.229 13.6125L113.148 14.4679C112.866 14.7716 112.59 15.082 112.323 15.3991L111.363 14.5888ZM153.845 16.1285C154.101 16.4799 154.348 16.8378 154.587 17.2018L153.537 17.8909C153.309 17.5439 153.073 17.2026 152.829 16.8675L153.845 16.1285ZM109.413 17.2018C109.652 16.8378 109.899 16.4799 110.155 16.1285L111.171 16.8675C110.927 17.2026 110.691 17.5439 110.463 17.8909L109.413 17.2018ZM155.601 18.8758C155.813 19.2553 156.015 19.6404 156.209 20.0309L155.083 20.5883C154.899 20.216 154.706 19.8489 154.504 19.4871L155.601 18.8758ZM107.791 20.0309C107.985 19.6404 108.187 19.2553 108.399 18.8758L109.496 19.4871C109.294 19.8489 109.101 20.216 108.917 20.5883L107.791 20.0309ZM157.013 21.8153C157.177 22.2173 157.331 22.6241 157.476 23.0355L156.291 23.4524C156.153 23.0602 156.006 22.6724 155.85 22.2893L157.013 21.8153ZM106.524 23.0355C106.669 22.6241 106.823 22.2173 106.987 21.8153L108.15 22.2893C107.994 22.6724 107.847 23.0602 107.709 23.4524L106.524 23.0355ZM105.631 26.1719C105.725 25.7456 105.828 25.3231 105.942 24.9046L107.154 25.2338C107.046 25.6327 106.947 26.0354 106.857 26.4418L105.631 26.1719ZM158.058 24.9046C158.172 25.3231 158.275 25.7456 158.369 26.1719L157.143 26.4418C157.053 26.0354 156.954 25.6327 156.846 25.2338L158.058 24.9046ZM105.124 29.3937C105.166 28.9587 105.218 28.5267 105.28 28.0979L106.523 28.2779C106.464 28.6867 106.414 29.0986 106.374 29.5135L105.124 29.3937ZM158.72 28.0979C158.782 28.5267 158.834 28.9587 158.876 29.3937L157.626 29.5135C157.586 29.0986 157.536 28.6867 157.477 28.2779L158.72 28.0979ZM105 32C105 31.7813 105.003 31.5633 105.008 31.3458L106.263 31.3757C106.258 31.5832 106.256 31.7913 106.256 32C106.256 32.2087 106.258 32.4168 106.263 32.6243L105.008 32.6542C105.003 32.4367 105 32.2187 105 32ZM158.992 31.3458C158.997 31.5633 159 31.7813 159 32C159 32.2187 158.997 32.4367 158.992 32.6542L157.737 32.6243C157.742 32.4168 157.744 32.2087 157.744 32C157.744 31.7913 157.742 31.5832 157.737 31.3757L158.992 31.3458ZM105.28 35.9021C105.218 35.4733 105.166 35.0413 105.124 34.6063L106.374 34.4865C106.414 34.9014 106.464 35.3133 106.523 35.7221L105.28 35.9021ZM158.876 34.6063C158.834 35.0413 158.782 35.4733 158.72 35.9021L157.477 35.7221C157.536 35.3133 157.586 34.9014 157.626 34.4865L158.876 34.6063ZM105.942 39.0954C105.828 38.6769 105.725 38.2544 105.631 37.8281L106.857 37.5582C106.947 37.9646 107.046 38.3673 107.154 38.7662L105.942 39.0954ZM158.369 37.8281C158.275 38.2544 158.172 38.6769 158.058 39.0954L156.846 38.7662C156.954 38.3673 157.053 37.9646 157.143 37.5582L158.369 37.8281ZM157.476 40.9645C157.331 41.3759 157.177 41.7827 157.013 42.1847L155.85 41.7107C156.006 41.3276 156.153 40.9398 156.291 40.5476L157.476 40.9645ZM106.987 42.1847C106.823 41.7827 106.669 41.3759 106.524 40.9645L107.709 40.5476C107.847 40.9398 107.994 41.3276 108.15 41.7107L106.987 42.1847ZM156.209 43.9691C156.015 44.3596 155.813 44.7447 155.601 45.1242L154.504 44.5129C154.706 44.1511 154.899 43.784 155.083 43.4117L156.209 43.9691ZM108.399 45.1242C108.187 44.7447 107.985 44.3596 107.791 43.9692L108.917 43.4117C109.101 43.784 109.294 44.1511 109.496 44.5129L108.399 45.1242ZM154.587 46.7982C154.348 47.1622 154.101 47.5201 153.845 47.8715L152.829 47.1325C153.073 46.7974 153.309 46.4561 153.537 46.1091L154.587 46.7982ZM110.155 47.8715C109.899 47.5201 109.652 47.1622 109.413 46.7982L110.463 46.1091C110.691 46.4561 110.927 46.7974 111.171 47.1325L110.155 47.8715ZM112.229 50.3875C111.932 50.0692 111.644 49.7436 111.363 49.4112L112.323 48.6009C112.59 48.918 112.866 49.2284 113.148 49.5321L112.229 50.3875ZM152.637 49.4112C152.356 49.7436 152.068 50.0692 151.771 50.3875L150.852 49.5321C151.134 49.2284 151.41 48.918 151.677 48.6009L152.637 49.4112ZM114.589 52.6369C114.256 52.3562 113.931 52.0675 113.612 51.7713L114.468 50.8519C114.772 51.1344 115.082 51.4097 115.399 51.6775L114.589 52.6369ZM150.388 51.7713C150.069 52.0675 149.744 52.3562 149.411 52.6369L148.601 51.6775C148.918 51.4097 149.228 51.1344 149.532 50.8519L150.388 51.7713ZM147.871 53.8448C147.52 54.1006 147.162 54.3481 146.798 54.587L146.109 53.5372C146.456 53.3094 146.797 53.0734 147.133 52.8294L147.871 53.8448ZM117.202 54.587C116.838 54.3481 116.48 54.1006 116.129 53.8448L116.867 52.8295C117.203 53.0734 117.544 53.3094 117.891 53.5372L117.202 54.587ZM145.124 55.6011C144.745 55.8126 144.36 56.0152 143.969 56.2086L143.412 55.0833C143.784 54.8989 144.151 54.7058 144.513 54.5042L145.124 55.6011ZM120.031 56.2086C119.64 56.0152 119.255 55.8126 118.876 55.6011L119.487 54.5042C119.849 54.7058 120.216 54.8989 120.588 55.0833L120.031 56.2086ZM123.036 57.476C122.624 57.3312 122.217 57.1768 121.815 57.0129L122.289 55.85C122.672 56.0062 123.06 56.1534 123.452 56.2914L123.036 57.476ZM142.185 57.0129C141.783 57.1768 141.376 57.3312 140.964 57.476L140.548 56.2914C140.94 56.1534 141.328 56.0062 141.711 55.85L142.185 57.0129ZM126.172 58.3692C125.746 58.2754 125.323 58.1715 124.905 58.0578L125.234 56.846C125.633 56.9543 126.035 57.0533 126.442 57.1428L126.172 58.3692ZM139.095 58.0578C138.677 58.1715 138.254 58.2754 137.828 58.3692L137.558 57.1428C137.965 57.0533 138.367 56.9543 138.766 56.846L139.095 58.0578ZM129.394 58.8758C128.959 58.8341 128.527 58.7821 128.098 58.72L128.278 57.4772C128.687 57.5364 129.099 57.5859 129.513 57.6257L129.394 58.8758ZM135.902 58.72C135.473 58.7821 135.041 58.8341 134.606 58.8758L134.487 57.6257C134.901 57.5859 135.313 57.5364 135.722 57.4772L135.902 58.72ZM132 59C131.781 59 131.563 58.9974 131.346 58.9922L131.376 57.7368C131.583 57.7417 131.791 57.7442 132 57.7442C132.209 57.7442 132.417 57.7417 132.624 57.7368L132.654 58.9922C132.437 58.9974 132.219 59 132 59Z" fill="#E0F1FF"/>
  <path d="M164 32C164 32 157.231 62.7693 132 64C105.538 62.7693 100 32 100 32L132 20.9231L164 32Z" fill="url(#paint1_linear)"/>
  <path fill-rule="evenodd" clip-rule="evenodd" d="M159.559 36.2802L159.808 33.3737L158.998 33.317L158.832 35.2391L157.886 35.1557L158.025 33.5339L157.212 33.4638L157.072 35.0856L156.126 35.0022L156.302 33.0701L155.492 33L155.243 35.9032L159.559 36.2802ZM105.096 34.5583L106.586 34.4111L106.66 35.1089C106.756 36.1967 107.35 36.5938 108.204 36.5104C109.057 36.427 109.588 35.9264 109.482 34.8152L109.316 33.1467L105 33.5739L105.096 34.5583ZM107.453 35.0288L107.386 34.332L108.609 34.2112L108.675 34.9086C108.689 34.9889 108.685 35.0713 108.663 35.1498C108.641 35.2282 108.602 35.3007 108.548 35.3619C108.495 35.4231 108.428 35.4714 108.354 35.5033C108.279 35.5351 108.198 35.5497 108.117 35.546C108.039 35.565 107.957 35.5661 107.878 35.5491C107.8 35.5321 107.725 35.4975 107.662 35.4478C107.598 35.3981 107.546 35.3347 107.51 35.2621C107.474 35.1896 107.455 35.1099 107.453 35.0288ZM106.364 41.0754L105.637 38.4059L109.827 37.2479L110.089 38.2023L106.683 39.1567L107.151 40.8585L106.364 41.0754ZM106.915 42.6172L108.131 45.2634L108.868 44.903L108.067 43.1544L108.931 42.754L109.595 44.2323L110.332 43.8986L109.668 42.4203L110.531 42.0232L111.331 43.7718L112.071 43.4381L110.859 40.7919L106.915 42.6172ZM108.957 46.7649L112.513 44.2522L113.399 45.5169C114.13 46.5647 113.917 47.6859 112.805 48.4701C111.693 49.2543 110.571 49.0775 109.84 48.0163L108.957 46.7649ZM112.387 45.5536L110.215 47.0853L110.511 47.5024C110.926 48.0964 111.457 48.2032 112.234 47.6526C113.011 47.102 113.094 46.5647 112.672 45.9641L112.387 45.5536ZM113.373 52.301C114.087 52.995 115.126 53.0785 115.823 52.3543L116.324 51.8405L115.029 50.5858L114.528 51.1063L115.116 51.6769C115.041 51.7553 114.952 51.8172 114.852 51.8588C114.753 51.9004 114.646 51.9208 114.538 51.9186C114.43 51.9164 114.324 51.8917 114.226 51.8461C114.129 51.8004 114.042 51.7349 113.97 51.6536C113.592 51.2865 113.555 50.7292 114.236 50.0385C114.917 49.3477 115.461 49.3444 115.833 49.7048C115.97 49.828 116.06 49.995 116.088 50.1774C116.117 50.3598 116.082 50.5465 115.989 50.7059L116.796 51.2999C116.998 50.9439 117.076 50.5297 117.015 50.1241C116.955 49.7185 116.761 49.3451 116.464 49.0641C115.683 48.3066 114.528 48.3233 113.539 49.3544C112.55 50.3855 112.586 51.5368 113.373 52.301ZM118.452 56.1618L116.032 54.5468L118.439 50.9061L120.859 52.5212L120.408 53.1886L118.807 52.1208L118.28 52.935L119.631 53.836L119.179 54.5034L117.828 53.6024L117.3 54.3999L118.9 55.4678L118.452 56.1618ZM121.662 53.0018L119.939 57.0062L121.35 57.6269C122.522 58.1341 123.571 57.6969 124.109 56.4422C124.647 55.1875 124.245 54.1197 123.073 53.6125L121.662 53.0018ZM121.168 56.6124L122.23 54.1664L122.678 54.3667C123.349 54.657 123.561 55.1575 123.183 56.0351C122.804 56.9128 122.3 57.103 121.636 56.816L121.168 56.6124ZM132.525 57.1162C132.493 56.9176 132.391 56.737 132.238 56.6068C132.086 56.4765 131.892 56.4052 131.692 56.4054C131.141 56.4054 130.752 56.7758 130.722 57.7402C130.693 58.7046 131.054 59.1017 131.602 59.1184C131.797 59.1342 131.991 59.0798 132.149 58.9648C132.307 58.8498 132.419 58.6818 132.465 58.491L133.418 58.6612C133.313 59.0646 133.071 59.4184 132.734 59.662C132.397 59.9056 131.986 60.0237 131.572 59.996C130.467 59.9593 129.68 59.1151 129.726 57.6968C129.773 56.2786 130.616 55.4711 131.718 55.5078C132.143 55.5116 132.553 55.666 132.875 55.9438C133.198 56.2215 133.412 56.6048 133.481 57.0261L132.525 57.1162ZM134.577 57.7604C134.802 59.1753 135.752 59.836 136.828 59.6592C137.893 59.4856 138.597 58.5713 138.351 57.1464C138.106 55.7215 137.189 55.0475 136.114 55.2243C135.038 55.4012 134.351 56.3456 134.577 57.7604ZM135.556 57.6003C135.4 56.6292 135.725 56.1887 136.253 56.102C136.781 56.0252 137.203 56.3389 137.369 57.3066C137.535 58.2743 137.213 58.7015 136.685 58.7849C136.157 58.8683 135.712 58.5713 135.556 57.6003ZM142.797 57.9439L140.211 58.8583L138.77 54.7404L139.696 54.4067L140.868 57.7437L142.528 57.1564L142.797 57.9439ZM144.281 57.2965L146.688 55.9617L146.299 55.2609L144.756 56.1018L143.069 52.9851L142.206 53.459L144.281 57.2965ZM150.343 53.2821L148.049 55.0707L145.393 51.6203L147.687 49.8317L148.185 50.479L146.671 51.6603L147.252 52.4145L148.534 51.4134L149.035 52.0608L147.753 53.0618L148.338 53.8193L149.852 52.6347L150.343 53.2821ZM150.528 48.3157C150.726 48.2833 150.928 48.3227 151.1 48.4268L151.641 47.6326C151.278 47.4179 150.853 47.3374 150.437 47.405C150.022 47.4727 149.643 47.6842 149.367 48.003C148.623 48.8206 148.686 49.9885 149.725 50.9462C150.764 51.9039 151.916 51.8539 152.66 51.0363C152.952 50.7369 153.129 50.3442 153.163 49.9266C153.196 49.509 153.083 49.0929 152.843 48.7505L152.096 49.3678C152.21 49.5272 152.263 49.7221 152.248 49.9177C152.232 50.1133 152.147 50.2969 152.009 50.4357C151.638 50.8461 151.103 50.8661 150.396 50.2121C149.689 49.5581 149.646 49.0108 150.021 48.6037C150.15 48.4502 150.33 48.3481 150.528 48.3157ZM153.57 43.6349L152.906 44.7194L155.893 46.6015L155.379 47.4324L152.391 45.5503L151.727 46.6348L151.036 46.201L152.902 43.1978L153.57 43.6349ZM157.165 44.2021L157.57 43.3011L153.606 41.5059L153.205 42.4102L157.165 44.2021ZM157.58 39.5706V39.5238L154.871 37.6451L155.15 36.644L158.898 39.3737L158.616 40.3915L154.002 40.7652L154.28 39.7641L157.58 39.5706Z" fill="white"/>
  <path fill-rule="evenodd" clip-rule="evenodd" d="M145.274 22.1523C147.138 24.8379 148.231 28.0989 148.231 31.6154C148.231 35.1319 147.138 38.3933 145.274 41.0785L140.97 36.7746C141.816 35.2452 142.297 33.4863 142.297 31.6154C142.297 29.7445 141.816 27.986 140.97 26.4566L145.274 22.1523Z" fill="white" fill-opacity="0.48"/>
  <path fill-rule="evenodd" clip-rule="evenodd" d="M141.079 17.9563L136.774 22.2603C135.245 21.415 133.486 20.9339 131.615 20.9339C125.716 20.9339 120.934 25.7163 120.934 31.6154C120.934 37.5145 125.716 42.2968 131.615 42.2968C133.486 42.2968 135.245 41.8157 136.774 40.9705L141.079 45.2744C138.393 47.1383 135.132 48.2308 131.615 48.2308C122.439 48.2308 115 40.7917 115 31.6154C115 22.439 122.439 15 131.615 15C135.132 15 138.393 16.0924 141.079 17.9563Z" fill="white"/>
  <defs>
    <linearGradient id="paint0_linear" x1="131.549" y1="96.6291" x2="157.147" y2="6.89564" gradientUnits="userSpaceOnUse">
      <stop stop-color="#145ECC"/>
      <stop offset="1" stop-color="#3385FF"/>
    </linearGradient>
    <linearGradient id="paint1_linear" x1="131.549" y1="96.629" x2="157.147" y2="6.89559" gradientUnits="userSpaceOnUse">
      <stop stop-color="#145ECC"/>
      <stop offset="1" stop-color="#3385FF"/>
    </linearGradient>
  </defs>
</svg>