<svg width="128" height="128" viewBox="0 0 128 128" fill="none" xmlns="http://www.w3.org/2000/svg">
<path fill-rule="evenodd" clip-rule="evenodd" d="M89.6 3.2C88.7164 3.2 88 2.48366 88 1.6C88 0.716347 88.7164 0 89.6 0C90.4836 0 91.2 0.716347 91.2 1.6C91.2 2.48366 90.4836 3.2 89.6 3.2ZM103.2 10.4C103.2 11.7255 104.275 12.8 105.6 12.8C106.925 12.8 108 11.7255 108 10.4C108 9.07452 106.925 8 105.6 8C104.275 8 103.2 9.07452 103.2 10.4ZM126.4 18.4C126.4 18.8418 126.758 19.2 127.2 19.2C127.642 19.2 128 18.8418 128 18.4C128 17.9582 127.642 17.6 127.2 17.6C126.758 17.6 126.4 17.9582 126.4 18.4ZM84 12.4C84 13.5046 84.8954 14.4 86 14.4C87.1046 14.4 88 13.5046 88 12.4C88 11.2954 87.1046 10.4 86 10.4C84.8954 10.4 84 11.2954 84 12.4ZM84.8 20.8C83.0327 20.8 81.6 19.3673 81.6 17.6C81.6 15.8327 83.0327 14.4 84.8 14.4C86.5673 14.4 88 15.8327 88 17.6C88 19.3673 86.5673 20.8 84.8 20.8ZM82.4 26C82.4 27.9882 84.0118 29.6 86 29.6C87.9882 29.6 89.6 27.9882 89.6 26C89.6 24.0118 87.9882 22.4 86 22.4C84.0118 22.4 82.4 24.0118 82.4 26ZM92.4 32.8C91.2955 32.8 90.4 31.9046 90.4 30.8C90.4 29.6954 91.2955 28.8 92.4 28.8C93.5046 28.8 94.4 29.6954 94.4 30.8C94.4 31.9046 93.5046 32.8 92.4 32.8ZM96.8 28.4C96.8 29.0627 97.3373 29.6 98 29.6C98.6628 29.6 99.2 29.0627 99.2 28.4C99.2 27.7373 98.6628 27.2 98 27.2C97.3373 27.2 96.8 27.7373 96.8 28.4ZM96 37.6C94.6746 37.6 93.6 36.5255 93.6 35.2C93.6 33.8745 94.6746 32.8 96 32.8C97.3255 32.8 98.4 33.8745 98.4 35.2C98.4 36.5255 97.3255 37.6 96 37.6ZM97.6 40.4C97.6 42.3882 99.2117 44 101.2 44C103.188 44 104.8 42.3882 104.8 40.4C104.8 38.4118 103.188 36.8 101.2 36.8C99.2117 36.8 97.6 38.4118 97.6 40.4ZM104.8 60C103.475 60 102.4 58.9255 102.4 57.6C102.4 56.2745 103.475 55.2 104.8 55.2C106.125 55.2 107.2 56.2745 107.2 57.6C107.2 58.9255 106.125 60 104.8 60ZM110.4 61.6C110.4 62.9255 111.475 64 112.8 64C114.125 64 115.2 62.9255 115.2 61.6C115.2 60.2745 114.125 59.2 112.8 59.2C111.475 59.2 110.4 60.2745 110.4 61.6ZM116.4 67.2C115.737 67.2 115.2 66.6627 115.2 66C115.2 65.3373 115.737 64.8 116.4 64.8C117.063 64.8 117.6 65.3373 117.6 66C117.6 66.6627 117.063 67.2 116.4 67.2ZM117.6 73.2C117.6 73.8627 118.137 74.4 118.8 74.4C119.463 74.4 120 73.8627 120 73.2C120 72.5373 119.463 72 118.8 72C118.137 72 117.6 72.5373 117.6 73.2ZM117.6 84C116.275 84 115.2 82.9255 115.2 81.6C115.2 80.2745 116.275 79.2 117.6 79.2C118.925 79.2 120 80.2745 120 81.6C120 82.9255 118.925 84 117.6 84ZM109.6 66.8C109.6 67.9046 110.495 68.8 111.6 68.8C112.705 68.8 113.6 67.9046 113.6 66.8C113.6 65.6954 112.705 64.8 111.6 64.8C110.495 64.8 109.6 65.6954 109.6 66.8ZM105.2 68C103.654 68 102.4 66.7464 102.4 65.2C102.4 63.6536 103.654 62.4 105.2 62.4C106.746 62.4 108 63.6536 108 65.2C108 66.7464 106.746 68 105.2 68ZM100 73.6C100 75.8091 101.791 77.6 104 77.6C106.209 77.6 108 75.8091 108 73.6C108 71.3909 106.209 69.6 104 69.6C101.791 69.6 100 71.3909 100 73.6ZM110 87.2C108.895 87.2 108 86.3046 108 85.2C108 84.0954 108.895 83.2 110 83.2C111.105 83.2 112 84.0954 112 85.2C112 86.3046 111.105 87.2 110 87.2ZM107.2 90.4C107.2 91.7255 108.275 92.8 109.6 92.8C110.925 92.8 112 91.7255 112 90.4C112 89.0745 110.925 88 109.6 88C108.275 88 107.2 89.0745 107.2 90.4ZM110.8 100C109.254 100 108 98.7464 108 97.2C108 95.6536 109.254 94.4 110.8 94.4C112.346 94.4 113.6 95.6536 113.6 97.2C113.6 98.7464 112.346 100 110.8 100ZM100.8 94.4C100.8 95.7255 101.875 96.8 103.2 96.8C104.525 96.8 105.6 95.7255 105.6 94.4C105.6 93.0745 104.525 92 103.2 92C101.875 92 100.8 93.0745 100.8 94.4ZM99.6 100.8C98.9373 100.8 98.4 100.263 98.4 99.6C98.4 98.9373 98.9373 98.4 99.6 98.4C100.263 98.4 100.8 98.9373 100.8 99.6C100.8 100.263 100.263 100.8 99.6 100.8ZM76.8 105.6C76.8 106.484 77.5164 107.2 78.4 107.2C79.2836 107.2 80 106.484 80 105.6C80 104.716 79.2836 104 78.4 104C77.5164 104 76.8 104.716 76.8 105.6ZM80 104C78.6746 104 77.6 102.925 77.6 101.6C77.6 100.275 78.6746 99.2 80 99.2C81.3255 99.2 82.4 100.275 82.4 101.6C82.4 102.925 81.3255 104 80 104ZM82.4 106.8C82.4 108.346 83.6536 109.6 85.2 109.6C86.7464 109.6 88 108.346 88 106.8C88 105.254 86.7464 104 85.2 104C83.6536 104 82.4 105.254 82.4 106.8ZM67.6 107.2C66.0536 107.2 64.8 105.946 64.8 104.4C64.8 102.854 66.0536 101.6 67.6 101.6C69.1464 101.6 70.4 102.854 70.4 104.4C70.4 105.946 69.1464 107.2 67.6 107.2ZM48 105.2C48 107.63 49.9699 109.6 52.4 109.6C54.83 109.6 56.8 107.63 56.8 105.2C56.8 102.77 54.83 100.8 52.4 100.8C49.9699 100.8 48 102.77 48 105.2ZM34.4 36C32.1909 36 30.4 34.2091 30.4 32C30.4 29.7909 32.1909 28 34.4 28C36.6092 28 38.4 29.7909 38.4 32C38.4 34.2091 36.6092 36 34.4 36ZM16 51.6C16 54.4719 18.3281 56.8 21.2 56.8C24.0719 56.8 26.4 54.4719 26.4 51.6C26.4 48.7281 24.0719 46.4 21.2 46.4C18.3281 46.4 16 48.7281 16 51.6ZM27.6 95.2C24.7281 95.2 22.4 92.8719 22.4 90C22.4 87.1281 24.7281 84.8 27.6 84.8C30.4719 84.8 32.8 87.1281 32.8 90C32.8 92.8719 30.4719 95.2 27.6 95.2ZM39.2 100.4C39.2 102.388 40.8118 104 42.8 104C44.7883 104 46.4 102.388 46.4 100.4C46.4 98.4118 44.7883 96.8 42.8 96.8C40.8118 96.8 39.2 98.4118 39.2 100.4ZM44 109.6C42.6746 109.6 41.6 108.525 41.6 107.2C41.6 105.875 42.6746 104.8 44 104.8C45.3255 104.8 46.4 105.875 46.4 107.2C46.4 108.525 45.3255 109.6 44 109.6ZM41.6 113.2C41.6 114.305 42.4954 115.2 43.6 115.2C44.7045 115.2 45.6 114.305 45.6 113.2C45.6 112.095 44.7045 111.2 43.6 111.2C42.4954 111.2 41.6 112.095 41.6 113.2ZM37.6 108C36.2745 108 35.2 106.925 35.2 105.6C35.2 104.275 36.2745 103.2 37.6 103.2C38.9255 103.2 40 104.275 40 105.6C40 106.925 38.9255 108 37.6 108ZM36.8 111.2C36.8 112.084 37.5164 112.8 38.4 112.8C39.2836 112.8 40 112.084 40 111.2C40 110.316 39.2836 109.6 38.4 109.6C37.5164 109.6 36.8 110.316 36.8 111.2ZM80.8 114.4C79.9164 114.4 79.2 113.684 79.2 112.8C79.2 111.916 79.9164 111.2 80.8 111.2C81.6837 111.2 82.4 111.916 82.4 112.8C82.4 113.684 81.6837 114.4 80.8 114.4ZM72 103.6C72 104.705 72.8954 105.6 74 105.6C75.1046 105.6 76 104.705 76 103.6C76 102.495 75.1046 101.6 74 101.6C72.8954 101.6 72 102.495 72 103.6ZM64.4 120.8C63.7372 120.8 63.2 120.263 63.2 119.6C63.2 118.937 63.7372 118.4 64.4 118.4C65.0627 118.4 65.6 118.937 65.6 119.6C65.6 120.263 65.0627 120.8 64.4 120.8ZM52.8 126.8C52.8 127.463 53.3373 128 54 128C54.6628 128 55.2 127.463 55.2 126.8C55.2 126.137 54.6628 125.6 54 125.6C53.3373 125.6 52.8 126.137 52.8 126.8ZM58.8 111.2C58.1373 111.2 57.6 110.663 57.6 110C57.6 109.337 58.1373 108.8 58.8 108.8C59.4628 108.8 60 109.337 60 110C60 110.663 59.4628 111.2 58.8 111.2ZM60 103.6C60 104.263 60.5373 104.8 61.2 104.8C61.8628 104.8 62.4 104.263 62.4 103.6C62.4 102.937 61.8628 102.4 61.2 102.4C60.5373 102.4 60 102.937 60 103.6ZM48.4 112.8C47.7372 112.8 47.2 112.263 47.2 111.6C47.2 110.937 47.7372 110.4 48.4 110.4C49.0627 110.4 49.6 110.937 49.6 111.6C49.6 112.263 49.0627 112.8 48.4 112.8ZM32.8 110.8C32.8 111.463 33.3373 112 34 112C34.6628 112 35.2 111.463 35.2 110.8C35.2 110.137 34.6628 109.6 34 109.6C33.3373 109.6 32.8 110.137 32.8 110.8ZM2.40002 90.4C1.95819 90.4 1.60004 90.0418 1.60004 89.6C1.60004 89.1582 1.95819 88.8 2.40002 88.8C2.84186 88.8 3.20001 89.1582 3.20001 89.6C3.20001 90.0418 2.84186 90.4 2.40002 90.4ZM3.20001 17.6C3.20001 18.0418 3.55817 18.4 4 18.4C4.44183 18.4 4.79999 18.0418 4.79999 17.6C4.79999 17.1582 4.44183 16.8 4 16.8C3.55817 16.8 3.20001 17.1582 3.20001 17.6ZM28 35.2C27.5582 35.2 27.2 34.8418 27.2 34.4C27.2 33.9582 27.5582 33.6 28 33.6C28.4418 33.6 28.8 33.9582 28.8 34.4C28.8 34.8418 28.4418 35.2 28 35.2ZM6.39996 90C6.39996 90.6627 6.93726 91.2 7.59998 91.2C8.26276 91.2 8.79999 90.6627 8.79999 90C8.79999 89.3373 8.26276 88.8 7.59998 88.8C6.93726 88.8 6.39996 89.3373 6.39996 90ZM16.8 72C16.3582 72 16 71.6418 16 71.2C16 70.7582 16.3582 70.4 16.8 70.4C17.2418 70.4 17.6 70.7582 17.6 71.2C17.6 71.6418 17.2418 72 16.8 72ZM8.79999 59.6C8.79999 60.2628 9.33728 60.8 10 60.8C10.6628 60.8 11.2 60.2628 11.2 59.6C11.2 58.9373 10.6628 58.4 10 58.4C9.33728 58.4 8.79999 58.9373 8.79999 59.6ZM22.8 36.8C22.1373 36.8 21.6 36.2628 21.6 35.6C21.6 34.9373 22.1373 34.4 22.8 34.4C23.4628 34.4 24 34.9373 24 35.6C24 36.2628 23.4628 36.8 22.8 36.8ZM30.4 25.2C30.4 25.8627 30.9373 26.4 31.6 26.4C32.2628 26.4 32.8 25.8627 32.8 25.2C32.8 24.5373 32.2628 24 31.6 24C30.9373 24 30.4 24.5373 30.4 25.2ZM34.8 121.6C34.1373 121.6 33.6 121.063 33.6 120.4C33.6 119.737 34.1373 119.2 34.8 119.2C35.4628 119.2 36 119.737 36 120.4C36 121.063 35.4628 121.6 34.8 121.6ZM84 98.8C84 99.9046 84.8954 100.8 86 100.8C87.1046 100.8 88 99.9046 88 98.8C88 97.6954 87.1046 96.8 86 96.8C84.8954 96.8 84 97.6954 84 98.8ZM93.2 100C90.7699 100 88.8 98.03 88.8 95.6C88.8 93.1699 90.7699 91.2 93.2 91.2C95.63 91.2 97.6 93.1699 97.6 95.6C97.6 98.03 95.63 100 93.2 100ZM88.8 114C88.8 115.105 89.6954 116 90.8 116C91.9045 116 92.8 115.105 92.8 114C92.8 112.895 91.9045 112 90.8 112C89.6954 112 88.8 112.895 88.8 114ZM117.6 108C116.275 108 115.2 106.925 115.2 105.6C115.2 104.275 116.275 103.2 117.6 103.2C118.925 103.2 120 104.275 120 105.6C120 106.925 118.925 108 117.6 108ZM120 100.4C120 101.063 120.537 101.6 121.2 101.6C121.863 101.6 122.4 101.063 122.4 100.4C122.4 99.7373 121.863 99.2 121.2 99.2C120.537 99.2 120 99.7373 120 100.4ZM101.6 90.4C98.5072 90.4 96 87.8928 96 84.8C96 81.7072 98.5072 79.2 101.6 79.2C104.693 79.2 107.2 81.7072 107.2 84.8C107.2 87.8928 104.693 90.4 101.6 90.4ZM109.6 71.2C109.6 72.0837 110.316 72.8 111.2 72.8C112.084 72.8 112.8 72.0837 112.8 71.2C112.8 70.3163 112.084 69.6 111.2 69.6C110.316 69.6 109.6 70.3163 109.6 71.2ZM74.8 25.6C71.9281 25.6 69.6 23.2719 69.6 20.4C69.6 17.5281 71.9281 15.2 74.8 15.2C77.6719 15.2 80 17.5281 80 20.4C80 23.2719 77.6719 25.6 74.8 25.6ZM70.4 11.2C70.4 12.5255 71.4745 13.6 72.8 13.6C74.1255 13.6 75.2 12.5255 75.2 11.2C75.2 9.87451 74.1255 8.8 72.8 8.8C71.4745 8.8 70.4 9.87451 70.4 11.2ZM67.6 16.8C66.9373 16.8 66.4 16.2627 66.4 15.6C66.4 14.9373 66.9373 14.4 67.6 14.4C68.2628 14.4 68.8 14.9373 68.8 15.6C68.8 16.2627 68.2628 16.8 67.6 16.8ZM62.4 20.8C62.4 22.1255 63.4745 23.2 64.8 23.2C66.1255 23.2 67.2 22.1255 67.2 20.8C67.2 19.4745 66.1255 18.4 64.8 18.4C63.4745 18.4 62.4 19.4745 62.4 20.8ZM61.2 18.4C59.2117 18.4 57.6 16.7882 57.6 14.8C57.6 12.8118 59.2117 11.2 61.2 11.2C63.1882 11.2 64.8 12.8118 64.8 14.8C64.8 16.7882 63.1882 18.4 61.2 18.4ZM39.2 27.6C39.2 29.1464 40.4536 30.4 42 30.4C43.5464 30.4 44.8 29.1464 44.8 27.6C44.8 26.0536 43.5464 24.8 42 24.8C40.4536 24.8 39.2 26.0536 39.2 27.6ZM44.4 22.4C43.2955 22.4 42.4 21.5046 42.4 20.4C42.4 19.2954 43.2955 18.4 44.4 18.4C45.5046 18.4 46.4 19.2954 46.4 20.4C46.4 21.5046 45.5046 22.4 44.4 22.4ZM34.4 24.8C34.4 25.6837 35.1163 26.4 36 26.4C36.8836 26.4 37.6 25.6837 37.6 24.8C37.6 23.9164 36.8836 23.2 36 23.2C35.1163 23.2 34.4 23.9164 34.4 24.8ZM27.2 14.4C26.3163 14.4 25.6 13.6837 25.6 12.8C25.6 11.9164 26.3163 11.2 27.2 11.2C28.0836 11.2 28.8 11.9164 28.8 12.8C28.8 13.6837 28.0836 14.4 27.2 14.4ZM22.4 27.2C22.4 28.0836 23.1163 28.8 24 28.8C24.8836 28.8 25.6 28.0836 25.6 27.2C25.6 26.3163 24.8836 25.6 24 25.6C23.1163 25.6 22.4 26.3163 22.4 27.2ZM27.2 44C25.4327 44 24 42.5673 24 40.8C24 39.0327 25.4327 37.6 27.2 37.6C28.9673 37.6 30.4 39.0327 30.4 40.8C30.4 42.5673 28.9673 44 27.2 44ZM16.8 40C16.8 41.3255 17.8745 42.4 19.2 42.4C20.5255 42.4 21.6 41.3255 21.6 40C21.6 38.6745 20.5255 37.6 19.2 37.6C17.8745 37.6 16.8 38.6745 16.8 40ZM13.6 41.6C12.2745 41.6 11.2 40.5255 11.2 39.2C11.2 37.8745 12.2745 36.8 13.6 36.8C14.9255 36.8 16 37.8745 16 39.2C16 40.5255 14.9255 41.6 13.6 41.6ZM9.59998 45.6C9.59998 47.3673 11.0327 48.8 12.8 48.8C14.5673 48.8 16 47.3673 16 45.6C16 43.8327 14.5673 42.4 12.8 42.4C11.0327 42.4 9.59998 43.8327 9.59998 45.6ZM10.8 56.8C8.81183 56.8 7.20001 55.1882 7.20001 53.2C7.20001 51.2118 8.81183 49.6 10.8 49.6C12.7883 49.6 14.4 51.2118 14.4 53.2C14.4 55.1882 12.7883 56.8 10.8 56.8ZM13.6 65.6C13.6 66.9255 14.6746 68 16 68C17.3255 68 18.4 66.9255 18.4 65.6C18.4 64.2745 17.3255 63.2 16 63.2C14.6746 63.2 13.6 64.2745 13.6 65.6ZM21.6 64C20.2745 64 19.2 62.9255 19.2 61.6C19.2 60.2745 20.2745 59.2 21.6 59.2C22.9255 59.2 24 60.2745 24 61.6C24 62.9255 22.9255 64 21.6 64ZM13.6 58.8C13.6 59.9046 14.4954 60.8 15.6 60.8C16.7045 60.8 17.6 59.9046 17.6 58.8C17.6 57.6954 16.7045 56.8 15.6 56.8C14.4954 56.8 13.6 57.6954 13.6 58.8ZM22 72C20.4536 72 19.2 70.7464 19.2 69.2C19.2 67.6536 20.4536 66.4 22 66.4C23.5464 66.4 24.8 67.6536 24.8 69.2C24.8 70.7464 23.5464 72 22 72ZM19.2 79.2C19.2 81.4091 20.9908 83.2 23.2 83.2C25.4092 83.2 27.2 81.4091 27.2 79.2C27.2 76.9909 25.4092 75.2 23.2 75.2C20.9908 75.2 19.2 76.9909 19.2 79.2ZM16.4 82.4C15.2955 82.4 14.4 81.5046 14.4 80.4C14.4 79.2954 15.2955 78.4 16.4 78.4C17.5046 78.4 18.4 79.2954 18.4 80.4C18.4 81.5046 17.5046 82.4 16.4 82.4ZM7.20001 86.8C7.20001 87.9046 8.09546 88.8 9.20001 88.8C10.3046 88.8 11.2 87.9046 11.2 86.8C11.2 85.6954 10.3046 84.8 9.20001 84.8C8.09546 84.8 7.20001 85.6954 7.20001 86.8ZM28.4 108.8C27.2955 108.8 26.4 107.905 26.4 106.8C26.4 105.695 27.2955 104.8 28.4 104.8C29.5046 104.8 30.4 105.695 30.4 106.8C30.4 107.905 29.5046 108.8 28.4 108.8ZM15.2 86C15.2 87.5464 16.4536 88.8 18 88.8C19.5464 88.8 20.8 87.5464 20.8 86C20.8 84.4536 19.5464 83.2 18 83.2C16.4536 83.2 15.2 84.4536 15.2 86ZM6.40002 59.2C5.51636 59.2 4.79999 58.4837 4.79999 57.6C4.79999 56.7163 5.51636 56 6.40002 56C7.28363 56 8 56.7163 8 57.6C8 58.4837 7.28363 59.2 6.40002 59.2ZM0 45.6C0 46.9255 1.07452 48 2.39996 48C3.72546 48 4.79999 46.9255 4.79999 45.6C4.79999 44.2745 3.72546 43.2 2.39996 43.2C1.07452 43.2 0 44.2745 0 45.6ZM56.8 8.8C55.4745 8.8 54.4 7.72549 54.4 6.4C54.4 5.07452 55.4745 4 56.8 4C58.1255 4 59.2 5.07452 59.2 6.4C59.2 7.72549 58.1255 8.8 56.8 8.8ZM55.2 22C55.2 23.5464 56.4536 24.8 58 24.8C59.5464 24.8 60.8 23.5464 60.8 22C60.8 20.4536 59.5464 19.2 58 19.2C56.4536 19.2 55.2 20.4536 55.2 22ZM54 18.4C52.8954 18.4 52 17.5046 52 16.4C52 15.2954 52.8954 14.4 54 14.4C55.1046 14.4 56 15.2954 56 16.4C56 17.5046 55.1046 18.4 54 18.4ZM53.6 11.6C53.6 12.2627 54.1373 12.8 54.8 12.8C55.4628 12.8 56 12.2627 56 11.6C56 10.9373 55.4628 10.4 54.8 10.4C54.1373 10.4 53.6 10.9373 53.6 11.6ZM90.4 21.6C89.5164 21.6 88.8 20.8837 88.8 20C88.8 19.1163 89.5164 18.4 90.4 18.4C91.2836 18.4 92 19.1163 92 20C92 20.8837 91.2836 21.6 90.4 21.6ZM100.8 32C100.8 33.3255 101.875 34.4 103.2 34.4C104.525 34.4 105.6 33.3255 105.6 32C105.6 30.6745 104.525 29.6 103.2 29.6C101.875 29.6 100.8 30.6745 100.8 32ZM109.6 32.8C108.716 32.8 108 32.0836 108 31.2C108 30.3163 108.716 29.6 109.6 29.6C110.484 29.6 111.2 30.3163 111.2 31.2C111.2 32.0836 110.484 32.8 109.6 32.8ZM105.6 37.2C105.6 38.7464 106.854 40 108.4 40C109.946 40 111.2 38.7464 111.2 37.2C111.2 35.6536 109.946 34.4 108.4 34.4C106.854 34.4 105.6 35.6536 105.6 37.2ZM115.2 41.6C113.875 41.6 112.8 40.5255 112.8 39.2C112.8 37.8745 113.875 36.8 115.2 36.8C116.525 36.8 117.6 37.8745 117.6 39.2C117.6 40.5255 116.525 41.6 115.2 41.6ZM116.8 50C116.8 51.1046 117.695 52 118.8 52C119.905 52 120.8 51.1046 120.8 50C120.8 48.8954 119.905 48 118.8 48C117.695 48 116.8 48.8954 116.8 50ZM125.2 58.4C124.537 58.4 124 57.8627 124 57.2C124 56.5373 124.537 56 125.2 56C125.863 56 126.4 56.5373 126.4 57.2C126.4 57.8627 125.863 58.4 125.2 58.4Z" fill="#99C9FF"/>
<path fill-rule="evenodd" clip-rule="evenodd" d="M95.5 88C95.5 88 100 89 100 84C92.64 84 96.64 71.088 96.64 64C96.64 45.9734 82.0266 31.36 64 31.36C45.9734 31.36 31.36 45.9734 31.36 64C31.36 67.5785 34.36 84 29 84C29 89 32 88 32 88H95.5Z" fill="url(#paint0_linear)"/>
<path fill-rule="evenodd" clip-rule="evenodd" d="M84.9368 49.6703C87.7981 53.7369 89.4751 58.675 89.4751 64C89.4751 69.325 87.7981 74.2636 84.9368 78.3298L78.3298 71.8124C79.6273 69.4966 80.3658 66.8331 80.3658 64C80.3658 61.167 79.6273 58.504 78.3298 56.1881L84.9368 49.6703Z" fill="white" fill-opacity="0.48"/>
<path fill-rule="evenodd" clip-rule="evenodd" d="M78.3298 43.0576L71.76 49.6565C69.4256 48.3606 66.7414 47.623 63.8858 47.623C54.8818 47.623 47.5822 54.9554 47.5822 64C47.5822 73.0446 54.8818 80.3771 63.8858 80.3771C66.7414 80.3771 69.4256 79.6394 71.76 78.3435L78.3298 84.9424C74.2307 87.8002 69.2532 89.4751 63.8858 89.4751C49.8795 89.4751 38.5249 78.0694 38.5249 64C38.5249 49.9306 49.8795 38.5249 63.8858 38.5249C69.2532 38.5249 74.2307 40.1998 78.3298 43.0576Z" fill="white"/>
<path d="M4 87.1111C4 86.0199 4 85.4742 4.2109 85.0521C4.39624 84.6812 4.69352 84.376 5.05948 84.181C5.4759 83.9591 6.01474 83.945 7.09244 83.9167C16.25 83.6767 43.8466 83 64 83C84.1534 83 111.75 83.6767 120.908 83.9167C121.985 83.945 122.524 83.9591 122.941 84.181C123.306 84.376 123.604 84.6812 123.789 85.0521C124 85.4742 124 86.0199 124 87.1111V98.3969C124 100.704 124 101.858 123.549 102.725C123.152 103.49 122.524 104.101 121.749 104.478C120.87 104.905 119.716 104.874 117.408 104.813C106.59 104.523 84.2492 104 64 104C43.7508 104 21.4096 104.523 10.5925 104.813C8.28421 104.874 7.13007 104.905 6.25112 104.478C5.47605 104.101 4.84807 103.49 4.45067 102.725C4 101.858 4 100.704 4 98.3969V87.1111Z" fill="#3385FF"/>
<path d="M15.2748 94.7116C16.8728 94.7116 17.5663 93.8583 17.5663 92.5863C17.5663 91.3335 16.9016 90.4545 15.2716 90.4545H12.849V97H14.1114V94.7116H15.2748ZM14.1114 91.5156H15.2716C16.045 91.5156 16.3167 91.9822 16.3167 92.5863C16.3167 93.1903 16.045 93.6634 15.2748 93.6634H14.1114V91.5156ZM23.016 95.9389H20.2419V90.4545H18.9795V97H23.016V95.9389ZM28.6607 95.9389H25.6692V94.2546H28.2356V93.1967H25.6692V91.5156H28.6447V90.4545H24.4068V97H28.6607V95.9389ZM32.3454 97C34.2886 97 35.4552 95.7695 35.4552 93.7241C35.4552 91.6818 34.2886 90.4545 32.3742 90.4545H30.1242V97H32.3454ZM32.3039 91.5476C33.5439 91.5476 34.1927 92.2411 34.1927 93.7241C34.1927 95.207 33.5439 95.907 32.2847 95.907H31.3866V91.5476H32.3039ZM42.244 93.5803H39.6456V94.5423H41.0167C41.0167 95.402 40.3807 95.9485 39.5466 95.9485C38.6197 95.9485 37.9102 95.2805 37.9102 93.7369C37.9102 92.1932 38.6101 91.506 39.5114 91.506C40.1474 91.506 40.7067 91.8448 40.9368 92.5767L42.212 92.4393C41.8093 91.1065 40.7802 90.3651 39.5114 90.3651C37.8718 90.3651 36.6478 91.6051 36.6478 93.7369C36.6478 95.859 37.8814 97.0895 39.5466 97.0895C41.0487 97.0895 42.244 96.0827 42.244 94.5423V93.5803ZM47.9222 95.9389H44.9308V94.2546H47.4972V93.1967H44.9308V91.5156H47.9063V90.4545H43.6683V97H47.9222V95.9389ZM51.607 97C53.5501 97 54.7167 95.7695 54.7167 93.7241C54.7167 91.6818 53.5501 90.4545 51.6357 90.4545H49.3857V97H51.607ZM51.5654 91.5476C52.8055 91.5476 53.4543 92.2411 53.4543 93.7241C53.4543 95.207 52.8055 95.907 51.5462 95.907H50.6481V91.5476H51.5654ZM64.4416 92.5096C64.122 91.1417 63.0577 90.3651 61.7473 90.3651C60.0822 90.3651 58.8581 91.6211 58.8581 93.7369C58.8581 95.843 60.0822 97.0895 61.7473 97.0895C63.0577 97.0895 64.1124 96.3224 64.4352 94.9705L63.1983 94.8331C63.0066 95.5746 62.4441 95.9485 61.7473 95.9485C60.8045 95.9485 60.1206 95.2614 60.1206 93.7369C60.1206 92.2092 60.8045 91.506 61.7473 91.506C62.4441 91.506 63.0225 91.8864 63.2143 92.647L64.4416 92.5096ZM71.3575 93.7369C71.3575 91.6051 70.1238 90.3651 68.4842 90.3651C66.8383 90.3651 65.595 91.6051 65.595 93.7369C65.595 95.859 66.8383 97.0895 68.4842 97.0895C70.1238 97.0895 71.3575 95.859 71.3575 93.7369ZM70.095 93.7369C70.095 95.2805 69.4143 95.9485 68.4842 95.9485C67.5574 95.9485 66.8575 95.2805 66.8575 93.7369C66.8575 92.1932 67.5574 91.506 68.4842 91.506C69.4143 91.506 70.095 92.1932 70.095 93.7369ZM76.7225 95.9389H73.9483V90.4545H72.6859V97H76.7225V95.9389ZM82.1498 95.9389H79.3757V90.4545H78.1133V97H82.1498V95.9389ZM87.7945 95.9389H84.803V94.2546H87.3694V93.1967H84.803V91.5156H87.7785V90.4545H83.5406V97H87.7945V95.9389ZM94.3644 92.5096C94.0448 91.1417 92.9806 90.3651 91.6702 90.3651C90.0051 90.3651 88.781 91.6211 88.781 93.7369C88.781 95.843 90.0051 97.0895 91.6702 97.0895C92.9806 97.0895 94.0352 96.3224 94.358 94.9705L93.1212 94.8331C92.9294 95.5746 92.3669 95.9485 91.6702 95.9485C90.7274 95.9485 90.0434 95.2614 90.0434 93.7369C90.0434 92.2092 90.7274 91.506 91.6702 91.506C92.3669 91.506 92.9454 91.8864 93.1372 92.647L94.3644 92.5096ZM100.489 90.4545H95.3117V91.5156H97.2741V97H98.5269V91.5156H100.489V90.4545ZM103.027 90.4545H101.765V97H103.027V90.4545ZM105.562 90.4545H104.236L106.649 97H107.988L110.401 90.4545H109.075L107.359 95.4084H107.282L105.562 90.4545ZM115.819 95.9389H112.827V94.2546H115.394V93.1967H112.827V91.5156H115.803V90.4545H111.565V97H115.819V95.9389Z" fill="white"/>
<defs>
<linearGradient id="paint0_linear" x1="64" y1="117" x2="82.6311" y2="35.2459" gradientUnits="userSpaceOnUse">
<stop stop-color="#145ECC"/>
<stop offset="1" stop-color="#3385FF"/>
</linearGradient>
</defs>
</svg>
