<?xml version="1.0" encoding="UTF-8" standalone="no"?>
<svg width="1280px" height="560px" viewBox="0 0 1280 560" version="1.1" xmlns="http://www.w3.org/2000/svg" xmlns:xlink="http://www.w3.org/1999/xlink">
    <!-- Generator: sketchtool 39.1 (31720) - http://www.bohemiancoding.com/sketch -->
    <title>0E371FB1-03A5-4E07-B02A-DDDB34EE728F</title>
    <desc>Created with sketchtool.</desc>
    <defs>
        <linearGradient x1="50%" y1="0%" x2="50%" y2="100%" id="linearGradient-1">
            <stop stop-color="#09062F" offset="0%"></stop>
            <stop stop-color="#116CA2" offset="100%"></stop>
        </linearGradient>
        <rect id="path-2" x="0" y="-1.42108547e-14" width="1280" height="560"></rect>
        <linearGradient x1="8.32481069%" y1="11.9132206%" x2="63.8631006%" y2="68.8306484%" id="linearGradient-4">
            <stop stop-color="#52001E" offset="0%"></stop>
            <stop stop-color="#52001E" offset="0%"></stop>
            <stop stop-color="#52001E" offset="0%"></stop>
            <stop stop-color="#52001E" offset="1.16281711%"></stop>
            <stop stop-color="#52001E" offset="1.16281711%"></stop>
            <stop stop-color="#24020F" offset="100%"></stop>
        </linearGradient>
    </defs>
    <g id="home" stroke="none" stroke-width="1" fill="none" fill-rule="evenodd">
        <g id="discover" transform="translate(0.000000, -66.000000)">
            <g id="::-bg" transform="translate(0.000000, 66.000000)">
                <mask id="mask-3" fill="white">
                    <use xlink:href="#path-2"></use>
                </mask>
                <use id="Mask" fill="url(#linearGradient-1)" xlink:href="#path-2"></use>
                <g id="Page-1" mask="url(#mask-3)">
                    <g transform="translate(938.000000, 320.000000)">
                        <path d="M280.802927,0 C283.680924,0 286.413134,2.03813683 288.264323,5.5700112 C320.205476,66.4822422 443.800974,302.185289 443.800974,302.185289 L117.80488,302.185289 C117.80488,302.185289 241.400379,66.4822422 273.341531,5.5700112 C275.192721,2.03813683 277.923881,0 280.802927,0 Z" id="Fill-1" fill="#070707"></path>
                        <path d="M281.504877,2.55795385e-13 C285.749018,2.75390625 287.115084,2.03813683 288.966274,5.5700112 C320.907426,66.4822422 458.800974,332.185289 458.800974,332.185289 L132.80488,332.185289 C132.80488,332.185289 299.999018,150.253913 281.504877,2.55795385e-13 Z" id="Fill-1" fill="url(#linearGradient-4)"></path>
                        <path d="M143.798251,105.987847 C145.328297,103.073224 147.752427,101.35284 150.329232,101.35284 C152.906037,101.35284 155.330167,103.073224 156.860213,105.987847 C185.691651,160.915152 300.158464,378.990392 300.158464,378.990392 L0.5,378.990392 C0.5,378.990392 114.966814,160.915152 143.798251,105.987847 L143.798251,105.987847 Z" id="Fill-3" fill="#070707"></path>
                    </g>
                </g>
                <g id="montaña" mask="url(#mask-3)">
                    <g transform="translate(-87.000000, 398.000000)">
                        <path d="M144.859,3.69 C145.995,3.69 146.918,4.629 146.918,5.785 C146.918,6.941 145.995,7.88 144.859,7.88 C143.722,7.88 142.8,6.941 142.8,5.785 C142.8,4.629 143.722,3.69 144.859,3.69 L144.859,3.69 Z" id="Fill-1" stroke="none" fill-opacity="0.2" fill="#FFFFFF" fill-rule="evenodd"></path>
                        <path d="M144.859,3.69 C145.995,3.69 146.918,4.629 146.918,5.785 C146.918,6.941 145.995,7.88 144.859,7.88 C143.722,7.88 142.8,6.941 142.8,5.785 C142.8,4.629 143.722,3.69 144.859,3.69 L144.859,3.69 Z" id="Fill-2" stroke="none" fill-opacity="0.2" fill="#FFFFFF" fill-rule="evenodd"></path>
                        <path d="M222.096,39.437 C223.233,39.437 224.155,40.376 224.155,41.532 C224.155,42.688 223.233,43.627 222.096,43.627 C220.96,43.627 220.038,42.688 220.038,41.532 C220.038,40.376 220.96,39.437 222.096,39.437 L222.096,39.437 Z" id="Fill-3" stroke="none" fill-opacity="0.2" fill="#FFFFFF" fill-rule="evenodd"></path>
                        <path d="M222.096,39.437 C223.233,39.437 224.155,40.376 224.155,41.532 C224.155,42.688 223.233,43.627 222.096,43.627 C220.96,43.627 220.038,42.688 220.038,41.532 C220.038,40.376 220.96,39.437 222.096,39.437 L222.096,39.437 Z" id="Fill-4" stroke="none" fill-opacity="0.2" fill="#FFFFFF" fill-rule="evenodd"></path>
                        <path d="M317.452,111.803 C318.589,111.803 319.511,112.742 319.511,113.898 C319.511,115.055 318.589,115.993 317.452,115.993 C316.316,115.993 315.394,115.055 315.394,113.898 C315.394,112.742 316.316,111.803 317.452,111.803 L317.452,111.803 Z" id="Fill-5" stroke="none" fill-opacity="0.2" fill="#FFFFFF" fill-rule="evenodd"></path>
                        <path d="M239.088,40.14 C239.613,40.14 240.039,40.574 240.039,41.108 C240.039,41.642 239.613,42.076 239.088,42.076 C238.563,42.076 238.137,41.642 238.137,41.108 C238.137,40.574 238.563,40.14 239.088,40.14 L239.088,40.14 Z" id="Fill-6" stroke="none" fill-opacity="0.2" fill="#FFFFFF" fill-rule="evenodd"></path>
                        <path d="M239.088,40.14 C239.613,40.14 240.039,40.574 240.039,41.108 C240.039,41.642 239.613,42.076 239.088,42.076 C238.563,42.076 238.137,41.642 238.137,41.108 C238.137,40.574 238.563,40.14 239.088,40.14 L239.088,40.14 Z" id="Fill-7" stroke="none" fill-opacity="0.2" fill="#FFFFFF" fill-rule="evenodd"></path>
                        <path d="M154.104,79.706 C153.579,79.706 153.153,79.272 153.153,78.738 C153.153,78.204 153.579,77.77 154.104,77.77 C154.629,77.77 155.055,78.204 155.055,78.738 C155.055,79.272 154.629,79.706 154.104,79.706 L154.104,79.706 Z" id="Fill-8" stroke="none" fill-opacity="0.2" fill="#FFFFFF" fill-rule="evenodd"></path>
                        <path d="M308.074,13.1 C309.211,13.1 310.133,14.039 310.133,15.196 C310.133,16.352 309.211,17.291 308.074,17.291 C306.938,17.291 306.016,16.352 306.016,15.196 C306.016,14.039 306.938,13.1 308.074,13.1 L308.074,13.1 Z" id="Fill-9" stroke="none" fill-opacity="0.2" fill="#FFFFFF" fill-rule="evenodd"></path>
                        <path d="M507.015634,262 C507.015634,374.618496 182.744153,222 54.9960938,222 C-72.7525176,222 49.3210818,27 177.069693,27 C304.817753,27 507.015634,149.380023 507.015634,262 Z" id="Fill-10" stroke="none" fill="#070002" fill-rule="evenodd"></path>
                        <path d="M198.441,18.594 L204.821,31.497" id="Stroke-11" stroke="#52001E" stroke-width="1" stroke-linecap="round" stroke-linejoin="round" fill="none"></path>
                        <path d="M198.441,18.594 L197.994,28.867" id="Stroke-12" stroke="#52001E" stroke-width="1" stroke-linecap="round" stroke-linejoin="round" fill="none"></path>
                        <path d="M192.061,31.497 L198.441,18.594" id="Stroke-13" stroke="#52001E" stroke-width="1" stroke-linecap="round" stroke-linejoin="round" fill="none"></path>
                        <path d="M211.68,4.688 L211.308,3.528 L215.21,2.275 L215.53,3.273 L215.673,3.22 C215.673,3.22 215.498,2.676 215.333,2.16 C215.255,1.92 215.277,1.658 215.392,1.434 C215.508,1.209 215.708,1.039 215.948,0.962 C216.412,0.813 216.988,0.628 217.51,0.461 C218.302,0.207 219.15,0.642 219.404,1.434 C220.308,4.252 222.307,10.478 223.203,13.268 C223.452,14.042 223.026,14.871 222.252,15.119 C221.73,15.287 221.151,15.473 220.682,15.623 C220.435,15.703 220.167,15.68 219.936,15.562 C219.705,15.443 219.531,15.238 219.452,14.991 C219.292,14.492 219.127,13.979 219.127,13.979 L218.981,14.022 L219.293,14.993 L215.391,16.246 L215.045,15.167 L185.754,23.684 C184.831,23.98 183.96,23.841 183.81,23.374 L183.196,21.461 C183.196,21.461 181.117,22.128 180.281,22.397 C180.092,22.457 179.987,22.66 180.048,22.85 C180.048,22.85 180.048,22.851 180.049,22.851 C180.148,23.16 179.978,23.49 179.669,23.589 C179.43,23.666 179.146,23.757 178.888,23.84 C178.688,23.905 178.47,23.887 178.283,23.79 C178.096,23.694 177.954,23.527 177.89,23.327 C177.571,22.332 177.013,20.594 176.693,19.6 C176.629,19.399 176.647,19.181 176.743,18.994 C176.839,18.807 177.006,18.666 177.206,18.601 C177.464,18.518 177.748,18.427 177.987,18.351 C178.296,18.251 178.626,18.421 178.726,18.73 L178.726,18.732 C178.787,18.921 178.99,19.025 179.179,18.964 C180.015,18.696 182.094,18.028 182.094,18.028 L181.635,16.598 C181.484,16.13 182.112,15.51 183.035,15.214 L211.68,4.688 Z" id="Fill-14" stroke="none" fill="#52001E" fill-rule="evenodd"></path>
                    </g>
                </g>
                <g id="estrellas" mask="url(#mask-3)" fill="#FFFFFF">
                    <g transform="translate(24.000000, 46.000000)">
                        <path d="M2.0588,40.136 C3.1951,40.136 4.1176,41.075 4.1176,42.231 C4.1176,43.387 3.1951,44.326 2.0588,44.326 C0.9225,44.326 0,43.387 0,42.231 C0,41.075 0.9225,40.136 2.0588,40.136 L2.0588,40.136 Z" id="Fill-1" fill-opacity="0.5"></path>
                        <path d="M375.392,289.136 C376.528,289.136 377.451,290.075 377.451,291.231 C377.451,292.387 376.528,293.326 375.392,293.326 C374.256,293.326 373.333,292.387 373.333,291.231 C373.333,290.075 374.256,289.136 375.392,289.136 L375.392,289.136 Z" id="Fill-2" fill-opacity="0.2"></path>
                        <path d="M410.182,455.5937 C411.318,455.5937 412.241,456.5325 412.241,457.6889 C412.241,458.8452 411.318,459.784 410.182,459.784 C409.046,459.784 408.123,458.8452 408.123,457.6889 C408.123,456.5325 409.046,455.5937 410.182,455.5937 L410.182,455.5937 Z" id="Fill-4" fill-opacity="0.2"></path>
                        <path d="M673.333,277.534 C672.808,277.534 672.382,277.1 672.382,276.566 C672.382,276.032 672.808,275.598 673.333,275.598 C673.858,275.598 674.284,276.032 674.284,276.566 C674.284,277.1 673.858,277.534 673.333,277.534 L673.333,277.534 Z" id="Fill-5" fill-opacity="0.2"></path>
                        <path d="M279.283,411.2507 C279.808,411.2507 280.234,411.6844 280.234,412.2186 C280.234,412.7529 279.808,413.1866 279.283,413.1866 C278.758,413.1866 278.332,412.7529 278.332,412.2186 C278.332,411.6844 278.758,411.2507 279.283,411.2507 L279.283,411.2507 Z" id="Fill-6" fill-opacity="0.2"></path>
                        <path d="M706.47,28.534 C705.945,28.534 705.519,28.1 705.519,27.566 C705.519,27.032 705.945,26.598 706.47,26.598 C706.995,26.598 707.421,27.032 707.421,27.566 C707.421,28.1 706.995,28.534 706.47,28.534 L706.47,28.534 Z" id="Fill-7" fill-opacity="0.5"></path>
                        <path d="M502.807,76.586 C503.359,76.586 503.807,77.034 503.807,77.586 C503.807,78.138 503.359,78.586 502.807,78.586 C502.255,78.586 501.807,78.138 501.807,77.586 C501.807,77.034 502.255,76.586 502.807,76.586 L502.807,76.586 Z" id="Fill-8" fill-opacity="0.5"></path>
                        <path d="M876.092,325.586 C876.617,325.586 877.043,326.02 877.043,326.554 C877.043,327.089 876.617,327.522 876.092,327.522 C875.567,327.522 875.141,327.089 875.141,326.554 C875.141,326.02 875.567,325.586 876.092,325.586 L876.092,325.586 Z" id="Fill-9" fill-opacity="0.2"></path>
                        <path d="M751.613,114.198 C751.061,114.198 750.613,113.75 750.613,113.198 C750.613,112.646 751.061,112.198 751.613,112.198 C752.164,112.198 752.613,112.646 752.613,113.198 C752.613,113.75 752.164,114.198 751.613,114.198 L751.613,114.198 Z" id="Fill-10"></path>
                        <path d="M1209.98,16.288 C1210.5,16.288 1210.93,16.722 1210.93,17.256 C1210.93,17.79 1210.5,18.224 1209.98,18.224 C1209.45,18.224 1209.03,17.79 1209.03,17.256 C1209.03,16.722 1209.45,16.288 1209.98,16.288 L1209.98,16.288 Z" id="Fill-11"></path>
                        <path d="M1056.07,82.893 C1054.96,82.893 1054.07,81.997 1054.07,80.893 C1054.07,79.79 1054.96,78.893 1056.07,78.893 C1057.17,78.893 1058.07,79.79 1058.07,80.893 C1058.07,81.997 1057.17,82.893 1056.07,82.893 L1056.07,82.893 Z" id="Fill-12" fill-opacity="0.5"></path>
                        <path d="M495.708,0 C496.812,0 497.708,0.897 497.708,2 C497.708,3.104 496.812,4 495.708,4 C494.604,4 493.708,3.104 493.708,2 C493.708,0.897 494.604,0 495.708,0 L495.708,0 Z" id="Fill-13"></path>
                        <path d="M46.7896,226.594 C47.8935,226.594 48.7896,227.49 48.7896,228.594 C48.7896,229.698 47.8935,230.594 46.7896,230.594 C45.6858,230.594 44.7896,229.698 44.7896,228.594 C44.7896,227.49 45.6858,226.594 46.7896,226.594 L46.7896,226.594 Z" id="Fill-14"></path>
                        <path d="M821.101,4.191 C819.965,4.191 819.042,3.252 819.042,2.096 C819.042,0.939 819.965,0 821.101,0 C822.237,0 823.16,0.939 823.16,2.096 C823.16,3.252 822.237,4.191 821.101,4.191 L821.101,4.191 Z" id="Fill-15" fill-opacity="0.5"></path>
                        <path d="M952,48.534 C951.475,48.534 951.048,48.1 951.048,47.566 C951.048,47.032 951.475,46.598 952,46.598 C952.525,46.598 952.951,47.032 952.951,47.566 C952.951,48.1 952.525,48.534 952,48.534 L952,48.534 Z" id="Fill-16"></path>
                        <path d="M479.621,345.586 C480.146,345.586 480.572,346.02 480.572,346.554 C480.572,347.089 480.146,347.522 479.621,347.522 C479.096,347.522 478.67,347.089 478.67,346.554 C478.67,346.02 479.096,345.586 479.621,345.586 L479.621,345.586 Z" id="Fill-17" fill-opacity="0.2"></path>
                        <path d="M394.637,385.1519 C394.112,385.1519 393.686,384.7182 393.686,384.1839 C393.686,383.6497 394.112,383.216 394.637,383.216 C395.162,383.216 395.589,383.6497 395.589,384.1839 C395.589,384.7182 395.162,385.1519 394.637,385.1519 L394.637,385.1519 Z" id="Fill-18" fill-opacity="0.2"></path>
                        <path d="M582.663,114.163 C583.766,114.163 584.663,115.059 584.663,116.163 C584.663,117.266 583.766,118.163 582.663,118.163 C581.559,118.163 580.663,117.266 580.663,116.163 C580.663,115.059 581.559,114.163 582.663,114.163 L582.663,114.163 Z" id="Fill-19"></path>
                        <path d="M791.863,309.136 C792.999,309.136 793.922,310.075 793.922,311.231 C793.922,312.387 792.999,313.326 791.863,313.326 C790.726,313.326 789.804,312.387 789.804,311.231 C789.804,310.075 790.726,309.136 791.863,309.136 L791.863,309.136 Z" id="Fill-21" fill-opacity="0.2"></path>
                        <path d="M1091.48,170.648 C1090.37,170.648 1089.48,169.752 1089.48,168.648 C1089.48,167.545 1090.37,166.648 1091.48,166.648 C1092.58,166.648 1093.48,167.545 1093.48,168.648 C1093.48,169.752 1092.58,170.648 1091.48,170.648 L1091.48,170.648 Z" id="Fill-22"></path>
                        <path d="M149.863,309.136 C150.999,309.136 151.922,310.075 151.922,311.231 C151.922,312.387 150.999,313.326 149.863,313.326 C148.726,313.326 147.804,312.387 147.804,311.231 C147.804,310.075 148.726,309.136 149.863,309.136 L149.863,309.136 Z" id="Fill-23" fill-opacity="0.2"></path>
                        <path d="M1229.22,112.304 C1228.09,112.304 1227.16,111.365 1227.16,110.209 C1227.16,109.052 1228.09,108.114 1229.22,108.114 C1230.36,108.114 1231.28,109.052 1231.28,110.209 C1231.28,111.365 1230.36,112.304 1229.22,112.304 L1229.22,112.304 Z" id="Fill-24" fill-opacity="0.5"></path>
                        <path d="M385.392,309.136 C386.528,309.136 387.451,310.075 387.451,311.231 C387.451,312.387 386.528,313.326 385.392,313.326 C384.256,313.326 383.333,312.387 383.333,311.231 C383.333,310.075 384.256,309.136 385.392,309.136 L385.392,309.136 Z" id="Fill-25" fill-opacity="0.2"></path>
                        <path d="M1229.28,112.304 C1228.18,112.304 1227.28,111.408 1227.28,110.304 C1227.28,109.2 1228.18,108.304 1229.28,108.304 C1230.39,108.304 1231.28,109.2 1231.28,110.304 C1231.28,111.408 1230.39,112.304 1229.28,112.304 L1229.28,112.304 Z" id="Fill-26"></path>
                        <path d="M89.2377,0 C90.3415,0 91.2377,0.897 91.2377,2 C91.2377,3.104 90.3415,4 89.2377,4 C88.1338,4 87.2377,3.104 87.2377,2 C87.2377,0.897 88.1338,0 89.2377,0 L89.2377,0 Z" id="Fill-27"></path>
                        <path d="M745.516,479.784 C744.379,479.784 743.457,478.8452 743.457,477.6889 C743.457,476.5325 744.379,475.5937 745.516,475.5937 C746.652,475.5937 747.574,476.5325 747.574,477.6889 C747.574,478.8452 746.652,479.784 745.516,479.784 L745.516,479.784 Z" id="Fill-29" fill-opacity="0.2"></path>
                        <path d="M372.182,230.784 C371.046,230.784 370.123,229.845 370.123,228.689 C370.123,227.533 371.046,226.594 372.182,226.594 C373.319,226.594 374.241,227.533 374.241,228.689 C374.241,229.845 373.319,230.784 372.182,230.784 L372.182,230.784 Z" id="Fill-30" fill-opacity="0.5"></path>
                        <path d="M869.042,249 C870.145,249 871.042,249.897 871.042,251 C871.042,252.104 870.145,253 869.042,253 C867.938,253 867.042,252.104 867.042,251 C867.042,249.897 867.938,249 869.042,249 L869.042,249 Z" id="Fill-31" fill-opacity="0.2"></path>
                        <path d="M1151.99,172.439 C1150.85,172.439 1149.93,171.501 1149.93,170.344 C1149.93,169.188 1150.85,168.249 1151.99,168.249 C1153.12,168.249 1154.04,169.188 1154.04,170.344 C1154.04,171.501 1153.12,172.439 1151.99,172.439 L1151.99,172.439 Z" id="Fill-33"></path>
                        <path d="M1152.04,172.439 C1150.94,172.439 1150.04,171.543 1150.04,170.439 C1150.04,169.336 1150.94,168.439 1152.04,168.439 C1153.15,168.439 1154.04,169.336 1154.04,170.439 C1154.04,171.543 1153.15,172.439 1152.04,172.439 L1152.04,172.439 Z" id="Fill-35"></path>
                        <path d="M1194.49,253.191 C1193.39,253.191 1192.49,252.295 1192.49,251.191 C1192.49,250.087 1193.39,249.191 1194.49,249.191 C1195.6,249.191 1196.49,250.087 1196.49,251.191 C1196.49,252.295 1195.6,253.191 1194.49,253.191 L1194.49,253.191 Z" id="Fill-36" fill-opacity="0.2"></path>
                        <path d="M414.689,4.191 C413.585,4.191 412.689,3.295 412.689,2.191 C412.689,1.087 413.585,0.191 414.689,0.191 C415.793,0.191 416.689,1.087 416.689,2.191 C416.689,3.295 415.793,4.191 414.689,4.191 L414.689,4.191 Z" id="Fill-37"></path>
                        <path d="M826.652,475.5937 C827.789,475.5937 828.711,476.5325 828.711,477.6889 C828.711,478.8452 827.789,479.784 826.652,479.784 C825.516,479.784 824.594,478.8452 824.594,477.6889 C824.594,476.5325 825.516,475.5937 826.652,475.5937 L826.652,475.5937 Z" id="Fill-38" fill-opacity="0.2"></path>
                        <path d="M1056.69,4.191 C1055.59,4.191 1054.69,3.295 1054.69,2.191 C1054.69,1.087 1055.59,0.191 1056.69,0.191 C1057.79,0.191 1058.69,1.087 1058.69,2.191 C1058.69,3.295 1057.79,4.191 1056.69,4.191 L1056.69,4.191 Z" id="Fill-39"></path>
                        <path d="M821.101,4.191 C819.965,4.191 819.042,3.252 819.042,2.096 C819.042,0.939 819.965,0 821.101,0 C822.237,0 823.16,0.939 823.16,2.096 C823.16,3.252 822.237,4.191 821.101,4.191 L821.101,4.191 Z" id="Fill-40" fill-opacity="0.5"></path>
                        <path d="M420.182,475.5937 C421.318,475.5937 422.241,476.5325 422.241,477.6889 C422.241,478.8452 421.318,479.784 420.182,479.784 C419.046,479.784 418.123,478.8452 418.123,477.6889 C418.123,476.5325 419.046,475.5937 420.182,475.5937 L420.182,475.5937 Z" id="Fill-41" fill-opacity="0.2"></path>
                        <path d="M151.479,182.251 C152.004,182.251 152.43,182.684 152.43,183.219 C152.43,183.753 152.004,184.187 151.479,184.187 C150.954,184.187 150.528,183.753 150.528,183.219 C150.528,182.684 150.954,182.251 151.479,182.251 L151.479,182.251 Z" id="Fill-42"></path>
                        <path d="M1089.8,297.534 C1089.28,297.534 1088.85,297.1 1088.85,296.566 C1088.85,296.032 1089.28,295.598 1089.8,295.598 C1090.33,295.598 1090.75,296.032 1090.75,296.566 C1090.75,297.1 1090.33,297.534 1089.8,297.534 L1089.8,297.534 Z" id="Fill-43" fill-opacity="0.2"></path>
                        <path d="M309.951,48.534 C309.399,48.534 308.951,48.086 308.951,47.534 C308.951,46.982 309.399,46.534 309.951,46.534 C310.503,46.534 310.951,46.982 310.951,47.534 C310.951,48.086 310.503,48.534 309.951,48.534 L309.951,48.534 Z" id="Fill-45"></path>
                        <path d="M931.283,431.2507 C931.808,431.2507 932.234,431.6844 932.234,432.2186 C932.234,432.7529 931.808,433.1866 931.283,433.1866 C930.758,433.1866 930.332,432.7529 930.332,432.2186 C930.332,431.6844 930.758,431.2507 931.283,431.2507 L931.283,431.2507 Z" id="Fill-46" fill-opacity="0.2"></path>
                        <path d="M716.47,48.534 C715.945,48.534 715.519,48.1 715.519,47.566 C715.519,47.032 715.945,46.598 716.47,46.598 C716.995,46.598 717.421,47.032 717.421,47.566 C717.421,48.1 716.995,48.534 716.47,48.534 L716.47,48.534 Z" id="Fill-47"></path>
                        <path d="M524.812,431.2507 C525.337,431.2507 525.764,431.6844 525.764,432.2186 C525.764,432.7529 525.337,433.1866 524.812,433.1866 C524.287,433.1866 523.861,432.7529 523.861,432.2186 C523.861,431.6844 524.287,431.2507 524.812,431.2507 L524.812,431.2507 Z" id="Fill-48" fill-opacity="0.2"></path>
                        <path d="M524.812,431.2507 C525.337,431.2507 525.764,431.6844 525.764,432.2186 C525.764,432.7529 525.337,433.1866 524.812,433.1866 C524.287,433.1866 523.861,432.7529 523.861,432.2186 C523.861,431.6844 524.287,431.2507 524.812,431.2507 L524.812,431.2507 Z" id="Fill-49" fill-opacity="0.2"></path>
                        <path d="M106.337,96.586 C106.889,96.586 107.337,97.034 107.337,97.586 C107.337,98.138 106.889,98.586 106.337,98.586 C105.785,98.586 105.337,98.138 105.337,97.586 C105.337,97.034 105.785,96.586 106.337,96.586 L106.337,96.586 Z" id="Fill-50"></path>
                        <path d="M1134.99,383.1982 C1134.47,383.1982 1134.04,382.7644 1134.04,382.2302 C1134.04,381.6959 1134.47,381.2622 1134.99,381.2622 C1135.52,381.2622 1135.95,381.6959 1135.95,382.2302 C1135.95,382.7644 1135.52,383.1982 1134.99,383.1982 L1134.99,383.1982 Z" id="Fill-51" fill-opacity="0.2"></path>
                        <path d="M728.524,383.1982 C727.999,383.1982 727.573,382.7644 727.573,382.2302 C727.573,381.6959 727.999,381.2622 728.524,381.2622 C729.049,381.2622 729.475,381.6959 729.475,382.2302 C729.475,382.7644 729.049,383.1982 728.524,383.1982 L728.524,383.1982 Z" id="Fill-52" fill-opacity="0.2"></path>
                        <path d="M355.142,134.198 C354.59,134.198 354.142,133.75 354.142,133.198 C354.142,132.646 354.59,132.198 355.142,132.198 C355.694,132.198 356.142,132.646 356.142,133.198 C356.142,133.75 355.694,134.198 355.142,134.198 L355.142,134.198 Z" id="Fill-53" fill-opacity="0.5"></path>
                        <path d="M997.191,134.198 C996.666,134.198 996.24,133.764 996.24,133.23 C996.24,132.696 996.666,132.262 997.191,132.262 C997.716,132.262 998.142,132.696 998.142,133.23 C998.142,133.764 997.716,134.198 997.191,134.198 L997.191,134.198 Z" id="Fill-54"></path>
                        <path d="M244.092,345.586 C244.617,345.586 245.043,346.02 245.043,346.554 C245.043,347.089 244.617,347.522 244.092,347.522 C243.567,347.522 243.141,347.089 243.141,346.554 C243.141,346.02 243.567,345.586 244.092,345.586 L244.092,345.586 Z" id="Fill-55" fill-opacity="0.2"></path>
                        <path d="M761.613,134.198 C761.061,134.198 760.613,133.75 760.613,133.198 C760.613,132.646 761.061,132.198 761.613,132.198 C762.164,132.198 762.613,132.646 762.613,133.198 C762.613,133.75 762.164,134.198 761.613,134.198 L761.613,134.198 Z" id="Fill-56"></path>
                        <path d="M1134.99,75.854 C1134.47,75.854 1134.04,75.42 1134.04,74.886 C1134.04,74.351 1134.47,73.918 1134.99,73.918 C1135.52,73.918 1135.95,74.351 1135.95,74.886 C1135.95,75.42 1135.52,75.854 1134.99,75.854 L1134.99,75.854 Z" id="Fill-57" fill-opacity="0.5"></path>
                        <path d="M479.621,345.586 C480.146,345.586 480.572,346.02 480.572,346.554 C480.572,347.089 480.146,347.522 479.621,347.522 C479.096,347.522 478.67,347.089 478.67,346.554 C478.67,346.02 479.096,345.586 479.621,345.586 L479.621,345.586 Z" id="Fill-58" fill-opacity="0.2"></path>
                        <path d="M1134.99,75.854 C1134.47,75.854 1134.04,75.42 1134.04,74.886 C1134.04,74.351 1134.47,73.918 1134.99,73.918 C1135.52,73.918 1135.95,74.351 1135.95,74.886 C1135.95,75.42 1135.52,75.854 1134.99,75.854 L1134.99,75.854 Z" id="Fill-59"></path>
                        <path d="M204.645,94.633 C205.17,94.633 205.596,95.066 205.596,95.601 C205.596,96.135 205.17,96.569 204.645,96.569 C204.12,96.569 203.694,96.135 203.694,95.601 C203.694,95.066 204.12,94.633 204.645,94.633 L204.645,94.633 Z" id="Fill-60"></path>
                        <path d="M1036.64,385.1519 C1036.11,385.1519 1035.69,384.7182 1035.69,384.1839 C1035.69,383.6497 1036.11,383.216 1036.64,383.216 C1037.16,383.216 1037.59,383.6497 1037.59,384.1839 C1037.59,384.7182 1037.16,385.1519 1036.64,385.1519 L1036.64,385.1519 Z" id="Fill-61" fill-opacity="0.2"></path>
                        <path d="M846.645,94.633 C847.17,94.633 847.596,95.066 847.596,95.601 C847.596,96.135 847.17,96.569 846.645,96.569 C846.12,96.569 845.694,96.135 845.694,95.601 C845.694,95.066 846.12,94.633 846.645,94.633 L846.645,94.633 Z" id="Fill-62"></path>
                        <path d="M611.165,94.633 C611.716,94.633 612.165,95.081 612.165,95.633 C612.165,96.184 611.716,96.633 611.165,96.633 C610.613,96.633 610.165,96.184 610.165,95.633 C610.165,95.081 610.613,94.633 611.165,94.633 L611.165,94.633 Z" id="Fill-63" fill-opacity="0.5"></path>
                        <path d="M630.167,385.1519 C629.642,385.1519 629.216,384.7182 629.216,384.1839 C629.216,383.6497 629.642,383.216 630.167,383.216 C630.692,383.216 631.118,383.6497 631.118,384.1839 C631.118,384.7182 630.692,385.1519 630.167,385.1519 L630.167,385.1519 Z" id="Fill-64" fill-opacity="0.2"></path>
                        <path d="M1037.61,122.423 C1037.09,122.423 1036.66,121.99 1036.66,121.456 C1036.66,120.921 1037.09,120.488 1037.61,120.488 C1038.14,120.488 1038.56,120.921 1038.56,121.456 C1038.56,121.99 1038.14,122.423 1037.61,122.423 L1037.61,122.423 Z" id="Fill-65"></path>
                        <path d="M203.669,357.361 C204.194,357.361 204.62,357.795 204.62,358.329 C204.62,358.863 204.194,359.297 203.669,359.297 C203.144,359.297 202.718,358.863 202.718,358.329 C202.718,357.795 203.144,357.361 203.669,357.361 L203.669,357.361 Z" id="Fill-66" fill-opacity="0.2"></path>
                        <path d="M176.192,114.163 C177.296,114.163 178.192,115.059 178.192,116.163 C178.192,117.266 177.296,118.163 176.192,118.163 C175.088,118.163 174.192,117.266 174.192,116.163 C174.192,115.059 175.088,114.163 176.192,114.163 L176.192,114.163 Z" id="Fill-67" fill-opacity="0.5"></path>
                        <path d="M1065.09,365.622 C1063.99,365.622 1063.09,364.726 1063.09,363.622 C1063.09,362.518 1063.99,361.622 1065.09,361.622 C1066.19,361.622 1067.09,362.518 1067.09,363.622 C1067.09,364.726 1066.19,365.622 1065.09,365.622 L1065.09,365.622 Z" id="Fill-68" fill-opacity="0.2"></path>
                        <path d="M658.561,365.622 C657.425,365.622 656.502,364.683 656.502,363.527 C656.502,362.37 657.425,361.432 658.561,361.432 C659.698,361.432 660.62,362.37 660.62,363.527 C660.62,364.683 659.698,365.622 658.561,365.622 L658.561,365.622 Z" id="Fill-69" fill-opacity="0.2"></path>
                    </g>
                </g>
            </g>
        </g>
    </g>
</svg>