<?xml version="1.0" encoding="UTF-8" standalone="no"?>
<svg width="32px" height="32px" viewBox="0 0 32 32" version="1.1" xmlns="http://www.w3.org/2000/svg" xmlns:xlink="http://www.w3.org/1999/xlink">
    <!-- Generator: sketchtool 39.1 (31720) - http://www.bohemiancoding.com/sketch -->
    <title>6F8C3A58-3A3B-494F-B8F9-EAB4ED65DCC1</title>
    <desc>Created with sketchtool.</desc>
    <defs></defs>
    <g id="Page-1" stroke="none" stroke-width="1" fill="none" fill-rule="evenodd">
        <g id="Editable-Version" transform="translate(-1475.000000, -515.000000)">
            <g id="::-all" transform="translate(55.000000, 98.000000)">
                <g id="::-edit-mission" transform="translate(-15.000000, 372.000000)">
                    <g id="::-edit-icon" transform="translate(1436.000000, 46.000000)">
                        <g id="--&gt;-default">
                            <circle id="Oval-179" stroke="#FFFFFF" stroke-width="2" cx="15" cy="15" r="15"></circle>
                            <path d="M21.6042298,10.3585927 L12.5986645,19.3638318 L11.6450209,18.4101882 L20.6419449,9.39679686 C20.7221624,9.31625318 20.8157496,9.30435098 20.8644997,9.30435098 C20.9130868,9.30435098 21.006674,9.31625318 21.0870546,9.39663381 L21.6042298,9.91380898 C21.7268388,10.036418 21.7268388,10.2359837 21.6042298,10.3585927 L21.6042298,10.3585927 Z M10.4083331,19.6847022 L11.3246397,20.6010087 L9.81061431,21.1938363 L10.4083331,19.6847022 Z M22.526732,8.99163283 L22.0093938,8.47445767 C21.7036866,8.16842432 21.2972182,8 20.8646628,8 L20.8643367,8 C20.4314552,8.00016304 20.0246608,8.16891345 19.7187905,8.47527289 L9.41343943,18.799537 C9.3505045,18.8623089 9.30142829,18.9374721 9.26865648,19.0201354 L8.04582743,22.1076972 C7.95028372,22.3491652 8.00685994,22.6242202 8.19012126,22.8079706 C8.31484982,22.9333513 8.48196979,23.0000363 8.65235064,23.0000363 C8.73224213,23.0000363 8.81278581,22.9853623 8.8900686,22.9550362 L11.9875761,21.7423159 C12.0713806,21.709544 12.1473591,21.6596526 12.2109462,21.5962285 L22.526569,11.2809319 C23.1577118,10.6501151 23.1578749,9.62310175 22.526732,8.99163283 L22.526732,8.99163283 Z" id="pencil" fill="#FFFFFF"></path>
                        </g>
                    </g>
                </g>
            </g>
        </g>
    </g>
</svg>