<svg width="11" height="15" viewBox="0 0 11 15" fill="none" xmlns="http://www.w3.org/2000/svg">
<path d="M8.41862 4.8648C7.67167 4.01233 7.03022 3.24488 7.03022 2.19924C7.03022 1.65438 7.23221 1.13585 7.59259 0.731646C7.71561 0.59981 7.73312 0.397707 7.65416 0.239435C7.56615 0.0724659 7.39048 -0.0153103 7.20589 0.00219917C6.81931 0.0549565 6.00197 0.661379 5.27264 1.57519C5.21107 1.64557 5.14962 1.71584 5.09686 1.79492C4.20056 2.97251 3.24269 4.94388 3.39203 7.65933C2.82967 6.98264 2.48692 5.87531 2.61875 4.89112C2.64507 4.67139 2.50443 4.46048 2.28481 4.40783C2.06509 4.35508 1.84536 4.4781 1.76628 4.68901C1.50272 5.41846 1.21273 5.99833 0.940247 6.552C0.430527 7.55382 0 8.4238 0 9.6981C0 12.6068 2.36389 15 5.27264 15C8.18139 15 10.5453 12.6068 10.5453 9.6981C10.5453 7.30777 9.41174 6.00715 8.41862 4.8648Z" fill="#DC416A"/>
</svg>
