<?xml version="1.0" encoding="UTF-8" standalone="no"?>
<svg width="18px" height="18px" viewBox="0 0 18 18" version="1.1" xmlns="http://www.w3.org/2000/svg" xmlns:xlink="http://www.w3.org/1999/xlink">
    <!-- Generator: Sketch 39.1 (31720) - http://www.bohemiancoding.com/sketch -->
    <title>gear</title>
    <desc>Created with Sketch.</desc>
    <defs></defs>
    <g id="Symbols" stroke="none" stroke-width="1" fill="none" fill-rule="evenodd">
        <g id="edit-gear" transform="translate(-6.000000, -6.000000)" fill="#75CC1F">
            <g id="::-edit">
                <path d="M14.289587,22.5948261 C14.4676304,22.6063696 14.6767826,22.6153696 14.8931739,22.6153696 L14.9998043,22.6153696 C15.2179565,22.6153696 15.4275,22.6063696 15.6053478,22.5948261 L15.7882826,21.3046957 C15.828587,21.021 16.0396957,20.7913043 16.319087,20.7271304 C16.9261957,20.5880217 17.5049348,20.3536304 18.0390652,20.031 C18.1965652,19.935913 18.3853696,19.9077391 18.5638043,19.9517609 C18.6661304,19.9771957 18.7598478,20.0251304 18.8394783,20.0912609 L19.868413,20.8723043 C20.0022391,20.7547174 20.156413,20.6132609 20.309413,20.4602609 L20.3847391,20.3849348 C20.5385217,20.2311522 20.6805652,20.0763913 20.7985435,19.9419783 L20.0186739,18.9030652 C19.8466957,18.6737609 19.833587,18.362087 19.986,18.1192826 C20.31,17.6033478 20.5498696,17.0443696 20.6993478,16.4570217 C20.7500217,16.1633478 20.9840217,15.9303261 21.2861087,15.8890435 L22.5948261,15.7098261 C22.6061739,15.5319783 22.6153696,15.3230217 22.6153696,15.1068261 L22.6153696,15.0001957 C22.6153696,14.7826304 22.6061739,14.5726957 22.5946304,14.3940652 L21.3088043,14.2109348 C21.0251087,14.1706304 20.7958043,13.9597174 20.7316304,13.6807174 C20.5936957,13.0804565 20.3626304,12.5081739 20.0448913,11.9795217 C20.0153478,11.9339348 19.9908913,11.8846304 19.9725,11.8321957 C19.8952174,11.6126739 19.9327826,11.369087 20.0736522,11.1838043 L20.8723043,10.131587 C20.7545217,9.99756522 20.6132609,9.84358696 20.4602609,9.69058696 L20.3849348,9.61526087 C20.2307609,9.4608913 20.076,9.31923913 19.9421739,9.20145652 L18.9005217,9.98426087 C18.6543913,10.1693478 18.3190435,10.1681739 18.0758478,9.98973913 C17.5581522,9.6716087 16.9978043,9.43682609 16.4094783,9.29243478 C16.1338043,9.22454348 15.9273913,8.99523913 15.8888478,8.7138913 L15.7098261,7.40517391 C15.5317826,7.39363043 15.3230217,7.38463043 15.1066304,7.38463043 L15.0001957,7.38463043 C14.7828261,7.38463043 14.5728913,7.39382609 14.3944565,7.40536957 L14.2115217,8.69530435 C14.1682826,9.00052174 13.9297826,9.23647826 13.6316087,9.28245652 C13.0425,9.42273913 12.4803913,9.65302174 11.9605435,9.96763043 C11.8003043,10.0646739 11.6077826,10.0924565 11.4268043,10.044913 C11.3254565,10.0185 11.232913,9.96978261 11.1546522,9.90345652 L10.131587,9.1275 C9.99776087,9.24528261 9.84358696,9.38654348 9.69058696,9.53973913 L9.61526087,9.61506522 C9.4608913,9.76923913 9.31904348,9.92380435 9.20145652,10.0578261 L9.98426087,11.0994783 C10.154087,11.3252609 10.1695435,11.6314565 10.023587,11.873087 C10.0112609,11.8936304 9.99795652,11.9131957 9.98386957,11.9319783 C9.66769565,12.4469348 9.43428261,13.0045435 9.2898913,13.5903261 C9.222,13.8658043 8.9928913,14.0720217 8.71173913,14.1105652 L7.40517391,14.2899783 C7.39363043,14.4680217 7.38463043,14.6769783 7.38463043,14.8933696 L7.38463043,14.9998043 C7.38463043,15.2171739 7.39382609,15.426913 7.40517391,15.6055435 L8.6951087,15.7884783 C9.00071739,15.8317174 9.24078261,16.0719783 9.28363043,16.377587 C9.28480435,16.3861957 9.28597826,16.3946087 9.28676087,16.4032174 C9.42763043,16.9807826 9.65536957,17.5317391 9.9641087,18.042 C10.0693696,18.2161304 10.0928478,18.4274348 10.0282826,18.6201522 C9.99991304,18.7048696 9.9558913,18.7819565 9.89954348,18.8484783 L9.12730435,19.8680217 C9.24508696,20.0020435 9.38654348,20.1562174 9.53954348,20.309413 L9.61486957,20.3847391 C9.76923913,20.5391087 9.92380435,20.6807609 10.0576304,20.7985435 L11.0992826,20.0157391 C11.3620435,19.8181304 11.7195,19.8357391 11.9607391,20.0388261 C12.4676739,20.3456087 13.0151087,20.5725652 13.5893478,20.7138261 C13.8646304,20.7815217 14.0708478,21.0104348 14.109587,21.2913913 L14.289587,22.5948261 Z M14.9998043,24 L14.8931739,24 C14.2134783,24 13.6161522,23.9244783 13.5911087,23.9213478 C13.281,23.8816304 13.0358478,23.6390217 12.9931957,23.3293043 L12.800087,21.929413 C12.3704348,21.7932391 11.9552609,21.6171522 11.558087,21.4031087 L10.4514783,22.2346304 C10.2022174,22.4218696 9.85865217,22.4195217 9.61213043,22.2289565 C9.59217391,22.2135 9.11654348,21.8445 8.63582609,21.3637826 L8.5605,21.2884565 C8.07978261,20.8079348 7.71097826,20.3323043 7.69532609,20.3121522 C7.50417391,20.0648478 7.50241304,19.7201087 7.69121739,19.4706522 L8.54582609,18.3425217 C8.33843478,17.9426087 8.1693913,17.5248913 8.04006522,17.0940652 L6.66815217,16.899587 C6.3596087,16.8557609 6.11836957,16.6111957 6.07865217,16.3020652 C6.07552174,16.2770217 6,15.6795 6,14.9998043 L6,14.8933696 C6,14.2134783 6.07552174,13.6161522 6.07865217,13.5911087 C6.11856522,13.2808043 6.36136957,13.0356522 6.67128261,12.9931957 L8.07469565,12.8004783 C8.21067391,12.372 8.38636957,11.958 8.59982609,11.5618043 L7.76536957,10.4516739 C7.57793478,10.202413 7.58028261,9.85884783 7.77104348,9.61213043 C7.7865,9.59217391 8.1555,9.11654348 8.63602174,8.63582609 L8.71134783,8.5605 C9.19206522,8.07997826 9.66769565,7.71097826 9.68784783,7.69552174 C9.93515217,7.50417391 10.2802826,7.50241304 10.5295435,7.6916087 L11.660413,8.54915217 C12.0591522,8.34234783 12.4755,8.17369565 12.9053478,8.04456522 L13.100413,6.66834783 C13.1442391,6.3596087 13.3888043,6.11836957 13.6979348,6.07865217 C13.7229783,6.07552174 14.3203043,6 15.0001957,6 L15.1066304,6 C15.7865217,6 16.3838478,6.07552174 16.4088913,6.07865217 C16.7191957,6.11856522 16.9643478,6.36156522 17.0068043,6.67147826 L17.1993261,8.07684783 C17.6270217,8.21263043 18.0410217,8.38773913 18.4370217,8.60080435 L19.5483261,7.76536957 C19.797587,7.57793478 20.1409565,7.58028261 20.3876739,7.77104348 C20.4078261,7.7865 20.8834565,8.1555 21.3641739,8.63621739 L21.4395,8.71154348 C21.9202174,9.19226087 22.2890217,9.66808696 22.3044783,9.68804348 C22.4958261,9.93554348 22.4973913,10.2806739 22.3081957,10.5299348 L21.4512391,11.6586522 C21.6588261,12.0577826 21.8280652,12.4745217 21.957587,12.9047609 L23.3320435,13.1006087 C23.640587,13.1444348 23.8816304,13.389 23.9211522,13.6979348 C23.9244783,13.7231739 24,14.3205 24,15.0001957 L24,15.1068261 C24,15.7865217 23.9244783,16.3838478 23.9211522,16.4088913 C23.8814348,16.7191957 23.6384348,16.9643478 23.3283261,17.007 L21.9270652,17.1987391 C21.791087,17.627413 21.6153913,18.0421957 21.4015435,18.4387826 L22.2346304,19.5487174 C22.4218696,19.7977826 22.4193261,20.1413478 22.2287609,20.3878696 C22.2133043,20.4078261 21.8445,20.8834565 21.3637826,21.3641739 L21.2884565,21.4395 C20.8077391,21.9200217 20.3321087,22.2892174 20.3119565,22.3046739 C20.0646522,22.4960217 19.7193261,22.497587 19.4700652,22.3081957 L18.3386087,21.4494783 C17.9400652,21.6558913 17.5243043,21.8243478 17.0948478,21.9532826 L16.8993913,23.3318478 C16.8555652,23.6403913 16.611,23.8816304 16.3018696,23.9213478 C16.2768261,23.9244783 15.6795,24 14.9998043,24 L14.9998043,24 Z M15.0001957,12.6157826 C13.6836522,12.6157826 12.6126522,13.6867826 12.6126522,15.0033261 C12.6126522,16.3196739 13.6836522,17.3904783 15.0001957,17.3904783 C16.3163478,17.3904783 17.3871522,16.3196739 17.3871522,15.0033261 C17.3871522,13.6867826 16.3163478,12.6157826 15.0001957,12.6157826 L15.0001957,12.6157826 Z M15.0001957,18.7751087 C12.9202174,18.7751087 11.2280217,17.0831087 11.2280217,15.0033261 C11.2280217,12.9233478 12.9202174,11.2311522 15.0001957,11.2311522 C17.0797826,11.2311522 18.7717826,12.9233478 18.7717826,15.0033261 C18.7717826,17.0831087 17.0797826,18.7751087 15.0001957,18.7751087 L15.0001957,18.7751087 Z" id="gear"></path>
            </g>
        </g>
    </g>
</svg>