<?xml version="1.0" encoding="UTF-8" standalone="no"?>
<svg width="170px" height="230px" viewBox="0 0 170 230" version="1.1" xmlns="http://www.w3.org/2000/svg" xmlns:xlink="http://www.w3.org/1999/xlink">
    <!-- Generator: sketchtool 3.7.2 (28276) - http://www.bohemiancoding.com/sketch -->
    <title>94D98216-CB18-475F-9D0D-D4DAE1B62C60</title>
    <desc>Created with sketchtool.</desc>
    <defs>
        <path d="M15.7701802,0.368584403 C15.7701802,4.58818759 12.338018,8.01556372 8.11252252,8.01556372 C3.8854955,8.01556372 0.454864865,4.58818759 0.454864865,0.368584403 L15.7701802,0.368584403 L15.7701802,0.368584403 Z" id="path-1"></path>
    </defs>
    <g id="Page-1" stroke="none" stroke-width="1" fill="none" fill-rule="evenodd">
        <g id="Onboarding" transform="translate(-635.000000, -4200.000000)">
            <g id="ghost" transform="translate(635.000000, 4200.000000)">
                <g>
                    <path d="M124.30982,144.743554 C127.051261,139.543608 132.532613,139.543608 135.272523,142.143581 C138.013964,144.743554 138.013964,149.9435 135.272523,155.143446 C133.353514,159.043405 128.42045,162.943365 124.30982,165.543338 C120.199189,162.943365 115.266126,159.043405 113.347117,155.143446 C110.607207,149.9435 110.607207,144.743554 113.347117,142.143581 C116.088559,139.543608 121.56991,139.543608 124.30982,144.743554 L124.30982,144.743554 Z" id="Shape" fill="#237996"></path>
                    <path d="M117.012072,142.22158 C117.263243,142.239933 117.502162,142.302638 117.721171,142.431107 C117.840631,142.50146 117.949369,142.587106 118.045856,142.686517 C118.416486,143.068866 118.561982,143.630154 118.424144,144.144031 C118.367477,144.358146 118.263333,144.558497 118.122432,144.72826 C118.016757,144.8552 117.891171,144.963787 117.780901,145.087668 C117.736486,145.139668 117.692072,145.191667 117.649189,145.246725 C117.538919,145.395077 117.434775,145.546487 117.344414,145.707073 C117.080991,146.175069 116.914054,146.690475 116.816036,147.216587 C116.665946,148.021049 116.673604,148.849982 116.774685,149.659032 C116.811441,149.949618 116.86045,150.237144 116.918649,150.52467 C116.995225,150.890196 117.088649,151.251133 117.197387,151.609012 C117.332162,152.054066 117.491441,152.491473 117.669099,152.921234 C117.802342,153.245466 117.947838,153.56358 118.104054,153.878635 C118.180631,154.036163 118.264865,154.189103 118.341441,154.346631 C118.373604,154.4231 118.372072,154.4231 118.401171,154.5011 C118.463964,154.715215 118.491532,154.933919 118.465495,155.155681 C118.442523,155.348385 118.382793,155.534971 118.290901,155.704734 C118.211261,155.851556 118.108649,155.983084 117.987658,156.096259 C117.511351,156.538255 116.785405,156.630019 116.214144,156.321081 C115.967568,156.186494 115.773063,155.989202 115.624505,155.752145 C115.531081,155.580853 115.443784,155.406502 115.356486,155.232151 C115.137477,154.782508 114.930721,154.326748 114.745405,153.861812 C114.566216,153.413699 114.405405,152.957939 114.266036,152.496062 C114.152703,152.124418 114.053153,151.748187 113.967387,151.368897 C113.507928,149.316448 113.461982,147.089647 114.246126,145.10755 C114.344144,144.861317 114.454414,144.618144 114.578468,144.384146 C114.671892,144.208265 114.771441,144.035444 114.878649,143.86874 C115.074685,143.561331 115.296757,143.269216 115.541802,142.998513 C115.704144,142.819574 115.872613,142.631458 116.073243,142.492283 C116.304505,142.333226 116.567928,142.249109 116.846667,142.22311 C116.929369,142.220051 116.929369,142.220051 117.012072,142.22158 L117.012072,142.22158 Z" id="Shape" fill="#2887A1"></path>
                    <path d="M92.3957658,36.2849169 C135.122432,36.2849169 169.75955,70.8737337 169.75955,113.54082 C169.75955,152.1703 158.11991,189.883673 158.11991,189.883673 C158.11991,189.883673 157.933063,190.697312 157.643604,191.960593 C156.991171,194.808328 154.842432,197.076422 152.032072,197.885472 C149.221712,198.696052 146.193874,197.917589 144.123243,195.855964 C144.121712,195.854434 144.12018,195.852905 144.12018,195.852905 C141.319009,193.063287 136.782613,193.067875 133.989099,195.863611 C132.872613,196.981599 131.673423,198.180645 130.503333,199.352163 C128.722162,201.135438 126.300811,202.132604 123.77991,202.121899 C121.259009,202.112722 118.845315,201.097203 117.077928,199.301693 C116.506667,198.720522 115.929279,198.133234 115.35955,197.553593 C113.598288,195.765729 111.198378,194.750211 108.686667,194.733387 C106.174955,194.715034 103.761261,195.696907 101.975495,197.461829 C101.293964,198.134764 100.603243,198.818404 99.9232432,199.489808 C96.2276577,203.143535 90.27,203.126712 86.5943243,199.453103 C85.9357658,198.795463 85.268018,198.127117 84.6094595,197.469476 C80.9230631,193.785162 74.947027,193.780574 71.256036,197.457241 C70.5944144,198.116411 69.9220721,198.784757 69.261982,199.443926 C65.570991,203.119065 59.598018,203.116006 55.9131532,199.437809 C54.7828829,198.310644 53.621982,197.152891 52.5345946,196.06702 C51.1363063,194.672211 49.2402703,193.89069 47.2661261,193.896808 C45.2904505,193.901396 43.3974775,194.692094 42.0068468,196.09302 L42.0068468,196.09302 C39.9346847,198.180645 36.912973,199.020284 34.0581982,198.298409 C31.204955,197.578064 28.9459459,195.403263 28.1189189,192.583057 C27.6456757,190.971073 27.3271171,189.883673 27.3271171,189.883673 C27.3271171,189.883673 15.0273874,152.1703 15.0273874,113.54082 C15.0273874,70.8737337 49.6645045,36.2849169 92.3911712,36.2849169 L92.3957658,36.2849169 L92.3957658,36.2849169 Z M51.460991,100.365074 C50.0320721,100.843775 48.4836937,100.085195 47.9874775,98.664386 C47.6474775,97.5662798 47.4453153,96.4024095 47.4453153,95.191128 C47.4453153,89.2815424 52.2497297,84.4853569 58.166036,84.4853569 C64.0838739,84.4853569 68.8867568,89.2815424 68.8867568,95.191128 C68.8867568,96.6165249 68.608018,97.9776873 68.0995495,99.2226155 C67.633964,100.322251 66.3903604,100.866716 65.2646847,100.464485 C63.1220721,99.7701392 60.7145045,99.3648493 58.166036,99.3648493 C55.7707207,99.3648493 53.4979279,99.7227279 51.460991,100.365074 L51.460991,100.365074 Z" id="Shape" fill="#DDEAF9"></path>
                    <path d="M9.68693694,135.486121 L9.68693694,135.484591 C9.59657658,134.709188 9.50927928,133.933784 9.42351351,133.15838 C9.22747748,131.318517 9.04369369,129.477124 8.88594595,127.634202 C8.53981982,123.595068 8.29630631,119.546757 8.17531532,115.493858 C8.1354955,114.125049 8.10792793,112.756239 8.09567568,111.38743 C8.08495495,110.154737 8.08342342,108.922044 8.11405405,107.689351 C8.15387387,106.163014 8.23504505,104.639736 8.36063063,103.117987 C8.79711712,97.8308653 9.76351351,92.5880962 11.246036,87.4936786 C13.3656757,80.2122249 16.5420721,73.2458267 20.6404505,66.8621284 C25.5459459,59.2212667 31.7624324,52.430749 38.9437838,46.8652775 C45.4175676,41.8473296 52.6632432,37.8326655 60.3591892,35.0185771 C65.9278378,32.9829512 71.7246847,31.5774364 77.6057658,30.8295618 C79.6136036,30.5756821 81.6306306,30.3967428 83.6522523,30.2942733 C84.6737838,30.2422738 85.6968468,30.2132153 86.7199099,30.1979213 C87.2375676,30.1933332 87.7521622,30.1918038 88.2682883,30.1933332 C89.2944144,30.2025095 90.3174775,30.2254505 91.3420721,30.2713323 C93.5336937,30.3676843 95.7207207,30.5542706 97.897027,30.8295618 C104.262072,31.6386122 110.527568,33.2200076 116.511261,35.5324541 C123.55018,38.2547788 130.190901,41.9880341 136.180721,46.5731629 C140.985135,50.2513599 145.36991,54.4755513 149.223243,59.1386793 C153.298649,64.0694515 156.77982,69.4911599 159.558018,75.2523941 C163.256667,82.9177262 165.700991,91.1718757 166.774595,99.6126114 C167.094685,102.12235 167.293784,104.648912 167.374955,107.178533 C167.420901,108.642165 167.419369,110.107326 167.407117,111.572487 C167.39027,113.397056 167.347387,115.221626 167.283063,117.046195 C167.031892,124.131886 166.436126,131.205342 165.58,138.243622 C164.39,148.030226 162.697658,157.757183 160.591802,167.387789 C159.775495,171.114927 158.897928,174.8283 157.946847,178.52332 C157.248468,181.241057 156.517928,183.952676 155.710811,186.639824 C155.49027,187.36017 155.375405,188.109574 155.200811,188.843684 C155.09973,189.238268 154.983333,189.626734 154.839369,190.007554 C154.496306,190.917545 154.024595,191.777065 153.441081,192.553998 C152.83,193.370695 152.096396,194.097159 151.270901,194.699741 C150.293784,195.415498 149.191081,195.955375 148.027117,196.290312 C146.808018,196.642073 145.526126,196.765954 144.262613,196.655838 C143.189009,196.562545 142.129189,196.299489 141.136757,195.880434 C140.291351,195.524085 139.494955,195.05609 138.775135,194.490213 C138.458108,194.242451 138.159459,193.974807 137.873063,193.693398 C137.776577,193.600105 137.68009,193.508341 137.577477,193.421166 C137.208378,193.109169 136.799459,192.849172 136.353784,192.656468 C135.127027,192.125767 133.698108,192.127297 132.471351,192.661056 C131.950631,192.888936 131.477387,193.20858 131.063874,193.597046 C129.812613,194.800681 128.616486,196.057844 127.382072,197.276773 C126.441712,198.183704 125.365045,198.940755 124.181171,199.497455 C122.695586,200.196389 121.064505,200.580268 119.422703,200.613914 C117.584865,200.653679 115.743964,200.254506 114.086847,199.45922 C112.906036,198.891815 111.837027,198.128646 110.901261,197.214067 C110.248829,196.557956 109.613243,195.883493 108.951622,195.236558 C108.40027,194.708917 107.773874,194.266921 107.084685,193.935043 C106.294414,193.555752 105.435225,193.321755 104.560721,193.249873 C103.36,193.151992 102.140901,193.363049 101.042793,193.857043 C100.290811,194.19504 99.6092793,194.663035 99.0135135,195.230441 C98.2676577,195.958433 97.5355856,196.698661 96.7897297,197.426653 C95.8325225,198.338173 94.7405405,199.095224 93.5367568,199.645807 C91.9516216,200.37227 90.2072072,200.737795 88.4627928,200.711796 C86.8118018,200.688855 85.1715315,200.314153 83.6752252,199.618278 C82.5204505,199.08146 81.4698198,198.354997 80.5432432,197.48477 C79.7514414,196.723131 78.9994595,195.921728 78.2091892,195.161618 C77.6226126,194.611036 76.9548649,194.153746 76.2197297,193.823397 C74.3466667,192.982229 72.1443243,192.994464 70.2804505,193.855514 C69.5468468,194.19504 68.8836937,194.658447 68.3017117,195.216676 C67.5742342,195.932434 66.8605405,196.660426 66.1345946,197.374654 C65.1789189,198.290762 64.0869369,199.053931 62.8831532,199.609101 C61.3822523,200.303447 59.7373874,200.673561 58.0833333,200.691914 C56.3358559,200.711796 54.5883784,200.340152 53.0032432,199.604513 C52.1654955,199.217576 51.3752252,198.729699 50.6523423,198.156175 C50.3383784,197.908413 50.0412613,197.642298 49.7533333,197.367007 C48.5572072,196.186313 47.3932432,194.970444 46.1818018,193.805044 C45.7774775,193.430342 45.3287387,193.113757 44.8279279,192.87823 C43.4847748,192.24659 41.9011712,192.232825 40.5472973,192.836936 C40.1245946,193.025052 39.7294595,193.271285 39.3741441,193.564929 C39.1520721,193.748456 38.952973,193.954925 38.7462162,194.153746 C38.6175676,194.273039 38.6175676,194.27151 38.4873874,194.389273 C38.1381982,194.692094 37.7752252,194.978091 37.3908108,195.236558 C36.6342342,195.745847 35.8118018,196.157255 34.9495495,196.457016 C33.9831532,196.793483 32.9677477,196.989246 31.9462162,197.036657 C30.0363964,197.123833 28.1158559,196.686426 26.4311712,195.784082 C25.2289189,195.137148 24.1537838,194.257745 23.2823423,193.20705 C22.6620721,192.459176 22.1459459,191.625655 21.7523423,190.737076 C21.5869369,190.365433 21.4475676,189.983084 21.3235135,189.596147 C21.0371171,188.65098 20.766036,187.702754 20.4888288,186.756058 C20.3356757,186.278887 20.1871171,185.800186 20.0400901,185.321485 C19.9037838,184.871843 19.769009,184.4222 19.6342342,183.972558 C18.8745946,181.398585 18.1547748,178.815435 17.4732432,176.22005 C17.2802703,175.482881 17.0888288,174.744183 16.9004505,174.003956 C16.7733333,173.505373 16.5987387,173.000672 16.6431532,172.477619 C16.6645946,172.225268 16.7273874,171.977506 16.8284685,171.745038 C17.1378378,171.043045 17.7979279,170.530698 18.556036,170.405287 C18.8056757,170.363994 19.0614414,170.363994 19.3126126,170.405287 C19.5622523,170.44811 19.8042342,170.530698 20.0278378,170.65152 C20.4735135,170.893164 20.8334234,171.28316 21.0371171,171.748097 C21.0876577,171.864331 21.1182883,171.986683 21.1596396,172.105975 C21.3495495,172.85385 21.5394595,173.601725 21.7324324,174.349599 C22.3098198,176.556517 22.9040541,178.760377 23.5365766,180.952001 C23.9684685,182.444691 24.408018,183.932794 24.8812613,185.411719 C25.1676577,186.384415 25.4310811,187.363229 25.7404505,188.328277 C25.9824324,189.039446 26.3408108,189.701675 26.8217117,190.281316 C27.2336937,190.77684 27.7237838,191.2066 28.2720721,191.547656 C29.6627027,192.414823 31.3872072,192.677879 32.9754054,192.264942 C33.7595495,192.060003 34.4992793,191.697536 35.140991,191.202012 C35.4181982,190.987897 35.6632432,190.744723 35.9113514,190.503078 L36.0828829,190.344021 C36.3218018,190.129906 36.5653153,189.923437 36.8226126,189.732263 C37.4597297,189.256621 38.155045,188.860507 38.8886486,188.554628 C40.5136036,187.875576 42.3162162,187.649226 44.0575676,187.906164 C45.000991,188.04381 45.9245045,188.32216 46.7867568,188.72745 C47.4345946,189.033329 48.0487387,189.40956 48.6138739,189.848497 C48.865045,190.044259 49.103964,190.253787 49.3382883,190.470961 C50.5895495,191.673066 51.774955,192.942465 53.0262162,194.14457 C53.6143243,194.693623 54.2805405,195.149383 55.0156757,195.479732 C56.8887387,196.319371 59.0895495,196.307136 60.9534234,195.446086 C61.6854955,195.108089 62.3486486,194.643153 62.9306306,194.084923 C63.6581081,193.370695 64.3718018,192.642703 65.0992793,191.926946 C65.4224324,191.618008 65.7593694,191.321305 66.1146847,191.047543 C66.8054054,190.513784 67.5573874,190.058024 68.3522523,189.690969 C70.281982,188.799331 72.4445045,188.4491 74.558018,188.678509 C75.8766667,188.820743 77.1692793,189.187798 78.3654054,189.761321 C79.5186486,190.313433 80.5646847,191.05519 81.4851351,191.94071 C82.230991,192.67635 82.9554054,193.43493 83.7104505,194.161393 C84.2740541,194.690564 84.9127027,195.13256 85.6156757,195.45985 C86.5254054,195.883493 87.5254955,196.109843 88.5301802,196.125137 C89.5915315,196.140431 90.6544144,195.918669 91.6192793,195.476674 C92.3528829,195.140207 93.016036,194.679858 93.598018,194.124688 C94.3790991,193.363049 95.1387387,192.579998 95.9274775,191.829064 C96.8816216,190.942015 97.9659459,190.209434 99.1544144,189.674146 C100.958559,188.862036 102.961802,188.516393 104.934414,188.67698 C106.370991,188.794743 107.783063,189.177092 109.081802,189.802615 C109.85982,190.177317 110.596486,190.639194 111.274955,191.176012 C111.616486,191.446716 111.93964,191.737301 112.252072,192.04165 C112.906036,192.697761 113.54009,193.372225 114.201712,194.019159 C114.756126,194.54833 115.385586,194.991855 116.077838,195.323734 C117.085586,195.808553 118.206667,196.050197 119.324685,196.027256 C120.324775,196.005845 121.317207,195.773376 122.222342,195.346675 C122.943694,195.008678 123.597658,194.54833 124.17045,193.994689 C125.42018,192.761996 126.631622,191.491068 127.895135,190.273669 C128.644054,189.570147 129.492523,188.982859 130.425225,188.55004 C131.737748,187.939811 133.186577,187.63852 134.633874,187.672167 C135.851441,187.699696 137.061351,187.962752 138.179369,188.446041 C138.971171,188.787096 139.706306,189.239797 140.377117,189.778145 C140.567027,189.929555 140.749279,190.091671 140.925405,190.259904 C141.057117,190.383785 141.182703,190.510725 141.315946,190.633077 C141.412432,190.718723 141.511982,190.80131 141.611532,190.882368 C142.218018,191.348834 142.901081,191.699066 143.639279,191.902475 C144.372883,192.102826 145.146306,192.156355 145.89982,192.060003 C146.857027,191.934593 147.777477,191.567538 148.555495,190.998603 C149.039459,190.643783 149.466757,190.214022 149.819009,189.729204 C150.250901,189.13121 150.557207,188.458276 150.739459,187.744048 L150.765495,187.640049 L151.257117,185.491248 C151.433243,184.914666 151.601712,184.333495 151.77018,183.753854 C152.823874,180.074128 153.781081,176.366872 154.673964,172.645852 C155.631171,168.648011 156.511802,164.631818 157.317387,160.598801 C159.334414,150.501729 160.89045,140.305247 161.838468,130.052177 C162.297928,125.080111 162.611892,120.092751 162.746667,115.102333 C162.778829,113.910933 162.80027,112.721063 162.812523,111.529664 C162.823243,110.287795 162.827838,109.045925 162.795676,107.805585 C162.746667,105.890781 162.627207,103.979037 162.432703,102.073409 C161.944144,97.2680476 160.99,92.5116264 159.580991,87.8897921 C158.294505,83.6610126 156.626667,79.5499965 154.60964,75.6163903 C150.765495,68.1208212 145.647117,61.2890099 139.545495,55.478835 C133.431622,49.6594837 126.342162,44.8755335 118.646216,41.400746 C111.886036,38.3480719 104.675586,36.3155048 97.3181081,35.3825733 C89.4184685,34.3792896 81.3564865,34.623993 73.5364865,36.1212715 C66.0059459,37.5619624 58.7081982,40.1695824 51.9694595,43.8248385 C44.0361261,48.1300878 36.8991892,53.8699105 30.9874775,60.6848985 C25.8461261,66.6113075 21.6405405,73.3406493 18.5805405,80.5639859 C15.7441441,87.2612104 13.9017117,94.3713718 13.1206306,101.602355 C12.897027,103.662452 12.7607207,105.733254 12.7071171,107.805585 C12.678018,108.986279 12.6795495,110.166972 12.6902703,111.347666 C12.7025225,112.684358 12.7285586,114.02105 12.7683784,115.356212 C12.9490991,121.397326 13.4131532,127.423146 14.0763063,133.429083 L14.1620721,134.192252 L14.2509009,134.95542 L14.2509009,134.958479 C14.2937838,135.273535 14.3259459,135.59012 14.3642342,135.905175 C14.4025225,136.22176 14.4423423,136.536816 14.4821622,136.853401 C14.7578378,139.026672 15.0534234,141.195356 15.3796396,143.36098 C15.6920721,145.444017 16.0320721,147.522466 16.3873874,149.599386 L16.4042342,149.714091 C16.4363964,150.065852 16.4072973,150.411495 16.2909009,150.744903 C16.1882883,151.038547 16.0244144,151.30925 15.8145946,151.53713 C15.6568468,151.708423 15.4745946,151.856774 15.2724324,151.973008 C14.5924324,152.364534 13.7363063,152.379828 13.0425225,152.011243 C12.8372973,151.901127 12.6489189,151.760422 12.485045,151.595247 C12.2675676,151.373485 12.096036,151.1089 11.9827027,150.819844 C11.9398198,150.711257 11.9091892,150.599611 11.8816216,150.486435 C11.7575676,149.862442 11.6626126,149.226213 11.5569369,148.597632 C11.1526126,146.149069 10.7727928,143.695918 10.4281982,141.236649 C10.1617117,139.324904 9.9181982,137.410101 9.68846847,135.492238 L9.68693694,135.486121 L9.68693694,135.486121 Z M16.0366667,157.535421 C16.2510811,157.540009 16.463964,157.569068 16.6707207,157.631773 C17.2021622,157.79083 17.6646847,158.142591 17.9587387,158.612116 C18.0812613,158.807878 18.1700901,159.018935 18.2313514,159.240697 C18.3753153,159.803515 18.4794595,160.45045 18.5836036,160.959738 C18.6372072,161.230441 18.7,161.501144 18.7474775,161.773377 C18.794955,162.077727 18.7872973,162.385135 18.7153153,162.684897 C18.6647748,162.892895 18.5866667,163.094775 18.4794595,163.281361 C18.1363964,163.885473 17.5222523,164.309115 16.8361261,164.416173 C16.5772973,164.455937 16.3138739,164.451349 16.0581081,164.403938 C15.787027,164.353468 15.5251351,164.252528 15.2892793,164.110294 C15.0396396,163.958884 14.8206306,163.760062 14.646036,163.527594 C14.4515315,163.269126 14.3167568,162.973953 14.2417117,162.660427 C14.185045,162.39737 14.132973,162.134314 14.0793694,161.871258 C13.9767568,161.363499 13.8220721,160.721153 13.7363063,160.1461 C13.7026126,159.887632 13.7072072,159.626105 13.7608108,159.370696 C13.9017117,158.673292 14.3718919,158.07071 15.0136036,157.761772 C15.2494595,157.648596 15.5021622,157.579773 15.760991,157.547656 C15.8528829,157.53848 15.9447748,157.535421 16.0366667,157.535421 L16.0366667,157.535421 Z" id="Shape" fill="#7FAFF5"></path>
                    <path d="M58.3345045,82.1912631 C58.7771171,82.2004395 59.2181982,82.2249099 59.6577477,82.2753799 C60.7818919,82.4038492 61.8876577,82.6791404 62.9398198,83.0936067 C64.3044144,83.631954 65.5755856,84.4027696 66.6844144,85.3632302 C68.0275676,86.5240416 69.1272072,87.9570856 69.8990991,89.5553042 C70.4320721,90.6610574 70.8072973,91.841751 71.0094595,93.0530326 C71.1074775,93.649497 71.1656757,94.2520789 71.180991,94.8561903 C71.2146847,96.2311172 71.0324324,97.6091029 70.6372973,98.9274421 C70.5484685,99.2226155 70.4489189,99.5147301 70.3401802,99.8022565 C70.232973,100.082136 70.1181081,100.354368 69.968018,100.614366 C69.4151351,101.573297 68.5130631,102.308936 67.4609009,102.657639 C67.0581081,102.792225 66.6369369,102.870225 66.2127027,102.887048 C65.7777477,102.905401 65.3397297,102.861048 64.9185586,102.75552 C64.7347748,102.708109 64.5555856,102.645403 64.3748649,102.588816 C64.2125225,102.538346 64.1742342,102.52764 64.0103604,102.478699 C63.825045,102.4267 63.6397297,102.3747 63.4528829,102.32576 C60.6471171,101.608473 57.6973874,101.460122 54.834955,101.921999 C54.2238739,102.019881 53.6158559,102.14682 53.0154955,102.304348 C52.6555856,102.397641 52.3033333,102.510817 51.9464865,102.614816 C51.8254955,102.646933 51.8254955,102.646933 51.7014414,102.677521 C51.2128829,102.78152 50.7166667,102.825872 50.2158559,102.789167 C48.8420721,102.688227 47.5418018,102.012234 46.6703604,100.944715 C46.4084685,100.623542 46.1848649,100.268722 46.0102703,99.8924909 C45.9321622,99.7257867 45.8678378,99.5560238 45.805045,99.3847315 C45.7254054,99.1186166 45.7254054,99.120146 45.6503604,98.8525017 C45.4727027,98.1795675 45.3302703,97.4989863 45.246036,96.8076994 C45.0882883,95.5061835 45.1204505,94.1832561 45.3517117,92.892446 C45.5783784,91.6337532 45.9903604,90.4102365 46.5738739,89.2738954 C47.335045,87.788852 48.3856757,86.4552188 49.6476577,85.3632302 C50.7564865,84.4027696 52.0291892,83.631954 53.3937838,83.0936067 C54.3433333,82.7189047 55.3372973,82.4589074 56.3496396,82.3166736 C56.8412613,82.2478508 57.3359459,82.2111453 57.8321622,82.1943219 C57.9990991,82.1912631 58.166036,82.1912631 58.3345045,82.1912631 L58.3345045,82.1912631 Z M58.0572973,86.7794507 C57.0372973,86.7993329 56.0295495,86.9874486 55.08,87.3621506 C53.5974775,87.9463798 52.2956757,88.9573104 51.3568468,90.242003 C50.8146847,90.98376 50.395045,91.8142219 50.1209009,92.6905658 C49.8513514,93.5562038 49.7257658,94.464665 49.7456757,95.3700673 C49.7579279,95.9619435 49.8299099,96.5507609 49.9554955,97.1288726 C49.9937838,97.3032237 50.0366667,97.4760454 50.0826126,97.6473377 C50.1086486,97.7406309 50.1331532,97.8629826 50.1745045,97.9532169 C50.1928829,97.9899224 50.2143243,98.0235691 50.2403604,98.0556864 C50.3567568,98.1872145 50.5359459,98.2422727 50.7074775,98.1963909 C50.9433333,98.127568 51.1776577,98.0526277 51.415045,97.9838048 C52.1501802,97.7803952 52.892973,97.6060441 53.644955,97.4699278 C56.7937838,96.9009926 60.059009,96.9376981 63.1971171,97.5616916 C64.1420721,97.7482779 65.0717117,97.9945106 65.9890991,98.2881546 L65.9982883,98.2912134 C66.3398198,97.4393399 66.5343243,96.52782 66.5802703,95.6101825 C66.6262162,94.6588982 66.5144144,93.7014964 66.2418018,92.7884471 C65.9309009,91.7469285 65.4132432,90.7681152 64.7301802,89.9208298 C63.8801802,88.8686055 62.7774775,88.0228496 61.5369369,87.479914 C60.6072973,87.0730947 59.6133333,86.8482736 58.600991,86.7901565 C58.4202703,86.7825095 58.238018,86.7779213 58.0572973,86.7794507 L58.0572973,86.7794507 Z" id="Shape" fill="#7FAFF5"></path>
                    <path d="M57.9102703,104.656559 C63.8281081,104.656559 68.630991,106.377129 68.630991,108.495343 C68.630991,110.615085 63.8281081,112.335656 57.9102703,112.335656 C51.993964,112.335656 47.1895495,110.615085 47.1895495,108.495343 C47.1895495,106.377129 51.993964,104.656559 57.9102703,104.656559 L57.9102703,104.656559 Z M119.143964,104.656559 C125.046486,104.656559 129.838649,106.377129 129.838649,108.495343 C129.838649,110.615085 125.046486,112.335656 119.143964,112.335656 C113.242973,112.335656 108.450811,110.615085 108.450811,108.495343 C108.450811,106.377129 113.242973,104.656559 119.143964,104.656559 L119.143964,104.656559 Z" id="Shape" fill-opacity="0.25098" fill="#009EAB"></path>
                    <path d="M94.6808108,121.190858 C94.8768468,121.189328 95.0636937,121.271916 95.1969369,121.414149 C95.3317117,121.557913 95.3990991,121.750617 95.3853153,121.94485 C94.9932432,125.811163 91.7234234,128.837837 87.7521622,128.837837 C83.8222523,128.837837 80.58,125.875397 80.1435135,122.067202 C80.1251351,121.845439 80.2001802,121.626736 80.3502703,121.46309 C80.5018919,121.299445 80.7132432,121.206152 80.9353153,121.206152 C83.6491892,121.190858 92.1354054,121.190858 94.6808108,121.190858 L94.6808108,121.190858 Z" id="Shape" fill="#544E50"></path>
                    <g id="Clipped" transform="translate(79.639640, 120.822273)">
                        <mask id="mask-2" fill="white">
                            <use xlink:href="#path-1"></use>
                        </mask>
                        <g id="Shape"></g>
                        <path d="M8.07117117,5.26112177 C8.53981982,5.05006514 9.07891892,4.93077227 9.65018018,4.93077227 C11.4742342,4.93077227 12.9552252,6.15428896 12.9552252,7.66074388 C12.9552252,9.16719881 11.4742342,10.3907155 9.65018018,10.3907155 C9.07891892,10.3907155 8.53981982,10.2714226 8.07117117,10.0588366 C7.60252252,10.2714226 7.06495495,10.3907155 6.49216216,10.3907155 C4.66810811,10.3907155 3.18864865,9.16719881 3.18864865,7.66074388 C3.18864865,6.15428896 4.66810811,4.93077227 6.49216216,4.93077227 C7.06495495,4.93077227 7.60252252,5.05006514 8.07117117,5.26112177 L8.07117117,5.26112177 Z" id="Shape" fill="#009EAB" mask="url(#mask-2)"></path>
                    </g>
                    <ellipse id="Oval" fill-opacity="0.501961" fill="#F9F9F9" cx="101.010631" cy="224.353197" rx="44.0269369" ry="3.89995945"></ellipse>
                    <path d="M89.2653153,218.925371 C97.6657658,218.946783 106.066216,219.064546 114.462072,219.350543 C119.062793,219.508071 123.661982,219.71301 128.255045,220.003595 C130.996486,220.177946 133.736396,220.381356 136.47018,220.65053 C138.206937,220.821822 139.945225,221.017585 141.671261,221.279111 C142.743333,221.442757 143.816937,221.626284 144.867568,221.898517 C145.232072,221.99181 145.595045,222.097338 145.948829,222.230395 C146.294955,222.358865 146.638018,222.513334 146.941261,222.72592 C147.175586,222.889565 147.386937,223.089916 147.546216,223.328502 C147.67027,223.515088 147.771351,223.729203 147.814234,223.950966 C147.835676,224.059553 147.858649,224.169669 147.858649,224.281315 C147.86018,224.403667 147.857117,224.469431 147.844865,224.593312 C147.832613,224.701899 147.801982,224.810486 147.76982,224.914485 C147.733063,225.035307 147.679459,225.151542 147.618198,225.260129 C147.262883,225.884122 146.598198,226.234354 145.948829,226.475998 C145.78036,226.538704 145.608829,226.595291 145.435766,226.647291 C145.247387,226.705408 145.057477,226.757407 144.867568,226.807877 C143.816937,227.07858 142.743333,227.262108 141.671261,227.425753 C140.204054,227.649045 138.729189,227.821867 137.254324,227.974806 C133.208018,228.39539 129.147928,228.666093 125.087838,228.887856 C120.257387,229.153971 115.422342,229.337498 110.587297,229.475144 C104.481081,229.646436 98.3718018,229.739729 92.2640541,229.770317 C80.0608108,229.831493 67.8514414,229.666318 55.6589189,229.144794 L55.393964,229.111147 C55.3097297,229.083618 55.2209009,229.065266 55.1397297,229.031619 C54.8916216,228.929149 54.6726126,228.760916 54.5102703,228.549859 C54.4015315,228.407625 54.3172973,228.248568 54.2636937,228.078805 C54.0998198,227.561869 54.2284685,226.985287 54.5945045,226.584585 C54.713964,226.453057 54.8579279,226.34447 55.0156757,226.261883 C55.1734234,226.179296 55.3464865,226.124237 55.5226126,226.101296 C55.6114414,226.089061 55.7002703,226.093649 55.7890991,226.089061 C56.9913514,226.141061 58.1920721,226.188472 59.3927928,226.234354 C68.1592793,226.552468 76.9303604,226.70082 85.7014414,226.720702 C93.5290991,226.739054 101.356757,226.657996 109.181351,226.453057 C115.477477,226.287883 121.775135,226.047768 128.060541,225.648595 C130.50027,225.494126 132.938468,225.315187 135.372072,225.087307 C137.415135,224.896132 139.456667,224.672841 141.484414,224.359315 L141.525766,224.353197 C140.248468,224.148258 138.961982,223.992259 137.677027,223.851555 C136.061261,223.674145 134.442432,223.527323 132.822072,223.397325 C128.696126,223.063916 124.560991,222.832977 120.424324,222.646391 C115.783784,222.438393 111.14018,222.291571 106.496577,222.187572 C100.751802,222.057574 95.0054955,221.993339 89.2607207,221.984163 C83.4240541,221.973457 77.5873874,222.019339 71.7522523,222.129455 C66.5848649,222.227337 61.4174775,222.375688 56.2546847,222.595921 C52.0276577,222.77639 47.8021622,223.001211 43.5843243,223.325443 C41.9088288,223.453912 40.2363964,223.599205 38.567027,223.772026 C37.0462162,223.931084 35.53,224.113082 34.0199099,224.34555 L33.9785586,224.353197 C35.1547748,224.539783 36.3371171,224.686605 37.520991,224.819663 C39.1704505,225.00472 40.8245045,225.1546 42.4785586,225.292246 L42.741982,225.336598 C42.8246847,225.367186 42.911982,225.390127 42.9931532,225.426833 C43.2351351,225.538479 43.448018,225.714359 43.6011712,225.933063 C43.7053153,226.079885 43.7818919,226.242001 43.8293694,226.413293 C43.9718018,226.936347 43.8201802,227.508341 43.4388288,227.892219 C43.3132432,228.019159 43.1662162,228.123158 43.0038739,228.199628 C42.8430631,228.274568 42.6684685,228.321979 42.4908108,228.338803 C42.401982,228.34645 42.3131532,228.340332 42.2243243,228.340332 C41.5504505,228.283744 40.8781081,228.225627 40.2057658,228.165981 C38.3235135,227.9901 36.4427928,227.795867 34.5697297,227.532811 C33.5298198,227.387518 32.4914414,227.222344 31.4637838,227.002111 C30.8113514,226.861406 30.1573874,226.702349 29.5340541,226.466822 C29.1159459,226.310824 28.7009009,226.115061 28.3593694,225.824476 C28.1786486,225.668477 28.0193694,225.488009 27.8983784,225.28154 C27.8003604,225.113307 27.7268468,224.931309 27.6854955,224.743193 C27.6502703,224.584136 27.6334234,224.417432 27.6456757,224.255316 C27.660991,224.068729 27.6916216,223.883672 27.7605405,223.707792 C27.8126126,223.574734 27.8784685,223.447795 27.9565766,223.328502 C28.2291892,222.920153 28.6457658,222.635685 29.0837838,222.426158 C29.5784685,222.192161 30.1083784,222.034633 30.6367568,221.898517 C31.4101802,221.698166 32.1973874,221.548285 32.9861261,221.415227 C35.2573874,221.032878 37.5531532,220.788175 39.8443243,220.57253 C42.6531532,220.311004 45.4665766,220.110653 48.2815315,219.93936 C51.7014414,219.732892 55.1228829,219.572305 58.5458559,219.442307 C66.7732432,219.125722 75.0067568,218.983488 83.2402703,218.934547 C85.2481081,218.9269 87.2574775,218.922312 89.2653153,218.925371 L89.2653153,218.925371 Z M48.5036036,225.715889 C48.7976577,225.723536 49.0901802,225.749535 49.3842342,225.766359 C49.6706306,225.783182 50.0045045,225.7893 50.3108108,225.821417 C50.3843243,225.832123 50.4563063,225.845887 50.5282883,225.86424 C50.731982,225.920828 50.9218919,226.01565 51.0888288,226.148708 C51.2036937,226.240471 51.3047748,226.350588 51.389009,226.47141 C51.6983784,226.919523 51.7458559,227.514458 51.5084685,228.005394 C51.4303604,228.16751 51.3231532,228.314332 51.1945045,228.438213 C51.0581982,228.571271 50.8973874,228.676799 50.7227928,228.75021 C50.5267568,228.832797 50.3169369,228.871032 50.1055856,228.869503 C49.8054054,228.861856 49.5067568,228.837386 49.2065766,228.820562 C48.9247748,228.803739 48.5924324,228.796092 48.2907207,228.762445 C48.0809009,228.734916 47.8787387,228.669152 47.694955,228.560565 C47.2263063,228.283744 46.9353153,227.76222 46.9445045,227.217755 C46.9475676,227.069404 46.9705405,226.922582 47.0164865,226.781878 C47.0700901,226.612115 47.1543243,226.449999 47.2645946,226.309294 C47.380991,226.159413 47.524955,226.030944 47.6888288,225.933063 C47.8695495,225.824476 48.0717117,225.757182 48.2815315,225.728124 C48.355045,225.718947 48.4285586,225.714359 48.5036036,225.715889 L48.5036036,225.715889 Z" id="Shape" fill="#E9E9E9"></path>
                    <path d="M2.2972973,60.5610174 L2.2972973,59.0316216 C2.2972973,58.8297413 2.37846847,58.6339786 2.5209009,58.4917448 C2.66486486,58.3479816 2.85936937,58.2669236 3.06306306,58.2669236 C3.26675676,58.2669236 3.46126126,58.3479816 3.60522523,58.4917448 C3.74765766,58.6339786 3.82882883,58.8297413 3.82882883,59.0316216 L3.82882883,60.5610174 L5.36036036,60.5610174 C5.56405405,60.5610174 5.75855856,60.6420754 5.90252252,60.7858386 C6.04495495,60.9280724 6.12612613,61.1238351 6.12612613,61.3257154 C6.12612613,61.529125 6.04495495,61.7233583 5.90252252,61.8671215 C5.75855856,62.0108847 5.56405405,62.0904133 5.36036036,62.0904133 L3.82882883,62.0904133 L3.82882883,63.6198092 C3.82882883,63.8232188 3.74765766,64.0174521 3.60522523,64.1612153 C3.46126126,64.3049785 3.26675676,64.3845071 3.06306306,64.3845071 C2.85936937,64.3845071 2.66486486,64.3049785 2.5209009,64.1612153 C2.37846847,64.0174521 2.2972973,63.8232188 2.2972973,63.6198092 L2.2972973,62.0904133 L0.765765766,62.0904133 C0.562072072,62.0904133 0.367567568,62.0108847 0.223603604,61.8671215 C0.0811711712,61.7233583 2.77555756e-17,61.529125 2.77555756e-17,61.3257154 C2.77555756e-17,61.1238351 0.0811711712,60.9280724 0.223603604,60.7858386 C0.367567568,60.6420754 0.562072072,60.5610174 0.765765766,60.5610174 L2.2972973,60.5610174 L2.2972973,60.5610174 Z M9.01765766,46.8652775 L11.1081982,52.5087482 L16.7595495,54.5963736 L11.1081982,56.6855283 L9.01765766,62.3289991 L6.92558559,56.6855283 L1.27423423,54.5963736 L6.92558559,52.5087482 L9.01765766,46.8652775 L9.01765766,46.8652775 Z M163.422072,47.4510361 L163.422072,45.9216402 C163.422072,45.7182306 163.501712,45.5239973 163.645676,45.3802341 C163.78964,45.2364709 163.984144,45.1569423 164.187838,45.1569423 C164.39,45.1569423 164.584505,45.2364709 164.728468,45.3802341 C164.872432,45.5239973 164.953604,45.7182306 164.953604,45.9216402 L164.953604,47.4510361 L166.485135,47.4510361 C166.687297,47.4510361 166.881802,47.5305647 167.025766,47.6743279 C167.16973,47.8180911 167.250901,48.0123244 167.250901,48.215734 C167.250901,48.4176143 167.16973,48.6118475 167.025766,48.7556108 C166.881802,48.899374 166.687297,48.980432 166.485135,48.980432 L164.953604,48.980432 L164.953604,50.5098278 C164.953604,50.7117081 164.872432,50.9059413 164.728468,51.0497046 C164.584505,51.1934678 164.39,51.2745257 164.187838,51.2745257 C163.984144,51.2745257 163.78964,51.1934678 163.645676,51.0497046 C163.501712,50.9059413 163.422072,50.7117081 163.422072,50.5098278 L163.422072,48.980432 L161.890541,48.980432 C161.686847,48.980432 161.492342,48.899374 161.348378,48.7556108 C161.204414,48.6118475 161.124775,48.4176143 161.124775,48.215734 C161.124775,48.0123244 161.204414,47.8180911 161.348378,47.6743279 C161.492342,47.5305647 161.686847,47.4510361 161.890541,47.4510361 L163.422072,47.4510361 L163.422072,47.4510361 Z M155.689369,33.1160086 L157.756937,38.6967742 L163.347027,40.762988 L157.756937,42.8276724 L155.689369,48.4099673 L153.62027,42.8276724 L148.031712,40.762988 L153.62027,38.6967742 L155.689369,33.1160086 L155.689369,33.1160086 Z M147.601351,33.1205968 L147.601351,31.591201 C147.601351,31.3877913 147.682523,31.193558 147.826486,31.0497948 C147.968919,30.907561 148.164955,30.826503 148.367117,30.826503 C148.570811,30.826503 148.765315,30.907561 148.909279,31.0497948 C149.051712,31.193558 149.132883,31.3877913 149.132883,31.591201 L149.132883,33.1205968 L150.664414,33.1205968 C150.868108,33.1205968 151.062613,33.2016548 151.206577,33.3438886 C151.349009,33.4876518 151.43018,33.6818851 151.43018,33.8852948 C151.43018,34.0887044 151.349009,34.2829377 151.206577,34.4267009 C151.062613,34.5689347 150.868108,34.6499927 150.664414,34.6499927 L149.132883,34.6499927 L149.132883,36.1793886 C149.132883,36.3827982 149.051712,36.5770315 148.909279,36.7207947 C148.765315,36.8630285 148.570811,36.9440865 148.367117,36.9440865 C148.164955,36.9440865 147.968919,36.8630285 147.826486,36.7207947 C147.682523,36.5770315 147.601351,36.3827982 147.601351,36.1793886 L147.601351,34.6499927 L146.06982,34.6499927 C145.867658,34.6499927 145.671622,34.5689347 145.529189,34.4267009 C145.385225,34.2829377 145.304054,34.0887044 145.304054,33.8852948 C145.304054,33.6818851 145.385225,33.4876518 145.529189,33.3438886 C145.671622,33.2016548 145.867658,33.1205968 146.06982,33.1205968 L147.601351,33.1205968 L147.601351,33.1205968 Z" id="Shape" fill="#B8D4F5"></path>
                    <path d="M119.961802,91.3125801 C120.948108,91.3294034 121.928288,91.4334024 122.893153,91.6352826 C124.66973,92.003867 126.371261,92.6783306 127.957928,93.5500862 C128.810991,94.0180814 129.628829,94.5457229 130.420631,95.11007 L130.575315,95.2217159 C130.679459,95.3012445 130.777477,95.3807731 130.869369,95.4740662 C131.10982,95.7187696 131.293604,96.0185312 131.403874,96.3427631 C131.472793,96.5461727 131.514144,96.7587588 131.523333,96.9728742 C131.56009,97.7543955 131.183333,98.517564 130.54009,98.9641476 C130.328739,99.1109696 130.091351,99.2210861 129.843243,99.2899089 C129.553784,99.3709669 129.247477,99.3939078 128.948829,99.3572023 C128.693063,99.3266144 128.443423,99.251674 128.212162,99.1369693 C128.10955,99.0864993 128.085045,99.0696759 127.987027,99.0100295 C127.723604,98.8310901 127.464775,98.6399157 127.19982,98.4609763 C126.061892,97.702396 124.855045,97.041697 123.563964,96.5813488 C122.692523,96.2708815 121.787387,96.0521779 120.866937,95.9558259 C120.231351,95.8900619 119.591171,95.8824149 118.955586,95.9344144 C117.477658,96.0537073 116.045676,96.5018202 114.720901,97.1579311 C113.733063,97.6458084 112.808018,98.2483903 111.928919,98.9106187 L111.823243,98.9855591 C111.712973,99.0543819 111.604234,99.120146 111.484775,99.1721454 C111.210631,99.2960265 110.911982,99.3648493 110.611802,99.3724963 C110.354505,99.3801433 110.095676,99.3449672 109.849099,99.266968 C109.645405,99.2027333 109.449369,99.1079108 109.27018,98.9901473 C108.619279,98.5557989 108.227207,97.8002773 108.247117,97.018756 C108.256306,96.7189945 108.323694,96.4207623 108.446216,96.145471 C108.55036,95.9114734 108.695856,95.6942992 108.871982,95.5061835 C108.951622,95.4235962 108.974595,95.4052434 109.058829,95.3287736 C109.193604,95.2232453 109.32991,95.1207758 109.467748,95.0183063 C110.236577,94.457018 111.032973,93.935494 111.866126,93.4736164 C113.224595,92.7196243 114.674955,92.1231599 116.185045,91.7515167 C117.254054,91.48999 118.344505,91.3477562 119.444144,91.3156389 C119.617207,91.3125801 119.79027,91.3110507 119.961802,91.3125801 L119.961802,91.3125801 Z" id="Shape" fill="#7FAFF5"></path>
                    <path d="M71.8732432,25.5929104 C84.0504505,27.6300657 96.3363964,27.662183 108.738739,25.5929104 L108.738739,6.51828517 C108.738739,6.12828923 108.502883,5.77652818 108.141441,5.62664738 C107.78,5.47829599 107.364955,5.56241276 107.089279,5.83923341 C105.859459,7.07651466 104.239099,8.70379186 103.337027,9.61072361 C103.156306,9.79272172 102.90973,9.89519124 102.652432,9.89519124 C102.395135,9.89519124 102.148559,9.79272172 101.967838,9.61072361 C100.794685,8.4315594 98.4100901,6.03499608 97.2430631,4.86042006 C96.8678378,4.48571807 96.2598198,4.48112988 95.8815315,4.85277308 C94.6838739,6.0288785 92.2227027,8.44532396 91.0235135,9.62295878 C90.8412613,9.80189809 90.5946847,9.90130883 90.3389189,9.89977943 C90.0831532,9.89672064 89.8381081,9.79425112 89.6589189,9.61225301 C88.4995495,8.43461819 86.1471171,6.04417246 84.9892793,4.86806704 C84.6155856,4.48877686 84.006036,4.48265928 83.6246847,4.85583187 C82.4209009,6.03499608 79.9459459,8.46061792 78.7482883,9.63366455 C78.3715315,10.002249 77.7696396,10.002249 77.3944144,9.63213515 C76.4709009,8.71908582 74.7831532,7.05357373 73.5165766,5.80405731 C73.2393694,5.53029545 72.8258559,5.44923746 72.4659459,5.59911826 C72.1075676,5.74899905 71.8732432,6.09923071 71.8732432,6.48769726 L71.8732432,25.5929104 L71.8732432,25.5929104 Z" id="Shape" fill="#08E67F"></path>
                    <path d="M105.995766,0.980342749 C106.276036,1.00175429 106.548649,1.05834194 106.807477,1.16539965 C107.462973,1.43457332 107.982162,1.98362644 108.214955,2.65197243 C108.296126,2.88597 108.335946,3.12761454 108.351261,3.37537667 C108.472252,9.7636632 108.352793,16.1550085 108.352793,22.5448244 C108.345135,22.690117 108.332883,22.8277627 108.291532,22.9684671 C108.170541,23.3859922 107.871892,23.7377532 107.47982,23.9243395 C107.346577,23.9885741 107.211802,24.0237502 107.069369,24.0528088 C106.677297,24.1170434 106.286757,24.181278 105.894685,24.2424538 C103.94045,24.5437448 101.981622,24.8037421 100.015135,25.0086812 C96.125045,25.4124417 92.2135135,25.6158513 88.301982,25.6127925 C84.2189189,25.6112631 80.1343243,25.3833832 76.0757658,24.9367996 C73.9438739,24.7012726 71.8211712,24.401511 69.7061261,24.0528088 L69.5652252,24.0237502 C69.4258559,23.9793978 69.2956757,23.9319865 69.1700901,23.8570461 C68.8392793,23.659754 68.5911712,23.3385809 68.483964,22.9684671 C68.4426126,22.8277627 68.4303604,22.690117 68.4242342,22.5448244 L68.4242342,21.0154286 C68.4303604,20.8854299 68.4272973,20.8533126 68.4518018,20.7248434 C68.4977477,20.4862576 68.6018919,20.259907 68.751982,20.0687325 C68.8423423,19.9555572 68.948018,19.8530877 69.0674775,19.7689709 C69.5085586,19.4554448 70.0981982,19.3988571 70.5913514,19.6236783 C70.7245946,19.6848542 70.8486486,19.7643828 70.9589189,19.8592053 C71.2162162,20.0824971 71.3954054,20.3914351 71.4597297,20.7248434 C71.4918919,20.8961357 71.4872973,21.0689574 71.4872973,21.2417792 C71.9988288,21.3213077 72.5118919,21.3962481 73.0264865,21.4711885 C74.7157658,21.7051861 76.4081081,21.9085958 78.1065766,22.0691823 C81.3074775,22.3720027 84.5206306,22.5341187 87.7368468,22.5524714 C91.5381081,22.5754124 95.3424324,22.3980024 99.1268468,22.0233004 C101.188288,21.8198908 103.242072,21.5553053 105.28973,21.2417792 L105.28973,4.84206731 L102.491622,7.6530969 L102.415045,7.72650791 C102.197568,7.91615299 101.961712,8.07368077 101.693694,8.18532667 C101.045856,8.45450034 100.298468,8.43614759 99.6644144,8.136386 C99.4071171,8.01403433 99.181982,7.85038897 98.9767568,7.6546263 L94.6348649,3.2897305 L90.1658559,7.67909663 L90.0892793,7.74944884 C89.8687387,7.93603514 89.6328829,8.09203352 89.3633333,8.19909123 C88.7154955,8.46061792 87.9727027,8.43614759 87.3432432,8.13332721 C87.0874775,8.00944614 86.8638739,7.84427139 86.6617117,7.64850872 L82.374955,3.29431869 L77.8890991,7.6913318 L77.810991,7.7647428 C77.5889189,7.9497997 77.35,8.10579808 77.0804505,8.21438519 C76.4096396,8.48050007 75.6377477,8.44226517 74.9975676,8.10885687 C74.7816216,7.99568158 74.5901802,7.85038897 74.4140541,7.68521422 L71.4872973,4.79618543 L71.4872973,11.8390534 L71.4796396,11.984346 C71.4735135,12.0317573 71.4689189,12.0806979 71.4597297,12.1281092 C71.422973,12.3192837 71.3494595,12.5012818 71.2437838,12.6649272 C70.9236937,13.1635102 70.3248649,13.4372721 69.7367568,13.3516259 C69.5927928,13.3317437 69.4518919,13.2904501 69.3186486,13.2292742 C69.1425225,13.1497456 68.9817117,13.035041 68.8469369,12.8943365 C68.6447748,12.6832799 68.5069369,12.4141062 68.4518018,12.1281092 C68.4272973,12.0011693 68.4303604,11.9675226 68.4242342,11.8390534 C68.4242342,9.00814164 68.3721622,6.1757005 68.4257658,3.34478876 C68.4502703,2.91502852 68.5666667,2.50209163 68.7933333,2.13350723 C68.9204505,1.92856818 69.0766667,1.74045249 69.2573874,1.57986593 C69.4181982,1.43763211 69.5973874,1.31528044 69.7888288,1.21739911 C70.4198198,0.897755372 71.1718018,0.861049872 71.8303604,1.11798838 C72.1443243,1.24186944 72.4230631,1.42692634 72.6665766,1.65786512 L76.1554054,5.103594 L80.6489189,0.701992702 L80.727027,0.6285817 C80.9506306,0.440466009 81.1910811,0.282938235 81.4652252,0.175880524 C82.1421622,-0.0917637519 82.9217117,-0.0474112718 83.5634234,0.298232194 C83.7809009,0.414466279 83.9723423,0.562817678 84.1484685,0.732580619 L88.4352252,5.08677064 L92.9027027,0.700463306 L92.9808108,0.627052304 C93.2044144,0.438936613 93.4448649,0.282938235 93.7159459,0.174351129 C94.3913514,-0.0932931477 95.1693694,-0.0504700635 95.8110811,0.289055818 C96.027027,0.403760508 96.2184685,0.552111907 96.3961261,0.720345452 L100.733423,5.08065306 C101.872883,3.93513556 102.990901,2.76820651 104.151802,1.64715935 C104.222252,1.58445412 104.222252,1.58445412 104.294234,1.52480768 C104.611261,1.28010434 104.96964,1.10422381 105.363243,1.02469523 C105.511802,0.995636708 105.661892,0.981872145 105.813514,0.977283957 C105.905405,0.977283957 105.903874,0.977283957 105.995766,0.980342749 L105.995766,0.980342749 Z M69.9848649,14.8978451 C70.1563964,14.9024333 70.3263964,14.9330212 70.4887387,14.9926677 C70.912973,15.1501954 71.2514414,15.4958389 71.4015315,15.9225403 C71.4551351,16.0785387 71.4842342,16.2421841 71.4872973,16.4073588 C71.4888288,16.6688855 71.5026126,16.9395886 71.4811712,17.2041741 C71.4597297,17.4152307 71.3984685,17.6201698 71.2958559,17.8052267 C71.2009009,17.9780484 71.0707207,18.1325174 70.9175676,18.2563984 C70.7736036,18.3726325 70.6081982,18.4613375 70.4320721,18.5194545 C70.2697297,18.5729834 70.0966667,18.5989831 69.9251351,18.5943949 C69.3201802,18.5836891 68.7657658,18.204399 68.5375676,17.6446401 C68.4655856,17.4672302 68.4272973,17.2775851 68.4242342,17.0864106 C68.4227027,16.8248839 68.4073874,16.5526514 68.4303604,16.288066 C68.483964,15.7283071 68.8454054,15.2312534 69.3676577,15.0140792 C69.5131532,14.9544328 69.6693694,14.9177273 69.8271171,14.9024333 C69.8791892,14.8993745 69.9327928,14.8963157 69.9848649,14.8978451 L69.9848649,14.8978451 Z" id="Shape" fill="#F2C223"></path>
                </g>
            </g>
        </g>
    </g>
</svg>