<?xml version="1.0" encoding="UTF-8"?>
<svg width="18px" height="18px" viewBox="0 0 18 18" version="1.1" xmlns="http://www.w3.org/2000/svg" xmlns:xlink="http://www.w3.org/1999/xlink">
    <!-- Generator: Sketch 48.2 (47327) - http://www.bohemiancoding.com/sketch -->
    <title>:: icon (help)</title>
    <desc>Created with Sketch.</desc>
    <defs></defs>
    <g id="M-::-User-›-Subscriptions-(default)" stroke="none" stroke-width="1" fill="none" fill-rule="evenodd" transform="translate(-1365.000000, -591.000000)">
        <g id="COLLECTIVES" transform="translate(160.000000, 205.000000)">
            <g id="::-active" transform="translate(15.000000, 0.000000)">
                <g id="::-04" transform="translate(959.000000, 0.000000)">
                    <g id="::-toggle-(open-close-transactions)" transform="translate(44.000000, 384.000000)">
                        <g id="::-icon-(help)" transform="translate(187.000000, 2.000000)">
                            <circle id="base" fill="#3399FF" cx="9" cy="9" r="9"></circle>
                            <path d="M8.27065327,11.6631966 L9.76236181,11.6631966 L9.76236181,13 L8.27065327,13 L8.27065327,11.6631966 Z M7.1419598,5.53499086 C7.66733668,5.23245825 8.15351759,5 8.97060302,5 C10.1894472,5 10.4653266,5.16305767 11.090201,5.60910798 C11.6555276,6.0127094 12,6.5362458 12,7.28011219 C12,7.73626938 11.7256281,8.22881135 11.4708543,8.54077705 C11.3223618,8.73011261 11.1248744,8.91810058 10.7020101,9.21322148 L10.2407035,9.52990373 C10.0145729,9.68757106 9.78994975,9.92609344 9.71532663,10.1363165 C9.66859296,10.2697274 9.67160804,10.556089 9.66859296,10.8363865 L8.26658291,10.8363865 C8.28994975,10.2434495 8.29221106,9.75495027 8.39396985,9.52855615 C8.49572864,9.30216203 8.7580402,9.04140452 9.18090452,8.74695741 L9.59321608,8.44644617 C9.73417085,8.35211529 9.95125628,8.20792379 10.0371859,8.09540053 C10.1939698,7.90269601 10.330402,7.62307232 10.330402,7.39128787 C10.330402,7.12446623 10.3469849,6.93580447 10.1728643,6.71614827 C9.96934673,6.46145489 9.7839196,6.18115741 8.9080402,6.16768157 C8.2258794,6.15690089 7.93492462,6.4688666 7.74572864,6.7383834 C7.55577889,7.0092478 7.49095477,7.31649696 7.49095477,7.60757511 L6,7.60757511 C6.04748744,6.60766775 6.40778894,5.95274191 7.1419598,5.53499086 Z" id="question-mark" fill="#FFFFFF" fill-rule="nonzero"></path>
                        </g>
                    </g>
                </g>
            </g>
        </g>
    </g>
</svg>