<?xml version="1.0" encoding="utf-8"?>
<!-- Generator: Adobe Illustrator 22.1.0, SVG Export Plug-In . SVG Version: 6.00 Build 0)  -->
<svg version="1.1" id="Capa_1" xmlns="http://www.w3.org/2000/svg" xmlns:xlink="http://www.w3.org/1999/xlink" x="0px" y="0px"
	 viewBox="0 0 460 348" style="enable-background:new 0 0 460 348;" xml:space="preserve">
<style type="text/css">
	.st0{opacity:0.2;fill:url(#SVGID_1_);enable-background:new    ;}
	.st1{enable-background:new    ;}
	.st2{fill:#0079F2;}
	.st3{fill:#197FF9;}
	.st4{fill:#B8D3F4;}
	.st5{fill:#B8BAF4;}
	.st6{fill:url(#SVGID_2_);}
	.st7{fill:#469AED;}
	.st8{fill:url(#SVGID_3_);}
	.st9{opacity:0.82;}
	.st10{fill:url(#SVGID_4_);}
	.st11{fill:#FFFFFF;}
	.st12{fill:#4292C5;}
	.st13{fill:none;}
	.st14{fill:#0098D2;}
	.st15{fill:#3385FF;}
	.st16{fill:#0084B5;}
	.st17{fill:#8EDCF4;}
	.st18{fill:#19A4F9;}
	.st19{fill:#0D7AD3;}
	.st20{fill:url(#SVGID_5_);}
	.st21{fill:#FFFFFF;stroke:#EAEAEA;stroke-width:0.25;stroke-miterlimit:10;}
	.st22{fill:#EAEAEA;}
	.st23{fill:#C6C6C6;}
	.st24{fill:none;stroke:#0098D2;stroke-linecap:round;stroke-miterlimit:10;}
	.st25{opacity:0.2;fill:url(#SVGID_6_);enable-background:new    ;}
	.st26{fill:url(#SVGID_7_);}
	.st27{fill:url(#SVGID_8_);}
	.st28{fill:url(#SVGID_9_);}
	.st29{fill:#48A1F9;}
	.st30{fill:none;stroke:#9999FF;stroke-width:0.5;stroke-miterlimit:10;}
	.st31{fill:none;stroke:#9999FF;stroke-width:0.5;stroke-miterlimit:10;stroke-dasharray:1.0286,1.0286;}
	.st32{fill:none;stroke:#9999FF;stroke-width:0.5;stroke-miterlimit:10;stroke-dasharray:1.0124,1.0124;}
	.st33{fill:#48A1F9;stroke:#9999FF;stroke-width:0.5;stroke-miterlimit:10;stroke-dasharray:1;}
	.st34{fill:url(#SVGID_10_);}
	.st35{fill:none;stroke:#0098D2;stroke-miterlimit:10;}
	.st36{opacity:0.2;fill:url(#SVGID_11_);enable-background:new    ;}
	.st37{fill:url(#SVGID_12_);}
	.st38{fill:url(#SVGID_13_);}
	.st39{fill:url(#SVGID_14_);}
	.st40{fill:#9DD1F4;}
	.st41{fill:#ECF3FF;}
	.st42{opacity:0.2;fill:url(#SVGID_15_);enable-background:new    ;}
	.st43{fill:url(#SVGID_16_);}
	.st44{fill:url(#SVGID_17_);}
	.st45{fill:url(#SVGID_18_);}
	.st46{fill:#3364FF;}
	.st47{fill:none;stroke:#9999FF;stroke-width:0.5;stroke-miterlimit:10;stroke-dasharray:1.0033,1.0033;}
	.st48{fill:none;stroke:#9999FF;stroke-width:0.5;stroke-miterlimit:10;stroke-dasharray:1.0145,1.0145;}
	.st49{fill:#3364FF;stroke:#9999FF;stroke-width:0.5;stroke-miterlimit:10;stroke-dasharray:1;}
	.st50{fill:#3AC0EF;}
	.st51{fill:url(#SVGID_19_);}
	.st52{fill:none;stroke:#7EC1EB;stroke-width:0.75;stroke-miterlimit:10;}
	.st53{fill:#C4DEF7;}
	.st54{fill:#CECECE;}
	.st55{fill:#B7B7B7;}
	.st56{opacity:0.2;fill:url(#SVGID_20_);enable-background:new    ;}
	.st57{fill:url(#SVGID_21_);}
	.st58{fill:url(#SVGID_22_);}
	.st59{fill:url(#SVGID_23_);}
	.st60{fill:url(#SVGID_24_);}
</style>
<linearGradient id="SVGID_1_" gradientUnits="userSpaceOnUse" x1="132.8503" y1="188.3836" x2="113.5012" y2="213.1806" gradientTransform="matrix(1 0 0 -1 0 348)">
	<stop  offset="0" style="stop-color:#469AED;stop-opacity:0"/>
	<stop  offset="0.8775" style="stop-color:#469AED"/>
</linearGradient>
<polygon class="st0" points="101.4,146.6 123.1,168.3 151.4,156.1 128,132.7 "/>
<g class="st1">
	<g>
		<polygon class="st2" points="133.7,128.1 133.6,141.7 127.6,141.6 127.6,128 		"/>
	</g>
	<g>
		<path class="st3" d="M106.4,142.7v-13.6c0-1.6,1-3.1,3-4.3c4.1-2.4,11-2.4,15.2,0.1c1.6,0.9,2.5,2,2.9,3.1v13.6
			c-0.4-1.2-1.4-2.2-2.9-3.1c-4.2-2.4-11.1-2.5-15.2-0.1C107.4,139.6,106.4,141.2,106.4,142.7z"/>
	</g>
	<g>
		<polygon class="st4" points="119.7,138.9 119.6,152.5 119.6,149 119.6,135.4 		"/>
	</g>
	<g>
		<path class="st5" d="M133.8,130.7v13.6c-0.5,2-2,4-4.6,5.5c-2.6,1.5-6,2.4-9.5,2.7v-13.6c3.5-0.3,6.9-1.2,9.5-2.7
			C131.8,134.7,133.4,132.7,133.8,130.7z"/>
	</g>
	<g>
		
			<linearGradient id="SVGID_2_" gradientUnits="userSpaceOnUse" x1="126.3645" y1="215.3218" x2="127.5913" y2="186.9293" gradientTransform="matrix(1 0 0 -1 0 348)">
			<stop  offset="0" style="stop-color:#469AED;stop-opacity:0"/>
			<stop  offset="0.8725" style="stop-color:#FFFFED"/>
		</linearGradient>
		<path class="st6" d="M133.8,130.7v13.6c-0.5,2-2,4-4.6,5.5c-2.6,1.5-6,2.4-9.5,2.7v-13.6c3.5-0.3,6.9-1.2,9.5-2.7
			C131.8,134.7,133.4,132.7,133.8,130.7z"/>
	</g>
	<g>
		<path class="st4" d="M133.8,130.7c-0.5,2-2,4-4.6,5.5c-2.6,1.5-6,2.4-9.5,2.7l-0.1-3.5c1.9-0.2,3.8-0.8,5.3-1.7s2.4-1.9,2.9-3
			H133.8z"/>
	</g>
	<g>
		<path class="st7" d="M100.3,142.6V129c0,2.5,1.7,5.1,5.1,7.1c2.8,1.6,6.2,2.5,9.7,2.8v13.6c-3.5-0.3-6.9-1.2-9.7-2.8
			C102,147.7,100.3,145.2,100.3,142.6z"/>
	</g>
	<g>
		<path class="st3" d="M100.3,142.6V129c0,2.5,1.7,5.1,5.1,7.1c2.8,1.6,6.2,2.5,9.7,2.8v13.6c-3.5-0.3-6.9-1.2-9.7-2.8
			C102,147.7,100.3,145.2,100.3,142.6z"/>
	</g>
	<g>
		
			<linearGradient id="SVGID_3_" gradientUnits="userSpaceOnUse" x1="109.3755" y1="231.4723" x2="122.0654" y2="210.2607" gradientTransform="matrix(1 0 0 -1 0 348)">
			<stop  offset="0" style="stop-color:#99D3F5"/>
			<stop  offset="0.5225" style="stop-color:#3385FF"/>
			<stop  offset="0.9925" style="stop-color:#3385FF"/>
		</linearGradient>
		<path class="st8" d="M128.8,122.5c2.7,1.6,4.3,3.6,4.8,5.6h-6.1c-0.4-1.2-1.4-2.2-2.9-3.1c-4.2-2.4-11.1-2.5-15.2-0.1
			s-4,6.4,0.2,8.8c1.6,0.9,3.5,1.5,5.4,1.8l0.1,3.5c-3.5-0.3-6.9-1.2-9.7-2.8c-6.6-3.8-6.9-9.9-0.3-13.7
			C111.6,118.6,122.2,118.7,128.8,122.5z"/>
	</g>
	<g class="st9">
		
			<linearGradient id="SVGID_4_" gradientUnits="userSpaceOnUse" x1="107.7" y1="212.6542" x2="107.7" y2="183.4577" gradientTransform="matrix(1 0 0 -1 0 348)">
			<stop  offset="0" style="stop-color:#FFFFFF;stop-opacity:0"/>
			<stop  offset="0.411" style="stop-color:#FFFFFB;stop-opacity:0.4711"/>
			<stop  offset="0.8321" style="stop-color:#FFFFEF;stop-opacity:0.9537"/>
			<stop  offset="0.8725" style="stop-color:#FFFFED"/>
		</linearGradient>
		<path class="st10" d="M100.3,142.6V129c0,2.5,1.7,5.1,5.1,7.1c2.8,1.6,6.2,2.5,9.7,2.8v13.6c-3.5-0.3-6.9-1.2-9.7-2.8
			C102,147.7,100.3,145.2,100.3,142.6z"/>
	</g>
</g>
<g>
	<path class="st11" d="M126.2,43.4c0.9,0.5,1.4,0.5,1.4,0s-0.6-1.3-1.7-2.3c-1-0.9-1.7-1.7-2.1-2.5c-0.6-0.9-0.8-1.8-0.8-2.7
		c0-1.8,1-2.5,2.9-1.8v-1.7l1.8,1.1v1.6c0.5,0.3,1,0.7,1.4,1s0.7,0.6,1,1l-0.5,2.2l-0.4-0.4c-0.2-0.2-0.4-0.4-0.5-0.5
		c-0.5-0.4-1-0.8-1.5-1.1c-0.8-0.5-1.2-0.5-1.2,0.1c0,0.4,0.6,1.2,1.9,2.5c1.9,1.8,2.8,3.5,2.8,5.1c0,1.9-1,2.6-3,1.8v1.9l-1.8-1.1
		v-1.7c-1.1-0.7-2.1-1.5-2.9-2.4l0.5-2.3c0.4,0.5,0.8,0.9,1.3,1.3C125.1,42.8,125.7,43.1,126.2,43.4 M135.2,33l-17.5-10.1
		c-2.2-1.3-4-0.2-4,2.3v14.6c0,2.5,1.8,5.7,4,6.9l4.9,2.8l3.8,9l3.9-4.5l4.9,2.8c2.2,1.3,4,0.2,4-2.3V39.9
		C139.2,37.4,137.4,34.3,135.2,33"/>
	<path class="st12" d="M127.6,33.4l-1.8-1.1V34c-1.9-0.7-2.9-0.1-2.9,1.8c0,0.9,0.3,1.8,0.8,2.7c0.5,0.8,1.2,1.6,2.1,2.5
		c1.1,1.1,1.7,1.8,1.7,2.3c0,0.6-0.5,0.6-1.4,0c-0.5-0.3-1-0.7-1.5-1.1c-0.4-0.4-0.9-0.8-1.3-1.3l-0.5,2.3c0.8,0.9,1.7,1.7,2.9,2.4
		v1.7l1.8,1.1v-1.9c2,0.8,3,0.1,3-1.8c0-1.7-0.9-3.3-2.8-5.1c-1.3-1.2-1.9-2.1-1.9-2.5c0-0.5,0.4-0.6,1.2-0.1c0.5,0.3,1,0.7,1.5,1.1
		c0.2,0.2,0.4,0.3,0.5,0.5l0.4,0.4l0.6-2c-0.3-0.3-0.7-0.7-1-1c-0.4-0.4-0.9-0.7-1.4-1V33.4"/>
</g>
<polygon class="st13" points="113.6,51.1 113.6,20.6 139.2,35.3 139.1,65.9 "/>
<circle class="st14" cx="94.1" cy="148.7" r="3.4"/>
<g>
	<path class="st15" d="M116,96c-0.6,2.1-1.5,4.1-2.1,6.1c9.5,3.7,13.6,6.4-0.6,16.2c0.3,0.7,0.7,1.4,1.2,2
		C135.7,106.9,127.1,103.9,116,96z"/>
	<path class="st16" d="M113.1,118.8c0.4,0.3,0.6,1.1,1,1.5c0,0.4,0.6,2.9-0.1,2.8s-1.9-2.9-2.4-3.6
		C112,119.3,112.7,118.5,113.1,118.8z"/>
	<g>
		
			<rect x="123.7" y="76.7" transform="matrix(0.9957 -9.248191e-02 9.248191e-02 0.9957 -6.9066 11.9137)" class="st14" width="2.7" height="7.6"/>
		
			<rect x="123.6" y="76.6" transform="matrix(0.9957 -9.248191e-02 9.248191e-02 0.9957 -6.8569 11.9023)" class="st17" width="2.7" height="6.6"/>
	</g>
	<g>
		<g>
			<path class="st16" d="M134.4,131.1c-6.4,0-11.6-5.2-11.6-11.6s5.2-11.6,11.6-11.6c6.4,0,11.6,5.2,11.6,11.6
				S140.9,131.1,134.4,131.1z M134.4,108.7c-5.9,0-10.8,4.8-10.8,10.8c0,5.9,4.8,10.8,10.8,10.8c5.9,0,10.8-4.8,10.8-10.8
				C145.2,113.6,140.4,108.7,134.4,108.7z"/>
		</g>
		<g>
			<path class="st16" d="M89.5,131.1c-6.4,0-11.6-5.2-11.6-11.6s5.2-11.6,11.6-11.6s11.6,5.2,11.6,11.6S95.9,131.1,89.5,131.1z
				 M89.5,108.7c-5.9,0-10.8,4.8-10.8,10.8c0,5.9,4.8,10.8,10.8,10.8c5.9,0,10.8-4.8,10.8-10.8C100.3,113.6,95.4,108.7,89.5,108.7z"
				/>
		</g>
		<g>
			<path class="st16" d="M135.4,119.7c0,0-4.7-4.7-7.6-11.9l-2.7-4.9c-0.2-0.5-2.1-4.8-2.2-5.4c0-0.2,0-0.3,0.2-0.5
				c0.6-0.7,2.7-1.9,3.7-1.9c0.4,0,0.5,0.2,0.5,0.3c0,0.2,0.1,0.5-1.5,1.5l-0.3-0.5c0.4-0.2,0.8-0.5,1-0.7c-1,0.2-2.9,1.3-3,1.7
				c0.1,0.5,1.4,3.4,2.2,5.2l2.7,4.9c2.8,7,7.4,11.6,7.5,11.7L135.4,119.7z"/>
		</g>
		<g>
			
				<rect x="105.8" y="110.5" transform="matrix(0.8155 -0.5787 0.5787 0.8155 -42.5208 88.179)" class="st16" width="22.5" height="0.6"/>
		</g>
		<g>
			
				<rect x="107.2" y="114.1" transform="matrix(0.7285 -0.685 0.685 0.7285 -46.0909 112.4964)" class="st16" width="23.3" height="0.6"/>
		</g>
		<g>
			
				<rect x="104.5" y="101.3" transform="matrix(0.8603 -0.5098 0.5098 0.8603 -42.5682 69.0919)" class="st16" width="0.6" height="21.8"/>
		</g>
		<g>
			
				<rect x="86.7" y="112.8" transform="matrix(0.6866 -0.7271 0.7271 0.6866 -52.3204 104.8861)" class="st16" width="17.6" height="0.6"/>
		</g>
		<g>
			<circle class="st16" cx="136.2" cy="119.9" r="1.7"/>
		</g>
		<g>
			<ellipse class="st16" cx="100" cy="102.1" rx="5.2" ry="1.1"/>
		</g>
		<g>
			<path class="st18" d="M104,123.8c-8.1-0.1-14.1-1.3-15.6-3.1c-0.3-0.4-0.4-0.8-0.4-1.2c0.4-2.4,8.9-1.7,9.3-1.6v0.3
				c-2.4-0.2-8.7-0.4-9,1.4c-0.1,0.3,0.1,0.6,0.3,0.9c1.5,1.7,7.5,2.9,15.4,3L104,123.8z"/>
		</g>
		<g>
			<circle class="st16" cx="89.8" cy="119.9" r="1.7"/>
		</g>
		<g>
			<path class="st19" d="M96.2,117.3l14.4-0.4c0,0,3.4,0,3.5,3.4s-1.9,4.4-4.1,4.4s-8.5-0.4-8.5-0.4l0.3-1.8c0,0,5,0.8,5.9-1.7
				s-11-2.2-11-2.2L96.2,117.3z"/>
		</g>
		<g>
			<circle class="st18" cx="110.1" cy="120.9" r="2.7"/>
		</g>
	</g>
	<g>
		<path class="st11" d="M125.9,95.5c0,0,0.6,2.5,1.2,2.5c0.6,0.1-0.6-2-0.6-2s2.9,2.2,3.5,2s-3-3.4-3-3.4L125.9,95.5z"/>
		<path class="st14" d="M112.6,77.6c-0.8,0.7-1.6,1.1-2.5,1.3l15.8,16.4l1-0.7C122.5,87.8,116.5,81.4,112.6,77.6z"/>
		<g>
			<path class="st15" d="M112.9,93.7c-4.2,3.5-8.6,3.1-13.5,4.9l0,0l0,0c4.6,17.2,9.6,10.1,6.6,31.6c0.8-0.1,1.5-0.1,2.3-0.2
				c5.1-14.9,4.7-14.6,0.4-28.9c0.1-0.4,1.5-0.5,1.5-0.4c1.3,0.5,2.5,1,3.7,1.4c0.6-2,1.4-4,2.1-6.1C115,95.2,114,94.5,112.9,93.7z"
				/>
			<path class="st16" d="M106.1,130.4c0.4-0.3,1.2-0.1,1.7-0.2c0.4,0.2,2.8,0.7,2.4,1.4s-3.3,0.3-4.2,0.5
				C106,131.7,105.7,130.7,106.1,130.4z"/>
			<path class="st4" d="M109.3,89.7c0-1.2,0.4-2.3,0.9-3.4c0.1-0.2,0.2-0.3,0.3-0.5c2.6,0.4,3-0.8,3-2.3c0-0.2,0-0.4,0-0.6
				c-1.1-1.5,0.9-4.5-1.8-6.2c-0.2-0.1-0.4-0.1-0.6-0.2c-0.6-0.2-1.2-0.3-1.6-0.4c-0.2,0-0.4,0-0.6,0s-0.3-0.1-0.6,0
				c-1.5,0.2-5.5-0.4-6.2,1.4c-1.7,4.1-2.1,8.5-2.7,13.1c-0.3,2.5-0.5,6.2,0.1,8.8c2.7-1.1,6.4-0.7,8.9-1.5s3.4-2.7,5.3-4
				C112.6,92.3,109.4,91.9,109.3,89.7z"/>
			<path class="st11" d="M104.7,76.7c-0.2,1.1,3,1.4,3.8,1.5s3.5,0.5,3.7-0.7s-2.5-1.4-3.3-1.4C108.1,76.1,104.8,75.6,104.7,76.7z"
				/>
			
				<linearGradient id="SVGID_5_" gradientUnits="userSpaceOnUse" x1="694.4225" y1="276.2469" x2="694.4225" y2="271.6598" gradientTransform="matrix(-1 0 0 -1 802.9725 348)">
				<stop  offset="0" style="stop-color:#E2E3E4"/>
				<stop  offset="0.9872" style="stop-color:#FFFFFF"/>
			</linearGradient>
			<path class="st20" d="M106.8,70.8c0.3,1.7,1,4.8-0.8,5.7c1.5,1.1,3.3,0.9,5.1,0.5c-1.6-1.4-1.3-4.1-1.2-5.9
				C108.8,71,107.8,70.9,106.8,70.8z"/>
			<path class="st11" d="M105.6,69.4c0.3,2.2,4,4.9,6.6,4.6c1.9-0.2,2-4.3,1.8-6.3c-0.2-1.9-2.6-3.7-4.8-3.4
				C106.1,64.7,105.2,66.2,105.6,69.4z"/>
			<path class="st4" d="M112.8,65.4c-1.3-1.7-2.5-2.8-4.9-2.7s-5.7,3.1-4.8,5.6c0.9,2.4,2.4,3,4,4.5c-0.2-1-0.5-2-0.8-2.9
				c0.3-0.4,0.6-0.9,0.9-1.3c1.3-0.1,1.3-0.2,1.7-1.8C109.2,65.3,111.9,66.6,112.8,65.4z"/>
			<path class="st4" d="M103,67.5c0.3,1.3,1.1,5.3-0.4,5.8c-1.6,0.6-2.5-1.5-3.4-2.3c0.8,0.3,2.1,0.9,1.9-0.7
				C100.9,68.8,100.5,66.6,103,67.5z"/>
			<path class="st21" d="M107.2,69c-0.2-0.6-0.1-1.7-1.3-1.4c-1.3,0.2-0.5,2.8,1.1,2.7"/>
			<path class="st11" d="M112.8,66.3c0,0.5,0.2,0.9,0.4,1.4s0.5,1.5,0.6,2.1c0.1,1,0.3,1.7,0.5,2.7c-0.4-0.2-0.9-0.3-1.3-0.5
				C112.8,70.1,112.8,68.2,112.8,66.3z"/>
			<path class="st22" d="M113.1,72c0.2,0.2,0.3,0.3,0.5,0.5c0-0.1,0-0.2,0.1-0.3C113.5,72.2,113.3,72.1,113.1,72z"/>
			<path class="st23" d="M112,69.9c0,0.1,0.1,0.2,0.2,0.2s0.2-0.1,0.2-0.2s-0.1-0.2-0.2-0.2C112.1,69.7,112,69.8,112,69.9z"/>
		</g>
		<g>
			<path class="st11" d="M122.9,82.6c0.2-0.6,0.7-2.3,1.4-2.4s-0.5,1.5-0.6,1.6c0.7-0.4,2.8-1.6,3.5-1.1s-2.9,2.4-3.1,2.8
				C123.6,83.2,123.3,82.9,122.9,82.6z"/>
			<path class="st11" d="M123.8,83.6c-0.3-0.3-0.7-0.5-1-0.7c-3.5,4.2-7.9,7-11.3,6.6c0,1.1,0,2.2,0.1,3.4
				C114.6,92.2,118.7,89.2,123.8,83.6z"/>
			<path class="st14" d="M105.9,80.8c-0.3-3.3-0.8-3.1-3.6-2.5c1.4,10.6,4.2,15.7,9.3,14.6c0-1.1,0-2.3-0.1-3.4
				C108.6,89.2,106.4,86.6,105.9,80.8z"/>
		</g>
	</g>
</g>
<path class="st24" d="M126.9,143.7c0,0,14.8-8.4,20.4,1.5c5.6,10,18.7,7.3,18.7,7.3"/>
<linearGradient id="SVGID_6_" gradientUnits="userSpaceOnUse" x1="329.4015" y1="193.8821" x2="310.0523" y2="218.6791" gradientTransform="matrix(1 0 0 -1 0 348)">
	<stop  offset="0" style="stop-color:#469AED;stop-opacity:0"/>
	<stop  offset="0.8775" style="stop-color:#469AED"/>
</linearGradient>
<polygon class="st25" points="298,141.1 319.7,162.8 347.9,150.6 324.5,127.2 "/>
<g class="st1">
	<g>
		<polygon class="st2" points="330.9,123.7 330.9,137.4 324.8,137.3 324.8,123.7 		"/>
	</g>
	<g>
		<path class="st3" d="M303.6,138.4v-13.6c0-1.6,1-3.1,3-4.3c4.1-2.4,11-2.4,15.2,0.1c1.6,0.9,2.5,2,2.9,3.1v13.6
			c-0.4-1.2-1.4-2.2-2.9-3.1c-4.2-2.4-11.1-2.5-15.2-0.1C304.7,135.3,303.6,136.9,303.6,138.4z"/>
	</g>
	<g>
		<polygon class="st4" points="316.9,134.6 316.9,148.2 316.8,144.7 316.8,131 		"/>
	</g>
	<g>
		<path class="st5" d="M331,126.4V140c-0.5,2-2,4-4.6,5.5s-6,2.4-9.5,2.7v-13.6c3.5-0.3,6.9-1.2,9.5-2.7
			C329.1,130.4,330.6,128.4,331,126.4z"/>
	</g>
	<g>
		
			<linearGradient id="SVGID_7_" gradientUnits="userSpaceOnUse" x1="323.5641" y1="219.6322" x2="324.7909" y2="191.2396" gradientTransform="matrix(1 0 0 -1 0 348)">
			<stop  offset="0" style="stop-color:#469AED;stop-opacity:0"/>
			<stop  offset="0.8725" style="stop-color:#FFFFED"/>
		</linearGradient>
		<path class="st26" d="M331,126.4V140c-0.5,2-2,4-4.6,5.5s-6,2.4-9.5,2.7v-13.6c3.5-0.3,6.9-1.2,9.5-2.7
			C329.1,130.4,330.6,128.4,331,126.4z"/>
	</g>
	<g>
		<path class="st4" d="M331,126.4c-0.5,2-2,4-4.6,5.5s-6,2.4-9.5,2.7l-0.1-3.5c1.9-0.2,3.8-0.8,5.3-1.7s2.4-1.9,2.9-3L331,126.4z"/>
	</g>
	<g>
		<path class="st7" d="M297.5,138.3v-13.6c0,2.5,1.7,5.1,5.1,7.1c2.8,1.6,6.2,2.5,9.7,2.8v13.6c-3.5-0.3-6.9-1.2-9.7-2.8
			C299.2,143.4,297.5,140.9,297.5,138.3z"/>
	</g>
	<g>
		<path class="st3" d="M297.5,138.3v-13.6c0,2.5,1.7,5.1,5.1,7.1c2.8,1.6,6.2,2.5,9.7,2.8v13.6c-3.5-0.3-6.9-1.2-9.7-2.8
			C299.2,143.4,297.5,140.9,297.5,138.3z"/>
	</g>
	<g>
		
			<linearGradient id="SVGID_8_" gradientUnits="userSpaceOnUse" x1="306.6498" y1="235.8152" x2="319.3398" y2="214.6036" gradientTransform="matrix(1 0 0 -1 0 348)">
			<stop  offset="0" style="stop-color:#99D3F5"/>
			<stop  offset="0.5225" style="stop-color:#3385FF"/>
			<stop  offset="0.9925" style="stop-color:#3385FF"/>
		</linearGradient>
		<path class="st27" d="M326.1,118.2c2.7,1.6,4.3,3.6,4.8,5.6h-6.1c-0.4-1.2-1.4-2.2-2.9-3.1c-4.2-2.4-11.1-2.5-15.2-0.1
			s-4,6.4,0.2,8.8c1.6,0.9,3.5,1.5,5.4,1.8l0.1,3.5c-3.5-0.3-6.9-1.2-9.7-2.8c-6.6-3.8-6.9-9.9-0.3-13.7
			C308.8,114.3,319.5,114.4,326.1,118.2z"/>
	</g>
	<g class="st9">
		
			<linearGradient id="SVGID_9_" gradientUnits="userSpaceOnUse" x1="304.9" y1="216.9656" x2="304.9" y2="187.7691" gradientTransform="matrix(1 0 0 -1 0 348)">
			<stop  offset="0" style="stop-color:#FFFFFF;stop-opacity:0"/>
			<stop  offset="0.411" style="stop-color:#FFFFFB;stop-opacity:0.4711"/>
			<stop  offset="0.8321" style="stop-color:#FFFFEF;stop-opacity:0.9537"/>
			<stop  offset="0.8725" style="stop-color:#FFFFED"/>
		</linearGradient>
		<path class="st28" d="M297.5,138.3v-13.6c0,2.5,1.7,5.1,5.1,7.1c2.8,1.6,6.2,2.5,9.7,2.8v13.6c-3.5-0.3-6.9-1.2-9.7-2.8
			C299.2,143.4,297.5,140.9,297.5,138.3z"/>
	</g>
</g>
<circle class="st14" cx="291.8" cy="99.6" r="3.4"/>
<g>
	<path class="st11" d="M297.4,40.4c0.9,0.5,1.4,0.5,1.4,0s-0.6-1.3-1.7-2.3c-1-0.9-1.7-1.7-2.1-2.5c-0.6-0.9-0.8-1.8-0.8-2.7
		c0-1.8,1-2.5,2.9-1.8v-1.7l1.8,1.1v1.6c0.5,0.3,1,0.7,1.4,1s0.7,0.6,1,1l-0.5,2.2l-0.4-0.4c-0.2-0.2-0.4-0.4-0.5-0.5
		c-0.5-0.4-1-0.8-1.5-1.1c-0.8-0.5-1.2-0.5-1.2,0.1c0,0.4,0.6,1.2,1.9,2.5c1.9,1.8,2.8,3.5,2.8,5.1c0,1.9-1,2.6-3,1.8v1.9l-1.8-1.1
		v-1.7c-1.1-0.7-2.1-1.5-2.9-2.4l0.5-2.3c0.4,0.5,0.8,0.9,1.3,1.3C296.4,39.8,296.9,40.1,297.4,40.4 M306.5,30L289,19.9
		c-2.2-1.3-4-0.2-4,2.3v14.6c0,2.5,1.8,5.7,4,6.9l4.9,2.8l3.8,9l3.9-4.5l4.9,2.8c2.2,1.3,4,0.2,4-2.3V36.9
		C310.5,34.4,308.7,31.3,306.5,30"/>
	<path class="st12" d="M298.9,30.4l-1.8-1.1V31c-1.9-0.7-2.9-0.1-2.9,1.8c0,0.9,0.3,1.8,0.8,2.7c0.5,0.8,1.2,1.6,2.1,2.5
		c1.1,1.1,1.7,1.8,1.7,2.3c0,0.6-0.5,0.6-1.4,0c-0.5-0.3-1-0.7-1.5-1.1c-0.4-0.4-0.9-0.8-1.3-1.3l-0.5,2.3c0.8,0.9,1.7,1.7,2.9,2.4
		v1.7l1.8,1.1v-1.9c2,0.8,3,0.1,3-1.8c0-1.7-0.9-3.3-2.8-5.1c-1.3-1.2-1.9-2.1-1.9-2.5c0-0.5,0.4-0.6,1.2-0.1c0.5,0.3,1,0.7,1.5,1.1
		c0.2,0.2,0.4,0.3,0.5,0.5l0.4,0.4l0.5-2.2c-0.3-0.3-0.7-0.7-1-1c-0.4-0.4-0.9-0.7-1.4-1L298.9,30.4"/>
</g>
<polygon class="st13" points="284.8,48.1 284.9,17.6 310.5,32.3 310.4,62.9 "/>
<g>
	<path class="st29" d="M324.6,118.5c-1-10.3-1-21.7-2.3-31.3l0,0l0,0c-4.7-0.4-9.3-0.1-14-0.5c-3,13.4-2.8,18.5-3,31.8
		c1.1,0.1,2.2,0.1,3.3,0.1c1.9-11.2,1.1-15.5,5.7-26.8c0,0,1.2-0.6,1.4,0c2,10,2.9,16.5,5.6,26.7
		C322.4,118.5,323.5,118.5,324.6,118.5z"/>
	<g>
		<g>
			<path class="st30" d="M309.1,87.4c0,0.2-0.1,0.3-0.1,0.5"/>
			<path class="st31" d="M308.9,88.9c-1.7,10.7-2.7,16.9-3.1,28.1"/>
			<path class="st30" d="M305.8,117.5c0,0.2,0,0.3,0,0.5"/>
		</g>
	</g>
	<g>
		<g>
			<path class="st30" d="M321.3,87.7c0,0.2,0,0.3,0,0.5"/>
			<path class="st32" d="M321.5,89.2c0.8,10.8-0.1,16.2,2.3,27.7"/>
			<path class="st30" d="M323.9,117.4c0,0.2,0.1,0.3,0.1,0.5"/>
		</g>
	</g>
	<path class="st33" d="M322.4,91.4c-2.2-0.3-3.2-1.5-3.3-3.7c0.9-0.2,1.8-0.4,2.7-0.7"/>
	<path class="st33" d="M307.8,90.8c2.3,0.3,3.3-0.8,3.5-3.1c-0.8-0.3-1.7-0.7-2.5-1"/>
	<path class="st11" d="M298.6,65.1c0.2-0.6,1.3-1.9,0.9-2.5s-1,1.4-1,1.6c-0.2-0.7-0.3-3.2-1.2-3.4c-0.8-0.2-0.5,3.6-0.2,4.1
		C297.6,65,298.1,65,298.6,65.1z"/>
	<path class="st11" d="M323.6,86.9c-0.6,0.1-2.1,0.5-2.2,1.1s1.6-0.4,1.7-0.5c-0.3,0.7-1.9,2.6-1.5,3.4c0.5,0.7,2.6-2.4,2.8-2.8
		C324.3,87.7,324,87.3,323.6,86.9z"/>
	<path class="st4" d="M323.4,80.6c-0.3-4.1-0.7-8.2-0.5-12.3c0.1-1.3-0.5-2.4-2.1-2.6c-3.6-0.3-8.6-0.6-12.1,0.1
		c-1.4,0.3-2.2,0.8-1.6,2.4c1.5,3.7,0.8,8.4,0.1,13C312.6,82.9,318.7,83.8,323.4,80.6z"/>
	<path class="st14" d="M307.3,81.3c-0.1,0.5-0.2,1-0.2,1.5c5.6,1.6,11.5,2.6,16.5,0c0-0.7-0.1-1.4-0.1-2.2
		C318.7,83.8,312.6,82.9,307.3,81.3z"/>
	<path class="st4" d="M307.1,82.8c-0.2,1.5-0.4,3-0.5,4.4c5.7,1.2,11.3,1.1,17.1,1.1c0-1.9,0-3.7-0.2-5.6
		C318.6,85.5,312.7,84.4,307.1,82.8z"/>
	<path class="st11" d="M328.7,78.9c0.1,2.7-1.4,5.6-5.1,7.5c0.7,0.7,0.8,1.1,1.4,1.6c5.5-2.5,8-6.3,8.2-10.1
		C331.7,77.9,330.1,78.4,328.7,78.9z"/>
	<path class="st4" d="M319.6,65.6c0.9,3.1-3.2,4.4,3.1,6c3.5,0.9,5.9,4,6,7.3c1.3-0.5,3-1,4.5-1C333.4,72,328,66.1,319.6,65.6z"/>
	<path class="st4" d="M308.7,65.9c-3.2,0.7-7.3,9-9.2,5.5c-0.8,1.4-1.6,2.7-2.6,3.8c2,5.7,8.9-2.6,11.8-4
		C312.5,69.4,309,67.8,308.7,65.9z"/>
	<path class="st11" d="M298.6,65.4c-0.6,0-1.3,0.2-1.9,0.2c-0.5,4.9-0.3,7.9,0.3,9.7c1-1.2,1.8-2.5,2.6-3.8
		C299,70.4,298.7,68.6,298.6,65.4z"/>
	<path class="st16" d="M308.3,118.9c-1,0-1.8-0.1-2.8-0.1c-0.2,0.3-2.8,0.9-2.2,1.5c0.6,0.6,4,0.2,5.1,0.3
		C308.5,120.1,308.5,119.4,308.3,118.9z"/>
	<path class="st16" d="M324.4,118.7c-1,0-1.8,0-2.8,0c-0.2,0.3-2.7,1-2.1,1.6s4,0,5.1,0C324.6,119.9,324.6,119.2,324.4,118.7z"/>
	<path class="st11" d="M318.9,66.7c0,1.1-3.2,1.1-4,1.1s-3.8,0-4-1.1s3.2-1,4-1C315.6,65.7,319,65.6,318.9,66.7z"/>
	
		<linearGradient id="SVGID_10_" gradientUnits="userSpaceOnUse" x1="210.3854" y1="286.71" x2="210.3854" y2="282.0856" gradientTransform="matrix(1 0 0 -1 104.5646 348)">
		<stop  offset="0" style="stop-color:#E2E3E4"/>
		<stop  offset="0.9872" style="stop-color:#FFFFFF"/>
	</linearGradient>
	<path class="st34" d="M316.8,60.3c0,1.9-0.1,4.3,1.2,5.8c-2,1.2-4,0.8-6.1,0.1c0.9-1.7,1.1-3.4,0.9-5.3
		C314.2,60.8,315.5,60.6,316.8,60.3z"/>
	<path class="st11" d="M317.7,59.3c-0.3,2.1-3.4,4.1-5.6,3.8c-2.2-0.4-2.3-3.6-2.2-5.6c0.1-2,2.5-3.2,4.5-2.9
		C317.2,54.9,318.1,56.3,317.7,59.3z"/>
	<path class="st14" d="M310.6,55.8c0,0,0.6-2.3,3.9-2.3s4.7,2.7,4.7,4.1c0,1.3-1.2,4.4-1.2,4.4l-1.2-0.8v-0.9c0,0,0.6-1.8,0.3-1.9
		c-0.3-0.1-1.2,0-1.2,0s-1.3,0.1-1.5-0.4s0.5-1.8,0-2C314.1,55.8,310.6,55.8,310.6,55.8z"/>
	<path class="st21" d="M316,59.1c0.2-0.6,0.1-1.5,1.2-1.3s0.5,2.6-1,2.4"/>
	<path class="st14" d="M313.4,59c0,0.1-0.1,0.2-0.2,0.2S313,59.1,313,59c0-0.1,0.1-0.2,0.2-0.2S313.4,58.9,313.4,59z"/>
	<path class="st14" d="M310.5,58.8c0,0.1-0.1,0.2-0.2,0.2s-0.2-0.1-0.2-0.2c0-0.1,0.1-0.2,0.2-0.2S310.5,58.7,310.5,58.8z"/>
	<path class="st14" d="M310.9,62.6c0,0,2.5-0.1,2.5,0.5C313.5,63.8,310.8,63.8,310.9,62.6z"/>
	<g>
		
			<rect x="297.4" y="58.9" transform="matrix(0.9868 -0.1621 0.1621 0.9868 -6.2189 49.2607)" class="st14" width="2.7" height="7.6"/>
		
			<rect x="297.4" y="58.9" transform="matrix(0.9868 -0.1621 0.1621 0.9868 -6.1325 49.2417)" class="st17" width="2.7" height="6.6"/>
	</g>
</g>
<path class="st35" d="M304.9,138.9c0,0,1.3,14-9.3,13.6s-23.1-6.3-31.6,5.2"/>
<linearGradient id="SVGID_11_" gradientUnits="userSpaceOnUse" x1="282.8261" y1="103.8409" x2="198.2068" y2="212.2851" gradientTransform="matrix(1 0 0 -1 0 348)">
	<stop  offset="0" style="stop-color:#469AED;stop-opacity:0"/>
	<stop  offset="0.8775" style="stop-color:#469AED"/>
</linearGradient>
<polygon class="st36" points="161.6,195.9 246.9,281.2 358,233.4 265.9,141.3 201,143.7 "/>
<g class="st1">
	<rect x="209.1" y="103.3" class="st3" width="50" height="46.7"/>
	<g>
		<polygon class="st2" points="279.7,124.2 279.6,176 256.4,175.9 256.6,124.1 		"/>
	</g>
	<g>
		<path class="st3" d="M176,180.1l0.1-51.8c0-6,3.9-11.9,11.5-16.3c15.7-9.1,41.7-9,57.7,0.3c6,3.5,9.6,7.4,11.1,11.8l-0.1,51.8
			c-1.5-4.4-5.1-8.4-11.1-11.8c-16-9.3-42.1-9.4-57.7-0.3C179.9,168.3,176.1,174.2,176,180.1z"/>
	</g>
	<g>
		<polygon class="st4" points="226.5,165.5 226.3,217.3 226,203.9 226.2,152 		"/>
	</g>
	<g>
		<path class="st5" d="M280.2,134.2l-0.1,51.8c-1.7,7.7-7.5,15.2-17.5,21s-23,9.2-36.2,10.2l0.1-51.8c13.2-1,26.2-4.4,36.2-10.2
			S278.5,141.9,280.2,134.2z"/>
	</g>
	<g>
		
			<linearGradient id="SVGID_12_" gradientUnits="userSpaceOnUse" x1="251.8369" y1="206.1595" x2="256.5036" y2="98.1595" gradientTransform="matrix(1 0 0 -1 0 348)">
			<stop  offset="0" style="stop-color:#469AED;stop-opacity:0"/>
			<stop  offset="0.8725" style="stop-color:#FFFFED"/>
		</linearGradient>
		<path class="st37" d="M280.2,134.2l-0.1,51.8c-1.7,7.7-7.5,15.2-17.5,21s-23,9.2-36.2,10.2l0.1-51.8c13.2-1,26.2-4.4,36.2-10.2
			S278.5,141.9,280.2,134.2z"/>
	</g>
	<g>
		<path class="st4" d="M280.2,134.2c-1.7,7.7-7.5,15.2-17.5,21s-23,9.2-36.2,10.2l-0.3-13.4c7.3-0.9,14.4-3.1,20-6.3
			c5.8-3.4,9.3-7.4,10.9-11.6L280.2,134.2z"/>
	</g>
	<g>
		<path class="st7" d="M152.8,179.7l0.1-51.8c0,9.7,6.5,19.4,19.4,26.9c10.5,6.1,23.6,9.6,36.9,10.7l-0.1,51.8
			c-13.3-1.2-26.4-4.7-36.9-10.7C159.3,199.2,152.7,189.4,152.8,179.7z"/>
	</g>
	<g>
		<path class="st3" d="M152.8,179.7l0.1-51.8c0,9.7,6.5,19.4,19.4,26.9c10.5,6.1,23.6,9.6,36.9,10.7l-0.1,51.8
			c-13.3-1.2-26.4-4.7-36.9-10.7C159.3,199.2,152.7,189.4,152.8,179.7z"/>
	</g>
	<g>
		
			<linearGradient id="SVGID_13_" gradientUnits="userSpaceOnUse" x1="187.5809" y1="267.7839" x2="235.851" y2="187.0989" gradientTransform="matrix(1 0 0 -1 0 348)">
			<stop  offset="0" style="stop-color:#99D3F5"/>
			<stop  offset="0.5225" style="stop-color:#3385FF"/>
			<stop  offset="0.9925" style="stop-color:#3385FF"/>
		</linearGradient>
		<path class="st38" d="M261.3,103c10.3,5.9,16.4,13.5,18.4,21.2l-23.2-0.1c-1.5-4.4-5.1-8.4-11.1-11.8c-16-9.3-42.1-9.4-57.7-0.3
			c-15.7,9.1-15.3,24.2,0.7,33.4c6,3.5,13.1,5.7,20.5,6.7l0.3,13.4c-13.3-1.2-26.4-4.7-36.9-10.7c-25.1-14.5-26.1-37.8-1.3-52.2
			C195.7,88.2,236.2,88.5,261.3,103z"/>
	</g>
	<g class="st9">
		
			<linearGradient id="SVGID_14_" gradientUnits="userSpaceOnUse" x1="180.9995" y1="196.0148" x2="180.9995" y2="84.9567" gradientTransform="matrix(1 0 0 -1 0 348)">
			<stop  offset="0" style="stop-color:#FFFFFF;stop-opacity:0"/>
			<stop  offset="0.411" style="stop-color:#FFFFFB;stop-opacity:0.4711"/>
			<stop  offset="0.8321" style="stop-color:#FFFFEF;stop-opacity:0.9537"/>
			<stop  offset="0.8725" style="stop-color:#FFFFED"/>
		</linearGradient>
		<path class="st39" d="M152.8,179.7l0.1-51.8c0,9.7,6.5,19.4,19.4,26.9c10.5,6.1,23.6,9.6,36.9,10.7l-0.1,51.8
			c-13.3-1.2-26.4-4.7-36.9-10.7C159.3,199.2,152.7,189.4,152.8,179.7z"/>
	</g>
</g>
<g>
	<circle class="st14" cx="226.1" cy="241.6" r="9.1"/>
	<circle class="st14" cx="217.1" cy="231.3" r="2.8"/>
</g>
<circle class="st14" cx="92" cy="168" r="3.4"/>
<g>
	<g class="st1">
		<g>
			<polygon class="st40" points="187.8,117.2 192,114.8 194.8,116.4 190.6,118.9 			"/>
		</g>
		<g>
			<polygon class="st40" points="192.2,119.8 196.4,117.3 199.3,119 195,121.4 			"/>
		</g>
		<g>
			<polygon class="st40" points="187.8,105.1 192,102.6 192,114.8 187.8,117.2 			"/>
		</g>
		<g>
			<polygon class="st40" points="196.4,122.2 200.6,119.7 203.4,121.4 199.2,123.8 			"/>
		</g>
		<g>
			<polygon class="st41" points="187.8,105.1 192,102.6 194.9,104.2 190.6,106.7 			"/>
		</g>
		<g>
			<polygon class="st41" points="190.6,106.7 190.6,118.9 187.8,117.2 187.8,105.1 			"/>
		</g>
		<g>
			<polygon class="st41" points="190.6,106.7 194.9,104.2 194.8,116.4 190.6,118.9 			"/>
		</g>
		<g>
			<polygon class="st40" points="201,124.8 205.2,122.4 208,124 203.8,126.5 			"/>
		</g>
		<g>
			<polygon class="st40" points="192.2,104.6 196.5,102.1 196.4,117.3 192.2,119.8 			"/>
		</g>
		<g>
			<path class="st40" d="M189.1,100.3l4.2-2.5c0.4,0.5,0.9,0.9,1.5,1.3l-4.2,2.5C190,101.2,189.5,100.8,189.1,100.3z"/>
		</g>
		<g>
			<polygon class="st40" points="190.6,101.6 194.8,99.1 194.8,100 190.6,102.5 			"/>
		</g>
		<g>
			<polygon class="st40" points="190.6,102.5 194.8,100 195.8,100.6 191.6,103 			"/>
		</g>
		<g>
			<polygon class="st40" points="189.4,99.1 193.6,96.6 193.3,97.8 189.1,100.3 			"/>
		</g>
		<g>
			<path class="st41" d="M189.4,99.1l4.2-2.5c0.2,0.3,0.4,0.5,0.7,0.7l-4.2,2.5C189.8,99.5,189.6,99.3,189.4,99.1z"/>
		</g>
		<g>
			<polygon class="st41" points="191.6,102 195.8,99.6 195.8,100.6 191.6,103 			"/>
		</g>
		<g>
			<path class="st41" d="M195.8,98.1l-4.2,2.5c-0.1,0.1-0.3,0-0.6-0.2s-0.5-0.4-0.8-0.6l4.2-2.5c0.3,0.3,0.5,0.5,0.8,0.6
				C195.4,98.1,195.7,98.1,195.8,98.1z"/>
		</g>
		<g>
			<polygon class="st41" points="195.1,106.2 195,121.4 192.2,119.8 192.2,104.6 			"/>
		</g>
		<g>
			<polygon class="st41" points="192.2,104.6 196.5,102.1 199.3,103.7 195.1,106.2 			"/>
		</g>
		<g>
			<polygon class="st41" points="195.1,106.2 199.3,103.7 199.3,119 195,121.4 			"/>
		</g>
		<g>
			<path class="st40" d="M197,99.6l-4.2,2.5c-0.3,0.2-0.7,0.1-1.2-0.1l4.2-2.5C196.3,99.8,196.7,99.8,197,99.6z"/>
		</g>
		<g>
			<path class="st40" d="M195.8,97.9c0,0.1,0,0.2-0.1,0.2l-4.2,2.5c0.1,0,0.1-0.1,0.1-0.2c0-0.3-0.3-0.7-0.9-1.2
				c1.4-0.8,2.8-1.6,4.2-2.5C195.6,97.2,195.8,97.6,195.8,97.9z"/>
		</g>
		<g>
			<path class="st40" d="M193.8,95.3c0.2,0.4,0.6,0.8,1.1,1.3c-1.4,0.8-2.8,1.6-4.2,2.5c-0.5-0.5-0.9-0.9-1.1-1.3
				c-0.3-0.5-0.4-0.9-0.4-1.4c1.4-0.8,2.8-1.6,4.2-2.5c-1.4,0.8-2.8,1.6-4.2,2.5c0-0.5,0.1-0.8,0.4-1l4.2-2.5
				c-0.3,0.2-0.4,0.5-0.4,1C193.4,94.4,193.5,94.8,193.8,95.3z"/>
		</g>
		<g>
			<path class="st41" d="M190.8,96.9l4.2-2.5c-0.1,0-0.1,0.1-0.1,0.2c0,0.2,0.3,0.6,1,1.3l-4.2,2.5c-0.7-0.7-1-1.1-1-1.3
				C190.7,97,190.7,96.9,190.8,96.9z"/>
		</g>
		<g>
			<path class="st41" d="M197,99.6l-4.2,2.5c0.3-0.2,0.4-0.5,0.4-1c0-0.9-0.5-1.8-1.5-2.7l4.2-2.5c1,0.9,1.5,1.8,1.5,2.7
				C197.4,99.1,197.3,99.5,197,99.6z"/>
		</g>
		<g>
			<path class="st41" d="M189.6,95.4l4.2-2.5c0.3-0.1,0.6-0.1,1.1,0l-4.2,2.5C190.2,95.3,189.8,95.2,189.6,95.4z"/>
		</g>
		<g>
			<polygon class="st41" points="192.9,97 197.2,94.5 196.9,95.6 192.7,98.1 			"/>
		</g>
		<g>
			<path class="st40" d="M196.4,95.2c0.1,0.1,0.2,0.2,0.3,0.3l-4.2,2.5c-0.1-0.1-0.2-0.2-0.3-0.3c-0.3-0.2-0.5-0.4-0.8-0.6
				s-0.5-0.2-0.6-0.2l4.2-2.5c0.1-0.1,0.3,0,0.6,0.2C195.9,94.7,196.2,94.9,196.4,95.2z"/>
		</g>
		<g>
			<polygon class="st40" points="192.5,97.9 196.7,95.4 196.9,95.6 192.7,98.1 			"/>
		</g>
		<g>
			<polygon class="st40" points="190.7,94.5 194.9,92.1 194.9,93 190.7,95.4 			"/>
		</g>
		<g>
			<polygon class="st41" points="190.7,94.5 194.9,92.1 195.9,92.6 191.7,95.1 			"/>
		</g>
		<g>
			<polygon class="st41" points="191.7,95.1 195.9,92.6 195.9,93.4 191.7,95.9 			"/>
		</g>
		<g>
			<path class="st41" d="M191.7,95.9l4.2-2.5c0.3,0.2,0.5,0.4,0.7,0.5c0.2,0.2,0.4,0.3,0.5,0.5l-4.2,2.5c-0.2-0.2-0.3-0.4-0.5-0.5
				S191.9,96.1,191.7,95.9z"/>
		</g>
		<g>
			<polygon class="st40" points="196.4,101.2 200.6,98.8 200.6,119.7 196.4,122.2 			"/>
		</g>
		<g>
			<polygon class="st41" points="199.3,102.9 203.5,100.4 203.4,121.4 199.2,123.8 			"/>
		</g>
		<g>
			<polygon class="st41" points="196.4,101.2 200.6,98.8 203.5,100.4 199.3,102.9 			"/>
		</g>
		<g>
			<polygon class="st40" points="201,100.8 205.2,98.4 205.2,122.4 201,124.8 			"/>
		</g>
		<g>
			<polygon class="st41" points="203.9,102.5 208.1,100 208,124 203.8,126.5 			"/>
		</g>
		<g>
			<polygon class="st41" points="201,100.8 205.2,98.4 208.1,100 203.9,102.5 			"/>
		</g>
		<g>
			<polygon class="st41" points="203.9,102.5 203.8,126.5 201,124.8 201,100.8 			"/>
		</g>
		<g>
			<path class="st40" d="M183.7,83.8l25.5,14.7l-0.1,38l-25.5-14.7L183.7,83.8z M203.8,126.5l0.1-24l-2.8-1.6l-0.1,24L203.8,126.5
				 M199.2,123.8l0.1-21l-2.8-1.6l-0.1,21L199.2,123.8 M195,121.4v-15.2l-2.8-1.6v15.2L195,121.4 M190.6,118.9v-12.2l-2.8-1.6v12.2
				L190.6,118.9 M191.6,103v-1c1.1,0.4,1.6,0.1,1.6-1c0-0.9-0.5-1.8-1.5-2.7c-0.7-0.7-1-1.1-1-1.3c0-0.3,0.2-0.3,0.7,0
				c0.3,0.2,0.5,0.4,0.8,0.6c0.1,0.1,0.2,0.2,0.3,0.3l0.2,0.2L193,97c-0.2-0.2-0.3-0.4-0.5-0.5c-0.2-0.2-0.5-0.4-0.7-0.5v-0.8
				l-1-0.6v0.9c-1-0.3-1.5,0-1.5,0.9c0,0.5,0.1,0.9,0.4,1.4c0.2,0.4,0.6,0.8,1.1,1.3c0.6,0.6,0.9,1,0.9,1.2c0,0.3-0.2,0.3-0.7,0
				c-0.3-0.2-0.5-0.4-0.8-0.6c-0.2-0.2-0.5-0.4-0.7-0.7l-0.3,1.2c0.4,0.5,0.9,0.9,1.5,1.3v0.9L191.6,103"/>
		</g>
		<g>
			<path class="st41" d="M191.7,95.1v0.8c0.3,0.2,0.5,0.4,0.7,0.5c0.2,0.2,0.4,0.3,0.5,0.5l-0.3,1.1l-0.2-0.2
				c-0.1-0.1-0.2-0.2-0.3-0.3c-0.3-0.2-0.5-0.4-0.8-0.6c-0.4-0.3-0.7-0.2-0.7,0s0.3,0.6,1,1.3c1,0.9,1.5,1.8,1.5,2.7
				c0,1-0.5,1.3-1.6,1v1l-1-0.6v-0.9c-0.6-0.4-1.1-0.8-1.5-1.3l0.3-1.2c0.2,0.3,0.4,0.5,0.7,0.7c0.3,0.3,0.5,0.5,0.8,0.6
				c0.5,0.3,0.7,0.3,0.7,0s-0.3-0.7-0.9-1.2c-0.5-0.5-0.9-0.9-1.1-1.3c-0.3-0.5-0.4-0.9-0.4-1.4c0-1,0.5-1.3,1.5-0.9v-0.9
				L191.7,95.1z"/>
		</g>
		<g>
			<polygon class="st41" points="199.3,102.9 199.2,123.8 196.4,122.2 196.4,101.2 			"/>
		</g>
		<g>
			<polygon class="st40" points="183.7,83.8 187.9,81.4 213.4,96.1 209.2,98.6 			"/>
		</g>
		<g>
			<polygon class="st40" points="209.2,98.6 213.4,96.1 213.3,134.1 209.1,136.5 			"/>
		</g>
	</g>
	<g class="st1">
		<g>
			<polygon class="st7" points="185.5,79.7 189.8,77.2 189.8,80 185.5,82.4 			"/>
		</g>
		<g>
			<polygon class="st7" points="185.5,82.4 189.8,80 194.5,82.7 190.2,85.1 			"/>
		</g>
		<g>
			<polygon class="st40" points="190.2,82.4 194.5,79.9 194.5,82.7 190.2,85.1 			"/>
		</g>
		<g>
			<polygon class="st40" points="185.5,79.7 189.8,77.2 194.5,79.9 190.2,82.4 			"/>
		</g>
		<g>
			<path class="st7" d="M183.7,75.7l25.5,14.7v8.2l-25.5-14.7V75.7z M190.2,85.1v-2.8l-4.7-2.7v2.8L190.2,85.1"/>
		</g>
		<g>
			<polygon class="st40" points="190.2,82.4 190.2,85.1 185.5,82.4 185.5,79.7 			"/>
		</g>
		<g>
			<polygon class="st7" points="209.2,90.4 213.4,87.9 213.4,96.1 209.2,98.6 			"/>
		</g>
		<g>
			<polygon class="st7" points="183.7,75.7 187.9,73.2 213.4,87.9 209.2,90.4 			"/>
		</g>
	</g>
</g>
<g>
	<g class="st1">
		<g>
			<polygon class="st40" points="166.4,97.2 170.6,94.8 172,95.6 167.8,98 			"/>
		</g>
		<g>
			<polygon class="st40" points="168.6,98.5 172.8,96 174.2,96.9 170,99.3 			"/>
		</g>
		<g>
			<polygon class="st40" points="166.4,91.1 170.6,88.7 170.6,94.8 166.4,97.2 			"/>
		</g>
		<g>
			<polygon class="st40" points="170.7,99.7 174.9,97.2 176.3,98.1 172.1,100.5 			"/>
		</g>
		<g>
			<polygon class="st41" points="167.8,92 167.8,98 166.4,97.2 166.4,91.1 			"/>
		</g>
		<g>
			<polygon class="st41" points="167.8,92 172,89.5 172,95.6 167.8,98 			"/>
		</g>
		<g>
			<polygon class="st41" points="166.4,91.1 170.6,88.7 172,89.5 167.8,92 			"/>
		</g>
		<g>
			<polygon class="st40" points="173,101 177.2,98.6 178.6,99.4 174.4,101.8 			"/>
		</g>
		<g>
			<polygon class="st40" points="168.6,90.9 172.8,88.4 172.8,96 168.6,98.5 			"/>
		</g>
		<g>
			<polygon class="st41" points="168.6,90.9 172.8,88.4 174.3,89.3 170,91.7 			"/>
		</g>
		<g>
			<polygon class="st41" points="170,91.7 174.3,89.3 174.2,96.9 170,99.3 			"/>
		</g>
		<g>
			<polygon class="st40" points="170.7,89.2 174.9,86.8 174.9,97.2 170.7,99.7 			"/>
		</g>
		<g>
			<polygon class="st41" points="170.7,89.2 174.9,86.8 176.3,87.6 172.1,90 			"/>
		</g>
		<g>
			<polygon class="st41" points="172.1,90 176.3,87.6 176.3,98.1 172.1,100.5 			"/>
		</g>
		<g>
			<polygon class="st40" points="173,89 177.2,86.6 177.2,98.6 173,101 			"/>
		</g>
		<g>
			<polygon class="st41" points="173,89 177.2,86.6 178.6,87.4 174.4,89.8 			"/>
		</g>
		<g>
			<polygon class="st41" points="174.4,89.8 178.6,87.4 178.6,99.4 174.4,101.8 			"/>
		</g>
		<g>
			<polygon class="st41" points="174.4,89.8 174.4,101.8 173,101 173,89 			"/>
		</g>
		<g>
			<path class="st40" d="M164.3,80.5l12.8,7.4l-0.1,19l-12.8-7.4L164.3,80.5z M174.4,101.8v-12L173,89v12L174.4,101.8 M172.1,100.5
				V90l-1.4-0.8v10.5L172.1,100.5 M170,99.3v-7.6l-1.4-0.8v7.6L170,99.3 M167.8,98v-6.1l-1.4-0.8v6.1L167.8,98"/>
		</g>
		<g>
			<polygon class="st41" points="170,91.7 170,99.3 168.6,98.5 168.6,90.9 			"/>
		</g>
		<g>
			<polygon class="st41" points="172.1,90 172.1,100.5 170.7,99.7 170.7,89.2 			"/>
		</g>
		<g>
			<polygon class="st40" points="164.3,80.5 168.6,78.1 181.3,85.4 177.1,87.9 			"/>
		</g>
		<g>
			<polygon class="st40" points="177.1,87.9 181.3,85.4 181.3,104.4 177,106.9 			"/>
		</g>
	</g>
	<g class="st1">
		<g>
			<polygon class="st7" points="165.3,78.4 169.5,76 169.5,77.4 165.3,79.8 			"/>
		</g>
		<g>
			<polygon class="st7" points="165.3,79.8 169.5,77.4 171.8,78.7 167.6,81.2 			"/>
		</g>
		<g>
			<polygon class="st40" points="167.6,79.8 167.6,81.2 165.3,79.8 165.3,78.4 			"/>
		</g>
		<g>
			<polygon class="st40" points="167.6,79.8 171.8,77.3 171.8,78.7 167.6,81.2 			"/>
		</g>
		<g>
			<polygon class="st40" points="165.3,78.4 169.5,76 171.8,77.3 167.6,79.8 			"/>
		</g>
		<g>
			<polygon class="st7" points="177.1,83.8 181.3,81.3 181.3,85.4 177.1,87.9 			"/>
		</g>
		<g>
			<polygon class="st7" points="164.3,76.4 168.6,74 181.3,81.3 177.1,83.8 			"/>
		</g>
		<g>
			<path class="st7" d="M164.3,76.4l12.8,7.4v4.1l-12.8-7.4V76.4z M167.6,81.2v-1.4l-2.3-1.4v1.4L167.6,81.2"/>
		</g>
	</g>
</g>
<path class="st24" d="M256.6,183.9c0,0,24.3,8.3,14.6,20.1c-9.7,11.9-44,38.2,13.7,55.5"/>
<linearGradient id="SVGID_15_" gradientUnits="userSpaceOnUse" x1="373.2821" y1="18.2803" x2="321.7821" y2="84.2803" gradientTransform="matrix(1 0 0 -1 0 348)">
	<stop  offset="0" style="stop-color:#469AED;stop-opacity:0"/>
	<stop  offset="0.8775" style="stop-color:#469AED"/>
</linearGradient>
<polygon class="st42" points="289.6,295 347.3,342.8 422.6,320.4 360.2,258.1 "/>
<g class="st1">
	<g>
		<polygon class="st2" points="363.6,241.6 363.5,275.8 348.2,275.7 348.3,241.5 		"/>
	</g>
	<g>
		<path class="st3" d="M295.1,278.5l0.1-34.2c0-3.9,2.5-7.8,7.6-10.8c10.3-6,27.5-5.9,38.1,0.2c4,2.3,6.4,4.9,7.4,7.8l-0.1,34.2
			c-1-2.9-3.4-5.5-7.4-7.8c-10.6-6.1-27.8-6.2-38.1-0.2C297.7,270.7,295.1,274.6,295.1,278.5z"/>
	</g>
	<g>
		<polygon class="st4" points="328.4,268.8 328.3,303.1 328.1,294.2 328.2,259.9 		"/>
	</g>
	<g>
		<path class="st5" d="M363.9,248.2l-0.1,34.2c-1.1,5.1-5,10-11.6,13.9s-15.2,6.1-23.9,6.8l0.1-34.2c8.7-0.7,17.3-2.9,23.9-6.8
			C359,258.2,362.8,253.2,363.9,248.2z"/>
	</g>
	<g>
		
			<linearGradient id="SVGID_16_" gradientUnits="userSpaceOnUse" x1="345.1304" y1="94.7889" x2="348.2137" y2="23.4315" gradientTransform="matrix(1 0 0 -1 0 348)">
			<stop  offset="0" style="stop-color:#469AED;stop-opacity:0"/>
			<stop  offset="0.8725" style="stop-color:#FFFFED"/>
		</linearGradient>
		<path class="st43" d="M363.9,248.2l-0.1,34.2c-1.1,5.1-5,10-11.6,13.9s-15.2,6.1-23.9,6.8l0.1-34.2c8.7-0.7,17.3-2.9,23.9-6.8
			C359,258.2,362.8,253.2,363.9,248.2z"/>
	</g>
	<g>
		<path class="st4" d="M363.9,248.2c-1.1,5.1-5,10-11.6,13.9s-15.2,6.1-23.9,6.8l-0.2-8.9c4.8-0.6,9.5-2,13.2-4.2
			c3.9-2.2,6.1-4.9,7.2-7.7L363.9,248.2z"/>
	</g>
	<g>
		<path class="st7" d="M279.7,278.2l0.1-34.2c0,6.4,4.3,12.8,12.8,17.7c7,4,15.6,6.3,24.4,7.1l-0.1,34.2c-8.8-0.8-17.4-3.1-24.4-7.1
			C284,291.1,279.7,284.6,279.7,278.2z"/>
	</g>
	<g>
		<path class="st3" d="M279.7,278.2l0.1-34.2c0,6.4,4.3,12.8,12.8,17.7c7,4,15.6,6.3,24.4,7.1l-0.1,34.2c-8.8-0.8-17.4-3.1-24.4-7.1
			C284,291.1,279.7,284.6,279.7,278.2z"/>
	</g>
	<g>
		
			<linearGradient id="SVGID_17_" gradientUnits="userSpaceOnUse" x1="302.7662" y1="135.524" x2="334.659" y2="82.2141" gradientTransform="matrix(1 0 0 -1 0 348)">
			<stop  offset="0" style="stop-color:#99D3F5"/>
			<stop  offset="0.5225" style="stop-color:#3385FF"/>
			<stop  offset="0.9925" style="stop-color:#3385FF"/>
		</linearGradient>
		<path class="st44" d="M351.5,227.6c6.8,3.9,10.8,8.9,12.2,14l-15.3-0.1c-1-2.9-3.4-5.5-7.4-7.8c-10.6-6.1-27.8-6.2-38.1-0.2
			c-10.3,6-10.1,16,0.5,22.1c4,2.3,8.7,3.8,13.5,4.4l0.2,8.9c-8.8-0.8-17.4-3.1-24.4-7.1c-16.6-9.6-17.2-25-0.9-34.5
			S334.9,218,351.5,227.6z"/>
	</g>
	<g class="st9">
		
			<linearGradient id="SVGID_18_" gradientUnits="userSpaceOnUse" x1="298.35" y1="88.0889" x2="298.35" y2="14.711" gradientTransform="matrix(1 0 0 -1 0 348)">
			<stop  offset="0" style="stop-color:#FFFFFF;stop-opacity:0"/>
			<stop  offset="0.411" style="stop-color:#FFFFFB;stop-opacity:0.4711"/>
			<stop  offset="0.8321" style="stop-color:#FFFFEF;stop-opacity:0.9537"/>
			<stop  offset="0.8725" style="stop-color:#FFFFED"/>
		</linearGradient>
		<path class="st45" d="M279.7,278.2l0.1-34.2c0,6.4,4.3,12.8,12.8,17.7c7,4,15.6,6.3,24.4,7.1l-0.1,34.2
			c-8.8-0.8-17.4-3.1-24.4-7.1C284,291.1,279.7,284.6,279.7,278.2z"/>
	</g>
</g>
<g>
	<g>
		<path class="st46" d="M282.3,281.8c17.4-11,45.2-25.1,58.7-39.8h-0.1l0,0c-11.6-4.5-16.4-2.8-21.6-14.8
			c-28.9,5.5-37-6.1-30.8,33.8c2.2-0.7,4.4-1.4,6.5-2.1c-3.6-27.4,0.4-22.9,22.1-18.9c0.1,0,2.4,0.8,2.5,1.3
			c-12.4,13.4-27.4,23.4-41.2,35.2C279.6,278.4,280.9,280.1,282.3,281.8z"/>
		<g>
			<g>
				<path class="st30" d="M319.1,228.9c-0.2,0-0.3,0.1-0.5,0.1"/>
				<path class="st47" d="M317.7,229.2c-25.1,4.2-35-9-28.7,29.5"/>
				<path class="st30" d="M289,259.2c0,0.2,0.1,0.3,0.1,0.5"/>
			</g>
		</g>
		<g>
			<g>
				<path class="st30" d="M337.6,242c-0.1,0.1-0.2,0.2-0.4,0.3"/>
				<path class="st48" d="M336.5,243.1c-14.7,13.7-35.8,25.8-52.9,36.6"/>
				<path class="st30" d="M283.2,279.9c-0.1,0.1-0.3,0.2-0.4,0.3"/>
			</g>
		</g>
		<path class="st49" d="M333.6,247.9c-2.4-2.4-4-4.7-1.8-7.8c2.6,0.5,5.3,0.9,7.9,1.3"/>
		<path class="st49" d="M314.4,228c0.7,3.2,1.5,6.4,5.3,4.8c0.2-1.6,0.1-3.2-0.1-4.8"/>
		<path class="st11" d="M297.8,210c-0.4-1.2-1.4-4.1-2.8-4c-1.4,0,1.1,3,1.4,3.2c-1.4-0.5-5.3-3.5-6.6-2c-1.3,1.5,4.9,4.4,6,4.9
			C296.5,211.5,297.1,210.8,297.8,210z"/>
		<path class="st11" d="M358.6,248.9c-1.2,0.5-3.9,2.1-3.5,3.5s2.8-1.6,3.1-1.8c-0.4,1.4-2.8,5.6-1.2,6.6s3.8-5.5,4.2-6.6
			C360.4,249.8,359.5,249.4,358.6,248.9z"/>
		<path class="st50" d="M322.8,194.5c2.9,11.2,1.7,21-5.4,30.6c6.9,16.4,8,13.7,25.3,20.5c6.6-15.7,2.2-27.7,8.5-43.1
			c1.3-3,0.5-4.8-2.4-6c-6.4-2.7-14.6-4.8-21.7-5.9C324.3,190.2,321.9,191.1,322.8,194.5z"/>
		<path class="st50" d="M347.2,195.6c16.3,6.1,18.5,38.3,14.9,54.2c-1.4-0.6-2.6-1.3-4-2.2c1.2-7.7-3.5-35.8-9.2-39.8
			C343.2,203.7,347,201.1,347.2,195.6z"/>
		<path class="st50" d="M327.2,190.3c-26.5,6.3-0.5,35.2-29,19.6c-0.7,0.8-1.7,2.2-2,2.7c25.3,24.4,18.5-2.8,28.7-10.8
			S326.4,198.3,327.2,190.3z"/>
		<path class="st16" d="M294.5,259.6c-1.9,0.6-3.7,1.2-5.7,1.8c0,0.7-5.3,3.3-3.1,4c2.2,0.8,7.4-2.1,9.9-2.9
			C295.6,261.4,295.3,260.4,294.5,259.6z"/>
		<path class="st16" d="M281.5,281.7c-1.2-1.5-2.2-2.9-3.3-4.6c-0.8,0.2-4.7-3.5-4.9-1.2c-0.2,2.3,4.1,5.9,5.5,7.9
			C279.9,283.4,280.8,282.7,281.5,281.7z"/>
		<path class="st11" d="M345.7,197.6c-0.5,2.4-4.4,1.5-6.2,0.7c-1.8-0.8-7.8-2.3-7.6-4.8c0.2-2.5,6.6,0.6,8.1,1.1
			S346.2,195.2,345.7,197.6z"/>
		
			<linearGradient id="SVGID_19_" gradientUnits="userSpaceOnUse" x1="907.534" y1="83.4885" x2="907.534" y2="74.3258" gradientTransform="matrix(0.9535 0.3014 0.3014 -0.9535 -548.39 -8.2711)">
			<stop  offset="0" style="stop-color:#E2E3E4"/>
			<stop  offset="0.9872" style="stop-color:#FFFFFF"/>
		</linearGradient>
		<path class="st51" d="M344.6,184.4c-0.5,4-1.1,8,0,11.9c-4.2,1.7-7.2-0.7-10.8-2.9c2.2-2.6,2.9-5.5,3.1-8.9
			C339.5,184.5,342,184.5,344.6,184.4z"/>
		<path class="st22" d="M332.7,183c-0.3,0.2-0.6,0.4-0.9,0.6c0.1-0.1-0.1-0.4,0-0.5C332,183,332.5,183,332.7,183z"/>
		<path class="st11" d="M345.6,183.9c-0.8,4-6.2,7-10.2,4.8s-4.6-6.1-4-10.3s4.9-5.9,8.7-4.7C345.3,175.3,346.8,178.1,345.6,183.9z"
			/>
		<path class="st11" d="M333,175c-3,2.7-3,5.7-2.4,9.5c0.8-0.1,1.5-0.2,2.3-0.4C332.8,181.1,332.7,178,333,175z"/>
		<path class="st22" d="M332.6,184.1c-0.2,0.1-0.6,0.5-0.8,0.6c-0.1,0-0.1-0.4-0.1-0.4C331.9,184.2,332.4,184.1,332.6,184.1z"/>
		<path class="st23" d="M334.1,180.9c0,0.2-0.1,0.3-0.3,0.3s-0.4-0.2-0.4-0.4s0.1-0.3,0.3-0.3C333.9,180.6,334.1,180.7,334.1,180.9z
			"/>
		<path class="st52" d="M331.6,179.8c-0.4,1.3,0.3,2.7,1.6,3.1s2.6,0,3-1.4s-0.3-2.7-1.6-3.2C333.2,177.9,332,178.5,331.6,179.8z"/>
		<path class="st52" d="M336.1,179.8c2.6,0.3,5.2,0.6,7.9,0.9"/>
		<path class="st52" d="M331.5,179.8c-0.6,0.2-1.1,0.4-1.7,0.6"/>
		<path class="st14" d="M330.3,171.4c0.2-1.3,1.5-1.4,2.8-1.2s2.8,0.8,4.3,1s3,0,4.5,0.5c2,0.5,4,1.4,5.4,3.1c0.5,0.6,0.8,1.2,0.8,2
			c-0.1,1.2-1,2.4-0.4,3.7c0.3,0.7,0.4,1,0.1,1.9c-0.3,0.8-1.1,1.9-2.1,1.2c-1.5-1-1.8-2.3-2.4-4s-0.5-3.4-2.4-4.3
			c-1.2-0.6-2.5-0.2-4.1-0.1C334.2,175.2,329.8,175.1,330.3,171.4z"/>
		<path class="st21" d="M343.1,181.9c0.3-1.2,0.3-3.2,2.3-2.1s0.8,4.6-1.7,4.6"/>
	</g>
	<g>
		<path class="st14" d="M291.4,208.5c1.8,0.3,3.7,0.5,5.5,0.8c0-0.4,0.1-0.8,0.1-1.2c-1.8-0.3-3.7-0.5-5.5-0.8
			C291.5,207.7,291.4,208.1,291.4,208.5z"/>
		<path class="st53" d="M291.5,207.3c1.8,0.3,3.7,0.5,5.5,0.8c0.3-2.9,0.5-5.8,0.8-8.7c-1.8-0.3-3.7-0.5-5.5-0.8
			C292,201.5,291.8,204.4,291.5,207.3z"/>
	</g>
	<path class="st54" d="M318.6,247.1c-5.8-5.4-11.7-10.8-17.8-15.9c-4.4,0.3-8.9,0.5-13.3,0.8c6.1,5.8,12.1,11.7,18,17.8
		C310,248.9,314.3,248,318.6,247.1z"/>
	<path class="st55" d="M287.6,231.9c1.5-6.1,2.8-12.3,3.8-18.5c7.1,5.3,14.2,10.6,21.2,16.1c-2.3,6.8-4.7,13.5-7,20.2
		C299.7,243.7,293.7,237.8,287.6,231.9z"/>
</g>
<g>
	<path class="st11" d="M301.9,181.7c0.9,0.5,1.4,0.5,1.4,0s-0.6-1.3-1.7-2.3c-1-0.9-1.7-1.7-2.1-2.5c-0.6-0.9-0.8-1.8-0.8-2.7
		c0-1.8,1-2.5,2.9-1.8v-1.7l1.8,1.1v1.6c0.5,0.3,1,0.7,1.4,1s0.7,0.6,1,1l-0.5,2.2l-0.4-0.4c-0.2-0.2-0.4-0.4-0.5-0.5
		c-0.5-0.4-1-0.8-1.5-1.1c-0.8-0.5-1.2-0.5-1.2,0.1c0,0.4,0.6,1.2,1.9,2.5c1.9,1.8,2.8,3.5,2.8,5.1c0,1.9-1,2.6-3,1.8v1.9l-1.8-1.1
		v-1.7c-1.1-0.7-2.1-1.5-2.9-2.4l0.5-2.3c0.4,0.5,0.8,0.9,1.3,1.3C300.9,181,301.4,181.4,301.9,181.7 M310.9,171.3l-17.5-10.1
		c-2.2-1.3-4-0.2-4,2.3v14.6c0,2.5,1.8,5.7,4,6.9l4.9,2.8l3.8,9l3.9-4.5l4.9,2.8c2.2,1.3,4,0.2,4-2.3v-14.6
		C314.9,175.7,313.1,172.5,310.9,171.3"/>
	<path class="st12" d="M303.3,171.7l-1.8-1.1v1.7c-1.9-0.7-2.9-0.1-2.9,1.8c0,0.9,0.3,1.8,0.8,2.7c0.5,0.8,1.2,1.6,2.1,2.5
		c1.1,1.1,1.7,1.8,1.7,2.3c0,0.6-0.5,0.6-1.4,0c-0.5-0.3-1-0.7-1.5-1.1c-0.4-0.4-0.9-0.8-1.3-1.3l-0.5,2.3c0.8,0.9,1.7,1.7,2.9,2.4
		v1.7l1.8,1.1v-1.9c2,0.8,3,0.1,3-1.8c0-1.7-0.9-3.3-2.8-5.1c-1.3-1.2-1.9-2.1-1.9-2.5c0-0.5,0.4-0.6,1.2-0.1c0.5,0.3,1,0.7,1.5,1.1
		c0.2,0.2,0.4,0.3,0.5,0.5l0.4,0.4l0.5-2.2c-0.3-0.3-0.7-0.7-1-1c-0.4-0.4-0.9-0.7-1.4-1L303.3,171.7"/>
</g>
<polygon class="st13" points="289.3,189.4 289.4,158.8 314.9,173.6 314.8,204.1 "/>
<path class="st35" d="M183,186.7c0,0-36,22.1-12.9,31.3s54.1,12.1,37.4,33.3s-68,22.3-68,22.3"/>
<linearGradient id="SVGID_20_" gradientUnits="userSpaceOnUse" x1="159.8466" y1="43.1946" x2="125.6674" y2="86.9972" gradientTransform="matrix(1 0 0 -1 0 348)">
	<stop  offset="0" style="stop-color:#469AED;stop-opacity:0"/>
	<stop  offset="0.8775" style="stop-color:#469AED"/>
</linearGradient>
<polygon class="st56" points="104.3,281.8 142.6,320.1 192.6,298.6 151.2,257.3 "/>
<g class="st1">
	<g>
		<polygon class="st2" points="165.9,244.1 165.8,270.8 153.9,270.7 154,244 		"/>
	</g>
	<g>
		<path class="st3" d="M112.5,272.9l0.1-26.7c0-3.1,2-6.1,5.9-8.4c8.1-4.7,21.5-4.6,29.7,0.2c3.1,1.8,5,3.8,5.7,6.1l-0.1,26.7
			c-0.8-2.3-2.7-4.3-5.7-6.1c-8.3-4.8-21.7-4.8-29.7-0.2C114.5,266.8,112.5,269.8,112.5,272.9z"/>
	</g>
	<g>
		<polygon class="st4" points="138.5,265.3 138.4,292 138.2,285.1 138.3,258.4 		"/>
	</g>
	<g>
		<path class="st5" d="M166.2,249.2l-0.1,26.7c-0.9,3.9-3.9,7.8-9,10.8c-5.2,3-11.8,4.7-18.7,5.3l0.1-26.7
			c6.8-0.5,13.5-2.3,18.7-5.3S165.3,253.2,166.2,249.2z"/>
	</g>
	<g>
		
			<linearGradient id="SVGID_21_" gradientUnits="userSpaceOnUse" x1="151.5463" y1="94.8421" x2="153.9511" y2="39.1883" gradientTransform="matrix(1 0 0 -1 0 348)">
			<stop  offset="0" style="stop-color:#469AED;stop-opacity:0"/>
			<stop  offset="0.8725" style="stop-color:#FFFFED"/>
		</linearGradient>
		<path class="st57" d="M166.2,249.2l-0.1,26.7c-0.9,3.9-3.9,7.8-9,10.8c-5.2,3-11.8,4.7-18.7,5.3l0.1-26.7
			c6.8-0.5,13.5-2.3,18.7-5.3S165.3,253.2,166.2,249.2z"/>
	</g>
	<g>
		<path class="st4" d="M166.2,249.2c-0.9,3.9-3.9,7.8-9,10.8s-11.8,4.7-18.7,5.3l-0.1-6.9c3.8-0.5,7.4-1.6,10.3-3.3
			c3-1.8,4.8-3.8,5.6-6L166.2,249.2z"/>
	</g>
	<g>
		<path class="st7" d="M100.5,272.7l0.1-26.7c0,5,3.4,10,10,13.8c5.4,3.1,12.2,4.9,19,5.5l-0.1,26.7c-6.8-0.6-13.6-2.4-19-5.5
			C103.8,282.7,100.5,277.7,100.5,272.7z"/>
	</g>
	<g>
		<path class="st3" d="M100.5,272.7l0.1-26.7c0,5,3.4,10,10,13.8c5.4,3.1,12.2,4.9,19,5.5l-0.1,26.7c-6.8-0.6-13.6-2.4-19-5.5
			C103.8,282.7,100.5,277.7,100.5,272.7z"/>
	</g>
	<g>
		
			<linearGradient id="SVGID_22_" gradientUnits="userSpaceOnUse" x1="118.4358" y1="126.5997" x2="143.31" y2="85.0217" gradientTransform="matrix(1 0 0 -1 0 348)">
			<stop  offset="0" style="stop-color:#99D3F5"/>
			<stop  offset="0.5225" style="stop-color:#3385FF"/>
			<stop  offset="0.9925" style="stop-color:#3385FF"/>
		</linearGradient>
		<path class="st58" d="M156.4,233.2c5.3,3.1,8.4,7,9.5,10.9L154,244c-0.8-2.3-2.7-4.3-5.7-6.1c-8.3-4.8-21.7-4.8-29.7-0.2
			c-8.1,4.7-7.9,12.5,0.4,17.2c3.1,1.8,6.8,2.9,10.5,3.4l0.1,6.9c-6.8-0.6-13.6-2.4-19-5.5c-13-7.5-13.5-19.5-0.7-26.9
			C122.6,225.5,143.5,225.7,156.4,233.2z"/>
	</g>
	<g class="st9">
		
			<linearGradient id="SVGID_23_" gradientUnits="userSpaceOnUse" x1="115.05" y1="89.6143" x2="115.05" y2="32.3846" gradientTransform="matrix(1 0 0 -1 0 348)">
			<stop  offset="0" style="stop-color:#FFFFFF;stop-opacity:0"/>
			<stop  offset="0.411" style="stop-color:#FFFFFB;stop-opacity:0.4711"/>
			<stop  offset="0.8321" style="stop-color:#FFFFEF;stop-opacity:0.9537"/>
			<stop  offset="0.8725" style="stop-color:#FFFFED"/>
		</linearGradient>
		<path class="st59" d="M100.5,272.7l0.1-26.7c0,5,3.4,10,10,13.8c5.4,3.1,12.2,4.9,19,5.5l-0.1,26.7c-6.8-0.6-13.6-2.4-19-5.5
			C103.8,282.7,100.5,277.7,100.5,272.7z"/>
	</g>
</g>
<g>
	<polyline class="st11" points="183.1,204 183,204.2 181.5,205.5 181.9,207.4 184.7,207.4 	"/>
	<path class="st14" d="M125,173c0,0,3.1-6.3,10.5-6.5c7.4-0.1,12.9,28,12.9,28l-14.1,4.9l-3.9-15.9L125,173z"/>
	<path class="st29" d="M149.3,223.5c0,0,18.3-2.1,25.1-1.1s-6.6,32.9-6.6,32.9l-3.1-2.2c0,0,5.4-14.2,2.8-18.7
		c-2.6-4.5-21.4-1.3-21.4-1.3s13.5,0.4,17.1,3.8c4.4,4.2-2.4,34.4-2.4,34.4l-3.8-2.7c0,0,4.5-18.7-0.9-23.7s-23.7,5.7-27.7-9.1
		C124.4,221.1,149.3,223.5,149.3,223.5z"/>
	<path class="st50" d="M138.5,191.1c21.6,1,12.3,26.6,42.6,14.5c0.2,0.7,0.3,1.5,0.4,2.2c-24.1,12.5-24.1,2.3-38.1-11.2
		C138.2,196.8,136.4,191,138.5,191.1z"/>
	<path class="st16" d="M164.4,253.6c0.9,0.4,1.7,0.7,2.8,1.2c0,1,3.9,3.1,3,3.9c-0.9,0.8-5.7-1.6-7-2.1
		C163.3,255.6,163.7,254.4,164.4,253.6z"/>
	<path class="st16" d="M156.9,268.9c0.9,0.7,1.6,1.4,2.5,2.3c-0.2,1,2,5.3,0.7,5.6c-1.2,0.3-4.6-4.4-5.6-5.5
		C155.1,270.4,156,269.3,156.9,268.9z"/>
	<g>
		<path class="st4" d="M126.9,198.9c-1.8-3.6,5.2-7.3,7.9-7.8c0.5-0.1,0.8-0.1,1.2-0.2c0.4-0.1,0.7-0.1,1.2-0.2
			c0.3-0.1,0.6-0.1,0.9-0.1c4.2,0.5,6.2,3.5,7.6,6.6c0.2,0.3,0.4,0.6,0.7,0.9c0.9,1.1,1.9,2.2,2.8,3.3c0.2,0.2,0.3,0.4,0.5,0.6
			c0.4,0.4,0.8,0.8,1.2,1.2c0,0.4,0,0.7,0,1.1c-0.2,1.4-1,2.7-2.9,3.7c-0.1,0.4-0.1,0.7-0.2,1.1c-0.4,3.2-0.9,6.3-1.2,8.8
			c-0.3,3.6,1.5,3.9,4.1,5.8c-3.6,2.8-7.2,5.5-11,8c-4,1.8-8.5,3.2-12,5.9c-2.2-5.1,0.5-11,1.6-15.7
			C131.6,212.9,130.8,206.7,126.9,198.9z"/>
	</g>
	<path class="st11" d="M130.8,194.6c0.7,1.9,7.2,2,8.3,2s3.1-1.6,2.8-3.7c-0.3-2.1-4.9-1.9-6.1-1.8
		C134.6,191.2,130.1,192.7,130.8,194.6z"/>
	
		<linearGradient id="SVGID_24_" gradientUnits="userSpaceOnUse" x1="799.6534" y1="270.973" x2="799.6534" y2="262.1459" gradientTransform="matrix(-0.9773 0.2118 -0.2118 -0.9773 972.7455 278.2257)">
		<stop  offset="0" style="stop-color:#E2E3E4"/>
		<stop  offset="0.9872" style="stop-color:#FFFFFF"/>
	</linearGradient>
	<path class="st60" d="M130.8,181.6c0.9,3.4,2.6,8.8,0.2,11.8c3.7,0.7,6.6-0.2,9.9-1.9c-4.2-1.5-4.5-7.3-4.9-10.9
		C134.3,180.9,132.5,181.2,130.8,181.6z"/>
	<path class="st11" d="M137.9,178.4c0.8,3.9-3.8,10.5-8.8,10.6c-3.6,0.1-5.7-6.6-6.3-10.1c-0.6-3.5,2.7-7.1,6.5-7.7
		C134.5,170.5,136.8,172.7,137.9,178.4z"/>
	<path class="st14" d="M130.4,180.8c0.1,0.2,0,0.4-0.2,0.5s-0.4-0.1-0.5-0.3s0-0.4,0.2-0.5C130.1,180.5,130.3,180.6,130.4,180.8z"/>
	<path class="st14" d="M124.9,182.8c0.1,0.2,0,0.4-0.2,0.5s-0.4-0.1-0.5-0.3s0-0.4,0.2-0.5C124.6,182.5,124.8,182.6,124.9,182.8z"/>
	<path class="st14" d="M130,168c0,0-11.3,6.1-10.8,12.5c0,0,6.3-1.8,8.2-5.5c0,0,6.6,4.2,8.3,2.6l3,4
		C138.8,181.5,143.3,166.9,130,168z"/>
	<path class="st21" d="M134.8,178.2c-0.1-1.1-0.7-2.7,1.5-2.9c2.1-0.1,2.6,4.5-0.2,5"/>
	<path class="st50" d="M127.8,195.1c0,0,6.7,0.4,1.4,9.5c0,0-6.9,31.5-8.9,32s-3.7,0-3.7,0S119.7,209.7,127.8,195.1z"/>
	<polygon class="st54" points="136.4,244.6 111.9,233.4 98.4,238.2 123.6,251.3 	"/>
	<polygon class="st55" points="98.4,238.2 96.9,214.3 123.4,228.1 123.6,251.3 	"/>
	<polygon class="st11" points="183.5,201.8 183.4,211.2 187.6,211.6 189.2,202 	"/>
	<polygon class="st11" points="182.4,201.6 189.9,201.9 190.2,200.7 182.3,200.4 	"/>
	<polygon class="st46" points="183.1,203.5 189.5,203.8 188.9,208.5 183,208.4 	"/>
	<path class="st11" d="M183,204.1c0.4,0.1,1.5-0.1,1.8,0.7c0.3,0.9-1.8,0-1.8,0V204.1z"/>
	<circle class="st11" cx="188.2" cy="197.4" r="2"/>
	<circle class="st11" cx="185.7" cy="194" r="3.4"/>
	<circle class="st11" cx="190.1" cy="188.5" r="1.4"/>
</g>
<g>
	<path class="st11" d="M105.5,199.7c0.9,0.5,1.4,0.5,1.4,0s-0.6-1.3-1.7-2.3c-1-0.9-1.7-1.7-2.1-2.5c-0.6-0.9-0.8-1.8-0.8-2.7
		c0-1.8,1-2.5,2.9-1.8v-1.7l1.8,1.1v1.6c0.5,0.3,1,0.7,1.4,1s0.7,0.6,1,1l-0.5,2.2l-0.4-0.4c-0.2-0.2-0.4-0.4-0.5-0.5
		c-0.5-0.4-1-0.8-1.5-1.1c-0.8-0.5-1.2-0.5-1.2,0.1c0,0.4,0.6,1.2,1.9,2.5c1.9,1.8,2.8,3.5,2.8,5.1c0,1.9-1,2.6-3,1.8v1.9l-1.8-1.1
		v-1.7c-1.1-0.7-2.1-1.5-2.9-2.4l0.5-2.3c0.4,0.5,0.8,0.9,1.3,1.3C104.5,199,105,199.4,105.5,199.7 M114.5,189.2L97,179.1
		c-2.2-1.3-4-0.2-4,2.3V196c0,2.5,1.8,5.7,4,6.9l4.9,2.8l3.8,9l3.9-4.5l4.9,2.8c2.2,1.3,4,0.2,4-2.3v-14.6
		C118.5,193.6,116.7,190.5,114.5,189.2"/>
	<path class="st12" d="M106.9,189.6l-1.8-1.1v1.7c-1.9-0.7-2.9-0.1-2.9,1.8c0,0.9,0.3,1.8,0.8,2.7c0.5,0.8,1.2,1.6,2.1,2.5
		c1.1,1.1,1.7,1.8,1.7,2.3c0,0.6-0.5,0.6-1.4,0c-0.5-0.3-1-0.7-1.5-1.1c-0.4-0.4-0.9-0.8-1.3-1.3l-0.5,2.3c0.8,0.9,1.7,1.7,2.9,2.4
		v1.7l1.8,1.1v-1.9c2,0.8,3,0.1,3-1.8c0-1.7-0.9-3.3-2.8-5.1c-1.3-1.2-1.9-2.1-1.9-2.5c0-0.5,0.4-0.6,1.2-0.1c0.5,0.3,1,0.7,1.5,1.1
		c0.2,0.2,0.4,0.3,0.5,0.5l0.4,0.4l0.5-2.2c-0.3-0.3-0.7-0.7-1-1c-0.4-0.4-0.9-0.7-1.4-1L106.9,189.6"/>
</g>
</svg>
