<?xml version="1.0" encoding="utf-8"?>
<!-- Generator: Adobe Illustrator 22.1.0, SVG Export Plug-In . SVG Version: 6.00 Build 0)  -->
<svg version="1.1" id="Capa_1" xmlns="http://www.w3.org/2000/svg" xmlns:xlink="http://www.w3.org/1999/xlink" x="0px" y="0px"
	 viewBox="0 0 460 348" style="enable-background:new 0 0 460 348;" xml:space="preserve">
<style type="text/css">
	.st0{fill:#3385FF;}
	.st1{fill:none;stroke:#9999FF;stroke-width:0.5;stroke-miterlimit:10;}
	.st2{fill:none;stroke:#9999FF;stroke-width:0.5;stroke-miterlimit:10;stroke-dasharray:0.9908,0.9908;}
	.st3{fill:#3385FF;stroke:#9999FF;stroke-width:0.5;stroke-miterlimit:10;stroke-dasharray:1;}
	.st4{fill:none;stroke:#9999FF;stroke-width:0.5;stroke-miterlimit:10;stroke-dasharray:1.0111,1.0111;}
	.st5{fill:#0084B5;}
	.st6{fill:#B8D3F4;}
	.st7{fill:#FFFFFF;}
	.st8{fill:url(#SVGID_1_);}
	.st9{fill:#EAEAEA;}
	.st10{fill:#FFFFFF;stroke:#EAEAEA;stroke-width:0.25;stroke-miterlimit:10;}
	.st11{fill:#C6C6C6;}
	.st12{fill:none;stroke:#9999FF;stroke-width:0.5;stroke-miterlimit:10;stroke-dasharray:1.006,1.006;}
	.st13{fill:none;stroke:#9999FF;stroke-width:0.5;stroke-miterlimit:10;stroke-dasharray:1.0062,1.0062;}
	.st14{fill:url(#SVGID_2_);}
	.st15{fill:none;stroke:#9999FF;stroke-width:0.5;stroke-miterlimit:10;stroke-dasharray:0.9912,0.9912;}
	.st16{fill:none;stroke:#9999FF;stroke-width:0.5;stroke-miterlimit:10;stroke-dasharray:1.0088,1.0088;}
	.st17{fill:#3AC0EF;}
	.st18{fill:url(#SVGID_3_);}
	.st19{fill:none;stroke:#7EC1EB;stroke-width:0.75;stroke-miterlimit:10;}
	.st20{fill:#0098D2;}
	.st21{fill:url(#SVGID_4_);}
	.st22{fill:url(#SVGID_5_);}
	.st23{fill:url(#SVGID_6_);}
	.st24{fill:url(#SVGID_7_);}
	.st25{fill:#1F75DB;}
	.st26{fill:none;stroke:#9999FF;stroke-width:0.5;stroke-miterlimit:10;stroke-dasharray:1.0084,1.0084;}
	.st27{fill:#1F75DB;stroke:#9999FF;stroke-width:0.5;stroke-miterlimit:10;stroke-dasharray:1;}
	.st28{fill:url(#SVGID_8_);}
	.st29{fill:#D4E6F9;}
</style>
<g>
	<path class="st0" d="M253.1,146.2c-1,2.5-2.9,6.8-0.5,9.2s4.7-3.9,5.3-6.8C258.4,145.6,256.7,143.8,253.1,146.2z"/>
	<path class="st0" d="M280.8,312.1c-0.9-27.1-0.9-54.9-8-81.3c0,0-0.1,0-0.1,0c0,0,0,0,0,0c-11.9,0-23.1-0.5-34.6-3.9
		c-8.9,40.4-38.3,39.6,5.5,78.2c1-1.8,1.6-3.7,2.6-5.5c-25.2-27.6-15-32.7,6.2-56.9c0.1-0.1,3.6-0.5,3.5,0.8
		c7.4,22.5,13.6,45.4,19.2,68.4C277,312,278.9,312,280.8,312.1z"/>
	<g>
		<g>
			<path class="st1" d="M269.2,228.4c0,0.2,0.1,0.3,0.1,0.5"/>
			<path class="st2" d="M269.6,229.9c6.7,26.1,7.7,53.3,9.5,80.1"/>
			<path class="st1" d="M279.1,310.4c0,0.2,0,0.3,0,0.5"/>
		</g>
	</g>
	<path class="st3" d="M273.8,238.3c-6.3-0.6-8.6-3.4-10.1-9.4c2.2-0.8,4.3-1.6,6.5-2.4"/>
	<g>
		<g>
			<path class="st1" d="M240.9,226.2c0,0.2,0,0.3,0,0.5"/>
			<path class="st4" d="M240.8,227.7c-3.3,35.5-42.1,36.9,1.9,74.3"/>
			<path class="st1" d="M243.1,302.3c0.1,0.1,0.3,0.2,0.4,0.3"/>
		</g>
	</g>
	<path class="st3" d="M238.3,231.9c4.5,1.8,8.4,2.1,8.1-3.8c-2.4-1.2-4.7-2.5-7-3.8"/>
	<path class="st5" d="M246.5,300.8c-0.6,1.5-1.3,2.8-2.1,4.4c0.3,0.9-2.4,7.2,0,6.8c2.4-0.4,4.4-6.8,5.8-9
		C249.2,301.8,248,301,246.5,300.8z"/>
	<path class="st5" d="M275.9,312.6c1.5,0,2.9,0,4.5,0.1c0.6,1,6.5,2.3,5,4.2c-1.6,1.8-7.5,0-9.9,0
		C275.3,315.4,275.3,314,275.9,312.6z"/>
	<path class="st6" d="M264.2,214.7c-1.4-11.4,8.1-19.7,5.9-30.7c-1-5.1-8.5-3.7-12.2-4.8c-0.7-0.2-0.8,0-1.4-0.1
		c-0.6-0.1-0.6-0.2-1.4-0.2c-4.5,0.2-10.9-0.1-14,3.8c-1.2,1.6-1.4,3.5-2.2,5.2c-0.1,0.2,0,0.5-0.2,0.7c-2.4,3-5.6,4.5-3.2,8.6
		c0.1,0.2,0.1,0.3,0.4,0.6c0.3,0.3,1,0.8,1.5,1.1c0.1,0.1,0,0.3,0,0.5c0,4.6,0.8,9.9,1.3,14.4c0.5,5.2-1.2,9.2-1.7,14.2
		c6,2.3,11.9,4.8,18.3,5.9c6.1-0.2,12.2-0.4,18.2-0.8C272.3,226.6,264.9,220.8,264.2,214.7z"/>
	<path class="st7" d="M282.3,129c0.3-1.5,1.2-5.4-0.3-6.3c-1.5-0.9-0.8,4-0.6,4.4c-1.2-1.4-3.3-7.4-5.6-6.6c-2.4,0.8,2.2,8,3.1,9.3
		C280,129.8,281.1,129.4,282.3,129z"/>
	<path class="st6" d="M265.5,181c-1,6-0.9,10,5.8,6.4c5.1,0.4,9.2-0.1,13.4-3.2c-1.5-2.5-3-5-4.3-7.6
		C275.9,179.7,270.8,180.4,265.5,181z"/>
	<path class="st7" d="M280.4,176.6c1.3,2.6,2.8,5.1,4.3,7.6c9.4-11,6.1-25.9,2.9-38.8c-1.4,0.2-2.9,0.2-4.3,0.2
		C285.5,155.9,288.3,168.1,280.4,176.6z"/>
	<path class="st6" d="M279.2,130.4c1.3,5.1,2.8,10.1,4.1,15.2c1.5,0.1,2.9,0.1,4.3-0.2c-1.6-5.3-3.4-10.5-5.4-15.7
		C281.2,129.9,280.2,130.1,279.2,130.4z"/>
	<path class="st7" d="M203.1,133.6c-1.2-0.9-4.3-3.1-3.7-4.7s3.1,2.3,3.3,2.8c0-1.9-2.1-7.6,0.2-8.5c2.3-1,3.4,7.3,3.6,8.8
		C205.4,132.6,204.3,133.1,203.1,133.6z"/>
	<path class="st6" d="M228.9,172c-1.4,2.1-2.7,4.2-3.9,6.4c4.2,3.3,8.6,6,13.9,7.3c5.5,5.8,7.1,0,7.5-5.5
		C239.6,179.2,234.2,176.4,228.9,172z"/>
	<path class="st7" d="M206.4,132.4c-0.9,0.5-1.8,1-2.8,1.5c7.6,14.9,11,32,21.3,44.6c1.2-2.2,2.5-4.4,3.9-6.4
		C219.1,161,214.4,145.4,206.4,132.4z"/>
	<path class="st7" d="M265,181.6c0.1,3.1-6.6,2.9-8.8,2.8c-2.2-0.2-9,0.1-8.4-3.2c0.6-3.3,6.7-2.4,9-2.1
		C259.1,179.4,264.8,178.5,265,181.6z"/>
	<linearGradient id="SVGID_1_" gradientUnits="userSpaceOnUse" x1="258.1733" y1="167.6376" x2="258.1733" y2="179.5928">
		<stop  offset="0" style="stop-color:#E2E3E4"/>
		<stop  offset="0.9872" style="stop-color:#FFFFFF"/>
	</linearGradient>
	<path class="st8" d="M265.6,167.8c-2.8,3.9-6.6,8.7-3,13.1c-4.2,2.3-7.8,1.3-11.9-0.6c5.1-3.6,6.4-9.6,8.3-15.2
		C261.2,166.1,263.4,167,265.6,167.8z"/>
	<path class="st7" d="M269.7,166.1c-3.4,4.3-13.2,8-18.4,2.9c-3.8-3.7-0.8-12.3,2.3-16.6c3.1-4.3,9.9-4.6,14.1-1.4
		C273.4,155.4,274.6,160,269.7,166.1z"/>
	<path class="st7" d="M257.7,150.8c-0.6,1.2-1.3,1.7-2.4,2.6s-2.6,2.7-3.3,3.9c-1.3,2-2.4,3.7-3.7,5.6c1.1,0.2,2.2,0.4,3.4,0.6
		C253.6,159.2,255.7,155,257.7,150.8z"/>
	<path class="st9" d="M251.1,163.3c-0.5,0.2-1,0.3-1.4,0.5c0-0.3,0.1-0.5,0.1-0.8C250.3,163.1,250.7,163.2,251.1,163.3z"/>
	<path class="st0" d="M255.5,146.4c-0.9,4.1,1.1,10.5,3.6,12.6s3.5,2.1,5.8,2.8c-1.2,0.6-3,2.4-1.2,3.3c1.8,0.9,3.4-1.3,4.1-2.7
		c-0.8,2-2.2,5.5-2.9,7.3s-1.4,4.7,0.3,5.1c1.6,0.4,1.1-2.4,0.7-3.2c1.2,1.6,3,2.4,4.6,0.9s0.2-2.6-1.6-2.5c4.7-1,7.4-3.6,7.6-8.8
		c0.1-5.3-0.3-11-5.8-13.6c-4-5.8-8.3-7-15.7-5c-1.6,0.4-6.9,3.7-5.8,7.2C251.2,148.7,253.4,147.4,255.5,146.4z"/>
	<path class="st10" d="M266.9,163.4c1.6-1,2.1-3.6,4.4-1.2c2.4,2.4-2.6,5.7-5.4,4.2"/>
	<path class="st11" d="M255.8,159.7c-0.1,0.3-0.5,0.4-0.8,0.3c-0.3-0.1-0.4-0.5-0.2-0.8c0.1-0.3,0.5-0.4,0.8-0.3
		C255.9,159.1,256,159.4,255.8,159.7z"/>
</g>
<g>
	<path class="st0" d="M61.7,308.3c0.5-29.3,6.5-58.3,12.9-86.8c0,0,0.1,0,0.1,0c0,0,0,0,0,0c12.3,0.5,24.3,0.5,36.6-1
		c5.7,25.3,8.1,53,21.4,75.8c-2.3,1.8-4.7,3.5-7,5.3c-14-20.6-17.3-45.7-31.7-66.3c0-0.1-3.6-1.2-3.2,0.5
		c-5,24.4-15.6,47.2-20.1,71.8C67.6,307.8,64.7,308.1,61.7,308.3z"/>
	<g>
		<g>
			<path class="st1" d="M108.8,222.6c0,0.2,0.1,0.3,0.1,0.5"/>
			<path class="st12" d="M109.1,224.1c5.2,23.8,9.5,48.9,20.9,70.7"/>
			<path class="st1" d="M130.2,295.2c0.1,0.1,0.2,0.3,0.2,0.4"/>
		</g>
	</g>
	<g>
		<g>
			<path class="st1" d="M76.8,223.3c0,0.2-0.1,0.3-0.1,0.5"/>
			<path class="st13" d="M76.6,224.8c-4.6,26.9-11.7,53.5-13.4,80.8"/>
			<path class="st1" d="M63.2,306.2c0,0.2,0,0.3,0,0.5"/>
		</g>
	</g>
	<path class="st3" d="M73.7,232.8c5.5-0.7,7-3.4,7.9-8.7c-1.9-1-3.8-1.9-5.7-2.8"/>
	<path class="st3" d="M112.4,230.7c-5.7,0.2-8.9-1-10.7-6.6c2.8-1,5.5-2.2,8.2-3.5"/>
	<path class="st7" d="M104.6,125c-1.7-0.1-5.5-0.5-5.7-2.5c-0.2-2,3.8,0.4,4.3,0.9c-1-1.6-6-5.3-3.5-7.3c2.5-2,6.4,4,7.5,5.9
		C106.5,123.2,105.6,124.1,104.6,125z"/>
	<path class="st7" d="M41.4,227c0.4,1.5-0.1,5.9,1.7,6.4s1.3-2.7,0.8-3.5c1.8,1.4,3.1,5.3,6,3.6c2.9-1.7-2.9-6.2-4.8-7.1
		C43.9,226.4,42.7,226.6,41.4,227z"/>
	<path class="st6" d="M79.4,167.5c-2.8-0.2-6.4-0.2-9,0.4c-4.1,0.9-5.9,4.4-4.5,7.5c7.4,15.5,4.8,32.3,4.9,48.9
		c3.9,0.5,7.9,0.9,11.9,1.1C83.8,205.6,85.2,186.6,79.4,167.5z"/>
	<path class="st0" d="M99.4,201.4c-2.1-11.7-5.5-23.2-6.5-35.2c-4.6,0.9-8.8,1.3-13.5,1.3c5.7,19.1,4.3,38.2,3.3,57.9
		c4.8,0.2,9.5,0.2,14.4-0.2C98.7,217,100.9,209.9,99.4,201.4z"/>
	<path class="st6" d="M107.9,172.7c-1.4-4.7-3.1-5.1-7-6.5c-2.7-0.9-5.3,0-7.9-0.1c1,12,4.4,23.5,6.5,35.3
		c1.5,8.5-0.7,15.6-2.4,23.8c6.3-0.9,12.4-2.2,18.5-4C115.4,204.6,112.6,188.2,107.9,172.7z"/>
	<path class="st7" d="M40.7,225.7c1.5-0.1,2.9-0.4,4.5-0.1c-3.8-10.3,4.1-32.7,13.1-38c-2.5-3-5.4-5.4-8.1-8.1
		C39.7,195.3,32.3,208.1,40.7,225.7z"/>
	<path class="st6" d="M74,167.5c-9.5,0.5-16.8,5.9-23.8,12c2.7,2.7,5.5,5.2,8.1,8.1c2.4-1.2,6.2-2.4,8.4-3.5
		C81.7,176.5,74.6,180.6,74,167.5z"/>
	<path class="st6" d="M100.2,166.1c6.4,11-5.7,13.3,11.9,12.7c3.4-0.1,9.3-3.2,11.7-6.3c-3-3.1-6-6.3-8.4-9.8
		C110.8,166.4,105.9,166,100.2,166.1z"/>
	<path class="st7" d="M108.5,122.5c-1.3,0.7-2,1.8-2.8,3c8.3,11.2,14.1,23.2,9.7,37.2c2.5,3.6,5.3,6.8,8.5,9.8
		C134.1,149,130.1,135.3,108.5,122.5z"/>
	<path class="st5" d="M126.8,301.8c2.1-1.5,4-3.1,6.1-4.7c1.2,0.2,6.8-3.1,5.8,0.4c-1,3.5-6.5,6-9.4,8.3
		C127.9,304.6,127.3,303.3,126.8,301.8z"/>
	<path class="st5" d="M62.5,308.9c2.6-0.2,5.1-0.4,7.7-0.6c1,0.9,7.6,1.2,4.9,3.7c-2.7,2.5-8.7,1.2-12.3,1.3
		C62.2,311.8,62.2,310.5,62.5,308.9z"/>
	<path class="st7" d="M77.1,170.2c0.6,3.7,8.4,2.9,11.1,2.7c2.7-0.2,9,0.6,8.5-3.5s-6.8-2.1-9.4-1.7
		C84.8,168.1,76.4,166.4,77.1,170.2z"/>
	
		<linearGradient id="SVGID_2_" gradientUnits="userSpaceOnUse" x1="1647.3759" y1="155.817" x2="1647.3759" y2="167.7354" gradientTransform="matrix(-1 0 0 1 1732.2767 0)">
		<stop  offset="0" style="stop-color:#E2E3E4"/>
		<stop  offset="0.9872" style="stop-color:#FFFFFF"/>
	</linearGradient>
	<path class="st14" d="M75.1,156.2c2.8,4.3,4.4,7.8,3.3,12.9c6.5,1.7,10.3,1.8,16.4-0.9c-3.3-4.8-6.5-9.7-9.1-14.9
		C82.1,154.3,78.6,155.2,75.1,156.2z"/>
	<path class="st7" d="M72.3,154.9c3.6,4,12.9,7.2,17.4,2.4c4.5-4.8,1.1-11.9-2.6-16.1c-3.6-4.2-9.7-4.6-13.9-1.3
		C67.4,144.5,67,149.2,72.3,154.9z"/>
	<path class="st0" d="M73.1,136.4c5.3-2.1,10.7-4.3,16.3-3s-5,4.1-6.5,4.1c0.9,0.9,4.9,0.9,2.6,3c-2.4,2.1-7.5,1.7-10.7,1.6
		c1.1,1.7,1.7,3.3,0.6,5c-1.1,1.7-1.5,2.8-1.9,4.9c-0.4,2.1,1.6,4.2,2.8,5.9c-6-0.9-10.8-4-11.4-10.4
		C64.2,141.2,67.7,138.5,73.1,136.4z"/>
	<path class="st10" d="M74.4,151.8c-1.6-0.7-3-3.4-4.5-0.7s3.3,4.8,5.7,3.6"/>
	<path class="st7" d="M82.7,137.5c5.5,2.4,7.9,6,10,11.6c-1.1,0.2-2.1,0.4-3.2,0.6C87.3,145.7,85,141.6,82.7,137.5z"/>
	<path class="st9" d="M90,149.6c0.5,0.2,1,0.3,1.5,0.5c-0.2-0.2,0-0.6-0.3-0.7C90.8,149.3,90.3,149.6,90,149.6z"/>
	<path class="st11" d="M85.4,146c0.2,0.3,0.5,0.4,0.7,0.2c0.3-0.1,0.3-0.4,0.2-0.7s-0.5-0.4-0.7-0.2C85.3,145.4,85.2,145.7,85.4,146
		z"/>
</g>
<g>
	<path class="st0" d="M373.9,310.6c-1.5-28.5-5.9-56.9-3.3-85.5c0,0-0.1,0-0.1,0c0,0,0,0,0,0c-12.6-0.7-25.3-0.9-37.9-1.5
		C321.7,252,317.5,280.9,321,311c2.8-0.6,5.7-1.1,8.6-1.7c0.5-26,5-49.7,19.5-71.9c0-0.1,3.4-1.8,3.4,0.1
		c-1.4,24.9,7.6,48.8,12.6,73C368,310.6,371,310.6,373.9,310.6z"/>
	<g>
		<g>
			<path class="st1" d="M334.6,225.5c-0.1,0.2-0.1,0.3-0.2,0.5"/>
			<path class="st15" d="M334.1,226.9c-9.5,26.3-14.7,53.1-12.3,81.2"/>
			<path class="st1" d="M321.8,308.6c0,0.2,0,0.3,0,0.5"/>
		</g>
	</g>
	<g>
		<g>
			<path class="st1" d="M367.6,226.7c0,0.2,0,0.3-0.1,0.5"/>
			<path class="st16" d="M367.4,228.2c-3.3,26.8,2.4,53.2,4.9,79.9"/>
			<path class="st1" d="M372.3,308.6c0,0.2,0,0.3,0,0.5"/>
		</g>
	</g>
	<path class="st3" d="M367.8,237c-6.4-1.2-6.4-4.5-5.3-10.3c2.3-0.6,4.6-1.2,6.8-1.8"/>
	<path class="st3" d="M328.9,235.2c6.8,0.7,10.5-3,12.7-9.2c-2.6-0.6-5.1-1.5-7.6-2.4"/>
	<path class="st7" d="M292.9,129.8c-0.7-1.6-3.1-5-2-6.5c1.1-1.5,2.3,3.5,2.3,3.9c0.6-1.9,0.4-8.3,3-8.6s0.9,9,0.4,10.4
		C295.4,129.5,294.2,129.6,292.9,129.8z"/>
	<path class="st7" d="M392.8,234.2c-0.6,1.3-2,4.3-0.6,5.3c1.5,1,1.5-2.9,1.4-3.6c1.4,1.8,2.9,7,5.5,6.9s-1.5-7.5-2.2-8.6
		C395.5,234.1,394.2,234.2,392.8,234.2z"/>
	<path class="st17" d="M327.2,174.9c-1.1,15.9,1.9,33.7,0.7,50.1c15.1,3.6,30.5,3.7,45.9,3.4c3.4-20.2-4.1-31.9-4.2-51.3
		c0-3.8-1.5-7.4-5.6-7.9c-9.2-1.1-20.6-1.6-29.8-1C330.4,168.5,327.5,170.1,327.2,174.9z"/>
	<path class="st17" d="M360.3,168.8c36.8,5.8,43.7,31.5,37.2,64.5c-1.2,0.1-3.7-0.6-4.7,0.4c-2.9-16.8,4-44.9-21.2-49.1
		S365.1,181.5,360.3,168.8z"/>
	<path class="st17" d="M334.5,168.3c-29.8-0.9-30.5-11.6-37.3-38c-1.3,0.1-3.2,0.4-4.2,0.5c-5.6,22.7,10.4,51.9,33.4,51.5
		S328.1,175.7,334.5,168.3z"/>
	<path class="st5" d="M328.8,310.2c-2.5,0.5-4.8,0.9-7.4,1.5c-0.2,1.2-7.1,3.7-4.5,5.3c2.6,1.6,9.7-1.5,12.9-2.2
		C330,313.1,329.7,311.6,328.8,310.2z"/>
	<path class="st5" d="M373.2,311.3c-2.6,0-5-0.1-7.6,0c-0.4,1-7.6,2.2-5.2,4.2c2.3,1.9,9.8,0.3,13.1,0.3
		C373.8,314.2,373.8,312.7,373.2,311.3z"/>
	<path class="st7" d="M358.5,172c-0.5,3.9-10.7,5.8-13.5,5c-2.8-0.8-6.9-2.5-6.5-5.9c0.4-3.4,6.9-1.8,9.3-1.7
		C350.3,169.5,359,168.1,358.5,172z"/>
	
		<linearGradient id="SVGID_3_" gradientUnits="userSpaceOnUse" x1="367.8464" y1="157.1792" x2="367.8464" y2="169.5501" gradientTransform="matrix(1 0 0 1 -17.6202 0)">
		<stop  offset="0" style="stop-color:#E2E3E4"/>
		<stop  offset="0.9872" style="stop-color:#FFFFFF"/>
	</linearGradient>
	<path class="st18" d="M359.8,155.7c-1.8,4.8-5.3,10-3.1,15c-5.8,2.5-10.4,2-16-0.6c3-5,5.7-9.9,7.5-15.5
		C352.1,154.9,355.9,155.1,359.8,155.7z"/>
	<path class="st9" d="M343.4,151.5c-0.5,0.2-1,0.5-1.4,0.8c0.1-0.2,0-0.7,0.2-0.8C342.4,151.3,343,151.5,343.4,151.5z"/>
	<path class="st7" d="M361.6,154.8c-2.1,5.3-11.9,10.3-17.2,6.1c-5.3-4.3-3.1-11.4-1-16.6c2-5.2,8.3-7,13.3-4.6
		C363.6,143,364.6,147.2,361.6,154.8z"/>
	<path class="st7" d="M346.7,139.7c-5.1,3.3-6,7.9-6.6,13.6c1,0,2,0.1,3,0.1C344.3,148.8,345.3,144.2,346.7,139.7z"/>
	<path class="st9" d="M342.8,153.3c-0.4,0.2-0.9,0.5-1.3,0.7c0.1-0.1,0-0.6,0.1-0.7C341.9,153.1,342.4,153.3,342.8,153.3z"/>
	<path class="st11" d="M346,148.6c-0.1,0.3-0.3,0.5-0.6,0.4c-0.3-0.1-0.4-0.4-0.4-0.7c0.1-0.3,0.3-0.5,0.6-0.4
		C346,148.1,346.1,148.4,346,148.6z"/>
	<path class="st19" d="M343.1,146.5c-0.9,1.7-0.8,3.9,0.9,5.1c1.7,1.2,3.7,0.1,4.7-1.7s0.9-4-0.9-5S344,144.7,343.1,146.5z"/>
	<path class="st19" d="M349.3,147.3c3.8,0.9,7.3,1.6,10.9,3.1"/>
	<path class="st19" d="M343,146.4c-0.8,0.2-1.6,0.4-2.4,0.5"/>
	<path class="st20" d="M344,133.9c0.6-1.8,2.5-1.4,4-0.8c1.8,0.7,3.5,2,5.5,2.6c2,0.6,4.1,0.8,6.2,1.9c2.6,1.3,5.2,3.1,6.7,5.7
		c0.5,1,0.9,1.8,0.6,3c-0.4,1.7-2,3-1.7,4.9c0.2,1.1,0.1,1.6-0.5,2.4c-0.9,1.2-2,2.2-3.3,1c-1.9-1.8-1.5-3.7-1.6-6.2
		c-0.1-2.5,0.1-4.9-2.3-6.6c-1.6-1.1-3.4-0.8-5.7-1.1C348.3,140.3,342.4,138.9,344,133.9z"/>
	<path class="st10" d="M358.5,151.6c1.1-1.5,1.9-4.1,4-1.8s-1,6.5-4.1,5.7"/>
</g>
<g>
	<path class="st6" d="M225.5,22.4l-15.3,15c3.7,5.8,5.9,12.6,5.9,20.2c0,7.4-2.2,14.4-6,20.2l15.2,15.1c7.5-9.8,12.2-22,12.3-35.2
		C237.6,44.5,232.9,32.2,225.5,22.4"/>
	<path class="st0" d="M178.1-0.8c-32.8-0.1-59.7,25.9-59.8,58.4c-0.1,32.5,26.7,58.3,59.4,58.4c13.7,0,26.2-4.5,36.2-11.9
		l-15.2-15.1c-5.9,3.7-13.1,5.8-20.9,5.8c-20.9-0.1-38-17-38-37.5c0.1-20.5,17.3-37.3,38.2-37.3c7.8,0,14.7,2.2,20.6,6.2l15.3-15
		C204,3.9,191.5-0.7,178.1-0.8"/>
</g>
<g>
	<linearGradient id="SVGID_4_" gradientUnits="userSpaceOnUse" x1="197.2786" y1="348.5282" x2="162.0232" y2="127.8554">
		<stop  offset="0" style="stop-color:#469AED;stop-opacity:0"/>
		<stop  offset="0.8775" style="stop-color:#469AED"/>
	</linearGradient>
	<polygon class="st21" points="155.6,348 143.7,314.6 156.6,313.8 195.9,343 193.5,314.5 206.3,313.9 245,345.6 	"/>
	<linearGradient id="SVGID_5_" gradientUnits="userSpaceOnUse" x1="375.2259" y1="346.7218" x2="340.8951" y2="131.8367">
		<stop  offset="0" style="stop-color:#469AED;stop-opacity:0"/>
		<stop  offset="0.8775" style="stop-color:#469AED"/>
	</linearGradient>
	<polygon class="st22" points="334.5,348 317.3,314.6 330.2,313.8 369.5,343 360,314.5 372.8,313.9 427.4,343 	"/>
	<linearGradient id="SVGID_6_" gradientUnits="userSpaceOnUse" x1="290.4558" y1="345.9137" x2="258.5206" y2="146.0231">
		<stop  offset="0" style="stop-color:#469AED;stop-opacity:0"/>
		<stop  offset="0.8775" style="stop-color:#469AED"/>
	</linearGradient>
	<polygon class="st23" points="257.4,348 245.5,314.6 254,313.8 288.1,343 275.9,314.5 282.5,313.9 330,343.9 	"/>
	<linearGradient id="SVGID_7_" gradientUnits="userSpaceOnUse" x1="102.5636" y1="348.4297" x2="69.0717" y2="138.7952">
		<stop  offset="0" style="stop-color:#469AED;stop-opacity:0"/>
		<stop  offset="0.8775" style="stop-color:#469AED"/>
	</linearGradient>
	<polygon class="st24" points="62.1,348 61.7,314.6 74.6,313.8 108.6,343 124.7,314.5 137.5,313.9 142.6,346.5 	"/>
</g>
<g>
	<path class="st7" d="M220.1,123.5c0-1.5,0.5-6-1.1-6.6c-1.6-0.6-0.3,4.5-0.1,4.9c-1.4-1.3-4.9-6.7-6.9-5.9c-2,0.8,3.7,8.4,4.7,9.3
		C217.8,124.7,218.9,124,220.1,123.5z"/>
	<path class="st7" d="M135.3,123c0.3-1.5,1-5.8,2.7-5.9c1.6-0.1-0.8,4.3-1.1,4.6c1.7-0.9,6.4-5.1,8.2-3.9c1.8,1.3-5.6,6.8-6.7,7.6
		C137.3,124.7,136.3,123.9,135.3,123z"/>
	<path class="st6" d="M163.6,169.4c-27.1-1.8-44.7-14.5-25.9-42.4c-0.7-1.2-3.1-2.5-3-3.4c-31.9,22-7.2,56.9,15.7,58.8
		C173.5,184.2,156.6,176.6,163.6,169.4z"/>
	<path class="st6" d="M187.9,169c25.7-4,39.3-13,28.8-42.4c0.9-0.9,3.6-1.9,3.7-2.3c24.2,26.8-0.9,54.9-22.6,57.4
		C176.2,184.1,195.5,173.2,187.9,169z"/>
	<path class="st0" d="M162.6,149c0,0-3.6-11.8,2.7-16.2c6.3-4.5,17.8-4.3,17.8-4.3l-0.7,3.1l3.5-1.7l-0.7,4.1l4.4-0.8
		C189.6,133.2,190.3,166.4,162.6,149z"/>
	<path class="st25" d="M148.7,309.8c1.5-28.5,2.6-57.3,6.9-85.5c0,0,0.1,0,0.1,0c0,0,0,0,0,0c12.8,0,25.5,0,38.3-0.1
		c4.1,28.2,5.6,57,7.4,85.4c-2.9,0-5.9,0-8.8,0c-5.1-24.1-9-48.2-16.1-72.2c0-0.1-3.2-1.5-3.6,0.2c-6.4,23.6-10.4,48.1-15.3,72.1
		C154.6,309.8,151.7,309.8,148.7,309.8z"/>
	<g>
		<g>
			<path class="st1" d="M191.6,225.9c0,0.2,0,0.3,0,0.5"/>
			<path class="st26" d="M191.7,227.4c2.5,26.6,5.9,53.1,8.3,79.7"/>
			<path class="st1" d="M200.1,307.6c0,0.2,0,0.3,0,0.5"/>
		</g>
	</g>
	<g>
		<g>
			<path class="st1" d="M158.3,225.9c0,0.2,0,0.3,0,0.5"/>
			<path class="st16" d="M158.1,227.4c-2.6,26.6-5.7,53.2-7.8,79.8"/>
			<path class="st1" d="M150.3,307.8c0,0.2,0,0.3,0,0.5"/>
		</g>
	</g>
	<path class="st27" d="M155.1,235.5c6,0,8.8-3.2,8.9-9.2c-2.4-0.7-4.7-1.5-7.1-2.2"/>
	<path class="st27" d="M194.4,235.4c-6,0-8.8-3.1-8.9-9.1c2.4-0.7,4.8-1.5,7.2-2.3"/>
	<path class="st0" d="M195.2,173.8c5.7,15.2,4.3,35.5,3.3,52.2c-15.5,2.3-31.1,2.5-46.7,1.1c0.2-16.4-3.1-38.4,2.2-53.2
		c1.1-2.9,2.9-5.2,6.7-4.7c8.5,1,18.8-0.1,27.5-0.2C191.9,168.9,193.5,169.2,195.2,173.8z"/>
	<path class="st5" d="M193.4,310.3c2.6,0,4.8,0,7.6,0c0.4,0.9,7.2,2.8,5.6,4.3c-1.6,1.5-10.6,0.1-13.5,0.2
		C192.8,313.4,192.7,311.5,193.4,310.3z"/>
	<path class="st5" d="M156.7,310.4c-2.6,0-4.8,0-7.6,0c-0.4,0.9-7.2,2.8-5.6,4.3c1.6,1.5,10.6,0,13.5,0.1
		C157.3,313.5,157.4,311.6,156.7,310.4z"/>
	<path class="st7" d="M164.4,172.5c-0.3,3.1,8.4,2.4,10.2,2.4c1.8,0,10.4,0.7,10.1-2.4c-0.3-3.1-8-2.8-10.1-2.8
		C172.4,169.6,164.7,169.4,164.4,172.5z"/>
	
		<linearGradient id="SVGID_8_" gradientUnits="userSpaceOnUse" x1="1557.7986" y1="157.2397" x2="1557.7986" y2="170.0735" gradientTransform="matrix(-1 0 0 1 1732.2767 0)">
		<stop  offset="0" style="stop-color:#E2E3E4"/>
		<stop  offset="0.9872" style="stop-color:#FFFFFF"/>
	</linearGradient>
	<path class="st28" d="M169.2,154.6c0.1,5.2,0.7,12.1-2.5,16.5c4.5,3.1,10.8,1.8,15.5,0.3c-2.7-4.5-2.8-9.7-2.4-14.8
		C176.3,156,172.7,155.3,169.2,154.6z"/>
	<path class="st7" d="M165.7,153.3c1.6,5.1,11,9,16.4,6.6c5.5-2.4,3.8-10.9,2.2-16c-1.5-5-7.9-6.7-12.9-4.9
		C164.7,141.5,163.4,145.9,165.7,153.3z"/>
	<path class="st10" d="M166.4,151.4c-0.7-1.4-0.9-3.8-3.7-2.6c-2.7,1.2,0,6.9,3.6,5.7"/>
	<path class="st9" d="M176.6,153.1c0.9,0,1.8-0.1,2.7-0.2c0-0.1,0.1-0.3,0.1-0.4C178.4,152.7,177.5,152.9,176.6,153.1z"/>
	<path class="st11" d="M169.6,147.5c0.1,0.3,0.3,0.5,0.6,0.4s0.5-0.3,0.4-0.6c-0.1-0.3-0.3-0.5-0.6-0.4
		C169.7,146.9,169.6,147.2,169.6,147.5z"/>
	<path class="st11" d="M180.6,145.5c0.1,0.3,0.3,0.5,0.6,0.4c0.3-0.1,0.5-0.4,0.4-0.6c-0.1-0.3-0.3-0.5-0.6-0.4
		C180.7,144.9,180.5,145.2,180.6,145.5z"/>
</g>
<circle class="st29" cx="108.5" cy="103.1" r="10.4"/>
<circle class="st29" cx="395.6" cy="98.1" r="10.4"/>
<circle class="st29" cx="323.3" cy="125.7" r="5.1"/>
<circle class="st29" cx="387.5" cy="127.3" r="5.1"/>
<circle class="st29" cx="379.1" cy="131.4" r="2.5"/>
<circle class="st29" cx="86.3" cy="114" r="5.1"/>
<circle class="st29" cx="36.6" cy="105.9" r="5.1"/>
<circle class="st29" cx="240" cy="119" r="8.5"/>
<g>
	<path class="st20" d="M354.3,114.7c0-1.3-0.1-3.3-0.5-5.9l1-0.1c0.4,2.6,0.5,4.8,0.5,6.1L354.3,114.7z M265.2,112.8
		c0-1.9-0.1-3.9-0.3-6l0.9-0.1c0-0.2,0.1-0.4,0.1-0.6l1,0.2c-0.4,2-0.6,4-0.7,5.9l0,0c0,0.2,0,0.4,0,0.5L265.2,112.8z M356.5,111.2
		l-1-0.3c0.6-1.9,1.3-3.8,2.2-5.7l0.9,0.4C357.8,107.4,357.1,109.3,356.5,111.2z M352.6,103c-0.5-1.9-1.1-3.9-1.8-5.7l0.9-0.4
		c0.7,1.8,1.3,3.8,1.8,5.8L352.6,103z M264.2,100.9c-0.3-2-0.7-4-1.2-5.8l1-0.2c0.5,1.9,0.9,3.9,1.2,5.9L264.2,100.9z M268.3,100.5
		l-1-0.3c0.6-2,1.3-3.9,2.1-5.7l0.9,0.4C269.6,96.7,268.9,98.6,268.3,100.5z M361.3,100.3l-0.9-0.5c1-1.7,2.2-3.4,3.4-5l0.8,0.6
		C363.5,97,362.4,98.6,361.3,100.3z M348.3,91.9c-1-1.8-2-3.4-3.2-5l0.8-0.6c1.2,1.6,2.3,3.3,3.3,5.1L348.3,91.9z M368.5,90.8
		l-0.7-0.7c1.4-1.5,2.9-2.9,4.4-4.2l0.6,0.8C371.3,88,369.8,89.4,368.5,90.8z M273.1,89.7l-0.8-0.5c1.1-1.7,2.3-3.4,3.6-4.9l0.8,0.7
		C275.3,86.4,274.2,88,273.1,89.7z M261.2,89.3c-0.7-1.9-1.6-3.7-2.5-5.4l0.9-0.5c1,1.7,1.8,3.5,2.6,5.5L261.2,89.3z M377.5,83.2
		l-0.6-0.8c1.6-1.1,3.4-2.2,5.2-3.1l0.5,0.9C380.8,81,379.1,82.1,377.5,83.2z M341.2,82.5c-1.4-1.4-3-2.6-4.6-3.7l0.6-0.8
		c1.7,1.1,3.3,2.4,4.7,3.8L341.2,82.5z M280.8,80.8l-0.6-0.8c1.5-1.3,3.2-2.5,5-3.5l0.5,0.9C283.9,78.4,282.3,79.5,280.8,80.8z
		 M255.3,79.2c-1.3-1.5-2.8-2.8-4.4-3.9l0.6-0.8c1.6,1.1,3.2,2.5,4.6,4L255.3,79.2z M387.9,77.5l-0.4-0.9c1.8-0.8,3.7-1.5,5.7-2.1
		l0.3,1C391.6,76.1,389.7,76.8,387.9,77.5z M331.5,75.9c-1.7-0.8-3.6-1.5-5.5-2.1l0.3-1c2,0.6,3.9,1.3,5.7,2.2L331.5,75.9z
		 M291,74.8l-0.4-0.9c1.8-0.7,3.8-1.3,5.8-1.8l0.2,1C294.7,73.5,292.8,74.1,291,74.8z M399.3,73.9l-0.2-1c1.9-0.4,3.9-0.8,5.9-1.2
		l0.2,1C403.1,73,401.1,73.4,399.3,73.9z M245.7,72.7c-1.8-0.6-3.7-1-5.7-1.2l0.1-1c2.1,0.2,4.1,0.6,6,1.2L245.7,72.7z M320.2,72.4
		c-1.9-0.3-3.9-0.6-5.9-0.7l0.1-1c2.1,0.1,4.1,0.4,6,0.7L320.2,72.4z M302.5,72l-0.1-1c1.9-0.2,4-0.4,6-0.4l0,1
		C306.3,71.6,304.4,71.8,302.5,72z M411,72l-0.1-1c2-0.2,4-0.3,6-0.4l0,1C414.9,71.7,412.9,71.8,411,72z M425,71.6
		c-0.7,0-1.4,0-2.1,0l0-1c0.7,0,1.4,0,2.1,0L425,71.6z"/>
</g>
</svg>
