<svg width="14" height="8" viewBox="0 0 14 8" fill="none" xmlns="http://www.w3.org/2000/svg">
<path d="M1.7111 4.56968L3.79113 2.26923C3.71716 1.8341 3.82302 1.38558 4.07872 1.04423C4.33442 0.703609 4.71446 0.506838 5.11493 0.506838C5.51538 0.506838 5.89479 0.703591 6.15051 1.04423C6.40685 1.38556 6.51206 1.8341 6.43873 2.26923L8.52137 4.56751C8.75922 4.49487 9.01046 4.49487 9.24831 4.56751L11.3277 2.26923C11.3117 2.17826 11.3035 2.08588 11.3035 1.9935C11.3028 1.38981 11.6306 0.845369 12.1343 0.614061C12.6381 0.382753 13.2184 0.509687 13.6048 0.936361C13.9906 1.36303 14.106 2.00409 13.8975 2.56193C13.689 3.11905 13.1973 3.48297 12.6515 3.48297C12.4914 3.48297 12.332 3.45123 12.1815 3.38917L10.1798 5.60079C10.2959 6.05003 10.2143 6.53382 9.95921 6.90689C9.70414 7.28066 9.30624 7.5 8.88347 7.5C8.46005 7.5 8.06217 7.28068 7.80708 6.90689C7.55265 6.53382 7.4704 6.05003 7.58645 5.60079L5.58999 3.38701C5.28519 3.51395 4.94913 3.51395 4.64433 3.38701L2.6433 5.60079C2.80909 6.25243 2.55594 6.94637 2.02733 7.28913C1.4987 7.63116 0.827869 7.53596 0.394249 7.05639C-0.0387189 6.57755 -0.124813 5.83564 0.18445 5.25099C0.494349 4.66635 1.12126 4.3863 1.7111 4.56968Z" fill="#75777A"/>
</svg>
