<svg width="8" height="12" viewBox="0 0 8 12" fill="none" xmlns="http://www.w3.org/2000/svg">
<path d="M3.9915 0C3.54184 0 3.17801 0.315715 3.17801 0.705878V1.18016C1.77347 1.46416 0.68669 2.53954 0.68669 3.92645C0.68669 4.81155 1.18719 5.50366 1.79255 5.88967C2.39791 6.27568 3.03504 6.45077 3.57206 6.67277C4.53174 7.0202 5.52318 7.3952 5.52953 8.16175C5.52953 9.10615 4.9035 9.57351 3.91523 9.57351C3.14783 9.57351 2.50431 9.0579 2.21199 8.5478C2.04992 8.18243 1.50653 7.99771 1.10613 8.1728C0.705725 8.34789 0.538919 8.8442 0.775645 9.17649C1.20464 9.92511 2.03241 10.6751 3.17797 10.9081V11.2941C3.17797 11.6843 3.54181 12 3.99146 12C4.4411 12 4.80495 11.6843 4.80495 11.2941V10.875C6.13322 10.5455 7.14374 9.49636 7.14374 8.16179C7.14374 7.27669 6.65597 6.57356 6.05061 6.18752C5.44525 5.80147 4.79543 5.62641 4.25841 5.40442C3.30349 5.05699 2.30729 4.68336 2.30094 3.92648C2.30094 2.98209 2.92696 2.51473 3.91523 2.51473C4.68264 2.51473 5.32615 3.01932 5.61848 3.52943C5.78055 3.89479 6.33663 4.07952 6.73703 3.90442C7.13743 3.72933 7.29155 3.23303 7.0548 2.90074C6.64647 2.1866 5.8695 1.47797 4.80501 1.21326V0.705913C4.80501 0.315739 4.44114 0 3.9915 0Z" fill="#75777A"/>
</svg>
