<svg width="125" height="20" viewBox="0 0 125 20" fill="none" xmlns="http://www.w3.org/2000/svg">
<path d="M69.2871 1H67.6729C67.607 1 67.5741 1.03423 67.5741 1.1027V15.4126C67.5741 15.4811 67.607 15.5153 67.6729 15.5153H69.2871C69.353 15.5153 69.3859 15.4811 69.3859 15.4126V1.1027C69.353 1.03423 69.32 1 69.2871 1Z" fill="#141414"/>
<path d="M98.7044 5.45045H100.516C100.549 5.45045 100.615 5.51892 100.615 5.55315V7.23063C100.615 7.2991 100.582 7.33333 100.516 7.33333H98.7044C98.6714 7.33333 98.6385 7.36757 98.6385 7.4018V15.4126C98.6385 15.4811 98.6055 15.5153 98.5396 15.5153H96.9255C96.8596 15.5153 96.8267 15.4811 96.8267 15.4126V7.4018C96.8267 7.36757 96.7937 7.33333 96.7608 7.33333H94.9819C94.916 7.33333 94.8831 7.2991 94.8831 7.23063V5.55315C94.8831 5.48469 94.916 5.45045 94.9819 5.45045H96.7608C96.7937 5.45045 96.8267 5.41622 96.8267 5.38198V1.1027C96.8267 1.03423 96.8596 1 96.9255 1H98.5396C98.6055 1 98.6385 1.03423 98.6385 1.1027V5.38198C98.6385 5.41622 98.6714 5.45045 98.7044 5.45045Z" fill="#141414"/>
<path d="M102.229 2.23248H103.843C103.909 2.23248 103.942 2.26672 103.942 2.33519V4.01266C103.942 4.08113 103.909 4.11537 103.843 4.11537H102.229C102.163 4.11537 102.13 4.08113 102.13 4.01266V2.33519C102.13 2.26672 102.163 2.23248 102.229 2.23248Z" fill="#141414"/>
<path d="M102.229 5.4505H103.843C103.909 5.4505 103.942 5.51897 103.942 5.5532V15.4127C103.942 15.4811 103.909 15.5154 103.843 15.5154H102.229C102.163 15.5154 102.13 15.4811 102.13 15.4127V5.5532C102.13 5.48473 102.163 5.4505 102.229 5.4505Z" fill="#141414"/>
<path fill-rule="evenodd" clip-rule="evenodd" d="M119.458 13.8037C118.502 13.8037 117.679 13.3928 117.086 12.7082C117.053 12.6397 117.053 12.5712 117.119 12.537L122.653 10.1064L124.267 9.38744C124.333 9.3532 124.333 9.31897 124.333 9.28474C123.806 6.92257 121.731 5.17663 119.293 5.27933C116.724 5.38203 114.582 7.53879 114.484 10.2091C114.352 13.1874 116.625 15.6523 119.491 15.6523C121.566 15.6523 123.345 14.3172 124.103 12.4343C124.136 12.3658 124.103 12.2973 124.037 12.2973L122.423 11.9892C122.39 11.9892 122.324 11.9892 122.324 12.0577C121.731 13.0847 120.677 13.8037 119.458 13.8037ZM119.458 7.16225C120.413 7.16225 121.27 7.6073 121.83 8.29198C121.863 8.36045 121.863 8.42892 121.797 8.46315C121.797 8.46315 116.46 10.8253 116.394 10.8595C116.328 10.8938 116.262 10.8253 116.262 10.7911V10.5172C116.229 8.63433 117.679 7.16225 119.458 7.16225Z" fill="#141414"/>
<path d="M112.672 5.4505H114.253C114.319 5.4505 114.352 5.51897 114.286 5.58744L111.025 15.4469C110.992 15.4811 110.959 15.5154 110.926 15.5154H108.686C108.62 15.5154 108.587 15.4811 108.587 15.4469L105.326 5.58744C105.326 5.51897 105.359 5.4505 105.425 5.4505H107.006C107.072 5.4505 107.105 5.48473 107.105 5.51897L109.674 13.3586C109.74 13.5298 109.938 13.5298 110.003 13.3586L112.573 5.51897C112.606 5.48473 112.639 5.4505 112.672 5.4505Z" fill="#141414"/>
<path d="M89.9418 13.8036C87.9653 13.8036 86.417 11.9549 86.7793 9.83242C86.977 8.66846 88.097 7.47026 89.2171 7.23062C90.4359 6.95675 91.5889 7.40179 92.3136 8.25765C92.3466 8.29188 92.4124 8.29188 92.4454 8.25765L93.5984 7.05945C93.6313 7.02521 93.6313 6.95675 93.5984 6.92251C92.643 5.82701 91.2265 5.17656 89.6782 5.24503C87.1417 5.38197 85.0334 7.53873 84.9016 10.1748C84.7699 13.1531 87.0429 15.618 89.9088 15.618C91.3583 15.618 92.676 14.9676 93.5984 13.9405C93.6313 13.9063 93.6313 13.8721 93.5984 13.8378L92.4454 12.6396C92.4124 12.6054 92.3466 12.6054 92.3136 12.6396C91.7536 13.3928 90.8971 13.8036 89.9418 13.8036Z" fill="#141414"/>
<path fill-rule="evenodd" clip-rule="evenodd" d="M79.1697 13.8036C78.2144 13.8036 77.3908 13.3928 76.7979 12.7081C76.7649 12.6396 76.7649 12.5712 76.8308 12.5369L82.3651 10.1063L83.9792 9.38738C84.0451 9.35314 84.0451 9.31891 84.0451 9.28467C83.518 6.92251 81.4427 5.17657 79.005 5.27927C76.4355 5.38197 74.2943 7.53873 74.1954 10.209C74.0637 13.1874 76.3367 15.6522 79.2026 15.6522C81.278 15.6522 83.0568 14.3171 83.8145 12.4342C83.8474 12.3658 83.8145 12.2973 83.7486 12.2973L82.1345 11.9892C82.1015 11.9892 82.0356 11.9892 82.0356 12.0576C81.4427 13.0847 80.3556 13.8036 79.1697 13.8036ZM79.1697 7.16217C80.125 7.16217 80.9815 7.60722 81.5415 8.2919C81.5745 8.36037 81.5745 8.42884 81.5086 8.46307C81.5086 8.46307 76.172 10.8252 76.1061 10.8595C76.0402 10.8937 75.9743 10.8252 75.9743 10.791V10.5171C75.9414 8.63424 77.3908 7.16217 79.1697 7.16217Z" fill="#141414"/>
<path d="M71.1977 1H72.8119C72.8448 1 72.9107 1.03423 72.9107 1.1027V15.4126C72.9107 15.4811 72.8778 15.5153 72.8119 15.5153H71.1977C71.1319 15.5153 71.0989 15.4811 71.0989 15.4126V1.1027C71.0989 1.03423 71.1319 1 71.1977 1Z" fill="#141414"/>
<path fill-rule="evenodd" clip-rule="evenodd" d="M56.3738 10.4829C56.3738 7.60723 58.6138 5.2793 61.381 5.2793C64.1481 5.2793 66.3882 7.60723 66.3882 10.4829C66.3882 13.3586 64.1481 15.6865 61.381 15.6865C58.6138 15.6865 56.3738 13.3586 56.3738 10.4829ZM64.5764 10.4829C64.5764 8.66848 63.1599 7.16217 61.381 7.16217C59.6021 7.16217 58.1856 8.66848 58.1856 10.4829C58.1856 12.2973 59.635 13.8036 61.381 13.8036C63.1269 13.8036 64.5764 12.2973 64.5764 10.4829Z" fill="#141414"/>
<path d="M49.0277 9.83242C48.6653 11.9549 50.2136 13.8036 52.1901 13.8036C53.1454 13.8036 54.0019 13.3928 54.562 12.6396C54.5949 12.6054 54.6608 12.6054 54.6937 12.6396L55.8467 13.8378C55.8796 13.8721 55.8796 13.9063 55.8467 13.9405C54.9243 14.9676 53.6066 15.618 52.1572 15.618C49.2912 15.618 47.0182 13.1531 47.15 10.1748C47.2818 7.53873 49.3901 5.38197 51.9266 5.24503C53.4749 5.17656 54.8914 5.82701 55.8467 6.92251C55.8796 6.95675 55.8796 7.02521 55.8467 7.05945L54.6937 8.25765C54.6608 8.29188 54.5949 8.29188 54.562 8.25765C53.8372 7.40179 52.6843 6.95675 51.4654 7.23062C50.3454 7.47026 49.2253 8.66846 49.0277 9.83242Z" fill="#141414"/>
<path d="M37.7554 5.2793C36.7013 5.2793 35.4824 5.96398 34.9224 6.7856C34.8895 6.85407 34.7577 6.81984 34.7577 6.75137V5.55317C34.7577 5.51894 34.7248 5.45047 34.6589 5.45047H33.0447C33.0118 5.45047 32.9459 5.4847 32.9459 5.55317V15.4469C32.9459 15.4811 32.9788 15.5496 33.0447 15.5496H34.6589C34.6918 15.5496 34.7577 15.5153 34.7577 15.4469V10.5171C34.7577 8.63425 35.9766 7.29912 37.7225 7.29912C40.0284 7.29912 40.7202 8.87389 40.7202 10.7225V15.4469C40.7202 15.4811 40.7532 15.5496 40.819 15.5496H42.4332C42.4662 15.5496 42.532 15.5153 42.532 15.4469V10.7225C42.565 7.84686 41.2473 5.2793 37.7554 5.2793Z" fill="#141414"/>
<path fill-rule="evenodd" clip-rule="evenodd" d="M27.1151 13.8036C26.1598 13.8036 25.3363 13.3928 24.7433 12.7081C24.7104 12.6396 24.7104 12.5712 24.7763 12.5369L30.3105 10.1063L31.9247 9.38738C31.9906 9.35314 31.9906 9.31891 31.9906 9.28468C31.4635 6.92251 29.3881 5.17657 26.9504 5.27927C24.381 5.38197 22.2397 7.53873 22.1409 10.209C22.0091 13.1874 24.2821 15.6522 27.1481 15.6522C29.2234 15.6522 31.0023 14.3171 31.76 12.4342C31.7929 12.3658 31.76 12.2973 31.6941 12.2973L30.0799 11.9892C30.047 11.9892 29.9811 11.9892 29.9811 12.0576C29.3881 13.0847 28.334 13.8036 27.1151 13.8036ZM27.1152 7.16217C28.0705 7.16217 28.927 7.60722 29.487 8.2919C29.5199 8.36037 29.5199 8.42884 29.454 8.46307C29.454 8.46307 24.1174 10.8252 24.0515 10.8595C23.9857 10.8937 23.9198 10.8252 23.9198 10.791V10.5171C23.9198 8.63424 25.3692 7.16217 27.1152 7.16217Z" fill="#141414"/>
<path fill-rule="evenodd" clip-rule="evenodd" d="M13.2465 6.58017C13.9383 5.72432 14.9266 5.21081 16.1784 5.17657C18.5832 5.14234 20.7573 6.92252 21.1526 9.42162C21.7456 12.7081 19.3079 15.5838 16.2443 15.5838C14.9266 15.5838 13.9054 15.036 13.2136 14.1802C13.1477 14.1117 13.0489 14.1459 13.0489 14.2486V19.8973C13.0489 19.9658 13.016 20 12.9501 20H11.3688C11.303 20 11.27 19.9658 11.27 19.8973V5.55315C11.27 5.48468 11.303 5.45045 11.3688 5.45045H12.983C13.0489 5.45045 13.0818 5.48468 13.0818 5.55315V6.51171C13.0818 6.61441 13.1807 6.64864 13.2465 6.58017ZM13.1148 9.8324C12.7524 12.0919 14.6301 14.0432 16.8043 13.6666C18.122 13.427 19.2091 12.3315 19.4067 10.9621C19.7691 8.70267 17.8914 6.75132 15.7172 7.1279C14.3995 7.3333 13.3454 8.46303 13.1148 9.8324Z" fill="#141414"/>
<path fill-rule="evenodd" clip-rule="evenodd" d="M5.34045 5.2793C2.57331 5.2793 0.333252 7.60723 0.333252 10.4829C0.333252 13.3586 2.57331 15.6865 5.34045 15.6865C8.10758 15.6865 10.3476 13.3586 10.3476 10.4829C10.3476 7.60723 8.10758 5.2793 5.34045 5.2793ZM5.34044 7.16217C7.11931 7.16217 8.53582 8.66847 8.53582 10.4829C8.53582 12.2973 7.08637 13.8036 5.34044 13.8036C3.59451 13.8036 2.14506 12.2973 2.14506 10.4829C2.14506 8.66847 3.59451 7.16217 5.34044 7.16217Z" fill="#141414"/>
</svg>
