<?xml version="1.0" encoding="UTF-8" standalone="no"?>
<!-- Created with Inkscape (http://www.inkscape.org/) -->

<svg
   width="146.72488mm"
   height="19.850307mm"
   viewBox="0 0 554.55075 75.024786"
   version="1.1"
   id="svg1"
   xmlns="http://www.w3.org/2000/svg"
   xmlns:svg="http://www.w3.org/2000/svg">
  <defs
     id="defs1" />
  <g
     id="layer1"
     transform="translate(-204.00001,-333.00002)">
    <path
       d="m 547.99024,333 v 58.08985 h 6.79492 V 333 Z m 13.96289,0 v 58.08985 h 6.79297 V 333 Z m -302.17774,5.89844 c -1.54311,0 -2.98608,0.2972 -4.33008,0.89453 -1.344,0.59734 -2.5142,1.41951 -3.50976,2.46485 -0.99556,0.99556 -1.79134,2.1902 -2.38868,3.58398 -0.54755,1.39378 -0.82226,2.86314 -0.82226,4.40625 v 2.83594 h -4.55469 v 6.57031 h 4.55469 v 31.43555 h 6.57031 V 359.6543 h 10.90234 v 31.43555 h 6.79493 v -38.00586 h -17.69727 v -2.83594 c 0,-1.29423 0.42331,-2.41555 1.26953,-3.36133 0.84623,-0.99556 1.91672,-1.49219 3.21094,-1.49219 h 6.42187 v 3.65821 h 6.79493 v -10.1543 z m 396.77931,0 v 14.18555 h -5.07618 v 6.57031 h 5.07618 v 31.43555 h 6.79492 V 359.6543 h 6.86914 v -6.57031 h -6.86914 v -14.18555 z m 18.59179,0 v 10.1543 h 6.79493 v -10.1543 z m -276.49024,13.73828 c -2.688,0 -5.22785,0.52303 -7.61719,1.56836 -2.33956,0.99556 -4.40526,2.38964 -6.19726,4.18164 -1.79201,1.79201 -3.21053,3.88215 -4.25586,6.27149 -0.99555,2.33956 -1.49219,4.85301 -1.49219,7.54101 0,2.63823 0.49664,5.12724 1.49219,7.4668 1.04533,2.33956 2.46385,4.40526 4.25586,6.19727 1.792,1.74222 3.8577,3.1363 6.19726,4.18164 2.38934,0.99555 4.92919,1.49218 7.61719,1.49218 1.94134,0 3.78317,-0.27276 5.52539,-0.82031 1.79201,-0.59733 3.45884,-1.39311 5.00196,-2.38867 1.54311,-1.04533 2.91275,-2.23998 4.10742,-3.58399 1.19466,-1.39378 2.18988,-2.91202 2.98633,-4.55468 l -6.27149,-2.83789 c -0.99555,2.14044 -2.48935,3.907 -4.48047,5.30078 -1.99111,1.344 -4.28069,2.01562 -6.86914,2.01562 -1.99111,0 -3.85738,-0.37246 -5.59961,-1.11914 -1.74222,-0.79644 -3.18714,-1.91581 -4.33203,-3.35937 l 27.85156,-15.08399 c -0.69689,-1.792 -1.64322,-3.4344 -2.83789,-4.92773 -1.19466,-1.54312 -2.56235,-2.86193 -4.10546,-3.95703 -1.54312,-1.1449 -3.23635,-2.01595 -5.07813,-2.61328 -1.84179,-0.64712 -3.80777,-0.97071 -5.89844,-0.97071 z m 194.95509,0 c -2.688,0 -5.22785,0.52303 -7.61719,1.56836 -2.33956,0.99556 -4.40527,2.38964 -6.19727,4.18164 -1.79201,1.79201 -3.21052,3.88215 -4.25586,6.27149 -0.99556,2.33956 -1.49219,4.85301 -1.49219,7.54101 0,2.63823 0.49663,5.12724 1.49219,7.4668 1.04534,2.33956 2.46385,4.40526 4.25586,6.19727 1.792,1.74222 3.85771,3.1363 6.19727,4.18164 2.38934,0.99555 4.92919,1.49218 7.61719,1.49218 1.94134,0 3.78316,-0.27276 5.52539,-0.82031 1.792,-0.59733 3.45884,-1.39311 5.00195,-2.38867 1.54311,-1.04533 2.91275,-2.23998 4.10742,-3.58399 1.19467,-1.39378 2.18988,-2.91202 2.98633,-4.55468 l -6.27149,-2.83789 c -0.99556,2.14044 -2.48935,3.907 -4.48046,5.30078 -1.99112,1.344 -4.28069,2.01562 -6.86914,2.01562 -1.99112,0 -3.85739,-0.37246 -5.59961,-1.11914 -1.74222,-0.79644 -3.18714,-1.91581 -4.33204,-3.35937 l 27.85157,-15.08399 c -0.6969,-1.792 -1.64323,-3.4344 -2.83789,-4.92773 -1.19467,-1.54312 -2.56235,-2.86193 -4.10547,-3.95703 -1.54312,-1.1449 -3.23635,-2.01595 -5.07813,-2.61328 -1.84178,-0.64712 -3.80776,-0.97071 -5.89843,-0.97071 z m 147.01953,0 c -2.68801,0 -5.22785,0.52303 -7.61719,1.56836 -2.33956,0.99556 -4.40526,2.38964 -6.19726,4.18164 -1.79201,1.79201 -3.21053,3.88215 -4.25586,6.27149 -0.99556,2.33956 -1.49414,4.85301 -1.49414,7.54101 0,2.63823 0.49858,5.12724 1.49414,7.4668 1.04533,2.33956 2.46385,4.40526 4.25586,6.19727 1.792,1.74222 3.8577,3.1363 6.19726,4.18164 2.38934,0.99555 4.92918,1.49218 7.61719,1.49218 1.94133,0 3.78316,-0.27276 5.52539,-0.82031 1.792,-0.59733 3.45883,-1.39311 5.00195,-2.38867 1.54312,-1.04533 2.91276,-2.23998 4.10743,-3.58399 1.19466,-1.39378 2.18988,-2.91202 2.98632,-4.55468 l -6.27343,-2.83789 c -0.99556,2.14044 -2.48741,3.907 -4.47852,5.30078 -1.99111,1.344 -4.28069,2.01562 -6.86914,2.01562 -1.99112,0 -3.85934,-0.37246 -5.60156,-1.11914 -1.74223,-0.79644 -3.18519,-1.91581 -4.33008,-3.35937 l 27.85156,-15.08399 c -0.69689,-1.792 -1.64322,-3.4344 -2.83789,-4.92773 -1.19467,-1.54312 -2.56431,-2.86193 -4.10742,-3.95703 -1.54311,-1.1449 -3.23439,-2.01595 -5.07617,-2.61328 -1.84178,-0.64712 -3.80777,-0.97071 -5.89844,-0.97071 z m -517.29298,0.14844 c -2.68801,0 -5.2259,0.49858 -7.61524,1.49414 -2.33956,0.99555 -4.38082,2.3652 -6.12304,4.10742 -1.74223,1.74223 -3.11186,3.78154 -4.10742,6.1211 -0.99556,2.33956 -1.49219,4.85496 -1.49219,7.54296 0,2.63823 0.49663,5.12529 1.49219,7.46485 0.99556,2.33956 2.36519,4.40722 4.10742,6.19922 1.74222,1.74222 3.78348,3.13435 6.12304,4.17969 2.38934,0.99556 4.92723,1.49414 7.61524,1.49414 2.58845,0 5.05302,-0.49858 7.39258,-1.49414 2.33956,-1.04534 4.38082,-2.43747 6.12304,-4.17969 1.79201,-1.792 3.18609,-3.85966 4.18164,-6.19922 1.04534,-2.33956 1.56641,-4.82662 1.56641,-7.46485 0,-2.688 -0.52107,-5.2034 -1.56641,-7.54296 -0.99555,-2.33956 -2.38963,-4.37887 -4.18164,-6.1211 -1.74222,-1.74222 -3.78348,-3.11187 -6.12304,-4.10742 -2.33956,-0.99556 -4.80413,-1.49414 -7.39258,-1.49414 z m 89.22656,0 c -2.688,0 -5.22589,0.49858 -7.61523,1.49414 -2.33956,0.99555 -4.38083,2.3652 -6.12305,4.10742 -1.74222,1.74223 -3.10991,3.78154 -4.10547,6.1211 -0.99556,2.33956 -1.49414,4.85496 -1.49414,7.54296 0,2.63823 0.49858,5.12529 1.49414,7.46485 0.99556,2.33956 2.36325,4.40722 4.10547,6.19922 1.74222,1.74222 3.78349,3.13435 6.12305,4.17969 2.38934,0.99556 4.92723,1.49414 7.61523,1.49414 2.58845,0 5.05302,-0.49858 7.39258,-1.49414 2.33956,-1.04534 4.38082,-2.43747 6.12305,-4.17969 1.792,-1.792 3.18608,-3.85966 4.18164,-6.19922 1.04533,-2.33956 1.56836,-4.82662 1.56836,-7.46485 0,-2.688 -0.52303,-5.2034 -1.56836,-7.54296 -0.99556,-2.33956 -2.38964,-4.37887 -4.18164,-6.1211 -1.74223,-1.74222 -3.78349,-3.11187 -6.12305,-4.10742 -2.33956,-0.99556 -4.80413,-1.49414 -7.39258,-1.49414 z m 43.53125,0 c -2.53867,0 -4.87713,0.44775 -7.01757,1.34375 -2.09068,0.89601 -3.9325,2.14149 -5.52539,3.73437 v -4.77929 h -6.79493 v 54.65625 h 6.79493 v -21.42969 c 1.59289,1.59289 3.43471,2.83837 5.52539,3.73438 2.14044,0.896 4.4789,1.34375 7.01757,1.34375 2.688,0 5.20146,-0.49858 7.54102,-1.49414 2.38934,-0.99556 4.48144,-2.36325 6.27344,-4.10547 1.792,-1.74223 3.18413,-3.78349 4.17969,-6.12305 1.04533,-2.33956 1.56835,-4.85301 1.56835,-7.54102 0,-2.688 -0.52302,-5.20145 -1.56835,-7.54101 -0.99556,-2.38934 -2.38769,-4.45504 -4.17969,-6.19727 -1.792,-1.74222 -3.8841,-3.11187 -6.27344,-4.10742 -2.33956,-0.99556 -4.85302,-1.49414 -7.54102,-1.49414 z m 80.04298,0 c -1.69245,0 -3.25957,0.29915 -4.70313,0.89648 -1.39378,0.59734 -2.51511,1.3198 -3.36133,2.16602 v -2.76367 h -6.79492 v 38.00586 h 6.79492 V 366.375 c 0,-1.89156 0.5983,-3.53395 1.79297,-4.92773 1.24445,-1.39378 2.98656,-2.08984 5.22656,-2.08984 0.99556,0 1.89106,0.19747 2.6875,0.5957 0.84623,0.34844 1.56869,0.84703 2.16602,1.49414 0.59733,0.64711 1.06952,1.39401 1.41797,2.24023 0.34844,0.84622 0.52344,1.74172 0.52344,2.6875 v 24.71485 h 6.79492 v -25.01367 c 0,-1.84178 -0.32359,-3.55946 -0.97071,-5.15235 -0.6471,-1.64267 -1.54456,-3.06119 -2.68945,-4.25586 -1.09511,-1.19467 -2.41392,-2.13905 -3.95703,-2.83594 -1.49333,-0.69689 -3.13573,-1.04687 -4.92773,-1.04687 z m 51.74414,0 c -2.63823,0 -5.12724,0.52302 -7.4668,1.56836 -2.33956,0.99555 -4.40527,2.38963 -6.19727,4.18164 -1.74222,1.74222 -3.1363,3.78349 -4.18164,6.12305 -0.99556,2.33956 -1.49218,4.80412 -1.49218,7.39257 0,2.688 0.49662,5.2259 1.49218,7.61524 1.04534,2.33956 2.43942,4.38082 4.18164,6.12305 1.792,1.74222 3.85771,3.10991 6.19727,4.10547 2.33956,0.99556 4.82857,1.49414 7.4668,1.49414 2.98667,0 5.72399,-0.59831 8.21289,-1.79297 2.48889,-1.19468 4.65431,-2.78623 6.49609,-4.77735 l -4.77734,-4.77929 c -1.29423,1.44356 -2.78802,2.61376 -4.48047,3.50976 -1.64267,0.84623 -3.46005,1.26953 -5.45117,1.26953 -1.69245,0 -3.31041,-0.32359 -4.85352,-0.9707 -1.49333,-0.69689 -2.81214,-1.61878 -3.95703,-2.76367 -1.09511,-1.1449 -1.99061,-2.48814 -2.6875,-4.03125 -0.64711,-1.54312 -0.9707,-3.20996 -0.9707,-5.00196 0,-1.69244 0.32359,-3.28595 0.9707,-4.77929 0.69689,-1.54312 1.59239,-2.86192 2.6875,-3.95703 1.14489,-1.14489 2.4637,-2.04234 3.95703,-2.68946 1.54311,-0.69689 3.16107,-1.04492 4.85352,-1.04492 1.99112,0 3.8085,0.39887 5.45117,1.19531 1.64267,0.79645 3.03675,1.91582 4.18164,3.35938 l 4.85352,-4.85352 c -1.74223,-1.99111 -3.85877,-3.55824 -6.34766,-4.70312 -2.43911,-1.19468 -5.152,-1.79297 -8.13867,-1.79297 z m 35.54101,0 c -2.688,0 -5.22589,0.49858 -7.61523,1.49414 -2.33956,0.99555 -4.38082,2.3652 -6.12305,4.10742 -1.74222,1.74223 -3.11186,3.78154 -4.10742,6.1211 -0.99556,2.33956 -1.49219,4.85496 -1.49219,7.54296 0,2.63823 0.49663,5.12529 1.49219,7.46485 0.99556,2.33956 2.3652,4.40722 4.10742,6.19922 1.74223,1.74222 3.78349,3.13435 6.12305,4.17969 2.38934,0.99556 4.92723,1.49414 7.61523,1.49414 2.58845,0 5.05302,-0.49858 7.39258,-1.49414 2.33956,-1.04534 4.38082,-2.43747 6.12305,-4.17969 1.792,-1.792 3.18608,-3.85966 4.18164,-6.19922 1.04533,-2.33956 1.56641,-4.82662 1.56641,-7.46485 0,-2.688 -0.52108,-5.2034 -1.56641,-7.54296 -0.99556,-2.33956 -2.38964,-4.37887 -4.18164,-6.1211 -1.74223,-1.74222 -3.78349,-3.11187 -6.12305,-4.10742 -2.33956,-0.99556 -4.80413,-1.49414 -7.39258,-1.49414 z m 110.65626,0 c -2.63823,0 -5.12724,0.52302 -7.4668,1.56836 -2.33955,0.99555 -4.40526,2.38963 -6.19727,4.18164 -1.74222,1.74222 -3.1363,3.78349 -4.18164,6.12305 -0.99556,2.33956 -1.49219,4.80412 -1.49219,7.39257 0,2.688 0.49663,5.2259 1.49219,7.61524 1.04534,2.33956 2.43942,4.38082 4.18164,6.12305 1.79201,1.74222 3.85772,3.10991 6.19727,4.10547 2.33956,0.99556 4.82857,1.49414 7.4668,1.49414 2.98667,0 5.72399,-0.59831 8.21289,-1.79297 2.48889,-1.19468 4.65431,-2.78623 6.49609,-4.77735 l -4.77734,-4.77929 c -1.29423,1.44356 -2.78803,2.61376 -4.48047,3.50976 -1.64267,0.84623 -3.46005,1.26953 -5.45117,1.26953 -1.69245,0 -3.31041,-0.32359 -4.85352,-0.9707 -1.49333,-0.69689 -2.81214,-1.61878 -3.95703,-2.76367 -1.09511,-1.1449 -1.99061,-2.48814 -2.6875,-4.03125 -0.64711,-1.54312 -0.9707,-3.20996 -0.9707,-5.00196 0,-1.69244 0.32359,-3.28595 0.9707,-4.77929 0.69689,-1.54312 1.59239,-2.86192 2.6875,-3.95703 1.14489,-1.14489 2.4637,-2.04234 3.95703,-2.68946 1.54311,-0.69689 3.16107,-1.04492 4.85352,-1.04492 1.99112,0 3.8085,0.39887 5.45117,1.19531 1.64267,0.79645 3.03675,1.91582 4.18164,3.35938 l 4.85351,-4.85352 c -1.74222,-1.99111 -3.85876,-3.55824 -6.34765,-4.70312 -2.43912,-1.19468 -5.152,-1.79297 -8.13867,-1.79297 z m 41.0664,0.29883 v 38.00586 h 6.79493 v -38.00586 z m 10.97657,0 15.08203,38.00586 h 4.77929 l 15.08204,-38.00586 h -7.39063 l -10.23047,25.75976 -9.92969,-25.75976 z m -287.46681,6.34765 c 1.5929,0 3.11114,0.34804 4.55469,1.04493 1.49334,0.64711 2.81214,1.5426 3.95703,2.6875 l -20.98047,11.05078 c -0.14931,-0.29867 -0.24903,-0.62227 -0.29883,-0.97071 v -1.04492 c 0,-1.792 0.32359,-3.45884 0.97071,-5.00195 0.69689,-1.54312 1.61683,-2.88832 2.76172,-4.0332 1.14489,-1.1449 2.49009,-2.04039 4.0332,-2.6875 1.54311,-0.69689 3.20995,-1.04493 5.00195,-1.04493 z m 194.95509,0 c 1.59289,0 3.11112,0.34804 4.55468,1.04493 1.49334,0.64711 2.81214,1.5426 3.95703,2.6875 l -20.98047,11.05078 c -0.14931,-0.29867 -0.24902,-0.62227 -0.29882,-0.97071 v -1.04492 c 0,-1.792 0.32359,-3.45884 0.9707,-5.00195 0.69689,-1.54312 1.61683,-2.88832 2.76172,-4.0332 1.14489,-1.1449 2.48814,-2.04039 4.03125,-2.6875 1.54311,-0.69689 3.21191,-1.04493 5.00391,-1.04493 z m 147.01953,0 c 1.59289,0 3.11113,0.34804 4.55469,1.04493 1.49334,0.64711 2.81214,1.5426 3.95703,2.6875 l -20.98242,11.05078 c -0.14932,-0.29867 -0.24903,-0.62227 -0.29883,-0.97071 v -1.04492 c 0,-1.792 0.32359,-3.45884 0.9707,-5.00195 0.69689,-1.54312 1.61879,-2.88832 2.76367,-4.0332 1.1449,-1.1449 2.48814,-2.04039 4.03125,-2.6875 1.54312,-0.69689 3.2119,-1.04493 5.00391,-1.04493 z m -517.21681,0.0742 c 1.69245,0 3.28401,0.34803 4.77734,1.04492 1.54312,0.64712 2.86192,1.54262 3.95704,2.6875 1.14489,1.1449 2.04234,2.49009 2.68945,4.03321 0.69689,1.54311 1.04492,3.20994 1.04492,5.00195 0,1.69245 -0.34803,3.3104 -1.04492,4.85352 -0.64711,1.49333 -1.54456,2.81213 -2.68945,3.95703 -1.09512,1.09511 -2.41392,1.99256 -3.95704,2.68945 -1.49333,0.64711 -3.08489,0.9707 -4.77734,0.9707 -1.79201,0 -3.46079,-0.32359 -5.00391,-0.9707 -1.54311,-0.69689 -2.88635,-1.59434 -4.03125,-2.68945 -1.14488,-1.1449 -2.06677,-2.4637 -2.76367,-3.95703 -0.64711,-1.54312 -0.9707,-3.16107 -0.9707,-4.85352 0,-1.79201 0.32359,-3.45884 0.9707,-5.00195 0.6969,-1.54312 1.61879,-2.88831 2.76367,-4.03321 1.1449,-1.14488 2.48814,-2.04038 4.03125,-2.6875 1.54312,-0.69689 3.2119,-1.04492 5.00391,-1.04492 z m 89.22657,0 c 1.69244,0 3.284,0.34803 4.77734,1.04492 1.54311,0.64712 2.86192,1.54262 3.95703,2.6875 1.14489,1.1449 2.04235,2.49009 2.68945,4.03321 0.6969,1.54311 1.04493,3.20994 1.04493,5.00195 0,1.69245 -0.34803,3.3104 -1.04493,4.85352 -0.6471,1.49333 -1.54456,2.81213 -2.68945,3.95703 -1.09511,1.09511 -2.41392,1.99256 -3.95703,2.68945 -1.49334,0.64711 -3.0849,0.9707 -4.77734,0.9707 -1.792,0 -3.4608,-0.32359 -5.00391,-0.9707 -1.54311,-0.69689 -2.88636,-1.59434 -4.03125,-2.68945 -1.14489,-1.1449 -2.06679,-2.4637 -2.76367,-3.95703 -0.64712,-1.54312 -0.97071,-3.16107 -0.97071,-4.85352 0,-1.79201 0.32359,-3.45884 0.97071,-5.00195 0.69688,-1.54312 1.61878,-2.88831 2.76367,-4.03321 1.14489,-1.14488 2.48814,-2.04038 4.03125,-2.6875 1.54311,-0.69689 3.21191,-1.04492 5.00391,-1.04492 z m 210.85742,0 c 1.69245,0 3.28596,0.34803 4.7793,1.04492 1.54311,0.64712 2.86192,1.54262 3.95703,2.6875 1.14489,1.1449 2.04234,2.49009 2.68945,4.03321 0.6969,1.54311 1.04493,3.20994 1.04493,5.00195 0,1.69245 -0.34803,3.3104 -1.04493,4.85352 -0.64711,1.49333 -1.54456,2.81213 -2.68945,3.95703 -1.09511,1.09511 -2.41392,1.99256 -3.95703,2.68945 -1.49334,0.64711 -3.08685,0.9707 -4.7793,0.9707 -1.792,0 -3.45884,-0.32359 -5.00195,-0.9707 -1.54311,-0.69689 -2.88636,-1.59434 -4.03125,-2.68945 -1.14489,-1.1449 -2.06679,-2.4637 -2.76367,-3.95703 -0.64712,-1.54312 -0.97071,-3.16107 -0.97071,-4.85352 0,-1.79201 0.32359,-3.45884 0.97071,-5.00195 0.69688,-1.54312 1.61878,-2.88831 2.76367,-4.03321 1.14489,-1.14488 2.48814,-2.04038 4.03125,-2.6875 1.54311,-0.69689 3.20995,-1.04492 5.00195,-1.04492 z m -167.40235,0.14844 c 1.792,0 3.45884,0.34999 5.00196,1.04688 1.54311,0.64711 2.88831,1.5426 4.0332,2.6875 1.14489,1.09511 2.04039,2.41391 2.6875,3.95703 0.69689,1.49333 1.04492,3.08685 1.04492,4.77929 0,1.79201 -0.34803,3.45884 -1.04492,5.00196 -0.64711,1.49333 -1.54261,2.81213 -2.6875,3.95703 -1.14489,1.09511 -2.49009,1.96617 -4.0332,2.61328 -1.54312,0.59733 -3.20996,0.89648 -5.00196,0.89648 -1.74222,0 -3.38462,-0.29915 -4.92773,-0.89648 -1.49334,-0.64711 -2.81214,-1.51817 -3.95703,-2.61328 -1.09511,-1.1449 -1.99061,-2.4637 -2.6875,-3.95703 -0.64711,-1.54312 -0.9707,-3.20995 -0.9707,-5.00196 0,-1.69244 0.32359,-3.28596 0.9707,-4.77929 0.69689,-1.54312 1.59239,-2.86192 2.6875,-3.95703 1.14489,-1.1449 2.46369,-2.04039 3.95703,-2.6875 1.54311,-0.69689 3.18551,-1.04688 4.92773,-1.04688 z"
       style="font-size:74.6668px;font-family:VirginiaMediumW00-Regular;-inkscape-font-specification:VirginiaMediumW00-Regular;baseline-shift:baseline;display:inline;overflow:visible;vector-effect:none;fill:#2a6d9e;enable-background:accumulate;stop-color:#000000"
       id="path1" />
    <path
       d="m 331.81646,372.33405 q 0,3.95734 -1.568,7.46668 -1.49333,3.50934 -4.18134,6.19734 -2.61334,2.61334 -6.12268,4.18134 -3.50934,1.49334 -7.39201,1.49334 -4.03201,0 -7.61601,-1.49334 -3.50934,-1.568 -6.12268,-4.18134 -2.61334,-2.688 -4.10668,-6.19734 -1.49333,-3.50934 -1.49333,-7.46668 0,-4.03201 1.49333,-7.54135 1.49334,-3.50934 4.10668,-6.12268 2.61334,-2.61334 6.12268,-4.10667 3.584,-1.49334 7.61601,-1.49334 3.88267,0 7.39201,1.49334 3.50934,1.49333 6.12268,4.10667 2.68801,2.61334 4.18134,6.12268 1.568,3.50934 1.568,7.54135 z M 312.6271,359.79002 q -2.68801,0 -5.00268,1.04534 -2.31467,0.97067 -4.03201,2.688 -1.71733,1.71734 -2.76267,4.03201 -0.97067,2.31467 -0.97067,5.00268 0,2.53867 0.97067,4.85334 1.04534,2.24 2.76267,3.95734 1.71734,1.64267 4.03201,2.688 2.31467,0.97067 5.00268,0.97067 2.53867,0 4.77867,-0.97067 2.31467,-1.04533 3.95734,-2.688 1.71734,-1.71734 2.68801,-3.95734 1.04533,-2.31467 1.04533,-4.85334 0,-2.68801 -1.04533,-5.00268 -0.97067,-2.31467 -2.68801,-4.03201 -1.64267,-1.71733 -3.95734,-2.688 -2.24,-1.04534 -4.77867,-1.04534 z m 24.11735,-6.42134 h 6.79468 v 4.77867 q 2.38934,-2.38933 5.52534,-3.73334 3.21068,-1.344 7.01868,-1.344 4.03201,0 7.54135,1.49334 3.58401,1.49333 6.27201,4.10667 2.68801,2.61334 4.18134,6.19735 1.56801,3.50934 1.56801,7.54134 0,4.03201 -1.56801,7.54135 -1.49333,3.50934 -4.18134,6.12268 -2.688,2.61334 -6.27201,4.10667 -3.50934,1.49334 -7.54135,1.49334 -3.808,0 -7.01868,-1.344 -3.136,-1.34401 -5.52534,-3.73334 v 21.42937 h -6.79468 z m 19.3387,31.50939 q 2.68801,0 5.00268,-0.896 2.31467,-0.97067 4.03201,-2.61334 1.71733,-1.71734 2.688,-3.95734 1.04534,-2.31467 1.04534,-5.00268 0,-2.53867 -1.04534,-4.77867 -0.97067,-2.31467 -2.688,-3.95734 -1.71734,-1.71734 -4.03201,-2.68801 -2.31467,-1.04533 -5.00268,-1.04533 -2.61333,0 -4.928,1.04533 -2.24001,0.97067 -3.95735,2.68801 -1.64267,1.64267 -2.688,3.95734 -0.97067,2.24 -0.97067,4.77867 0,2.68801 0.97067,5.00268 1.04533,2.24 2.688,3.95734 1.71734,1.64267 3.95735,2.61334 2.31467,0.896 4.928,0.896 z m 32.62939,-4.40534 q 1.71733,2.16533 4.33067,3.36 2.61334,1.12001 5.60001,1.12001 3.88267,0 6.86935,-2.01601 2.98667,-2.09067 4.48001,-5.30134 l 6.27201,2.83734 q -1.19467,2.464 -2.98668,4.55467 -1.792,2.01601 -4.10667,3.58401 -2.31467,1.49334 -5.00268,2.38934 -2.61333,0.82133 -5.52534,0.82133 -4.03201,0 -7.61601,-1.49333 -3.50934,-1.56801 -6.19735,-4.18135 -2.688,-2.688 -4.256,-6.19734 -1.49334,-3.50934 -1.49334,-7.46668 0,-4.03201 1.49334,-7.54135 1.568,-3.584 4.256,-6.27201 2.68801,-2.688 6.19735,-4.18134 3.584,-1.568 7.61601,-1.568 3.13601,0 5.89868,0.97067 2.76267,0.896 5.07734,2.61333 2.31467,1.64267 4.10668,3.95734 1.792,2.24001 2.83733,4.92801 z m -2.83734,-7.98935 q 0,0.448 0,1.04534 0.0747,0.52266 0.29867,0.97066 l 20.98137,-11.05068 q -1.71734,-1.71734 -3.95734,-2.68801 -2.16534,-1.04533 -4.55468,-1.04533 -2.688,0 -5.00267,1.04533 -2.31468,0.97067 -4.03201,2.68801 -1.71734,1.71733 -2.76267,4.032 -0.97067,2.31468 -0.97067,5.00268 z m 62.79478,18.8907 h -6.79467 v -24.71471 q 0,-1.41867 -0.52267,-2.68801 -0.52267,-1.26933 -1.41867,-2.24 -0.896,-0.97067 -2.16534,-1.49334 -1.19467,-0.59733 -2.688,-0.59733 -3.36001,0 -5.22668,2.09067 -1.792,2.09067 -1.792,4.92801 v 24.71471 h -6.79468 v -38.0054 h 6.79468 v 2.76267 q 1.26933,-1.26934 3.36,-2.16534 2.16534,-0.896 4.70401,-0.896 2.68801,0 4.92801,1.04534 2.31467,1.04533 3.95734,2.83734 1.71734,1.792 2.68801,4.256 0.97066,2.38934 0.97066,5.15201 z m 53.90942,-6.27201 q -2.76267,2.98667 -6.49601,4.77867 -3.73334,1.79201 -8.21335,1.79201 -3.95734,0 -7.46668,-1.49334 -3.50934,-1.49333 -6.19734,-4.10667 -2.61334,-2.61334 -4.18134,-6.12268 -1.49334,-3.58401 -1.49334,-7.61601 0,-3.88268 1.49334,-7.39202 1.568,-3.50934 4.18134,-6.12267 2.688,-2.68801 6.19734,-4.18135 3.50934,-1.568 7.46668,-1.568 4.48001,0 8.13868,1.792 3.73334,1.71734 6.34668,4.70401 l -4.85334,4.85335 q -1.71734,-2.16534 -4.18134,-3.36001 -2.46401,-1.19467 -5.45068,-1.19467 -2.53867,0 -4.85334,1.04534 -2.24,0.97066 -3.95734,2.688 -1.64267,1.64267 -2.68801,3.95734 -0.97066,2.24001 -0.97066,4.77868 0,2.688 0.97066,5.00267 1.04534,2.31467 2.68801,4.03201 1.71734,1.71734 3.95734,2.76267 2.31467,0.97067 4.85334,0.97067 2.98667,0 5.45068,-1.26934 2.53867,-1.344 4.48001,-3.50934 z m 40.09606,-12.76802 q 0,3.95734 -1.568,7.46668 -1.49334,3.50934 -4.18135,6.19734 -2.61333,2.61334 -6.12267,4.18134 -3.50934,1.49334 -7.39202,1.49334 -4.032,0 -7.61601,-1.49334 -3.50934,-1.568 -6.12268,-4.18134 -2.61334,-2.688 -4.10667,-6.19734 -1.49334,-3.50934 -1.49334,-7.46668 0,-4.03201 1.49334,-7.54135 1.49333,-3.50934 4.10667,-6.12268 2.61334,-2.61334 6.12268,-4.10667 3.58401,-1.49334 7.61601,-1.49334 3.88268,0 7.39202,1.49334 3.50934,1.49333 6.12267,4.10667 2.68801,2.61334 4.18135,6.12268 1.568,3.50934 1.568,7.54135 z m -19.18937,-12.54403 q -2.688,0 -5.00268,1.04534 -2.31467,0.97067 -4.032,2.688 -1.71734,1.71734 -2.76267,4.03201 -0.97067,2.31467 -0.97067,5.00268 0,2.53867 0.97067,4.85334 1.04533,2.24 2.76267,3.95734 1.71733,1.64267 4.032,2.688 2.31468,0.97067 5.00268,0.97067 2.53867,0 4.77868,-0.97067 2.31467,-1.04533 3.95734,-2.688 1.71733,-1.71734 2.688,-3.95734 1.04534,-2.31467 1.04534,-4.85334 0,-2.68801 -1.04534,-5.00268 -0.97067,-2.31467 -2.688,-4.03201 -1.64267,-1.71733 -3.95734,-2.688 -2.24001,-1.04534 -4.77868,-1.04534 z m 31.28538,31.58406 h -6.79468 v -58.09077 h 6.79468 z m 13.96271,0 h -6.79468 v -58.09077 h 6.79468 z m 14.93337,-10.90135 q 1.71734,2.16533 4.33068,3.36 2.61334,1.12001 5.60001,1.12001 3.88267,0 6.86934,-2.01601 2.98668,-2.09067 4.48001,-5.30134 l 6.27201,2.83734 q -1.19467,2.464 -2.98667,4.55467 -1.792,2.01601 -4.10667,3.58401 -2.31467,1.49334 -5.00268,2.38934 -2.61334,0.82133 -5.52534,0.82133 -4.03201,0 -7.61602,-1.49333 -3.50934,-1.56801 -6.19734,-4.18135 -2.688,-2.688 -4.25601,-6.19734 -1.49333,-3.50934 -1.49333,-7.46668 0,-4.03201 1.49333,-7.54135 1.56801,-3.584 4.25601,-6.27201 2.688,-2.688 6.19734,-4.18134 3.58401,-1.568 7.61602,-1.568 3.136,0 5.89868,0.97067 2.76267,0.896 5.07734,2.61333 2.31467,1.64267 4.10667,3.95734 1.79201,2.24001 2.83734,4.92801 z m -2.83733,-7.98935 q 0,0.448 0,1.04534 0.0747,0.52266 0.29866,0.97066 l 20.98137,-11.05068 q -1.71733,-1.71734 -3.95734,-2.68801 -2.16533,-1.04533 -4.55467,-1.04533 -2.68801,0 -5.00268,1.04533 -2.31467,0.97067 -4.032,2.68801 -1.71734,1.71733 -2.76268,4.032 -0.97066,2.31468 -0.97066,5.00268 z m 67.9468,12.61869 q -2.76267,2.98667 -6.49601,4.77867 -3.73334,1.79201 -8.21335,1.79201 -3.95734,0 -7.46668,-1.49334 -3.50934,-1.49333 -6.19735,-4.10667 -2.61333,-2.61334 -4.18134,-6.12268 -1.49333,-3.58401 -1.49333,-7.61601 0,-3.88268 1.49333,-7.39202 1.56801,-3.50934 4.18134,-6.12267 2.68801,-2.68801 6.19735,-4.18135 3.50934,-1.568 7.46668,-1.568 4.48001,0 8.13868,1.792 3.73334,1.71734 6.34668,4.70401 l -4.85334,4.85335 q -1.71734,-2.16534 -4.18135,-3.36001 -2.464,-1.19467 -5.45067,-1.19467 -2.53867,0 -4.85334,1.04534 -2.24001,0.97066 -3.95734,2.688 -1.64267,1.64267 -2.68801,3.95734 -0.97067,2.24001 -0.97067,4.77868 0,2.688 0.97067,5.00267 1.04534,2.31467 2.68801,4.03201 1.71733,1.71734 3.95734,2.76267 2.31467,0.97067 4.85334,0.97067 2.98667,0 5.45067,-1.26934 2.53868,-1.344 4.48001,-3.50934 z m 21.42934,-25.16271 h -6.86934 v 31.43472 h -6.79468 V 359.93936 H 651.465 v -6.57068 h 5.07734 v -14.18669 h 6.79468 v 14.18669 h 6.86934 z m 11.72273,-20.75737 v 10.15468 h -6.79468 v -10.15468 z m -6.79468,14.18669 h 6.79468 v 38.0054 h -6.79468 z m 28.29877,25.76005 10.22935,-25.76005 h 7.39201 l -15.08269,38.0054 h -4.77868 l -15.08269,-38.0054 h 7.39201 z m 27.25329,1.344 q 1.71734,2.16533 4.33068,3.36 2.61334,1.12001 5.60001,1.12001 3.88267,0 6.86934,-2.01601 2.98668,-2.09067 4.48001,-5.30134 l 6.27201,2.83734 q -1.19466,2.464 -2.98667,4.55467 -1.792,2.01601 -4.10667,3.58401 -2.31467,1.49334 -5.00268,2.38934 -2.61334,0.82133 -5.52534,0.82133 -4.03201,0 -7.61601,-1.49333 -3.50934,-1.56801 -6.19735,-4.18135 -2.688,-2.688 -4.25601,-6.19734 -1.49333,-3.50934 -1.49333,-7.46668 0,-4.03201 1.49333,-7.54135 1.56801,-3.584 4.25601,-6.27201 2.68801,-2.688 6.19735,-4.18134 3.584,-1.568 7.61601,-1.568 3.136,0 5.89868,0.97067 2.76267,0.896 5.07734,2.61333 2.31467,1.64267 4.10667,3.95734 1.79201,2.24001 2.83734,4.92801 z m -2.83733,-7.98935 q 0,0.448 0,1.04534 0.0747,0.52266 0.29866,0.97066 l 20.98137,-11.05068 q -1.71733,-1.71734 -3.95734,-2.68801 -2.16533,-1.04533 -4.55467,-1.04533 -2.68801,0 -5.00268,1.04533 -2.31467,0.97067 -4.032,2.68801 -1.71734,1.71733 -2.76268,4.032 -0.97066,2.31468 -0.97066,5.00268 z"
       id="text1"
       style="font-size:74.6668px;font-family:VirginiaMediumW00-Regular;-inkscape-font-specification:VirginiaMediumW00-Regular;fill:#0c2d66;stroke-width:0.999999"
       aria-label="open collective" />
  </g>
</svg>
