<?xml version="1.0" encoding="UTF-8" standalone="no"?>
<!-- Created with Inkscape (http://www.inkscape.org/) -->

<svg
   width="100.33867mm"
   height="15.488388mm"
   viewBox="0 0 100.33867 15.488388"
   version="1.1"
   id="svg1"
   xmlns="http://www.w3.org/2000/svg"
   xmlns:svg="http://www.w3.org/2000/svg">
  <defs
     id="defs1" />
  <g
     id="layer1"
     transform="translate(-22.25657,-110.93264)">
    <path
       d="m 32.470217,121.26484 q 0,1.04704 -0.414868,1.97556 -0.395112,0.92851 -1.106314,1.63971 -0.691446,0.69145 -1.619959,1.10631 -0.928513,0.39512 -1.955804,0.39512 -1.066803,0 -2.015071,-0.39512 -0.928514,-0.41486 -1.61996,-1.10631 -0.691446,-0.7112 -1.086558,-1.63971 -0.395112,-0.92852 -0.395112,-1.97556 0,-1.06681 0.395112,-1.99532 0.395112,-0.92851 1.086558,-1.61996 0.691446,-0.69145 1.61996,-1.08656 0.948268,-0.39511 2.015071,-0.39511 1.027291,0 1.955804,0.39511 0.928513,0.39511 1.619959,1.08656 0.711202,0.69145 1.106314,1.61996 0.414868,0.92851 0.414868,1.99532 z m -5.07719,-3.31895 q -0.711201,0 -1.323625,0.27658 -0.612423,0.25683 -1.066802,0.7112 -0.454379,0.45438 -0.730957,1.06681 -0.256823,0.61242 -0.256823,1.32362 0,0.67169 0.256823,1.28412 0.276578,0.59266 0.730957,1.04704 0.454379,0.43463 1.066802,0.7112 0.612424,0.25683 1.323625,0.25683 0.671691,0 1.264359,-0.25683 0.612423,-0.27657 1.047047,-0.7112 0.454378,-0.45438 0.711201,-1.04704 0.276579,-0.61243 0.276579,-1.28412 0,-0.7112 -0.276579,-1.32362 -0.256823,-0.61243 -0.711201,-1.06681 -0.434624,-0.45437 -1.047047,-0.7112 -0.592668,-0.27658 -1.264359,-0.27658 z m 11.319944,0.0395 h -2.884317 v 8.3171 h -1.738493 v -8.3171 h -1.205092 v -1.7385 h 1.205092 v -0.75071 q 0,-0.61242 0.217312,-1.16558 0.237067,-0.55316 0.632179,-0.94827 0.395112,-0.41487 0.928513,-0.65193 0.533401,-0.23707 1.145825,-0.23707 h 3.496741 v 2.68676 h -1.79776 v -0.96802 H 37.01399 q -0.513646,0 -0.849491,0.39511 -0.335845,0.37535 -0.335845,0.889 v 0.75071 h 4.682077 v 10.0556 h -1.79776 z m 16.160089,6.65763 q -0.730957,0.79023 -1.718737,1.26436 -0.98778,0.47414 -2.173116,0.47414 -1.047047,0 -1.97556,-0.39512 -0.928513,-0.39511 -1.639715,-1.08655 -0.691446,-0.69145 -1.106314,-1.61996 -0.395112,-0.94827 -0.395112,-2.01507 0,-1.0273 0.395112,-1.95581 0.414868,-0.92851 1.106314,-1.61996 0.711202,-0.7112 1.639715,-1.10631 0.928513,-0.41487 1.97556,-0.41487 1.185336,0 2.15336,0.47413 0.98778,0.45438 1.679226,1.24461 l -1.284114,1.28411 q -0.454379,-0.57291 -1.106313,-0.889 -0.651935,-0.31609 -1.442159,-0.31609 -0.671691,0 -1.284114,0.27658 -0.592668,0.25682 -1.047047,0.7112 -0.434623,0.43462 -0.711202,1.04705 -0.256822,0.59266 -0.256822,1.26436 0,0.7112 0.256822,1.32362 0.276579,0.61242 0.711202,1.0668 0.454379,0.45438 1.047047,0.73096 0.612423,0.25682 1.284114,0.25682 0.790224,0 1.442159,-0.33584 0.67169,-0.3556 1.185336,-0.92852 z m 10.608753,-3.3782 q 0,1.04704 -0.414867,1.97556 -0.395112,0.92851 -1.106314,1.63971 -0.691446,0.69145 -1.619959,1.10631 -0.928513,0.39512 -1.955804,0.39512 -1.066803,0 -2.015072,-0.39512 -0.928513,-0.41486 -1.619959,-1.10631 -0.691446,-0.7112 -1.086558,-1.63971 -0.395112,-0.92852 -0.395112,-1.97556 0,-1.06681 0.395112,-1.99532 0.395112,-0.92851 1.086558,-1.61996 0.691446,-0.69145 1.619959,-1.08656 0.948269,-0.39511 2.015072,-0.39511 1.027291,0 1.955804,0.39511 0.928513,0.39511 1.619959,1.08656 0.711202,0.69145 1.106314,1.61996 0.414867,0.92851 0.414867,1.99532 z m -5.077189,-3.31895 q -0.711201,0 -1.323625,0.27658 -0.612424,0.25683 -1.066802,0.7112 -0.454379,0.45438 -0.730958,1.06681 -0.256822,0.61242 -0.256822,1.32362 0,0.67169 0.256822,1.28412 0.276579,0.59266 0.730958,1.04704 0.454378,0.43463 1.066802,0.7112 0.612424,0.25683 1.323625,0.25683 0.671691,0 1.264359,-0.25683 0.612423,-0.27657 1.047046,-0.7112 0.454379,-0.45438 0.711202,-1.04704 0.276578,-0.61243 0.276578,-1.28412 0,-0.7112 -0.276578,-1.32362 -0.256823,-0.61243 -0.711202,-1.06681 -0.434623,-0.45437 -1.047046,-0.7112 -0.592668,-0.27658 -1.264359,-0.27658 z m 8.277592,8.35662 h -1.797759 v -15.36985 h 1.797759 z m 3.694302,0 h -1.79776 v -15.36985 h 1.79776 z m 3.951128,-2.88431 q 0.454379,0.57291 1.145825,0.889 0.691446,0.29633 1.48167,0.29633 1.027291,0 1.817515,-0.5334 0.790224,-0.55316 1.185336,-1.40265 l 1.65947,0.75072 q -0.316089,0.65193 -0.790224,1.20509 -0.474134,0.5334 -1.086558,0.94827 -0.612423,0.39511 -1.323625,0.63218 -0.691446,0.21731 -1.461914,0.21731 -1.066803,0 -2.015071,-0.39512 -0.928514,-0.41486 -1.639715,-1.10631 -0.711202,-0.7112 -1.126069,-1.63971 -0.395112,-0.92852 -0.395112,-1.97556 0,-1.06681 0.395112,-1.99532 0.414867,-0.94827 1.126069,-1.65947 0.711201,-0.7112 1.639715,-1.10631 0.948268,-0.41487 2.015071,-0.41487 0.829735,0 1.560692,0.25682 0.730957,0.23707 1.343381,0.69145 0.612424,0.43462 1.086558,1.04704 0.474134,0.59267 0.750713,1.30387 z m -0.750713,-2.11385 q 0,0.11853 0,0.27657 0.01976,0.13829 0.07902,0.25683 l 5.551323,-2.92383 q -0.454379,-0.45438 -1.047047,-0.7112 -0.572912,-0.27658 -1.205091,-0.27658 -0.711202,0 -1.323625,0.27658 -0.612424,0.25682 -1.066803,0.7112 -0.454379,0.45438 -0.730957,1.0668 -0.256823,0.61242 -0.256823,1.32363 z m 17.977598,3.33869 q -0.730957,0.79023 -1.718737,1.26436 -0.98778,0.47414 -2.173116,0.47414 -1.047047,0 -1.97556,-0.39512 -0.928513,-0.39511 -1.639715,-1.08655 -0.691446,-0.69145 -1.106314,-1.61996 -0.395112,-0.94827 -0.395112,-2.01507 0,-1.0273 0.395112,-1.95581 0.414868,-0.92851 1.106314,-1.61996 0.711202,-0.7112 1.639715,-1.10631 0.928513,-0.41487 1.97556,-0.41487 1.185336,0 2.15336,0.47413 0.98778,0.45438 1.679226,1.24461 l -1.284114,1.28411 q -0.454379,-0.57291 -1.106313,-0.889 -0.651935,-0.31609 -1.442159,-0.31609 -0.671691,0 -1.284114,0.27658 -0.592668,0.25682 -1.047047,0.7112 -0.434623,0.43462 -0.711202,1.04705 -0.256822,0.59266 -0.256822,1.26436 0,0.7112 0.256822,1.32362 0.276579,0.61242 0.711202,1.0668 0.454379,0.45438 1.047047,0.73096 0.612423,0.25682 1.284114,0.25682 0.790224,0 1.442159,-0.33584 0.67169,-0.3556 1.185336,-0.92852 z m 5.669851,-6.65763 h -1.817515 v 8.3171 h -1.79776 v -8.3171 h -1.34338 v -1.7385 h 1.34338 v -3.75356 h 1.79776 v 3.75356 h 1.817515 z m 3.101638,-5.49206 v 2.68676 h -1.79776 v -2.68676 z m -1.79776,3.75356 h 1.79776 v 10.0556 h -1.79776 z m 7.48738,6.81568 2.70652,-6.81568 h 1.95581 l -3.99064,10.0556 h -1.26435 l -3.99064,-10.0556 h 1.95581 z m 7.21078,0.35561 q 0.45437,0.57291 1.14582,0.889 0.69145,0.29633 1.48167,0.29633 1.02729,0 1.81752,-0.5334 0.79022,-0.55316 1.18533,-1.40265 l 1.65947,0.75072 q -0.31609,0.65193 -0.79022,1.20509 -0.47414,0.5334 -1.08656,0.94827 -0.61242,0.39511 -1.32363,0.63218 -0.69144,0.21731 -1.46191,0.21731 -1.0668,0 -2.01507,-0.39512 -0.92851,-0.41486 -1.63972,-1.10631 -0.7112,-0.7112 -1.12607,-1.63971 -0.39511,-0.92852 -0.39511,-1.97556 0,-1.06681 0.39511,-1.99532 0.41487,-0.94827 1.12607,-1.65947 0.71121,-0.7112 1.63972,-1.10631 0.94827,-0.41487 2.01507,-0.41487 0.82974,0 1.56069,0.25682 0.73096,0.23707 1.34338,0.69145 0.61243,0.43462 1.08656,1.04704 0.47414,0.59267 0.75071,1.30387 z m -0.75072,-2.11385 q 0,0.11853 0,0.27657 0.0198,0.13829 0.079,0.25683 l 5.55133,-2.92383 q -0.45438,-0.45438 -1.04705,-0.7112 -0.57291,-0.27658 -1.20509,-0.27658 -0.7112,0 -1.32363,0.27658 -0.61242,0.25682 -1.0668,0.7112 -0.45438,0.45438 -0.73095,1.0668 -0.25683,0.61242 -0.25683,1.32363 z"
       id="text4"
       style="font-size:19.7556px;font-family:VirginiaMediumW00-Regular;-inkscape-font-specification:VirginiaMediumW00-Regular;fill:#0c2d66;stroke-width:0.264583"
       aria-label="ofi collective" />
  </g>
</svg>
