<svg xmlns="http://www.w3.org/2000/svg" viewBox="182 10.5 439 55.5" aria-labelledby="logo" role="presentation">
  <title id="logo">Open Collective Logo</title>
  <style>
    .st0{fill:#515f71}
  </style>
  <path id="XMLID_191_" class="st0" d="M429.8 28.2c5.4 0 9.7 4.4 9.7 9.7s-4.4 9.7-9.7 9.7c-5.3 0-9.7-4.4-9.7-9.7s4.3-9.7 9.7-9.7m0-5.5c-8.4 0-15.2 6.8-15.2 15.2s6.8 15.2 15.2 15.2S445 46.3 445 37.9s-6.8-15.2-15.2-15.2z"/>
  <path id="XMLID_190_" class="st0" d="M453.8 10.2h-4.9c-.2 0-.3.1-.3.3v41.8c0 .2.1.3.3.3h4.9c.2 0 .3-.1.3-.3V10.5c-.1-.2-.2-.3-.3-.3z"/>
  <path id="XMLID_188_" class="st0" d="M590.3 23.2h-4.8c-.1 0-.2.1-.3.2l-7.8 22.9c-.2.5-.8.5-1 0l-7.8-22.9c0-.1-.1-.2-.3-.2h-4.8c-.2 0-.3.2-.3.4l9.9 28.8c0 .1.1.2.3.2h6.8c.1 0 .2-.1.3-.2l9.9-28.8c.2-.2.1-.4-.1-.4z"/>
  <path id="XMLID_185_" class="st0" d="M319.9 47.6c-2.9 0-5.4-1.2-7.2-3.2-.1-.2-.1-.4.1-.5l16.8-7.1 4.9-2.1c.2-.1.2-.2.2-.3-1.6-6.9-7.9-12-15.3-11.7-7.8.3-14.3 6.6-14.6 14.4-.4 8.7 6.5 15.9 15.2 15.9 6.3 0 11.7-3.9 14-9.4.1-.2 0-.4-.2-.4l-4.9-.9c-.1 0-.3 0-.3.2-1.8 3-5 5.1-8.7 5.1zm0-19.4c2.9 0 5.5 1.3 7.2 3.3.1.2.1.4-.1.5 0 0-16.2 6.9-16.4 7-.2.1-.4-.1-.4-.2V38c0-5.5 4.4-9.8 9.7-9.8z"/>
  <path id="XMLID_182_" class="st0" d="M253.8 28.2c5.4 0 9.7 4.4 9.7 9.7s-4.4 9.7-9.7 9.7-9.7-4.4-9.7-9.7 4.4-9.7 9.7-9.7m0-5.5c-8.4 0-15.2 6.8-15.2 15.2s6.8 15.2 15.2 15.2c8.4 0 15.2-6.8 15.2-15.2s-6.8-15.2-15.2-15.2z"/>
  <path id="XMLID_121_" class="st0" d="M286.7 22.4c-3.8.1-6.8 1.6-8.9 4.1-.2.2-.5.1-.5-.2v-2.8c0-.2-.1-.3-.3-.3h-4.9c-.2 0-.3.1-.3.3v41.9c0 .2.1.3.3.3h4.8c.2 0 .3-.1.3-.3V48.9c0-.3.3-.4.5-.2 2.1 2.5 5.2 4.1 9.2 4.1 9.3 0 16.7-8.4 14.9-18-1.2-7.3-7.8-12.5-15.1-12.4zm1.9 24.8c-6.6 1.1-12.3-4.6-11.2-11.2.7-4 3.9-7.3 7.9-7.9 6.6-1.1 12.3 4.6 11.2 11.2-.6 4-3.9 7.2-7.9 7.9z"/>
  <path id="XMLID_178_" class="st0" d="M352.2 22.7c-3.2 0-6.9 2-8.6 4.4-.1.2-.5.1-.5-.1v-3.5c0-.1-.1-.3-.3-.3h-4.9c-.1 0-.3.1-.3.3v28.9c0 .1.1.3.3.3h4.9c.1 0 .3-.1.3-.3V38c0-5.5 3.7-9.4 9-9.4 7 0 9.1 4.6 9.1 10v13.8c0 .1.1.3.3.3h4.9c.1 0 .3-.1.3-.3V38.6c.1-8.4-3.9-15.9-14.5-15.9z"/>
  <path id="XMLID_176_" class="st0" d="M464.5 10.2h-4.9c-.2 0-.3.1-.3.3v41.8c0 .2.1.3.3.3h4.9c.2 0 .3-.1.3-.3V10.5c0-.2-.2-.3-.3-.3z"/>
  <path id="XMLID_173_" class="st0" d="M483.8 47.6c-2.9 0-5.4-1.2-7.2-3.2-.1-.2-.1-.4.1-.5l16.8-7.1 4.9-2.1c.2-.1.2-.2.2-.3-1.6-6.9-7.9-12-15.3-11.7-7.8.3-14.3 6.6-14.6 14.4-.4 8.7 6.5 15.9 15.2 15.9 6.3 0 11.7-3.9 14-9.4.1-.2 0-.4-.2-.4l-4.9-.9c-.1 0-.3 0-.3.2-1.8 3-5.1 5.1-8.7 5.1zm0-19.4c2.9 0 5.5 1.3 7.2 3.3.1.2.1.4-.1.5 0 0-16.2 6.9-16.4 7-.2.1-.4-.1-.4-.2V38c-.1-5.5 4.3-9.8 9.7-9.8z"/>
  <path id="XMLID_172_" class="st0" d="M516.5 47.6c-6 0-10.7-5.4-9.6-11.6.6-3.4 4-6.9 7.4-7.6 3.7-.8 7.2.5 9.4 3 .1.1.3.1.4 0l3.5-3.5c.1-.1.1-.3 0-.4-2.9-3.2-7.2-5.1-11.9-4.9-7.7.4-14.1 6.7-14.5 14.4-.4 8.7 6.5 15.9 15.2 15.9 4.4 0 8.4-1.9 11.2-4.9.1-.1.1-.2 0-.3l-3.5-3.5c-.1-.1-.3-.1-.4 0-1.7 2.2-4.3 3.4-7.2 3.4z"/>
  <path id="XMLID_171_" class="st0" d="M548.6 23.2h-5.5c-.1 0-.2-.1-.2-.2V10.5c0-.2-.1-.3-.3-.3h-4.9c-.2 0-.3.1-.3.3V23c0 .1-.1.2-.2.2h-5.4c-.2 0-.3.1-.3.3v4.9c0 .2.1.3.3.3h5.4c.1 0 .2.1.2.2v23.4c0 .2.1.3.3.3h4.9c.2 0 .3-.1.3-.3V28.9c0-.1.1-.2.2-.2h5.5c.2 0 .3-.1.3-.3v-4.9c0-.1-.2-.3-.3-.3z"/>
  <path id="XMLID_168_" class="st0" d="M606.1 47.6c-2.9 0-5.4-1.2-7.2-3.2-.1-.2-.1-.4.1-.5l16.8-7.1 4.9-2.1c.2-.1.2-.2.2-.3-1.6-6.9-7.9-12-15.3-11.7-7.8.3-14.3 6.6-14.6 14.4-.4 8.7 6.5 15.9 15.2 15.9 6.3 0 11.7-3.9 14-9.4.1-.2 0-.4-.2-.4l-4.9-.9c-.1 0-.3 0-.3.2-1.8 3-5 5.1-8.7 5.1zm0-19.4c2.9 0 5.5 1.3 7.2 3.3.1.2.1.4-.1.5 0 0-16.2 6.9-16.4 7-.2.1-.4-.1-.4-.2V38c-.1-5.5 4.3-9.8 9.7-9.8z"/>
  <path id="XMLID_167_" class="st0" d="M558.7 13.8h-4.9c-.2 0-.3.1-.3.3V19c0 .2.1.3.3.3h4.9c.2 0 .3-.1.3-.3v-4.9c0-.2-.1-.3-.3-.3z"/>
  <path id="XMLID_161_" class="st0" d="M558.7 23.2h-4.9c-.2 0-.3.1-.3.3v28.8c0 .2.1.3.3.3h4.9c.2 0 .3-.1.3-.3V23.5c0-.1-.1-.3-.3-.3z"/>
  <path id="XMLID_125_" class="st0" d="M401.9 47.6c-6 0-10.7-5.4-9.6-11.6.6-3.4 4-6.9 7.4-7.6 3.7-.8 7.2.5 9.4 3 .1.1.3.1.4 0l3.5-3.5c.1-.1.1-.3 0-.4-2.9-3.2-7.2-5.1-11.9-4.9-7.7.4-14.1 6.7-14.5 14.4-.4 8.7 6.5 15.9 15.2 15.9 4.4 0 8.4-1.9 11.2-4.9.1-.1.1-.2 0-.3l-3.5-3.5c-.1-.1-.3-.1-.4 0-1.7 2.2-4.3 3.4-7.2 3.4z"/>
  <path d="M212.1 37.8c0 2.3-.7 4.5-1.9 6.4L215 49c2.3-3.1 3.7-6.9 3.7-11.1 0-4.2-1.4-8-3.8-11.1l-4.7 4.7c1.2 1.8 1.9 4 1.9 6.3z" fill="#b8d3f4"/>
  <path d="M200.3 49.6c-6.5 0-11.8-5.3-11.8-11.8 0-6.5 5.3-11.8 11.8-11.8 2.4 0 4.6.7 6.4 1.9l4.7-4.7c-3.1-2.3-6.9-3.7-11.1-3.7-10.1 0-18.3 8.2-18.3 18.3s8.2 18.3 18.3 18.3c4.2 0 8-1.4 11.1-3.8l-4.8-4.8c-1.7 1.4-3.9 2.1-6.3 2.1z" fill="#7fadf2"/>
</svg>