<?xml version="1.0" encoding="utf-8"?>
<!-- Generator: Adobe Illustrator 19.1.0, SVG Export Plug-In . SVG Version: 6.00 Build 0)  -->
<svg version="1.1" id="Layer_1" xmlns="http://www.w3.org/2000/svg" xmlns:xlink="http://www.w3.org/1999/xlink" x="0px" y="0px"
	 viewBox="0 0 75 75" style="enable-background:new 0 0 75 75;" xml:space="preserve">
<style type="text/css">
	.st0{fill:#3E4448;}
</style>
<g>
	<g>
		<path class="st0" d="M73.3,63.6H19.4c-0.6,0-1-0.4-1-1V25c0-0.6,0.4-1,1-1h53.9c0.6,0,1,0.4,1,1v37.6
			C74.3,63.2,73.9,63.6,73.3,63.6z M20.4,61.6h51.9V26H20.4V61.6z"/>
	</g>
</g>
<g>
	<g>
		<path class="st0" d="M15.7,51.3H2.1c-0.6,0-1-0.4-1-1V12.7c0-0.6,0.4-1,1-1H56c0.6,0,1,0.4,1,1v9c0,0.6-0.4,1-1,1s-1-0.4-1-1v-8
			H3.1v35.6h12.6c0.6,0,1,0.4,1,1S16.2,51.3,15.7,51.3z"/>
	</g>
</g>
<g id="XMLID_5_">
	<g id="XMLID_6_">
		<path class="st0" d="M37.4,40c-0.7,0-1.3-0.6-1.3-1.3c0-1.1-0.9-2-2-2c-1.1,0-2,0.9-2,2c0,0.7-0.6,1.3-1.3,1.3s-1.3-0.6-1.3-1.3
			c0-2.5,2.1-4.6,4.6-4.6s4.6,2.1,4.6,4.6C38.8,39.4,38.2,40,37.4,40z"/>
	</g>
</g>
<g id="XMLID_3_">
	<g id="XMLID_4_">
		<path class="st0" d="M63.1,40c-0.7,0-1.3-0.6-1.3-1.3c0-1.1-0.9-2-2-2s-2,0.9-2,2c0,0.7-0.6,1.3-1.3,1.3s-1.3-0.6-1.3-1.3
			c0-2.5,2.1-4.6,4.6-4.6c2.5,0,4.6,2.1,4.6,4.6C64.4,39.4,63.8,40,63.1,40z"/>
	</g>
</g>
<g id="XMLID_1_">
	<g id="XMLID_2_">
		<path class="st0" d="M57.6,44.8c0,5.9-4.8,10.6-10.6,10.6s-10.6-4.8-10.6-10.6H57.6z"/>
	</g>
</g>
</svg>
