<?xml version="1.0" encoding="UTF-8"?>
<svg width="309px" height="200px" viewBox="0 0 309 200" version="1.1" xmlns="http://www.w3.org/2000/svg" xmlns:xlink="http://www.w3.org/1999/xlink">
    <!-- Generator: Sketch 48.2 (47327) - http://www.bohemiancoding.com/sketch -->
    <title>graphic-no-subscription</title>
    <desc>Created with Sketch.</desc>
    <defs>
        <rect id="path-1" x="136" y="21" width="80" height="96" rx="8"></rect>
        <mask id="mask-2" maskContentUnits="userSpaceOnUse" maskUnits="objectBoundingBox" x="0" y="0" width="80" height="96" fill="white">
            <use xlink:href="#path-1"></use>
        </mask>
        <rect id="path-3" x="10" y="21" width="80" height="96" rx="8"></rect>
        <mask id="mask-4" maskContentUnits="userSpaceOnUse" maskUnits="objectBoundingBox" x="0" y="0" width="80" height="96" fill="white">
            <use xlink:href="#path-3"></use>
        </mask>
        <rect id="path-5" x="73" y="0" width="80" height="96" rx="8"></rect>
        <mask id="mask-6" maskContentUnits="userSpaceOnUse" maskUnits="objectBoundingBox" x="0" y="0" width="80" height="96" fill="white">
            <use xlink:href="#path-5"></use>
        </mask>
    </defs>
    <g id="M-::-User-›-Subscriptions-(empty-state)-USER" stroke="none" stroke-width="1" fill="none" fill-rule="evenodd" transform="translate(-638.000000, -344.000000)">
        <g id="::-empty-state" transform="translate(575.000000, 344.000000)">
            <g id="graphic-no-subscription" transform="translate(63.000000, 0.000000)">
                <g id="ovals" opacity="0.64">
                    <ellipse id="Oval" fill="#E7EEFA" cx="232.891705" cy="153.194946" rx="46.4285714" ry="46.33213"></ellipse>
                    <ellipse id="Oval" fill="#E7EEFA" cx="29.2050691" cy="144.974729" rx="29.2050691" ry="29.1444043"></ellipse>
                    <ellipse id="Oval" fill="#E7EEFA" cx="237.010369" cy="34.0018051" rx="16.8490783" ry="16.8140794"></ellipse>
                    <ellipse id="Oval" fill="#E7EEFA" cx="195.074885" cy="8.59386282" rx="8.61175115" ry="8.59386282"></ellipse>
                    <ellipse id="Oval" fill="#E7EDF6" cx="303.758065" cy="193.768953" rx="5.24193548" ry="5.23104693"></ellipse>
                    <ellipse id="Oval" fill="#E7EEFA" cx="14.2281106" cy="54.5523466" rx="5.24193548" ry="5.23104693"></ellipse>
                    <ellipse id="Oval" fill="#DEE6F4" cx="55" cy="188.983382" rx="8" ry="7.98338239"></ellipse>
                    <ellipse id="Oval" fill="#E7EEFA" cx="86.9308756" cy="76.8375451" rx="44.9308756" ry="44.8375451"></ellipse>
                    <ellipse id="Oval" fill="#DBE7F9" cx="141.532258" cy="118.072202" rx="78.6290323" ry="78.465704"></ellipse>
                </g>
                <g id="cards" transform="translate(50.000000, 56.000000)" fill="#FFFFFF" stroke="#D5DAE0" stroke-dasharray="2,2" stroke-width="4">
                    <use id="card-right" mask="url(#mask-2)" transform="translate(176.000000, 69.000000) rotate(12.000000) translate(-176.000000, -69.000000) " xlink:href="#path-1"></use>
                    <use id="card-left" mask="url(#mask-4)" transform="translate(50.000000, 69.000000) rotate(-12.000000) translate(-50.000000, -69.000000) " xlink:href="#path-3"></use>
                    <use id="card-center" mask="url(#mask-6)" xlink:href="#path-5"></use>
                </g>
                <g id="face" transform="translate(139.000000, 81.000000)">
                    <circle id="Oval-2" fill="#D5DAE0" opacity="0.45533288" cx="24" cy="24" r="24"></circle>
                    <circle id="Oval-3" fill="#C2C6CC" cx="24" cy="37.2" r="2.4"></circle>
                    <path d="M11.3621226,30 C13.6607995,30 15.6,28.5612465 15.6,26.3064307 C15.6,24.8809655 13.2155466,25.0556538 13.2155466,26.0895908 C13.2155466,28.1067206 9.63455271,28.1283015 9.63455271,26.0895908 C9.65219288,24.9417224 7.2,24.7933783 7.2,26.3064307 C7.2,28.5612465 9.06344578,30 11.3621226,30 Z" id="Combined-Shape" fill="#C2C6CC"></path>
                    <path d="M36.5621226,30 C38.8607995,30 40.8,28.5612465 40.8,26.3064307 C40.8,24.8809655 38.4155466,25.0556538 38.4155466,26.0895908 C38.4155466,28.1067206 34.8345527,28.1283015 34.8345527,26.0895908 C34.8521929,24.9417224 32.4,24.7933783 32.4,26.3064307 C32.4,28.5612465 34.2634458,30 36.5621226,30 Z" id="Combined-Shape" fill="#C2C6CC"></path>
                </g>
            </g>
        </g>
    </g>
</svg>