<?xml version="1.0" encoding="UTF-8" standalone="no"?>
<svg width="135px" height="137px" viewBox="0 0 135 137" version="1.1" xmlns="http://www.w3.org/2000/svg" xmlns:xlink="http://www.w3.org/1999/xlink">
    <!-- Generator: sketchtool 3.8.3 (29802) - http://www.bohemiancoding.com/sketch -->
    <title>0B4E33C0-BE8C-48D8-BEA4-54F6453A50D0</title>
    <desc>Created with sketchtool.</desc>
    <defs></defs>
    <g id="Page-1" stroke="none" stroke-width="1" fill="none" fill-rule="evenodd">
        <g id="HOME" transform="translate(-574.000000, -968.000000)">
            <g id="::bg">
                <g id="Group-2" transform="translate(0.000000, 708.000000)">
                    <g id="icon" transform="translate(576.000000, 262.000000)">
                        <g id="::-icon">
                            <path d="M107.574359,65.374359 C107.574359,73.6205128 105.169231,81.5230769 101.046154,88.0512821 L117.882051,104.887179 C126.128205,93.8923077 131.282051,80.1487179 131.282051,65.374359 C131.282051,50.6 126.128205,36.8564103 117.882051,25.8615385 L101.046154,42.6974359 C105.169231,49.225641 107.574359,56.7846154 107.574359,65.374359 L107.574359,65.374359 Z" id="Shape" stroke="#7FAFF5" stroke-width="3"></path>
                            <path d="M68.3373074,110.950506 C46.1195085,110.950506 27.8810168,92.4496157 27.8810168,69.9121672 C27.8810168,47.3747188 46.1195085,28.8738283 68.3373074,28.8738283 C76.6275309,28.8738283 83.9229276,31.2284871 90.2234975,35.6014248 L106.472335,19.1188133 C95.8608494,11.0456974 82.5964918,6 68.3373074,6 C33.5183688,6 5,34.5922853 5,70.2485471 C5,105.904809 33.5183688,134.160714 68.3373074,134.160714 C82.9281008,134.160714 96.1924584,129.115017 106.803944,121.041901 L90.5551064,104.559289 C84.2545365,108.595847 76.6275309,110.950506 68.3373074,110.950506 L68.3373074,110.950506 Z" id="Shape" fill="#DDEAF9"></path>
                            <path d="M65.6564103,107.292308 C42.6358974,107.292308 23.7384615,88.3948718 23.7384615,65.374359 C23.7384615,42.3538462 42.6358974,23.4564103 65.6564103,23.4564103 C74.2461538,23.4564103 81.8051282,25.8615385 88.3333333,30.3282051 L105.169231,13.4923077 C94.174359,5.24615385 80.4307692,0.0923076923 65.6564103,0.0923076923 C29.5794872,0.0923076923 0.0307692308,29.2974359 0.0307692308,65.7179487 C0.0307692308,102.138462 29.5794872,131 65.6564103,131 C80.774359,131 94.5179487,125.846154 105.512821,117.6 L88.6769231,100.764103 C82.1487179,104.887179 74.2461538,107.292308 65.6564103,107.292308 L65.6564103,107.292308 Z" id="Shape" stroke="#7FAFF5" stroke-width="3"></path>
                        </g>
                    </g>
                </g>
            </g>
        </g>
    </g>
</svg>