<svg width="56" height="56" viewBox="0 0 56 56" fill="none" xmlns="http://www.w3.org/2000/svg">
<path fill-rule="evenodd" clip-rule="evenodd" d="M51.0181 12.053C54.1591 16.5786 56.0001 22.0741 56.0001 28C56.0001 33.926 54.1591 39.422 51.0181 43.9471L43.7651 36.6941C45.1895 34.1169 46.0003 31.1528 46.0003 28C46.0003 24.8472 45.1895 21.8837 43.7651 19.3065L51.0181 12.053Z" fill="white" fill-opacity="0.4"/>
<path fill-rule="evenodd" clip-rule="evenodd" d="M43.9471 4.98198L36.6936 12.2349C34.1164 10.8105 31.1528 9.9998 28 9.9998C18.059 9.9998 9.99981 18.059 9.99981 28C9.99981 37.941 18.059 46.0002 28 46.0002C31.1528 46.0002 34.1164 45.1895 36.6936 43.7651L43.9471 51.018C39.4214 54.1591 33.926 56 28 56C12.5362 56 0 43.4639 0 28C0 12.5361 12.5362 0 28 0C33.926 0 39.4214 1.84095 43.9471 4.98198Z" fill="white" fill-opacity="0.9"/>
</svg>
