<svg width="39" height="39" xmlns="http://www.w3.org/2000/svg" aria-labelledby="logoicon" role="presentation">
  <title id="logoicon">Open Collective Logo Icon</title>
  <g fill="none" fill-rule="evenodd">
    <path d="M31.6 19.9c0 2.4-.7 4.7-1.9 6.6l4.9 4.9c2.4-3.2 3.9-7.2 3.9-11.5S37 11.6 34.6 8.4l-4.9 4.9c1.2 1.9 1.9 4.1 1.9 6.6z" fill="#B8D3F4"/>
    <path d="M19.4 32.1c-6.7 0-12.2-5.5-12.2-12.2 0-6.7 5.5-12.2 12.2-12.2 2.5 0 4.7.7 6.6 2l4.9-4.9C27.7 2.4 23.7.9 19.4.9 8.9.9.3 9.4.3 20c0 10.6 8.6 19 19.1 19 4.4 0 8.4-1.5 11.6-3.9l-4.9-4.9c-1.9 1.2-4.2 1.9-6.7 1.9z" fill="#46B0ED"/>
  </g>
</svg>