<svg width="288" height="288" xmlns="http://www.w3.org/2000/svg" xmlns:xlink="http://www.w3.org/1999/xlink" aria-labelledby="symbol" role="presentation">
    <title id="symbol">Open Collective Symbol</title>
    <path fill="#fff" opacity="0.7" d="M188 21.351l-31.03 31.084c-11.025-6.104-23.702-9.579-37.19-9.579-42.526 0-77.002 34.54-77.002 77.144 0 42.604 34.476 77.144 77.003 77.144 13.487 0 26.164-3.475 37.19-9.58L188 218.65C168.64 232.11 145.131 240 119.78 240 53.629 240 0 186.274 0 120S53.628 0 119.78 0c25.351 0 48.86 7.89 68.22 21.351zM218.826 51C232.176 70.298 240 93.731 240 119s-7.824 48.704-21.174 68L188 156.073c6.054-10.99 9.5-23.63 9.5-37.073 0-13.444-3.446-26.08-9.5-37.07L218.826 51z" id="b"/>
</svg>