<svg width="166" height="33" viewBox="0 0 166 33" fill="none" xmlns="http://www.w3.org/2000/svg">
<path d="M110.732 7.02832H109.111C109.045 7.02832 109.012 7.06269 109.012 7.13144V21.499C109.012 21.5678 109.045 21.6022 109.111 21.6022H110.732C110.798 21.6022 110.831 21.5678 110.831 21.499V7.13144C110.798 7.06269 110.765 7.02832 110.732 7.02832Z" fill="#141414"/>
<path d="M140.268 11.4967H142.087C142.12 11.4967 142.186 11.5655 142.186 11.5998V13.2841C142.186 13.3528 142.153 13.3872 142.087 13.3872H140.268C140.235 13.3872 140.202 13.4216 140.202 13.4559V21.499C140.202 21.5678 140.169 21.6022 140.102 21.6022H138.482C138.416 21.6022 138.382 21.5678 138.382 21.499V13.4559C138.382 13.4216 138.349 13.3872 138.316 13.3872H136.53C136.464 13.3872 136.431 13.3528 136.431 13.2841V11.5998C136.431 11.5311 136.464 11.4967 136.53 11.4967H138.316C138.349 11.4967 138.382 11.4623 138.382 11.428V7.13144C138.382 7.06269 138.416 7.02832 138.482 7.02832H140.102C140.169 7.02832 140.202 7.06269 140.202 7.13144V11.428C140.202 11.4623 140.235 11.4967 140.268 11.4967Z" fill="#141414"/>
<path d="M143.807 8.26577H145.427C145.494 8.26577 145.527 8.30015 145.527 8.36889V10.0531C145.527 10.1219 145.494 10.1562 145.427 10.1562H143.807C143.741 10.1562 143.708 10.1219 143.708 10.0531V8.36889C143.708 8.30015 143.741 8.26577 143.807 8.26577Z" fill="#141414"/>
<path d="M143.807 11.4968H145.427C145.494 11.4968 145.527 11.5655 145.527 11.5999V21.4991C145.527 21.5678 145.494 21.6022 145.427 21.6022H143.807C143.741 21.6022 143.708 21.5678 143.708 21.4991V11.5999C143.708 11.5311 143.741 11.4968 143.807 11.4968Z" fill="#141414"/>
<path fill-rule="evenodd" clip-rule="evenodd" d="M161.105 19.8836C160.146 19.8836 159.319 19.4711 158.723 18.7837C158.69 18.7149 158.69 18.6462 158.757 18.6118L164.313 16.1714L165.934 15.4496C166 15.4152 166 15.3808 166 15.3465C165.471 12.9748 163.387 11.2218 160.94 11.3249C158.36 11.428 156.21 13.5935 156.111 16.2745C155.978 19.2649 158.26 21.7397 161.138 21.7397C163.222 21.7397 165.008 20.3992 165.768 18.5087C165.802 18.44 165.768 18.3712 165.702 18.3712L164.082 18.0619C164.049 18.0619 163.982 18.0619 163.982 18.1306C163.387 19.1618 162.329 19.8836 161.105 19.8836ZM161.105 13.2154C162.064 13.2154 162.924 13.6623 163.486 14.3497C163.519 14.4184 163.519 14.4872 163.453 14.5216C163.453 14.5216 158.095 16.8933 158.029 16.9276C157.963 16.962 157.897 16.8933 157.897 16.8589V16.5839C157.864 14.6934 159.319 13.2154 161.105 13.2154Z" fill="#141414"/>
<path d="M154.291 11.4968H155.879C155.945 11.4968 155.978 11.5655 155.912 11.6343L152.638 21.5335C152.605 21.5678 152.572 21.6022 152.539 21.6022H150.289C150.223 21.6022 150.19 21.5678 150.19 21.5335L146.916 11.6343C146.916 11.5655 146.949 11.4968 147.015 11.4968H148.603C148.669 11.4968 148.702 11.5311 148.702 11.5655L151.282 19.4368C151.348 19.6086 151.546 19.6086 151.612 19.4368L154.192 11.5655C154.225 11.5311 154.258 11.4968 154.291 11.4968Z" fill="#141414"/>
<path d="M131.47 19.8835C129.485 19.8835 127.931 18.0274 128.295 15.8964C128.493 14.7277 129.618 13.5247 130.742 13.2841C131.966 13.0091 133.124 13.4559 133.851 14.3152C133.884 14.3496 133.95 14.3496 133.984 14.3152L135.141 13.1122C135.174 13.0778 135.174 13.0091 135.141 12.9747C134.182 11.8748 132.76 11.2217 131.205 11.2905C128.658 11.428 126.542 13.5934 126.409 16.2401C126.277 19.2305 128.559 21.7053 131.437 21.7053C132.892 21.7053 134.215 21.0522 135.141 20.021C135.174 19.9867 135.174 19.9523 135.141 19.9179L133.984 18.7149C133.95 18.6805 133.884 18.6805 133.851 18.7149C133.289 19.4711 132.429 19.8835 131.47 19.8835Z" fill="#141414"/>
<path fill-rule="evenodd" clip-rule="evenodd" d="M120.654 19.8835C119.695 19.8835 118.868 19.4711 118.273 18.7836C118.24 18.7149 118.24 18.6461 118.306 18.6118L123.863 16.1713L125.483 15.4495C125.549 15.4151 125.549 15.3808 125.549 15.3464C125.02 12.9747 122.936 11.2217 120.489 11.3248C117.909 11.428 115.759 13.5934 115.66 16.2745C115.528 19.2648 117.81 21.7396 120.687 21.7396C122.771 21.7396 124.557 20.3991 125.318 18.5086C125.351 18.4399 125.318 18.3712 125.252 18.3712L123.631 18.0618C123.598 18.0618 123.532 18.0618 123.532 18.1306C122.936 19.1617 121.845 19.8835 120.654 19.8835ZM120.654 13.2153C121.614 13.2153 122.473 13.6622 123.036 14.3496C123.069 14.4184 123.069 14.4871 123.003 14.5215C123.003 14.5215 117.645 16.8932 117.578 16.9275C117.512 16.9619 117.446 16.8932 117.446 16.8588V16.5838C117.413 14.6933 118.868 13.2153 120.654 13.2153Z" fill="#141414"/>
<path d="M112.65 7.02832H114.271C114.304 7.02832 114.37 7.06269 114.37 7.13144V21.499C114.37 21.5678 114.337 21.6022 114.271 21.6022H112.65C112.584 21.6022 112.551 21.5678 112.551 21.499V7.13144C112.551 7.06269 112.584 7.02832 112.65 7.02832Z" fill="#141414"/>
<path fill-rule="evenodd" clip-rule="evenodd" d="M97.7665 16.5495C97.7665 13.6622 100.016 11.3249 102.794 11.3249C105.572 11.3249 107.821 13.6622 107.821 16.5495C107.821 19.4367 105.572 21.774 102.794 21.774C100.016 21.774 97.7665 19.4367 97.7665 16.5495ZM106.002 16.5494C106.002 14.7277 104.58 13.2153 102.794 13.2153C101.008 13.2153 99.5856 14.7277 99.5856 16.5494C99.5856 18.3712 101.041 19.8836 102.794 19.8836C104.547 19.8836 106.002 18.3712 106.002 16.5494Z" fill="#141414"/>
<path d="M90.3908 15.8964C90.027 18.0274 91.5815 19.8835 93.566 19.8835C94.5251 19.8835 95.3851 19.4711 95.9474 18.7149C95.9804 18.6805 96.0466 18.6805 96.0797 18.7149L97.2373 19.9179C97.2704 19.9523 97.2704 19.9867 97.2373 20.021C96.3112 21.0522 94.9882 21.7053 93.5329 21.7053C90.6554 21.7053 88.3732 19.2305 88.5055 16.2401C88.6378 13.5934 90.7546 11.428 93.3014 11.2905C94.8559 11.2217 96.2781 11.8748 97.2373 12.9747C97.2704 13.0091 97.2704 13.0778 97.2373 13.1122L96.0797 14.3152C96.0466 14.3496 95.9804 14.3496 95.9474 14.3152C95.2197 13.4559 94.0621 13.0091 92.8383 13.2841C91.7138 13.5247 90.5892 14.7277 90.3908 15.8964Z" fill="#141414"/>
<path d="M79.0731 11.3249C78.0147 11.3249 76.7909 12.0123 76.2286 12.8373C76.1956 12.906 76.0633 12.8716 76.0633 12.8029V11.5999C76.0633 11.5655 76.0302 11.4967 75.964 11.4967H74.3434C74.3103 11.4967 74.2441 11.5311 74.2441 11.5999V21.5334C74.2441 21.5678 74.2772 21.6366 74.3434 21.6366H75.964C75.9971 21.6366 76.0633 21.6022 76.0633 21.5334V16.5838C76.0633 14.6934 77.287 13.3528 79.04 13.3528C81.3552 13.3528 82.0498 14.934 82.0498 16.7901V21.5334C82.0498 21.5678 82.0829 21.6366 82.149 21.6366H83.7697C83.8028 21.6366 83.8689 21.6022 83.8689 21.5334V16.7901C83.902 13.9028 82.579 11.3249 79.0731 11.3249Z" fill="#141414"/>
<path fill-rule="evenodd" clip-rule="evenodd" d="M68.3899 19.8835C67.4307 19.8835 66.6038 19.4711 66.0085 18.7836C65.9754 18.7149 65.9754 18.6461 66.0416 18.6118L71.5981 16.1713L73.2188 15.4495C73.285 15.4151 73.285 15.3808 73.285 15.3464C72.7558 12.9747 70.672 11.2217 68.2245 11.3248C65.6447 11.428 63.4948 13.5934 63.3956 16.2745C63.2633 19.2648 65.5454 21.7396 68.423 21.7396C70.5067 21.7396 72.2927 20.3991 73.0534 18.5086C73.0865 18.4399 73.0534 18.3712 72.9873 18.3712L71.3666 18.0618C71.3335 18.0618 71.2674 18.0618 71.2674 18.1306C70.672 19.1617 69.6136 19.8835 68.3899 19.8835ZM68.3899 13.2153C69.3491 13.2153 70.209 13.6622 70.7713 14.3496C70.8044 14.4184 70.8044 14.4871 70.7382 14.5215C70.7382 14.5215 65.3801 16.8932 65.3139 16.9275C65.2478 16.9619 65.1816 16.8932 65.1816 16.8588V16.5838C65.1816 14.6933 66.6369 13.2153 68.3899 13.2153Z" fill="#141414"/>
<path fill-rule="evenodd" clip-rule="evenodd" d="M54.4654 12.631C55.1599 11.7717 56.1522 11.2561 57.409 11.2217C59.8235 11.1874 62.0064 12.9747 62.4033 15.4839C62.9987 18.7836 60.5511 21.6709 57.4752 21.6709C56.1522 21.6709 55.1269 21.1209 54.4323 20.2616C54.3661 20.1929 54.2669 20.2273 54.2669 20.3304V26.0018C54.2669 26.0705 54.2338 26.1049 54.1677 26.1049H52.5801C52.5139 26.1049 52.4809 26.0705 52.4809 26.0018V11.5998C52.4809 11.5311 52.5139 11.4967 52.5801 11.4967H54.2008C54.2669 11.4967 54.3 11.5311 54.3 11.5998V12.5623C54.3 12.6654 54.3992 12.6997 54.4654 12.631ZM54.3331 15.8963C53.9692 18.1649 55.8545 20.1241 58.0375 19.746C59.3604 19.5054 60.4519 18.4055 60.6504 17.0306C61.0142 14.7621 59.1289 12.8028 56.946 13.1809C55.623 13.3872 54.5646 14.5214 54.3331 15.8963Z" fill="#141414"/>
<path fill-rule="evenodd" clip-rule="evenodd" d="M46.5274 11.3249C43.7491 11.3249 41.5 13.6622 41.5 16.5495C41.5 19.4367 43.7491 21.774 46.5274 21.774C49.3057 21.774 51.5548 19.4367 51.5548 16.5495C51.5548 13.6622 49.3057 11.3249 46.5274 11.3249ZM46.5274 13.2153C48.3134 13.2153 49.7356 14.7277 49.7356 16.5494C49.7356 18.3712 48.2803 19.8835 46.5274 19.8835C44.7744 19.8835 43.3191 18.3712 43.3191 16.5494C43.3191 14.7277 44.7744 13.2153 46.5274 13.2153Z" fill="#141414"/>
<path fill-rule="evenodd" clip-rule="evenodd" d="M29.2706 6.91504C31.0727 9.51156 32.1289 12.6645 32.1289 16.0644C32.1289 19.4643 31.0727 22.6175 29.2706 25.2137L25.1094 21.0525C25.9266 19.5738 26.3917 17.8732 26.3917 16.0644C26.3917 14.2555 25.9266 12.5552 25.1094 11.0766L29.2706 6.91504Z" fill="#8FC7FF"/>
<path fill-rule="evenodd" clip-rule="evenodd" d="M25.2139 2.85833L21.0523 7.01957C19.5737 6.20236 17.8734 5.73721 16.0645 5.73721C10.361 5.73721 5.73722 10.361 5.73722 16.0645C5.73722 21.768 10.361 26.3918 16.0645 26.3918C17.8734 26.3918 19.5737 25.9267 21.0523 25.1095L25.2139 29.2707C22.6174 31.0728 19.4645 32.129 16.0645 32.129C7.1924 32.129 0 24.9366 0 16.0645C0 7.19239 7.1924 0 16.0645 0C19.4645 0 22.6174 1.05621 25.2139 2.85833Z" fill="#297EFF"/>
</svg>
