<svg width="166" height="32" viewBox="0 0 166 32" fill="none" xmlns="http://www.w3.org/2000/svg">
<path d="M110.287 7H108.673C108.607 7 108.574 7.03423 108.574 7.1027V21.4126C108.574 21.4811 108.607 21.5153 108.673 21.5153H110.287C110.353 21.5153 110.386 21.4811 110.386 21.4126V7.1027C110.353 7.03423 110.32 7 110.287 7Z" fill="#141414"/>
<path d="M139.704 11.4505H141.516C141.549 11.4505 141.615 11.5189 141.615 11.5532V13.2306C141.615 13.2991 141.582 13.3333 141.516 13.3333H139.704C139.671 13.3333 139.639 13.3676 139.639 13.4018V21.4126C139.639 21.4811 139.606 21.5153 139.54 21.5153H137.926C137.86 21.5153 137.827 21.4811 137.827 21.4126V13.4018C137.827 13.3676 137.794 13.3333 137.761 13.3333H135.982C135.916 13.3333 135.883 13.2991 135.883 13.2306V11.5532C135.883 11.4847 135.916 11.4505 135.982 11.4505H137.761C137.794 11.4505 137.827 11.4162 137.827 11.382V7.1027C137.827 7.03423 137.86 7 137.926 7H139.54C139.606 7 139.639 7.03423 139.639 7.1027V11.382C139.639 11.4162 139.671 11.4505 139.704 11.4505Z" fill="#141414"/>
<path d="M143.229 8.23248H144.843C144.909 8.23248 144.942 8.26672 144.942 8.33519V10.0127C144.942 10.0811 144.909 10.1154 144.843 10.1154H143.229C143.163 10.1154 143.13 10.0811 143.13 10.0127V8.33519C143.13 8.26672 143.163 8.23248 143.229 8.23248Z" fill="#141414"/>
<path d="M143.229 11.4505H144.843C144.909 11.4505 144.942 11.519 144.942 11.5532V21.4127C144.942 21.4811 144.909 21.5154 144.843 21.5154H143.229C143.163 21.5154 143.13 21.4811 143.13 21.4127V11.5532C143.13 11.4847 143.163 11.4505 143.229 11.4505Z" fill="#141414"/>
<path fill-rule="evenodd" clip-rule="evenodd" d="M160.458 19.8037C159.503 19.8037 158.679 19.3928 158.086 18.7082C158.053 18.6397 158.053 18.5712 158.119 18.537L163.653 16.1064L165.267 15.3874C165.333 15.3532 165.333 15.319 165.333 15.2847C164.806 12.9226 162.731 11.1766 160.293 11.2793C157.724 11.382 155.582 13.5388 155.484 16.2091C155.352 19.1874 157.625 21.6523 160.491 21.6523C162.566 21.6523 164.345 20.3172 165.103 18.4343C165.136 18.3658 165.103 18.2973 165.037 18.2973L163.423 17.9892C163.39 17.9892 163.324 17.9892 163.324 18.0577C162.731 19.0847 161.677 19.8037 160.458 19.8037ZM160.458 13.1623C161.413 13.1623 162.27 13.6073 162.83 14.292C162.863 14.3605 162.863 14.4289 162.797 14.4632C162.797 14.4632 157.46 16.8253 157.394 16.8595C157.328 16.8938 157.262 16.8253 157.262 16.7911V16.5172C157.23 14.6343 158.679 13.1623 160.458 13.1623Z" fill="#141414"/>
<path d="M153.672 11.4505H155.253C155.319 11.4505 155.352 11.519 155.286 11.5874L152.025 21.4469C151.992 21.4811 151.959 21.5154 151.926 21.5154H149.686C149.62 21.5154 149.587 21.4811 149.587 21.4469L146.326 11.5874C146.326 11.519 146.359 11.4505 146.425 11.4505H148.006C148.072 11.4505 148.105 11.4847 148.105 11.519L150.674 19.3586C150.74 19.5298 150.938 19.5298 151.004 19.3586L153.573 11.519C153.606 11.4847 153.639 11.4505 153.672 11.4505Z" fill="#141414"/>
<path d="M130.942 19.8036C128.965 19.8036 127.417 17.9549 127.779 15.8324C127.977 14.6685 129.097 13.4703 130.217 13.2306C131.436 12.9567 132.589 13.4018 133.314 14.2576C133.347 14.2919 133.412 14.2919 133.445 14.2576L134.598 13.0594C134.631 13.0252 134.631 12.9567 134.598 12.9225C133.643 11.827 132.227 11.1766 130.678 11.245C128.142 11.382 126.033 13.5387 125.902 16.1748C125.77 19.1531 128.043 21.618 130.909 21.618C132.358 21.618 133.676 20.9676 134.598 19.9405C134.631 19.9063 134.631 19.8721 134.598 19.8378L133.445 18.6396C133.412 18.6054 133.347 18.6054 133.314 18.6396C132.754 19.3928 131.897 19.8036 130.942 19.8036Z" fill="#141414"/>
<path fill-rule="evenodd" clip-rule="evenodd" d="M120.17 19.8036C119.214 19.8036 118.391 19.3928 117.798 18.7081C117.765 18.6396 117.765 18.5712 117.831 18.5369L123.365 16.1063L124.979 15.3874C125.045 15.3531 125.045 15.3189 125.045 15.2847C124.518 12.9225 122.443 11.1766 120.005 11.2793C117.436 11.382 115.294 13.5387 115.195 16.209C115.064 19.1874 117.337 21.6522 120.203 21.6522C122.278 21.6522 124.057 20.3171 124.815 18.4342C124.848 18.3658 124.815 18.2973 124.749 18.2973L123.135 17.9892C123.102 17.9892 123.036 17.9892 123.036 18.0576C122.443 19.0847 121.356 19.8036 120.17 19.8036ZM120.17 13.1622C121.125 13.1622 121.982 13.6072 122.542 14.2919C122.575 14.3604 122.575 14.4288 122.509 14.4631C122.509 14.4631 117.172 16.8252 117.106 16.8595C117.04 16.8937 116.974 16.8252 116.974 16.791V16.5171C116.941 14.6342 118.391 13.1622 120.17 13.1622Z" fill="#141414"/>
<path d="M112.198 7H113.812C113.845 7 113.911 7.03423 113.911 7.1027V21.4126C113.911 21.4811 113.878 21.5153 113.812 21.5153H112.198C112.132 21.5153 112.099 21.4811 112.099 21.4126V7.1027C112.099 7.03423 112.132 7 112.198 7Z" fill="#141414"/>
<path fill-rule="evenodd" clip-rule="evenodd" d="M97.3738 16.4829C97.3738 13.6072 99.6139 11.2793 102.381 11.2793C105.148 11.2793 107.388 13.6072 107.388 16.4829C107.388 19.3586 105.148 21.6865 102.381 21.6865C99.6139 21.6865 97.3738 19.3586 97.3738 16.4829ZM105.576 16.4829C105.576 14.6685 104.16 13.1622 102.381 13.1622C100.602 13.1622 99.1856 14.6685 99.1856 16.4829C99.1856 18.2973 100.635 19.8036 102.381 19.8036C104.127 19.8036 105.576 18.2973 105.576 16.4829Z" fill="#141414"/>
<path d="M90.0278 15.8324C89.6654 17.9549 91.2137 19.8036 93.1902 19.8036C94.1455 19.8036 95.002 19.3928 95.562 18.6396C95.595 18.6054 95.6608 18.6054 95.6938 18.6396L96.8468 19.8378C96.8797 19.8721 96.8797 19.9063 96.8468 19.9405C95.9244 20.9676 94.6067 21.618 93.1572 21.618C90.2913 21.618 88.0183 19.1531 88.15 16.1748C88.2818 13.5387 90.3901 11.382 92.9267 11.245C94.4749 11.1766 95.8914 11.827 96.8468 12.9225C96.8797 12.9567 96.8797 13.0252 96.8468 13.0594L95.6938 14.2576C95.6608 14.2919 95.595 14.2919 95.562 14.2576C94.8373 13.4018 93.6843 12.9567 92.4655 13.2306C91.3454 13.4703 90.2254 14.6685 90.0278 15.8324Z" fill="#141414"/>
<path d="M78.7555 11.2793C77.7014 11.2793 76.4825 11.964 75.9225 12.7856C75.8895 12.8541 75.7578 12.8198 75.7578 12.7514V11.5532C75.7578 11.5189 75.7248 11.4505 75.6589 11.4505H74.0448C74.0118 11.4505 73.946 11.4847 73.946 11.5532V21.4469C73.946 21.4811 73.9789 21.5496 74.0448 21.5496H75.6589C75.6919 21.5496 75.7578 21.5153 75.7578 21.4469V16.5171C75.7578 14.6343 76.9766 13.2991 78.7226 13.2991C81.0285 13.2991 81.7203 14.8739 81.7203 16.7225V21.4469C81.7203 21.4811 81.7532 21.5496 81.8191 21.5496H83.4333C83.4662 21.5496 83.5321 21.5153 83.5321 21.4469V16.7225C83.565 13.8469 82.2474 11.2793 78.7555 11.2793Z" fill="#141414"/>
<path fill-rule="evenodd" clip-rule="evenodd" d="M68.1152 19.8036C67.1599 19.8036 66.3363 19.3928 65.7434 18.7081C65.7104 18.6396 65.7104 18.5712 65.7763 18.5369L71.3106 16.1063L72.9247 15.3874C72.9906 15.3531 72.9906 15.3189 72.9906 15.2847C72.4636 12.9225 70.3882 11.1766 67.9505 11.2793C65.381 11.382 63.2398 13.5387 63.141 16.209C63.0092 19.1874 65.2822 21.6522 68.1481 21.6522C70.2235 21.6522 72.0024 20.3171 72.76 18.4342C72.793 18.3658 72.76 18.2973 72.6941 18.2973L71.08 17.9892C71.047 17.9892 70.9812 17.9892 70.9812 18.0576C70.3882 19.0847 69.3341 19.8036 68.1152 19.8036ZM68.1152 13.1622C69.0705 13.1622 69.927 13.6072 70.487 14.2919C70.52 14.3604 70.52 14.4288 70.4541 14.4631C70.4541 14.4631 65.1175 16.8252 65.0516 16.8595C64.9857 16.8937 64.9198 16.8252 64.9198 16.791V16.5171C64.9198 14.6342 66.3693 13.1622 68.1152 13.1622Z" fill="#141414"/>
<path fill-rule="evenodd" clip-rule="evenodd" d="M54.2466 12.5802C54.9384 11.7243 55.9267 11.2108 57.1784 11.1766C59.5832 11.1423 61.7574 12.9225 62.1527 15.4216C62.7457 18.7081 60.3079 21.5838 57.2443 21.5838C55.9267 21.5838 54.9054 21.036 54.2137 20.1802C54.1478 20.1117 54.049 20.1459 54.049 20.2486V25.8973C54.049 25.9658 54.016 26 53.9501 26H52.3689C52.303 26 52.2701 25.9658 52.2701 25.8973V11.5531C52.2701 11.4847 52.303 11.4504 52.3689 11.4504H53.9831C54.049 11.4504 54.0819 11.4847 54.0819 11.5531V12.5117C54.0819 12.6144 54.1807 12.6486 54.2466 12.5802ZM54.1148 15.8324C53.7525 18.0919 55.6302 20.0432 57.8043 19.6666C59.122 19.427 60.2091 18.3315 60.4068 16.9621C60.7691 14.7027 58.8914 12.7513 56.7173 13.1279C55.3996 13.3333 54.3454 14.463 54.1148 15.8324Z" fill="#141414"/>
<path fill-rule="evenodd" clip-rule="evenodd" d="M46.3405 11.2793C43.5734 11.2793 41.3333 13.6072 41.3333 16.4829C41.3333 19.3586 43.5734 21.6865 46.3405 21.6865C49.1076 21.6865 51.3477 19.3586 51.3477 16.4829C51.3477 13.6072 49.1076 11.2793 46.3405 11.2793ZM46.3405 13.1622C48.1194 13.1622 49.5359 14.6685 49.5359 16.4829C49.5359 18.2973 48.0864 19.8036 46.3405 19.8036C44.5946 19.8036 43.1451 18.2973 43.1451 16.4829C43.1451 14.6685 44.5946 13.1622 46.3405 13.1622Z" fill="#141414"/>
<path fill-rule="evenodd" clip-rule="evenodd" d="M29.1532 6.88745C30.9481 9.47355 32 12.6138 32 16.0001C32 19.3863 30.9481 22.5269 29.1532 25.1127L25.0087 20.9681C25.8226 19.4954 26.2859 17.8016 26.2859 16.0001C26.2859 14.1985 25.8226 12.505 25.0087 11.0323L29.1532 6.88745Z" fill="#9FD8F9"/>
<path fill-rule="evenodd" clip-rule="evenodd" d="M25.1126 2.84685L20.9678 6.99138C19.4951 6.17745 17.8016 5.71417 16 5.71417C10.3194 5.71417 5.71418 10.3194 5.71418 16C5.71418 21.6806 10.3194 26.2858 16 26.2858C17.8016 26.2858 19.4951 25.8225 20.9678 25.0086L25.1126 29.1531C22.5265 30.948 19.3863 32 16 32C7.16352 32 0 24.8365 0 16C0 7.16351 7.16352 0 16 0C19.3863 0 22.5265 1.05197 25.1126 2.84685Z" fill="#4E7EE0"/>
</svg>
