<svg width="168" height="28" viewBox="0 0 168 28" fill="none" xmlns="http://www.w3.org/2000/svg">
<path fill-rule="evenodd" clip-rule="evenodd" d="M106.727 5H108.459C108.494 5 108.529 5.03604 108.565 5.10811V20.1712C108.565 20.2432 108.529 20.2793 108.459 20.2793H106.727C106.657 20.2793 106.621 20.2432 106.621 20.1712V5.10811C106.621 5.03604 106.657 5 106.727 5ZM140.011 9.68468H141.954C141.99 9.68468 142.06 9.75676 142.06 9.79279V11.5586C142.06 11.6306 142.025 11.6667 141.954 11.6667H140.011C139.976 11.6667 139.94 11.7027 139.94 11.7387V20.1712C139.94 20.2432 139.905 20.2793 139.834 20.2793H138.103C138.032 20.2793 137.997 20.2432 137.997 20.1712V11.7387C137.997 11.7027 137.962 11.6667 137.926 11.6667H136.018C135.948 11.6667 135.912 11.6306 135.912 11.5586V9.79279C135.912 9.72072 135.948 9.68468 136.018 9.68468H137.926C137.962 9.68468 137.997 9.64865 137.997 9.61261V5.10811C137.997 5.03604 138.032 5 138.103 5H139.834C139.905 5 139.94 5.03604 139.94 5.10811V9.61261C139.94 9.64865 139.976 9.68468 140.011 9.68468ZM145.523 6.2973H143.792C143.721 6.2973 143.686 6.33334 143.686 6.40541V8.17118C143.686 8.24325 143.721 8.27928 143.792 8.27928H145.523C145.594 8.27928 145.629 8.24325 145.629 8.17118V6.40541C145.629 6.33334 145.594 6.2973 145.523 6.2973ZM159.727 17.3243C160.363 18.0451 161.246 18.4775 162.271 18.4775C163.578 18.4775 164.709 17.7207 165.345 16.6397C165.345 16.5676 165.415 16.5676 165.451 16.5676L167.182 16.8919C167.253 16.8919 167.288 16.964 167.253 17.036C166.44 19.018 164.532 20.4234 162.306 20.4234C159.232 20.4234 156.794 17.8288 156.935 14.6937C157.041 11.8829 159.338 9.61263 162.094 9.50452C164.709 9.39641 166.935 11.2342 167.5 13.7207C167.5 13.7568 167.5 13.7928 167.429 13.8288L165.698 14.5856L159.762 17.1442C159.691 17.1802 159.691 17.2523 159.727 17.3243ZM164.815 12.6757C164.214 11.955 163.295 11.4865 162.271 11.4865C160.363 11.4865 158.808 13.036 158.843 15.018V15.3063C158.843 15.3424 158.914 15.4144 158.985 15.3784C159.055 15.3424 164.779 12.8559 164.779 12.8559C164.85 12.8198 164.85 12.7478 164.815 12.6757ZM156.688 9.68469H154.992C154.957 9.68469 154.921 9.72073 154.886 9.75676L152.13 18.009C152.059 18.1892 151.847 18.1892 151.777 18.009L149.021 9.75676C149.021 9.72073 148.985 9.68469 148.915 9.68469H147.219C147.148 9.68469 147.113 9.75676 147.113 9.82884L150.611 20.2072C150.611 20.2433 150.646 20.2793 150.717 20.2793H153.119C153.155 20.2793 153.19 20.2433 153.225 20.2072L156.723 9.82884C156.794 9.75676 156.759 9.68469 156.688 9.68469ZM143.792 9.68469H145.523C145.594 9.68469 145.629 9.75676 145.629 9.7928V20.1712C145.629 20.2433 145.594 20.2793 145.523 20.2793H143.792C143.721 20.2793 143.686 20.2433 143.686 20.1712V9.7928C143.686 9.72073 143.721 9.68469 143.792 9.68469ZM130.612 18.4775C128.492 18.4775 126.832 16.5315 127.22 14.2973C127.432 13.0721 128.634 11.8108 129.835 11.5586C131.142 11.2703 132.379 11.7387 133.156 12.6396C133.192 12.6757 133.262 12.6757 133.298 12.6396L134.534 11.3784C134.57 11.3423 134.57 11.2703 134.534 11.2342C133.51 10.0811 131.99 9.39639 130.33 9.46847C127.609 9.61261 125.348 11.8829 125.206 14.6577C125.065 17.7928 127.503 20.3874 130.577 20.3874C132.132 20.3874 133.545 19.7027 134.534 18.6216C134.57 18.5856 134.57 18.5495 134.534 18.5135L133.298 17.2523C133.262 17.2162 133.192 17.2162 133.156 17.2523C132.556 18.045 131.637 18.4775 130.612 18.4775ZM112.239 5H110.508C110.437 5 110.402 5.03604 110.402 5.10811V20.1712C110.402 20.2432 110.437 20.2793 110.508 20.2793H112.239C112.31 20.2793 112.345 20.2432 112.345 20.1712V5.10811C112.345 5.03604 112.275 5 112.239 5ZM86.7287 14.2973C86.3401 16.5315 88.0007 18.4775 90.1207 18.4775C91.1454 18.4775 92.064 18.045 92.6647 17.2523C92.7 17.2162 92.7707 17.2162 92.806 17.2523L94.0427 18.5135C94.078 18.5495 94.078 18.5856 94.0427 18.6216C93.0533 19.7027 91.64 20.3874 90.0854 20.3874C87.0114 20.3874 84.5734 17.7928 84.7147 14.6577C84.8561 11.8829 87.1174 9.61261 89.838 9.46847C91.4987 9.39639 93.018 10.0811 94.0427 11.2342C94.078 11.2703 94.078 11.3423 94.0427 11.3784L92.806 12.6396C92.7707 12.6757 92.7 12.6757 92.6647 12.6396C91.8873 11.7387 90.6507 11.2703 89.3434 11.5586C88.142 11.8108 86.9407 13.0721 86.7287 14.2973ZM74.6383 9.5045C73.5076 9.5045 72.2003 10.2252 71.5997 11.0901C71.5643 11.1622 71.423 11.1261 71.423 11.0541V9.79279C71.423 9.75675 71.3877 9.68468 71.317 9.68468H69.5857C69.5503 9.68468 69.4797 9.72072 69.4797 9.79279V15.018V20.2072C69.4797 20.2432 69.515 20.3153 69.5857 20.3153H71.317C71.3523 20.3153 71.423 20.2793 71.423 20.2072V15.018C71.423 13.036 72.7303 11.6306 74.603 11.6306C77.0763 11.6306 77.8183 13.2883 77.8183 15.2342V20.2072C77.8183 20.2432 77.8536 20.3153 77.9243 20.3153H79.6556C79.6909 20.3153 79.7616 20.2793 79.7616 20.2072V15.2342C79.7969 12.2072 78.3836 9.5045 74.6383 9.5045ZM60.6818 17.3243C61.3178 18.045 62.2011 18.4775 63.2257 18.4775C64.5331 18.4775 65.6637 17.7207 66.2997 16.6396C66.2997 16.5676 66.3704 16.5676 66.4057 16.5676L68.137 16.8919C68.2077 16.8919 68.243 16.964 68.2077 17.036C67.395 19.018 65.4871 20.4234 63.2611 20.4234C60.1871 20.4234 57.7491 17.8288 57.8905 14.6937C57.9965 11.8829 60.2931 9.61261 63.0491 9.5045C65.6637 9.39639 67.8897 11.2342 68.455 13.7207C68.455 13.7568 68.455 13.7928 68.3844 13.8288L66.653 14.5856L60.7171 17.1441C60.6464 17.1802 60.6464 17.2522 60.6818 17.3243ZM119.058 18.4775C118.034 18.4775 117.15 18.045 116.514 17.3243C116.479 17.2522 116.479 17.1802 116.55 17.1441L122.486 14.5856L124.217 13.8288C124.288 13.7928 124.288 13.7568 124.288 13.7207C123.722 11.2342 121.496 9.39639 118.882 9.5045C116.126 9.61261 113.829 11.8829 113.723 14.6937C113.582 17.8288 116.02 20.4234 119.094 20.4234C121.32 20.4234 123.228 19.018 124.04 17.036C124.076 16.964 124.04 16.8919 123.97 16.8919L122.238 16.5676C122.203 16.5676 122.132 16.5676 122.132 16.6396C121.496 17.7207 120.33 18.4775 119.058 18.4775ZM119.058 11.4865C120.083 11.4865 121.002 11.9549 121.602 12.6757C121.638 12.7477 121.638 12.8198 121.567 12.8558C121.567 12.8558 115.843 15.3423 115.772 15.3784C115.702 15.4144 115.631 15.3423 115.631 15.3063V15.018C115.596 13.036 117.15 11.4865 119.058 11.4865ZM94.608 14.982C94.608 11.955 97.0106 9.5045 99.9786 9.5045C102.947 9.5045 105.349 11.955 105.349 14.982C105.349 18.009 102.947 20.4595 99.9786 20.4595C97.0106 20.4595 94.608 18.009 94.608 14.982ZM99.9786 11.4865C101.887 11.4865 103.406 13.0721 103.406 14.982C103.406 16.8919 101.851 18.4775 99.9786 18.4775C98.1059 18.4775 96.5513 16.8919 96.5513 14.982C96.5513 13.0721 98.0706 11.4865 99.9786 11.4865ZM63.2257 11.4865C64.2504 11.4865 65.1691 11.9549 65.7697 12.6757C65.8051 12.7477 65.8051 12.8198 65.7344 12.8558C65.7344 12.8558 60.0104 15.3423 59.9398 15.3784C59.8691 15.4144 59.7984 15.3423 59.7984 15.3063V15.018C59.7984 13.036 61.3531 11.4865 63.2257 11.4865ZM48.3505 10.8739C49.0925 9.97297 50.1525 9.43243 51.4952 9.39639C54.0745 9.36036 56.4065 11.2342 56.8305 13.8649C57.4665 17.3243 54.8518 20.3513 51.5658 20.3513C50.1525 20.3513 49.0572 19.7748 48.3152 18.8739C48.2445 18.8018 48.1385 18.8378 48.1385 18.9459V24.8919C48.1385 24.964 48.1032 25 48.0325 25H46.3366C46.2659 25 46.2306 24.964 46.2306 24.8919V9.79279C46.2306 9.72072 46.2659 9.68468 46.3366 9.68468H48.0679C48.1385 9.68468 48.1739 9.72072 48.1739 9.79279V10.8018C48.1739 10.9099 48.2799 10.9459 48.3505 10.8739ZM48.2092 14.2973C47.8205 16.6757 49.8345 18.7297 52.1665 18.3333C53.5798 18.0811 54.7458 16.9279 54.9578 15.4865C55.3465 13.1081 53.3325 11.054 51.0005 11.4504C49.5872 11.6667 48.4565 12.8558 48.2092 14.2973ZM39.8706 9.5045C36.9026 9.5045 34.5 11.955 34.5 14.982C34.5 18.009 36.9026 20.4595 39.8706 20.4595C42.8386 20.4595 45.2412 18.009 45.2412 14.982C45.2412 11.955 42.8386 9.5045 39.8706 9.5045ZM39.8706 11.4865C41.7786 11.4865 43.2979 13.0721 43.2979 14.982C43.2979 16.8919 41.7433 18.4775 39.8706 18.4775C37.998 18.4775 36.4433 16.8919 36.4433 14.982C36.4433 13.0721 37.998 11.4865 39.8706 11.4865Z" fill="#4B4E52"/>
<path fill-rule="evenodd" clip-rule="evenodd" d="M26.009 6.02649C27.5796 8.28932 28.5 11.037 28.5 14C28.5 16.963 27.5796 19.711 26.009 21.9735L22.3826 18.3471C23.0948 17.0585 23.5001 15.5764 23.5001 14C23.5001 12.4236 23.0948 10.9418 22.3826 9.65324L26.009 6.02649Z" fill="#99CFFF"/>
<path fill-rule="evenodd" clip-rule="evenodd" d="M22.4735 2.49111L18.8468 6.11758C17.5582 5.40539 16.0764 5.00002 14.5 5.00002C9.5295 5.00002 5.4999 9.02962 5.4999 14.0001C5.4999 18.9706 9.5295 23.0002 14.5 23.0002C16.0764 23.0002 17.5582 22.5949 18.8468 21.8827L22.4735 25.5091C20.2107 27.0796 17.463 28.0001 14.5 28.0001C6.76808 28.0001 0.5 21.732 0.5 14.0001C0.5 6.26819 6.76808 0.00012207 14.5 0.00012207C17.463 0.00012207 20.2107 0.920596 22.4735 2.49111Z" fill="#1F87FF"/>
</svg>
