<?xml version="1.0" encoding="UTF-8" standalone="no"?>
<svg width="144px" height="157px" viewBox="0 0 144 157" version="1.1" xmlns="http://www.w3.org/2000/svg" xmlns:xlink="http://www.w3.org/1999/xlink">
    <!-- Generator: Sketch Beta 39 (31533) - http://www.bohemiancoding.com/sketch -->
    <title>ticket</title>
    <desc>Created with Sketch Beta.</desc>
    <defs></defs>
    <g id="Page-1" stroke="none" stroke-width="1" fill="none" fill-rule="evenodd">
        <g id="ticket">
            <g id="Page-1">
                <g>
                    <g id="new-collective">
                        <g id="Group-2">
                            <g id="ticket">
                                <rect id="Rectangle-52" fill="#F3F3F3" x="0" y="0" width="144" height="157"></rect>
                                <path d="M60.7304348,64.684 L82.0173913,64.684 L82.0173913,55.892 L60.7304348,55.892 L60.7304348,64.684 L60.7304348,64.684 Z M90.7826087,51.496 C90.7826087,49.068152 88.8204522,47.1 86.4,47.1 L56.3478261,47.1 C53.9273739,47.1 51.9652174,49.068152 51.9652174,51.496 L51.9652174,69.08 C51.9652174,71.507848 53.9273739,73.476 56.3478261,73.476 L86.4,73.476 C88.8204522,73.476 90.7826087,71.507848 90.7826087,69.08 L90.7826087,51.496 L90.7826087,51.496 Z M51.9940174,87.92 C51.9940174,85.492152 53.9561739,83.524 56.3766261,83.524 L86.1833739,83.524 C88.6038261,83.524 90.5659826,85.492152 90.5659826,87.92 C90.5659826,90.347848 88.6038261,92.316 86.1833739,92.316 L56.3766261,92.316 C53.9561739,92.316 51.9940174,90.347848 51.9940174,87.92 L51.9940174,87.92 L51.9940174,87.92 Z M51.9940174,105.504 C51.9940174,103.076152 53.9561739,101.108 56.3766261,101.108 L86.1833739,101.108 C88.6038261,101.108 90.5659826,103.076152 90.5659826,105.504 C90.5659826,107.931848 88.6038261,109.9 86.1833739,109.9 L56.3766261,109.9 C53.9561739,109.9 51.9940174,107.931848 51.9940174,105.504 L51.9940174,105.504 L51.9940174,105.504 Z M39.4434783,123.716 L104.556522,123.716 L104.556522,33.284 L39.4434783,33.284 L39.4434783,123.716 L39.4434783,123.716 Z M109.565217,23.236 L34.4347826,23.236 C31.6687304,23.236 29.426087,25.485496 29.426087,28.26 L29.426087,128.74 C29.426087,131.514504 31.6687304,133.764 34.4347826,133.764 L109.565217,133.764 C112.33127,133.764 114.573913,131.514504 114.573913,128.74 L114.573913,28.26 C114.573913,25.485496 112.33127,23.236 109.565217,23.236 L109.565217,23.236 L109.565217,23.236 Z" id="article" fill="#D1D4D6"></path>
                            </g>
                        </g>
                    </g>
                </g>
            </g>
        </g>
    </g>
</svg>