<?xml version="1.0" encoding="UTF-8" standalone="no"?>
<svg width="166px" height="139px" viewBox="0 0 166 139" version="1.1" xmlns="http://www.w3.org/2000/svg" xmlns:xlink="http://www.w3.org/1999/xlink">
    <!-- Generator: sketchtool 3.8.1 (29687) - http://www.bohemiancoding.com/sketch -->
    <title>D6AC4E17-3948-4F53-BDEF-6C1EC4EE301C</title>
    <desc>Created with sketchtool.</desc>
    <defs>
        <path d="M10.297,0.241 C10.297,3 8.056,5.241 5.297,5.241 C2.537,5.241 0.297,3 0.297,0.241 L10.297,0.241 L10.297,0.241 Z" id="path-1"></path>
    </defs>
    <g id="Page-1" stroke="none" stroke-width="1" fill="none" fill-rule="evenodd" opacity="0.2">
        <g id="profile-empty" transform="translate(-664.000000, -610.000000)">
            <g id="::-empty" transform="translate(494.000000, 605.000000)">
                <g id="spooky-ghost" transform="translate(170.000000, 0.000000)">
                    <g id="ghost" transform="translate(0.000000, 12.000000)">
                        <path d="M81.167,75.641 C82.957,72.241 86.536,72.241 88.325,73.941 C90.115,75.641 90.115,79.041 88.325,82.441 C87.072,84.991 83.851,87.541 81.167,89.241 C78.483,87.541 75.262,84.991 74.009,82.441 C72.22,79.041 72.22,75.641 74.009,73.941 C75.799,72.241 79.378,72.241 81.167,75.641 L81.167,75.641 Z" id="Shape" fill="#237996"></path>
                        <path d="M76.402,73.992 C76.566,74.004 76.722,74.045 76.865,74.129 C76.943,74.175 77.014,74.231 77.077,74.296 C77.319,74.546 77.414,74.913 77.324,75.249 C77.287,75.389 77.219,75.52 77.127,75.631 C77.058,75.714 76.976,75.785 76.904,75.866 C76.875,75.9 76.846,75.934 76.818,75.97 C76.746,76.067 76.678,76.166 76.619,76.271 C76.447,76.577 76.338,76.914 76.274,77.258 C76.176,77.784 76.181,78.326 76.247,78.855 C76.271,79.045 76.303,79.233 76.341,79.421 C76.391,79.66 76.452,79.896 76.523,80.13 C76.611,80.421 76.715,80.707 76.831,80.988 C76.918,81.2 77.013,81.408 77.115,81.614 C77.165,81.717 77.22,81.817 77.27,81.92 C77.291,81.97 77.29,81.97 77.309,82.021 C77.35,82.161 77.368,82.304 77.351,82.449 C77.336,82.575 77.297,82.697 77.237,82.808 C77.185,82.904 77.118,82.99 77.039,83.064 C76.728,83.353 76.254,83.413 75.881,83.211 C75.72,83.123 75.593,82.994 75.496,82.839 C75.435,82.727 75.378,82.613 75.321,82.499 C75.178,82.205 75.043,81.907 74.922,81.603 C74.805,81.31 74.7,81.012 74.609,80.71 C74.535,80.467 74.47,80.221 74.414,79.973 C74.114,78.631 74.084,77.175 74.596,75.879 C74.66,75.718 74.732,75.559 74.813,75.406 C74.874,75.291 74.939,75.178 75.009,75.069 C75.137,74.868 75.282,74.677 75.442,74.5 C75.548,74.383 75.658,74.26 75.789,74.169 C75.94,74.065 76.112,74.01 76.294,73.993 C76.348,73.991 76.348,73.991 76.402,73.992 L76.402,73.992 Z" id="Shape" fill="#2887A1"></path>
                        <path d="M60.329,4.725 C88.227,4.725 110.843,27.341 110.843,55.239 C110.843,80.497 103.243,105.156 103.243,105.156 C103.243,105.156 103.121,105.688 102.932,106.514 C102.506,108.376 101.103,109.859 99.268,110.388 C97.433,110.918 95.456,110.409 94.104,109.061 C94.103,109.06 94.102,109.059 94.102,109.059 C92.273,107.235 89.311,107.238 87.487,109.066 C86.758,109.797 85.975,110.581 85.211,111.347 C84.048,112.513 82.467,113.165 80.821,113.158 C79.175,113.152 77.599,112.488 76.445,111.314 C76.072,110.934 75.695,110.55 75.323,110.171 C74.173,109.002 72.606,108.338 70.966,108.327 C69.326,108.315 67.75,108.957 66.584,110.111 C66.139,110.551 65.688,110.998 65.244,111.437 C62.831,113.826 58.941,113.815 56.541,111.413 C56.111,110.983 55.675,110.546 55.245,110.116 C52.838,107.707 48.936,107.704 46.526,110.108 C46.094,110.539 45.655,110.976 45.224,111.407 C42.814,113.81 38.914,113.808 36.508,111.403 C35.77,110.666 35.012,109.909 34.302,109.199 C33.389,108.287 32.151,107.776 30.862,107.78 C29.572,107.783 28.336,108.3 27.428,109.216 L27.428,109.216 C26.075,110.581 24.102,111.13 22.238,110.658 C20.375,110.187 18.9,108.765 18.36,106.921 C18.051,105.867 17.843,105.156 17.843,105.156 C17.843,105.156 9.812,80.497 9.812,55.239 C9.812,27.341 32.428,4.725 60.326,4.725 L60.329,4.725 L60.329,4.725 Z M33.601,46.624 C32.668,46.937 31.657,46.441 31.333,45.512 C31.111,44.794 30.979,44.033 30.979,43.241 C30.979,39.377 34.116,36.241 37.979,36.241 C41.843,36.241 44.979,39.377 44.979,43.241 C44.979,44.173 44.797,45.063 44.465,45.877 C44.161,46.596 43.349,46.952 42.614,46.689 C41.215,46.235 39.643,45.97 37.979,45.97 C36.415,45.97 34.931,46.204 33.601,46.624 L33.601,46.624 Z M73.698,46.526 C73.125,46.701 72.505,46.633 71.984,46.338 C71.463,46.042 71.086,45.545 70.942,44.964 C70.825,44.409 70.751,43.833 70.751,43.241 C70.751,39.377 73.888,36.241 77.751,36.241 C81.615,36.241 84.751,39.377 84.751,43.241 C84.751,43.905 84.659,44.548 84.485,45.157 C84.336,45.684 83.979,46.128 83.497,46.387 C83.015,46.647 82.448,46.701 81.926,46.536 C80.643,46.18 79.233,45.97 77.751,45.97 C76.313,45.97 74.943,46.168 73.698,46.526 L73.698,46.526 Z" id="Shape" fill="#DDEAF9"></path>
                        <path d="M6.325,69.588 L6.325,69.587 C6.266,69.08 6.209,68.573 6.153,68.066 C6.025,66.863 5.905,65.659 5.802,64.454 C5.576,61.813 5.417,59.166 5.338,56.516 C5.312,55.621 5.294,54.726 5.286,53.831 C5.279,53.025 5.278,52.219 5.298,51.413 C5.324,50.415 5.377,49.419 5.459,48.424 C5.744,44.967 6.375,41.539 7.343,38.208 C8.727,33.447 10.801,28.892 13.477,24.718 C16.68,19.722 20.739,15.282 25.428,11.643 C29.655,8.362 34.386,5.737 39.411,3.897 C43.047,2.566 46.832,1.647 50.672,1.158 C51.983,0.992 53.3,0.875 54.62,0.808 C55.287,0.774 55.955,0.755 56.623,0.745 C56.961,0.742 57.297,0.741 57.634,0.742 C58.304,0.748 58.972,0.763 59.641,0.793 C61.072,0.856 62.5,0.978 63.921,1.158 C68.077,1.687 72.168,2.721 76.075,4.233 C80.671,6.013 85.007,8.454 88.918,11.452 C92.055,13.857 94.918,16.619 97.434,19.668 C100.095,22.892 102.368,26.437 104.182,30.204 C106.597,35.216 108.193,40.613 108.894,46.132 C109.103,47.773 109.233,49.425 109.286,51.079 C109.316,52.036 109.315,52.994 109.307,53.952 C109.296,55.145 109.268,56.338 109.226,57.531 C109.062,62.164 108.673,66.789 108.114,71.391 C107.337,77.79 106.232,84.15 104.857,90.447 C104.324,92.884 103.751,95.312 103.13,97.728 C102.674,99.505 102.197,101.278 101.67,103.035 C101.526,103.506 101.451,103.996 101.337,104.476 C101.271,104.734 101.195,104.988 101.101,105.237 C100.877,105.832 100.569,106.394 100.188,106.902 C99.789,107.436 99.31,107.911 98.771,108.305 C98.133,108.773 97.413,109.126 96.653,109.345 C95.857,109.575 95.02,109.656 94.195,109.584 C93.494,109.523 92.802,109.351 92.154,109.077 C91.602,108.844 91.082,108.538 90.612,108.168 C90.405,108.006 90.21,107.831 90.023,107.647 C89.96,107.586 89.897,107.526 89.83,107.469 C89.589,107.265 89.322,107.095 89.031,106.969 C88.23,106.622 87.297,106.623 86.496,106.972 C86.156,107.121 85.847,107.33 85.577,107.584 C84.76,108.371 83.979,109.193 83.173,109.99 C82.559,110.583 81.856,111.078 81.083,111.442 C80.113,111.899 79.048,112.15 77.976,112.172 C76.776,112.198 75.574,111.937 74.492,111.417 C73.721,111.046 73.023,110.547 72.412,109.949 C71.986,109.52 71.571,109.079 71.139,108.656 C70.779,108.311 70.37,108.022 69.92,107.805 C69.404,107.557 68.843,107.404 68.272,107.357 C67.488,107.293 66.692,107.431 65.975,107.754 C65.484,107.975 65.039,108.281 64.65,108.652 C64.163,109.128 63.685,109.612 63.198,110.088 C62.573,110.684 61.86,111.179 61.074,111.539 C60.039,112.014 58.9,112.253 57.761,112.236 C56.683,112.221 55.612,111.976 54.635,111.521 C53.881,111.17 53.195,110.695 52.59,110.126 C52.073,109.628 51.582,109.104 51.066,108.607 C50.683,108.247 50.247,107.948 49.767,107.732 C48.544,107.182 47.106,107.19 45.889,107.753 C45.41,107.975 44.977,108.278 44.597,108.643 C44.122,109.111 43.656,109.587 43.182,110.054 C42.558,110.653 41.845,111.152 41.059,111.515 C40.079,111.969 39.005,112.211 37.925,112.223 C36.784,112.236 35.643,111.993 34.608,111.512 C34.061,111.259 33.545,110.94 33.073,110.565 C32.868,110.403 32.674,110.229 32.486,110.049 C31.705,109.277 30.945,108.482 30.154,107.72 C29.89,107.475 29.597,107.268 29.27,107.114 C28.393,106.701 27.359,106.692 26.475,107.087 C26.199,107.21 25.941,107.371 25.709,107.563 C25.564,107.683 25.434,107.818 25.299,107.948 C25.215,108.026 25.215,108.025 25.13,108.102 C24.902,108.3 24.665,108.487 24.414,108.656 C23.92,108.989 23.383,109.258 22.82,109.454 C22.189,109.674 21.526,109.802 20.859,109.833 C19.612,109.89 18.358,109.604 17.258,109.014 C16.473,108.591 15.771,108.016 15.202,107.329 C14.797,106.84 14.46,106.295 14.203,105.714 C14.095,105.471 14.004,105.221 13.923,104.968 C13.736,104.35 13.559,103.73 13.378,103.111 C13.278,102.799 13.181,102.486 13.085,102.173 C12.996,101.879 12.908,101.585 12.82,101.291 C12.324,99.608 11.854,97.919 11.409,96.222 C11.283,95.74 11.158,95.257 11.035,94.773 C10.952,94.447 10.838,94.117 10.867,93.775 C10.881,93.61 10.922,93.448 10.988,93.296 C11.19,92.837 11.621,92.502 12.116,92.42 C12.279,92.393 12.446,92.393 12.61,92.42 C12.773,92.448 12.931,92.502 13.077,92.581 C13.368,92.739 13.603,92.994 13.736,93.298 C13.769,93.374 13.789,93.454 13.816,93.532 C13.94,94.021 14.064,94.51 14.19,94.999 C14.567,96.442 14.955,97.883 15.368,99.316 C15.65,100.292 15.937,101.265 16.246,102.232 C16.433,102.868 16.605,103.508 16.807,104.139 C16.965,104.604 17.199,105.037 17.513,105.416 C17.782,105.74 18.102,106.021 18.46,106.244 C19.368,106.811 20.494,106.983 21.531,106.713 C22.043,106.579 22.526,106.342 22.945,106.018 C23.126,105.878 23.286,105.719 23.448,105.561 L23.56,105.457 C23.716,105.317 23.875,105.182 24.043,105.057 C24.459,104.746 24.913,104.487 25.392,104.287 C26.453,103.843 27.63,103.695 28.767,103.863 C29.383,103.953 29.986,104.135 30.549,104.4 C30.972,104.6 31.373,104.846 31.742,105.133 C31.906,105.261 32.062,105.398 32.215,105.54 C33.032,106.326 33.806,107.156 34.623,107.942 C35.007,108.301 35.442,108.599 35.922,108.815 C37.145,109.364 38.582,109.356 39.799,108.793 C40.277,108.572 40.71,108.268 41.09,107.903 C41.565,107.436 42.031,106.96 42.506,106.492 C42.717,106.29 42.937,106.096 43.169,105.917 C43.62,105.568 44.111,105.27 44.63,105.03 C45.89,104.447 47.302,104.218 48.682,104.368 C49.543,104.461 50.387,104.701 51.168,105.076 C51.921,105.437 52.604,105.922 53.205,106.501 C53.692,106.982 54.165,107.478 54.658,107.953 C55.026,108.299 55.443,108.588 55.902,108.802 C56.496,109.079 57.149,109.227 57.805,109.237 C58.498,109.247 59.192,109.102 59.822,108.813 C60.301,108.593 60.734,108.292 61.114,107.929 C61.624,107.431 62.12,106.919 62.635,106.428 C63.258,105.848 63.966,105.369 64.742,105.019 C65.92,104.488 67.228,104.262 68.516,104.367 C69.454,104.444 70.376,104.694 71.224,105.103 C71.732,105.348 72.213,105.65 72.656,106.001 C72.879,106.178 73.09,106.368 73.294,106.567 C73.721,106.996 74.135,107.437 74.567,107.86 C74.929,108.206 75.34,108.496 75.792,108.713 C76.45,109.03 77.182,109.188 77.912,109.173 C78.565,109.159 79.213,109.007 79.804,108.728 C80.275,108.507 80.702,108.206 81.076,107.844 C81.892,107.038 82.683,106.207 83.508,105.411 C83.997,104.951 84.551,104.567 85.16,104.284 C86.017,103.885 86.963,103.688 87.908,103.71 C88.703,103.728 89.493,103.9 90.223,104.216 C90.74,104.439 91.22,104.735 91.658,105.087 C91.782,105.186 91.901,105.292 92.016,105.402 C92.102,105.483 92.184,105.566 92.271,105.646 C92.334,105.702 92.399,105.756 92.464,105.809 C92.86,106.114 93.306,106.343 93.788,106.476 C94.267,106.607 94.772,106.642 95.264,106.579 C95.889,106.497 96.49,106.257 96.998,105.885 C97.314,105.653 97.593,105.372 97.823,105.055 C98.105,104.664 98.305,104.224 98.424,103.757 L98.441,103.689 L98.762,102.284 C98.877,101.907 98.987,101.527 99.097,101.148 C99.785,98.742 100.41,96.318 100.993,93.885 C101.618,91.271 102.193,88.645 102.719,86.008 C104.036,79.406 105.052,72.739 105.671,66.035 C105.971,62.784 106.176,59.523 106.264,56.26 C106.285,55.481 106.299,54.703 106.307,53.924 C106.314,53.112 106.317,52.3 106.296,51.489 C106.264,50.237 106.186,48.987 106.059,47.741 C105.74,44.599 105.117,41.489 104.197,38.467 C103.357,35.702 102.268,33.014 100.951,30.442 C98.441,25.541 95.099,21.074 91.115,17.275 C87.123,13.47 82.494,10.342 77.469,8.07 C73.055,6.074 68.347,4.745 63.543,4.135 C58.385,3.479 53.121,3.639 48.015,4.618 C43.098,5.56 38.333,7.265 33.933,9.655 C28.753,12.47 24.093,16.223 20.233,20.679 C16.876,24.554 14.13,28.954 12.132,33.677 C10.28,38.056 9.077,42.705 8.567,47.433 C8.421,48.78 8.332,50.134 8.297,51.489 C8.278,52.261 8.279,53.033 8.286,53.805 C8.294,54.679 8.311,55.553 8.337,56.426 C8.455,60.376 8.758,64.316 9.191,68.243 L9.247,68.742 L9.305,69.241 L9.305,69.243 C9.333,69.449 9.354,69.656 9.379,69.862 C9.404,70.069 9.43,70.275 9.456,70.482 C9.636,71.903 9.829,73.321 10.042,74.737 C10.246,76.099 10.468,77.458 10.7,78.816 L10.711,78.891 C10.732,79.121 10.713,79.347 10.637,79.565 C10.57,79.757 10.463,79.934 10.326,80.083 C10.223,80.195 10.104,80.292 9.972,80.368 C9.528,80.624 8.969,80.634 8.516,80.393 C8.382,80.321 8.259,80.229 8.152,80.121 C8.01,79.976 7.898,79.803 7.824,79.614 C7.796,79.543 7.776,79.47 7.758,79.396 C7.677,78.988 7.615,78.572 7.546,78.161 C7.282,76.56 7.034,74.956 6.809,73.348 C6.635,72.098 6.476,70.846 6.326,69.592 L6.325,69.588 L6.325,69.588 Z M10.471,84.005 C10.611,84.008 10.75,84.027 10.885,84.068 C11.232,84.172 11.534,84.402 11.726,84.709 C11.806,84.837 11.864,84.975 11.904,85.12 C11.998,85.488 12.066,85.911 12.134,86.244 C12.169,86.421 12.21,86.598 12.241,86.776 C12.272,86.975 12.267,87.176 12.22,87.372 C12.187,87.508 12.136,87.64 12.066,87.762 C11.842,88.157 11.441,88.434 10.993,88.504 C10.824,88.53 10.652,88.527 10.485,88.496 C10.308,88.463 10.137,88.397 9.983,88.304 C9.82,88.205 9.677,88.075 9.563,87.923 C9.436,87.754 9.348,87.561 9.299,87.356 C9.262,87.184 9.228,87.012 9.193,86.84 C9.126,86.508 9.025,86.088 8.969,85.712 C8.947,85.543 8.95,85.372 8.985,85.205 C9.077,84.749 9.384,84.355 9.803,84.153 C9.957,84.079 10.122,84.034 10.291,84.013 C10.351,84.007 10.411,84.005 10.471,84.005 L10.471,84.005 Z" id="Shape" fill="#7FAFF5"></path>
                        <path d="M38.089,34.741 C38.378,34.747 38.666,34.763 38.953,34.796 C39.687,34.88 40.409,35.06 41.096,35.331 C41.987,35.683 42.817,36.187 43.541,36.815 C44.418,37.574 45.136,38.511 45.64,39.556 C45.988,40.279 46.233,41.051 46.365,41.843 C46.429,42.233 46.467,42.627 46.477,43.022 C46.499,43.921 46.38,44.822 46.122,45.684 C46.064,45.877 45.999,46.068 45.928,46.256 C45.858,46.439 45.783,46.617 45.685,46.787 C45.324,47.414 44.735,47.895 44.048,48.123 C43.785,48.211 43.51,48.262 43.233,48.273 C42.949,48.285 42.663,48.256 42.388,48.187 C42.268,48.156 42.151,48.115 42.033,48.078 C41.927,48.045 41.902,48.038 41.795,48.006 C41.674,47.972 41.553,47.938 41.431,47.906 C39.599,47.437 37.673,47.34 35.804,47.642 C35.405,47.706 35.008,47.789 34.616,47.892 C34.381,47.953 34.151,48.027 33.918,48.095 C33.839,48.116 33.839,48.116 33.758,48.136 C33.439,48.204 33.115,48.233 32.788,48.209 C31.891,48.143 31.042,47.701 30.473,47.003 C30.302,46.793 30.156,46.561 30.042,46.315 C29.991,46.206 29.949,46.095 29.908,45.983 C29.856,45.809 29.856,45.81 29.807,45.635 C29.691,45.195 29.598,44.75 29.543,44.298 C29.44,43.447 29.461,42.582 29.612,41.738 C29.76,40.915 30.029,40.115 30.41,39.372 C30.907,38.401 31.593,37.529 32.417,36.815 C33.141,36.187 33.972,35.683 34.863,35.331 C35.483,35.086 36.132,34.916 36.793,34.823 C37.114,34.778 37.437,34.754 37.761,34.743 C37.87,34.741 37.979,34.741 38.089,34.741 L38.089,34.741 Z M37.908,37.741 C37.242,37.754 36.584,37.877 35.964,38.122 C34.996,38.504 34.146,39.165 33.533,40.005 C33.179,40.49 32.905,41.033 32.726,41.606 C32.55,42.172 32.468,42.766 32.481,43.358 C32.489,43.745 32.536,44.13 32.618,44.508 C32.643,44.622 32.671,44.735 32.701,44.847 C32.718,44.908 32.734,44.988 32.761,45.047 C32.773,45.071 32.787,45.093 32.804,45.114 C32.88,45.2 32.997,45.236 33.109,45.206 C33.263,45.161 33.416,45.112 33.571,45.067 C34.051,44.934 34.536,44.82 35.027,44.731 C37.083,44.359 39.215,44.383 41.264,44.791 C41.881,44.913 42.488,45.074 43.087,45.266 L43.093,45.268 C43.316,44.711 43.443,44.115 43.473,43.515 C43.503,42.893 43.43,42.267 43.252,41.67 C43.049,40.989 42.711,40.349 42.265,39.795 C41.71,39.107 40.99,38.554 40.18,38.199 C39.573,37.933 38.924,37.786 38.263,37.748 C38.145,37.743 38.026,37.74 37.908,37.741 L37.908,37.741 Z" id="Shape" fill="#7FAFF5"></path>
                        <path d="M77.861,34.741 C78.15,34.747 78.438,34.763 78.726,34.796 C79.459,34.88 80.181,35.06 80.868,35.331 C81.728,35.67 82.53,36.152 83.236,36.748 C84.121,37.497 84.851,38.425 85.367,39.463 C85.723,40.181 85.978,40.949 86.119,41.738 C86.294,42.721 86.296,43.735 86.123,44.718 C86.089,44.909 86.049,45.1 86.003,45.288 C85.937,45.554 85.859,45.815 85.745,46.065 C85.378,46.872 84.706,47.521 83.887,47.861 C83.589,47.984 83.275,48.067 82.954,48.105 C82.544,48.154 82.134,48.126 81.731,48.037 C81.552,47.992 81.375,47.94 81.196,47.894 C79.455,47.465 77.638,47.352 75.859,47.599 C75.449,47.656 75.042,47.732 74.64,47.829 C74.41,47.884 74.183,47.951 73.955,48.011 C73.863,48.033 73.863,48.033 73.771,48.052 C73.372,48.125 72.969,48.142 72.566,48.088 C71.54,47.949 70.602,47.37 70.018,46.514 C69.86,46.283 69.729,46.034 69.628,45.774 C69.568,45.62 69.522,45.463 69.48,45.303 C69.453,45.172 69.427,45.041 69.404,44.91 C69.317,44.402 69.26,43.89 69.252,43.375 C69.24,42.58 69.338,41.784 69.546,41.017 C69.745,40.282 70.044,39.576 70.431,38.921 C71.425,37.241 72.996,35.929 74.83,35.257 C75.458,35.027 76.113,34.872 76.777,34.796 C77.065,34.763 77.353,34.747 77.642,34.741 L77.861,34.741 L77.861,34.741 Z M77.68,37.741 C77.059,37.753 76.445,37.86 75.862,38.074 C74.842,38.448 73.944,39.128 73.305,40.005 C72.938,40.508 72.657,41.073 72.479,41.67 C72.341,42.134 72.265,42.615 72.253,43.098 C72.243,43.501 72.278,43.903 72.343,44.3 C72.353,44.359 72.363,44.42 72.374,44.478 C72.392,44.573 72.408,44.663 72.452,44.75 C72.561,44.963 72.781,45.106 73.02,45.12 C73.111,45.125 73.197,45.11 73.284,45.084 C73.414,45.047 73.545,45.012 73.676,44.977 C74.123,44.864 74.573,44.767 75.028,44.691 C76.661,44.42 78.335,44.4 79.976,44.614 C80.541,44.688 81.102,44.79 81.657,44.919 C81.837,44.961 82.016,45.006 82.194,45.054 C82.243,45.067 82.292,45.08 82.34,45.094 C82.379,45.105 82.415,45.117 82.454,45.123 C82.49,45.128 82.524,45.13 82.56,45.129 C82.612,45.126 82.664,45.117 82.713,45.099 C82.851,45.05 82.963,44.944 83.02,44.81 C83.053,44.732 83.07,44.647 83.091,44.566 C83.121,44.444 83.147,44.322 83.168,44.198 C83.32,43.338 83.264,42.441 83.004,41.606 C82.839,41.075 82.592,40.57 82.275,40.114 C81.657,39.222 80.777,38.52 79.767,38.122 C79.191,37.895 78.582,37.772 77.965,37.745 C77.87,37.742 77.775,37.741 77.68,37.741 L77.68,37.741 Z" id="Shape" fill="#7FAFF5"></path>
                        <path d="M37.812,49.43 C41.676,49.43 44.812,50.555 44.812,51.94 C44.812,53.326 41.676,54.451 37.812,54.451 C33.949,54.451 30.812,53.326 30.812,51.94 C30.812,50.555 33.949,49.43 37.812,49.43 L37.812,49.43 Z M77.794,49.43 C81.648,49.43 84.777,50.555 84.777,51.94 C84.777,53.326 81.648,54.451 77.794,54.451 C73.941,54.451 70.812,53.326 70.812,51.94 C70.812,50.555 73.941,49.43 77.794,49.43 L77.794,49.43 Z" id="Shape" fill-opacity="0.25098" fill="#009EAB"></path>
                        <path d="M61.821,60.241 C61.949,60.24 62.071,60.294 62.158,60.387 C62.246,60.481 62.29,60.607 62.281,60.734 C62.025,63.262 59.89,65.241 57.297,65.241 C54.731,65.241 52.614,63.304 52.329,60.814 C52.317,60.669 52.366,60.526 52.464,60.419 C52.563,60.312 52.701,60.251 52.846,60.251 C54.618,60.241 60.159,60.241 61.821,60.241 L61.821,60.241 Z" id="Shape" fill="#544E50"></path>
                        <g id="Clipped" transform="translate(52.000000, 60.000000)">
                            <mask id="mask-2" fill="white">
                                <use xlink:href="#path-1"></use>
                            </mask>
                            <g id="Shape"></g>
                            <path d="M5.27,3.44 C5.576,3.302 5.928,3.224 6.301,3.224 C7.492,3.224 8.459,4.024 8.459,5.009 C8.459,5.994 7.492,6.794 6.301,6.794 C5.928,6.794 5.576,6.716 5.27,6.577 C4.964,6.716 4.613,6.794 4.239,6.794 C3.048,6.794 2.082,5.994 2.082,5.009 C2.082,4.024 3.048,3.224 4.239,3.224 C4.613,3.224 4.964,3.302 5.27,3.44 L5.27,3.44 Z" id="Shape" fill="#009EAB" mask="url(#mask-2)"></path>
                        </g>
                        <ellipse id="Oval" fill-opacity="0.501961" fill="#F9F9F9" cx="65.954" cy="127.694" rx="28.747" ry="2.55"></ellipse>
                        <path d="M58.285,124.145 C63.77,124.159 69.255,124.236 74.737,124.423 C77.741,124.526 80.744,124.66 83.743,124.85 C85.533,124.964 87.322,125.097 89.107,125.273 C90.241,125.385 91.376,125.513 92.503,125.684 C93.203,125.791 93.904,125.911 94.59,126.089 C94.828,126.15 95.065,126.219 95.296,126.306 C95.522,126.39 95.746,126.491 95.944,126.63 C96.097,126.737 96.235,126.868 96.339,127.024 C96.42,127.146 96.486,127.286 96.514,127.431 C96.528,127.502 96.543,127.574 96.543,127.647 C96.544,127.727 96.542,127.77 96.534,127.851 C96.526,127.922 96.506,127.993 96.485,128.061 C96.461,128.14 96.426,128.216 96.386,128.287 C96.154,128.695 95.72,128.924 95.296,129.082 C95.186,129.123 95.074,129.16 94.961,129.194 C94.838,129.232 94.714,129.266 94.59,129.299 C93.904,129.476 93.203,129.596 92.503,129.703 C91.545,129.849 90.582,129.962 89.619,130.062 C86.977,130.337 84.326,130.514 81.675,130.659 C78.521,130.833 75.364,130.953 72.207,131.043 C68.22,131.155 64.231,131.216 60.243,131.236 C52.275,131.276 44.303,131.168 36.342,130.827 L36.169,130.805 C36.114,130.787 36.056,130.775 36.003,130.753 C35.841,130.686 35.698,130.576 35.592,130.438 C35.521,130.345 35.466,130.241 35.431,130.13 C35.324,129.792 35.408,129.415 35.647,129.153 C35.725,129.067 35.819,128.996 35.922,128.942 C36.025,128.888 36.138,128.852 36.253,128.837 C36.311,128.829 36.369,128.832 36.427,128.829 C37.212,128.863 37.996,128.894 38.78,128.924 C44.504,129.132 50.231,129.229 55.958,129.242 C61.069,129.254 66.18,129.201 71.289,129.067 C75.4,128.959 79.512,128.802 83.616,128.541 C85.209,128.44 86.801,128.323 88.39,128.174 C89.724,128.049 91.057,127.903 92.381,127.698 L92.408,127.694 C91.574,127.56 90.734,127.458 89.895,127.366 C88.84,127.25 87.783,127.154 86.725,127.069 C84.031,126.851 81.331,126.7 78.63,126.578 C75.6,126.442 72.568,126.346 69.536,126.278 C65.785,126.193 62.033,126.151 58.282,126.145 C54.471,126.138 50.66,126.168 46.85,126.24 C43.476,126.304 40.102,126.401 36.731,126.545 C33.971,126.663 31.212,126.81 28.458,127.022 C27.364,127.106 26.272,127.201 25.182,127.314 C24.189,127.418 23.199,127.537 22.213,127.689 L22.186,127.694 C22.954,127.816 23.726,127.912 24.499,127.999 C25.576,128.12 26.656,128.218 27.736,128.308 L27.908,128.337 C27.962,128.357 28.019,128.372 28.072,128.396 C28.23,128.469 28.369,128.584 28.469,128.727 C28.537,128.823 28.587,128.929 28.618,129.041 C28.711,129.383 28.612,129.757 28.363,130.008 C28.281,130.091 28.185,130.159 28.079,130.209 C27.974,130.258 27.86,130.289 27.744,130.3 C27.686,130.305 27.628,130.301 27.57,130.301 C27.13,130.264 26.691,130.226 26.252,130.187 C25.023,130.072 23.795,129.945 22.572,129.773 C21.893,129.678 21.215,129.57 20.544,129.426 C20.118,129.334 19.691,129.23 19.284,129.076 C19.011,128.974 18.74,128.846 18.517,128.656 C18.399,128.554 18.295,128.436 18.216,128.301 C18.152,128.191 18.104,128.072 18.077,127.949 C18.054,127.845 18.043,127.736 18.051,127.63 C18.061,127.508 18.081,127.387 18.126,127.272 C18.16,127.185 18.203,127.102 18.254,127.024 C18.432,126.757 18.704,126.571 18.99,126.434 C19.313,126.281 19.659,126.178 20.004,126.089 C20.509,125.958 21.023,125.86 21.538,125.773 C23.021,125.523 24.52,125.363 26.016,125.222 C27.85,125.051 29.687,124.92 31.525,124.808 C33.758,124.673 35.992,124.568 38.227,124.483 C43.599,124.276 48.975,124.183 54.351,124.151 C55.662,124.146 56.974,124.143 58.285,124.145 L58.285,124.145 Z M31.67,128.585 C31.862,128.59 32.053,128.607 32.245,128.618 C32.432,128.629 32.65,128.633 32.85,128.654 C32.898,128.661 32.945,128.67 32.992,128.682 C33.125,128.719 33.249,128.781 33.358,128.868 C33.433,128.928 33.499,129 33.554,129.079 C33.756,129.372 33.787,129.761 33.632,130.082 C33.581,130.188 33.511,130.284 33.427,130.365 C33.338,130.452 33.233,130.521 33.119,130.569 C32.991,130.623 32.854,130.648 32.716,130.647 C32.52,130.642 32.325,130.626 32.129,130.615 C31.945,130.604 31.728,130.599 31.531,130.577 C31.394,130.559 31.262,130.516 31.142,130.445 C30.836,130.264 30.646,129.923 30.652,129.567 C30.654,129.47 30.669,129.374 30.699,129.282 C30.734,129.171 30.789,129.065 30.861,128.973 C30.937,128.875 31.031,128.791 31.138,128.727 C31.256,128.656 31.388,128.612 31.525,128.593 C31.573,128.587 31.621,128.584 31.67,128.585 L31.67,128.585 Z" id="Shape" fill="#F6F6F6"></path>
                        <path d="M1.5,20.598 L1.5,19.598 C1.5,19.466 1.553,19.338 1.646,19.245 C1.74,19.151 1.867,19.098 2,19.098 C2.133,19.098 2.26,19.151 2.354,19.245 C2.447,19.338 2.5,19.466 2.5,19.598 L2.5,20.598 L3.5,20.598 C3.633,20.598 3.76,20.651 3.854,20.745 C3.947,20.838 4,20.966 4,21.098 C4,21.231 3.947,21.358 3.854,21.452 C3.76,21.546 3.633,21.598 3.5,21.598 L2.5,21.598 L2.5,22.598 C2.5,22.731 2.447,22.858 2.354,22.952 C2.26,23.046 2.133,23.098 2,23.098 C1.867,23.098 1.74,23.046 1.646,22.952 C1.553,22.858 1.5,22.731 1.5,22.598 L1.5,21.598 L0.5,21.598 C0.367,21.598 0.24,21.546 0.146,21.452 C0.053,21.358 2.77555756e-17,21.231 2.77555756e-17,21.098 C2.77555756e-17,20.966 0.053,20.838 0.146,20.745 C0.24,20.651 0.367,20.598 0.5,20.598 L1.5,20.598 L1.5,20.598 Z M5.888,11.643 L7.253,15.333 L10.943,16.698 L7.253,18.064 L5.888,21.754 L4.522,18.064 L0.832,16.698 L4.522,15.333 L5.888,11.643 L5.888,11.643 Z M106.705,12.026 L106.705,11.026 C106.705,10.893 106.757,10.766 106.851,10.672 C106.945,10.578 107.072,10.526 107.205,10.526 C107.337,10.526 107.464,10.578 107.558,10.672 C107.652,10.766 107.705,10.893 107.705,11.026 L107.705,12.026 L108.705,12.026 C108.837,12.026 108.964,12.078 109.058,12.172 C109.152,12.266 109.205,12.393 109.205,12.526 C109.205,12.658 109.152,12.785 109.058,12.879 C108.964,12.973 108.837,13.026 108.705,13.026 L107.705,13.026 L107.705,14.026 C107.705,14.158 107.652,14.285 107.558,14.379 C107.464,14.473 107.337,14.526 107.205,14.526 C107.072,14.526 106.945,14.473 106.851,14.379 C106.757,14.285 106.705,14.158 106.705,14.026 L106.705,13.026 L105.705,13.026 C105.572,13.026 105.445,12.973 105.351,12.879 C105.257,12.785 105.205,12.658 105.205,12.526 C105.205,12.393 105.257,12.266 105.351,12.172 C105.445,12.078 105.572,12.026 105.705,12.026 L106.705,12.026 L106.705,12.026 Z M101.656,2.653 L103.006,6.302 L106.656,7.653 L103.006,9.003 L101.656,12.653 L100.305,9.003 L96.656,7.653 L100.305,6.302 L101.656,2.653 L101.656,2.653 Z M96.375,2.656 L96.375,1.656 C96.375,1.523 96.428,1.396 96.522,1.302 C96.615,1.209 96.743,1.156 96.875,1.156 C97.008,1.156 97.135,1.209 97.229,1.302 C97.322,1.396 97.375,1.523 97.375,1.656 L97.375,2.656 L98.375,2.656 C98.508,2.656 98.635,2.709 98.729,2.802 C98.822,2.896 98.875,3.023 98.875,3.156 C98.875,3.289 98.822,3.416 98.729,3.51 C98.635,3.603 98.508,3.656 98.375,3.656 L97.375,3.656 L97.375,4.656 C97.375,4.789 97.322,4.916 97.229,5.01 C97.135,5.103 97.008,5.156 96.875,5.156 C96.743,5.156 96.615,5.103 96.522,5.01 C96.428,4.916 96.375,4.789 96.375,4.656 L96.375,3.656 L95.375,3.656 C95.243,3.656 95.115,3.603 95.022,3.51 C94.928,3.416 94.875,3.289 94.875,3.156 C94.875,3.023 94.928,2.896 95.022,2.802 C95.115,2.709 95.243,2.656 95.375,2.656 L96.375,2.656 L96.375,2.656 Z" id="Shape" fill="#B8D4F5"></path>
                    </g>
                    <text id="boo!" font-family="Montserrat-Regular, Montserrat" font-size="22" font-weight="normal" fill="#666666">
                        <tspan x="119.46" y="22">boo!</tspan>
                    </text>
                </g>
            </g>
        </g>
    </g>
</svg>