<?xml version="1.0" encoding="utf-8"?>
<!-- Generator: Adobe Illustrator 19.0.0, SVG Export Plug-In . SVG Version: 6.00 Build 0)  -->
<svg version="1.1" id="Layer_1" xmlns="http://www.w3.org/2000/svg" xmlns:xlink="http://www.w3.org/1999/xlink" x="0px" y="0px"
	 viewBox="0 0 88.5 64.1" enable-background="new 0 0 88.5 64.1" xml:space="preserve">
<g>
	<path fill="#7E7F86" d="M49.8,17h12.4c0.4,0,0.8-0.3,0.8-0.8s-0.3-0.8-0.8-0.8H49.8c-0.4,0-0.8,0.3-0.8,0.8S49.4,17,49.8,17z"/>
	<path fill="#7E7F86" d="M49.8,23.9h12.4c0.4,0,0.8-0.3,0.8-0.8s-0.3-0.8-0.8-0.8H49.8c-0.4,0-0.8,0.3-0.8,0.8S49.4,23.9,49.8,23.9z
		"/>
	<path fill="#7E7F86" d="M49.8,30.9h12.4c0.4,0,0.8-0.3,0.8-0.8s-0.3-0.8-0.8-0.8H49.8c-0.4,0-0.8,0.3-0.8,0.8S49.4,30.9,49.8,30.9z
		"/>
	<path fill="#7E7F86" d="M74.5,24.5h-5V7.3c0-0.3-0.1-0.5-0.3-0.7l-3.5-3.5c-0.4-0.4-1-0.4-1.4,0l-2.8,2.8l-2.8-2.8
		c-0.4-0.4-1-0.4-1.4,0l-2.8,2.8l-2.8-2.8c-0.4-0.4-1-0.4-1.4,0l-2.8,2.8l-2.8-2.8c-0.4-0.4-1-0.4-1.4,0l-2.8,2.8l-2.8-2.8
		c-0.4-0.4-1-0.4-1.4,0l-2.8,2.8l-2.8-2.8c-0.4-0.4-1-0.4-1.4,0l-3.5,3.5c-0.2,0.2-0.3,0.4-0.3,0.7v17.2h-5c-0.6,0-1,0.4-1,1v37.6
		c0,0.6,0.4,1,1,1h53.9c0.6,0,1-0.4,1-1V25.5C75.5,25,75,24.5,74.5,24.5z M69.5,26.5H72l-2.5,2V26.5z M27.5,7.7L30,5.2L32.8,8
		c0.4,0.4,1,0.4,1.4,0L37,5.2L39.8,8c0.4,0.4,1,0.4,1.4,0L44,5.2L46.8,8c0.4,0.4,1,0.4,1.4,0L51,5.2L53.8,8c0.4,0.4,1,0.4,1.4,0
		L58,5.2L60.8,8c0.4,0.4,1,0.4,1.4,0L65,5.2l2.5,2.5v22.3l-8,6.3h-24l-8-6.3V7.7z M57.6,37.8l-6.9,5.5l-0.2,0.2l-0.2-0.2L48,41.6
		c-0.3-0.2-0.7-0.2-0.9,0l-2.2,1.7l-0.2,0.2l-0.2-0.2l-6.9-5.5H57.6z M25.5,26.5v2l-2.5-2H25.5z M21.6,27.3l21.8,17.1l-21.8,17V27.3
		z M23.1,62.1l24.2-18.9l0.2-0.2l0.2,0.2L72,62.1H23.1z M73.5,61.4L52.1,44.8l-0.5-0.4l21.9-17.2V61.4z"/>
	<path fill="#7E7F86" d="M38.6,30.6c0,0.6,0.5,1.1,1.1,1.1c0.6,0,1.1-0.5,1.1-1.1v-1.1c2.2-0.2,3.8-1.3,4.3-3
		c0.1-0.4,0.2-0.8,0.2-1.2c0-0.3,0-0.6-0.1-0.8c-0.3-1.9-1.7-3-4.6-3.8v-3.2c0.6,0.1,1.2,0.4,1.8,0.7c0.2,0.1,0.5,0.2,0.7,0.2
		c0.8,0,1.4-0.6,1.4-1.4c0-0.6-0.4-1-0.8-1.3c-0.9-0.5-1.9-0.8-3.1-1v-0.3c0-0.6-0.5-1.1-1.1-1.1c-0.6,0-1.1,0.5-1.1,1.1v0.3
		c-2.7,0.3-4.5,1.8-4.5,4.2c0,2.5,1.5,3.7,4.6,4.5v1.1v2v0.3c-0.3-0.1-0.6-0.2-0.9-0.3c-0.6-0.2-1.2-0.5-1.9-0.9
		c-0.3-0.2-0.6-0.3-0.8-0.3c-0.7,0-1.3,0.5-1.4,1.2c0,0.1,0,0.2,0,0.2c0,0.6,0.3,1,0.7,1.3c1.3,0.8,2.7,1.3,4.2,1.5V30.6z
		 M40.7,26.5v-2v-0.6c0.5,0.2,0.9,0.4,1.1,0.6c0.3,0.3,0.4,0.6,0.4,1c0,0.5-0.2,0.8-0.5,1c-0.2,0.2-0.6,0.3-1,0.4V26.5z M37.3,18.7
		c0-0.7,0.4-1.2,1.5-1.3v2.9C37.6,19.8,37.3,19.3,37.3,18.7z"/>
</g>
<g>
	<path fill="#34D6BF" d="M77.4,9.5c-1,0-1.7,0.8-1.7,1.7s0.8,1.7,1.7,1.7s1.7-0.8,1.7-1.7S78.4,9.5,77.4,9.5z M77.4,11.9
		c-0.4,0-0.7-0.3-0.7-0.7s0.3-0.7,0.7-0.7s0.7,0.3,0.7,0.7S77.8,11.9,77.4,11.9z"/>
	<path fill="#34D6BF" d="M10.7,6.2h-2v-2c0-0.3-0.2-0.5-0.5-0.5S7.7,3.9,7.7,4.2v2h-2c-0.3,0-0.5,0.2-0.5,0.5s0.2,0.5,0.5,0.5h2v2
		c0,0.3,0.2,0.5,0.5,0.5s0.5-0.2,0.5-0.5v-2h2c0.3,0,0.5-0.2,0.5-0.5S11,6.2,10.7,6.2z"/>
	<path fill="#34D6BF" d="M13.3,17.4c-0.7,0-1.3,0.6-1.3,1.3s0.6,1.3,1.3,1.3s1.3-0.6,1.3-1.3S14,17.4,13.3,17.4z M13.3,19
		c-0.2,0-0.3-0.1-0.3-0.3c0-0.2,0.1-0.3,0.3-0.3c0.2,0,0.3,0.1,0.3,0.3C13.6,18.9,13.4,19,13.3,19z"/>
	<path fill="#34D6BF" d="M88,23.4h-1.3v-1.3c0-0.3-0.2-0.5-0.5-0.5s-0.5,0.2-0.5,0.5v1.3h-1.3c-0.3,0-0.5,0.2-0.5,0.5
		s0.2,0.5,0.5,0.5h1.3v1.3c0,0.3,0.2,0.5,0.5,0.5s0.5-0.2,0.5-0.5v-1.3H88c0.3,0,0.5-0.2,0.5-0.5S88.3,23.4,88,23.4z"/>
	<ellipse fill="#34D6BF" cx="1" cy="30.1" rx="1" ry="1"/>
	<ellipse fill="#34D6BF" cx="85.7" cy="1" rx="1" ry="1"/>
</g>
</svg>
