<svg width="16" height="14" viewBox="0 0 16 14" fill="none" xmlns="http://www.w3.org/2000/svg">
<path d="M16 1.65732C15.4113 1.93868 14.7787 2.12817 14.1147 2.21359C14.7927 1.77647 15.3127 1.08382 15.558 0.258395C14.924 0.663215 14.2213 0.957498 13.4733 1.11612C12.8747 0.429223 12.0213 0 11.0773 0C9.26467 0 7.79467 1.58267 7.79467 3.53427C7.79467 3.81133 7.824 4.08121 7.87933 4.33961C5.15133 4.19246 2.73267 2.78493 1.11333 0.646706C0.831333 1.16852 0.669333 1.77575 0.669333 2.42389C0.669333 3.64983 1.24867 4.7315 2.12933 5.36529C1.59133 5.34663 1.08533 5.188 0.642667 4.92315C0.642667 4.93822 0.642667 4.95258 0.642667 4.96765C0.642667 6.68024 1.774 8.10859 3.276 8.43302C3.00067 8.51412 2.71067 8.55719 2.41067 8.55719C2.19933 8.55719 1.99333 8.53494 1.79333 8.49403C2.21133 9.89797 3.42333 10.9201 4.86 10.9488C3.73667 11.8969 2.32133 12.4618 0.783333 12.4618C0.518667 12.4618 0.257333 12.4453 0 12.4123C1.45267 13.415 3.178 14 5.032 14C11.07 14 14.3713 8.61461 14.3713 3.94412C14.3713 3.79123 14.368 3.63835 14.362 3.4869C15.0033 2.98805 15.56 2.36575 16 1.65732Z" fill="#1153D6"/>
</svg>
