<?xml version="1.0" encoding="UTF-8" standalone="no"?>
<svg width="20px" height="20px" viewBox="0 0 20 20" version="1.1" xmlns="http://www.w3.org/2000/svg" xmlns:xlink="http://www.w3.org/1999/xlink">
    <!-- Generator: sketchtool 3.6.1 (26313) - http://www.bohemiancoding.com/sketch -->
    <title>FF101A49-4FE4-4144-BE2D-F6C2F9D23C7A</title>
    <desc>Created with sketchtool.</desc>
    <g id="Page-1" stroke="none" stroke-width="1" fill="none" fill-rule="evenodd">
        <g id="Donation" transform="translate(-552.000000, -980.000000)">
            <g id="::-avatar-options-(paginated)" transform="translate(446.000000, 927.000000)">
                <g id="::-twitter" transform="translate(84.000000, 0.000000)">
                    <g id="badge" transform="translate(22.000000, 53.000000)">
                        <path d="M14.875,6.54237229 L15.625,5 L14.5,5.77118615 L14.2773436,5.87963425 C14.0585936,5.61453911 13.7890624,5.40165966 13.46875,5.24099588 C13.1484376,5.0803321 12.8046876,5 12.4375,5 C12.1015624,5 11.7851564,5.05623243 11.4882812,5.16869728 C11.1914064,5.28116172 10.9335936,5.43780875 10.7148436,5.63863878 C10.4960936,5.83946841 10.3222656,6.08247225 10.1933592,6.36765071 C10.0644532,6.65282877 10,6.96813162 10,7.31355844 C10,7.40192362 10.0058592,7.52442993 10.017578,7.68107696 C10.0292968,7.837724 10.0429688,7.96023031 10.0585936,8.04859549 L10,8.07269475 C10,8.07269475 9.7441408,8.02248745 9.232422,7.92207243 C8.7207032,7.82165782 8.1484376,7.66501038 7.5156248,7.45213092 C6.8828124,7.23925147 6.2871092,6.9621065 5.7285156,6.62069601 C5.169922,6.27928553 4.84375,5.86758441 4.75,5.38559307 C4.75,5.38559307 4.701172,5.49404118 4.6035156,5.71093738 C4.5058592,5.92783359 4.4453124,6.20497856 4.4218752,6.54237229 C4.3984376,6.87976644 4.455078,7.2513013 4.5917968,7.65697729 C4.7285156,8.06265329 5.03125,8.45828782 5.5,8.84388089 C5.5,8.84388089 5.3593752,8.89208023 5.0781248,8.9884785 C4.7968752,9.08487677 4.5625,9.03667743 4.375,8.84388089 C4.375,8.84388089 4.4531248,9.08487677 4.6093752,9.56686811 C4.7656248,10.0488595 5.3125,10.5790497 6.25,11.1574393 C6.25,11.1574393 6.1093752,11.2056387 5.8281248,11.3020369 C5.5468752,11.3984352 5.3125,11.3502359 5.125,11.1574393 C5.125,11.1574393 5.2070312,11.2377714 5.3710936,11.3984352 C5.5351564,11.559099 5.7343752,11.7358289 5.96875,11.9286255 C6.2031248,12.121422 6.4492188,12.296144 6.7070312,12.4527914 C6.9648436,12.6094385 7.1875,12.6877622 7.375,12.6877622 C7.375,12.6877622 7.2343752,12.8805587 6.9531248,13.2661518 C6.6718752,13.6517449 5.6875,13.8445414 4,13.8445414 C4,13.8445414 4.2421876,13.9790972 4.7265624,14.248209 C5.2109376,14.5173209 5.8457032,14.728192 6.6308592,14.8808227 C7.4160156,15.0334534 8.3007812,15.0394781 9.2851564,14.8988972 C10.2695312,14.7583164 11.2578124,14.2783334 12.25,13.4589483 C12.7578124,13.0492556 13.173828,12.6134548 13.4980468,12.1515468 C13.8222656,11.6896384 14.080078,11.2257216 14.2714844,10.7597968 C14.4628908,10.2938717 14.5957032,9.83397162 14.669922,9.38009629 C14.7441408,8.92622136 14.7851564,8.50247041 14.7929688,8.10884425 C14.8164064,8.01244599 14.8359376,7.91403934 14.8515624,7.81362474 C14.8671876,7.71320972 14.875,7.61078674 14.875,7.50635497 L14.875,7.36778249 L14.875,7.31355844 L16,6.15677922 L14.875,6.54237229 Z" id="icon-twitter" fill="#D7D9DB"></path>
                    </g>
                </g>
            </g>
        </g>
    </g>
</svg>