<?xml version="1.0" encoding="UTF-8" standalone="no"?>
<svg width="50px" height="59px" viewBox="0 0 50 59" version="1.1" xmlns="http://www.w3.org/2000/svg" xmlns:xlink="http://www.w3.org/1999/xlink" xmlns:sketch="http://www.bohemiancoding.com/sketch/ns">
    <!-- Generator: Sketch 3.2.2 (9983) - http://www.bohemiancoding.com/sketch -->
    <title>upload-photo</title>
    <desc>Created with Sketch.</desc>
    <defs></defs>
    <g id="Page-1" stroke="none" stroke-width="1" fill="none" fill-rule="evenodd" sketch:type="MSPage">
        <g id="upload-photo" sketch:type="MSLayerGroup" fill="#F2F0F0">
            <path d="M43.5,12.6 L43.5,11.9 C43.5,5.3 38.2,0 31.6,0 C25.9,0 21.1,4 20,9.5 C18.6,8.7 17,8.3 15.4,8.3 C10.3,8.3 6.1,12.5 6.1,17.6 L6.1,18 L7.6,18 L7.6,17.6 C7.6,13.3 11.1,9.8 15.4,9.8 C17.1,9.8 18.7,10.4 20.1,11.4 C20.3,11.6 20.6,11.6 20.9,11.5 C21.1,11.4 21.3,11.2 21.3,10.9 C21.8,5.6 26.3,1.6 31.6,1.6 C37.3,1.5 42,6.2 42,11.9 C42,12.3 42,12.7 41.9,13.1 C41.9,13.5 42.1,13.9 42.5,13.9 C45.5,14.5 47.7,17.1 47.7,20.2 C47.7,24.2 44,27.4 39.8,26.4 C39.5,26.3 39.1,26.5 39,26.8 C38.4,28.1 37.3,29.1 36.1,29.7 L36.1,31.3 C37.7,30.7 39.1,29.5 40.1,27.9 C45,28.7 49.3,24.9 49.3,20.1 C49.2,16.7 46.8,13.6 43.5,12.6 L43.5,12.6 Z" id="Shape" sketch:type="MSShapeGroup"></path>
            <path d="M34.3,58.1 L0.8,58.1 C0.4,58.1 0,57.8 0,57.3 L0,19.7 C0,19.3 0.3,19 0.8,19 L34.4,19 C34.8,19 35.2,19.3 35.2,19.8 L35.2,57.4 C35.1,57.8 34.8,58.1 34.3,58.1 L34.3,58.1 Z M1.5,56.6 L33.6,56.6 L33.6,20.5 L1.5,20.5 L1.5,56.6 L1.5,56.6 Z" id="Shape" sketch:type="MSShapeGroup"></path>
            <path d="M30.3,49.9 L4.8,49.9 C4.4,49.9 4,49.6 4,49.1 L4,23.8 C4,23.4 4.3,23 4.8,23 L30.2,23 C30.6,23 31,23.3 31,23.8 L31,49.2 C31,49.6 30.7,49.9 30.3,49.9 L30.3,49.9 Z M5.6,48.4 L29.5,48.4 L29.5,24.5 L5.6,24.5 L5.6,48.4 L5.6,48.4 Z" id="Shape" sketch:type="MSShapeGroup"></path>
            <path d="M22.8,35.6 C22.5,35.6 22.3,35.5 22.1,35.3 L17.5,30.7 L13,35.3 C12.6,35.7 12,35.7 11.6,35.3 C11.2,34.9 11.2,34.3 11.6,33.9 L16.9,28.6 C17.3,28.2 17.9,28.2 18.3,28.6 L23.6,33.9 C24,34.3 24,34.9 23.6,35.3 C23.3,35.5 23.1,35.6 22.8,35.6 L22.8,35.6 Z" id="Shape" sketch:type="MSShapeGroup"></path>
            <path d="M17.5,44.6 C16.9,44.6 16.5,44.2 16.5,43.6 L16.5,30.6 C16.5,30 16.9,29.6 17.5,29.6 C18.1,29.6 18.5,30 18.5,30.6 L18.5,43.6 C18.5,44.2 18.1,44.6 17.5,44.6 L17.5,44.6 Z" id="Shape" sketch:type="MSShapeGroup"></path>
        </g>
    </g>
</svg>