<?xml version="1.0" encoding="UTF-8" standalone="no"?>
<svg width="32px" height="32px" viewBox="0 0 32 32" version="1.1" xmlns="http://www.w3.org/2000/svg" xmlns:xlink="http://www.w3.org/1999/xlink">
    <!-- Generator: sketchtool 39.1 (31720) - http://www.bohemiancoding.com/sketch -->
    <title>3B54C181-CFF4-45E1-B858-61B4D69FE43B</title>
    <desc>Created with sketchtool.</desc>
    <defs></defs>
    <g id="Page-1" stroke="none" stroke-width="1" fill="none" fill-rule="evenodd">
        <g id="Editable-Version" transform="translate(-1475.000000, -332.000000)">
            <g id="::-all" transform="translate(55.000000, 98.000000)">
                <g id="::-edit-logo" transform="translate(-15.000000, 179.000000)">
                    <g id="::-icon" transform="translate(1436.000000, 56.000000)">
                        <circle id="Oval-179" stroke="#FFFFFF" stroke-width="2" cx="15" cy="15" r="15"></circle>
                        <path d="M18.411757,17.2632386 C18.5730506,17.4261922 18.7847356,17.5074612 18.996627,17.5074612 C19.2076924,17.5074612 19.4189643,17.4266079 19.5800514,17.2644857 C19.9032581,16.9402411 19.9038777,16.4135516 19.581497,16.0884757 L16.0840488,12.5596143 C15.9291574,12.4033118 15.7187116,12.3153916 15.4993853,12.3153916 C15.2798526,12.3153916 15.0694068,12.4033118 14.9145153,12.5596143 L11.4170671,16.0884757 C11.094893,16.4135516 11.095306,16.9402411 11.4185128,17.2644857 C11.7413065,17.5891459 12.2644264,17.5885224 12.5868071,17.2632386 L14.6788739,15.1523235 L14.7030369,22.922345 C14.7044826,23.3808601 15.0741568,23.75 15.5291245,23.75 L15.5318093,23.75 C15.9882227,23.75 16.3568642,23.3764952 16.3554186,22.9171488 L16.3312555,15.1635473 L18.411757,17.2632386 L18.411757,17.2632386 Z M24.9898923,16.581078 C24.8610226,18.3976788 23.4655542,20.3581111 20.7060087,20.3581111 C19.4447795,20.3581111 18.7783334,20.3633074 18.7783334,20.3633074 C18.3221265,20.3597739 17.9549306,20.0051834 17.9584415,19.545837 C17.9619524,19.0887769 18.3312135,18.7616225 18.784529,18.7616225 L18.7909312,18.7616225 C18.7927899,18.7616225 19.4546926,18.7254567 20.7060087,18.7254567 C22.4176621,18.7254567 23.2631628,17.5658668 23.3418476,16.4574078 C23.4225977,15.3186027 22.7117493,14.0550883 20.9414437,13.7990182 C20.7122044,13.7657624 20.5073347,13.6373117 20.3766063,13.4448434 C20.2460845,13.2523752 20.2016823,13.0135566 20.2543453,12.7865855 C20.4804868,11.8119812 20.241541,11.0441868 19.5988449,10.6796195 C19.0612684,10.3749128 18.2011047,10.380109 17.4910824,11.0788976 C17.3047997,11.2622204 17.0439626,11.346815 16.7862232,11.3060766 C16.528897,11.265546 16.3054403,11.1055022 16.1833858,10.8737505 C14.9948524,8.61547046 13.1435901,8.49387875 11.9191218,9.07647968 C10.741534,9.63642505 9.80495726,11.0375356 10.5315013,12.7892875 C10.6211318,13.0056584 10.6159687,13.2507124 10.5170447,13.4631342 C10.4183273,13.6755559 10.2351424,13.8372625 10.0125118,13.9064762 C7.55345561,14.6699058 7.60219478,16.3337376 7.67571657,16.8244692 C7.81284711,17.74046 8.53794546,18.6728709 9.65873976,18.6728709 L12.2340677,18.6967736 C12.6904811,18.6992678 13.0585031,19.0948045 13.0560249,19.554151 C13.0537531,20.0120424 12.6842855,20.424415 12.2299373,20.424415 L12.2256003,20.424415 L9.65460932,20.3682957 C7.84568409,20.3682957 6.32444384,18.95513 6.04171537,17.0670291 C5.82259565,15.6023167 6.42997653,13.6483277 8.741163,12.6092902 C8.20874957,10.3231584 9.49145703,8.39099347 11.2134366,7.57206816 C12.9889052,6.72757741 15.486581,6.96514889 17.1424735,9.27892467 C18.1750829,8.69466095 19.3983121,8.65683242 20.4100628,9.23049583 C21.27477,9.72101962 22.0678141,10.7685789 21.9845857,12.3297332 C24.2026308,12.9985915 25.1076098,14.9236895 24.9898923,16.581078 L24.9898923,16.581078 Z" id="cloud-upload" fill="#FFFFFF"></path>
                    </g>
                </g>
            </g>
        </g>
    </g>
</svg>