<?xml version="1.0" standalone="no"?><!DOCTYPE svg PUBLIC "-//W3C//DTD SVG 1.1//EN" "http://www.w3.org/Graphics/SVG/1.1/DTD/svg11.dtd"><svg width="100%" height="100%" viewBox="0 0 81 81" version="1.1" xmlns="http://www.w3.org/2000/svg" xmlns:xlink="http://www.w3.org/1999/xlink" xml:space="preserve" style="fill-rule:evenodd;clip-rule:evenodd;stroke-linejoin:round;stroke-miterlimit:1.41421;"><circle cx="40.232" cy="40.232" r="38.5" style="fill:#fafafa;stroke-width:2px;stroke:#dadada;"/><g id=":)"><path d="M15.968,40.49c-0.933,0.313 -1.944,-0.182 -2.269,-1.112c-0.221,-0.717 -0.353,-1.479 -0.353,-2.271c0,-3.863 3.137,-7 7,-7c3.863,0 7,3.137 7,7c0,0.933 -0.183,1.823 -0.514,2.637c-0.304,0.718 -1.116,1.075 -1.851,0.812c-1.4,-0.455 -2.972,-0.72 -4.635,-0.72c-1.564,0 -3.048,0.235 -4.378,0.654Z" style="fill:#fff;stroke-width:2px;stroke-linecap:round;stroke:#dadada;"/><path d="M56.065,40.392c-0.573,0.176 -1.193,0.108 -1.714,-0.188c-0.522,-0.295 -0.899,-0.792 -1.043,-1.374c-0.116,-0.555 -0.19,-1.13 -0.19,-1.723c0,-3.863 3.137,-7 7,-7c3.864,0 7,3.137 7,7c0,0.665 -0.093,1.308 -0.266,1.917c-0.15,0.526 -0.506,0.97 -0.988,1.23c-0.482,0.26 -1.049,0.313 -1.571,0.148c-1.283,-0.355 -2.693,-0.566 -4.175,-0.566c-1.438,0 -2.808,0.198 -4.053,0.556Z" style="fill:#fff;stroke-width:2px;stroke-linecap:round;stroke:#dadada;"/><path d="M46.789,50.732c0,2.001 -2.717,3.625 -6.063,3.625c-3.346,0 -6.063,-1.624 -6.063,-3.625" style="fill:none;stroke-width:2px;stroke-linecap:round;stroke:#dadada;"/></g></svg>