<svg width="160" height="160" viewBox="0 0 160 160" fill="none" xmlns="http://www.w3.org/2000/svg">
  <path fill-rule="evenodd" clip-rule="evenodd" d="M112 4C110.895 4 110 3.10455 110 2C110 0.895447 110.895 0 112 0C113.105 0 114 0.895447 114 2C114 3.10455 113.105 4 112 4ZM129 13C129 14.6569 130.343 16 132 16C133.657 16 135 14.6569 135 13C135 11.3431 133.657 10 132 10C130.343 10 129 11.3431 129 13ZM158 23C158 23.5523 158.448 24 159 24C159.552 24 160 23.5523 160 23C160 22.4477 159.552 22 159 22C158.448 22 158 22.4477 158 23ZM105 15.5C105 16.8807 106.119 18 107.5 18C108.881 18 110 16.8807 110 15.5C110 14.1193 108.881 13 107.5 13C106.119 13 105 14.1193 105 15.5ZM106 26C103.791 26 102 24.2092 102 22C102 19.7908 103.791 18 106 18C108.209 18 110 19.7908 110 22C110 24.2092 108.209 26 106 26ZM103 32.5C103 34.9853 105.015 37 107.5 37C109.985 37 112 34.9853 112 32.5C112 30.0147 109.985 28 107.5 28C105.015 28 103 30.0147 103 32.5ZM115.5 41C114.119 41 113 39.8807 113 38.5C113 37.1193 114.119 36 115.5 36C116.881 36 118 37.1193 118 38.5C118 39.8807 116.881 41 115.5 41ZM121 35.5C121 36.3284 121.672 37 122.5 37C123.328 37 124 36.3284 124 35.5C124 34.6716 123.328 34 122.5 34C121.672 34 121 34.6716 121 35.5ZM120 47C118.343 47 117 45.6569 117 44C117 42.3431 118.343 41 120 41C121.657 41 123 42.3431 123 44C123 45.6569 121.657 47 120 47ZM122 50.5C122 52.9853 124.015 55 126.5 55C128.985 55 131 52.9853 131 50.5C131 48.0147 128.985 46 126.5 46C124.015 46 122 48.0147 122 50.5ZM131 75C129.343 75 128 73.6569 128 72C128 70.3431 129.343 69 131 69C132.657 69 134 70.3431 134 72C134 73.6569 132.657 75 131 75ZM138 77C138 78.6569 139.343 80 141 80C142.657 80 144 78.6569 144 77C144 75.3431 142.657 74 141 74C139.343 74 138 75.3431 138 77ZM145.5 84C144.672 84 144 83.3284 144 82.5C144 81.6716 144.672 81 145.5 81C146.328 81 147 81.6716 147 82.5C147 83.3284 146.328 84 145.5 84ZM147 91.5C147 92.3284 147.672 93 148.5 93C149.328 93 150 92.3284 150 91.5C150 90.6716 149.328 90 148.5 90C147.672 90 147 90.6716 147 91.5ZM147 105C145.343 105 144 103.657 144 102C144 100.343 145.343 99 147 99C148.657 99 150 100.343 150 102C150 103.657 148.657 105 147 105ZM137 83.5C137 84.8807 138.119 86 139.5 86C140.881 86 142 84.8807 142 83.5C142 82.1193 140.881 81 139.5 81C138.119 81 137 82.1193 137 83.5ZM131.5 85C129.567 85 128 83.433 128 81.5C128 79.567 129.567 78 131.5 78C133.433 78 135 79.567 135 81.5C135 83.433 133.433 85 131.5 85ZM125 92C125 94.7614 127.239 97 130 97C132.761 97 135 94.7614 135 92C135 89.2386 132.761 87 130 87C127.239 87 125 89.2386 125 92ZM137.5 109C136.119 109 135 107.881 135 106.5C135 105.119 136.119 104 137.5 104C138.881 104 140 105.119 140 106.5C140 107.881 138.881 109 137.5 109ZM134 113C134 114.657 135.343 116 137 116C138.657 116 140 114.657 140 113C140 111.343 138.657 110 137 110C135.343 110 134 111.343 134 113ZM138.5 125C136.567 125 135 123.433 135 121.5C135 119.567 136.567 118 138.5 118C140.433 118 142 119.567 142 121.5C142 123.433 140.433 125 138.5 125ZM126 118C126 119.657 127.343 121 129 121C130.657 121 132 119.657 132 118C132 116.343 130.657 115 129 115C127.343 115 126 116.343 126 118ZM124.5 126C123.672 126 123 125.328 123 124.5C123 123.672 123.672 123 124.5 123C125.328 123 126 123.672 126 124.5C126 125.328 125.328 126 124.5 126ZM96 132C96 133.105 96.8954 134 98 134C99.1046 134 100 133.105 100 132C100 130.895 99.1046 130 98 130C96.8954 130 96 130.895 96 132ZM100 130C98.3431 130 97 128.657 97 127C97 125.343 98.3431 124 100 124C101.657 124 103 125.343 103 127C103 128.657 101.657 130 100 130ZM103 133.5C103 135.433 104.567 137 106.5 137C108.433 137 110 135.433 110 133.5C110 131.567 108.433 130 106.5 130C104.567 130 103 131.567 103 133.5ZM84.5 134C82.567 134 81 132.433 81 130.5C81 128.567 82.567 127 84.5 127C86.433 127 88 128.567 88 130.5C88 132.433 86.433 134 84.5 134ZM60 131.5C60 134.538 62.4625 137 65.5 137C68.5375 137 71 134.538 71 131.5C71 128.462 68.5375 126 65.5 126C62.4625 126 60 128.462 60 131.5ZM43 45C40.2386 45 38 42.7614 38 40C38 37.2386 40.2386 35 43 35C45.7614 35 48 37.2386 48 40C48 42.7614 45.7614 45 43 45ZM20 64.5C20 68.0898 22.9102 71 26.5 71C30.0898 71 33 68.0898 33 64.5C33 60.9102 30.0898 58 26.5 58C22.9102 58 20 60.9102 20 64.5ZM34.5 119C30.9102 119 28 116.09 28 112.5C28 108.91 30.9102 106 34.5 106C38.0898 106 41 108.91 41 112.5C41 116.09 38.0898 119 34.5 119ZM49 125.5C49 127.985 51.0147 130 53.5 130C55.9853 130 58 127.985 58 125.5C58 123.015 55.9853 121 53.5 121C51.0147 121 49 123.015 49 125.5ZM55 137C53.3431 137 52 135.657 52 134C52 132.343 53.3431 131 55 131C56.6569 131 58 132.343 58 134C58 135.657 56.6569 137 55 137ZM52 141.5C52 142.881 53.1193 144 54.5 144C55.8807 144 57 142.881 57 141.5C57 140.119 55.8807 139 54.5 139C53.1193 139 52 140.119 52 141.5ZM47 135C45.3431 135 44 133.657 44 132C44 130.343 45.3431 129 47 129C48.6569 129 50 130.343 50 132C50 133.657 48.6569 135 47 135ZM46 139C46 140.105 46.8954 141 48 141C49.1046 141 50 140.105 50 139C50 137.895 49.1046 137 48 137C46.8954 137 46 137.895 46 139ZM101 143C99.8954 143 99 142.105 99 141C99 139.895 99.8954 139 101 139C102.105 139 103 139.895 103 141C103 142.105 102.105 143 101 143ZM90 129.5C90 130.881 91.1193 132 92.5 132C93.8807 132 95 130.881 95 129.5C95 128.119 93.8807 127 92.5 127C91.1193 127 90 128.119 90 129.5ZM80.5 151C79.6716 151 79 150.328 79 149.5C79 148.672 79.6716 148 80.5 148C81.3284 148 82 148.672 82 149.5C82 150.328 81.3284 151 80.5 151ZM66 158.5C66 159.328 66.6716 160 67.5 160C68.3284 160 69 159.328 69 158.5C69 157.672 68.3284 157 67.5 157C66.6716 157 66 157.672 66 158.5ZM73.5 139C72.6716 139 72 138.328 72 137.5C72 136.672 72.6716 136 73.5 136C74.3284 136 75 136.672 75 137.5C75 138.328 74.3284 139 73.5 139ZM75 129.5C75 130.328 75.6716 131 76.5 131C77.3284 131 78 130.328 78 129.5C78 128.672 77.3284 128 76.5 128C75.6716 128 75 128.672 75 129.5ZM60.5 141C59.6716 141 59 140.328 59 139.5C59 138.672 59.6716 138 60.5 138C61.3284 138 62 138.672 62 139.5C62 140.328 61.3284 141 60.5 141ZM41 138.5C41 139.328 41.6716 140 42.5 140C43.3284 140 44 139.328 44 138.5C44 137.672 43.3284 137 42.5 137C41.6716 137 41 137.672 41 138.5ZM3 113C2.44772 113 2 112.552 2 112C2 111.448 2.44772 111 3 111C3.55228 111 4 111.448 4 112C4 112.552 3.55228 113 3 113ZM4 22C4 22.5523 4.44772 23 5 23C5.55228 23 6 22.5523 6 22C6 21.4477 5.55228 21 5 21C4.44772 21 4 21.4477 4 22ZM35 44C34.4477 44 34 43.5523 34 43C34 42.4477 34.4477 42 35 42C35.5523 42 36 42.4477 36 43C36 43.5523 35.5523 44 35 44ZM8 112.5C8 113.328 8.67157 114 9.5 114C10.3284 114 11 113.328 11 112.5C11 111.672 10.3284 111 9.5 111C8.67157 111 8 111.672 8 112.5ZM21 90C20.4477 90 20 89.5523 20 89C20 88.4477 20.4477 88 21 88C21.5523 88 22 88.4477 22 89C22 89.5523 21.5523 90 21 90ZM11 74.5C11 75.3284 11.6716 76 12.5 76C13.3284 76 14 75.3284 14 74.5C14 73.6716 13.3284 73 12.5 73C11.6716 73 11 73.6716 11 74.5ZM28.5 46C27.6716 46 27 45.3284 27 44.5C27 43.6716 27.6716 43 28.5 43C29.3284 43 30 43.6716 30 44.5C30 45.3284 29.3284 46 28.5 46ZM38 31.5C38 32.3284 38.6716 33 39.5 33C40.3284 33 41 32.3284 41 31.5C41 30.6716 40.3284 30 39.5 30C38.6716 30 38 30.6716 38 31.5ZM43.5 152C42.6716 152 42 151.328 42 150.5C42 149.672 42.6716 149 43.5 149C44.3284 149 45 149.672 45 150.5C45 151.328 44.3284 152 43.5 152ZM105 123.5C105 124.881 106.119 126 107.5 126C108.881 126 110 124.881 110 123.5C110 122.119 108.881 121 107.5 121C106.119 121 105 122.119 105 123.5ZM116.5 125C113.462 125 111 122.538 111 119.5C111 116.462 113.462 114 116.5 114C119.538 114 122 116.462 122 119.5C122 122.538 119.538 125 116.5 125ZM111 142.5C111 143.881 112.119 145 113.5 145C114.881 145 116 143.881 116 142.5C116 141.119 114.881 140 113.5 140C112.119 140 111 141.119 111 142.5ZM147 135C145.343 135 144 133.657 144 132C144 130.343 145.343 129 147 129C148.657 129 150 130.343 150 132C150 133.657 148.657 135 147 135ZM150 125.5C150 126.328 150.672 127 151.5 127C152.328 127 153 126.328 153 125.5C153 124.672 152.328 124 151.5 124C150.672 124 150 124.672 150 125.5ZM127 113C123.134 113 120 109.866 120 106C120 102.134 123.134 99 127 99C130.866 99 134 102.134 134 106C134 109.866 130.866 113 127 113ZM137 89C137 90.1046 137.895 91 139 91C140.105 91 141 90.1046 141 89C141 87.8954 140.105 87 139 87C137.895 87 137 87.8954 137 89ZM93.5 32C89.9102 32 87 29.0898 87 25.5C87 21.9102 89.9102 19 93.5 19C97.0898 19 100 21.9102 100 25.5C100 29.0898 97.0898 32 93.5 32ZM88 14C88 15.6569 89.3431 17 91 17C92.6569 17 94 15.6569 94 14C94 12.3431 92.6569 11 91 11C89.3431 11 88 12.3431 88 14ZM84.5 21C83.6716 21 83 20.3284 83 19.5C83 18.6716 83.6716 18 84.5 18C85.3284 18 86 18.6716 86 19.5C86 20.3284 85.3284 21 84.5 21ZM78 26C78 27.6569 79.3431 29 81 29C82.6569 29 84 27.6569 84 26C84 24.3431 82.6569 23 81 23C79.3431 23 78 24.3431 78 26ZM76.5 23C74.0147 23 72 20.9853 72 18.5C72 16.0147 74.0147 14 76.5 14C78.9853 14 81 16.0147 81 18.5C81 20.9853 78.9853 23 76.5 23ZM49 34.5C49 36.433 50.567 38 52.5 38C54.433 38 56 36.433 56 34.5C56 32.567 54.433 31 52.5 31C50.567 31 49 32.567 49 34.5ZM55.5 28C54.1193 28 53 26.8807 53 25.5C53 24.1193 54.1193 23 55.5 23C56.8807 23 58 24.1193 58 25.5C58 26.8807 56.8807 28 55.5 28ZM43 31C43 32.1046 43.8954 33 45 33C46.1046 33 47 32.1046 47 31C47 29.8954 46.1046 29 45 29C43.8954 29 43 29.8954 43 31ZM34 18C32.8954 18 32 17.1046 32 16C32 14.8954 32.8954 14 34 14C35.1046 14 36 14.8954 36 16C36 17.1046 35.1046 18 34 18ZM28 34C28 35.1046 28.8954 36 30 36C31.1046 36 32 35.1046 32 34C32 32.8954 31.1046 32 30 32C28.8954 32 28 32.8954 28 34ZM34 55C31.7909 55 30 53.2092 30 51C30 48.7908 31.7909 47 34 47C36.2092 47 38 48.7908 38 51C38 53.2092 36.2092 55 34 55ZM21 50C21 51.6569 22.3431 53 24 53C25.6569 53 27 51.6569 27 50C27 48.3431 25.6569 47 24 47C22.3431 47 21 48.3431 21 50ZM17 52C15.3431 52 14 50.6569 14 49C14 47.3431 15.3431 46 17 46C18.6569 46 20 47.3431 20 49C20 50.6569 18.6569 52 17 52ZM12 57C12 59.2092 13.7909 61 16 61C18.2091 61 20 59.2092 20 57C20 54.7908 18.2091 53 16 53C13.7909 53 12 54.7908 12 57ZM13.5 71C11.0147 71 9 68.9853 9 66.5C9 64.0147 11.0147 62 13.5 62C15.9853 62 18 64.0147 18 66.5C18 68.9853 15.9853 71 13.5 71ZM17 82C17 83.6569 18.3431 85 20 85C21.6569 85 23 83.6569 23 82C23 80.3431 21.6569 79 20 79C18.3431 79 17 80.3431 17 82ZM27 80C25.3431 80 24 78.6569 24 77C24 75.3431 25.3431 74 27 74C28.6569 74 30 75.3431 30 77C30 78.6569 28.6569 80 27 80ZM17 73.5C17 74.8807 18.1193 76 19.5 76C20.8807 76 22 74.8807 22 73.5C22 72.1193 20.8807 71 19.5 71C18.1193 71 17 72.1193 17 73.5ZM27.5 90C25.567 90 24 88.433 24 86.5C24 84.567 25.567 83 27.5 83C29.433 83 31 84.567 31 86.5C31 88.433 29.433 90 27.5 90ZM24 99C24 101.761 26.2386 104 29 104C31.7614 104 34 101.761 34 99C34 96.2386 31.7614 94 29 94C26.2386 94 24 96.2386 24 99ZM20.5 103C19.1193 103 18 101.881 18 100.5C18 99.1193 19.1193 98 20.5 98C21.8807 98 23 99.1193 23 100.5C23 101.881 21.8807 103 20.5 103ZM9 108.5C9 109.881 10.1193 111 11.5 111C12.8807 111 14 109.881 14 108.5C14 107.119 12.8807 106 11.5 106C10.1193 106 9 107.119 9 108.5ZM35.5 136C34.1193 136 33 134.881 33 133.5C33 132.119 34.1193 131 35.5 131C36.8807 131 38 132.119 38 133.5C38 134.881 36.8807 136 35.5 136ZM19 107.5C19 109.433 20.567 111 22.5 111C24.433 111 26 109.433 26 107.5C26 105.567 24.433 104 22.5 104C20.567 104 19 105.567 19 107.5ZM8 74C6.89542 74 6 73.1046 6 72C6 70.8954 6.89542 70 8 70C9.10458 70 10 70.8954 10 72C10 73.1046 9.10458 74 8 74ZM0 57C0 58.6569 1.34314 60 3 60C4.65686 60 6 58.6569 6 57C6 55.3431 4.65686 54 3 54C1.34314 54 0 55.3431 0 57ZM71 11C69.3431 11 68 9.65686 68 8C68 6.34314 69.3431 5 71 5C72.6569 5 74 6.34314 74 8C74 9.65686 72.6569 11 71 11ZM69 27.5C69 29.433 70.567 31 72.5 31C74.433 31 76 29.433 76 27.5C76 25.567 74.433 24 72.5 24C70.567 24 69 25.567 69 27.5ZM67.5 23C66.1193 23 65 21.8807 65 20.5C65 19.1193 66.1193 18 67.5 18C68.8807 18 70 19.1193 70 20.5C70 21.8807 68.8807 23 67.5 23ZM67 14.5C67 15.3284 67.6716 16 68.5 16C69.3284 16 70 15.3284 70 14.5C70 13.6716 69.3284 13 68.5 13C67.6716 13 67 13.6716 67 14.5ZM113 27C111.895 27 111 26.1046 111 25C111 23.8954 111.895 23 113 23C114.105 23 115 23.8954 115 25C115 26.1046 114.105 27 113 27ZM126 40C126 41.6569 127.343 43 129 43C130.657 43 132 41.6569 132 40C132 38.3431 130.657 37 129 37C127.343 37 126 38.3431 126 40ZM137 41C135.895 41 135 40.1046 135 39C135 37.8954 135.895 37 137 37C138.105 37 139 37.8954 139 39C139 40.1046 138.105 41 137 41ZM132 46.5C132 48.433 133.567 50 135.5 50C137.433 50 139 48.433 139 46.5C139 44.567 137.433 43 135.5 43C133.567 43 132 44.567 132 46.5ZM144 52C142.343 52 141 50.6569 141 49C141 47.3431 142.343 46 144 46C145.657 46 147 47.3431 147 49C147 50.6569 145.657 52 144 52ZM146 62.5C146 63.8807 147.119 65 148.5 65C149.881 65 151 63.8807 151 62.5C151 61.1193 149.881 60 148.5 60C147.119 60 146 61.1193 146 62.5ZM156.5 73C155.672 73 155 72.3284 155 71.5C155 70.6716 155.672 70 156.5 70C157.328 70 158 70.6716 158 71.5C158 72.3284 157.328 73 156.5 73Z" fill="white" fill-opacity="0.48"/>
  <path fill-rule="evenodd" clip-rule="evenodd" d="M80 120.8C102.533 120.8 120.8 102.533 120.8 80C120.8 57.4668 102.533 39.2 80 39.2C57.4668 39.2 39.2 57.4668 39.2 80C39.2 102.533 57.4668 120.8 80 120.8ZM106.171 62.0878C109.748 67.1712 111.844 73.3438 111.844 80C111.844 86.6562 109.748 92.8295 106.171 97.9122L97.9122 89.7655C99.5341 86.8707 100.457 83.5413 100.457 80C100.457 76.4587 99.5341 73.1299 97.9122 70.2352L106.171 62.0878ZM89.6999 62.0707L97.9122 53.822C92.7883 50.2498 86.5665 48.1561 79.8572 48.1561C62.3493 48.1561 48.1561 62.4133 48.1561 80.0001C48.1561 97.5868 62.3493 111.844 79.8572 111.844C86.5665 111.844 92.7883 109.75 97.9122 106.178L89.6999 97.9294C86.782 99.5493 83.4268 100.471 79.8572 100.471C68.6022 100.471 59.4777 91.3058 59.4777 80.0001C59.4777 68.6943 68.6022 59.5287 79.8572 59.5287C83.4268 59.5287 86.782 60.4507 89.6999 62.0707Z" fill="white"/>
</svg>
