<svg width="16" height="16" viewBox="0 0 16 16" fill="none" xmlns="http://www.w3.org/2000/svg">
<path fill-rule="evenodd" clip-rule="evenodd" d="M4.63635 10.1514L12.5367 2.25104C12.8715 1.91632 13.4142 1.91632 13.749 2.25104C14.0837 2.58582 14.0837 3.12848 13.749 3.46326L5.84851 11.3636H11.1818C11.6337 11.3636 12 11.73 12 12.1818C12 12.6337 11.6337 13 11.1818 13H3.86438C3.85956 13 3.85474 13 3.84991 13H3.81818C3.36633 13 3 12.6337 3 12.1818V12.1428V4.81818C3 4.36633 3.36633 4 3.81818 4C4.27008 4 4.63635 4.36633 4.63635 4.81818V10.1514Z" fill="#00B856"/>
</svg>
