<?xml version="1.0" encoding="UTF-8" standalone="no"?>
<svg
   xmlns:cc="http://creativecommons.org/ns#"
   xmlns:rdf="http://www.w3.org/1999/02/22-rdf-syntax-ns#"
   xmlns:svg="http://www.w3.org/2000/svg"
   xmlns="http://www.w3.org/2000/svg"
   width="14"
   height="14"
   viewBox="0 0 14 14"
   version="1.1"
   id="svg4">
  <defs id="defs8" />
  <path
     d="m 6.9901426,0.04165797 q 1.8935032,0 3.4925634,0.95480162 1.599058,0.95480481 2.53222,2.59094711 0.933162,1.6361419 0.933162,3.5735573 0,2.326753 -1.327264,4.185375 -1.327265,1.858621 -3.4291439,2.572405 -0.2446154,0.04635 -0.3623932,-0.06489 -0.1177778,-0.111241 -0.1177778,-0.278098 0,-0.02782 0.00453,-0.709151 0.00453,-0.681339 0.00453,-1.246803 0,-0.899184 -0.4711106,-1.31633 0.5164099,-0.05563 0.9286321,-0.166864 0.412222,-0.111239 0.8516224,-0.3615285 0.439402,-0.2502879 0.733846,-0.6164493 0.294444,-0.3661613 0.480172,-0.9733432 0.185726,-0.6071815 0.185726,-1.3951244 0,-1.1031224 -0.715727,-1.9096066 Q 11.04894,4.0369974 10.64125,2.9894956 10.387578,2.9060662 9.9074062,3.0914659 9.4272357,3.276863 9.0739024,3.4993419 L 8.7296287,3.7218211 Q 7.8870654,3.4808038 6.9901427,3.4808038 q -0.8969225,0 -1.7394861,0.2410173 Q 5.1056995,3.6198506 4.8656142,3.471533 4.6255288,3.3232129 4.1091183,3.1146396 3.5927088,2.9060662 3.3390334,2.9894956 2.9313416,4.0369974 3.2665551,4.8805608 2.5508288,5.6870449 2.5508288,6.7901673 q 0,0.787943 0.1857269,1.3904897 0.1857261,0.6025462 0.4756402,0.9733428 0.2899148,0.3707965 0.7293161,0.6210844 0.4394014,0.2502908 0.8516232,0.3615278 0.4122224,0.111239 0.9286322,0.166861 -0.353333,0.333717 -0.4439312,0.9548 -0.1902563,0.09271 -0.407692,0.13905 -0.2174357,0.04635 -0.5164104,0.04635 -0.298974,0 -0.5934179,-0.199303 Q 3.4658711,11.045065 3.2574953,10.664998 3.085359,10.36836 2.8180938,10.182962 2.5508288,9.9975633 2.3696326,9.9604841 L 2.1884364,9.9326752 q -0.1902569,0 -0.2627352,0.041714 -0.072478,0.041714 -0.0453,0.1066028 0.027179,0.06488 0.081538,0.129779 0.054358,0.06489 0.1177778,0.111241 l 0.063419,0.04635 q 0.1993159,0.09271 0.3941019,0.352258 0.1947868,0.259558 0.2853849,0.472767 l 0.090599,0.213208 q 0.1177777,0.352256 0.3986326,0.5701 0.2808542,0.217844 0.6070077,0.278099 0.3261536,0.06026 0.6296582,0.06487 0.303504,0.0047 0.5028199,-0.03244 l 0.2083761,-0.03709 q 0,0.352254 0.00453,0.820387 0.00453,0.468132 0.00453,0.505211 0,0.166858 -0.1177778,0.278099 -0.1177779,0.111241 -0.3623934,0.06489 Q 2.6867249,13.204953 1.3594608,11.346332 0.03219676,9.4877105 0.03219676,7.1609575 q 0,-1.9374153 0.93316211,-3.5735572 Q 1.8985216,1.9512644 3.4975807,0.99645959 5.0966398,0.04165797 6.9901426,0.04165797 Z M 2.6686065,10.266392 q 0.027179,-0.06488 -0.063419,-0.111242 -0.090599,-0.02782 -0.1177776,0.01853 -0.027179,0.06489 0.063418,0.11124 0.081539,0.05562 0.1177778,-0.01853 z m 0.2808549,0.315178 q 0.063419,-0.04635 -0.01812,-0.148318 -0.090599,-0.08344 -0.1449574,-0.02782 -0.063418,0.04635 0.01812,0.148318 0.090599,0.09271 0.1449574,0.02782 z m 0.2717943,0.417145 q 0.081539,-0.06489 0,-0.176126 -0.072478,-0.120516 -0.1540165,-0.05562 -0.081538,0.04635 0,0.166857 0.081537,0.120516 0.1540165,0.06489 z m 0.3805129,0.389338 q 0.072477,-0.07417 -0.03624,-0.17613 -0.1087179,-0.111241 -0.1811962,-0.02782 -0.081538,0.07416 0.03624,0.176128 0.1087179,0.111241 0.1811962,0.02782 z m 0.5164097,0.231749 q 0.027179,-0.101967 -0.1177777,-0.14832 -0.1358967,-0.03709 -0.1721365,0.06489 -0.03624,0.101966 0.1177778,0.139049 0.1358976,0.05562 0.1721364,-0.05562 z m 0.5707689,0.04635 q 0,-0.120518 -0.1540165,-0.101969 -0.1449573,0 -0.1449573,0.101969 0,0.120516 0.1540173,0.101966 0.1449565,0 0.1449565,-0.101966 z m 0.5254701,-0.09271 q -0.01812,-0.101967 -0.163077,-0.08344 -0.1449572,0.02782 -0.1268375,0.139051 0.01812,0.111241 0.163077,0.07416 0.1449572,-0.03709 0.1268375,-0.129778 z"
     id="path2"
     style="fill:#ffffff;stroke-width:0.00916427" />
</svg>
