<svg width="264" height="104" viewBox="0 0 264 104" fill="none" 
  xmlns="http://www.w3.org/2000/svg">
  <path d="M264 16C264 7.16344 256.837 0 248 0H16C7.16345 0 0 7.16344 0 16V104H264V16Z" fill="#F7F8FA"/>
  <path d="M132 53.4092C133.684 53.4092 135.33 52.9099 136.73 51.9743C138.131 51.0388 139.222 49.709 139.866 48.1532C140.511 46.5975 140.679 44.8855 140.351 43.2339C140.022 41.5823 139.211 40.0651 138.021 38.8744C136.83 37.6836 135.313 36.8727 133.661 36.5442C132.01 36.2157 130.298 36.3843 128.742 37.0288C127.186 37.6732 125.856 38.7645 124.921 40.1647C123.985 41.5649 123.486 43.2111 123.486 44.895C123.488 47.1524 124.386 49.3165 125.982 50.9127C127.579 52.5088 129.743 53.4067 132 53.4092ZM132 38.0683C133.35 38.0682 134.67 38.4686 135.793 39.2187C136.915 39.9688 137.79 41.035 138.307 42.2825C138.824 43.5299 138.959 44.9025 138.696 46.2268C138.432 47.5511 137.782 48.7675 136.827 49.7223C135.873 50.677 134.656 51.3272 133.332 51.5906C132.008 51.8541 130.635 51.7189 129.388 51.2022C128.14 50.6855 127.074 49.8105 126.324 48.6878C125.574 47.5652 125.173 46.2453 125.173 44.895C125.175 43.0851 125.895 41.3499 127.175 40.07C128.455 38.7902 130.19 38.0703 132 38.0683Z" fill="#DCDEE0"/>
  <path d="M127.085 45.9531C127.085 46.1769 127.174 46.3915 127.332 46.5497C127.49 46.708 127.705 46.7969 127.929 46.7969H128.82C129.19 47.5192 129.752 48.125 130.446 48.547C131.139 48.969 131.935 49.1907 132.747 49.1875H134.065C134.289 49.1875 134.503 49.0986 134.662 48.9404C134.82 48.7821 134.909 48.5675 134.909 48.3438C134.909 48.12 134.82 47.9054 134.662 47.7471C134.503 47.5889 134.289 47.5 134.065 47.5H132.747C132.055 47.4997 131.386 47.25 130.864 46.7969H133.135C133.359 46.7969 133.574 46.708 133.732 46.5497C133.89 46.3915 133.979 46.1769 133.979 45.9531C133.979 45.7293 133.89 45.5147 133.732 45.3565C133.574 45.1983 133.359 45.1094 133.135 45.1094H130.084C130.079 44.9688 130.074 44.9688 130.074 44.8984C130.073 44.828 130.076 44.7575 130.084 44.6875H133.135C133.359 44.6875 133.574 44.5986 133.732 44.4404C133.89 44.2821 133.979 44.0675 133.979 43.8438C133.979 43.62 133.89 43.4054 133.732 43.2471C133.574 43.0889 133.359 43 133.135 43H130.864C131.347 42.5781 132.013 42.1563 132.747 42.1563H134.065C134.289 42.1563 134.503 42.0674 134.662 41.9091C134.82 41.7509 134.909 41.5363 134.909 41.3125C134.909 41.0887 134.82 40.8741 134.662 40.7159C134.503 40.5576 134.289 40.4688 134.065 40.4688H132.747C131.021 40.4688 129.526 41.5938 128.82 43H127.929C127.705 43 127.49 43.0889 127.332 43.2471C127.174 43.4054 127.085 43.62 127.085 43.8438C127.085 44.0675 127.174 44.2821 127.332 44.4404C127.49 44.5986 127.705 44.6875 127.929 44.6875H128.392C128.389 44.6875 128.387 44.8291 128.387 44.8984C128.387 44.9678 128.389 44.9688 128.392 45.1094H127.929C127.705 45.1094 127.49 45.1983 127.332 45.3565C127.174 45.5147 127.085 45.7293 127.085 45.9531Z" fill="#DCDEE0"/>
  <path d="M116.98 57.9661C116.982 58.4671 117.182 58.9468 117.537 59.3003C117.892 59.6539 118.372 59.8524 118.873 59.8525C119.645 59.8547 120.409 59.7038 121.122 59.4084C121.835 59.113 122.482 58.679 123.026 58.1317L123.036 58.1184C123.279 57.8727 123.569 57.6776 123.888 57.5446C124.207 57.4116 124.549 57.3433 124.895 57.3437H138.908C139.235 57.3434 139.559 57.4081 139.861 57.534C140.163 57.66 140.438 57.8447 140.668 58.0774L140.719 58.1409C141.261 58.6896 141.906 59.1254 142.618 59.4231C143.33 59.7207 144.093 59.8743 144.865 59.875H144.867C145.368 59.8739 145.849 59.6749 146.204 59.3214C146.56 58.9679 146.762 58.4883 146.765 57.987C146.768 57.0365 146.542 56.0993 146.104 55.2553C147.729 53.2102 148.849 50.8118 149.375 48.2538C149.902 45.6957 149.819 43.0498 149.134 40.5296C148.517 38.2424 147.439 36.1058 145.965 34.2513C144.491 32.3968 142.653 30.8638 140.564 29.7468C140.989 29.4233 141.281 28.9918 141.281 28.4232V27.0059C141.281 26.9943 141.312 26.9831 141.312 26.9717C141.312 26.9642 141.33 26.9576 141.33 26.95C141.33 25.9287 139.995 25.6114 139.422 25.4759C139.044 25.3867 138.6 25.3056 138.1 25.2331C138.506 24.7915 138.851 24.2968 139.125 23.7625L140.997 20.1029C141.079 19.9424 141.107 19.7599 141.078 19.5821C141.049 19.4043 140.963 19.2405 140.834 19.1148C140.705 18.989 140.539 18.9079 140.361 18.8833C140.182 18.8586 140 18.8918 139.842 18.9779C138.958 19.4602 137.784 18.9216 136.955 18.3848C136.091 17.8173 135.102 17.4675 134.074 17.3653C133.045 17.2632 132.007 17.4117 131.048 17.7983C129.561 18.4103 128.808 19.3545 128.5 19.839C125.978 20.9348 124.578 19.3767 124.42 19.1858C124.292 19.0286 124.112 18.9227 123.912 18.8873C123.713 18.852 123.507 18.8896 123.333 18.9933C123.159 19.097 123.028 19.2599 122.964 19.4522C122.9 19.6445 122.908 19.8533 122.985 20.0406L124.329 23.2849C124.632 24.0168 125.064 24.6883 125.604 25.2672C123.749 25.5519 122.665 26.0175 122.665 26.9506C122.665 26.958 122.693 26.9647 122.693 26.9722C122.693 26.9836 122.718 26.9949 122.718 27.0064V28.4232C122.718 28.9511 122.979 29.3838 123.454 29.739C121.374 30.8503 119.543 32.374 118.072 34.217C116.601 36.06 115.522 38.1836 114.9 40.4579C114.21 42.9447 114.11 45.558 114.606 48.0905C115.102 50.623 116.181 53.0052 117.757 55.0482C117.248 55.9363 116.98 56.9423 116.98 57.9661ZM139.594 28.385C139.451 28.4985 139.108 28.7084 138.342 28.938C138.334 28.9403 138.327 28.942 138.319 28.9444C136.772 29.4053 134.474 29.6697 132.005 29.6697C129.133 29.6697 127.03 29.3348 125.752 28.9677C125.698 28.9451 125.641 28.9283 125.583 28.9175C124.973 28.7299 124.575 28.5378 124.399 28.3805C124.885 28.5009 125.378 28.5953 125.875 28.6633C127.519 28.9037 129.696 29.0361 132.005 29.0361C134.315 29.0361 136.491 28.9037 138.136 28.6633C138.626 28.596 139.113 28.5031 139.594 28.385ZM127.623 26.7326C128.247 27.0233 128.913 27.214 129.597 27.2978C128.338 27.2521 127.083 27.1356 125.838 26.9489C126.313 26.8724 126.904 26.7976 127.623 26.7326ZM133.903 27.3175C134.668 27.2449 135.414 27.0389 136.107 26.7086C136.958 26.7789 137.637 26.8633 138.169 26.9495C136.756 27.1587 135.331 27.2816 133.903 27.3175ZM136.038 19.8014C136.987 20.4152 137.892 20.762 138.727 20.8379L137.625 22.9938C137.175 23.878 136.466 24.604 135.592 25.0751C135.558 25.0904 135.525 25.108 135.493 25.1278C135.117 25.3192 134.719 25.461 134.307 25.5497L135.258 20.5506C135.287 20.3998 135.274 20.244 135.221 20.1C135.167 19.956 135.076 19.8292 134.956 19.7334C134.46 19.381 133.896 19.1382 133.299 19.021C134.27 18.9992 135.225 19.2712 136.038 19.8014ZM129.365 21.2989C129.423 21.2797 129.478 21.2543 129.531 21.2232C131.505 20.2851 132.852 20.5921 133.487 20.853L132.568 25.7031H130.411C129.44 25.7008 128.492 25.4104 127.687 24.8688C126.882 24.3271 126.256 23.5585 125.888 22.6605L125.517 21.7525C126.479 22.0114 127.792 22.0352 129.365 21.2989ZM116.514 40.9034C117.786 36.2558 121.128 32.4378 125.481 30.6357C128.011 31.3257 131.417 31.3572 132.006 31.3572C133.315 31.3602 134.622 31.2836 135.921 31.1279C135.31 32.1698 134.871 33.3042 134.623 34.4867C134.6 34.5951 134.599 34.707 134.619 34.8159C134.64 34.9248 134.681 35.0287 134.742 35.1216C134.802 35.2144 134.88 35.2945 134.972 35.3571C135.063 35.4197 135.166 35.4638 135.275 35.4867C135.383 35.5096 135.495 35.5109 135.604 35.4906C135.713 35.4702 135.817 35.4286 135.909 35.3682C136.002 35.3077 136.082 35.2295 136.145 35.1381C136.208 35.0467 136.252 34.9439 136.274 34.8354C136.532 33.6117 137.029 32.4511 137.737 31.4205L137.795 31.5049L137.805 31.5208C138.841 33.2945 139.595 35.2182 140.041 37.2233C140.093 37.439 140.228 37.6255 140.416 37.7425C140.605 37.8595 140.832 37.8975 141.048 37.8482C141.265 37.799 141.453 37.6665 141.572 37.4795C141.692 37.2924 141.732 37.0659 141.686 36.8489C141.233 34.8274 140.492 32.8814 139.487 31.0703C141.444 32.0623 143.17 33.4564 144.551 35.1614C145.933 36.8665 146.939 38.844 147.503 40.9646C148.124 43.2488 148.194 45.6475 147.708 47.9642C147.223 50.2808 146.195 52.4494 144.71 54.2922L144.707 54.2963C144.522 54.5261 144.41 54.8055 144.384 55.0992C144.359 55.3928 144.421 55.6874 144.563 55.9458C144.903 56.5703 145.08 57.2707 145.078 57.982C145.076 58.0369 145.053 58.0889 145.014 58.1271C144.974 58.1654 144.922 58.187 144.867 58.1875C144.317 58.1865 143.773 58.0767 143.267 57.8643C142.76 57.6519 142.3 57.3411 141.914 56.95L141.864 56.8908C141.477 56.4996 141.017 56.1891 140.509 55.9771C140.002 55.7652 139.457 55.6561 138.908 55.6562H124.895C124.325 55.6557 123.761 55.7686 123.235 55.9883C122.709 56.208 122.232 56.5301 121.832 56.9359C121.445 57.3262 120.984 57.6356 120.476 57.8464C119.968 58.0571 119.423 58.1649 118.873 58.1636C118.846 58.1643 118.82 58.1596 118.795 58.1498C118.77 58.1401 118.747 58.1254 118.728 58.1068C118.709 58.0881 118.693 58.0658 118.683 58.0412C118.673 58.0166 118.667 57.9901 118.667 57.9633C118.665 57.189 118.879 56.4294 119.284 55.7696C119.435 55.5231 119.507 55.2365 119.491 54.948C119.475 54.6595 119.371 54.3828 119.193 54.1549C117.737 52.312 116.735 50.1517 116.27 47.8494C115.804 45.547 115.888 43.1674 116.514 40.9034Z" fill="#DCDEE0"/>
  <path d="M154.923 62.3241L154.672 62.4591C153.417 60.9781 151.277 60.4125 149.643 61.2408C149.636 61.244 149.63 61.2472 149.624 61.2506L148.951 61.6131C148.086 60.8881 147.02 60.4451 145.896 60.3436C144.772 60.2421 143.644 60.4869 142.663 61.0452L138.815 63.1094H133.69C132.589 63.1177 131.501 62.8779 130.506 62.408L129.799 62.0799C127.771 61.0948 125.511 60.69 123.267 60.9103C121.024 61.1307 118.885 61.9675 117.088 63.3282C117.07 63.3423 117.052 63.3603 117.034 63.3756L115.326 64.8983C114.708 65.4483 113.979 65.861 113.19 66.1089L112.241 62.9998C112.188 62.8274 112.081 62.6765 111.935 62.5696C111.79 62.4627 111.614 62.4054 111.434 62.4063H103.172C103.053 62.4055 102.935 62.4301 102.826 62.4785C102.717 62.5269 102.62 62.598 102.54 62.687C102.461 62.776 102.402 62.8809 102.366 62.9947C102.331 63.1084 102.32 63.2285 102.334 63.3468L105.088 85.961C105.112 86.1689 105.21 86.3614 105.363 86.5033C105.517 86.6453 105.717 86.7273 105.926 86.7344H118.318C118.452 86.7269 118.583 86.6893 118.7 86.6244C118.817 86.5594 118.919 86.4689 118.996 86.3594C119.074 86.2499 119.126 86.1244 119.148 85.9921C119.17 85.8598 119.163 85.7242 119.125 85.5953L117.513 80.2994L122.533 77.1213C123.195 76.7555 123.97 76.6547 124.703 76.8392C124.721 76.8437 124.738 76.8463 124.756 76.8497L135.07 78.7482C137.888 79.2523 140.795 78.8419 143.363 77.577C143.399 77.5593 143.434 77.539 143.467 77.5163L161.306 65.2678C161.483 65.1461 161.607 64.9613 161.653 64.7511C161.698 64.541 161.662 64.3213 161.551 64.1371C160.892 63.0395 159.835 62.2385 158.601 61.9007C157.366 61.563 156.048 61.7147 154.923 62.3241ZM150.414 62.7417C151.292 62.3026 152.39 62.6396 153.124 63.2946L146.452 66.8938L146.132 67.0625C145.926 66.505 145.638 65.9816 145.277 65.5096L150.414 62.7417ZM143.479 62.5504C143.485 62.5469 143.493 62.5431 143.499 62.5393C144.073 62.2074 144.725 62.0303 145.388 62.0253C146.052 62.0204 146.706 62.1878 147.285 62.5112L144.006 64.278C143.405 63.8463 142.729 63.5311 142.013 63.3485L143.479 62.5504ZM106.674 85.0469L104.125 64.0938H110.809L117.179 85.0469H106.674ZM142.563 76.0903C140.332 77.1746 137.815 77.5238 135.374 77.0875L125.087 75.1934C123.938 74.9102 122.723 75.075 121.691 75.6543C121.678 75.6617 121.665 75.6695 121.652 75.6776L117.003 78.6167L113.682 67.725C114.705 67.4058 115.648 66.8724 116.448 66.1603L118.13 64.663C119.68 63.499 121.52 62.785 123.449 62.5998C125.378 62.4145 127.321 62.7651 129.064 63.613L129.771 63.927C130.996 64.5074 132.335 64.8047 133.69 64.7969H140.551C141.528 64.8041 142.474 65.1449 143.232 65.763C143.989 66.3811 144.512 67.2393 144.716 68.1955L139.838 67.9891C138.025 67.9098 136.209 67.996 134.412 68.2467C134.302 68.2619 134.196 68.2986 134.1 68.3548C134.004 68.411 133.921 68.4855 133.853 68.5741C133.718 68.753 133.659 68.9784 133.69 69.2008C133.705 69.3109 133.742 69.4169 133.798 69.5128C133.854 69.6087 133.928 69.6926 134.017 69.7597C134.196 69.8953 134.421 69.9542 134.644 69.9235C136.339 69.6897 138.052 69.6109 139.762 69.688L145.614 69.9532C145.627 69.9532 145.639 69.9543 145.652 69.9543C145.876 69.9543 146.091 69.8654 146.249 69.7072C146.407 69.549 146.496 69.3343 146.496 69.1106C146.496 69.0007 146.492 68.8918 146.487 68.7833L147.246 68.3827L155.724 63.8091C156.347 63.4715 157.063 63.3447 157.765 63.4476C158.467 63.5506 159.116 63.8777 159.616 64.3802L142.563 76.0903Z" fill="#DCDEE0"/>
  <path d="M108.977 81.8732C108.977 82.3669 109.123 82.8495 109.397 83.26C109.672 83.6705 110.061 83.9904 110.517 84.1793C110.974 84.3682 111.475 84.4177 111.96 84.3214C112.444 84.225 112.889 83.9873 113.238 83.6382C113.587 83.2891 113.824 82.8444 113.921 82.3602C114.017 81.876 113.968 81.3741 113.779 80.918C113.59 80.4619 113.27 80.0721 112.859 79.7978C112.449 79.5235 111.966 79.3771 111.473 79.3771C110.811 79.3779 110.176 79.6411 109.708 80.109C109.241 80.577 108.977 81.2115 108.977 81.8732ZM111.473 81.0646C111.633 81.0646 111.789 81.1121 111.922 81.2009C112.055 81.2898 112.158 81.416 112.22 81.5638C112.281 81.7115 112.297 81.8741 112.266 82.031C112.235 82.1878 112.158 82.3319 112.044 82.445C111.931 82.5581 111.787 82.6351 111.63 82.6663C111.474 82.6975 111.311 82.6815 111.163 82.6203C111.015 82.5591 110.889 82.4554 110.8 82.3225C110.711 82.1895 110.664 82.0332 110.664 81.8732C110.664 81.6588 110.75 81.4533 110.901 81.3017C111.053 81.1501 111.258 81.0649 111.473 81.0646Z" fill="#DCDEE0"/>
</svg>
