<svg width="264" height="264" viewBox="0 0 264 264" fill="none" xmlns="http://www.w3.org/2000/svg">
<path d="M200.932 137.387V126.612C200.944 126.243 200.955 125.872 200.955 125.5C200.955 125.262 200.937 125.028 200.932 124.793V123.375H200.888C199.514 93.9862 169.832 70.5 133.398 70.5C96.9614 70.5 67.2775 93.9871 65.9053 123.375H65.8951L65.8934 123.764C65.8731 124.342 65.8409 124.919 65.8409 125.5C65.8409 126.111 65.857 126.72 65.8841 127.326L65.8502 137.957C65.8494 138.138 65.8409 138.32 65.8409 138.499C65.8409 138.588 65.8494 138.681 65.8494 138.768L65.8409 141.488L65.9426 141.486C67.8475 170.474 97.318 193.5 133.398 193.5C170.123 193.5 199.984 169.635 200.91 139.915H200.931V139.208C200.937 138.969 200.954 138.735 200.954 138.498C200.957 138.127 200.944 137.757 200.932 137.387Z" fill="#197FF9"/>
<path d="M133.398 180.455C170.708 180.455 200.955 155.84 200.955 125.477C200.955 95.1142 170.708 70.5 133.398 70.5C96.0871 70.5 65.8409 95.1142 65.8409 125.477C65.8409 155.84 96.0871 180.455 133.398 180.455Z" fill="url(#paint0_linear)"/>
<path d="M133.398 173C165.562 173 191.636 151.723 191.636 125.477C191.636 99.2312 165.562 77.9546 133.398 77.9546C101.233 77.9546 75.1591 99.2312 75.1591 125.477C75.1591 151.723 101.233 173 133.398 173Z" fill="url(#paint1_linear)"/>
<path d="M134.795 70.5H131.068V193.5H134.795V70.5Z" fill="#0063C6"/>
<path d="M127.05 130.611C128.614 131.039 129.946 131.508 131.068 132V117.334C128.032 115.893 126.514 114.531 126.514 113.424C126.514 111.165 128.035 110.049 131.068 109.75V91.9321H125.978V99.4579C116.326 101.606 111.5 106.44 111.5 115.033C111.5 118.795 113.11 122.017 115.79 124.704C118.469 126.855 122.223 129.003 127.05 130.611Z" fill="#005889"/>
<path d="M131.068 159.955V140.337C130.354 140.413 129.552 140.451 128.658 140.451C125.978 140.451 123.299 139.907 120.612 139.367C118.471 138.828 116.326 137.741 114.185 136.659L111.5 148.574C115.253 150.747 120.08 152.37 125.977 152.37V159.955H131.068Z" fill="#005889"/>
<path d="M134.795 91.9321V110.157C135.378 110.099 136.011 110.067 136.703 110.067C139.426 110.067 142.146 110.62 144.872 111.169C145.959 111.716 146.506 111.716 147.593 112.269L149.775 113.364L152.5 101.827C150.861 101.275 148.685 100.726 147.056 100.177C144.873 99.6305 142.15 99.0781 139.428 99.0781V91.933L134.795 91.9321Z" fill="#005889"/>
<path d="M139.891 120.007C137.877 119.341 136.179 118.672 134.795 118.023V132.565C137.901 133.917 139.354 135.484 139.354 137.049C139.354 139.219 137.932 140.329 134.795 140.665V159.955H138.815V151.431C149.003 149.301 154.364 143.975 154.364 135.453C154.365 128.53 149.541 123.204 139.891 120.007Z" fill="#005889"/>
<path d="M134.795 181.387H131.068V193.5H134.795V181.387Z" fill="#003960"/>
<path d="M134.795 173H131.068V181.386H134.795V173Z" fill="#005889"/>
<path d="M134.795 70.5H131.068V77.9545H134.795V70.5Z" fill="#005889"/>
<path d="M127.05 128.748C128.614 129.175 129.946 129.644 131.068 130.137V115.469C128.032 114.029 126.514 112.666 126.514 111.56C126.514 109.301 128.035 108.185 131.068 107.885V90.0684H125.978V97.594C116.326 99.7414 111.5 104.576 111.5 113.169C111.5 116.931 113.11 120.153 115.79 122.84C118.469 124.99 122.223 127.139 127.05 128.748Z" fill="white"/>
<path d="M131.068 158.091V138.473C130.354 138.55 129.552 138.588 128.658 138.588C125.978 138.588 123.299 138.042 120.612 137.502C118.471 136.963 116.326 135.875 114.185 134.795L111.5 146.708C115.253 148.881 120.08 150.507 125.977 150.507V158.091H131.068Z" fill="white"/>
<path d="M134.795 90.0684V107.501C135.378 107.445 136.011 107.415 136.703 107.415C139.426 107.415 142.146 107.945 144.872 108.469C145.959 108.992 146.506 108.992 147.593 109.52L149.775 110.568L152.5 99.5324C150.861 99.004 148.685 98.4797 147.056 97.9538C144.873 97.4312 142.15 96.902 139.428 96.902V90.0684H134.795Z" fill="white"/>
<path d="M139.891 117.257C137.877 116.574 136.179 115.892 134.795 115.228V130.094C137.901 131.476 139.354 133.079 139.354 134.679C139.354 136.895 137.932 138.028 134.795 138.374V158.091H138.815V149.38C149.003 147.201 154.364 141.758 154.364 133.046C154.365 125.969 149.541 120.525 139.891 117.257Z" fill="white"/>
<path d="M116.37 163.356C107.917 165.984 99.4679 168.622 91.012 171.241C90.5476 171.386 90.0349 171.366 89.5442 171.424C89.512 171.272 89.4789 171.121 89.4466 170.967C89.9347 170.753 90.4161 170.515 90.9144 170.329C94.4322 169.03 97.9535 167.737 101.473 166.444C107.339 164.288 113.218 162.165 119.066 159.962C122.697 158.598 123.718 155.21 121.56 152.009C120.033 149.747 117.911 149.238 114.618 150.371C105.36 153.554 96.1037 156.746 86.8439 159.927C86.3269 160.105 85.7929 160.241 85.2675 160.395C85.1826 160.225 85.1019 160.057 85.0187 159.884C85.5748 159.592 86.1121 159.258 86.6919 159.019C90.7836 157.333 94.8923 155.685 98.9832 153.993C102.397 152.582 105.851 151.241 109.178 149.646C111.788 148.392 112.585 146.299 111.809 143.859C110.926 141.093 109.013 139.713 106.153 140.065C104.729 140.238 103.323 140.723 101.963 141.225C92.6249 144.65 83.3108 148.144 73.9635 151.54C72.4643 152.088 70.8387 152.474 69.2563 152.532C68.3871 152.562 67.1774 151.962 66.7054 151.259C66.5254 150.989 66.5636 150.467 66.7122 149.95C65.9643 147.122 65.4558 144.22 65.2605 141.247L65.1587 141.25L65.1672 138.512C65.1672 138.424 65.1587 138.33 65.1587 138.241C65.1587 138.061 65.1672 137.878 65.168 137.695L65.1748 135.728C64.9286 135.926 64.6757 136.121 64.4422 136.335C59.8819 140.507 55.5474 144.956 50.7621 148.85C45.409 153.208 41.1203 158.341 39.375 164.921C37.8936 170.512 33.7722 182.204 51.5058 198.614C51.5058 198.614 55.4498 202.817 65.3684 201.697C71.5433 201.001 77.2403 198.65 82.9508 196.375C87.3965 194.603 91.7972 192.697 96.304 191.092C101.552 189.22 106.895 187.621 112.186 185.883C115.05 184.942 116.027 183.027 115.145 180.194C114.418 177.847 112.319 176.96 109.573 177.768C103.931 179.433 98.2786 181.071 92.6291 182.708C92.2786 182.809 91.9033 182.824 91.5383 182.877C91.4891 182.743 91.4407 182.607 91.3906 182.473C91.81 182.26 92.2115 181.998 92.6512 181.848C96.9874 180.37 101.335 178.91 105.674 177.437C110.111 175.932 114.556 174.441 118.982 172.9C123.053 171.482 123.117 168.17 121.948 165.308C121.067 163.161 118.991 162.539 116.37 163.356Z" fill="#3385FF"/>
<path d="M116.37 163.356C107.917 165.984 99.4679 168.622 91.012 171.241C90.5476 171.386 90.0349 171.366 89.5442 171.424C89.512 171.272 89.4789 171.121 89.4466 170.967C89.9347 170.753 90.4161 170.515 90.9144 170.329C94.4322 169.03 97.9535 167.737 101.473 166.444C107.339 164.288 113.218 162.165 119.066 159.962C122.697 158.598 123.718 155.21 121.56 152.009C120.033 149.747 117.911 149.238 114.618 150.371C105.36 153.554 96.1037 156.746 86.8439 159.927C86.3269 160.105 85.7929 160.241 85.2675 160.395C85.1826 160.225 85.1019 160.057 85.0187 159.884C85.5748 159.592 86.1121 159.258 86.6919 159.019C90.7836 157.333 94.8923 155.685 98.9832 153.993C102.397 152.582 105.851 151.241 109.178 149.646C111.788 148.392 112.585 146.299 111.809 143.859C110.926 141.093 109.013 139.713 106.153 140.065C104.729 140.238 103.323 140.723 101.963 141.225C92.6249 144.65 83.3108 148.144 73.9635 151.54C72.4643 152.088 70.8387 152.474 69.2563 152.532C68.3871 152.562 67.1774 151.962 66.7054 151.259C66.5254 150.989 66.5636 150.467 66.7122 149.95C65.9643 147.122 65.4558 144.22 65.2605 141.247L65.1587 141.25L65.1672 138.512C65.1672 138.424 65.1587 138.33 65.1587 138.241C65.1587 138.061 65.1672 137.878 65.168 137.695L65.1748 135.728C64.9286 135.926 64.6757 136.121 64.4422 136.335C59.8819 140.507 55.5474 144.956 50.7621 148.85C45.409 153.208 41.1203 158.341 39.375 164.921C37.8936 170.512 33.7722 182.204 51.5058 198.614C51.5058 198.614 55.4498 202.817 65.3684 201.697C71.5433 201.001 77.2403 198.65 82.9508 196.375C87.3965 194.603 91.7972 192.697 96.304 191.092C101.552 189.22 106.895 187.621 112.186 185.883C115.05 184.942 116.027 183.027 115.145 180.194C114.418 177.847 112.319 176.96 109.573 177.768C103.931 179.433 98.2786 181.071 92.6291 182.708C92.2786 182.809 91.9033 182.824 91.5383 182.877C91.4891 182.743 91.4407 182.607 91.3906 182.473C91.81 182.26 92.2115 181.998 92.6512 181.848C96.9874 180.37 101.335 178.91 105.674 177.437C110.111 175.932 114.556 174.441 118.982 172.9C123.053 171.482 123.117 168.17 121.948 165.308C121.067 163.161 118.991 162.539 116.37 163.356Z" fill="url(#paint2_linear)"/>
<path d="M226.109 105.472C226.373 81.4478 214.934 76.4248 209.807 73.6742C203.77 70.4352 197.028 70.0194 190.122 70.905C183.948 71.6988 177.68 71.7848 171.453 72.2234C170.31 72.3044 169.157 72.4942 168.048 72.786C165.883 73.3562 164.558 74.775 164.246 76.6543C168.337 78.3809 172.186 80.4297 175.739 82.7645C176.703 82.7324 177.666 82.7046 178.622 82.7814C179.429 82.8455 180.697 83.4798 180.83 84.0634C181.022 84.885 180.624 86.1688 179.996 86.7727C178.857 87.8769 177.445 88.7861 176.006 89.4964C167.031 93.9213 158.009 98.256 149.021 102.653C147.713 103.293 146.379 103.977 145.264 104.887C143.023 106.709 142.707 109.035 144.125 111.562C145.373 113.793 147.464 114.65 150.195 113.619C153.675 112.309 157.047 110.733 160.454 109.233C164.532 107.439 168.589 105.598 172.663 103.795C173.24 103.541 173.859 103.383 174.458 103.18C174.526 103.356 174.593 103.532 174.66 103.707C174.179 103.982 173.713 104.274 173.223 104.526C164.466 109.034 155.706 113.534 146.949 118.041C143.836 119.643 142.74 121.523 143.339 124.17C144.187 127.918 147.383 129.498 150.9 127.812C156.574 125.095 162.204 122.302 167.856 119.541C171.247 117.884 174.632 116.226 178.027 114.576C178.509 114.342 179.019 114.159 179.514 113.952C179.603 114.079 179.693 114.209 179.78 114.336C179.4 114.651 179.055 115.034 178.631 115.269C170.843 119.584 163.05 123.88 155.259 128.185C152.841 129.521 151.857 131.44 152.826 133.546C154.115 136.346 156.589 138.567 160.451 136.597C164.652 134.455 168.825 132.265 173.008 130.09C177.097 127.964 181.181 125.824 185.273 123.707C185.688 123.491 186.161 123.382 186.607 123.222C186.671 123.351 186.735 123.479 186.801 123.606C186.509 123.832 186.239 124.095 185.924 124.278C180.803 127.237 175.682 130.196 170.548 133.133C168.051 134.561 167.247 136.683 168.461 138.813C169.927 141.387 172.011 141.988 174.688 140.567C179.634 137.934 184.513 135.17 189.523 132.662C193.827 130.507 198.277 128.635 202.661 126.634C208.29 124.071 213.964 121.563 218.758 117.581C226.457 111.193 226.109 105.472 226.109 105.472Z" fill="#3385FF"/>
<path d="M226.109 105.47C226.37 81.4476 214.932 76.4256 209.805 73.6742C203.768 70.4352 197.028 70.0194 190.121 70.905C183.946 71.6987 177.68 71.7839 171.452 72.2234C170.31 72.3044 169.156 72.4941 168.048 72.786C165.882 73.3562 164.557 74.7757 164.246 76.655C168.336 78.3807 172.185 80.4295 175.736 82.7642C176.702 82.7305 177.665 82.7044 178.621 82.7803C179.428 82.8452 180.696 83.4795 180.831 84.0615C181.021 84.8847 180.622 86.1668 179.995 86.7724C178.856 87.8757 177.444 88.7858 176.006 89.4934C167.031 93.9191 158.011 98.2537 149.021 102.652C147.713 103.293 146.38 103.976 145.264 104.885C143.023 106.709 142.708 109.032 144.125 111.561C145.375 113.79 147.464 114.647 150.194 113.618C153.674 112.308 157.05 110.731 160.453 109.231C164.532 107.437 168.59 105.597 172.662 103.794C173.24 103.54 173.858 103.381 174.458 103.179C174.525 103.354 174.594 103.53 174.659 103.706C174.181 103.981 173.712 104.274 173.222 104.526C164.466 109.033 155.707 113.532 146.951 118.04C143.836 119.642 142.74 121.523 143.339 124.17C144.187 127.918 147.382 129.498 150.9 127.811C156.573 125.095 162.204 122.301 167.857 119.54C171.246 117.884 174.633 116.224 178.027 114.576C178.51 114.341 179.017 114.158 179.513 113.952C179.602 114.079 179.691 114.207 179.779 114.336C179.399 114.65 179.056 115.032 178.629 115.269C170.844 119.583 163.05 123.879 155.26 128.183C152.843 129.519 151.858 131.44 152.825 133.545C154.114 136.344 156.591 138.564 160.452 136.595C164.652 134.455 168.827 132.262 173.008 130.09C177.098 127.964 181.181 125.823 185.275 123.705C185.689 123.491 186.16 123.382 186.606 123.223C186.671 123.351 186.735 123.479 186.801 123.605C186.51 123.831 186.239 124.093 185.922 124.278C180.801 127.237 175.682 130.197 170.549 133.13C168.05 134.561 167.248 136.683 168.46 138.813C169.928 141.385 172.011 141.989 174.688 140.567C179.633 137.935 184.512 135.171 189.521 132.663C193.827 130.506 198.275 128.636 202.66 126.635C208.288 124.072 213.962 121.564 218.756 117.582C226.456 111.192 226.109 105.47 226.109 105.47Z" fill="url(#paint3_linear)"/>
<path d="M77.0228 85.4092L67.2523 51.8638L61.7703 58.7968L55.3086 53.8264L40.6819 72.3246L47.141 77.2959L41.6591 84.229L77.0228 85.4092Z" fill="url(#paint4_linear)"/>
<path d="M188.841 177.802L197.421 212.136L203.257 204.752L209.612 209.645L225.182 189.941L218.826 185.044L224.661 177.659L188.841 177.802Z" fill="url(#paint5_linear)"/>
<defs>
<linearGradient id="paint0_linear" x1="65.8413" y1="125.478" x2="200.954" y2="125.478" gradientUnits="userSpaceOnUse">
<stop stop-color="#99D3F5"/>
<stop offset="0.5225" stop-color="#3385FF"/>
<stop offset="0.9925" stop-color="#3385FF"/>
</linearGradient>
<linearGradient id="paint1_linear" x1="191.636" y1="125.478" x2="75.1587" y2="125.478" gradientUnits="userSpaceOnUse">
<stop stop-color="#99D3F5"/>
<stop offset="0.5225" stop-color="#3385FF"/>
<stop offset="0.9925" stop-color="#3385FF"/>
</linearGradient>
<linearGradient id="paint2_linear" x1="99.198" y1="144.074" x2="45.8545" y2="213.921" gradientUnits="userSpaceOnUse">
<stop offset="0.0932" stop-color="white" stop-opacity="0.9068"/>
<stop offset="1" stop-color="white" stop-opacity="0"/>
</linearGradient>
<linearGradient id="paint3_linear" x1="199.54" y1="125.802" x2="141.786" y2="51.2627" gradientUnits="userSpaceOnUse">
<stop offset="0.0932" stop-color="white" stop-opacity="0.9068"/>
<stop offset="1" stop-color="white" stop-opacity="0"/>
</linearGradient>
<linearGradient id="paint4_linear" x1="77.7259" y1="85.6781" x2="43.8007" y2="59.2451" gradientUnits="userSpaceOnUse">
<stop stop-color="#99D3F5"/>
<stop offset="0.7183" stop-color="#3385FF"/>
<stop offset="0.9925" stop-color="#3385FF"/>
</linearGradient>
<linearGradient id="paint5_linear" x1="188.113" y1="177.528" x2="221.494" y2="203.546" gradientUnits="userSpaceOnUse">
<stop stop-color="#99D3F5"/>
<stop offset="0.7183" stop-color="#3385FF"/>
<stop offset="0.9925" stop-color="#3385FF"/>
</linearGradient>
</defs>
</svg>
