<svg width="296" height="264" viewBox="0 0 296 264" fill="none" xmlns="http://www.w3.org/2000/svg">
<g opacity="0.4" filter="url(#filter0_d)">
<rect x="32" y="95" width="232" height="130" rx="8" fill="white"/>
</g>
<g opacity="0.64" filter="url(#filter1_d)">
<rect x="21" y="67" width="254" height="142" rx="8" fill="white"/>
</g>
<g filter="url(#filter2_d)">
<rect x="16" y="41" width="264" height="148" rx="8" fill="white"/>
</g>
<mask id="mask0" mask-type="alpha" maskUnits="userSpaceOnUse" x="16" y="41" width="264" height="148">
<rect x="16" y="41" width="264" height="148" rx="8" fill="white"/>
</mask>
<g mask="url(#mask0)">
<path d="M16 48.9825C16 44.5642 19.5817 41 24 41H272C276.418 41 280 44.5555 280 48.9738C280 65.161 280 102.282 280 125.241C126.22 110.566 178.36 178.409 16 166.403C16 134.84 16 71.3123 16 48.9825Z" fill="url(#paint0_linear)"/>
<path opacity="0.4" d="M16 164.292C140.41 166.356 116.65 91.3406 280 122.655C280 123.343 280 123.687 280 125.063C126.22 109.923 178.36 178.744 16 166.356C16 126.44 16 166.012 16 164.292Z" fill="white" fill-opacity="0.48"/>
<path opacity="0.24" d="M16 125.571C113.35 125.571 164.17 162.356 280 147.23C280 143.104 280 165.107 280 167.857C273.07 167.857 45.7 167.857 16 167.857C16 127.978 16 127.29 16 125.571Z" fill="white" fill-opacity="0.48"/>
</g>
<path d="M242.784 151.273V157.051C242.784 158.415 241.693 159.165 240.449 159.165C239.205 159.165 238.114 158.415 238.114 157.051V151.273H237.057V157.051C237.057 159.011 238.608 160.153 240.449 160.153C242.29 160.153 243.841 159.011 243.841 157.051V151.273H242.784ZM250.49 153.523H251.513C251.427 152.142 250.251 151.153 248.564 151.153C246.893 151.153 245.581 152.125 245.581 153.591C245.581 154.767 246.433 155.466 247.797 155.858L248.871 156.165C250.047 156.506 250.609 156.83 250.609 157.614C250.609 158.568 249.689 159.199 248.479 159.199C247.439 159.199 246.518 158.739 246.433 157.75H245.342C245.445 159.182 246.604 160.153 248.479 160.153C250.49 160.153 251.632 159.045 251.632 157.614C251.632 156.403 250.831 155.67 249.177 155.227L248.291 154.989C247.132 154.682 246.604 154.256 246.604 153.557C246.604 152.705 247.371 152.091 248.53 152.091C249.587 152.091 250.337 152.585 250.49 153.523ZM255.862 160C258.521 160 260.021 158.347 260.021 155.619C260.021 152.909 258.521 151.273 255.981 151.273H253.169V160H255.862ZM255.913 152.21C257.958 152.21 258.998 153.506 258.998 155.619C258.998 157.75 257.958 159.062 255.794 159.062H254.225V152.21H255.913Z" fill="#9D9FA3"/>
<path d="M183.579 170.182H185.198L185.224 168.222C188.539 167.915 190.662 166.023 190.662 163.134C190.662 160.432 188.821 158.991 185.539 157.918L185.352 157.858L185.412 153.264C186.596 153.545 187.269 154.338 187.38 155.506H190.585C190.534 152.693 188.497 150.733 185.446 150.366L185.471 148.364H183.852L183.826 150.324C180.494 150.511 178.065 152.429 178.065 155.207C178.065 157.722 180.076 159.307 182.914 160.159L183.698 160.389L183.639 165.392C182.054 165.213 180.954 164.31 180.86 162.716H177.571C177.63 166.202 180.323 168.026 183.605 168.247L183.579 170.182ZM181.346 155.207C181.346 154.125 182.318 153.341 183.792 153.188L183.741 157.321C182.258 156.776 181.346 156.205 181.346 155.207ZM187.406 163.159C187.406 164.173 186.647 165.051 185.258 165.332L185.318 160.943C186.801 161.557 187.406 162.205 187.406 163.159ZM200.122 150.545H197.148C197.079 150.707 196.483 153.366 193.415 153.366V156.068C195.307 156.068 196.551 155.531 196.909 154.909H197.045V168H200.122V150.545ZM216.722 157.909C216.722 152.966 214.268 150.307 210.646 150.307C207.015 150.307 204.552 152.966 204.552 157.909V160.415C204.552 165.562 206.998 168.239 210.654 168.239C214.276 168.239 216.722 165.562 216.722 160.415V157.909ZM213.424 160.884C213.424 163.901 212.359 165.435 210.654 165.435C208.924 165.435 207.85 163.901 207.85 160.884V157.449C207.85 154.602 208.916 153.085 210.646 153.085C212.367 153.085 213.424 154.602 213.424 157.449V160.884ZM231.03 157.909C231.03 152.966 228.576 150.307 224.954 150.307C221.323 150.307 218.86 152.966 218.86 157.909V160.415C218.86 165.562 221.306 168.239 224.962 168.239C228.584 168.239 231.03 165.562 231.03 160.415V157.909ZM227.732 160.884C227.732 163.901 226.667 165.435 224.962 165.435C223.232 165.435 222.158 163.901 222.158 160.884V157.449C222.158 154.602 223.223 153.085 224.954 153.085C226.675 153.085 227.732 154.602 227.732 157.449V160.884Z" fill="#313233"/>
<path d="M35.4853 80.1579H34.4768L37.1046 84.4335V87.4307H37.9853V84.4335L40.6131 80.1579H39.6046L37.5876 83.5528H37.5023L35.4853 80.1579ZM43.1031 87.5443C44.5804 87.5443 45.5747 86.4221 45.5747 84.7318C45.5747 83.0273 44.5804 81.9051 43.1031 81.9051C41.6259 81.9051 40.6315 83.0273 40.6315 84.7318C40.6315 86.4221 41.6259 87.5443 43.1031 87.5443ZM43.1031 86.7915C41.981 86.7915 41.4696 85.8256 41.4696 84.7318C41.4696 83.6381 41.981 82.6579 43.1031 82.6579C44.2253 82.6579 44.7367 83.6381 44.7367 84.7318C44.7367 85.8256 44.2253 86.7915 43.1031 86.7915ZM50.0329 85.2716C50.0329 86.2943 49.2517 86.692 48.6267 86.692C47.9307 86.692 47.4335 86.2375 47.4335 85.442V81.9761H46.5954V85.442C46.5954 86.8767 47.5613 87.5017 48.3568 87.5017C49.1807 87.5017 49.7062 87.0756 49.9761 86.6636H50.0329V87.4307H50.871V81.9761H50.0329V85.2716ZM59.1793 83.6096C59.0372 82.5869 58.1707 81.9051 57.0202 81.9051C55.5429 81.9051 54.5628 83.0699 54.5628 84.7034C54.5628 86.3795 55.5145 87.5443 57.0344 87.5443C58.2418 87.5443 59.0372 86.8057 59.1793 85.8398H58.3412C58.1849 86.4363 57.6878 86.7915 57.0344 86.7915C56.0401 86.7915 55.4009 85.9676 55.4009 84.7034C55.4009 83.4676 56.0543 82.6579 57.0344 82.6579C57.773 82.6579 58.2134 83.1125 58.3412 83.6096H59.1793ZM63.4715 87.4307H64.3095V83.8369C64.3095 82.104 62.9885 81.9051 62.2925 81.9051C61.4686 81.9051 60.5311 82.1892 60.105 83.1835L60.9004 83.4676C61.0851 83.0699 61.5254 82.6437 62.3351 82.6437C62.9885 82.6437 63.4715 82.9278 63.4715 83.8369V83.8511C63.4715 84.2062 62.818 84.1778 62.0652 84.2773C61.0425 84.4051 59.9487 84.6466 59.9487 85.8824C59.9487 86.9477 60.7726 87.5585 61.8095 87.5585C62.7612 87.5585 63.2584 87.0471 63.4288 86.692H63.4715V87.4307ZM63.4715 85.4562C63.4715 86.1381 62.9317 86.8057 61.9374 86.8057C61.2697 86.8057 60.7868 86.5074 60.7868 85.925C60.7868 85.2858 61.3692 85.0869 62.0226 85.0017C62.3777 84.9591 63.3294 84.8596 63.4715 84.6892V85.4562ZM66.4772 84.2062C66.4772 83.1835 67.2585 82.7148 67.8835 82.7148C68.5795 82.7148 69.0767 83.2261 69.0767 84.0216V87.4307H69.9147V83.9648C69.9147 82.5727 69.1761 81.9051 68.1534 81.9051C67.3295 81.9051 66.7897 82.3454 66.5341 82.8994H66.4772V81.9761H65.6392V87.4307H66.4772V84.2062ZM74.7003 84.2062C74.7003 83.1835 75.4815 82.7148 76.1065 82.7148C76.8026 82.7148 77.2997 83.2261 77.2997 84.0216V87.4307H78.1378V83.9648C78.1378 82.5727 77.3992 81.9051 76.3764 81.9051C75.5526 81.9051 75.0128 82.3454 74.7571 82.8994H74.7003V81.9761H73.8622V87.4307H74.7003V84.2062ZM81.6594 87.5443C83.1367 87.5443 84.131 86.4221 84.131 84.7318C84.131 83.0273 83.1367 81.9051 81.6594 81.9051C80.1821 81.9051 79.1878 83.0273 79.1878 84.7318C79.1878 86.4221 80.1821 87.5443 81.6594 87.5443ZM81.6594 86.7915C80.5372 86.7915 80.0259 85.8256 80.0259 84.7318C80.0259 83.6381 80.5372 82.6579 81.6594 82.6579C82.7815 82.6579 83.2929 83.6381 83.2929 84.7318C83.2929 85.8256 82.7815 86.7915 81.6594 86.7915ZM92.032 81.9761H91.1513L89.9723 86.1381H89.9155L88.765 81.9761H87.8701L86.7053 86.1523H86.6485L85.4695 81.9761H84.5888L86.2508 87.4307H87.0746L88.2678 83.2403H88.353L89.5462 87.4307H90.3701L92.032 81.9761ZM99.3167 83.1977C99.0326 82.4023 98.4218 81.9051 97.4133 81.9051C96.2627 81.9051 95.4104 82.5585 95.4104 83.4818C95.4104 84.1494 95.8508 84.746 96.8451 85.0017L97.7542 85.229C98.2939 85.3568 98.5354 85.5983 98.5354 85.9534C98.5354 86.4079 98.0809 86.8199 97.2996 86.8199C96.49 86.8199 96.1064 86.3795 95.9076 85.8824L95.1405 86.1665C95.4104 86.8483 96.007 87.5443 97.3138 87.5443C98.6633 87.5443 99.3877 86.7631 99.3877 85.925C99.3877 85.3 98.9758 84.7318 97.9814 84.4903L97.1718 84.2915C96.5468 84.1352 96.2485 83.8085 96.2485 83.4392C96.2485 82.9704 96.7456 82.6153 97.4133 82.6153C98.2513 82.6153 98.4644 83.1693 98.5638 83.4108L99.3167 83.1977ZM103.976 85.2716C103.976 86.2943 103.194 86.692 102.569 86.692C101.873 86.692 101.376 86.2375 101.376 85.442V81.9761H100.538V85.442C100.538 86.8767 101.504 87.5017 102.299 87.5017C103.123 87.5017 103.649 87.0756 103.919 86.6636H103.976V87.4307H104.814V81.9761H103.976V85.2716ZM106.149 89.4761H106.987V86.5926H107.058C107.242 86.8909 107.597 87.5443 108.649 87.5443C110.012 87.5443 110.964 86.4506 110.964 84.7176C110.964 82.9988 110.012 81.9051 108.634 81.9051C107.569 81.9051 107.242 82.5585 107.058 82.8426H106.958V81.9761H106.149V89.4761ZM110.126 84.7034C110.126 85.8682 109.586 86.7915 108.535 86.7915C107.526 86.7915 106.972 85.9392 106.972 84.7034C106.972 83.4818 107.512 82.6579 108.535 82.6579C109.6 82.6579 110.126 83.5528 110.126 84.7034ZM112.042 89.4761H112.88V86.5926H112.951C113.136 86.8909 113.491 87.5443 114.542 87.5443C115.906 87.5443 116.858 86.4506 116.858 84.7176C116.858 82.9988 115.906 81.9051 114.528 81.9051C113.463 81.9051 113.136 82.5585 112.951 82.8426H112.852V81.9761H112.042V89.4761ZM116.02 84.7034C116.02 85.8682 115.48 86.7915 114.429 86.7915C113.42 86.7915 112.866 85.9392 112.866 84.7034C112.866 83.4818 113.406 82.6579 114.429 82.6579C115.494 82.6579 116.02 83.5528 116.02 84.7034ZM120.152 87.5443C121.629 87.5443 122.624 86.4221 122.624 84.7318C122.624 83.0273 121.629 81.9051 120.152 81.9051C118.675 81.9051 117.68 83.0273 117.68 84.7318C117.68 86.4221 118.675 87.5443 120.152 87.5443ZM120.152 86.7915C119.03 86.7915 118.518 85.8256 118.518 84.7318C118.518 83.6381 119.03 82.6579 120.152 82.6579C121.274 82.6579 121.785 83.6381 121.785 84.7318C121.785 85.8256 121.274 86.7915 120.152 86.7915ZM126.714 82.0898C126.544 81.9903 126.274 81.8909 125.99 81.8909C125.351 81.8909 124.754 82.3881 124.598 82.9136H124.541V81.9761H123.703V87.4307H124.541V84.3483C124.555 83.6096 125.066 82.7574 125.961 82.7574C126.203 82.7574 126.345 82.8284 126.43 82.871L126.714 82.0898ZM129.999 81.9761H128.834V80.8113H127.996V81.9761H127.172V82.7574H127.996V86.0954C127.996 87.0471 128.763 87.5017 129.473 87.5017C129.786 87.5017 129.985 87.4449 130.098 87.4023L129.928 86.6494C129.857 86.6636 129.743 86.692 129.558 86.692C129.189 86.692 128.834 86.5784 128.834 85.8682V82.7574H129.999V81.9761ZM135.895 87.5443C137.372 87.5443 138.367 86.4221 138.367 84.7318C138.367 83.0273 137.372 81.9051 135.895 81.9051C134.418 81.9051 133.423 83.0273 133.423 84.7318C133.423 86.4221 134.418 87.5443 135.895 87.5443ZM135.895 86.7915C134.773 86.7915 134.261 85.8256 134.261 84.7318C134.261 83.6381 134.773 82.6579 135.895 82.6579C137.017 82.6579 137.528 83.6381 137.528 84.7318C137.528 85.8256 137.017 86.7915 135.895 86.7915ZM139.329 89.4761H140.167V86.5926H140.238C140.422 86.8909 140.777 87.5443 141.829 87.5443C143.192 87.5443 144.144 86.4506 144.144 84.7176C144.144 82.9988 143.192 81.9051 141.814 81.9051C140.749 81.9051 140.422 82.5585 140.238 82.8426H140.138V81.9761H139.329V89.4761ZM143.306 84.7034C143.306 85.8682 142.766 86.7915 141.715 86.7915C140.706 86.7915 140.152 85.9392 140.152 84.7034C140.152 83.4818 140.692 82.6579 141.715 82.6579C142.78 82.6579 143.306 83.5528 143.306 84.7034ZM147.509 87.5443C148.617 87.5443 149.427 86.9903 149.683 86.1665L148.873 85.9392C148.66 86.5074 148.177 86.7915 147.509 86.7915C146.522 86.7915 145.901 86.1665 145.815 84.9875H149.768V84.6324C149.768 82.6011 148.56 81.9051 147.424 81.9051C145.947 81.9051 144.967 83.0699 144.967 84.746C144.967 86.4221 145.933 87.5443 147.509 87.5443ZM147.424 82.6579C148.333 82.6579 148.916 83.3398 148.916 84.2631H145.833C145.968 83.2403 146.586 82.6579 147.424 82.6579ZM151.7 84.2062C151.7 83.1835 152.482 82.7148 153.107 82.7148C153.803 82.7148 154.3 83.2261 154.3 84.0216V87.4307H155.138V83.9648C155.138 82.5727 154.399 81.9051 153.376 81.9051C152.553 81.9051 152.013 82.3454 151.757 82.8994H151.7V81.9761H150.862V87.4307H151.7V84.2062ZM163.446 83.6096C163.304 82.5869 162.438 81.9051 161.287 81.9051C159.81 81.9051 158.83 83.0699 158.83 84.7034C158.83 86.3795 159.781 87.5443 161.301 87.5443C162.509 87.5443 163.304 86.8057 163.446 85.8398H162.608C162.452 86.4363 161.955 86.7915 161.301 86.7915C160.307 86.7915 159.668 85.9676 159.668 84.7034C159.668 83.4676 160.321 82.6579 161.301 82.6579C162.04 82.6579 162.48 83.1125 162.608 83.6096H163.446ZM166.697 87.5443C168.174 87.5443 169.168 86.4221 169.168 84.7318C169.168 83.0273 168.174 81.9051 166.697 81.9051C165.22 81.9051 164.225 83.0273 164.225 84.7318C164.225 86.4221 165.22 87.5443 166.697 87.5443ZM166.697 86.7915C165.575 86.7915 165.063 85.8256 165.063 84.7318C165.063 83.6381 165.575 82.6579 166.697 82.6579C167.819 82.6579 168.33 83.6381 168.33 84.7318C168.33 85.8256 167.819 86.7915 166.697 86.7915ZM171.086 80.1579H170.248V87.4307H171.086V80.1579ZM173.142 80.1579H172.304V87.4307H173.142V80.1579ZM176.764 87.5443C177.872 87.5443 178.681 86.9903 178.937 86.1665L178.127 85.9392C177.914 86.5074 177.431 86.7915 176.764 86.7915C175.776 86.7915 175.155 86.1665 175.07 84.9875H179.022V84.6324C179.022 82.6011 177.815 81.9051 176.678 81.9051C175.201 81.9051 174.221 83.0699 174.221 84.746C174.221 86.4221 175.187 87.5443 176.764 87.5443ZM176.678 82.6579C177.587 82.6579 178.17 83.3398 178.17 84.2631H175.087C175.222 83.2403 175.84 82.6579 176.678 82.6579ZM184.477 83.6096C184.335 82.5869 183.469 81.9051 182.318 81.9051C180.841 81.9051 179.861 83.0699 179.861 84.7034C179.861 86.3795 180.813 87.5443 182.332 87.5443C183.54 87.5443 184.335 86.8057 184.477 85.8398H183.639C183.483 86.4363 182.986 86.7915 182.332 86.7915C181.338 86.7915 180.699 85.9676 180.699 84.7034C180.699 83.4676 181.352 82.6579 182.332 82.6579C183.071 82.6579 183.511 83.1125 183.639 83.6096H184.477ZM187.868 81.9761H186.703V80.8113H185.865V81.9761H185.041V82.7574H185.865V86.0954C185.865 87.0471 186.632 87.5017 187.342 87.5017C187.654 87.5017 187.853 87.4449 187.967 87.4023L187.796 86.6494C187.725 86.6636 187.612 86.692 187.427 86.692C187.058 86.692 186.703 86.5784 186.703 85.8682V82.7574H187.868V81.9761ZM189.347 81.1949C189.717 81.1949 189.944 80.9392 189.944 80.6267C189.944 80.3426 189.717 80.0585 189.347 80.0585C188.978 80.0585 188.751 80.3426 188.751 80.6267C188.751 80.9392 188.978 81.1949 189.347 81.1949ZM189.773 81.9761H188.935V87.4307H189.773V81.9761ZM195.569 81.9761H194.659L193.154 86.3227H193.097L191.591 81.9761H190.682L192.699 87.4307H193.552L195.569 81.9761ZM198.576 87.5443C199.684 87.5443 200.494 86.9903 200.749 86.1665L199.94 85.9392C199.727 86.5074 199.244 86.7915 198.576 86.7915C197.589 86.7915 196.967 86.1665 196.882 84.9875H200.835V84.6324C200.835 82.6011 199.627 81.9051 198.491 81.9051C197.014 81.9051 196.033 83.0699 196.033 84.746C196.033 86.4221 196.999 87.5443 198.576 87.5443ZM198.491 82.6579C199.4 82.6579 199.982 83.3398 199.982 84.2631H196.9C197.035 83.2403 197.653 82.6579 198.491 82.6579ZM205.693 83.1977C205.409 82.4023 204.798 81.9051 203.79 81.9051C202.639 81.9051 201.787 82.5585 201.787 83.4818C201.787 84.1494 202.227 84.746 203.222 85.0017L204.131 85.229C204.67 85.3568 204.912 85.5983 204.912 85.9534C204.912 86.4079 204.457 86.8199 203.676 86.8199C202.867 86.8199 202.483 86.3795 202.284 85.8824L201.517 86.1665C201.787 86.8483 202.384 87.5443 203.69 87.5443C205.04 87.5443 205.764 86.7631 205.764 85.925C205.764 85.3 205.352 84.7318 204.358 84.4903L203.548 84.2915C202.923 84.1352 202.625 83.8085 202.625 83.4392C202.625 82.9704 203.122 82.6153 203.79 82.6153C204.628 82.6153 204.841 83.1693 204.94 83.4108L205.693 83.1977ZM216.544 81.9761H215.663L214.484 86.1381H214.428L213.277 81.9761H212.382L211.217 86.1523H211.161L209.982 81.9761H209.101L210.763 87.4307H211.587L212.78 83.2403H212.865L214.058 87.4307H214.882L216.544 81.9761ZM217.864 81.1949C218.233 81.1949 218.461 80.9392 218.461 80.6267C218.461 80.3426 218.233 80.0585 217.864 80.0585C217.495 80.0585 217.267 80.3426 217.267 80.6267C217.267 80.9392 217.495 81.1949 217.864 81.1949ZM218.29 81.9761H217.452V87.4307H218.29V81.9761ZM221.912 81.9761H220.747V80.8113H219.909V81.9761H219.085V82.7574H219.909V86.0954C219.909 87.0471 220.676 87.5017 221.386 87.5017C221.699 87.5017 221.898 87.4449 222.011 87.4023L221.841 86.6494C221.77 86.6636 221.656 86.692 221.472 86.692C221.102 86.692 220.747 86.5784 220.747 85.8682V82.7574H221.912V81.9761ZM223.818 84.1352C223.818 83.1125 224.557 82.7148 225.224 82.7148C225.949 82.7148 226.417 83.1693 226.417 83.9648V87.4307H227.255V83.9648C227.255 82.6153 226.517 81.9051 225.494 81.9051C224.67 81.9051 224.145 82.3312 223.875 82.7432H223.818V80.1579H222.98V87.4307H223.818V84.1352ZM233.49 81.9761H232.325V80.8113H231.487V81.9761H230.663V82.7574H231.487V86.0954C231.487 87.0471 232.254 87.5017 232.964 87.5017C233.277 87.5017 233.476 87.4449 233.589 87.4023L233.419 86.6494C233.348 86.6636 233.234 86.692 233.049 86.692C232.68 86.692 232.325 86.5784 232.325 85.8682V82.7574H233.49V81.9761ZM235.396 84.1352C235.396 83.1125 236.134 82.7148 236.802 82.7148C237.526 82.7148 237.995 83.1693 237.995 83.9648V87.4307H238.833V83.9648C238.833 82.6153 238.094 81.9051 237.072 81.9051C236.248 81.9051 235.722 82.3312 235.452 82.7432H235.396V80.1579H234.558V87.4307H235.396V84.1352ZM240.58 81.1949C240.949 81.1949 241.177 80.9392 241.177 80.6267C241.177 80.3426 240.949 80.0585 240.58 80.0585C240.211 80.0585 239.983 80.3426 239.983 80.6267C239.983 80.9392 240.211 81.1949 240.58 81.1949ZM241.006 81.9761H240.168V87.4307H241.006V81.9761ZM246.105 83.1977C245.821 82.4023 245.21 81.9051 244.202 81.9051C243.051 81.9051 242.199 82.5585 242.199 83.4818C242.199 84.1494 242.639 84.746 243.634 85.0017L244.543 85.229C245.083 85.3568 245.324 85.5983 245.324 85.9534C245.324 86.4079 244.87 86.8199 244.088 86.8199C243.279 86.8199 242.895 86.3795 242.696 85.8824L241.929 86.1665C242.199 86.8483 242.796 87.5443 244.102 87.5443C245.452 87.5443 246.176 86.7631 246.176 85.925C246.176 85.3 245.764 84.7318 244.77 84.4903L243.96 84.2915C243.335 84.1352 243.037 83.8085 243.037 83.4392C243.037 82.9704 243.534 82.6153 244.202 82.6153C245.04 82.6153 245.253 83.1693 245.352 83.4108L246.105 83.1977ZM38.241 101.431H39.0791V97.8369C39.0791 96.104 37.758 95.9051 37.062 95.9051C36.2381 95.9051 35.3006 96.1892 34.8745 97.1835L35.67 97.4676C35.8546 97.0699 36.295 96.6437 37.1046 96.6437C37.758 96.6437 38.241 96.9278 38.241 97.8369V97.8511C38.241 98.2062 37.5876 98.1778 36.8347 98.2773C35.812 98.4051 34.7183 98.6466 34.7183 99.8824C34.7183 100.948 35.5421 101.559 36.5791 101.559C37.5308 101.559 38.0279 101.047 38.1984 100.692H38.241V101.431ZM38.241 99.4562C38.241 100.138 37.7012 100.806 36.7069 100.806C36.0393 100.806 35.5563 100.507 35.5563 99.925C35.5563 99.2858 36.1387 99.0869 36.7921 99.0017C37.1472 98.9591 38.0989 98.8596 38.241 98.6892V99.4562ZM44.3434 98.0074C44.3434 97.2403 44.7695 96.7148 45.5081 96.7148C45.9627 96.7148 46.5735 96.9846 46.5735 97.8369V101.431H47.4115V97.8653C47.4115 96.5301 46.6729 95.9051 45.7638 95.9051C44.9684 95.9051 44.3434 96.4307 44.1871 96.8852H44.1303C43.8888 96.3454 43.4059 95.9051 42.724 95.9051C42.028 95.9051 41.4598 96.4307 41.3036 96.8994H41.2468V95.9761H40.4087V101.431H41.2468V98.1778C41.2468 97.2829 41.8576 96.7148 42.4968 96.7148C43.1076 96.7148 43.4911 97.0415 43.4911 97.8653V101.431H44.3434V98.0074ZM50.9305 101.544C52.4077 101.544 53.4021 100.422 53.4021 98.7318C53.4021 97.0273 52.4077 95.9051 50.9305 95.9051C49.4532 95.9051 48.4589 97.0273 48.4589 98.7318C48.4589 100.422 49.4532 101.544 50.9305 101.544ZM50.9305 100.791C49.8083 100.791 49.297 99.8256 49.297 98.7318C49.297 97.6381 49.8083 96.6579 50.9305 96.6579C52.0526 96.6579 52.564 97.6381 52.564 98.7318C52.564 99.8256 52.0526 100.791 50.9305 100.791ZM57.8603 99.2716C57.8603 100.294 57.079 100.692 56.454 100.692C55.758 100.692 55.2608 100.237 55.2608 99.442V95.9761H54.4228V99.442C54.4228 100.877 55.3887 101.502 56.1841 101.502C57.008 101.502 57.5336 101.076 57.8035 100.664H57.8603V101.431H58.6983V95.9761H57.8603V99.2716ZM60.8714 98.2062C60.8714 97.1835 61.6526 96.7148 62.2776 96.7148C62.9737 96.7148 63.4708 97.2261 63.4708 98.0216V101.431H64.3089V97.9648C64.3089 96.5727 63.5702 95.9051 62.5475 95.9051C61.7237 95.9051 61.1839 96.3454 60.9282 96.8994H60.8714V95.9761H60.0333V101.431H60.8714V98.2062ZM67.8722 95.9761H66.7074V94.8113H65.8694V95.9761H65.0455V96.7574H65.8694V100.095C65.8694 101.047 66.6364 101.502 67.3466 101.502C67.6591 101.502 67.858 101.445 67.9716 101.402L67.8012 100.649C67.7302 100.664 67.6165 100.692 67.4319 100.692C67.0625 100.692 66.7074 100.578 66.7074 99.8682V96.7574H67.8722V95.9761ZM70.1189 100.522H69.2098V101.203C69.2098 101.743 69.0252 102.24 68.7837 102.809L69.4939 102.951C69.8632 102.397 70.1047 101.814 70.1189 101.189V100.522ZM78.4672 97.6096C78.3251 96.5869 77.4586 95.9051 76.3081 95.9051C74.8308 95.9051 73.8507 97.0699 73.8507 98.7034C73.8507 100.38 74.8024 101.544 76.3223 101.544C77.5297 101.544 78.3251 100.806 78.4672 99.8398H77.6291C77.4728 100.436 76.9757 100.791 76.3223 100.791C75.328 100.791 74.6887 99.9676 74.6887 98.7034C74.6887 97.4676 75.3422 96.6579 76.3223 96.6579C77.0609 96.6579 77.5012 97.1125 77.6291 97.6096H78.4672ZM81.718 101.544C83.1952 101.544 84.1896 100.422 84.1896 98.7318C84.1896 97.0273 83.1952 95.9051 81.718 95.9051C80.2407 95.9051 79.2464 97.0273 79.2464 98.7318C79.2464 100.422 80.2407 101.544 81.718 101.544ZM81.718 100.791C80.5958 100.791 80.0845 99.8256 80.0845 98.7318C80.0845 97.6381 80.5958 96.6579 81.718 96.6579C82.8401 96.6579 83.3515 97.6381 83.3515 98.7318C83.3515 99.8256 82.8401 100.791 81.718 100.791ZM88.6478 99.2716C88.6478 100.294 87.8665 100.692 87.2415 100.692C86.5455 100.692 86.0483 100.237 86.0483 99.442V95.9761H85.2103V99.442C85.2103 100.877 86.1762 101.502 86.9716 101.502C87.7955 101.502 88.3211 101.076 88.5909 100.664H88.6478V101.431H89.4858V95.9761H88.6478V99.2716ZM93.8322 96.0898C93.6617 95.9903 93.3918 95.8909 93.1077 95.8909C92.4685 95.8909 91.872 96.3881 91.7157 96.9136H91.6589V95.9761H90.8208V101.431H91.6589V98.3483C91.6731 97.6096 92.1845 96.7574 93.0793 96.7574C93.3208 96.7574 93.4629 96.8284 93.5481 96.871L93.8322 96.0898ZM97.1167 95.9761H95.952V94.8113H95.1139V95.9761H94.29V96.7574H95.1139V100.095C95.1139 101.047 95.8809 101.502 96.5912 101.502C96.9037 101.502 97.1025 101.445 97.2162 101.402L97.0457 100.649C96.9747 100.664 96.8611 100.692 96.6764 100.692C96.3071 100.692 95.952 100.578 95.952 99.8682V96.7574H97.1167V95.9761ZM100.403 101.544C101.511 101.544 102.321 100.99 102.576 100.166L101.767 99.9392C101.554 100.507 101.071 100.791 100.403 100.791C99.4158 100.791 98.7944 100.166 98.7092 98.9875H102.662V98.6324C102.662 96.6011 101.454 95.9051 100.318 95.9051C98.8406 95.9051 97.8604 97.0699 97.8604 98.746C97.8604 100.422 98.8264 101.544 100.403 101.544ZM100.318 96.6579C101.227 96.6579 101.809 97.3398 101.809 98.2631H98.7269C98.8619 97.2403 99.4798 96.6579 100.318 96.6579ZM107.52 97.1977C107.236 96.4023 106.625 95.9051 105.617 95.9051C104.466 95.9051 103.614 96.5585 103.614 97.4818C103.614 98.1494 104.054 98.746 105.049 99.0017L105.958 99.229C106.497 99.3568 106.739 99.5983 106.739 99.9534C106.739 100.408 106.284 100.82 105.503 100.82C104.693 100.82 104.31 100.38 104.111 99.8824L103.344 100.166C103.614 100.848 104.211 101.544 105.517 101.544C106.867 101.544 107.591 100.763 107.591 99.925C107.591 99.3 107.179 98.7318 106.185 98.4903L105.375 98.2915C104.75 98.1352 104.452 97.8085 104.452 97.4392C104.452 96.9704 104.949 96.6153 105.617 96.6153C106.455 96.6153 106.668 97.1693 106.767 97.4108L107.52 97.1977ZM110.001 101.97C109.689 102.78 109.305 102.851 108.709 102.709L108.496 103.448C108.581 103.49 108.822 103.547 109.106 103.547C109.859 103.547 110.399 103.149 110.712 102.311L113.055 95.9761H112.146L110.64 100.323H110.58L109.078 95.9761H108.169L110.193 101.466L110.001 101.97ZM118.79 101.544C120.267 101.544 121.261 100.422 121.261 98.7318C121.261 97.0273 120.267 95.9051 118.79 95.9051C117.313 95.9051 116.318 97.0273 116.318 98.7318C116.318 100.422 117.313 101.544 118.79 101.544ZM118.79 100.791C117.668 100.791 117.156 99.8256 117.156 98.7318C117.156 97.6381 117.668 96.6579 118.79 96.6579C119.912 96.6579 120.423 97.6381 120.423 98.7318C120.423 99.8256 119.912 100.791 118.79 100.791ZM122.71 101.431H123.548V96.7574H124.77V95.9761H123.548V95.6636C123.548 95.1238 123.775 94.8398 124.329 94.8398C124.571 94.8398 124.713 94.8966 124.798 94.925L125.04 94.2006C124.912 94.1437 124.656 94.0585 124.244 94.0585C123.463 94.0585 122.71 94.5273 122.71 95.4648V95.9761H121.829V96.7574H122.71V101.431ZM129.743 101.97C129.431 102.78 129.047 102.851 128.451 102.709L128.238 103.448C128.323 103.49 128.564 103.547 128.849 103.547C129.601 103.547 130.141 103.149 130.454 102.311L132.797 95.9761H131.888L130.383 100.323H130.322L128.82 95.9761H127.911L129.935 101.466L129.743 101.97ZM135.734 101.544C137.211 101.544 138.206 100.422 138.206 98.7318C138.206 97.0273 137.211 95.9051 135.734 95.9051C134.257 95.9051 133.262 97.0273 133.262 98.7318C133.262 100.422 134.257 101.544 135.734 101.544ZM135.734 100.791C134.612 100.791 134.1 99.8256 134.1 98.7318C134.1 97.6381 134.612 96.6579 135.734 96.6579C136.856 96.6579 137.368 97.6381 137.368 98.7318C137.368 99.8256 136.856 100.791 135.734 100.791ZM142.664 99.2716C142.664 100.294 141.883 100.692 141.258 100.692C140.562 100.692 140.064 100.237 140.064 99.442V95.9761H139.226V99.442C139.226 100.877 140.192 101.502 140.988 101.502C141.812 101.502 142.337 101.076 142.607 100.664H142.664V101.431H143.502V95.9761H142.664V99.2716ZM147.848 96.0898C147.678 95.9903 147.408 95.8909 147.124 95.8909C146.485 95.8909 145.888 96.3881 145.732 96.9136H145.675V95.9761H144.837V101.431H145.675V98.3483C145.689 97.6096 146.2 96.7574 147.095 96.7574C147.337 96.7574 147.479 96.8284 147.564 96.871L147.848 96.0898ZM155.477 97.6096C155.335 96.5869 154.469 95.9051 153.318 95.9051C151.841 95.9051 150.861 97.0699 150.861 98.7034C150.861 100.38 151.813 101.544 153.332 101.544C154.54 101.544 155.335 100.806 155.477 99.8398H154.639C154.483 100.436 153.986 100.791 153.332 100.791C152.338 100.791 151.699 99.9676 151.699 98.7034C151.699 97.4676 152.352 96.6579 153.332 96.6579C154.071 96.6579 154.511 97.1125 154.639 97.6096H155.477ZM158.728 101.544C160.205 101.544 161.2 100.422 161.2 98.7318C161.2 97.0273 160.205 95.9051 158.728 95.9051C157.251 95.9051 156.257 97.0273 156.257 98.7318C156.257 100.422 157.251 101.544 158.728 101.544ZM158.728 100.791C157.606 100.791 157.095 99.8256 157.095 98.7318C157.095 97.6381 157.606 96.6579 158.728 96.6579C159.85 96.6579 160.362 97.6381 160.362 98.7318C160.362 99.8256 159.85 100.791 158.728 100.791ZM166.214 98.0074C166.214 97.2403 166.64 96.7148 167.378 96.7148C167.833 96.7148 168.444 96.9846 168.444 97.8369V101.431H169.282V97.8653C169.282 96.5301 168.543 95.9051 167.634 95.9051C166.839 95.9051 166.214 96.4307 166.057 96.8852H166.001C165.759 96.3454 165.276 95.9051 164.594 95.9051C163.898 95.9051 163.33 96.4307 163.174 96.8994H163.117V95.9761H162.279V101.431H163.117V98.1778C163.117 97.2829 163.728 96.7148 164.367 96.7148C164.978 96.7148 165.361 97.0415 165.361 97.8653V101.431H166.214V98.0074ZM170.614 103.476H171.452V100.593H171.523C171.708 100.891 172.063 101.544 173.114 101.544C174.478 101.544 175.43 100.451 175.43 98.7176C175.43 96.9988 174.478 95.9051 173.1 95.9051C172.035 95.9051 171.708 96.5585 171.523 96.8426H171.424V95.9761H170.614V103.476ZM174.591 98.7034C174.591 99.8682 174.052 100.791 173.001 100.791C171.992 100.791 171.438 99.9392 171.438 98.7034C171.438 97.4818 171.978 96.6579 173.001 96.6579C174.066 96.6579 174.591 97.5528 174.591 98.7034ZM179.775 101.431H180.613V97.8369C180.613 96.104 179.292 95.9051 178.596 95.9051C177.772 95.9051 176.835 96.1892 176.408 97.1835L177.204 97.4676C177.389 97.0699 177.829 96.6437 178.639 96.6437C179.292 96.6437 179.775 96.9278 179.775 97.8369V97.8511C179.775 98.2062 179.122 98.1778 178.369 98.2773C177.346 98.4051 176.252 98.6466 176.252 99.8824C176.252 100.948 177.076 101.559 178.113 101.559C179.065 101.559 179.562 101.047 179.732 100.692H179.775V101.431ZM179.775 99.4562C179.775 100.138 179.235 100.806 178.241 100.806C177.573 100.806 177.09 100.507 177.09 99.925C177.09 99.2858 177.673 99.0869 178.326 99.0017C178.681 98.9591 179.633 98.8596 179.775 98.6892V99.4562ZM182.781 98.2062C182.781 97.1835 183.562 96.7148 184.187 96.7148C184.883 96.7148 185.38 97.2261 185.38 98.0216V101.431H186.218V97.9648C186.218 96.5727 185.48 95.9051 184.457 95.9051C183.633 95.9051 183.093 96.3454 182.838 96.8994H182.781V95.9761H181.943V101.431H182.781V98.2062ZM188.657 101.97C188.344 102.78 187.961 102.851 187.364 102.709L187.151 103.448C187.236 103.49 187.478 103.547 187.762 103.547C188.515 103.547 189.054 103.149 189.367 102.311L191.711 95.9761H190.802L189.296 100.323H189.236L187.733 95.9761H186.824L188.849 101.466L188.657 101.97Z" fill="#DBECFF"/>
<path d="M193.228 101.487C193.583 101.487 193.867 101.203 193.867 100.848C193.867 100.507 193.583 100.223 193.228 100.223C192.887 100.223 192.589 100.493 192.589 100.848C192.589 101.203 192.873 101.487 193.228 101.487Z" fill="white"/>
<path d="M36.6444 60.2112H34.9612V68.9385H36.6444V65.278H40.2666V68.9385H41.9498V60.2112H40.2666V63.8675H36.6444V60.2112ZM46.1465 69.0621C47.8467 69.0621 48.699 68.099 48.9376 67.1998L47.4547 66.7993C47.28 67.2851 46.922 67.7069 46.1337 67.7069C45.1919 67.7069 44.6805 67.1189 44.574 66.1473H49.0058V65.4527C49.0058 63.3518 47.7402 62.3078 46.0783 62.3078C44.118 62.3078 42.976 63.7524 42.976 65.751C42.976 67.7964 44.182 69.0621 46.1465 69.0621ZM46.0655 63.6501C46.9348 63.6501 47.4376 64.2382 47.4376 65.0095H44.6209C44.7956 64.1487 45.307 63.6501 46.0655 63.6501ZM51.6524 60.2112H49.999V68.9385H51.6524V60.2112ZM54.4876 60.2112H52.8342V68.9385H54.4876V60.2112ZM58.5244 69.0621C60.4037 69.0621 61.5713 67.6686 61.5713 65.6785C61.5713 63.6757 60.4037 62.3078 58.5244 62.3078C56.6494 62.3078 55.4776 63.6757 55.4776 65.6785C55.4776 67.6686 56.6494 69.0621 58.5244 69.0621ZM58.5244 67.7069C57.4932 67.7069 57.0628 66.8376 57.0628 65.6785C57.0628 64.5152 57.4932 63.6501 58.5244 63.6501C59.5599 63.6501 59.9861 64.5152 59.9861 65.6785C59.9861 66.8376 59.5599 67.7069 58.5244 67.7069ZM64.4214 60.2112H62.6827L62.8745 66.3092H64.2339L64.4214 60.2112ZM63.5393 69.0535C64.1103 69.0535 64.5237 68.6487 64.5237 68.116C64.5237 67.5876 64.1103 67.1785 63.5393 67.1785C62.964 67.1785 62.572 67.5876 62.572 68.116C62.572 68.6487 62.964 69.0535 63.5393 69.0535Z" fill="white"/>
<defs>
<filter id="filter0_d" x="16" y="87" width="264" height="162" filterUnits="userSpaceOnUse" color-interpolation-filters="sRGB">
<feFlood flood-opacity="0" result="BackgroundImageFix"/>
<feColorMatrix in="SourceAlpha" type="matrix" values="0 0 0 0 0 0 0 0 0 0 0 0 0 0 0 0 0 0 127 0"/>
<feOffset dy="8"/>
<feGaussianBlur stdDeviation="8"/>
<feColorMatrix type="matrix" values="0 0 0 0 0.0768 0 0 0 0 0.07808 0 0 0 0 0.08 0 0 0 0.12 0"/>
<feBlend mode="normal" in2="BackgroundImageFix" result="effect1_dropShadow"/>
<feBlend mode="normal" in="SourceGraphic" in2="effect1_dropShadow" result="shape"/>
</filter>
<filter id="filter1_d" x="5" y="59" width="286" height="174" filterUnits="userSpaceOnUse" color-interpolation-filters="sRGB">
<feFlood flood-opacity="0" result="BackgroundImageFix"/>
<feColorMatrix in="SourceAlpha" type="matrix" values="0 0 0 0 0 0 0 0 0 0 0 0 0 0 0 0 0 0 127 0"/>
<feOffset dy="8"/>
<feGaussianBlur stdDeviation="8"/>
<feColorMatrix type="matrix" values="0 0 0 0 0.0768 0 0 0 0 0.07808 0 0 0 0 0.08 0 0 0 0.12 0"/>
<feBlend mode="normal" in2="BackgroundImageFix" result="effect1_dropShadow"/>
<feBlend mode="normal" in="SourceGraphic" in2="effect1_dropShadow" result="shape"/>
</filter>
<filter id="filter2_d" x="0" y="33" width="296" height="180" filterUnits="userSpaceOnUse" color-interpolation-filters="sRGB">
<feFlood flood-opacity="0" result="BackgroundImageFix"/>
<feColorMatrix in="SourceAlpha" type="matrix" values="0 0 0 0 0 0 0 0 0 0 0 0 0 0 0 0 0 0 127 0"/>
<feOffset dy="8"/>
<feGaussianBlur stdDeviation="8"/>
<feColorMatrix type="matrix" values="0 0 0 0 0.0768 0 0 0 0 0.07808 0 0 0 0 0.08 0 0 0 0.12 0"/>
<feBlend mode="normal" in2="BackgroundImageFix" result="effect1_dropShadow"/>
<feBlend mode="normal" in="SourceGraphic" in2="effect1_dropShadow" result="shape"/>
</filter>
<linearGradient id="paint0_linear" x1="16" y1="41" x2="115.017" y2="247.099" gradientUnits="userSpaceOnUse">
<stop stop-color="#145ECC"/>
<stop offset="1" stop-color="#66A3FF"/>
</linearGradient>
</defs>
</svg>
