<svg width="264" height="264" viewBox="0 0 264 264" fill="none" xmlns="http://www.w3.org/2000/svg">
<path d="M188.452 77.7596L185.072 90.3709L171.905 93.9587C178.942 101.485 183.857 111.128 185.523 122.069C189.926 150.962 170.011 177.943 141.045 182.335C112.08 186.725 85.0289 166.862 80.6279 137.97C76.2255 109.077 96.1388 82.095 125.105 77.7042C140.791 75.3274 155.912 80.0638 167.183 89.4938L180.521 85.8591L183.88 73.329C167.518 58.7545 145.004 51.2995 121.622 54.8437C79.9982 61.1532 51.3845 99.9249 57.7097 141.442C64.034 182.96 102.903 211.502 144.527 205.193C186.151 198.884 214.766 160.114 208.438 118.594C206.013 102.658 198.785 88.6355 188.452 77.7596Z" fill="url(#paint0_linear)"/>
<path d="M42.3299 146.364L66.4506 177.926L76.4104 202.908L93.4827 178.836L152.73 112.836L68.6956 148.701L42.3299 146.364Z" fill="#3385FF"/>
<path d="M76.5493 205.697C76.2676 199.941 76.0039 194.616 75.7464 189.292C75.691 188.132 75.6067 184.692 75.3258 183.591C74.3333 179.705 85.2263 172.25 88.0494 169.843C109.262 151.767 121.628 140.959 142.743 122.768C143.324 122.266 143.886 121.743 144.2 120.872C124.568 134.149 106.622 139.565 63.665 168.617C55.2252 159.812 50.8383 155.237 42.3315 146.365C84.9766 131.832 127.245 117.43 169.514 103.027C169.632 103.161 169.75 103.295 169.868 103.429C148.259 139.404 126.652 175.38 104.902 211.591C98.4977 204.925 92.2381 198.407 85.6648 191.563C82.638 196.258 79.715 200.789 76.5493 205.697Z" fill="url(#paint1_linear)"/>
<path d="M94.7311 164.095L125.487 137.636C121.478 132.226 116.695 127.415 112.191 122.398C105.394 114.831 99.0111 107.006 96.3292 96.8722C95.8602 95.0947 94.7257 94.774 93.0332 95.7127C90.8772 96.9081 88.772 98.1933 86.3234 99.629L78.1177 104.428H78.1169C74.0445 106.865 69.9565 109.272 65.8194 111.593C63.8858 112.679 63.3996 113.847 63.9388 116.053C65.8693 123.932 69.8863 130.698 74.771 137.005C79.7946 143.491 85.1006 149.763 90.0236 156.32C91.8245 158.714 93.233 161.402 94.7311 164.095Z" fill="url(#paint2_linear)"/>
<path d="M96.3745 138.27L94.5946 135.606C92.4964 136.999 90.3966 137.57 88.5496 137.695L86.712 132.873C87.7279 132.746 88.7455 132.621 89.635 132.303C90.7173 131.859 91.798 131.417 92.7531 130.783C94.4721 129.642 94.9801 128.754 94.3465 127.803C93.8369 127.04 92.3739 126.912 89.8933 127.736C87.7935 128.306 85.9496 128.432 84.4866 128.304C82.8963 127.986 81.5612 127.226 80.6717 125.893C78.639 122.848 79.2148 119.993 82.141 116.95L80.3595 114.285L83.7952 112.001L85.4487 114.477C86.403 113.842 87.4837 113.401 88.3748 113.082C89.074 112.892 89.9635 112.576 90.665 112.386L92.3785 117.016L91.3626 117.144C90.8546 117.205 90.6611 117.332 90.1539 117.396C89.0732 117.84 87.9917 118.282 87.0366 118.917C85.5088 119.931 85.0008 120.819 85.6367 121.771C86.0183 122.341 87.6718 122.343 90.4699 121.583C94.6672 120.444 97.6542 121.207 99.3053 123.681C101.34 126.727 100.704 129.899 97.5855 133.067L99.619 136.114L96.3745 138.27Z" fill="white"/>
<path d="M84.0012 143.031C87.5289 147.354 91.1761 151.824 94.3621 156.484C95.4997 158.146 96.5344 159.908 97.5106 161.705L97.9499 161.326C96.9831 159.553 95.9578 157.813 94.8302 156.165C91.6326 151.485 87.9768 147.005 84.4428 142.674C83.1085 141.039 81.775 139.406 80.4617 137.756C75.5786 131.624 70.6229 124.945 68.3943 116.647C68.2297 116.036 68.4552 114.885 68.772 114.692C75.3898 110.713 81.942 106.877 88.8812 102.814L93.1151 100.335C96.1973 109.29 101.545 116.27 106.384 121.928C108.376 124.258 110.457 126.579 112.47 128.824C115.099 131.758 117.817 134.791 120.368 137.872C121.061 138.71 121.713 139.533 122.334 140.347L122.766 139.974C122.147 139.164 121.495 138.344 120.805 137.512C118.249 134.421 115.526 131.384 112.893 128.445C110.883 126.202 108.804 123.884 106.815 121.559C101.954 115.874 96.5734 108.845 93.5412 99.8235L93.4288 99.4927L88.5925 102.325C81.6509 106.389 75.0979 110.226 68.4802 114.206C67.8489 114.587 67.6437 116.043 67.8458 116.793C70.1032 125.194 75.0956 131.928 80.017 138.107C81.3302 139.757 82.6661 141.394 84.0012 143.031Z" fill="white"/>
<defs>
<linearGradient id="paint0_linear" x1="174.447" y1="210.078" x2="82.8288" y2="32.7917" gradientUnits="userSpaceOnUse">
<stop stop-color="#469AED"/>
<stop offset="0.3163" stop-color="#469AED" stop-opacity="0"/>
<stop offset="0.8784" stop-color="#469AED"/>
</linearGradient>
<linearGradient id="paint1_linear" x1="55.6339" y1="198.885" x2="137.869" y2="107.846" gradientUnits="userSpaceOnUse">
<stop stop-color="#99D3F5"/>
<stop offset="0.7449" stop-color="#3385FF"/>
<stop offset="0.9612" stop-color="#3385FF"/>
<stop offset="0.9925" stop-color="#3385FF"/>
</linearGradient>
<linearGradient id="paint2_linear" x1="69.9581" y1="136.82" x2="183.686" y2="103.622" gradientUnits="userSpaceOnUse">
<stop stop-color="#99D3F5"/>
<stop offset="0.8255" stop-color="#3385FF"/>
<stop offset="0.8558" stop-color="#3687FF"/>
<stop offset="0.8569" stop-color="#3687FF"/>
<stop offset="0.9925" stop-color="#3385FF"/>
</linearGradient>
</defs>
</svg>
