<svg width="464" height="480" viewBox="0 0 464 480" fill="none" xmlns="http://www.w3.org/2000/svg">
<path d="M326.464 312.652C326.464 318.995 319.832 325.058 308.622 330.095L354.768 343.058C377.372 334.664 391.479 324.033 391.479 312.747C391.479 301.367 377.373 290.827 354.768 282.434L308.622 295.398C319.832 300.342 326.464 306.125 326.464 312.652Z" fill="#B8D3F4"/>
<path d="M211.566 344.831C148.512 344.831 96.762 330.281 96.762 312.652C96.762 295.025 148.512 280.474 211.566 280.474C235.107 280.474 255.843 282.339 273.686 285.792L319.832 272.827C289.754 266.484 252.014 262.566 211.566 262.566C112.735 262.566 31.747 284.951 31.747 312.931C31.747 340.913 112.735 363.017 211.566 363.017C252.948 363.017 290.593 359.101 320.766 352.758L274.62 339.886C256.776 343.059 235.106 344.831 211.566 344.831Z" fill="#3385FF"/>
<path d="M326.464 312.652C326.464 318.995 319.832 325.058 308.622 330.095L354.768 343.058C377.372 334.664 391.479 324.033 391.479 312.747C391.479 301.367 377.373 290.827 354.768 282.434L308.622 295.398C319.832 300.342 326.464 306.125 326.464 312.652Z" fill="url(#paint0_linear)"/>
<path d="M211.566 344.831C148.512 344.831 96.762 330.281 96.762 312.652C96.762 295.025 148.512 280.474 211.566 280.474C235.107 280.474 255.843 282.339 273.686 285.792L319.832 272.827C289.754 266.484 252.014 262.566 211.566 262.566C112.735 262.566 31.747 284.951 31.747 312.931C31.747 340.913 112.735 363.017 211.566 363.017C252.948 363.017 290.593 359.101 320.766 352.758L274.62 339.886C256.776 343.059 235.106 344.831 211.566 344.831Z" fill="url(#paint1_linear)"/>
<path d="M110.865 289.103L179.894 362.802H285.441L175.902 287.742L162.337 290.073L201.193 320.41L124.358 289.936L110.865 289.103Z" fill="url(#paint2_linear)"/>
<path d="M159.74 82.523C159.74 74.26 152.991 67.5 144.741 67.5H36.499C28.25 67.5 21.5 74.261 21.5 82.523V144.369C21.5 152.757 28.25 159.518 36.499 159.518H135.944L159.74 178.297V145.433L159.707 145.452C159.728 145.135 159.74 144.816 159.74 144.494V82.523Z" fill="#B8D3F4"/>
<path d="M37.335 151.445L45.322 126.031L52.12 138.062L64.356 114.003L75.063 128.912L77.952 118.916L82.37 125.354L105.144 87.065L125.027 149.92" stroke="#5FAFFF" stroke-width="1.2886"/>
<path d="M162.36 151.625C180.918 163.706 180.592 180.209 165.658 194.554C167.174 195.777 168.644 196.74 170.216 197.687C191.783 175.705 185.92 148.576 157.608 139.294C163.614 149.415 143.8 139.546 162.36 151.625Z" fill="#3385FF"/>
<path d="M170.265 284.671C168.596 255.304 167.343 225.8 163.169 196.71H163.03C150.093 196.157 137.156 195.741 124.218 195.187C118.514 224.693 117.681 254.474 115.873 284.394C118.932 284.533 121.855 284.671 124.915 284.81C130.062 259.6 132.984 234.804 141.191 210.008C141.191 209.871 144.531 208.485 144.67 210.286C149.816 234.943 156.216 259.46 161.084 284.255C164.146 284.394 167.204 284.532 170.265 284.671Z" fill="#3385FF"/>
<path d="M121.855 197.818C123.245 198.511 126.863 200.312 126.445 202.113C126.027 203.914 122.827 200.312 122.549 199.897C122.688 202.113 125.61 207.793 123.245 209.317C120.879 210.84 118.655 201.975 118.376 200.59C119.49 199.343 120.603 198.649 121.855 197.818Z" fill="white"/>
<path d="M115.734 143.795C127.419 158.756 121.855 178.981 119.768 196.71C135.627 200.036 151.207 200.312 167.343 199.758C166.926 181.474 167.064 163.327 164.145 144.904C163.588 141.303 162.475 138.809 157.745 138.671C147.173 138.394 133.956 135.762 123.663 137.009C119.212 137.839 112.257 139.362 115.734 143.795Z" fill="#3385FF"/>
<path d="M132.567 141.856C135.765 148.09 139.382 164.158 145.641 166.374C151.902 168.73 150.651 146.982 151.069 144.073C144.947 142.964 138.828 142.272 132.567 141.856Z" fill="#E1F0FF"/>
<path d="M139.382 146.428C140.218 148.09 141.052 149.891 141.747 151.553C140.914 153.355 139.939 155.156 139.105 156.956C141.331 161.527 143.556 166.098 145.781 170.808C148.287 166.374 150.512 161.665 150.79 156.54C149.12 155.293 147.59 154.046 145.92 152.662C146.755 150.168 147.589 147.813 148.425 145.32C144.947 142.826 141.608 142.272 139.382 146.428Z" fill="#A2CFF4"/>
<path d="M121.299 137.423C84.433 151.829 82.485 180.919 117.123 200.036C119.071 198.789 120.879 197.542 122.688 196.018C98.9 183.689 94.728 166.651 117.541 150.998C140.356 135.346 115.316 148.921 121.299 137.423Z" fill="#3385FF"/>
<path d="M124.081 285.363C121.438 285.224 118.933 285.086 116.291 285.086C115.874 286.056 108.5 287.164 110.866 289.103C113.23 291.042 120.881 289.66 124.359 289.936C124.776 288.412 124.776 286.886 124.081 285.363Z" fill="#0084B5"/>
<path d="M162.337 285.363C164.979 285.224 167.484 285.086 170.265 285.086C170.682 286.056 178.195 287.164 175.83 289.241C173.465 291.321 165.675 289.935 162.336 290.073C161.639 288.272 161.781 286.886 162.337 285.363Z" fill="#0084B5"/>
<path d="M153.155 142.134C152.877 146.013 145.226 144.766 142.304 144.073C139.382 143.38 127.976 143.38 127.698 139.502C127.419 135.485 139.8 138.116 142.304 138.532C144.809 138.809 153.432 138.255 153.155 142.134Z" fill="white"/>
<path d="M148.146 123.433C148.287 129.39 148.287 135.207 151.207 140.609C144.112 143.657 137.713 141.163 130.758 138.809C134.374 134.792 136.182 131.191 136.88 125.788C140.636 124.957 144.391 124.125 148.146 123.433Z" fill="url(#paint3_linear)"/>
<path d="M132.567 120.94C133.123 126.619 142.443 132.853 148.841 131.329C155.102 129.806 154.269 121.356 153.71 116.092C153.154 110.69 147.728 106.949 142.164 107.919C134.792 109.028 131.731 112.768 132.567 120.94Z" fill="white"/>
<path d="M151.624 110.689C155.938 115.122 155.52 120.109 154.824 125.787C153.711 125.372 152.46 125.096 151.346 124.679C151.207 119.97 151.346 115.399 151.624 110.689Z" fill="white"/>
<path d="M151.763 124.818C152.182 125.233 152.599 125.65 153.016 126.065C152.876 125.926 153.294 125.511 153.016 125.373C152.737 125.096 152.182 124.957 151.763 124.818Z" fill="#EAEAEA"/>
<path d="M149.398 119.555C149.398 119.832 149.676 120.11 149.955 120.11C150.233 120.11 150.512 119.832 150.512 119.555C150.512 119.278 150.233 119 149.955 119C149.537 119 149.398 119.278 149.398 119.555Z" fill="#C6C6C6"/>
<path d="M127.002 139.362C131.035 142.688 135.21 146.012 139.382 149.475C140.356 147.674 141.33 145.873 142.443 144.072C144.53 146.012 146.616 147.812 148.565 149.751C150.233 147.257 151.902 144.765 153.571 142.133C144.67 141.163 135.905 140.194 127.002 139.362Z" fill="white"/>
<path d="M147.173 119.555C147.173 121.079 148.147 122.464 149.817 122.464C151.486 122.464 152.461 121.079 152.461 119.555C152.461 118.032 151.486 116.646 149.817 116.646C148.146 116.506 147.173 118.031 147.173 119.555Z" stroke="#3385FF" stroke-width="0.5228"/>
<path d="M147.173 119.555C143.417 119.139 139.661 118.724 135.905 118.309" stroke="#3385FF" stroke-width="0.5228"/>
<path d="M152.46 120.109C153.571 120.109 154.546 120.109 155.658 120.109" stroke="#3385FF" stroke-width="0.5228"/>
<path d="M169.497 198.738C169.397 200.082 168.331 208.724 165.915 207.56C163.5 206.394 165.599 200.683 165.47 198.572C165.255 198.997 162.651 202.777 162.048 201.122C161.439 199.469 164.649 197.343 165.883 196.526C167.165 197.164 168.298 197.689 169.497 198.738Z" fill="white"/>
<path d="M137.869 102.048L134.818 103.688L134.935 102.633L133.527 103.453C133.527 103.453 128.365 109.194 128.131 115.638C127.895 122.082 133.527 126.065 133.527 126.065L133.058 121.378L135.054 116.575C135.054 116.575 136.93 116.224 138.808 115.404C140.803 114.584 140.099 110.367 140.099 110.367C140.099 110.367 157.464 114.935 154.648 109.781C151.715 104.626 138.339 103.22 137.166 103.337L137.869 102.048Z" fill="#0098D2"/>
<path d="M136.601 119.417C135.905 117.753 136.601 115.123 133.401 116.092C130.201 117.062 132.149 122.464 135.627 122.464" fill="white"/>
<path d="M136.601 119.417C135.905 117.753 136.601 115.123 133.401 116.092C130.201 117.062 132.149 122.464 135.627 122.464" stroke="#EAEAEA" stroke-width="0.2614"/>
<path d="M49.077 111.702V107.906C46.089 107.906 43.644 107.092 41.742 106.006L43.101 100.042C44.188 100.584 45.273 101.126 46.358 101.397C47.718 101.668 49.077 101.941 50.433 101.941C52.879 101.941 53.964 101.397 53.964 100.042C53.964 98.957 52.607 97.872 49.619 97.058C47.173 96.245 45.273 95.161 43.915 94.076C42.557 92.72 41.742 91.093 41.742 89.195C41.742 84.857 44.188 82.416 49.077 81.332V77.534H53.964V81.059C55.322 81.059 56.679 81.332 57.767 81.602C58.581 81.873 59.666 82.142 60.482 82.415L59.126 88.109L58.038 87.567C57.496 87.294 57.225 87.294 56.68 87.024C55.323 86.754 53.965 86.481 52.607 86.481C50.433 86.481 49.349 87.024 49.349 88.38C49.349 89.194 50.978 90.279 54.238 91.363C59.127 92.99 61.569 95.702 61.569 99.227C61.569 103.566 58.854 106.279 53.694 107.363V111.702H49.077Z" fill="#3385FF"/>
<path d="M337.828 163.913C317.974 175.403 318.797 189.761 288.161 176.676C287.267 177.775 285.533 178.699 285.217 179.953C301.93 206.43 322.31 192.755 337.652 179.14C352.994 165.523 338.391 174.914 337.828 163.913Z" fill="#3385FF"/>
<path d="M367.409 162.094C412.433 171.034 392.953 204.72 394.501 233.739C392.694 233.998 390.761 234.129 388.954 233.998C385.987 216.768 390.761 190.986 374.892 179.974C358.765 169.09 368.571 175.958 367.409 162.094Z" fill="#3385FF"/>
<path d="M364.959 312.254C354.766 272.48 376.699 257.32 376.053 221.563H375.924C362.895 220.267 349.736 221.303 336.706 220.785C327.16 252.01 315.161 281.289 341.222 306.682C343.157 304.35 345.092 302.147 347.155 300.074C331.547 278.956 341.095 255.765 352.316 233.998C352.316 233.87 355.799 232.574 355.799 234.129C356.96 266.13 342.383 277.274 355.542 313.159C358.765 312.771 361.864 312.383 364.959 312.254Z" fill="#5DA4F9"/>
<path d="M338.901 222.468C338.901 222.727 338.771 222.857 338.771 223.116" stroke="#9999FF" stroke-width="0.4846"/>
<path d="M338.384 224.412C330.902 253.046 319.032 278.956 339.931 303.572" stroke="#9999FF" stroke-width="0.4846" stroke-dasharray="0.98 0.98"/>
<path d="M340.448 304.09C340.577 304.221 340.705 304.48 340.834 304.609" stroke="#9999FF" stroke-width="0.4846"/>
<path d="M373.215 222.988C373.215 223.247 373.215 223.376 373.215 223.635" stroke="#9999FF" stroke-width="0.4846"/>
<path d="M373.215 224.931C371.278 258.226 352.833 272.22 362.766 309.532" stroke="#9999FF" stroke-width="0.4846" stroke-dasharray="0.96 0.96"/>
<path d="M362.766 310.18C362.766 310.438 362.895 310.569 362.895 310.827" stroke="#9999FF" stroke-width="0.4846"/>
<path d="M374.893 233.61C369.345 231.797 367.152 228.818 367.281 222.857C369.732 222.338 372.184 221.691 374.765 221.172" fill="#5DA4F9"/>
<path d="M374.893 233.61C369.345 231.797 367.152 228.818 367.281 222.857C369.732 222.338 372.184 221.691 374.765 221.172" stroke="#9999FF" stroke-width="0.4846" stroke-dasharray="0.97 0.97"/>
<path d="M334.773 231.927C340.964 231.538 343.673 229.077 345.091 223.117C342.769 222.339 340.317 221.563 337.994 220.785" fill="#5DA4F9"/>
<path d="M334.773 231.927C340.964 231.538 343.673 229.077 345.091 223.117C342.769 222.339 340.317 221.563 337.994 220.785" stroke="#9999FF" stroke-width="0.4846" stroke-dasharray="0.97 0.97"/>
<path d="M284.485 178.896C283.069 178.287 279.238 176.825 279.293 174.995C279.35 173.162 283.018 176.504 283.332 176.917C282.706 174.977 278.826 169.786 280.769 168.21C282.715 166.635 286.379 174.703 287.061 176.202C286.325 177.368 285.379 178.074 284.485 178.896Z" fill="white"/>
<path d="M364.959 162.224C366.764 162.224 368.7 162.354 370.507 162.613C375.022 163.131 376.569 166.37 376.053 169.998C373.86 188.654 380.053 206.403 379.538 225.06C372.57 224.801 365.604 224.801 358.765 224.542C359.928 210.679 361.992 196.816 364.829 182.694C366.508 175.958 367.538 169.09 364.959 162.224Z" fill="#B8D3F4"/>
<path d="M364.959 162.224C367.409 169.091 366.508 175.958 364.829 182.824C361.991 196.947 359.928 210.809 358.765 224.673C354.38 224.544 349.995 224.413 345.608 224.025C345.738 203.814 345.865 183.731 346.382 163.262C352.704 162.613 358.896 162.094 364.959 162.224Z" fill="#B8D3F4"/>
<path d="M333.094 170.257C333.611 165.333 335.415 164.556 339.543 164.038C341.865 163.778 344.189 163.519 346.511 163.26C345.994 183.729 345.738 203.812 345.738 224.023C341.222 223.634 336.707 222.987 332.063 222.08C333.482 204.72 331.159 186.71 333.094 170.257Z" fill="#B8D3F4"/>
<path d="M347.284 301.111C345.478 303.053 343.802 304.738 342.123 306.812C342.769 307.848 338.77 314.196 341.865 313.808C344.834 313.289 348.834 306.422 350.896 303.831C349.865 302.406 348.705 301.629 347.284 301.111Z" fill="#0084B5"/>
<path d="M364.443 313.03C361.734 313.29 359.154 313.55 356.316 313.808C356.056 314.973 348.834 317.176 351.67 318.991C354.379 320.802 361.99 318.084 365.604 317.695C365.733 315.88 365.347 314.455 364.443 313.03Z" fill="#0084B5"/>
<path d="M365.086 165.074C364.829 168.573 357.09 168.183 354.639 168.573C352.188 168.962 344.317 170.516 344.189 166.759C344.189 163.002 352.059 163.261 354.509 163.002C357.09 162.742 365.347 161.576 365.086 165.074Z" fill="white"/>
<path d="M360.187 148.361C360.187 153.933 360.187 158.985 363.155 163.778C357.606 166.498 352.447 166.887 346.511 165.462C348.705 160.538 349.349 155.616 349.091 150.304C352.833 149.527 356.573 149.009 360.187 148.361Z" fill="url(#paint4_linear)"/>
<path d="M361.246 147.823C359.183 153.056 349.753 156.91 344.1 153.945C338.575 151.01 339.838 143.05 341.874 137.944C343.937 132.711 350.343 130.926 355.551 132.985C362.483 135.593 364.267 140.289 361.246 147.823Z" fill="white"/>
<path d="M345.381 133.326C340.14 136.326 339.294 140.919 338.985 146.577C340.173 146.598 341.27 146.462 342.459 146.483C343.401 142.046 344.313 137.733 345.381 133.326Z" fill="white"/>
<path d="M343.156 149.009C342.769 149.398 342.383 149.786 341.994 150.045C341.994 149.786 341.865 149.527 341.865 149.268C342.254 149.268 342.77 149.139 343.156 149.009Z" fill="#EAEAEA"/>
<path d="M345.216 142.217C345.154 142.469 344.845 142.661 344.593 142.6C344.342 142.54 344.153 142.227 344.213 141.975C344.275 141.724 344.585 141.532 344.838 141.593C345.12 141.528 345.309 141.84 345.216 142.217Z" fill="#C6C6C6"/>
<path d="M389.987 235.425C389.34 236.979 387.664 240.995 389.083 242.162C390.501 243.328 390.631 238.275 390.501 237.757C391.535 239.441 392.694 246.048 395.404 245.66C397.984 245.27 394.631 237.109 393.857 235.554C392.566 235.425 391.277 235.425 389.987 235.425Z" fill="white"/>
<path d="M359.6 144.759C359.596 144.225 353.863 143.239 355.803 138.51C357.747 133.782 349.913 132.155 349.913 132.155C349.913 132.155 356.93 128.386 363.222 133.106C369.512 137.823 369.864 144.574 366.279 151.706C362.691 158.837 356.389 151.982 356.389 151.982L361.246 147.823L359.6 144.759Z" fill="#3385FF"/>
<path d="M358.698 130.945C358.698 130.945 344.795 124.787 340.508 129.882C336.345 135.007 355.582 132.858 355.582 132.858L358.698 130.945Z" fill="#3385FF"/>
<path d="M339.785 146.704C339.785 146.704 342.848 144.947 345.611 146.725C348.374 148.501 349.975 152.771 352.536 149.091C355.224 145.44 352.877 142.516 354.917 139.263C356.955 136.01 354.605 132.53 351.919 132.159C349.264 131.655 343.99 131.075 344.181 130.289C344.372 129.503 350.606 127.264 354.581 129.195C358.554 131.126 363.186 133.772 363.249 137.532C363.341 141.16 362.619 149.863 358.512 151.923C354.403 153.981 350.231 156.301 344.982 154.479C339.6 152.624 339.785 146.704 339.785 146.704Z" fill="#3385FF"/>
<path d="M357.725 145.373C358.875 143.918 358.983 141.279 361.875 143.043C364.732 144.933 361.069 149.647 357.746 148.577" fill="white"/>
<path d="M357.725 145.373C358.875 143.918 358.983 141.279 361.875 143.043C364.732 144.933 361.069 149.647 357.746 148.577" stroke="#EAEAEA" stroke-width="0.2423"/>
<path opacity="0.2" d="M240.089 392.781L295.895 448.5L368.748 417.223L308.427 357.136L240.089 392.781Z" fill="url(#paint5_linear)"/>
<path d="M329.847 337.933L329.7 376.778L312.363 376.633L312.506 337.789L329.847 337.933Z" fill="#0079F2"/>
<path d="M252.037 379.831L252.183 340.989C252.183 336.477 255.098 332.114 260.779 328.768C272.583 321.928 292.106 322.074 304.054 329.057C308.572 331.677 311.34 334.586 312.363 337.932L312.217 376.778C311.05 373.431 308.279 370.522 303.911 367.9C291.817 360.918 272.292 360.918 260.636 367.611C254.952 370.959 252.037 375.324 252.037 379.831Z" fill="#197FF9"/>
<path d="M289.924 368.778L289.777 407.619L289.485 397.583L289.631 358.736L289.924 368.778Z" fill="#B8D3F4"/>
<path d="M330.284 345.354L330.138 384.197C328.825 389.871 324.454 395.547 317.024 399.909C309.448 404.273 299.828 406.747 289.778 407.62L289.924 368.779C299.831 368.049 309.592 365.427 317.168 361.066C324.747 356.7 328.972 351.171 330.284 345.354Z" fill="#B8BAF4"/>
<path d="M330.284 345.354L330.138 384.197C328.825 389.871 324.454 395.547 317.024 399.909C309.448 404.273 299.828 406.747 289.778 407.62L289.924 368.779C299.831 368.049 309.592 365.427 317.168 361.066C324.747 356.7 328.972 351.171 330.284 345.354Z" fill="url(#paint6_linear)"/>
<path d="M330.284 345.354C328.971 351.026 324.6 356.701 317.168 361.066C309.739 365.427 299.975 367.901 289.924 368.779L289.778 358.737C295.313 358.009 300.56 356.409 304.784 353.938C309.154 351.319 311.779 348.408 312.944 345.207L330.284 345.354Z" fill="#B8D3F4"/>
<path d="M234.553 379.542L234.699 340.696C234.699 347.971 239.653 355.245 249.269 360.773C257.138 365.285 267.047 367.9 276.954 368.778L276.808 407.619C266.9 406.746 256.993 404.128 249.122 399.619C239.361 394.088 234.553 386.815 234.553 379.542Z" fill="#469AED"/>
<path d="M234.553 379.542L234.699 340.696C234.699 347.971 239.653 355.245 249.269 360.773C257.138 365.285 267.047 367.9 276.954 368.778L276.808 407.619C266.9 406.746 256.993 404.128 249.122 399.619C239.361 394.088 234.553 386.815 234.553 379.542Z" fill="#197FF9"/>
<path d="M316.003 322.074C323.725 326.586 328.244 332.259 329.847 337.932L312.506 337.788C311.341 334.44 308.572 331.531 304.202 328.911C292.106 321.928 272.583 321.928 260.925 328.62C249.122 335.461 249.415 346.807 261.511 353.643C266.025 356.264 271.418 357.865 276.808 358.591L276.954 368.629C267.048 367.755 257.139 365.136 249.269 360.626C230.329 349.716 229.598 332.257 248.251 321.49C266.756 310.873 297.206 311.165 316.003 322.074Z" fill="url(#paint7_linear)"/>
<g opacity="0.82">
<path opacity="0.82" d="M234.553 379.542L234.699 340.696C234.699 347.971 239.653 355.245 249.269 360.773C257.138 365.285 267.047 367.9 276.954 368.778L276.808 407.619C266.9 406.746 256.993 404.128 249.122 399.619C239.361 394.088 234.553 386.815 234.553 379.542Z" fill="url(#paint8_linear)"/>
</g>
<path d="M270 321.96C268.854 321.874 259.898 327.308 259.719 325.102C259.539 322.9 264.966 319.853 266.775 318.835C266.42 318.924 261.299 319.458 262.447 318.048C263.595 316.638 268.007 317.777 269.598 318.126C269.731 319.406 269.997 320.463 270 321.96Z" fill="white"/>
<path d="M307.278 306.791C304.758 304.988 302.328 303.538 299.898 302.086C296.291 310.111 284.295 316.122 270.392 318.301C270.437 319.228 270.349 320.373 270.618 321.432C289.723 317.571 301.767 312.485 307.278 306.791Z" fill="white"/>
<path d="M299.898 302.086C302.196 303.756 304.847 305.341 307.278 306.791C316.445 296.995 308.88 284.091 287.315 267.022C282.289 272.405 281.186 273.24 288.08 278.259C300.233 287.013 303.068 295.293 299.898 302.086Z" fill="#ACC5DD"/>
<path d="M290.156 326.091C283.593 349.373 254.853 332.191 246.24 339.991C237.626 347.79 244.427 377.364 244.427 377.364L238.38 381.561C238.38 381.561 228.133 333.81 235.154 327.254C240.896 321.948 262.234 321.538 262.234 321.538C262.234 321.538 232.583 316.181 228.399 323.239C224.218 330.294 232.517 352.785 232.517 352.785L227.582 356.204C227.582 356.204 206.933 305.66 217.695 304.193C228.456 302.728 257.335 306.34 257.335 306.34C257.335 306.34 296.716 302.964 290.156 326.091Z" fill="#48A1F9"/>
<path d="M234.993 358.515C232.937 359.305 225.353 363.092 223.93 361.827C222.509 360.565 228.67 357.254 228.67 355.676C230.408 354.888 231.672 354.414 233.095 353.783C234.201 355.044 234.833 356.936 234.993 358.515Z" fill="#0084B5"/>
<path d="M248.738 381.707C247.158 383.444 241.786 390.856 239.891 390.383C237.833 389.912 241.312 383.127 240.995 381.551C242.418 380.131 243.523 379.025 244.946 377.92C246.368 378.553 247.79 380.287 248.738 381.707Z" fill="#0084B5"/>
<path d="M256.829 307.041C261.34 310.884 263.126 315.977 269.305 318.707C275.489 321.429 285.067 321.409 291.679 324.955C293.922 318.474 294.415 308.965 294.325 302.494C294.045 290.576 294.217 279.222 290.981 268.284C289.679 263.495 279.277 263.941 275.493 263.02C274.755 262.685 274.47 262.912 273.958 262.856C273.449 262.804 272.933 262.748 272.423 262.693C271.373 262.842 269.811 262.934 268.219 263.282C267.681 263.484 267.167 263.429 266.628 263.634C259.254 267.242 263.56 275.456 260.334 278.988C260.279 279.501 260.227 280.01 260.172 280.52C259.763 284.353 260.46 287.53 267.226 287.216C267.424 287.753 267.656 288.035 267.858 288.573C268.838 291.519 269.56 294.438 269.235 297.504C268.381 303.096 260.084 303.254 256.829 307.041Z" fill="#B8D3F4"/>
<path d="M273.958 262.856C271.911 262.642 264.946 262.419 265.131 265.539C265.319 268.66 272.337 268.371 274.412 268.333C276.486 268.299 284.758 268.398 284.545 265.534C284.588 262.695 276.007 263.075 273.958 262.856Z" fill="white"/>
<path d="M272.759 249.81C272.524 254.436 272.558 261.419 268.082 264.561C272.58 266.073 277.135 267.075 281.27 264.666C276.91 261.879 279.542 254.148 280.772 249.886C278.189 249.87 275.602 249.854 272.759 249.81Z" fill="url(#paint9_linear)"/>
<path d="M278.438 231.885C273.217 229.562 265.993 232.277 264.127 236.818C262.193 241.609 259.486 251.797 264.036 253.659C270.243 256.267 281.33 252.268 283.658 247.059C286.951 239.448 285.807 235.102 278.438 231.885Z" fill="white"/>
<path d="M277.379 238.271C277.214 242.505 277.143 242.75 280.282 243.932C280.734 245.134 281.112 246.582 281.567 247.787C280.177 249.792 278.717 252.044 277.5 254.366C282.534 251.814 286.675 251.414 290.629 246.141C294.651 240.621 288.658 230.845 282.801 228.873C276.946 226.898 273.186 228.748 268.751 232.008C270.108 235.617 277.718 234.35 277.379 238.271Z" fill="#0098D2"/>
<path d="M294.128 252.515C292.48 256.316 296.125 255.774 298.319 255.608C295.517 256.937 291.782 261.468 288.261 258.837C284.913 256.526 289.775 247.235 291.45 244.24C298.277 243.82 295.7 248.959 294.128 252.515Z" fill="#0098D2"/>
<path d="M279.551 248.271C283.428 249.668 287.281 243.831 284.212 242.401C281.464 240.797 280.918 243.583 279.993 244.919" fill="white"/>
<path d="M279.551 248.271C283.428 249.668 287.281 243.831 284.212 242.401C281.464 240.797 280.918 243.583 279.993 244.919" stroke="#EAEAEA" stroke-width="0.3734" stroke-miterlimit="10"/>
<path d="M263.498 248.146C262.368 248.353 261.06 248.241 259.928 248.446C261.141 246.123 262.141 244.54 263.109 242.145C263.788 240.736 265.25 238.485 266.104 237.396C266.958 236.304 267.742 235.462 268.102 234.229C266.732 238.915 265.361 243.604 263.498 248.146Z" fill="white"/>
<path d="M262.732 251.587C262.961 251.872 262.933 252.13 262.908 252.382C263.472 251.925 263.759 251.697 264.323 251.242C263.786 251.443 263.245 251.643 262.732 251.587Z" fill="#EAEAEA"/>
<path d="M267.133 243.048C266.889 242.975 266.569 243.152 266.496 243.398C266.425 243.644 266.599 243.965 266.847 244.038C267.092 244.109 267.412 243.931 267.484 243.685C267.556 243.438 267.381 243.12 267.133 243.048Z" fill="#C6C6C6"/>
<path d="M233.043 277.641C232.639 276.568 223.941 270.732 225.87 269.644C227.797 268.556 232.845 272.196 234.529 273.407C234.299 273.122 231.664 268.707 233.426 269.155C235.192 269.603 236.008 274.081 236.359 275.666C235.252 276.325 234.402 277.012 233.043 277.641Z" fill="white"/>
<path d="M262.479 305.06C263.058 302.018 263.359 299.207 263.658 296.397C254.849 296.496 244.349 288.148 236.533 276.462C235.711 276.891 234.631 277.292 233.783 277.98C245.311 293.673 254.988 302.453 262.479 305.06Z" fill="white"/>
<path d="M263.657 296.396C263.103 299.178 262.776 302.249 262.478 305.059C275.229 309.254 283.785 296.982 290.249 270.274C283.248 267.98 282.024 267.331 280.356 275.684C277.502 290.373 271.163 296.417 263.657 296.396Z" fill="#ACC5DD"/>
<path d="M60.655 262.116L60.551 295.677C60.235 295.472 59.815 295.472 59.499 295.677C59.394 295.78 59.289 295.883 59.289 295.985L59.394 262.425C59.394 262.321 59.499 262.219 59.604 262.116C59.815 262.014 60.34 262.014 60.655 262.116Z" fill="#858585"/>
<path d="M59.604 262.733L59.499 296.294C59.394 296.191 59.289 296.089 59.289 295.984L59.394 262.424C59.395 262.528 59.395 262.63 59.604 262.733Z" fill="#245C7B"/>
<path d="M57.502 263.865L57.396 297.427C57.082 297.222 56.661 297.222 56.345 297.427C56.241 297.531 56.136 297.634 56.136 297.737L56.241 264.176C56.241 264.072 56.345 263.969 56.451 263.865C56.765 263.762 57.187 263.762 57.502 263.865Z" fill="#858585"/>
<path d="M56.1355 297.839L56.2405 264.277C56.2405 264.38 56.3445 264.483 56.4505 264.587L56.3455 298.148C56.2405 298.044 56.1355 297.941 56.1355 297.839Z" fill="#0098D2"/>
<path d="M56.4505 264.483L56.3455 298.044C56.2415 297.941 56.1365 297.839 56.1365 297.736L56.2415 264.175C56.2405 264.277 56.3445 264.38 56.4505 264.483Z" fill="#0098D2"/>
<path d="M52.9804 299.589L53.0864 266.026C53.0864 265.924 53.1914 265.821 53.2974 265.717C53.6124 265.513 54.0324 265.513 54.3494 265.717L54.2444 299.28C53.9274 299.074 53.5074 299.074 53.1924 299.28C53.0864 299.383 52.9804 299.486 52.9804 299.589Z" fill="#0098D2"/>
<path d="M54.3484 265.717L54.2434 299.28C53.9264 299.074 53.5064 299.074 53.1914 299.28C53.0864 299.383 52.9804 299.485 52.9804 299.589L53.0864 266.026C53.0864 265.924 53.1914 265.821 53.2974 265.717C53.6124 265.513 54.0324 265.513 54.3484 265.717Z" fill="#0098D2"/>
<path d="M52.9804 299.59L53.0864 266.027C53.0864 266.131 53.1914 266.234 53.2974 266.337L53.1924 299.899C53.0864 299.796 52.9804 299.693 52.9804 299.59Z" fill="#0098D2"/>
<path d="M53.2964 266.234L53.1914 299.797C53.0864 299.693 52.9804 299.591 52.9804 299.487L53.0864 265.925C53.0864 266.027 53.1914 266.234 53.2964 266.234Z" fill="#0098D2"/>
<path d="M51.1933 301.03C50.8783 300.823 50.4583 300.823 50.1423 301.03C50.1423 289.808 50.2473 278.588 50.2473 267.468C50.5613 267.261 50.9833 267.261 51.2993 267.468C51.1933 277.558 51.1933 290.941 51.1933 301.03Z" fill="#0098D2"/>
<path d="M51.2993 267.468L51.1934 301.03C50.8784 300.823 50.4584 300.823 50.1424 301.03C50.0384 301.134 49.9333 301.236 49.9333 301.341L50.0384 267.778C50.0384 267.674 50.1424 267.574 50.2484 267.469C50.4584 267.261 50.9843 267.261 51.2993 267.468Z" fill="#0098D2"/>
<path d="M51.3 267.469L51.194 301.031C50.879 300.824 50.459 300.824 50.143 301.031C50.039 301.135 49.934 301.237 49.934 301.342L50.039 267.779C50.039 267.675 50.143 267.575 50.249 267.47C50.458 267.262 50.984 267.262 51.3 267.469Z" fill="#858585"/>
<path d="M51.3 267.469L51.194 301.031C50.879 300.824 50.459 300.824 50.143 301.031C50.039 301.135 49.934 301.237 49.934 301.342L50.039 267.779C50.039 267.675 50.143 267.575 50.249 267.47C50.458 267.262 50.984 267.262 51.3 267.469Z" fill="#858585"/>
<path d="M50.248 268.087L50.143 301.649C50.039 301.545 49.934 301.442 49.934 301.341L50.039 267.778C50.038 267.881 50.038 267.984 50.248 268.087Z" fill="#245C7B"/>
<path d="M48.144 269.219L48.04 302.781C47.723 302.576 47.303 302.576 46.988 302.781C46.884 302.884 46.778 302.988 46.778 303.09L46.884 269.528C46.884 269.425 46.988 269.322 47.094 269.219C47.409 269.014 47.83 269.014 48.144 269.219Z" fill="#858585"/>
<path d="M47.094 269.837L46.988 303.399C46.884 303.296 46.778 303.193 46.778 303.089L46.884 269.527C46.884 269.63 46.988 269.733 47.094 269.837Z" fill="#245C7B"/>
<path d="M44.99 270.969L44.885 304.531C44.571 304.326 44.151 304.326 43.835 304.531C43.73 304.634 43.625 304.738 43.625 304.84L43.73 271.278C43.73 271.176 43.835 271.074 43.939 270.969C44.256 270.865 44.782 270.865 44.99 270.969Z" fill="#858585"/>
<path d="M43.939 271.586L43.835 305.148C43.73 305.045 43.625 304.943 43.625 304.839L43.73 271.277C43.729 271.381 43.834 271.484 43.939 271.586Z" fill="#245C7B"/>
<path d="M41.941 272.719L41.837 306.282C41.52 306.076 41.1 306.076 40.785 306.282C40.68 306.384 40.574 306.486 40.574 306.591L40.68 273.028C40.68 272.925 40.785 272.823 40.89 272.719C41.101 272.617 41.626 272.617 41.941 272.719Z" fill="#858585"/>
<path d="M40.891 273.337L40.786 306.898C40.681 306.796 40.575 306.693 40.575 306.59L40.681 273.027C40.681 273.131 40.681 273.234 40.891 273.337Z" fill="#245C7B"/>
<path d="M38.788 274.573L38.683 308.135C38.369 307.929 37.949 307.929 37.631 308.135C37.527 308.237 37.423 308.341 37.423 308.443L37.528 274.881C37.528 274.778 37.632 274.676 37.737 274.573C38.053 274.365 38.473 274.365 38.788 274.573Z" fill="#858585"/>
<path d="M37.736 275.086L37.63 308.649C37.526 308.545 37.422 308.443 37.422 308.341L37.527 274.778C37.527 274.983 37.63 275.086 37.736 275.086Z" fill="#245C7B"/>
<path d="M90.303 278.896L90.199 312.561L60.551 295.779L60.655 262.116L90.303 278.896Z" fill="#0098D2"/>
<path d="M90.3031 312.56C90.1991 312.56 90.1991 312.56 90.3031 312.56L90.4081 278.896C90.3031 290.117 90.3031 301.34 90.3031 312.56Z" fill="#0098D2"/>
<path d="M90.5141 279.204L90.4091 312.767C90.4091 312.663 90.3041 312.56 90.1991 312.457L90.3031 278.895C90.5141 279 90.5141 279.101 90.5141 279.204Z" fill="#0098D2"/>
<path d="M90.3032 312.561C90.3032 301.341 90.4082 290.118 90.4082 279C90.5132 279.102 90.6192 279.204 90.6192 279.308L90.5132 312.871C90.4082 312.768 90.4082 312.664 90.3032 312.561Z" fill="#0098D2"/>
<path d="M90.5141 279.204L90.4091 312.767C90.4091 312.663 90.3041 312.56 90.1991 312.457L90.3031 278.895C90.5141 279 90.5141 279.101 90.5141 279.204Z" fill="#0098D2"/>
<path d="M89.253 279.514L89.148 313.178L59.5 296.294L59.604 262.733L89.253 279.514Z" fill="#0098D2"/>
<path d="M90.5138 279.204L90.4088 312.767C90.4088 312.87 90.3038 312.972 90.1988 313.075C89.8828 313.28 89.4628 313.28 89.1478 313.075L89.2528 279.513C89.5678 279.719 89.9868 279.719 90.3028 279.513C90.5138 279.409 90.5138 279.308 90.5138 279.204Z" fill="#0098D2"/>
<path d="M90.5138 279.204L90.4088 312.767C90.4088 312.87 90.3038 312.972 90.1988 313.075C89.8828 313.28 89.4628 313.28 89.1478 313.075L89.2528 279.513C89.5678 279.719 89.9868 279.719 90.3028 279.513C90.5138 279.409 90.5138 279.308 90.5138 279.204Z" fill="#0098D2"/>
<path d="M90.303 278.896C90.62 279.101 90.62 279.307 90.303 279.513C89.987 279.719 89.568 279.719 89.253 279.513L59.5 262.733C59.184 262.528 59.184 262.321 59.5 262.116C59.815 261.909 60.236 261.909 60.552 262.116L90.303 278.896Z" fill="#45AEEA"/>
<path d="M87.255 280.748L87.15 314.311L57.396 297.53L57.502 263.865L87.255 280.748Z" fill="#0098D2"/>
<path d="M87.3612 314.62C87.3612 314.516 87.2552 314.414 87.1502 314.31L87.2552 280.747C87.3612 280.851 87.4652 280.955 87.4652 281.058C87.3612 291.043 87.3612 304.53 87.3612 314.62Z" fill="#0098D2"/>
<path d="M87.4652 280.956L87.3612 314.517C87.3612 314.414 87.2552 314.311 87.1502 314.208L87.2552 280.646C87.3612 280.748 87.4652 280.852 87.4652 280.956Z" fill="#0098D2"/>
<path d="M86.204 281.264L86.098 314.929L56.345 298.147L56.45 264.483L86.204 281.264Z" fill="#0098D2"/>
<path d="M87.255 280.748C87.57 280.956 87.57 281.161 87.255 281.366C86.939 281.574 86.519 281.574 86.204 281.366L56.451 264.587C56.136 264.38 56.136 264.176 56.451 263.969C56.766 263.762 57.188 263.762 57.503 263.969L87.255 280.748Z" fill="#45AEEA"/>
<path d="M87.4648 280.956L87.3598 314.517C87.3598 314.621 87.2558 314.723 87.1508 314.826C86.8358 315.032 86.4138 315.032 86.0988 314.826L86.2038 281.264C86.5188 281.47 86.9388 281.47 87.2548 281.264C87.3598 281.263 87.4648 281.058 87.4648 280.956Z" fill="#0098D2"/>
<path d="M87.4648 280.956L87.3598 314.517C87.3598 314.621 87.2558 314.723 87.1508 314.826C86.8358 315.032 86.4138 315.032 86.0988 314.826L86.2038 281.264C86.5188 281.47 86.9388 281.47 87.2548 281.264C87.3598 281.263 87.4648 281.058 87.4648 280.956Z" fill="#0098D2"/>
<path d="M84.1 282.5L83.996 316.062L54.243 299.281L54.349 265.718L84.1 282.5Z" fill="#0098D2"/>
<path d="M84.3101 282.807L84.2061 316.37C84.2061 316.268 84.1001 316.164 83.9961 316.061L84.1001 282.499C84.2061 282.602 84.3101 282.704 84.3101 282.807Z" fill="#0098D2"/>
<path d="M84.3101 282.807L84.2061 316.37C84.2061 316.268 84.1001 316.164 83.9961 316.061L84.1001 282.499C84.2061 282.602 84.3101 282.704 84.3101 282.807Z" fill="#0098D2"/>
<path d="M83.05 283.014L82.945 316.679L53.191 299.897L53.297 266.233L83.05 283.014Z" fill="#0098D2"/>
<path d="M84.3107 282.807L84.2067 316.37C84.2067 316.472 84.1007 316.577 83.9967 316.679C83.6807 316.883 83.2607 316.883 82.9457 316.679L83.0507 283.116C83.3647 283.323 83.7847 283.323 84.0997 283.116C84.2057 283.013 84.3107 282.909 84.3107 282.807Z" fill="#0098D2"/>
<path d="M84.3107 282.807L84.2067 316.37C84.2067 316.472 84.1007 316.577 83.9967 316.679C83.6807 316.883 83.2607 316.883 82.9457 316.679L83.0507 283.116C83.3647 283.323 83.7847 283.323 84.0997 283.116C84.2057 283.013 84.3107 282.909 84.3107 282.807Z" fill="#0098D2"/>
<path d="M80.947 284.248L80.841 317.811L51.193 301.03L51.3 267.469L80.947 284.248Z" fill="#0098D2"/>
<path d="M81.0521 318.12C81.0521 318.016 80.947 317.914 80.842 317.81L80.9471 284.247C81.0521 284.351 81.1561 284.455 81.1561 284.558C81.1561 294.648 81.1561 308.031 81.0521 318.12Z" fill="#0098D2"/>
<path d="M81.1561 284.558L81.0521 318.12C81.0521 318.016 80.947 317.914 80.842 317.81L80.9471 284.247C81.1561 284.352 81.1561 284.456 81.1561 284.558Z" fill="#0098D2"/>
<path d="M79.895 284.867L79.79 318.429L50.142 301.648L50.248 268.087L79.895 284.867Z" fill="#0098D2"/>
<path d="M81.1566 284.558L81.0526 318.12C81.0526 318.224 80.9477 318.327 80.8427 318.429C80.5287 318.636 80.1076 318.636 79.7906 318.429L79.8956 284.867C80.2106 285.072 80.6326 285.072 80.9476 284.867C81.1566 284.764 81.1566 284.66 81.1566 284.558Z" fill="#0098D2"/>
<path d="M81.1566 284.558L81.0526 318.12C81.0526 318.224 80.9477 318.327 80.8427 318.429C80.5287 318.636 80.1076 318.636 79.7906 318.429L79.8956 284.867C80.2106 285.072 80.6326 285.072 80.9476 284.867C81.1566 284.764 81.1566 284.66 81.1566 284.558Z" fill="#0098D2"/>
<path d="M80.947 284.248C81.262 284.456 81.262 284.66 80.947 284.867C80.633 285.072 80.21 285.072 79.895 284.867L50.142 268.087C49.827 267.881 49.827 267.674 50.142 267.469C50.458 267.262 50.878 267.262 51.193 267.469L80.947 284.248Z" fill="#45AEEA"/>
<path d="M77.897 286L77.792 319.663L48.041 302.78L48.144 269.219L77.897 286Z" fill="#0098D2"/>
<path d="M78.1082 286.307L78.0031 319.87C78.0031 319.768 77.8982 319.664 77.7932 319.562L77.8981 286C78.0031 286.102 78.1082 286.206 78.1082 286.307Z" fill="#0098D2"/>
<path d="M78.1082 286.307L78.0031 319.87C78.0031 319.768 77.8982 319.664 77.7932 319.562L77.8981 286C78.0031 286.102 78.1082 286.206 78.1082 286.307Z" fill="#0098D2"/>
<path d="M76.845 286.617L76.742 320.179L46.988 303.398L47.094 269.837L76.845 286.617Z" fill="#0098D2"/>
<path d="M77.897 286C78.213 286.205 78.213 286.412 77.897 286.617C77.581 286.823 77.162 286.823 76.845 286.617L47.094 269.837C46.778 269.63 46.778 269.425 47.094 269.219C47.409 269.014 47.829 269.014 48.144 269.219L77.897 286Z" fill="#45AEEA"/>
<path d="M78.1078 286.307L78.0028 319.87C78.0028 319.974 77.8978 320.076 77.7928 320.18C77.4778 320.386 77.0578 320.386 76.7428 320.18L76.8458 286.618C77.1628 286.824 77.5818 286.824 77.8978 286.618C78.0028 286.515 78.1078 286.412 78.1078 286.307Z" fill="#0098D2"/>
<path d="M78.1078 286.307L78.0028 319.87C78.0028 319.974 77.8978 320.076 77.7928 320.18C77.4778 320.386 77.0578 320.386 76.7428 320.18L76.8458 286.618C77.1628 286.824 77.5818 286.824 77.8978 286.618C78.0028 286.515 78.1078 286.412 78.1078 286.307Z" fill="#0098D2"/>
<path d="M74.744 287.751L74.638 321.414L44.885 304.633L44.99 270.969L74.744 287.751Z" fill="#0098D2"/>
<path d="M74.954 288.057L74.85 321.62C74.85 321.518 74.745 321.414 74.639 321.311L74.745 287.75C74.849 287.852 74.954 287.956 74.954 288.057Z" fill="#0098D2"/>
<path d="M74.954 288.057L74.85 321.62C74.85 321.518 74.745 321.414 74.639 321.311L74.745 287.75C74.849 287.852 74.954 287.956 74.954 288.057Z" fill="#0098D2"/>
<path d="M73.692 288.367L73.587 322.032L43.939 305.147V271.586L73.692 288.367Z" fill="#0098D2"/>
<path d="M74.9536 288.057L74.8496 321.62C74.8496 321.724 74.7446 321.825 74.6386 321.929C74.3246 322.135 73.9036 322.135 73.5876 321.929L73.6926 288.367C74.0076 288.572 74.4296 288.572 74.7446 288.367C74.8486 288.263 74.9536 288.162 74.9536 288.057Z" fill="#0098D2"/>
<path d="M74.9536 288.057L74.8496 321.62C74.8496 321.724 74.7446 321.825 74.6386 321.929C74.3246 322.135 73.9036 322.135 73.5876 321.929L73.6926 288.367C74.0076 288.572 74.4296 288.572 74.7446 288.367C74.8486 288.263 74.9536 288.162 74.9536 288.057Z" fill="#0098D2"/>
<path d="M74.744 287.751C75.059 287.956 75.059 288.162 74.744 288.367C74.429 288.572 74.007 288.572 73.692 288.367L43.939 271.586C43.624 271.381 43.624 271.176 43.939 270.969C44.256 270.762 44.676 270.762 44.99 270.969L74.744 287.751Z" fill="#45AEEA"/>
<path d="M71.59 289.603L71.485 323.164L41.837 306.383L41.941 272.719L71.59 289.603Z" fill="#0098D2"/>
<path d="M71.8 289.912L71.695 323.473C71.695 323.371 71.59 323.265 71.486 323.164L71.59 289.602C71.8 289.602 71.8 289.808 71.8 289.912Z" fill="#0098D2"/>
<path d="M71.8 289.912L71.695 323.473C71.695 323.371 71.59 323.265 71.486 323.164L71.59 289.602C71.8 289.602 71.8 289.808 71.8 289.912Z" fill="#0098D2"/>
<path d="M70.54 290.117V323.781L40.786 307.002L40.891 273.337L70.54 290.117Z" fill="#0098D2"/>
<path d="M71.8006 289.912L71.6956 323.473C71.6956 323.577 71.5906 323.679 71.4866 323.782C71.1706 323.989 70.7486 323.989 70.4346 323.782L70.5406 290.221C70.8546 290.429 71.2746 290.429 71.5906 290.221C71.8006 290.117 71.8006 290.014 71.8006 289.912Z" fill="#0098D2"/>
<path d="M71.8006 289.912L71.6956 323.473C71.6956 323.577 71.5906 323.679 71.4866 323.782C71.1706 323.989 70.7486 323.989 70.4346 323.782L70.5406 290.221C70.8546 290.429 71.2746 290.429 71.5906 290.221C71.8006 290.117 71.8006 290.014 71.8006 289.912Z" fill="#0098D2"/>
<path d="M68.541 291.354L68.436 324.916L38.682 308.135L38.788 274.573L68.541 291.354Z" fill="#0098D2"/>
<path d="M68.7509 291.661L68.6469 325.223C68.6469 325.121 68.5419 325.018 68.4369 324.916L68.5419 291.353C68.6459 291.456 68.7509 291.558 68.7509 291.661Z" fill="#0098D2"/>
<path d="M68.7509 291.661L68.6469 325.223C68.6469 325.121 68.5419 325.018 68.4369 324.916L68.5419 291.353C68.6459 291.456 68.7509 291.558 68.7509 291.661Z" fill="#0098D2"/>
<path d="M67.489 291.971L67.384 325.532L37.63 308.752L37.736 275.086L67.489 291.971Z" fill="#0098D2"/>
<path d="M68.7505 291.661L68.6465 325.223C68.6465 325.327 68.5415 325.43 68.4365 325.533C68.1215 325.738 67.7005 325.738 67.3845 325.533L67.4895 291.971C67.8045 292.176 68.2265 292.176 68.5415 291.971C68.6455 291.867 68.7505 291.763 68.7505 291.661Z" fill="#0098D2"/>
<path d="M68.7505 291.661L68.6465 325.223C68.6465 325.327 68.5415 325.43 68.4365 325.533C68.1215 325.738 67.7005 325.738 67.3845 325.533L67.4895 291.971C67.8045 292.176 68.2265 292.176 68.5415 291.971C68.6455 291.867 68.7505 291.763 68.7505 291.661Z" fill="#0098D2"/>
<path d="M68.541 291.354C68.856 291.559 68.856 291.764 68.541 291.971C68.227 292.176 67.805 292.176 67.489 291.971L37.736 275.189C37.422 274.984 37.422 274.779 37.736 274.574C38.052 274.366 38.472 274.366 38.787 274.574L68.541 291.354Z" fill="#45AEEA"/>
<path d="M71.59 289.603C71.905 289.809 71.905 290.015 71.59 290.221C71.274 290.429 70.8541 290.429 70.5401 290.221L40.7861 273.441C40.4711 273.235 40.4711 273.028 40.7861 272.823C41.1011 272.618 41.5211 272.618 41.8381 272.823L71.59 289.603Z" fill="#45AEEA"/>
<path d="M84.1 282.5C84.416 282.704 84.416 282.909 84.1 283.116C83.785 283.323 83.365 283.323 83.051 283.116L53.298 266.336C52.981 266.13 52.981 265.925 53.298 265.718C53.613 265.514 54.033 265.514 54.35 265.718L84.1 282.5Z" fill="#45AEEA"/>
<path d="M442.5 349.063L365.604 317.695L351.671 318.991L390.071 347.028L348.707 321.495H342.705L398.903 368.465H442.5V349.063Z" fill="url(#paint10_linear)"/>
<path d="M180.298 138.902C180.298 142.912 179.581 146.759 178.273 150.32L179.042 150.738C180.414 147.049 181.167 143.062 181.167 138.901C181.167 133.728 180.002 128.825 177.929 124.43L177.102 124.709C179.148 129.016 180.298 133.827 180.298 138.902Z" fill="#5DA4F9"/>
<path d="M191.308 138.902C191.308 144.816 190.132 150.458 188.015 155.618L189.039 156.175C191.244 150.848 192.466 145.016 192.466 138.902C192.466 132.467 191.11 126.346 188.682 120.796L187.58 121.168C189.971 126.601 191.308 132.597 191.308 138.902Z" fill="#5DA4F9"/>
<path d="M204.55 138.902C204.55 147.105 202.809 154.905 199.696 161.97L201.021 162.691C204.247 155.41 206.054 147.365 206.054 138.902C206.054 130.947 204.46 123.36 201.592 116.431L200.165 116.913C202.986 123.69 204.55 131.116 204.55 138.902Z" fill="#5DA4F9"/>
<path d="M217 138.902C217 149.257 214.719 159.084 210.66 167.932L212.271 168.808C216.47 159.698 218.831 149.574 218.831 138.902C218.831 129.518 217 120.558 213.708 112.335L211.972 112.922C215.204 120.959 217 129.722 217 138.902Z" fill="#5DA4F9"/>
<path d="M231.398 138.902C231.398 151.745 228.505 163.925 223.345 174.829L225.288 175.886C230.618 164.667 233.607 152.128 233.607 138.902C233.607 127.864 231.524 117.305 227.738 107.591L225.645 108.299C229.357 117.79 231.398 128.112 231.398 138.902Z" fill="#5DA4F9"/>
<defs>
<linearGradient id="paint0_linear" x1="67.3373" y1="139.433" x2="403.532" y2="349.555" gradientUnits="userSpaceOnUse">
<stop stop-color="white"/>
<stop offset="0.0932" stop-color="white" stop-opacity="0.9068"/>
<stop offset="1" stop-color="white" stop-opacity="0"/>
</linearGradient>
<linearGradient id="paint1_linear" x1="26.3629" y1="204.861" x2="362.593" y2="415.005" gradientUnits="userSpaceOnUse">
<stop stop-color="white"/>
<stop offset="0.0932" stop-color="white" stop-opacity="0.9068"/>
<stop offset="1" stop-color="white" stop-opacity="0"/>
</linearGradient>
<linearGradient id="paint2_linear" x1="198.149" y1="70.2739" x2="198.149" y2="354.639" gradientUnits="userSpaceOnUse">
<stop offset="0.0875" stop-color="#469AED"/>
<stop offset="1" stop-color="#469AED" stop-opacity="0"/>
</linearGradient>
<linearGradient id="paint3_linear" x1="140.981" y1="126.077" x2="140.981" y2="139.044" gradientUnits="userSpaceOnUse">
<stop stop-color="#E2E3E4"/>
<stop offset="0.9872" stop-color="white"/>
</linearGradient>
<linearGradient id="paint4_linear" x1="354.846" y1="150.912" x2="354.846" y2="163.419" gradientUnits="userSpaceOnUse">
<stop stop-color="#E2E3E4"/>
<stop offset="0.9872" stop-color="white"/>
</linearGradient>
<linearGradient id="paint5_linear" x1="321.014" y1="426.259" x2="271.229" y2="362.457" gradientUnits="userSpaceOnUse">
<stop stop-color="#469AED" stop-opacity="0"/>
<stop offset="0.8775" stop-color="#469AED"/>
</linearGradient>
<linearGradient id="paint6_linear" x1="308.93" y1="351.094" x2="312.428" y2="432.055" gradientUnits="userSpaceOnUse">
<stop stop-color="#469AED" stop-opacity="0"/>
<stop offset="0.8725" stop-color="#FFFFED"/>
</linearGradient>
<linearGradient id="paint7_linear" x1="260.697" y1="304.861" x2="296.925" y2="365.417" gradientUnits="userSpaceOnUse">
<stop stop-color="#99D3F5"/>
<stop offset="0.5225" stop-color="#3385FF"/>
<stop offset="0.9925" stop-color="#3385FF"/>
</linearGradient>
<linearGradient id="paint8_linear" x1="255.748" y1="358.697" x2="255.748" y2="441.955" gradientUnits="userSpaceOnUse">
<stop stop-color="white" stop-opacity="0"/>
<stop offset="0.411" stop-color="#FFFFFB" stop-opacity="0.4711"/>
<stop offset="0.8321" stop-color="#FFFFEF" stop-opacity="0.9537"/>
<stop offset="0.8725" stop-color="#FFFFED"/>
</linearGradient>
<linearGradient id="paint9_linear" x1="276.028" y1="251.848" x2="274.782" y2="263.568" gradientUnits="userSpaceOnUse">
<stop stop-color="#E2E3E4"/>
<stop offset="0.9872" stop-color="white"/>
</linearGradient>
<linearGradient id="paint10_linear" x1="392.602" y1="170.609" x2="392.602" y2="362.957" gradientUnits="userSpaceOnUse">
<stop offset="0.0875" stop-color="#469AED"/>
<stop offset="1" stop-color="#469AED" stop-opacity="0"/>
</linearGradient>
</defs>
</svg>
