<svg width="167" height="28" viewBox="0 0 167 28" fill="none" xmlns="http://www.w3.org/2000/svg">
<path fill-rule="evenodd" clip-rule="evenodd" d="M106.227 5H107.959C107.994 5 108.029 5.03604 108.065 5.10811V20.1712C108.065 20.2432 108.029 20.2793 107.959 20.2793H106.227C106.157 20.2793 106.121 20.2432 106.121 20.1712V5.10811C106.121 5.03604 106.157 5 106.227 5ZM139.511 9.68468H141.454C141.49 9.68468 141.56 9.75676 141.56 9.79279V11.5586C141.56 11.6306 141.525 11.6667 141.454 11.6667H139.511C139.476 11.6667 139.44 11.7027 139.44 11.7387V20.1712C139.44 20.2432 139.405 20.2793 139.334 20.2793H137.603C137.532 20.2793 137.497 20.2432 137.497 20.1712V11.7387C137.497 11.7027 137.462 11.6667 137.426 11.6667H135.518C135.448 11.6667 135.412 11.6306 135.412 11.5586V9.79279C135.412 9.72072 135.448 9.68468 135.518 9.68468H137.426C137.462 9.68468 137.497 9.64865 137.497 9.61261V5.10811C137.497 5.03604 137.532 5 137.603 5H139.334C139.405 5 139.44 5.03604 139.44 5.10811V9.61261C139.44 9.64865 139.476 9.68468 139.511 9.68468ZM145.023 6.2973H143.292C143.221 6.2973 143.186 6.33334 143.186 6.40541V8.17118C143.186 8.24325 143.221 8.27928 143.292 8.27928H145.023C145.094 8.27928 145.129 8.24325 145.129 8.17118V6.40541C145.129 6.33334 145.094 6.2973 145.023 6.2973ZM159.227 17.3243C159.863 18.0451 160.746 18.4775 161.771 18.4775C163.078 18.4775 164.209 17.7207 164.845 16.6397C164.845 16.5676 164.915 16.5676 164.951 16.5676L166.682 16.8919C166.753 16.8919 166.788 16.964 166.753 17.036C165.94 19.018 164.032 20.4234 161.806 20.4234C158.732 20.4234 156.294 17.8288 156.435 14.6937C156.541 11.8829 158.838 9.61263 161.594 9.50452C164.209 9.39641 166.435 11.2342 167 13.7207C167 13.7568 167 13.7928 166.929 13.8288L165.198 14.5856L159.262 17.1442C159.191 17.1802 159.191 17.2523 159.227 17.3243ZM164.315 12.6757C163.714 11.955 162.795 11.4865 161.771 11.4865C159.863 11.4865 158.308 13.036 158.343 15.018V15.3063C158.343 15.3424 158.414 15.4144 158.485 15.3784C158.555 15.3424 164.279 12.8559 164.279 12.8559C164.35 12.8198 164.35 12.7478 164.315 12.6757ZM156.188 9.68469H154.492C154.457 9.68469 154.421 9.72073 154.386 9.75677L151.63 18.009C151.559 18.1892 151.347 18.1892 151.277 18.009L148.521 9.75677C148.521 9.72073 148.485 9.68469 148.415 9.68469H146.719C146.648 9.68469 146.613 9.75677 146.613 9.82884L150.111 20.2072C150.111 20.2433 150.146 20.2793 150.217 20.2793H152.619C152.655 20.2793 152.69 20.2433 152.725 20.2072L156.223 9.82884C156.294 9.75677 156.259 9.68469 156.188 9.68469ZM143.292 9.68469H145.023C145.094 9.68469 145.129 9.75677 145.129 9.7928V20.1712C145.129 20.2433 145.094 20.2793 145.023 20.2793H143.292C143.221 20.2793 143.186 20.2433 143.186 20.1712V9.7928C143.186 9.72073 143.221 9.68469 143.292 9.68469ZM130.112 18.4775C127.992 18.4775 126.332 16.5315 126.72 14.2973C126.932 13.0721 128.134 11.8108 129.335 11.5586C130.642 11.2703 131.879 11.7387 132.656 12.6396C132.692 12.6757 132.762 12.6757 132.798 12.6396L134.034 11.3784C134.07 11.3423 134.07 11.2703 134.034 11.2342C133.01 10.0811 131.49 9.39639 129.83 9.46847C127.109 9.61261 124.848 11.8829 124.706 14.6577C124.565 17.7928 127.003 20.3874 130.077 20.3874C131.632 20.3874 133.045 19.7027 134.034 18.6216C134.07 18.5856 134.07 18.5495 134.034 18.5135L132.798 17.2523C132.762 17.2162 132.692 17.2162 132.656 17.2523C132.056 18.045 131.137 18.4775 130.112 18.4775ZM111.739 5H110.008C109.937 5 109.902 5.03604 109.902 5.10811V20.1712C109.902 20.2432 109.937 20.2793 110.008 20.2793H111.739C111.81 20.2793 111.845 20.2432 111.845 20.1712V5.10811C111.845 5.03604 111.775 5 111.739 5ZM86.2287 14.2973C85.8401 16.5315 87.5007 18.4775 89.6207 18.4775C90.6453 18.4775 91.564 18.045 92.1647 17.2523C92.2 17.2162 92.2707 17.2162 92.306 17.2523L93.5427 18.5135C93.578 18.5495 93.578 18.5856 93.5427 18.6216C92.5533 19.7027 91.14 20.3874 89.5854 20.3874C86.5114 20.3874 84.0734 17.7928 84.2147 14.6577C84.3561 11.8829 86.6174 9.61261 89.338 9.46847C90.9987 9.39639 92.518 10.0811 93.5427 11.2342C93.578 11.2703 93.578 11.3423 93.5427 11.3784L92.306 12.6396C92.2707 12.6757 92.2 12.6757 92.1647 12.6396C91.3873 11.7387 90.1507 11.2703 88.8434 11.5586C87.642 11.8108 86.4407 13.0721 86.2287 14.2973ZM74.1383 9.5045C73.0076 9.5045 71.7003 10.2252 71.0997 11.0901C71.0643 11.1622 70.923 11.1261 70.923 11.0541V9.79279C70.923 9.75675 70.8877 9.68468 70.817 9.68468H69.0857C69.0503 9.68468 68.9797 9.72072 68.9797 9.79279V15.018V20.2072C68.9797 20.2432 69.015 20.3153 69.0857 20.3153H70.817C70.8523 20.3153 70.923 20.2793 70.923 20.2072V15.018C70.923 13.036 72.2303 11.6306 74.103 11.6306C76.5763 11.6306 77.3183 13.2883 77.3183 15.2342V20.2072C77.3183 20.2432 77.3536 20.3153 77.4243 20.3153H79.1556C79.1909 20.3153 79.2616 20.2793 79.2616 20.2072V15.2342C79.2969 12.2072 77.8836 9.5045 74.1383 9.5045ZM60.1818 17.3243C60.8178 18.045 61.7011 18.4775 62.7258 18.4775C64.0331 18.4775 65.1637 17.7207 65.7997 16.6396C65.7997 16.5676 65.8704 16.5676 65.9057 16.5676L67.637 16.8919C67.7077 16.8919 67.743 16.964 67.7077 17.036C66.8951 19.018 64.9871 20.4234 62.7611 20.4234C59.6871 20.4234 57.2491 17.8288 57.3905 14.6937C57.4965 11.8829 59.7931 9.61261 62.5491 9.5045C65.1637 9.39639 67.3897 11.2342 67.955 13.7207C67.955 13.7568 67.955 13.7928 67.8844 13.8288L66.1531 14.5856L60.2171 17.1441C60.1464 17.1802 60.1464 17.2523 60.1818 17.3243ZM118.558 18.4775C117.534 18.4775 116.65 18.045 116.014 17.3243C115.979 17.2523 115.979 17.1802 116.05 17.1441L121.986 14.5856L123.717 13.8288C123.788 13.7928 123.788 13.7568 123.788 13.7207C123.222 11.2342 120.996 9.39639 118.382 9.5045C115.626 9.61261 113.329 11.8829 113.223 14.6937C113.082 17.8288 115.52 20.4234 118.594 20.4234C120.82 20.4234 122.728 19.018 123.54 17.036C123.576 16.964 123.54 16.8919 123.47 16.8919L121.738 16.5676C121.703 16.5676 121.632 16.5676 121.632 16.6396C120.996 17.7207 119.83 18.4775 118.558 18.4775ZM118.558 11.4865C119.583 11.4865 120.502 11.9549 121.102 12.6757C121.138 12.7477 121.138 12.8198 121.067 12.8559C121.067 12.8559 115.343 15.3423 115.272 15.3784C115.202 15.4144 115.131 15.3423 115.131 15.3063V15.018C115.096 13.036 116.65 11.4865 118.558 11.4865ZM94.108 14.982C94.108 11.955 96.5106 9.5045 99.4786 9.5045C102.447 9.5045 104.849 11.955 104.849 14.982C104.849 18.009 102.447 20.4595 99.4786 20.4595C96.5106 20.4595 94.108 18.009 94.108 14.982ZM99.4786 11.4865C101.387 11.4865 102.906 13.0721 102.906 14.982C102.906 16.8919 101.351 18.4775 99.4786 18.4775C97.6059 18.4775 96.0513 16.8919 96.0513 14.982C96.0513 13.0721 97.5706 11.4865 99.4786 11.4865ZM62.7258 11.4865C63.7504 11.4865 64.6691 11.9549 65.2697 12.6757C65.3051 12.7477 65.3051 12.8198 65.2344 12.8559C65.2344 12.8559 59.5105 15.3423 59.4398 15.3784C59.3691 15.4144 59.2985 15.3423 59.2985 15.3063V15.018C59.2985 13.036 60.8531 11.4865 62.7258 11.4865ZM47.8505 10.8739C48.5925 9.97297 49.6525 9.43243 50.9952 9.39639C53.5745 9.36036 55.9065 11.2342 56.3305 13.8649C56.9665 17.3243 54.3518 20.3513 51.0658 20.3513C49.6525 20.3513 48.5572 19.7748 47.8152 18.8739C47.7445 18.8018 47.6385 18.8378 47.6385 18.9459V24.8919C47.6385 24.964 47.6032 25 47.5325 25H45.8366C45.7659 25 45.7306 24.964 45.7306 24.8919V9.79279C45.7306 9.72072 45.7659 9.68468 45.8366 9.68468H47.5679C47.6385 9.68468 47.6739 9.72072 47.6739 9.79279V10.8018C47.6739 10.9099 47.7799 10.9459 47.8505 10.8739ZM47.7092 14.2973C47.3205 16.6757 49.3345 18.7297 51.6665 18.3333C53.0798 18.0811 54.2458 16.9279 54.4578 15.4865C54.8465 13.1081 52.8325 11.054 50.5005 11.4504C49.0872 11.6667 47.9565 12.8558 47.7092 14.2973ZM39.3706 9.5045C36.4026 9.5045 34 11.955 34 14.982C34 18.009 36.4026 20.4595 39.3706 20.4595C42.3386 20.4595 44.7412 18.009 44.7412 14.982C44.7412 11.955 42.3386 9.5045 39.3706 9.5045ZM39.3706 11.4865C41.2786 11.4865 42.7979 13.0721 42.7979 14.982C42.7979 16.8919 41.2433 18.4775 39.3706 18.4775C37.498 18.4775 35.9433 16.8919 35.9433 14.982C35.9433 13.0721 37.498 11.4865 39.3706 11.4865Z" fill="#4E5052"/>
<path fill-rule="evenodd" clip-rule="evenodd" d="M25.509 6.02655C27.0795 8.28938 28 11.0371 28 14.0001C28 16.9631 27.0795 19.711 25.509 21.9736L21.8825 18.3471C22.5947 17.0585 23.0001 15.5765 23.0001 14.0001C23.0001 12.4237 22.5947 10.9419 21.8825 9.6533L25.509 6.02655Z" fill="#99C9FF"/>
<path fill-rule="evenodd" clip-rule="evenodd" d="M21.9735 2.49105L18.3468 6.11752C17.0582 5.40533 15.5764 4.99996 14 4.99996C9.0295 4.99996 4.9999 9.02956 4.9999 14.0001C4.9999 18.9706 9.0295 23.0002 14 23.0002C15.5764 23.0002 17.0582 22.5948 18.3468 21.8826L21.9735 25.5091C19.7107 27.0796 16.963 28.0001 14 28.0001C6.26808 28.0001 0 21.732 0 14.0001C0 6.26813 6.26808 6.10352e-05 14 6.10352e-05C16.963 6.10352e-05 19.7107 0.920535 21.9735 2.49105Z" fill="#3385FF"/>
</svg>
