<svg width="28" height="28" viewBox="0 0 28 28" fill="none" xmlns="http://www.w3.org/2000/svg">
<path fill-rule="evenodd" clip-rule="evenodd" d="M25.509 6.02649C27.0795 8.28932 28 11.037 28 14C28 16.963 27.0795 19.711 25.509 21.9735L21.8825 18.3471C22.5947 17.0585 23.0001 15.5764 23.0001 14C23.0001 12.4236 22.5947 10.9418 21.8825 9.65324L25.509 6.02649Z" fill="#99C9FF"/>
<path fill-rule="evenodd" clip-rule="evenodd" d="M21.9735 2.49111L18.3468 6.11758C17.0582 5.40539 15.5764 5.00002 14 5.00002C9.0295 5.00002 4.9999 9.02962 4.9999 14.0001C4.9999 18.9706 9.0295 23.0002 14 23.0002C15.5764 23.0002 17.0582 22.5949 18.3468 21.8827L21.9735 25.5091C19.7107 27.0796 16.963 28.0001 14 28.0001C6.26808 28.0001 0 21.732 0 14.0001C0 6.26819 6.26808 0.00012207 14 0.00012207C16.963 0.00012207 19.7107 0.920596 21.9735 2.49111Z" fill="#3385FF"/>
</svg>
