<svg width="1728" height="488" viewBox="0 0 1728 488" fill="none" xmlns="http://www.w3.org/2000/svg">
<mask id="mask0" mask-type="alpha" maskUnits="userSpaceOnUse" x="0" y="0" width="1728" height="488">
<rect width="1728" height="488" fill="url(#paint0_linear)"/>
</mask>
<g mask="url(#mask0)">
<g opacity="0.4">
<path fill-rule="evenodd" clip-rule="evenodd" d="M1646.24 155.691C1641.48 158.281 1639.54 164.613 1641.9 169.832C1644.26 175.053 1650.03 177.184 1654.8 174.595L1646.24 155.691Z" stroke="#99CFFF" stroke-width="2" stroke-linecap="round" stroke-linejoin="round"/>
<path fill-rule="evenodd" clip-rule="evenodd" d="M1416.83 122.183C1417.16 127.581 1421.44 131.67 1426.41 131.316C1431.37 130.963 1435.13 126.3 1434.8 120.9L1416.83 122.183Z" stroke="#99CFFF" stroke-width="2" stroke-linecap="round" stroke-linejoin="round"/>
<path d="M1365.75 220.055L1364.49 211.85L1372.71 210.596L1371.82 201.903L1380.03 200.659L1378.95 192.222" stroke="#99CFFF" stroke-width="2" stroke-linecap="round" stroke-linejoin="round"/>
<path fill-rule="evenodd" clip-rule="evenodd" d="M1481.79 235.35C1484.54 232.501 1484.59 227.82 1481.91 224.896C1479.23 221.973 1474.83 221.914 1472.08 224.765C1469.33 227.615 1469.28 232.296 1471.96 235.22C1474.64 238.143 1479.04 238.202 1481.79 235.35Z" stroke="#99CFFF" stroke-width="2"/>
<path d="M1513.32 167L1517.91 162.65L1521.76 167.848L1526.78 163.541L1530.61 168.738L1535.4 164.41" stroke="#99CFFF" stroke-width="2" stroke-linecap="round" stroke-linejoin="round"/>
<path fill-rule="evenodd" clip-rule="evenodd" d="M1509.84 60.0151L1495.33 62.8505L1498 78.2806L1512.51 75.4452L1509.84 60.0151Z" stroke="#99CFFF" stroke-width="2" stroke-linejoin="round"/>
<path d="M1357.95 196.571L1359.46 190.702L1365.11 192.273L1366.98 186.183L1372.62 187.76L1374.31 181.785" stroke="#99CFFF" stroke-width="2" stroke-linecap="round" stroke-linejoin="round"/>
<path fill-rule="evenodd" clip-rule="evenodd" d="M1619.22 27.8331L1626.99 32.3995V41.5322L1619.22 46.0986L1611.45 41.5322V32.3995L1619.22 27.8331Z" stroke="#99CFFF" stroke-width="2" stroke-linecap="round" stroke-linejoin="round"/>
<path fill-rule="evenodd" clip-rule="evenodd" d="M1315.3 144.643L1323.06 144.577L1326.88 151.622L1322.95 158.733L1315.2 158.8L1311.37 151.755L1315.3 144.643Z" stroke="#99CFFF" stroke-width="2" stroke-linecap="round" stroke-linejoin="round"/>
<path fill-rule="evenodd" clip-rule="evenodd" d="M1575.88 130.468C1579.72 130.468 1582.83 127.158 1582.83 123.074C1582.83 118.991 1579.72 115.681 1575.88 115.681C1572.04 115.681 1568.93 118.991 1568.93 123.074C1568.93 127.158 1572.04 130.468 1575.88 130.468Z" stroke="#99CFFF" stroke-width="2"/>
<path fill-rule="evenodd" clip-rule="evenodd" d="M1582.42 125.249C1588.07 125.249 1592.65 120.381 1592.65 114.377C1592.65 108.372 1588.07 103.504 1582.42 103.504C1576.78 103.504 1572.2 108.372 1572.2 114.377C1572.2 120.381 1576.78 125.249 1582.42 125.249Z" stroke="#99CFFF" stroke-width="2"/>
<path d="M1660.52 88.118C1660.52 88.118 1682.24 85.8508 1686.69 102.635" stroke="#99CFFF" stroke-width="2" stroke-linecap="round" stroke-linejoin="round"/>
<path fill-rule="evenodd" clip-rule="evenodd" d="M1449.26 37.3693C1438.03 27.1828 1435.16 17.0411 1440.67 6.9443L1449.26 37.3693Z" stroke="#99CFFF" stroke-width="2" stroke-linecap="round" stroke-linejoin="round"/>
<path fill-rule="evenodd" clip-rule="evenodd" d="M1595.54 221.251C1608.74 235.291 1594.18 245.879 1588.82 236.808L1595.54 221.251Z" stroke="#99CFFF" stroke-width="2" stroke-linecap="round" stroke-linejoin="round"/>
<path fill-rule="evenodd" clip-rule="evenodd" d="M1320.7 20.6824C1304.53 30.6105 1298.68 12.9117 1308.31 9.74803L1320.7 20.6824Z" stroke="#99CFFF" stroke-width="2" stroke-linecap="round" stroke-linejoin="round"/>
<path fill-rule="evenodd" clip-rule="evenodd" d="M1377.58 73.9317C1382.09 73.9317 1385.76 70.0375 1385.76 65.2338C1385.76 60.4301 1382.09 56.536 1377.58 56.536C1373.06 56.536 1369.4 60.4301 1369.4 65.2338C1369.4 70.0375 1373.06 73.9317 1377.58 73.9317Z" stroke="#99CFFF" stroke-width="2"/>
<path d="M1696.5 5.21387C1700.5 -10.8306 1702.29 16.7595 1712.04 1.06785" stroke="#99CFFF" stroke-width="2" stroke-linecap="round" stroke-linejoin="round"/>
<path fill-rule="evenodd" clip-rule="evenodd" d="M1386.57 65.2338C1388.83 65.2338 1390.66 63.2867 1390.66 60.8849C1390.66 58.4831 1388.83 56.536 1386.57 56.536C1384.32 56.536 1382.48 58.4831 1382.48 60.8849C1382.48 63.2867 1384.32 65.2338 1386.57 65.2338Z" stroke="#99CFFF" stroke-width="2"/>
<path fill-rule="evenodd" clip-rule="evenodd" d="M1545.22 390.076C1545.54 395.474 1549.83 399.563 1554.79 399.21C1559.75 398.856 1563.51 394.193 1563.19 388.794L1545.22 390.076Z" stroke="#99CFFF" stroke-width="2" stroke-linecap="round" stroke-linejoin="round"/>
<path d="M1501.49 466.204L1500.24 457.999L1508.46 456.745L1507.56 448.052L1515.78 446.808L1514.69 438.371" stroke="#99CFFF" stroke-width="2" stroke-linecap="round" stroke-linejoin="round"/>
<path d="M1644.98 418.368L1649.57 414.017L1653.41 419.216L1658.44 414.909L1662.27 420.106L1667.06 415.777" stroke="#99CFFF" stroke-width="2" stroke-linecap="round" stroke-linejoin="round"/>
<path fill-rule="evenodd" clip-rule="evenodd" d="M1666.03 280.94L1651.52 283.776L1654.19 299.206L1668.7 296.37L1666.03 280.94Z" stroke="#99CFFF" stroke-width="2" stroke-linejoin="round"/>
<path d="M1493.7 442.72L1495.21 436.851L1500.85 438.422L1502.73 432.332L1508.37 433.909L1510.05 427.934" stroke="#99CFFF" stroke-width="2" stroke-linecap="round" stroke-linejoin="round"/>
<path fill-rule="evenodd" clip-rule="evenodd" d="M1444.42 392.513L1452.18 392.446L1456 399.491L1452.07 406.602L1444.31 406.669L1440.49 399.624L1444.42 392.513Z" stroke="#99CFFF" stroke-width="2" stroke-linecap="round" stroke-linejoin="round"/>
<path fill-rule="evenodd" clip-rule="evenodd" d="M1687.91 381.835C1691.75 381.835 1694.86 378.525 1694.86 374.442C1694.86 370.359 1691.75 367.049 1687.91 367.049C1684.07 367.049 1680.96 370.359 1680.96 374.442C1680.96 378.525 1684.07 381.835 1687.91 381.835Z" stroke="#99CFFF" stroke-width="2"/>
<path fill-rule="evenodd" clip-rule="evenodd" d="M1694.46 376.617C1700.1 376.617 1704.68 371.749 1704.68 365.744C1704.68 359.74 1700.1 354.872 1694.46 354.872C1688.81 354.872 1684.23 359.74 1684.23 365.744C1684.23 371.749 1688.81 376.617 1694.46 376.617Z" stroke="#99CFFF" stroke-width="2"/>
<path fill-rule="evenodd" clip-rule="evenodd" d="M1576.57 305.336C1565.34 295.149 1562.48 285.008 1567.99 274.911L1576.57 305.336Z" stroke="#99CFFF" stroke-width="2" stroke-linecap="round" stroke-linejoin="round"/>
<path fill-rule="evenodd" clip-rule="evenodd" d="M1705.77 457.636C1718.97 471.676 1704.41 482.264 1699.04 473.193L1705.77 457.636Z" stroke="#99CFFF" stroke-width="2" stroke-linecap="round" stroke-linejoin="round"/>
<path fill-rule="evenodd" clip-rule="evenodd" d="M1448.47 288.649C1432.3 298.577 1426.45 280.878 1436.08 277.715L1448.47 288.649Z" stroke="#99CFFF" stroke-width="2" stroke-linecap="round" stroke-linejoin="round"/>
<path fill-rule="evenodd" clip-rule="evenodd" d="M1609 476.642C1611.71 476.642 1613.91 474.305 1613.91 471.423C1613.91 468.541 1611.71 466.204 1609 466.204C1606.29 466.204 1604.09 468.541 1604.09 471.423C1604.09 474.305 1606.29 476.642 1609 476.642Z" stroke="#99CFFF" stroke-width="2"/>
<path fill-rule="evenodd" clip-rule="evenodd" d="M1505.15 342.695C1509.66 342.695 1513.32 338.801 1513.32 333.997C1513.32 329.194 1509.66 325.299 1505.15 325.299C1500.63 325.299 1496.97 329.194 1496.97 333.997C1496.97 338.801 1500.63 342.695 1505.15 342.695Z" stroke="#99CFFF" stroke-width="2"/>
<path fill-rule="evenodd" clip-rule="evenodd" d="M1513.32 333.997C1515.58 333.997 1517.41 332.05 1517.41 329.648C1517.41 327.246 1515.58 325.299 1513.32 325.299C1511.07 325.299 1509.24 327.246 1509.24 329.648C1509.24 332.05 1511.07 333.997 1513.32 333.997Z" stroke="#99CFFF" stroke-width="2"/>
<path d="M1373.49 293.117L1380.67 298.497L1375.55 306.035L1382.83 312.08L1377.71 319.607L1384.94 325.299" stroke="#99CFFF" stroke-width="2" stroke-linecap="round" stroke-linejoin="round"/>
<path fill-rule="evenodd" clip-rule="evenodd" d="M1328.51 470.553L1340.45 464.807L1342.42 448.809L1330.48 454.555L1328.51 470.553Z" stroke="#99CFFF" stroke-width="2" stroke-linejoin="round"/>
<path d="M1313.79 369.058C1313.79 369.058 1335.52 366.791 1339.96 383.575" stroke="#99CFFF" stroke-width="2" stroke-linecap="round" stroke-linejoin="round"/>
<path fill-rule="evenodd" clip-rule="evenodd" d="M1389.84 434.022C1392.55 434.022 1394.75 431.686 1394.75 428.804C1394.75 425.921 1392.55 423.585 1389.84 423.585C1387.13 423.585 1384.94 425.921 1384.94 428.804C1384.94 431.686 1387.13 434.022 1389.84 434.022Z" stroke="#99CFFF" stroke-width="2"/>
<path d="M1320.34 273.107C1324.34 257.063 1326.13 284.653 1335.87 268.961" stroke="#99CFFF" stroke-width="2" stroke-linecap="round" stroke-linejoin="round"/>
<path d="M1558.3 18.2655L1559.81 12.3964L1565.46 13.9677L1567.33 7.87767L1572.97 9.45379L1574.66 3.47914" stroke="#99CFFF" stroke-width="2" stroke-linecap="round" stroke-linejoin="round"/>
<path fill-rule="evenodd" clip-rule="evenodd" d="M1672.32 237.09C1675.07 234.24 1675.13 229.559 1672.45 226.635C1669.77 223.713 1665.37 223.653 1662.62 226.505C1659.87 229.355 1659.81 234.036 1662.49 236.96C1665.18 239.882 1669.58 239.941 1672.32 237.09Z" stroke="#99CFFF" stroke-width="2"/>
<path fill-rule="evenodd" clip-rule="evenodd" d="M990.866 156.44C986.105 159.03 984.16 165.362 986.523 170.581C988.885 175.801 994.659 177.933 999.42 175.344L990.866 156.44Z" stroke="#99CFFF" stroke-width="2" stroke-linecap="round" stroke-linejoin="round"/>
<path d="M1100 18.1445L1107.19 23.5242L1102.06 31.0627L1109.35 37.1073L1104.22 44.6342L1111.45 50.3265" stroke="#99CFFF" stroke-width="2" stroke-linecap="round" stroke-linejoin="round"/>
<path fill-rule="evenodd" clip-rule="evenodd" d="M761.454 122.932C761.781 128.329 766.067 132.419 771.029 132.065C775.991 131.711 779.75 127.048 779.425 121.649L761.454 122.932Z" stroke="#99CFFF" stroke-width="2" stroke-linecap="round" stroke-linejoin="round"/>
<path d="M710.373 220.804L709.119 212.599L717.338 211.345L716.442 202.652L724.656 201.408L723.571 192.971" stroke="#99CFFF" stroke-width="2" stroke-linecap="round" stroke-linejoin="round"/>
<path fill-rule="evenodd" clip-rule="evenodd" d="M826.412 236.099C829.16 233.25 829.216 228.568 826.535 225.644C823.856 222.722 819.455 222.663 816.706 225.514C813.958 228.364 813.902 233.045 816.583 235.969C819.264 238.891 823.665 238.951 826.412 236.099Z" stroke="#99CFFF" stroke-width="2"/>
<path d="M857.949 167.749L862.538 163.399L866.379 168.597L871.402 164.29L875.235 169.487L880.028 165.159" stroke="#99CFFF" stroke-width="2" stroke-linecap="round" stroke-linejoin="round"/>
<path fill-rule="evenodd" clip-rule="evenodd" d="M1081.19 223.414L1093.13 217.668L1095.1 201.669L1083.16 207.415L1081.19 223.414Z" stroke="#99CFFF" stroke-width="2" stroke-linejoin="round"/>
<path fill-rule="evenodd" clip-rule="evenodd" d="M854.465 60.7639L839.958 63.5994L842.622 79.0294L857.131 76.194L854.465 60.7639Z" stroke="#99CFFF" stroke-width="2" stroke-linejoin="round"/>
<path d="M702.576 197.32L704.087 191.451L709.731 193.022L711.609 186.932L717.247 188.508L718.931 182.534" stroke="#99CFFF" stroke-width="2" stroke-linecap="round" stroke-linejoin="round"/>
<path fill-rule="evenodd" clip-rule="evenodd" d="M963.847 28.5819L971.616 33.1483V42.281L963.847 46.8474L956.079 42.281V33.1483L963.847 28.5819Z" stroke="#99CFFF" stroke-width="2" stroke-linecap="round" stroke-linejoin="round"/>
<path fill-rule="evenodd" clip-rule="evenodd" d="M659.929 145.392L667.685 145.326L671.509 152.371L667.577 159.482L659.821 159.548L655.997 152.504L659.929 145.392Z" stroke="#99CFFF" stroke-width="2" stroke-linecap="round" stroke-linejoin="round"/>
<path fill-rule="evenodd" clip-rule="evenodd" d="M920.507 131.216C924.346 131.216 927.458 127.906 927.458 123.823C927.458 119.74 924.346 116.43 920.507 116.43C916.668 116.43 913.556 119.74 913.556 123.823C913.556 127.906 916.668 131.216 920.507 131.216Z" stroke="#99CFFF" stroke-width="2"/>
<path fill-rule="evenodd" clip-rule="evenodd" d="M927.048 125.998C932.694 125.998 937.27 121.13 937.27 115.125C937.27 109.121 932.694 104.253 927.048 104.253C921.403 104.253 916.826 109.121 916.826 115.125C916.826 121.13 921.403 125.998 927.048 125.998Z" stroke="#99CFFF" stroke-width="2"/>
<path d="M1005.14 88.8669C1005.14 88.8669 1026.87 86.5997 1031.31 103.383" stroke="#99CFFF" stroke-width="2" stroke-linecap="round" stroke-linejoin="round"/>
<path fill-rule="evenodd" clip-rule="evenodd" d="M793.882 38.1181C782.651 27.9316 779.788 17.7899 785.292 7.69313L793.882 38.1181Z" stroke="#99CFFF" stroke-width="2" stroke-linecap="round" stroke-linejoin="round"/>
<path fill-rule="evenodd" clip-rule="evenodd" d="M940.168 222C953.368 236.04 938.809 246.628 933.444 237.556L940.168 222Z" stroke="#99CFFF" stroke-width="2" stroke-linecap="round" stroke-linejoin="round"/>
<path fill-rule="evenodd" clip-rule="evenodd" d="M665.323 21.4313C649.156 31.3593 643.309 13.6605 652.936 10.4969L665.323 21.4313Z" stroke="#99CFFF" stroke-width="2" stroke-linecap="round" stroke-linejoin="round"/>
<path fill-rule="evenodd" clip-rule="evenodd" d="M1110.63 166.878C1113.34 166.878 1115.54 164.541 1115.54 161.659C1115.54 158.777 1113.34 156.44 1110.63 156.44C1107.92 156.44 1105.73 158.777 1105.73 161.659C1105.73 164.541 1107.92 166.878 1110.63 166.878Z" stroke="#99CFFF" stroke-width="2"/>
<path fill-rule="evenodd" clip-rule="evenodd" d="M722.203 74.6805C726.719 74.6805 730.38 70.7864 730.38 65.9827C730.38 61.179 726.719 57.2848 722.203 57.2848C717.686 57.2848 714.025 61.179 714.025 65.9827C714.025 70.7864 717.686 74.6805 722.203 74.6805Z" stroke="#99CFFF" stroke-width="2"/>
<path d="M1041.12 5.9627C1045.12 -10.0818 1046.92 17.5084 1056.66 1.81668" stroke="#99CFFF" stroke-width="2" stroke-linecap="round" stroke-linejoin="round"/>
<path fill-rule="evenodd" clip-rule="evenodd" d="M731.198 65.9827C733.456 65.9827 735.287 64.0356 735.287 61.6337C735.287 59.2319 733.456 57.2848 731.198 57.2848C728.94 57.2848 727.109 59.2319 727.109 61.6337C727.109 64.0356 728.94 65.9827 731.198 65.9827Z" stroke="#99CFFF" stroke-width="2"/>
<path fill-rule="evenodd" clip-rule="evenodd" d="M1097.17 417.376C1092.41 419.965 1090.47 426.297 1092.83 431.516C1095.19 436.737 1100.97 438.869 1105.73 436.279L1097.17 417.376Z" stroke="#99CFFF" stroke-width="2" stroke-linecap="round" stroke-linejoin="round"/>
<path d="M1221.85 293.866L1229.03 299.246L1223.9 306.784L1231.19 312.829L1226.06 320.356L1233.3 326.048" stroke="#99CFFF" stroke-width="2" stroke-linecap="round" stroke-linejoin="round"/>
<path fill-rule="evenodd" clip-rule="evenodd" d="M889.841 390.825C890.168 396.223 894.454 400.312 899.416 399.959C904.378 399.605 908.137 394.942 907.812 389.542L889.841 390.825Z" stroke="#99CFFF" stroke-width="2" stroke-linecap="round" stroke-linejoin="round"/>
<path d="M846.119 466.953L844.865 458.748L853.084 457.494L852.188 448.801L860.402 447.556L859.317 439.12" stroke="#99CFFF" stroke-width="2" stroke-linecap="round" stroke-linejoin="round"/>
<path d="M989.606 419.116L994.196 414.766L998.037 419.965L1003.06 415.658L1006.89 420.855L1011.69 416.526" stroke="#99CFFF" stroke-width="2" stroke-linecap="round" stroke-linejoin="round"/>
<path fill-rule="evenodd" clip-rule="evenodd" d="M1154.79 480L1166.73 474.254L1168.69 458.255L1156.75 464.001L1154.79 480Z" stroke="#99CFFF" stroke-width="2" stroke-linejoin="round"/>
<path fill-rule="evenodd" clip-rule="evenodd" d="M1010.66 281.689L996.148 284.525L998.812 299.955L1013.32 297.119L1010.66 281.689Z" stroke="#99CFFF" stroke-width="2" stroke-linejoin="round"/>
<path d="M838.323 443.469L839.833 437.6L845.478 439.171L847.356 433.081L852.994 434.657L854.678 428.683" stroke="#99CFFF" stroke-width="2" stroke-linecap="round" stroke-linejoin="round"/>
<path fill-rule="evenodd" clip-rule="evenodd" d="M1091.42 297.345L1099.18 301.912V311.044L1091.42 315.611L1083.65 311.044V301.912L1091.42 297.345Z" stroke="#99CFFF" stroke-width="2" stroke-linecap="round" stroke-linejoin="round"/>
<path fill-rule="evenodd" clip-rule="evenodd" d="M789.046 393.262L796.802 393.195L800.626 400.24L796.694 407.351L788.938 407.418L785.114 400.373L789.046 393.262Z" stroke="#99CFFF" stroke-width="2" stroke-linecap="round" stroke-linejoin="round"/>
<path fill-rule="evenodd" clip-rule="evenodd" d="M1104.86 91.3204L1112.62 91.254L1116.44 98.2989L1112.51 105.41L1104.76 105.477L1100.93 98.4317L1104.86 91.3204Z" stroke="#99CFFF" stroke-width="2" stroke-linecap="round" stroke-linejoin="round"/>
<path fill-rule="evenodd" clip-rule="evenodd" d="M1032.54 382.584C1036.38 382.584 1039.49 379.274 1039.49 375.191C1039.49 371.108 1036.38 367.798 1032.54 367.798C1028.7 367.798 1025.59 371.108 1025.59 375.191C1025.59 379.274 1028.7 382.584 1032.54 382.584Z" stroke="#99CFFF" stroke-width="2"/>
<path fill-rule="evenodd" clip-rule="evenodd" d="M1039.08 377.365C1044.73 377.365 1049.3 372.498 1049.3 366.493C1049.3 360.489 1044.73 355.621 1039.08 355.621C1033.43 355.621 1028.86 360.489 1028.86 366.493C1028.86 372.498 1033.43 377.365 1039.08 377.365Z" stroke="#99CFFF" stroke-width="2"/>
<path fill-rule="evenodd" clip-rule="evenodd" d="M921.199 306.085C909.969 295.898 907.106 285.757 912.61 275.66L921.199 306.085Z" stroke="#99CFFF" stroke-width="2" stroke-linecap="round" stroke-linejoin="round"/>
<path fill-rule="evenodd" clip-rule="evenodd" d="M1050.39 458.385C1063.59 472.425 1049.03 483.013 1043.67 473.941L1050.39 458.385Z" stroke="#99CFFF" stroke-width="2" stroke-linecap="round" stroke-linejoin="round"/>
<path fill-rule="evenodd" clip-rule="evenodd" d="M793.09 289.398C776.923 299.326 771.076 281.627 780.703 278.464L793.09 289.398Z" stroke="#99CFFF" stroke-width="2" stroke-linecap="round" stroke-linejoin="round"/>
<path fill-rule="evenodd" clip-rule="evenodd" d="M953.625 477.391C956.335 477.391 958.532 475.054 958.532 472.172C958.532 469.29 956.335 466.953 953.625 466.953C950.915 466.953 948.719 469.29 948.719 472.172C948.719 475.054 950.915 477.391 953.625 477.391Z" stroke="#99CFFF" stroke-width="2"/>
<path fill-rule="evenodd" clip-rule="evenodd" d="M849.771 343.444C854.288 343.444 857.949 339.55 857.949 334.746C857.949 329.942 854.288 326.048 849.771 326.048C845.255 326.048 841.594 329.942 841.594 334.746C841.594 339.55 845.255 343.444 849.771 343.444Z" stroke="#99CFFF" stroke-width="2"/>
<path d="M1169.51 273.856C1173.51 257.812 1175.3 285.402 1185.05 269.71" stroke="#99CFFF" stroke-width="2" stroke-linecap="round" stroke-linejoin="round"/>
<path fill-rule="evenodd" clip-rule="evenodd" d="M857.949 334.746C860.207 334.746 862.037 332.799 862.037 330.397C862.037 327.995 860.207 326.048 857.949 326.048C855.69 326.048 853.86 327.995 853.86 330.397C853.86 332.799 855.69 334.746 857.949 334.746Z" stroke="#99CFFF" stroke-width="2"/>
<path d="M718.114 293.866L725.297 299.246L720.17 306.784L727.459 312.829L722.33 320.356L729.562 326.048" stroke="#99CFFF" stroke-width="2" stroke-linecap="round" stroke-linejoin="round"/>
<path fill-rule="evenodd" clip-rule="evenodd" d="M673.138 471.302L685.078 465.556L687.04 449.558L675.1 455.304L673.138 471.302Z" stroke="#99CFFF" stroke-width="2" stroke-linejoin="round"/>
<path d="M658.418 369.807C658.418 369.807 680.142 367.54 684.586 384.324" stroke="#99CFFF" stroke-width="2" stroke-linecap="round" stroke-linejoin="round"/>
<path fill-rule="evenodd" clip-rule="evenodd" d="M734.469 434.771C737.179 434.771 739.375 432.435 739.375 429.553C739.375 426.67 737.179 424.334 734.469 424.334C731.759 424.334 729.562 426.67 729.562 429.553C729.562 432.435 731.759 434.771 734.469 434.771Z" stroke="#99CFFF" stroke-width="2"/>
<path d="M664.96 273.856C668.961 257.812 670.753 285.402 680.498 269.71" stroke="#99CFFF" stroke-width="2" stroke-linecap="round" stroke-linejoin="round"/>
<path d="M1173.6 111.213L1178.19 106.863L1182.03 112.061L1187.05 107.754L1190.89 112.951L1195.68 108.623" stroke="#99CFFF" stroke-width="2" stroke-linecap="round" stroke-linejoin="round"/>
<path fill-rule="evenodd" clip-rule="evenodd" d="M1237.79 74.6805C1241.63 74.6805 1244.74 71.3705 1244.74 67.2873C1244.74 63.2042 1241.63 59.8942 1237.79 59.8942C1233.95 59.8942 1230.84 63.2042 1230.84 67.2873C1230.84 71.3705 1233.95 74.6805 1237.79 74.6805Z" stroke="#99CFFF" stroke-width="2"/>
<path fill-rule="evenodd" clip-rule="evenodd" d="M1244.33 69.4618C1249.98 69.4618 1254.56 64.5941 1254.56 58.5895C1254.56 52.5849 1249.98 47.7172 1244.33 47.7172C1238.69 47.7172 1234.11 52.5849 1234.11 58.5895C1234.11 64.5941 1238.69 69.4618 1244.33 69.4618Z" stroke="#99CFFF" stroke-width="2"/>
<path fill-rule="evenodd" clip-rule="evenodd" d="M1198.57 9.44667C1193.81 12.0362 1191.87 18.3685 1194.23 23.5876C1196.59 28.8079 1202.37 30.9397 1207.13 28.3502L1198.57 9.44667Z" stroke="#99CFFF" stroke-width="2" stroke-linecap="round" stroke-linejoin="round"/>
<path fill-rule="evenodd" clip-rule="evenodd" d="M1234.47 387.442C1237.22 384.592 1237.27 379.911 1234.59 376.987C1231.91 374.065 1227.51 374.005 1224.76 376.857C1222.01 379.707 1221.96 384.388 1224.64 387.312C1227.32 390.234 1231.72 390.293 1234.47 387.442Z" stroke="#99CFFF" stroke-width="2"/>
<path fill-rule="evenodd" clip-rule="evenodd" d="M1254.67 186.996C1238.5 196.924 1232.66 179.226 1242.28 176.062L1254.67 186.996Z" stroke="#99CFFF" stroke-width="2" stroke-linecap="round" stroke-linejoin="round"/>
<path fill-rule="evenodd" clip-rule="evenodd" d="M1167.88 206.431C1168.2 211.829 1172.49 215.918 1177.45 215.564C1182.41 215.211 1186.17 210.548 1185.85 205.148L1167.88 206.431Z" stroke="#99CFFF" stroke-width="2" stroke-linecap="round" stroke-linejoin="round"/>
<path fill-rule="evenodd" clip-rule="evenodd" d="M1245.35 449.558L1230.84 452.393L1233.51 467.823L1248.01 464.988L1245.35 449.558Z" stroke="#99CFFF" stroke-width="2" stroke-linejoin="round"/>
<path d="M902.925 19.0143L904.436 13.1453L910.08 14.7165L911.958 8.62649L917.596 10.2026L919.28 4.22797" stroke="#99CFFF" stroke-width="2" stroke-linecap="round" stroke-linejoin="round"/>
<path fill-rule="evenodd" clip-rule="evenodd" d="M1248.72 239.242L1253.99 238.906L1256.35 243.257L1253.44 247.945L1248.17 248.281L1245.81 243.93L1248.72 239.242Z" stroke="#99CFFF" stroke-width="2"/>
<path fill-rule="evenodd" clip-rule="evenodd" d="M1149.88 383.454C1154.4 383.454 1158.06 379.56 1158.06 374.756C1158.06 369.952 1154.4 366.058 1149.88 366.058C1145.37 366.058 1141.71 369.952 1141.71 374.756C1141.71 379.56 1145.37 383.454 1149.88 383.454Z" stroke="#99CFFF" stroke-width="2"/>
<path fill-rule="evenodd" clip-rule="evenodd" d="M1016.95 237.839C1019.7 234.989 1019.75 230.308 1017.07 227.384C1014.39 224.462 1009.99 224.402 1007.24 227.254C1004.49 230.104 1004.44 234.785 1007.12 237.709C1009.8 240.631 1014.2 240.69 1016.95 237.839Z" stroke="#99CFFF" stroke-width="2"/>
<path fill-rule="evenodd" clip-rule="evenodd" d="M342.591 156.44C337.83 159.03 335.885 165.362 338.247 170.581C340.61 175.801 346.383 177.933 351.144 175.344L342.591 156.44Z" stroke="#99CFFF" stroke-width="2" stroke-linecap="round" stroke-linejoin="round"/>
<path d="M451.727 18.1445L458.911 23.5242L453.783 31.0627L461.072 37.1073L455.943 44.6342L463.176 50.3265" stroke="#99CFFF" stroke-width="2" stroke-linecap="round" stroke-linejoin="round"/>
<path fill-rule="evenodd" clip-rule="evenodd" d="M113.179 122.932C113.506 128.329 117.792 132.419 122.754 132.065C127.716 131.711 131.475 127.048 131.15 121.649L113.179 122.932Z" stroke="#99CFFF" stroke-width="2" stroke-linecap="round" stroke-linejoin="round"/>
<path d="M62.0979 220.804L60.8435 212.599L69.0628 211.345L68.1663 202.652L76.3807 201.408L75.2956 192.971" stroke="#99CFFF" stroke-width="2" stroke-linecap="round" stroke-linejoin="round"/>
<path fill-rule="evenodd" clip-rule="evenodd" d="M178.137 236.099C180.885 233.25 180.941 228.568 178.26 225.644C175.58 222.722 171.179 222.663 168.43 225.514C165.683 228.364 165.627 233.045 168.308 235.969C170.989 238.891 175.39 238.951 178.137 236.099Z" stroke="#99CFFF" stroke-width="2"/>
<path d="M209.674 167.749L214.263 163.399L218.104 168.597L223.127 164.29L226.96 169.487L231.753 165.159" stroke="#99CFFF" stroke-width="2" stroke-linecap="round" stroke-linejoin="round"/>
<path fill-rule="evenodd" clip-rule="evenodd" d="M432.919 223.414L444.859 217.668L446.821 201.669L434.881 207.415L432.919 223.414Z" stroke="#99CFFF" stroke-width="2" stroke-linejoin="round"/>
<path fill-rule="evenodd" clip-rule="evenodd" d="M206.19 60.7639L191.683 63.5994L194.347 79.0294L208.856 76.194L206.19 60.7639Z" stroke="#99CFFF" stroke-width="2" stroke-linejoin="round"/>
<path d="M54.3014 197.32L55.8121 191.451L61.4564 193.022L63.3342 186.932L68.9723 188.508L70.6564 182.534" stroke="#99CFFF" stroke-width="2" stroke-linecap="round" stroke-linejoin="round"/>
<path fill-rule="evenodd" clip-rule="evenodd" d="M315.572 28.5819L323.341 33.1483V42.281L315.572 46.8474L307.803 42.281V33.1483L315.572 28.5819Z" stroke="#99CFFF" stroke-width="2" stroke-linecap="round" stroke-linejoin="round"/>
<path fill-rule="evenodd" clip-rule="evenodd" d="M11.6535 145.392L19.4097 145.326L23.2337 152.371L19.3016 159.482L11.5454 159.548L7.72137 152.504L11.6535 145.392Z" stroke="#99CFFF" stroke-width="2" stroke-linecap="round" stroke-linejoin="round"/>
<path fill-rule="evenodd" clip-rule="evenodd" d="M272.231 131.216C276.07 131.216 279.182 127.906 279.182 123.823C279.182 119.74 276.07 116.43 272.231 116.43C268.392 116.43 265.28 119.74 265.28 123.823C265.28 127.906 268.392 131.216 272.231 131.216Z" stroke="#99CFFF" stroke-width="2"/>
<path fill-rule="evenodd" clip-rule="evenodd" d="M278.773 125.998C284.419 125.998 288.995 121.13 288.995 115.125C288.995 109.121 284.419 104.253 278.773 104.253C273.128 104.253 268.551 109.121 268.551 115.125C268.551 121.13 273.128 125.998 278.773 125.998Z" stroke="#99CFFF" stroke-width="2"/>
<path d="M356.868 88.8669C356.868 88.8669 378.592 86.5997 383.036 103.383" stroke="#99CFFF" stroke-width="2" stroke-linecap="round" stroke-linejoin="round"/>
<path fill-rule="evenodd" clip-rule="evenodd" d="M145.606 38.1181C134.376 27.9316 131.513 17.7899 137.017 7.69313L145.606 38.1181Z" stroke="#99CFFF" stroke-width="2" stroke-linecap="round" stroke-linejoin="round"/>
<path fill-rule="evenodd" clip-rule="evenodd" d="M291.893 222C305.093 236.04 290.534 246.628 285.169 237.556L291.893 222Z" stroke="#99CFFF" stroke-width="2" stroke-linecap="round" stroke-linejoin="round"/>
<path fill-rule="evenodd" clip-rule="evenodd" d="M17.0479 21.4313C0.880817 31.3593 -4.96634 13.6605 4.6604 10.4969L17.0479 21.4313Z" stroke="#99CFFF" stroke-width="2" stroke-linecap="round" stroke-linejoin="round"/>
<path fill-rule="evenodd" clip-rule="evenodd" d="M462.358 166.878C465.068 166.878 467.264 164.541 467.264 161.659C467.264 158.777 465.068 156.44 462.358 156.44C459.648 156.44 457.451 158.777 457.451 161.659C457.451 164.541 459.648 166.878 462.358 166.878Z" stroke="#99CFFF" stroke-width="2"/>
<path fill-rule="evenodd" clip-rule="evenodd" d="M73.9275 74.6805C78.4438 74.6805 82.105 70.7864 82.105 65.9827C82.105 61.179 78.4438 57.2848 73.9275 57.2848C69.4112 57.2848 65.75 61.179 65.75 65.9827C65.75 70.7864 69.4112 74.6805 73.9275 74.6805Z" stroke="#99CFFF" stroke-width="2"/>
<path d="M392.849 5.9627C396.849 -10.0818 398.642 17.5084 408.386 1.81668" stroke="#99CFFF" stroke-width="2" stroke-linecap="round" stroke-linejoin="round"/>
<path fill-rule="evenodd" clip-rule="evenodd" d="M82.9226 65.9827C85.1808 65.9827 87.0113 64.0356 87.0113 61.6337C87.0113 59.2319 85.1808 57.2848 82.9226 57.2848C80.6645 57.2848 78.8339 59.2319 78.8339 61.6337C78.8339 64.0356 80.6645 65.9827 82.9226 65.9827Z" stroke="#99CFFF" stroke-width="2"/>
<path fill-rule="evenodd" clip-rule="evenodd" d="M448.898 417.376C444.137 419.965 442.192 426.297 444.554 431.516C446.917 436.737 452.691 438.869 457.451 436.279L448.898 417.376Z" stroke="#99CFFF" stroke-width="2" stroke-linecap="round" stroke-linejoin="round"/>
<path d="M573.572 293.866L580.755 299.246L575.628 306.784L582.917 312.829L577.788 320.356L585.02 326.048" stroke="#99CFFF" stroke-width="2" stroke-linecap="round" stroke-linejoin="round"/>
<path fill-rule="evenodd" clip-rule="evenodd" d="M241.566 390.825C241.892 396.223 246.179 400.312 251.141 399.959C256.103 399.605 259.862 394.942 259.537 389.542L241.566 390.825Z" stroke="#99CFFF" stroke-width="2" stroke-linecap="round" stroke-linejoin="round"/>
<path d="M197.844 466.953L196.589 458.748L204.809 457.494L203.912 448.801L212.127 447.556L211.042 439.12" stroke="#99CFFF" stroke-width="2" stroke-linecap="round" stroke-linejoin="round"/>
<path d="M341.331 419.116L345.921 414.766L349.761 419.965L354.785 415.658L358.617 420.855L363.41 416.526" stroke="#99CFFF" stroke-width="2" stroke-linecap="round" stroke-linejoin="round"/>
<path fill-rule="evenodd" clip-rule="evenodd" d="M506.516 480L518.456 474.254L520.418 458.255L508.478 464.001L506.516 480Z" stroke="#99CFFF" stroke-width="2" stroke-linejoin="round"/>
<path fill-rule="evenodd" clip-rule="evenodd" d="M362.38 281.689L347.873 284.525L350.537 299.955L365.046 297.119L362.38 281.689Z" stroke="#99CFFF" stroke-width="2" stroke-linejoin="round"/>
<path d="M190.048 443.469L191.558 437.6L197.203 439.171L199.08 433.081L204.718 434.657L206.403 428.683" stroke="#99CFFF" stroke-width="2" stroke-linecap="round" stroke-linejoin="round"/>
<path fill-rule="evenodd" clip-rule="evenodd" d="M443.141 297.345L450.909 301.912V311.044L443.141 315.611L435.372 311.044V301.912L443.141 297.345Z" stroke="#99CFFF" stroke-width="2" stroke-linecap="round" stroke-linejoin="round"/>
<path fill-rule="evenodd" clip-rule="evenodd" d="M140.77 393.262L148.527 393.195L152.351 400.24L148.418 407.351L140.662 407.418L136.838 400.373L140.77 393.262Z" stroke="#99CFFF" stroke-width="2" stroke-linecap="round" stroke-linejoin="round"/>
<path fill-rule="evenodd" clip-rule="evenodd" d="M456.589 91.3204L464.345 91.254L468.169 98.2989L464.237 105.41L456.481 105.477L452.657 98.4317L456.589 91.3204Z" stroke="#99CFFF" stroke-width="2" stroke-linecap="round" stroke-linejoin="round"/>
<path fill-rule="evenodd" clip-rule="evenodd" d="M384.263 382.584C388.102 382.584 391.214 379.274 391.214 375.191C391.214 371.108 388.102 367.798 384.263 367.798C380.424 367.798 377.312 371.108 377.312 375.191C377.312 379.274 380.424 382.584 384.263 382.584Z" stroke="#99CFFF" stroke-width="2"/>
<path fill-rule="evenodd" clip-rule="evenodd" d="M390.805 377.365C396.45 377.365 401.027 372.498 401.027 366.493C401.027 360.489 396.45 355.621 390.805 355.621C385.159 355.621 380.583 360.489 380.583 366.493C380.583 372.498 385.159 377.365 390.805 377.365Z" stroke="#99CFFF" stroke-width="2"/>
<path fill-rule="evenodd" clip-rule="evenodd" d="M272.924 306.085C261.693 295.898 258.83 285.757 264.334 275.66L272.924 306.085Z" stroke="#99CFFF" stroke-width="2" stroke-linecap="round" stroke-linejoin="round"/>
<path fill-rule="evenodd" clip-rule="evenodd" d="M402.115 458.385C415.315 472.425 400.755 483.013 395.391 473.941L402.115 458.385Z" stroke="#99CFFF" stroke-width="2" stroke-linecap="round" stroke-linejoin="round"/>
<path fill-rule="evenodd" clip-rule="evenodd" d="M144.815 289.398C128.648 299.326 122.801 281.627 132.427 278.464L144.815 289.398Z" stroke="#99CFFF" stroke-width="2" stroke-linecap="round" stroke-linejoin="round"/>
<path fill-rule="evenodd" clip-rule="evenodd" d="M305.35 477.391C308.06 477.391 310.257 475.054 310.257 472.172C310.257 469.29 308.06 466.953 305.35 466.953C302.64 466.953 300.444 469.29 300.444 472.172C300.444 475.054 302.64 477.391 305.35 477.391Z" stroke="#99CFFF" stroke-width="2"/>
<path fill-rule="evenodd" clip-rule="evenodd" d="M201.496 343.444C206.012 343.444 209.674 339.55 209.674 334.746C209.674 329.942 206.012 326.048 201.496 326.048C196.98 326.048 193.319 329.942 193.319 334.746C193.319 339.55 196.98 343.444 201.496 343.444Z" stroke="#99CFFF" stroke-width="2"/>
<path d="M521.236 273.856C525.236 257.812 527.028 285.402 536.773 269.71" stroke="#99CFFF" stroke-width="2" stroke-linecap="round" stroke-linejoin="round"/>
<path fill-rule="evenodd" clip-rule="evenodd" d="M209.674 334.746C211.932 334.746 213.762 332.799 213.762 330.397C213.762 327.995 211.932 326.048 209.674 326.048C207.415 326.048 205.585 327.995 205.585 330.397C205.585 332.799 207.415 334.746 209.674 334.746Z" stroke="#99CFFF" stroke-width="2"/>
<path d="M69.8386 293.866L77.0221 299.246L71.8947 306.784L79.1838 312.829L74.0547 320.356L81.2871 326.048" stroke="#99CFFF" stroke-width="2" stroke-linecap="round" stroke-linejoin="round"/>
<path fill-rule="evenodd" clip-rule="evenodd" d="M24.8625 471.302L36.8022 465.556L38.7642 449.558L26.8245 455.304L24.8625 471.302Z" stroke="#99CFFF" stroke-width="2" stroke-linejoin="round"/>
<path d="M10.143 369.807C10.143 369.807 31.8671 367.54 36.311 384.324" stroke="#99CFFF" stroke-width="2" stroke-linecap="round" stroke-linejoin="round"/>
<path fill-rule="evenodd" clip-rule="evenodd" d="M86.1936 434.771C88.9034 434.771 91.1001 432.435 91.1001 429.553C91.1001 426.67 88.9034 424.334 86.1936 424.334C83.4838 424.334 81.2871 426.67 81.2871 429.553C81.2871 432.435 83.4838 434.771 86.1936 434.771Z" stroke="#99CFFF" stroke-width="2"/>
<path d="M16.685 273.856C20.6851 257.812 22.4774 285.402 32.2222 269.71" stroke="#99CFFF" stroke-width="2" stroke-linecap="round" stroke-linejoin="round"/>
<path d="M525.324 111.213L529.914 106.863L533.755 112.061L538.778 107.754L542.611 112.951L547.404 108.623" stroke="#99CFFF" stroke-width="2" stroke-linecap="round" stroke-linejoin="round"/>
<path fill-rule="evenodd" clip-rule="evenodd" d="M589.518 74.6805C593.357 74.6805 596.469 71.3705 596.469 67.2873C596.469 63.2042 593.357 59.8942 589.518 59.8942C585.679 59.8942 582.567 63.2042 582.567 67.2873C582.567 71.3705 585.679 74.6805 589.518 74.6805Z" stroke="#99CFFF" stroke-width="2"/>
<path fill-rule="evenodd" clip-rule="evenodd" d="M596.06 69.4618C601.705 69.4618 606.282 64.5941 606.282 58.5895C606.282 52.5849 601.705 47.7172 596.06 47.7172C590.414 47.7172 585.838 52.5849 585.838 58.5895C585.838 64.5941 590.414 69.4618 596.06 69.4618Z" stroke="#99CFFF" stroke-width="2"/>
<path fill-rule="evenodd" clip-rule="evenodd" d="M550.299 9.44667C545.538 12.0362 543.593 18.3685 545.955 23.5876C548.318 28.8079 554.092 30.9397 558.852 28.3502L550.299 9.44667Z" stroke="#99CFFF" stroke-width="2" stroke-linecap="round" stroke-linejoin="round"/>
<path fill-rule="evenodd" clip-rule="evenodd" d="M586.194 387.442C588.941 384.592 588.997 379.911 586.316 376.987C583.637 374.065 579.236 374.005 576.487 376.857C573.739 379.707 573.684 384.388 576.364 387.312C579.045 390.234 583.446 390.293 586.194 387.442Z" stroke="#99CFFF" stroke-width="2"/>
<path fill-rule="evenodd" clip-rule="evenodd" d="M606.396 186.996C590.229 196.924 584.382 179.226 594.009 176.062L606.396 186.996Z" stroke="#99CFFF" stroke-width="2" stroke-linecap="round" stroke-linejoin="round"/>
<path fill-rule="evenodd" clip-rule="evenodd" d="M519.6 206.431C519.927 211.829 524.213 215.918 529.175 215.564C534.137 215.211 537.896 210.548 537.571 205.148L519.6 206.431Z" stroke="#99CFFF" stroke-width="2" stroke-linecap="round" stroke-linejoin="round"/>
<path fill-rule="evenodd" clip-rule="evenodd" d="M597.074 449.558L582.567 452.393L585.231 467.823L599.74 464.988L597.074 449.558Z" stroke="#99CFFF" stroke-width="2" stroke-linejoin="round"/>
<path d="M254.65 19.0143L256.16 13.1453L261.805 14.7165L263.683 8.62649L269.321 10.2026L271.005 4.22797" stroke="#99CFFF" stroke-width="2" stroke-linecap="round" stroke-linejoin="round"/>
<path fill-rule="evenodd" clip-rule="evenodd" d="M600.44 239.242L605.712 238.906L608.074 243.257L605.164 247.945L599.892 248.281L597.53 243.93L600.44 239.242Z" stroke="#99CFFF" stroke-width="2"/>
<path fill-rule="evenodd" clip-rule="evenodd" d="M501.61 383.454C506.126 383.454 509.787 379.56 509.787 374.756C509.787 369.952 506.126 366.058 501.61 366.058C497.093 366.058 493.432 369.952 493.432 374.756C493.432 379.56 497.093 383.454 501.61 383.454Z" stroke="#99CFFF" stroke-width="2"/>
<path fill-rule="evenodd" clip-rule="evenodd" d="M368.673 237.839C371.42 234.989 371.476 230.308 368.795 227.384C366.116 224.462 361.715 224.402 358.966 227.254C356.218 230.104 356.162 234.785 358.843 237.709C361.524 240.631 365.925 240.69 368.673 237.839Z" stroke="#99CFFF" stroke-width="2"/>
</g>
</g>
<defs>
<linearGradient id="paint0_linear" x1="864" y1="-3.16598e-07" x2="861" y2="492" gradientUnits="userSpaceOnUse">
<stop stop-color="white"/>
<stop offset="1" stop-color="white" stop-opacity="0"/>
</linearGradient>
</defs>
</svg>
