<?xml version="1.0" encoding="UTF-8" standalone="no"?>
<svg width="64px" height="64px" viewBox="0 0 64 64" version="1.1" xmlns="http://www.w3.org/2000/svg" xmlns:xlink="http://www.w3.org/1999/xlink">
    <!-- Generator: sketchtool 3.6.1 (26313) - http://www.bohemiancoding.com/sketch -->
    <title>B677BD1D-F923-41EB-8423-D7DA891AB9EA</title>
    <desc>Created with sketchtool.</desc>
    <defs></defs>
    <g id="Page-1" stroke="none" stroke-width="1" fill="none" fill-rule="evenodd">
        <g id="Donation" transform="translate(-540.000000, -927.000000)">
            <g id="::-avatar-options-(paginated)" transform="translate(540.000000, 927.000000)">
                <g id="::-icon-avatar-(placeholder)">
                    <circle id="div" fill="#F5F9FA" cx="32" cy="32" r="32"></circle>
                    <path d="M13.2105029,31.0237241 C12.6691614,31.176 12.0870264,31.089931 11.6129391,30.7875862 C11.1377494,30.4841379 10.8147085,29.9931034 10.7231987,29.4369655 C10.6802001,29.1213793 10.6515343,28.7991724 10.6515343,28.4703448 C10.6515343,25.3983448 13.1443512,22.9045517 16.2137905,22.9045517 C19.2832298,22.9045517 21.7760467,25.3983448 21.7760467,28.4703448 C21.7760467,28.9944828 21.7032798,29.502069 21.5676688,29.9831724 C21.4496982,30.4046897 21.1652459,30.7611034 20.7804635,30.9696552 C20.3945785,31.1782069 19.9414393,31.2212414 19.523581,31.089931 C18.5070497,30.8074483 17.3890859,30.6408276 16.2137905,30.6408276 C15.1542606,30.6408276 14.141037,30.7765517 13.2105029,31.0237241 L13.2105029,31.0237241 Z" id="Shape" stroke="#D7DADC" stroke-width="2" fill="#FFFFFF"></path>
                    <path d="M45.2257249,30.9222069 C44.5212092,31.0877241 43.7803101,30.9266207 43.2069953,30.4841379 C42.634783,30.0416552 42.2918966,29.3641379 42.2742562,28.6402759 C42.2544107,28.584 42.2544107,28.5277241 42.2544107,28.4703448 C42.2544107,25.3983448 44.746125,22.9045517 47.8155643,22.9045517 C50.8861061,22.9045517 53.3778205,25.3983448 53.3778205,28.4703448 C53.3778205,28.6226207 53.3723079,28.7726897 53.3601801,28.9216552 C53.3138739,29.5903448 52.9742951,30.2049655 52.4318511,30.5988966 C51.8894071,30.9928276 51.2014293,31.1263448 50.5509375,30.9630345 C49.6964779,30.7522759 48.7747641,30.6408276 47.8155643,30.6408276 C46.911491,30.6408276 46.0404935,30.7401379 45.2257249,30.9222069 L45.2257249,30.9222069 Z" id="Shape" stroke="#D7DADC" stroke-width="2" fill="#FFFFFF"></path>
                    <path d="M37.2246757,39.3062069 C37.2246757,40.8962759 35.065925,42.1884138 32.4077288,42.1884138 C29.7484301,42.1884138 27.5907819,40.8962759 27.5907819,39.3062069" id="Shape" stroke="#D7DADC" stroke-width="2"></path>
                    <path d="M8.62729203,51.761931 C7.54460906,50.4731034 6.56556377,49.0937931 5.70448902,47.6372414 C3.00549931,43.0755862 1.45644679,37.7547586 1.45644679,32.0742069 C1.45644679,15.176 15.1641834,1.45682759 32.0483045,1.45682759 C48.9313231,1.45682759 62.6390597,15.176 62.6390597,32.0742069 C62.6390597,48.9713103 48.9313231,62.6904828 32.0483045,62.6904828 C28.4353187,62.6904828 24.9689692,62.0626207 21.7506885,60.9095172 C20.9237922,60.6137931 20.1134337,60.2827586 19.3218183,59.9197241" id="Shape" stroke="#D7DADC" stroke-width="2"></path>
                    <path d="M14.8786285,57.4104828 C14.028579,56.8322759 13.2082979,56.2121379 12.4221951,55.5533793" id="Shape" stroke="#D7DADC" stroke-width="2"></path>
                </g>
            </g>
        </g>
    </g>
</svg>