<?xml version="1.0" encoding="UTF-8" standalone="no"?>
<svg width="66px" height="66px" viewBox="0 0 66 66" version="1.1" xmlns="http://www.w3.org/2000/svg" xmlns:xlink="http://www.w3.org/1999/xlink">
    <!-- Generator: Sketch 3.7.2 (28276) - http://www.bohemiancoding.com/sketch -->
    <title>:: upload img</title>
    <desc>Created with Sketch.</desc>
    <defs></defs>
    <g id="Page-1" stroke="none" stroke-width="1" fill="none" fill-rule="evenodd">
        <g id="Pending-Collective" transform="translate(-1233.000000, -1103.000000)">
            <g id="::-upload-img" transform="translate(1234.000000, 1104.000000)">
                <circle id="Oval-370" stroke="#CED5D9" stroke-width="2" fill="#FFFFFF" cx="32" cy="32" r="32"></circle>
                <path d="M35.0113388,25.7485198 C35.1674289,25.9052095 35.3722846,25.9833544 35.5773402,25.9833544 C35.7815963,25.9833544 35.9860523,25.9056092 36.1419425,25.749719 C36.4547223,25.4379385 36.4553218,24.9314952 36.1433416,24.6189153 L32.7587252,21.2257051 C32.6088308,21.0754109 32.4051742,20.9908705 32.1929237,20.9908705 C31.9804733,20.9908705 31.7768168,21.0754109 31.6269223,21.2257051 L28.242306,24.6189153 C27.9305256,24.9314952 27.9309253,25.4379385 28.243705,25.749719 C28.556085,26.0618991 29.0623285,26.0612995 29.3743088,25.7485198 L31.3988829,23.7187493 L31.4222665,31.1900875 C31.4236655,31.630977 31.7814135,31.985927 32.2217034,31.985927 L32.2243016,31.985927 C32.6659905,31.985927 33.0227393,31.6267799 33.0213403,31.185091 L32.9979568,23.7295417 L35.0113388,25.7485198 L35.0113388,25.7485198 Z M41.3772555,25.0925818 C41.2525433,26.8393516 39.9020944,28.724424 37.2315751,28.724424 C36.0110347,28.724424 35.3660889,28.7294204 35.3660889,28.7294204 C34.9245999,28.7260228 34.5692501,28.385063 34.5726477,27.943374 C34.5760454,27.5038836 34.9333937,27.1893051 35.3720847,27.1893051 L35.3782804,27.1893051 C35.3800791,27.1893051 36.020628,27.1545296 37.2315751,27.1545296 C38.8880086,27.1545296 39.7062323,26.0395149 39.7823787,24.9736655 C39.8605236,23.8786367 39.1726081,22.6636924 37.4594147,22.4174658 C37.2375709,22.3854883 37.0393105,22.2619753 36.9127996,22.0769056 C36.7864886,21.891836 36.7435189,21.6621977 36.794483,21.4439514 C37.0133288,20.5068114 36.7820917,19.7685313 36.1601297,19.4179782 C35.6398961,19.1249846 34.8074824,19.129981 34.1203663,19.8019078 C33.9400932,19.9781837 33.687671,20.0595264 33.4382467,20.020354 C33.189222,19.9813814 32.9729743,19.8274898 32.8548575,19.6046468 C31.7046676,17.4331761 29.9131293,17.3162584 28.7281638,17.8764639 C27.5885664,18.4148847 26.6822047,19.7621358 27.3853096,21.4465496 C27.4720485,21.654603 27.467052,21.8902371 27.3713194,22.0944932 C27.2757867,22.2987494 27.0985116,22.4542399 26.8830633,22.520793 C24.5033393,23.254876 24.550506,24.8547493 24.6216559,25.3266169 C24.7543625,26.2073966 25.4560683,27.1039652 26.5407044,27.1039652 L29.0329492,27.126949 C29.4746381,27.1293473 29.8307873,27.5096795 29.828389,27.9513684 C29.8261905,28.3916583 29.4686423,28.7881791 29.028952,28.7881791 L29.024755,28.7881791 L26.5367072,28.7342171 C24.7861401,28.7342171 23.3139769,27.3753741 23.0403696,25.5598527 C22.8283189,24.1514446 23.416105,22.2725678 25.6527298,21.2734714 C25.1374926,19.0752196 26.3788184,17.2173281 28.0452448,16.4298826 C29.7634347,15.6178545 32.1805324,15.8462936 33.7830039,18.0711268 C34.7823001,17.5093224 35.9660664,17.472948 36.9451768,18.0245596 C37.7819875,18.4962274 38.549447,19.503518 38.4689037,21.0046608 C40.615392,21.6478078 41.4911752,23.4989041 41.3772555,25.0925818 L41.3772555,25.0925818 Z" id="cloud-upload" fill="#75CC1E"></path>
                <text id="UPLOAD" font-family="Montserrat-Bold, Montserrat, sans-serif" font-size="10" text-anchor="middle" font-weight="bold" fill="#75CC1F">
                    <tspan x="32" y="43">UPLOAD</tspan>
                </text>
            </g>
        </g>
    </g>
</svg>