<?xml version="1.0" standalone="no"?><!DOCTYPE svg PUBLIC "-//W3C//DTD SVG 1.1//EN" "http://www.w3.org/Graphics/SVG/1.1/DTD/svg11.dtd"><svg width="100%" height="100%" viewBox="0 0 81 81" version="1.1" xmlns="http://www.w3.org/2000/svg" xmlns:xlink="http://www.w3.org/1999/xlink" xml:space="preserve" style="fill-rule:evenodd;clip-rule:evenodd;stroke-linejoin:round;stroke-miterlimit:1.41421;"><circle cx="40.232" cy="40.232" r="38.5" style="fill:#fafafa;stroke-width:2px;stroke:#dadada;"/><g id=":)"><g id="tongue"><path d="M53.801,54.895l-26.065,0" style="fill:none;stroke-width:2px;stroke-linecap:round;stroke-miterlimit:1;stroke:#dadada;"/><path d="M37.993,54.895l-7.103,0c0,0 0,3.35 0,6.103c0,0.941 0.374,1.844 1.04,2.51c0.666,0.666 1.569,1.04 2.51,1.04c0.001,0 0.002,0 0.003,0c0.941,0 1.844,-0.374 2.51,-1.04c0.666,-0.666 1.04,-1.569 1.04,-2.51c0,-2.753 0,-6.103 0,-6.103Z" style="fill:#fff;stroke-width:2px;stroke-linecap:round;stroke-miterlimit:1;stroke:#dadada;"/></g><path d="M55.473,29.071c3.035,0 5.5,2.464 5.5,5.5c0,3.035 -2.465,3.5 -5.5,3.5c-3.036,0 -5.5,-0.465 -5.5,-3.5c0,-3.036 2.464,-5.5 5.5,-5.5Z" style="fill:#fff;stroke-width:2px;stroke-linecap:round;stroke-linejoin:miter;stroke-miterlimit:1;stroke:#dadada;"/><path d="M22.759,29.071l8.5,5.5l-8.5,5.5" style="fill:none;stroke-width:2px;stroke-linecap:round;stroke-miterlimit:1;stroke:#dadada;"/></g></svg>