<svg width="32" height="32" viewBox="0 0 32 32" fill="none" xmlns="http://www.w3.org/2000/svg">
<path d="M28.2914 23.2916H25.3747V13.3958H28.2914C28.7456 13.3958 29.1475 13.1014 29.2845 12.6684C29.4216 12.2354 29.2622 11.7634 28.8907 11.5021L16.5991 2.85627C16.2396 2.60341 15.7601 2.60341 15.4005 2.85627L3.10892 11.5021C2.73741 11.7634 2.57809 12.2354 2.71512 12.6684C2.8521 13.1014 3.25398 13.3958 3.70819 13.3958H6.62487V23.2916H3.70819C3.13288 23.2916 2.66653 23.758 2.66653 24.3333V28.2916C2.66653 28.8669 3.13288 29.3333 3.70819 29.3333H28.2914C28.8667 29.3333 29.3331 28.8669 29.3331 28.2916V24.3333C29.333 23.758 28.8667 23.2916 28.2914 23.2916ZM15.9998 4.9818L24.9999 11.3124C24.0623 11.3124 7.86471 11.3124 6.99971 11.3124L15.9998 4.9818ZM23.2914 13.3958V23.2916H21.4164V13.3958H23.2914ZM19.3331 13.3958V23.2916H12.6664V13.3958H19.3331ZM8.70815 13.3958H10.5832V23.2916H8.70815V13.3958ZM4.74981 27.25V25.375C4.96278 25.375 27.0268 25.375 27.2497 25.375V27.25H4.74981Z" fill="#297EFF"/>
</svg>
