<svg width="32" height="34" viewBox="0 0 32 34" fill="none" xmlns="http://www.w3.org/2000/svg">
<mask id="path-1-outside-1" maskUnits="userSpaceOnUse" x="6.91162" y="8.25061" width="19" height="18" fill="black">
<rect fill="white" x="6.91162" y="8.25061" width="19" height="18"/>
<path fill-rule="evenodd" clip-rule="evenodd" d="M16.0665 10.0434C17.4925 10.0434 18.6501 11.2108 18.6501 12.6523C18.6501 14.0946 17.4924 15.262 16.0665 15.262C14.6407 15.262 13.4837 14.0946 13.4837 12.6523C13.4837 11.2108 14.6406 10.0434 16.0665 10.0434ZM16.0665 16.054C17.9323 16.054 19.443 14.5307 19.443 12.6523C19.443 10.7746 17.9323 9.25061 16.0665 9.25061C14.2015 9.25061 12.6909 10.7746 12.6909 12.6523C12.6909 12.8811 12.7133 13.1046 12.756 13.3207C12.1838 13.7161 11.6819 14.2087 11.274 14.7751C10.9946 15.163 10.762 15.5821 10.5807 16.0257C10.4975 16.2278 10.5948 16.4596 10.7969 16.5421C10.9998 16.6253 11.2309 16.528 11.3141 16.3259L11.3141 16.3259C11.4716 15.9402 11.6745 15.5754 11.9167 15.2388C12.2258 14.8087 12.5969 14.4286 13.0159 14.1108C13.5577 15.2596 14.7197 16.054 16.0665 16.054ZM21.7474 18.5C22.896 18.7646 23.7541 19.8026 23.7541 21.0443C23.7541 22.4858 22.5965 23.6532 21.1705 23.6532C19.7446 23.6532 18.587 22.4858 18.587 21.0443C18.587 19.602 19.7446 18.4346 21.1705 18.4346C21.3554 18.4346 21.5358 18.4543 21.7097 18.4916C21.722 18.495 21.7346 18.4978 21.7474 18.5ZM22.1917 17.8009C23.5572 18.237 24.5462 19.5243 24.5462 21.0443C24.5462 22.922 23.0356 24.446 21.1706 24.446C19.3055 24.446 17.7949 22.922 17.7949 21.0443C17.7949 19.1659 19.3055 17.6426 21.1706 17.6426C21.2402 17.6426 21.3093 17.6447 21.3779 17.6489C21.3083 17.1175 21.1599 16.6046 20.938 16.1232C20.7686 15.7531 20.5569 15.4047 20.3079 15.0837L20.3079 15.0835C20.1734 14.9111 20.2046 14.6622 20.3778 14.5277C20.5509 14.3932 20.7998 14.4252 20.9336 14.5976C21.2197 14.9661 21.4634 15.3674 21.6581 15.7916C21.9486 16.4217 22.129 17.0993 22.1917 17.8009ZM11.2873 18.6435C12.7132 18.6435 13.8708 19.8108 13.8708 21.2523C13.8708 21.9553 13.5959 22.5929 13.1489 23.0619C13.1477 23.0632 13.1464 23.0644 13.1452 23.0657C12.6753 23.5568 12.0164 23.862 11.2873 23.862C9.86138 23.862 8.70446 22.6946 8.70446 21.2523C8.70446 19.8108 9.86136 18.6435 11.2873 18.6435ZM13.5008 23.8214C12.9083 24.34 12.1344 24.6541 11.2873 24.6541C9.42222 24.6541 7.91162 23.1308 7.91162 21.2523C7.91162 19.3747 9.42224 17.8506 11.2873 17.8506C13.1531 17.8506 14.6637 19.3746 14.6637 21.2523C14.6637 21.9789 14.4377 22.6524 14.0525 23.2051C14.5314 23.4183 15.0415 23.5585 15.5687 23.619C15.7671 23.642 15.9678 23.6532 16.1699 23.6532C16.4478 23.6532 16.722 23.6316 16.9902 23.5893L16.9903 23.5892C17.2065 23.5543 17.4094 23.7022 17.4435 23.9177C17.4785 24.1339 17.3314 24.3375 17.1151 24.3717C16.8053 24.4215 16.4895 24.446 16.1699 24.446C15.9374 24.446 15.707 24.4326 15.4782 24.4066C14.7855 24.3273 14.1184 24.1284 13.5008 23.8214Z"/>
</mask>
<path fill-rule="evenodd" clip-rule="evenodd" d="M16.0665 10.0434C17.4925 10.0434 18.6501 11.2108 18.6501 12.6523C18.6501 14.0946 17.4924 15.262 16.0665 15.262C14.6407 15.262 13.4837 14.0946 13.4837 12.6523C13.4837 11.2108 14.6406 10.0434 16.0665 10.0434ZM16.0665 16.054C17.9323 16.054 19.443 14.5307 19.443 12.6523C19.443 10.7746 17.9323 9.25061 16.0665 9.25061C14.2015 9.25061 12.6909 10.7746 12.6909 12.6523C12.6909 12.8811 12.7133 13.1046 12.756 13.3207C12.1838 13.7161 11.6819 14.2087 11.274 14.7751C10.9946 15.163 10.762 15.5821 10.5807 16.0257C10.4975 16.2278 10.5948 16.4596 10.7969 16.5421C10.9998 16.6253 11.2309 16.528 11.3141 16.3259L11.3141 16.3259C11.4716 15.9402 11.6745 15.5754 11.9167 15.2388C12.2258 14.8087 12.5969 14.4286 13.0159 14.1108C13.5577 15.2596 14.7197 16.054 16.0665 16.054ZM21.7474 18.5C22.896 18.7646 23.7541 19.8026 23.7541 21.0443C23.7541 22.4858 22.5965 23.6532 21.1705 23.6532C19.7446 23.6532 18.587 22.4858 18.587 21.0443C18.587 19.602 19.7446 18.4346 21.1705 18.4346C21.3554 18.4346 21.5358 18.4543 21.7097 18.4916C21.722 18.495 21.7346 18.4978 21.7474 18.5ZM22.1917 17.8009C23.5572 18.237 24.5462 19.5243 24.5462 21.0443C24.5462 22.922 23.0356 24.446 21.1706 24.446C19.3055 24.446 17.7949 22.922 17.7949 21.0443C17.7949 19.1659 19.3055 17.6426 21.1706 17.6426C21.2402 17.6426 21.3093 17.6447 21.3779 17.6489C21.3083 17.1175 21.1599 16.6046 20.938 16.1232C20.7686 15.7531 20.5569 15.4047 20.3079 15.0837L20.3079 15.0835C20.1734 14.9111 20.2046 14.6622 20.3778 14.5277C20.5509 14.3932 20.7998 14.4252 20.9336 14.5976C21.2197 14.9661 21.4634 15.3674 21.6581 15.7916C21.9486 16.4217 22.129 17.0993 22.1917 17.8009ZM11.2873 18.6435C12.7132 18.6435 13.8708 19.8108 13.8708 21.2523C13.8708 21.9553 13.5959 22.5929 13.1489 23.0619C13.1477 23.0632 13.1464 23.0644 13.1452 23.0657C12.6753 23.5568 12.0164 23.862 11.2873 23.862C9.86138 23.862 8.70446 22.6946 8.70446 21.2523C8.70446 19.8108 9.86136 18.6435 11.2873 18.6435ZM13.5008 23.8214C12.9083 24.34 12.1344 24.6541 11.2873 24.6541C9.42222 24.6541 7.91162 23.1308 7.91162 21.2523C7.91162 19.3747 9.42224 17.8506 11.2873 17.8506C13.1531 17.8506 14.6637 19.3746 14.6637 21.2523C14.6637 21.9789 14.4377 22.6524 14.0525 23.2051C14.5314 23.4183 15.0415 23.5585 15.5687 23.619C15.7671 23.642 15.9678 23.6532 16.1699 23.6532C16.4478 23.6532 16.722 23.6316 16.9902 23.5893L16.9903 23.5892C17.2065 23.5543 17.4094 23.7022 17.4435 23.9177C17.4785 24.1339 17.3314 24.3375 17.1151 24.3717C16.8053 24.4215 16.4895 24.446 16.1699 24.446C15.9374 24.446 15.707 24.4326 15.4782 24.4066C14.7855 24.3273 14.1184 24.1284 13.5008 23.8214Z" fill="#1869F5"/>
<path d="M12.756 13.3207L13.0971 13.8143L13.4209 13.5905L13.3446 13.2043L12.756 13.3207ZM11.274 14.7751L11.7608 15.1258L11.7609 15.1257L11.274 14.7751ZM10.5807 16.0257L11.1355 16.2541L11.1361 16.2527L10.5807 16.0257ZM10.7969 16.5421L11.0247 15.987L11.0236 15.9866L10.7969 16.5421ZM11.3141 16.3259L11.8689 16.5543L12.0926 16.011L11.5541 15.7759L11.3141 16.3259ZM11.3141 16.3259L10.7587 16.0989L10.537 16.6414L11.0741 16.8758L11.3141 16.3259ZM11.9167 15.2388L12.4037 15.5893L12.4039 15.5889L11.9167 15.2388ZM13.0159 14.1108L13.5586 13.8549L13.243 13.1854L12.6533 13.6327L13.0159 14.1108ZM21.7474 18.5L21.8822 17.9153L21.8656 17.9115L21.8488 17.9086L21.7474 18.5ZM21.7097 18.4916L21.8685 17.913L21.8521 17.9085L21.8355 17.9049L21.7097 18.4916ZM22.1917 17.8009L21.594 17.8543L21.6295 18.2512L22.0091 18.3725L22.1917 17.8009ZM21.3779 17.6489L21.3413 18.2478L22.0672 18.292L21.9728 17.571L21.3779 17.6489ZM20.938 16.1232L20.3925 16.373L20.3931 16.3743L20.938 16.1232ZM20.3079 15.0837L19.7079 15.0793L19.7064 15.2871L19.8338 15.4513L20.3079 15.0837ZM20.3079 15.0835L20.9079 15.0879L20.9094 14.8791L20.781 14.7145L20.3079 15.0835ZM20.3778 14.5277L20.0097 14.0539L20.0097 14.0539L20.3778 14.5277ZM20.9336 14.5976L20.4595 14.9654L20.4596 14.9655L20.9336 14.5976ZM21.6581 15.7916L21.1127 16.0419L21.1132 16.0429L21.6581 15.7916ZM13.1489 23.0619L13.58 23.4792L13.5832 23.4759L13.1489 23.0619ZM13.1452 23.0657L13.5788 23.4805L13.5818 23.4773L13.1452 23.0657ZM13.5008 23.8214L13.7679 23.2841L13.4081 23.1052L13.1057 23.3699L13.5008 23.8214ZM14.0525 23.2051L13.5603 22.862L13.1451 23.4578L13.8085 23.7532L14.0525 23.2051ZM15.5687 23.619L15.6379 23.023L15.6371 23.0229L15.5687 23.619ZM16.9902 23.5893L16.9097 22.9945L16.8966 22.9966L16.9902 23.5893ZM16.9903 23.5892L17.0708 24.1838L17.0784 24.1828L17.086 24.1816L16.9903 23.5892ZM17.4435 23.9177L16.851 24.0117L16.8512 24.0134L17.4435 23.9177ZM17.1151 24.3717L17.0214 23.779L17.0199 23.7793L17.1151 24.3717ZM15.4782 24.4066L15.4099 25.0027L15.4104 25.0028L15.4782 24.4066ZM19.2501 12.6523C19.2501 10.8847 17.8291 9.44345 16.0665 9.44345V10.6434C17.1558 10.6434 18.0501 11.5369 18.0501 12.6523H19.2501ZM16.0665 15.862C17.8292 15.862 19.2501 14.4206 19.2501 12.6523H18.0501C18.0501 13.7686 17.1557 14.662 16.0665 14.662V15.862ZM12.8837 12.6523C12.8837 14.4203 14.3037 15.862 16.0665 15.862V14.662C14.9776 14.662 14.0837 13.7688 14.0837 12.6523H12.8837ZM16.0665 9.44345C14.3038 9.44345 12.8837 10.8849 12.8837 12.6523H14.0837C14.0837 11.5366 14.9775 10.6434 16.0665 10.6434V9.44345ZM18.843 12.6523C18.843 14.2038 17.5966 15.454 16.0665 15.454V16.654C18.2681 16.654 20.043 14.8577 20.043 12.6523H18.843ZM16.0665 9.85061C17.5965 9.85061 18.843 11.1015 18.843 12.6523H20.043C20.043 10.4477 18.2682 8.65061 16.0665 8.65061V9.85061ZM13.2909 12.6523C13.2909 11.1014 14.5374 9.85061 16.0665 9.85061V8.65061C13.8656 8.65061 12.0909 10.4478 12.0909 12.6523H13.2909ZM13.3446 13.2043C13.3094 13.0263 13.2909 12.8418 13.2909 12.6523H12.0909C12.0909 12.9203 12.1171 13.1828 12.1674 13.437L13.3446 13.2043ZM11.7609 15.1257C12.1288 14.6147 12.5815 14.1706 13.0971 13.8143L12.4149 12.8271C11.786 13.2616 11.2349 13.8026 10.7871 14.4245L11.7609 15.1257ZM11.1361 16.2527C11.2995 15.853 11.509 15.4754 11.7608 15.1258L10.7871 14.4244C10.4802 14.8506 10.2246 15.3112 10.0253 15.7987L11.1361 16.2527ZM11.0236 15.9866C11.1285 16.0294 11.1789 16.1487 11.1355 16.2541L10.0259 15.7972C9.81603 16.3069 10.0611 16.8899 10.5702 17.0976L11.0236 15.9866ZM10.7593 16.0974C10.8015 15.9948 10.9198 15.944 11.0247 15.987L10.5692 17.0972C11.0798 17.3067 11.6602 17.0611 11.8689 16.5543L10.7593 16.0974ZM11.0741 16.8758L11.0741 16.8758L11.5541 15.7759L11.5541 15.7759L11.0741 16.8758ZM11.4297 14.8883C11.1602 15.2628 10.9343 15.6691 10.7587 16.0989L11.8695 16.5528C12.009 16.2114 12.1888 15.8879 12.4037 15.5893L11.4297 14.8883ZM12.6533 13.6327C12.1868 13.9867 11.7736 14.4098 11.4295 14.8886L12.4039 15.5889C12.678 15.2076 13.0071 14.8706 13.3786 14.5888L12.6533 13.6327ZM16.0665 15.454C14.9624 15.454 14.0059 14.8034 13.5586 13.8549L12.4732 14.3666C13.1095 15.7159 14.4769 16.654 16.0665 16.654V15.454ZM24.3541 21.0443C24.3541 19.5207 23.3007 18.2421 21.8822 17.9153L21.6127 19.0846C22.4914 19.2871 23.1541 20.0845 23.1541 21.0443H24.3541ZM21.1705 24.2532C22.9331 24.2532 24.3541 22.8119 24.3541 21.0443H23.1541C23.1541 22.1597 22.2598 23.0532 21.1705 23.0532V24.2532ZM17.987 21.0443C17.987 22.8119 19.408 24.2532 21.1705 24.2532V23.0532C20.0813 23.0532 19.187 22.1597 19.187 21.0443H17.987ZM21.1705 17.8346C19.4079 17.8346 17.987 19.276 17.987 21.0443H19.187C19.187 19.928 20.0814 19.0346 21.1705 19.0346V17.8346ZM21.8355 17.9049C21.6205 17.8588 21.398 17.8346 21.1705 17.8346V19.0346C21.3128 19.0346 21.451 19.0497 21.5838 19.0782L21.8355 17.9049ZM21.8488 17.9086C21.8555 17.9097 21.8621 17.9112 21.8685 17.913L21.5508 19.0701C21.582 19.0787 21.6138 19.0858 21.6461 19.0913L21.8488 17.9086ZM22.0091 18.3725C23.1306 18.7306 23.9462 19.7902 23.9462 21.0443H25.1462C25.1462 19.2584 23.9838 17.7433 22.3742 17.2293L22.0091 18.3725ZM23.9462 21.0443C23.9462 22.5952 22.6997 23.846 21.1706 23.846V25.046C23.3715 25.046 25.1462 23.2488 25.1462 21.0443H23.9462ZM21.1706 23.846C19.6414 23.846 18.3949 22.5952 18.3949 21.0443H17.1949C17.1949 23.2488 18.9696 25.046 21.1706 25.046V23.846ZM18.3949 21.0443C18.3949 19.4927 19.6414 18.2426 21.1706 18.2426V17.0426C18.9697 17.0426 17.1949 18.839 17.1949 21.0443H18.3949ZM21.1706 18.2426C21.228 18.2426 21.2849 18.2443 21.3413 18.2478L21.4144 17.05C21.3337 17.0451 21.2524 17.0426 21.1706 17.0426V18.2426ZM21.9728 17.571C21.8954 16.9798 21.7301 16.4085 21.483 15.8721L20.3931 16.3743C20.5896 16.8008 20.7212 17.2553 20.7829 17.7268L21.9728 17.571ZM21.4836 15.8734C21.2947 15.4609 21.0589 15.0729 20.7821 14.716L19.8338 15.4513C20.0548 15.7364 20.2425 16.0454 20.3925 16.3729L21.4836 15.8734ZM20.9079 15.088L20.9079 15.0879L19.7079 15.0792L19.7079 15.0793L20.9079 15.088ZM20.781 14.7145C20.8513 14.8046 20.8339 14.9332 20.7459 15.0015L20.0097 14.0539C19.5754 14.3913 19.4955 15.0176 19.8349 15.4526L20.781 14.7145ZM20.7459 15.0016C20.6567 15.0708 20.5286 15.0544 20.4595 14.9654L21.4076 14.2298C21.0711 13.796 20.4451 13.7156 20.0097 14.0539L20.7459 15.0016ZM20.4596 14.9655C20.7176 15.2979 20.9374 15.6597 21.1127 16.0419L22.2034 15.5414C21.9894 15.0751 21.7217 14.6344 21.4076 14.2297L20.4596 14.9655ZM21.1132 16.0429C21.3746 16.6098 21.5374 17.2205 21.594 17.8543L22.7893 17.7475C22.7205 16.9781 22.5225 16.2335 22.2029 15.5404L21.1132 16.0429ZM14.4708 21.2523C14.4708 19.4847 13.0498 18.0435 11.2873 18.0435V19.2435C12.3766 19.2435 13.2708 20.1369 13.2708 21.2523H14.4708ZM13.5832 23.4759C14.1328 22.8992 14.4708 22.1147 14.4708 21.2523H13.2708C13.2708 21.7959 13.0589 22.2867 12.7145 22.648L13.5832 23.4759ZM13.5818 23.4773C13.5814 23.4777 13.5808 23.4784 13.58 23.4792L12.7178 22.6446C12.7145 22.6479 12.7115 22.6511 12.7086 22.6541L13.5818 23.4773ZM11.2873 24.462C12.1876 24.462 13.001 24.0843 13.5787 23.4805L12.7117 22.6509C12.3496 23.0293 11.8451 23.262 11.2873 23.262V24.462ZM8.10446 21.2523C8.10446 23.0203 9.52441 24.462 11.2873 24.462V23.262C10.1983 23.262 9.30446 22.3688 9.30446 21.2523H8.10446ZM11.2873 18.0435C9.52451 18.0435 8.10446 19.4849 8.10446 21.2523H9.30446C9.30446 20.1367 10.1982 19.2435 11.2873 19.2435V18.0435ZM13.1057 23.3699C12.618 23.7968 11.9831 24.0541 11.2873 24.0541V25.2541C12.2857 25.2541 13.1986 24.8833 13.896 24.2728L13.1057 23.3699ZM11.2873 24.0541C9.75804 24.0541 8.51162 22.8039 8.51162 21.2523H7.31162C7.31162 23.4577 9.08639 25.2541 11.2873 25.2541V24.0541ZM8.51162 21.2523C8.51162 19.7015 9.75815 18.4506 11.2873 18.4506V17.2506C9.08633 17.2506 7.31162 19.0478 7.31162 21.2523H8.51162ZM11.2873 18.4506C12.8173 18.4506 14.0637 19.7015 14.0637 21.2523H15.2637C15.2637 19.0477 13.4889 17.2506 11.2873 17.2506V18.4506ZM14.0637 21.2523C14.0637 21.8527 13.8774 22.407 13.5603 22.862L14.5448 23.5481C14.998 22.8977 15.2637 22.1052 15.2637 21.2523H14.0637ZM13.8085 23.7532C14.3429 23.9911 14.9122 24.1476 15.5003 24.2151L15.6371 23.0229C15.1709 22.9694 14.72 22.8455 14.2966 22.6569L13.8085 23.7532ZM15.4995 24.215C15.7219 24.2408 15.9457 24.2532 16.1699 24.2532V23.0532C15.9898 23.0532 15.8123 23.0432 15.6379 23.023L15.4995 24.215ZM16.1699 24.2532C16.4788 24.2532 16.7843 24.2292 17.0838 24.1819L16.8966 22.9966C16.6596 23.034 16.4167 23.0532 16.1699 23.0532V24.2532ZM17.0707 24.1838L17.0708 24.1838L16.9098 22.9947L16.9097 22.9947L17.0707 24.1838ZM17.086 24.1816C16.973 24.1998 16.8686 24.1227 16.851 24.0117L18.0361 23.8237C17.9502 23.2817 17.44 22.9088 16.8946 22.9969L17.086 24.1816ZM16.8512 24.0134C16.8333 23.9026 16.9087 23.7969 17.0214 23.779L17.2088 24.9643C17.754 24.8781 18.1236 24.3652 18.0359 23.822L16.8512 24.0134ZM17.0199 23.7793C16.7427 23.8238 16.4588 23.846 16.1699 23.846V25.046C16.5202 25.046 16.8678 25.0191 17.2103 24.9641L17.0199 23.7793ZM16.1699 23.846C15.9605 23.846 15.7527 23.8339 15.5459 23.8104L15.4104 25.0028C15.6613 25.0313 15.9143 25.046 16.1699 25.046V23.846ZM15.5465 23.8105C14.9234 23.7391 14.3236 23.5603 13.7679 23.2841L13.2338 24.3586C13.9133 24.6964 14.6475 24.9154 15.4099 25.0027L15.5465 23.8105Z" fill="#1869F5" mask="url(#path-1-outside-1)"/>
<path d="M9.69879 0.718812L9.69882 0.718867C9.84141 0.640633 10.0026 0.6 10.1639 0.6H29.6363C30.1707 0.6 30.6048 1.03245 30.6048 1.56706V32.4315C30.6048 32.9666 30.1719 33.4 29.6366 33.4H2.96908C2.43378 33.4 2.0009 32.9666 2.0009 32.4315V9.10279C1.99931 9.07101 1.99956 9.03823 2.00208 9.00549L2.00298 8.99378L2.00457 8.98214L2.00858 8.95272L2.00972 8.94436L2.0098 8.94438L2.01382 8.91896L2.01575 8.9067L2.016 8.90558C2.01644 8.90267 2.01692 8.89954 2.01737 8.89686C2.01906 8.88674 2.02329 8.86249 2.03246 8.83353C2.03403 8.82856 2.03597 8.82271 2.03836 8.81614C2.0388 8.81456 2.03923 8.813 2.03967 8.81145V8.79383L2.07282 8.71756L2.08618 8.6868L2.09045 8.67699L2.09523 8.66742L2.10459 8.64869L2.11145 8.63495L2.11935 8.62178L2.1354 8.59502L2.14923 8.57196L2.15375 8.5663C2.15662 8.56192 2.16 8.55692 2.1639 8.55144L2.17498 8.5348L2.18113 8.52557L2.18779 8.51668L2.20383 8.49528L2.21287 8.48323L2.22279 8.47189L2.23834 8.4541L2.24863 8.44175L2.25746 8.43114L2.26701 8.42117L9.4659 0.899974L9.47188 0.893719L9.47195 0.893785L9.4773 0.888435L9.4856 0.880124L9.49438 0.872315L9.49721 0.869805L9.52274 0.839609L9.5589 0.81248C9.56781 0.805791 9.57675 0.79935 9.58215 0.795466L9.58899 0.79055C9.5911 0.789029 9.59026 0.789612 9.58833 0.791059M9.69879 0.718812L9.58833 0.791064C9.58833 0.791062 9.58833 0.791061 9.58833 0.791059M9.69879 0.718812L9.69266 0.722315L9.6833 0.727665L9.68326 0.727587L9.676 0.731948L9.66752 0.736989L9.6514 0.74677C9.63806 0.755066 9.6195 0.767172 9.59879 0.783285L9.59879 0.783289C9.59783 0.784039 9.5971 0.784598 9.59659 0.784994L9.58833 0.791059M9.69879 0.718812L9.58833 0.791059M10.8507 9.77451L10.8489 9.7763C10.668 9.95728 10.4218 10.0612 10.162 10.0594M10.8507 9.77451L10.1601 10.0594C10.1607 10.0594 10.1614 10.0594 10.162 10.0594M10.8507 9.77451C11.0289 9.59392 11.1318 9.34902 11.1318 9.09225V2.53707H28.668L28.6679 31.4631H3.93419V10.0594M10.8507 9.77451L3.93419 10.0594M10.162 10.0594H3.93419M10.162 10.0594H3.93419M2.14208 8.58499C2.14143 8.58608 2.14186 8.58535 2.14246 8.58437L2.14208 8.58499ZM2.02122 8.91051C2.02136 8.90856 2.02155 8.90611 2.02183 8.90323C2.02159 8.90592 2.02138 8.90838 2.02122 8.91051ZM5.23261 8.12256L9.19549 3.98035V8.12256H5.23261Z" fill="#1869F5" stroke="#1869F5" stroke-width="0.8"/>
</svg>
