<svg width="32" height="32" viewBox="0 0 32 32" fill="none" xmlns="http://www.w3.org/2000/svg">
<path fill-rule="evenodd" clip-rule="evenodd" d="M2.33325 10.6667H12.3333C13.6201 10.6667 14.6667 9.62012 14.6667 8.33325V2.33325C14.6667 1.04663 13.6201 0 12.3333 0H2.33325C1.04663 0 0 1.04663 0 2.33325V8.33325C0 9.62012 1.04663 10.6667 2.33325 10.6667ZM2 2.33325C2 2.14941 2.14941 2 2.33325 2H12.3333C12.5173 2 12.6667 2.14941 12.6667 2.33325V8.33325C12.6667 8.51733 12.5173 8.66675 12.3333 8.66675H2.33325C2.14941 8.66675 2 8.51733 2 8.33325V2.33325ZM2.33325 31.9999H12.3333C13.6201 31.9999 14.6667 30.9533 14.6667 29.6667V15.6667C14.6667 14.3798 13.6201 13.3332 12.3333 13.3332H2.33325C1.04663 13.3332 0 14.3798 0 15.6667V29.6667C0 30.9533 1.04663 31.9999 2.33325 31.9999ZM2 15.6667C2 15.4826 2.14941 15.3332 2.33325 15.3332H12.3333C12.5173 15.3332 12.6667 15.4826 12.6667 15.6667V29.6667C12.6667 29.8505 12.5173 29.9999 12.3333 29.9999H2.33325C2.14941 29.9999 2 29.8505 2 29.6667V15.6667ZM29.6667 31.9999H19.6667C18.3799 31.9999 17.3333 30.9533 17.3333 29.6667V23.6667C17.3333 22.3798 18.3799 21.3332 19.6667 21.3332H29.6667C30.9534 21.3332 32 22.3798 32 23.6667V29.6667C32 30.9533 30.9534 31.9999 29.6667 31.9999ZM19.6667 23.3332C19.4827 23.3332 19.3333 23.4826 19.3333 23.6667V29.6667C19.3333 29.8505 19.4827 29.9999 19.6667 29.9999H29.6667C29.8506 29.9999 30 29.8505 30 29.6667V23.6667C30 23.4826 29.8506 23.3332 29.6667 23.3332H19.6667ZM19.6667 18.6667H29.6667C30.9534 18.6667 32 17.6201 32 16.3333V2.33325C32 1.04663 30.9534 0 29.6667 0H19.6667C18.3799 0 17.3333 1.04663 17.3333 2.33325V16.3333C17.3333 17.6201 18.3799 18.6667 19.6667 18.6667ZM19.3333 2.33325C19.3333 2.14941 19.4827 2 19.6667 2H29.6667C29.8506 2 30 2.14941 30 2.33325V16.3333C30 16.5173 29.8506 16.6667 29.6667 16.6667H19.6667C19.4827 16.6667 19.3333 16.5173 19.3333 16.3333V2.33325Z" fill="#297EFF"/>
</svg>
