<svg width="32" height="32" viewBox="0 0 32 32" fill="none" xmlns="http://www.w3.org/2000/svg">
<path d="M16.866 0C15.6669 0 14.6967 0.841906 14.6967 1.88234V3.14709C10.9513 3.90444 8.05318 6.7721 8.05318 10.4705C8.05318 12.8308 9.38785 14.6764 11.0021 15.7058C12.6164 16.7351 14.3154 17.2021 15.7475 17.7941C18.3066 18.7205 20.9505 19.7205 20.9674 21.7647C20.9674 24.2831 19.298 25.5294 16.6626 25.5294C14.6162 25.5294 12.9002 24.1544 12.1206 22.7941C11.6885 21.8198 10.2394 21.3272 9.17167 21.7941C8.10394 22.261 7.65912 23.5845 8.29039 24.4706C9.43438 26.4669 11.6418 28.4669 14.6966 29.0882V30.1177C14.6966 31.1581 15.6668 32 16.8659 32C18.065 32 19.0352 31.1581 19.0352 30.1177V29C22.5773 28.1213 25.272 25.3236 25.272 21.7648C25.272 19.4045 23.9713 17.5295 22.357 16.5C20.7427 15.4706 19.0098 15.0038 17.5778 14.4118C15.0313 13.4853 12.3748 12.489 12.3579 10.4706C12.3579 7.95224 14.0272 6.70594 16.6626 6.70594C18.7091 6.70594 20.4251 8.05153 21.2046 9.4118C21.6368 10.3861 23.1197 10.8787 24.1874 10.4118C25.2552 9.94488 25.6661 8.62141 25.0348 7.7353C23.9459 5.83093 21.874 3.94125 19.0354 3.23537V1.88244C19.0354 0.841971 18.0651 0 16.866 0Z" fill="#297EFF"/>
</svg>
