<svg width="618" height="423" viewBox="0 0 618 423" fill="none" xmlns="http://www.w3.org/2000/svg">
<path d="M378.052 247.543C378.052 247.837 378.199 247.983 378.199 248.277" stroke="#9999FF" stroke-width="0.5"/>
<path d="M392.628 367.913C392.628 368.206 392.628 368.353 392.628 368.647" stroke="#9999FF" stroke-width="0.5"/>
<path d="M336.386 244.314C336.386 244.607 336.386 244.754 336.386 245.048" stroke="#9999FF" stroke-width="0.5"/>
<path d="M339.625 356.023C339.772 356.169 340.067 356.316 340.214 356.463" stroke="#9999FF" stroke-width="0.5"/>
<path d="M372.604 177.964C371.132 186.771 371.279 192.643 381.144 187.359C388.652 187.946 394.689 187.212 400.872 182.661C398.664 178.991 396.456 175.322 394.542 171.505C387.916 176.056 380.408 177.083 372.604 177.964Z" fill="#B8D3F4"/>
<path d="M318.718 164.753C316.657 167.835 314.743 170.918 312.976 174.147C319.16 178.992 325.638 182.955 333.441 184.863C341.539 193.377 343.895 184.863 344.484 176.79C334.472 175.322 326.522 171.212 318.718 164.753Z" fill="#B8D3F4"/>
<path d="M72.8782 364.537C73.6177 321.746 82.4917 279.392 91.9573 237.769H92.1052C110.297 238.499 128.045 238.499 146.236 236.308C154.667 273.258 158.216 313.713 177.887 347.012C174.485 349.641 170.936 352.123 167.534 354.752C146.828 324.667 141.947 288.009 120.65 257.923C120.65 257.777 115.325 256.171 115.917 258.653C108.522 294.289 92.8447 327.588 86.1892 363.515C81.6043 363.807 77.3152 364.245 72.8782 364.537Z" fill="#3385FF"/>
<path d="M142.539 239.375C142.539 239.667 142.687 239.813 142.687 240.105" stroke="#9999FF" stroke-width="0.5"/>
<path d="M142.982 241.565C150.673 276.324 157.033 312.982 173.893 344.82" stroke="#9999FF" stroke-width="0.5" stroke-dasharray="1.01 1.01"/>
<path d="M174.19 345.405C174.337 345.551 174.485 345.843 174.485 345.989" stroke="#9999FF" stroke-width="0.5"/>
<path d="M95.2111 240.397C95.2111 240.689 95.0632 240.835 95.0632 241.127" stroke="#9999FF" stroke-width="0.5"/>
<path d="M94.9153 242.588C88.112 281.874 77.6111 320.723 75.0968 360.594" stroke="#9999FF" stroke-width="0.5" stroke-dasharray="1.01 1.01"/>
<path d="M75.0968 361.47C75.0968 361.762 75.0968 361.908 75.0968 362.2" stroke="#9999FF" stroke-width="0.5"/>
<path d="M90.6263 254.272C98.7607 253.25 100.979 249.306 102.31 241.566C99.5002 240.105 96.6901 238.791 93.88 237.477" fill="#3385FF"/>
<path d="M90.6263 254.272C98.7607 253.25 100.979 249.306 102.31 241.566C99.5002 240.105 96.6901 238.791 93.88 237.477" stroke="#9999FF" stroke-width="0.5" stroke-dasharray="1"/>
<path d="M147.863 251.205C139.433 251.497 134.7 249.744 132.038 241.566C136.179 240.105 140.173 238.353 144.166 236.454" fill="#3385FF"/>
<path d="M147.863 251.205C139.433 251.497 134.7 249.744 132.038 241.566C136.179 240.105 140.173 238.353 144.166 236.454" stroke="#9999FF" stroke-width="0.5" stroke-dasharray="1"/>
<path d="M136.327 96.8332C133.813 96.6872 128.193 96.103 127.897 93.1821C127.601 90.2611 133.517 93.7663 134.257 94.4965C132.778 92.1597 125.383 86.756 129.08 83.835C132.778 80.9141 138.546 89.6769 140.173 92.4518C139.137 94.2044 137.806 95.5188 136.327 96.8332Z" fill="white"/>
<path d="M42.8546 245.801C43.4462 247.992 42.7067 254.418 45.3689 255.148C48.0311 255.878 47.2916 251.205 46.5521 250.036C49.2143 252.081 51.137 257.777 55.4261 255.294C59.7152 252.811 51.137 246.239 48.3269 244.925C46.5521 244.925 44.7773 245.217 42.8546 245.801Z" fill="white"/>
<path d="M99.0565 158.903C94.9153 158.611 89.5909 158.611 85.7455 159.487C79.6816 160.802 77.0194 165.913 79.09 170.441C90.0346 193.078 86.1892 217.614 86.3371 241.858C92.1052 242.588 98.0212 243.172 103.937 243.464C105.564 214.547 107.635 186.798 99.0565 158.903Z" fill="#B8D3F4"/>
<path d="M128.636 208.413C125.531 191.326 120.502 174.53 119.023 157.005C112.22 158.319 106.008 158.903 99.0565 158.903C107.487 186.798 105.416 214.693 103.937 243.464C111.036 243.756 117.988 243.756 125.235 243.172C127.601 231.196 130.855 220.827 128.636 208.413Z" fill="#3385FF"/>
<path d="M141.208 166.498C139.137 159.633 136.623 159.049 130.855 157.005C126.862 155.69 123.016 157.005 119.171 156.859C120.65 174.384 125.678 191.18 128.784 208.413C131.003 220.827 127.749 231.196 125.235 243.172C134.552 241.858 143.574 239.959 152.596 237.33C152.3 213.087 148.159 189.135 141.208 166.498Z" fill="#B8D3F4"/>
<path d="M41.8193 243.903C44.0378 243.757 46.1084 243.318 48.4748 243.757C42.8546 228.714 54.5387 195.999 67.8497 188.259C64.1522 183.877 59.8631 180.372 55.8698 176.429C40.3403 199.504 29.3958 218.198 41.8193 243.903Z" fill="white"/>
<path d="M91.0699 158.903C77.0194 159.633 66.2228 167.52 55.8698 176.429C59.8631 180.372 64.0043 184.023 67.8497 188.258C71.3992 186.506 77.0194 184.753 80.2732 183.147C102.458 172.047 91.9573 178.035 91.0699 158.903Z" fill="#B8D3F4"/>
<path d="M129.82 156.859C139.285 172.924 121.389 176.283 147.42 175.406C152.448 175.26 161.174 170.733 164.724 166.206C160.287 161.678 155.85 157.005 152.3 151.893C145.497 157.297 138.25 156.712 129.82 156.859Z" fill="#B8D3F4"/>
<path d="M142.095 93.1823C140.173 94.2046 139.137 95.8112 137.954 97.5637C150.23 113.921 158.808 131.447 152.3 151.893C155.998 157.151 160.139 161.824 164.872 166.206C179.958 131.885 174.042 111.876 142.095 93.1823Z" fill="white"/>
<path d="M169.161 355.044C172.267 352.853 175.077 350.517 178.183 348.18C179.958 348.472 188.24 343.652 186.761 348.764C185.282 353.876 177.148 357.527 172.858 360.886C170.788 359.133 169.9 357.235 169.161 355.044Z" fill="#0084B5"/>
<path d="M74.0614 365.413C77.9068 365.121 81.6043 364.829 85.4497 364.537C86.9287 365.851 96.6901 366.289 92.6968 369.94C88.7035 373.592 79.8295 371.693 74.5051 371.839C73.6177 369.648 73.6177 367.75 74.0614 365.413Z" fill="#0084B5"/>
<path d="M95.6548 162.846C96.5422 168.25 108.078 167.081 112.072 166.789C116.065 166.497 125.383 167.665 124.643 161.678C123.904 155.69 114.586 158.611 110.741 159.195C107.043 159.779 94.6195 157.296 95.6548 162.846Z" fill="white"/>
<path d="M92.6968 142.4C96.838 148.68 99.2044 153.792 97.5775 161.24C107.191 163.723 112.811 163.869 121.833 159.926C116.952 152.915 112.22 145.759 108.374 138.165C103.05 139.625 97.8733 140.94 92.6968 142.4Z" fill="url(#paint0_linear)"/>
<path d="M88.5557 140.501C93.8801 146.343 107.635 151.017 114.29 144.006C120.946 136.996 115.917 126.627 110.445 120.493C105.12 114.359 96.0986 113.775 89.8868 118.594C81.3086 125.312 80.717 132.177 88.5557 140.501Z" fill="white"/>
<path d="M89.7388 113.483C97.5775 110.416 105.564 107.203 113.847 109.101C122.129 111 106.452 115.089 104.233 115.089C105.564 116.404 111.48 116.404 108.078 119.471C104.529 122.538 96.9859 121.953 92.2531 121.807C93.88 124.29 94.7674 126.627 93.1405 129.11C91.5136 131.592 90.922 133.199 90.3304 136.266C89.7388 139.333 92.6968 142.4 94.4716 144.883C85.5977 143.568 78.4985 139.041 77.6111 129.694C76.5758 120.493 81.7523 116.55 89.7388 113.483Z" fill="#3385FF"/>
<path d="M91.6615 135.974C89.2951 134.951 87.2245 131.008 85.006 134.951C82.7875 138.895 89.8867 141.962 93.4363 140.209" fill="white"/>
<path d="M91.6615 135.974C89.2951 134.951 87.2245 131.008 85.006 134.951C82.7875 138.895 89.8867 141.962 93.4363 140.209" stroke="#EAEAEA" stroke-width="0.25"/>
<path d="M103.937 115.089C112.072 118.594 115.621 123.852 118.727 132.03C117.1 132.322 115.621 132.614 113.994 132.907C110.741 127.065 107.339 121.077 103.937 115.089Z" fill="white"/>
<path d="M114.734 132.761C115.473 133.053 116.213 133.199 116.952 133.491C116.657 133.199 116.952 132.615 116.509 132.469C115.917 132.323 115.178 132.761 114.734 132.761Z" fill="#EAEAEA"/>
<path d="M107.93 127.503C108.226 127.941 108.67 128.087 108.966 127.795C109.409 127.649 109.409 127.211 109.262 126.773C109.114 126.334 108.522 126.188 108.226 126.48C107.783 126.627 107.635 127.065 107.93 127.503Z" fill="#C6C6C6"/>
<path d="M531.949 368.227C529.745 326.594 523.28 285.106 527.1 243.327H526.953C508.439 242.304 489.779 242.012 471.265 241.136C455.249 282.623 449.078 324.841 454.221 368.811C458.335 367.935 462.596 367.204 466.857 366.328C467.592 328.347 474.204 293.725 495.509 261.295C495.509 261.149 500.505 258.665 500.505 261.441C498.448 297.815 511.672 332.729 519.019 368.081C523.28 368.227 527.688 368.227 531.949 368.227Z" fill="#3385FF"/>
<path d="M474.204 243.912C474.057 244.204 474.057 244.35 473.91 244.642" stroke="#9999FF" stroke-width="0.5"/>
<path d="M473.469 245.957C459.511 284.376 451.87 323.526 455.396 364.575" stroke="#9999FF" stroke-width="0.5" stroke-dasharray="0.99 0.99"/>
<path d="M455.396 365.306C455.396 365.598 455.396 365.744 455.396 366.036" stroke="#9999FF" stroke-width="0.5"/>
<path d="M522.692 245.664C522.692 245.957 522.692 246.103 522.545 246.395" stroke="#9999FF" stroke-width="0.5"/>
<path d="M522.398 247.856C517.549 287.006 525.925 325.572 529.598 364.576" stroke="#9999FF" stroke-width="0.5" stroke-dasharray="1.01 1.01"/>
<path d="M529.598 365.306C529.598 365.598 529.598 365.744 529.598 366.036" stroke="#9999FF" stroke-width="0.5"/>
<path d="M522.986 260.711C513.582 258.958 513.582 254.137 515.199 245.665C518.578 244.788 521.958 243.912 525.19 243.035" fill="#3385FF"/>
<path d="M522.986 260.711C513.582 258.958 513.582 254.137 515.199 245.665C518.578 244.788 521.958 243.912 525.19 243.035" stroke="#9999FF" stroke-width="0.5" stroke-dasharray="1"/>
<path d="M465.829 258.081C475.82 259.104 481.257 253.699 484.489 244.642C480.669 243.765 476.996 242.45 473.322 241.136" fill="#3385FF"/>
<path d="M465.829 258.081C475.82 259.104 481.257 253.699 484.489 244.642C480.669 243.765 476.996 242.45 473.322 241.136" stroke="#9999FF" stroke-width="0.5" stroke-dasharray="1"/>
<path d="M412.932 104.111C411.904 101.773 408.377 96.8066 409.993 94.6154C411.61 92.4241 413.373 99.7282 413.373 100.313C414.255 97.537 413.961 88.1878 417.781 87.7495C421.601 87.3113 419.103 100.897 418.369 102.942C416.605 103.672 414.842 103.819 412.932 104.111Z" fill="white"/>
<path d="M559.72 256.62C558.838 258.519 556.781 262.902 558.838 264.363C561.042 265.823 561.042 260.126 560.895 259.104C562.952 261.733 565.156 269.329 568.977 269.183C572.797 269.037 566.773 258.227 565.744 256.62C563.687 256.474 561.777 256.62 559.72 256.62Z" fill="white"/>
<path d="M463.331 169.994C461.714 193.221 466.123 219.224 464.359 243.181C486.546 248.44 509.174 248.586 531.802 248.148C536.798 218.639 525.778 201.548 525.631 173.208C525.631 167.657 523.427 162.398 517.403 161.667C503.885 160.06 487.134 159.33 473.616 160.207C468.033 160.645 463.772 162.982 463.331 169.994Z" fill="#3AC0EF"/>
<path d="M511.966 161.083C566.038 169.555 576.176 207.099 566.626 255.306C564.863 255.452 561.189 254.429 559.72 255.89C555.459 231.348 565.597 190.299 528.57 184.164C491.542 178.028 519.019 179.635 511.966 161.083Z" fill="#3AC0EF"/>
<path d="M474.057 160.352C430.27 159.038 429.242 143.407 419.25 104.841C417.34 104.987 414.548 105.426 413.079 105.572C404.851 138.732 428.36 181.388 462.155 180.804C495.95 180.22 464.653 171.163 474.057 160.352Z" fill="#3AC0EF"/>
<path d="M465.682 367.643C462.008 368.373 458.629 368.958 454.808 369.834C454.515 371.587 444.376 375.239 448.196 377.577C452.017 379.914 462.449 375.385 467.151 374.363C467.445 371.879 467.004 369.688 465.682 367.643Z" fill="#0084B5"/>
<path d="M530.921 369.25C527.1 369.25 523.574 369.104 519.754 369.25C519.166 370.711 508.587 372.464 512.113 375.386C515.493 378.161 526.513 375.824 531.362 375.824C531.802 373.487 531.802 371.295 530.921 369.25Z" fill="#0084B5"/>
<path d="M509.321 165.757C508.587 171.455 493.599 174.23 489.485 173.061C485.371 171.893 479.347 169.409 479.934 164.443C480.522 159.476 490.073 161.813 493.599 161.959C497.273 162.105 510.056 160.06 509.321 165.757Z" fill="white"/>
<path d="M511.231 141.946C508.586 148.958 503.444 156.554 506.676 163.859C498.154 167.511 491.395 166.78 483.167 162.982C487.575 155.678 491.542 148.52 494.187 140.339C499.917 140.778 505.501 141.07 511.231 141.946Z" fill="url(#paint1_linear)"/>
<path d="M487.134 135.811C486.399 136.103 485.665 136.541 485.077 136.979C485.224 136.687 485.077 135.957 485.371 135.811C485.665 135.518 486.546 135.811 487.134 135.811Z" fill="#EAEAEA"/>
<path d="M513.876 140.631C510.79 148.373 496.391 155.677 488.603 149.542C480.816 143.261 484.048 132.889 487.134 125.292C490.073 117.696 499.33 115.067 506.676 118.573C516.815 123.393 518.284 129.529 513.876 140.631Z" fill="white"/>
<path d="M491.983 118.573C484.489 123.393 483.167 130.113 482.285 138.44C483.755 138.44 485.224 138.586 486.693 138.586C488.456 131.866 489.926 125.146 491.983 118.573Z" fill="white"/>
<path d="M486.252 138.44C485.665 138.732 484.93 139.171 484.342 139.463C484.489 139.317 484.342 138.586 484.489 138.44C484.93 138.148 485.665 138.44 486.252 138.44Z" fill="#EAEAEA"/>
<path d="M490.954 131.574C490.808 132.013 490.514 132.305 490.073 132.159C489.632 132.013 489.485 131.574 489.485 131.136C489.632 130.698 489.926 130.406 490.367 130.552C490.954 130.844 491.101 131.282 490.954 131.574Z" fill="#C6C6C6"/>
<path fill-rule="evenodd" clip-rule="evenodd" d="M486.693 128.506C485.371 130.99 485.518 134.203 488.016 135.956C490.514 137.709 493.452 136.102 494.922 133.473C496.391 130.844 496.244 127.63 493.599 126.169C490.954 124.708 488.016 125.877 486.693 128.506Z" stroke="#7EC1EB" stroke-width="0.75"/>
<path d="M495.803 129.675C501.387 130.99 506.529 132.012 511.819 134.204" stroke="#7EC1EB" stroke-width="0.75"/>
<path d="M486.546 128.361C485.371 128.653 484.195 128.945 483.02 129.091" stroke="#7EC1EB" stroke-width="0.75"/>
<path d="M488.016 110.1C488.897 107.471 491.689 108.055 493.893 108.932C496.538 109.954 499.036 111.853 501.974 112.73C504.913 113.606 507.999 113.898 511.084 115.505C514.905 117.404 518.725 120.034 520.929 123.832C521.664 125.293 522.251 126.461 521.811 128.214C521.223 130.698 518.872 132.597 519.313 135.372C519.607 136.979 519.46 137.71 518.578 138.878C517.256 140.631 515.639 142.092 513.729 140.339C510.937 137.71 511.525 134.934 511.378 131.282C511.231 127.63 511.525 124.124 507.999 121.641C505.648 120.034 503.003 120.472 499.623 120.034C494.334 119.449 485.665 117.404 488.016 110.1Z" fill="#0098D2"/>
<path d="M509.321 135.956C510.937 133.765 512.113 129.967 515.198 133.327C518.284 136.687 513.729 142.822 509.174 141.654" fill="white"/>
<path d="M509.321 135.956C510.937 133.765 512.113 129.967 515.198 133.327C518.284 136.687 513.729 142.822 509.174 141.654" stroke="#EAEAEA" stroke-width="0.25"/>
<path d="M209.881 422.231L192.363 374.037L211.353 372.883L269.207 415.016L265.674 373.893L284.517 373.027L341.488 418.768L209.881 422.231Z" fill="url(#paint2_linear)"/>
<path d="M473.241 422.231L447.921 374.037L466.911 372.883L524.765 415.016L510.78 373.893L529.623 373.027L610 415.016L473.241 422.231Z" fill="url(#paint3_linear)"/>
<path d="M346.009 370.409C347.334 330.628 347.334 289.82 357.787 251.067H357.934C375.454 251.067 391.944 250.333 408.875 245.342C421.979 304.646 465.264 303.472 400.778 360.133C399.306 357.491 398.422 354.702 396.95 352.06C434.052 311.545 419.034 304.059 387.822 268.535C387.674 268.388 382.521 267.801 382.669 269.709C371.774 302.738 362.645 336.353 354.401 370.115C351.603 370.262 348.806 370.262 346.009 370.409Z" fill="#3385FF"/>
<path d="M362.499 249.746C352.635 288.058 351.163 327.986 348.512 367.326" stroke="#9999FF" stroke-width="0.5" stroke-dasharray="0.99 0.99"/>
<path d="M356.315 262.075C365.59 261.195 368.976 257.084 371.185 248.277C367.946 247.103 364.854 245.928 361.615 244.754" fill="#3385FF"/>
<path d="M356.315 262.075C365.59 261.195 368.976 257.084 371.185 248.277C367.946 247.103 364.854 245.928 361.615 244.754" stroke="#9999FF" stroke-width="0.5" stroke-dasharray="1"/>
<path d="M404.9 246.516C409.759 298.627 466.884 300.682 402.103 355.583" stroke="#9999FF" stroke-width="0.5" stroke-dasharray="1.01 1.01"/>
<path d="M408.581 252.681C401.956 255.323 396.214 255.763 396.655 247.103C400.189 245.341 403.575 243.433 406.961 241.525" fill="#3385FF"/>
<path d="M408.581 252.681C401.956 255.323 396.214 255.763 396.655 247.103C400.189 245.341 403.575 243.433 406.961 241.525" stroke="#9999FF" stroke-width="0.5" stroke-dasharray="1"/>
<path d="M396.508 353.821C397.392 356.023 398.422 357.931 399.6 360.28C399.158 361.601 403.133 370.849 399.6 370.262C396.066 369.674 393.122 360.28 391.061 357.05C392.533 355.289 394.3 354.115 396.508 353.821Z" fill="#0084B5"/>
<path d="M353.223 371.142C351.014 371.142 348.953 371.142 346.597 371.289C345.714 372.757 337.028 374.665 339.236 377.454C341.592 380.096 350.278 377.454 353.812 377.454C354.106 375.252 354.106 373.197 353.223 371.142Z" fill="#0084B5"/>
<path d="M370.449 227.433C372.51 210.699 358.523 198.515 361.762 182.368C363.234 174.881 374.277 176.936 379.724 175.322C380.755 175.028 380.902 175.322 381.785 175.175C382.669 175.028 382.669 174.881 383.847 174.881C390.472 175.175 399.895 174.735 404.459 180.459C406.225 182.808 406.52 185.597 407.698 188.093C407.845 188.386 407.698 188.827 407.992 189.12C411.526 193.524 416.237 195.726 412.704 201.744C412.556 202.038 412.556 202.185 412.115 202.625C411.673 203.065 410.642 203.799 409.906 204.24C409.759 204.386 409.906 204.68 409.906 204.974C409.906 211.726 408.728 219.506 407.992 226.112C407.256 233.745 409.759 239.617 410.495 246.956C401.661 250.332 392.975 254.002 383.552 255.617C374.571 255.323 365.59 255.03 356.756 254.442C358.523 244.901 369.418 236.387 370.449 227.433Z" fill="#B8D3F4"/>
<path d="M343.8 101.632C343.358 99.4303 342.033 93.7054 344.242 92.3843C346.45 91.0632 345.42 98.2559 345.125 98.8431C346.892 96.788 349.984 87.9805 353.37 89.1549C356.904 90.3292 350.131 100.898 348.806 102.806C347.186 102.806 345.567 102.219 343.8 101.632Z" fill="white"/>
<path d="M346.597 171.505C344.683 175.322 342.475 178.991 340.267 182.661C326.427 166.514 331.286 144.642 335.997 125.706C338.058 125.999 340.267 125.999 342.328 125.999C339.089 141.119 334.966 159.028 346.597 171.505Z" fill="white"/>
<path d="M348.364 103.687C346.45 111.174 344.242 118.513 342.328 126C340.119 126.146 338.058 126.146 335.997 125.706C338.353 117.926 341.003 110.293 343.947 102.66C345.42 102.953 346.892 103.247 348.364 103.687Z" fill="#B8D3F4"/>
<path d="M460.406 108.385C462.173 107.063 466.737 103.834 465.853 101.485C464.97 99.1367 461.289 104.862 460.995 105.596C460.995 102.806 464.087 94.4394 460.7 93.1182C457.314 91.6503 455.694 103.834 455.4 106.036C457.02 106.917 458.639 107.651 460.406 108.385Z" fill="white"/>
<path d="M455.547 106.623C456.872 107.357 458.197 108.091 459.67 108.825C448.48 130.697 443.474 155.798 428.31 174.294C426.543 171.064 424.629 167.835 422.568 164.899C436.849 148.605 443.769 125.706 455.547 106.623Z" fill="white"/>
<path d="M369.271 178.845C369.124 183.395 378.988 183.102 382.227 182.955C385.466 182.661 395.478 183.102 394.594 178.257C393.711 173.413 384.73 174.734 381.344 175.175C377.957 175.615 369.565 174.294 369.271 178.845Z" fill="white"/>
<path d="M386.791 126.88C388.263 130.55 391.061 136.862 387.527 140.385C383.994 143.908 380.608 134.66 379.724 130.403C378.988 126 381.491 123.357 386.791 126.88Z" fill="#3385FF"/>
<path d="M368.387 158.588C372.51 164.312 378.105 171.358 372.804 177.817C378.988 181.194 384.288 179.726 390.325 176.937C382.816 171.652 380.902 162.845 378.105 154.624C374.865 156.092 371.626 157.413 368.387 158.588Z" fill="url(#paint4_linear)"/>
<path d="M362.351 156.092C367.357 162.404 381.785 167.835 389.441 160.349C395.036 154.918 390.619 142.294 386.055 135.981C381.491 129.669 371.479 129.229 365.296 133.926C356.904 140.385 355.137 147.138 362.351 156.092Z" fill="white"/>
<path d="M380.019 133.633C380.902 135.395 381.933 136.128 383.552 137.45C385.172 138.771 387.38 141.413 388.411 143.174C390.325 146.11 391.944 148.606 393.858 151.395C392.239 151.688 390.619 151.982 388.852 152.276C386.055 145.964 382.963 139.798 380.019 133.633Z" fill="white"/>
<path d="M389.736 151.982C390.472 152.276 391.208 152.422 391.797 152.716C391.797 152.276 391.65 151.982 391.65 151.542C390.913 151.688 390.324 151.835 389.736 151.982Z" fill="#EAEAEA"/>
<path d="M383.258 127.174C384.583 133.192 381.638 142.587 377.957 145.67C374.277 148.752 372.804 148.752 369.418 149.78C371.185 150.66 373.835 153.303 371.185 154.624C368.535 155.945 366.179 152.716 365.148 150.66C366.326 153.596 368.387 158.734 369.418 161.376C370.449 164.019 371.479 168.275 368.976 168.863C366.621 169.45 367.357 165.34 367.946 164.165C366.179 166.514 363.529 167.688 361.173 165.486C358.818 163.285 360.879 161.67 363.529 161.817C356.609 160.349 352.634 156.532 352.339 148.899C352.192 141.119 352.781 132.752 360.879 128.935C366.768 120.421 373.099 118.66 383.994 121.596C386.349 122.183 394.153 127.027 392.533 132.165C389.589 130.55 386.349 128.642 383.258 127.174Z" fill="#3385FF"/>
<path d="M366.473 152.128C364.118 150.66 363.382 146.844 359.995 150.367C356.462 153.89 363.823 158.734 367.946 156.532" fill="white"/>
<path d="M366.473 152.128C364.118 150.66 363.382 146.844 359.995 150.367C356.462 153.89 363.823 158.734 367.946 156.532" stroke="#EAEAEA" stroke-width="0.25"/>
<path d="M382.816 146.697C382.963 147.138 383.552 147.284 383.994 147.138C384.435 146.991 384.583 146.404 384.288 145.963C384.141 145.523 383.552 145.376 383.11 145.523C382.669 145.817 382.521 146.257 382.816 146.697Z" fill="#C6C6C6"/>
<path d="M359.742 422.231L342.224 374.037L354.736 372.883L404.935 415.016L386.976 373.893L396.692 373.027L466.617 416.315L359.742 422.231Z" fill="url(#paint5_linear)"/>
<path d="M72.2388 422.231L71.65 374.037L90.6402 372.883L140.692 415.016L164.393 373.893L183.236 373.027L190.744 420.067L72.2388 422.231Z" fill="url(#paint6_linear)"/>
<path d="M304.98 94.6484C304.98 92.4567 305.716 85.8814 303.363 85.0047C301.01 84.128 302.921 91.58 303.216 92.1645C301.157 90.2649 296.009 82.3746 293.068 83.5436C290.127 84.7125 298.51 95.8174 299.98 97.1324C301.598 96.4019 303.216 95.379 304.98 94.6484Z" fill="white"/>
<path d="M180.272 93.9178C180.713 91.7261 181.742 85.4431 184.243 85.2969C186.596 85.1508 183.066 91.58 182.625 92.0183C185.125 90.7033 192.037 84.5664 194.684 86.3198C197.331 88.2193 186.448 96.2557 184.831 97.4246C183.213 96.4018 181.742 95.2329 180.272 93.9178Z" fill="white"/>
<path d="M221.89 161.716C182.037 159.086 156.154 140.529 183.801 99.7628C182.772 98.0094 179.243 96.1099 179.39 94.7948C132.477 126.941 168.801 177.935 202.478 180.712C236.45 183.342 211.596 172.237 221.89 161.716Z" fill="#B8D3F4"/>
<path d="M257.626 161.132C295.421 155.287 315.422 142.137 299.98 99.1783C301.304 97.8632 305.274 96.402 305.421 95.8176C341.01 134.977 304.098 176.036 272.186 179.689C240.42 183.196 268.803 167.269 257.626 161.132Z" fill="#B8D3F4"/>
<path d="M220.42 131.908C220.42 131.908 215.126 114.667 224.391 108.237C233.655 101.662 250.568 101.954 250.568 101.954L249.538 106.484L254.685 104L253.656 109.991L260.127 108.822C260.127 108.822 261.156 157.333 220.42 131.908Z" fill="#3385FF"/>
<path d="M199.978 366.865C202.184 325.221 203.802 283.14 210.125 241.935H210.272C229.096 241.935 247.773 241.935 266.597 241.789C272.627 282.994 274.833 325.075 277.48 366.572C273.215 366.572 268.803 366.572 264.538 366.572C257.038 331.358 251.303 296.144 240.861 261.076C240.861 260.93 236.155 258.884 235.567 261.368C226.155 295.852 220.273 331.651 213.067 366.719C208.655 366.865 204.39 366.865 199.978 366.865Z" fill="#1F75DB"/>
<path d="M263.068 244.272C263.068 244.564 263.068 244.711 263.068 245.003" stroke="#9999FF" stroke-width="0.5"/>
<path d="M263.214 246.464C266.891 285.331 271.891 324.052 275.42 362.919" stroke="#9999FF" stroke-width="0.5" stroke-dasharray="1.01 1.01"/>
<path d="M275.568 363.65C275.568 363.943 275.568 364.089 275.568 364.381" stroke="#9999FF" stroke-width="0.5"/>
<path d="M214.096 244.272C214.096 244.564 214.096 244.711 214.096 245.003" stroke="#9999FF" stroke-width="0.5"/>
<path d="M213.802 246.464C209.978 285.331 205.42 324.198 202.331 363.065" stroke="#9999FF" stroke-width="0.5" stroke-dasharray="1.01 1.01"/>
<path d="M202.331 363.942C202.331 364.234 202.331 364.38 202.331 364.673" stroke="#9999FF" stroke-width="0.5"/>
<path d="M209.39 258.3C218.214 258.3 222.332 253.624 222.479 244.857C218.949 243.834 215.567 242.665 212.037 241.643" fill="#1F75DB"/>
<path d="M209.39 258.3C218.214 258.3 222.332 253.624 222.479 244.857C218.949 243.834 215.567 242.665 212.037 241.643" stroke="#9999FF" stroke-width="0.5" stroke-dasharray="1"/>
<path d="M267.185 258.153C258.362 258.153 254.244 253.624 254.097 244.857C257.626 243.834 261.156 242.665 264.685 241.496" fill="#1F75DB"/>
<path d="M267.185 258.153C258.362 258.153 254.244 253.624 254.097 244.857C257.626 243.834 261.156 242.665 264.685 241.496" stroke="#9999FF" stroke-width="0.5" stroke-dasharray="1"/>
<path d="M268.362 168.145C276.744 190.355 274.686 220.017 273.215 244.418C250.42 247.779 227.479 248.071 204.537 246.026C204.831 222.063 199.978 189.917 207.772 168.292C209.39 164.054 212.037 160.693 217.626 161.424C230.126 162.885 245.273 161.278 258.068 161.132C263.509 160.986 265.862 161.424 268.362 168.145Z" fill="#3385FF"/>
<path d="M265.715 367.595C269.538 367.595 272.774 367.595 276.892 367.595C277.48 368.91 287.48 371.686 285.127 373.878C282.774 376.07 269.538 374.024 265.274 374.17C264.832 372.125 264.685 369.348 265.715 367.595Z" fill="#0084B5"/>
<path d="M211.743 367.742C207.92 367.742 204.684 367.742 200.567 367.742C199.978 369.057 189.978 371.833 192.331 374.025C194.684 376.217 207.92 374.025 212.184 374.171C212.626 372.271 212.773 369.495 211.743 367.742Z" fill="#0084B5"/>
<path d="M223.067 166.246C222.626 170.776 235.42 169.753 238.067 169.753C240.714 169.753 253.362 170.776 252.92 166.246C252.479 161.716 241.156 162.155 238.067 162.155C234.832 162.009 223.508 161.716 223.067 166.246Z" fill="white"/>
<path d="M230.126 140.091C230.273 147.689 231.155 157.772 226.449 164.201C233.067 168.73 242.332 166.831 249.244 164.639C245.273 158.064 245.126 150.466 245.714 143.014C240.567 142.137 235.273 141.114 230.126 140.091Z" fill="url(#paint7_linear)"/>
<path d="M224.979 138.191C227.332 145.643 241.155 151.342 249.097 147.835C257.185 144.328 254.685 131.908 252.332 124.456C250.126 117.15 240.714 114.666 233.361 117.297C223.508 120.949 221.596 127.379 224.979 138.191Z" fill="white"/>
<path d="M226.008 135.415C224.979 133.369 224.685 129.862 220.567 131.616C216.596 133.369 220.567 141.698 225.861 139.944" fill="white"/>
<path d="M226.008 135.415C224.979 133.369 224.685 129.862 220.567 131.616C216.596 133.369 220.567 141.698 225.861 139.944" stroke="#EAEAEA" stroke-width="0.25"/>
<path d="M241.008 137.899C242.332 137.899 243.656 137.753 244.979 137.607C244.979 137.461 245.126 137.169 245.126 137.022C243.656 137.315 242.332 137.607 241.008 137.899Z" fill="#EAEAEA"/>
<path d="M230.714 137.717C230.861 138.155 231.155 138.447 231.597 138.301C232.038 138.155 232.332 137.863 232.185 137.425C232.038 136.986 231.744 136.694 231.302 136.84C230.861 136.84 230.714 137.279 230.714 137.717Z" fill="#C6C6C6"/>
<path d="M246.891 134.795C247.038 135.233 247.332 135.525 247.773 135.379C248.214 135.233 248.509 134.795 248.362 134.502C248.214 134.064 247.92 133.772 247.479 133.918C247.038 133.918 246.744 134.356 246.891 134.795Z" fill="#C6C6C6"/>
<path opacity="0.48" d="M129.578 74.9625C138.182 74.9625 145.157 68.0313 145.157 59.4813C145.157 50.9312 138.182 44 129.578 44C120.975 44 114 50.9312 114 59.4813C114 68.0313 120.975 74.9625 129.578 74.9625Z" fill="#5CA8FF"/>
<path opacity="0.48" d="M601.578 62.9625C610.182 62.9625 617.157 56.0313 617.157 47.4813C617.157 38.9312 610.182 32 601.578 32C592.975 32 586 38.9312 586 47.4813C586 56.0313 592.975 62.9625 601.578 62.9625Z" fill="#5CA8FF"/>
<path opacity="0.48" d="M458.522 105.451C462.824 105.451 466.311 101.985 466.311 97.71C466.311 93.4349 462.824 89.9693 458.522 89.9693C454.22 89.9693 450.733 93.4349 450.733 97.71C450.733 101.985 454.22 105.451 458.522 105.451Z" fill="#5CA8FF"/>
<path opacity="0.48" d="M551.993 108.547C556.294 108.547 559.782 105.082 559.782 100.807C559.782 96.5316 556.294 93.066 551.993 93.066C547.691 93.066 544.203 96.5316 544.203 100.807C544.203 105.082 547.691 108.547 551.993 108.547Z" fill="#5CA8FF"/>
<path opacity="0.48" d="M540.309 110.095C542.46 110.095 544.203 108.362 544.203 106.225C544.203 104.087 542.46 102.354 540.309 102.354C538.158 102.354 536.414 104.087 536.414 106.225C536.414 108.362 538.158 110.095 540.309 110.095Z" fill="#5CA8FF"/>
<path opacity="0.48" d="M75.7892 79.4813C80.0911 79.4813 83.5785 76.0157 83.5785 71.7407C83.5785 67.4656 80.0911 64 75.7892 64C71.4874 64 68 67.4656 68 71.7407C68 76.0157 71.4874 79.4813 75.7892 79.4813Z" fill="#5CA8FF"/>
<path opacity="0.48" d="M75.7892 16.4813C80.0911 16.4813 83.5784 13.0157 83.5784 8.74063C83.5784 4.4656 80.0911 1 75.7892 1C71.4873 1 68 4.4656 68 8.74063C68 13.0157 71.4873 16.4813 75.7892 16.4813Z" fill="#5CA8FF"/>
<path opacity="0.48" d="M335.453 99.2578C342.336 99.2578 347.915 93.7128 347.915 86.8728C347.915 80.0327 342.336 74.4877 335.453 74.4877C328.57 74.4877 322.99 80.0327 322.99 86.8728C322.99 93.7128 328.57 99.2578 335.453 99.2578Z" fill="#5CA8FF"/>
<g opacity="0.48">
<rect x="492" y="17" width="72" height="72" rx="36" fill="#5CA8FF"/>
</g>
<rect x="512.5" y="42.5" width="31" height="21" rx="1.5" fill="white" stroke="#DCDEE0"/>
<mask id="mask0" mask-type="alpha" maskUnits="userSpaceOnUse" x="512" y="42" width="32" height="22">
<rect x="512" y="42" width="32" height="22" rx="2" fill="white"/>
</mask>
<g mask="url(#mask0)">
</g>
<mask id="mask1" mask-type="alpha" maskUnits="userSpaceOnUse" x="512" y="42" width="33" height="19">
<path d="M512 43.9959C512 42.8913 512.895 42 514 42H542C543.105 42 544 42.8939 544 43.9985C544 46.1237 544 49.5682 544 52.4448C544 53.6415 542.94 54.5625 541.747 54.4767C526.387 53.3734 530.528 61.754 513.824 60.7779C512.791 60.7175 512 59.8495 512 58.8149C512 54.2294 512 47.3573 512 43.9959Z" fill="url(#paint8_linear)"/>
</mask>
<g mask="url(#mask1)">
<path d="M512 43.9958C512 42.8913 512.895 42 514 42H542C543.105 42 544 42.8952 544 43.9998C544 46.6794 544 51.4525 544 54.5223C525.36 52.3409 531.68 62.4257 512 60.6409C512 56.2874 512 47.8427 512 43.9958Z" fill="url(#paint9_linear)"/>
<path opacity="0.4" d="M512 60.3272C527.08 60.6341 524.2 49.4831 544 54.1378C544 54.2401 544 54.2913 544 54.4959C525.36 52.2452 531.68 62.4755 512 60.6341C512 54.7005 512 60.5829 512 60.3272Z" fill="white" fill-opacity="0.48"/>
<path opacity="0.24" d="M512 54.5714C523.8 54.5714 529.96 60.0395 544 57.791C544 57.1777 544 60.4483 544 60.8572C543.16 60.8572 515.6 60.8572 512 60.8572C512 54.9292 512 54.827 512 54.5714Z" fill="white" fill-opacity="0.48"/>
</g>
<g opacity="0.48">
<rect x="352" width="72" height="72" rx="36" fill="#5CA8FF"/>
</g>
<rect x="372.5" y="25.5" width="31" height="21" rx="1.5" fill="white" stroke="#DCDEE0"/>
<mask id="mask2" mask-type="alpha" maskUnits="userSpaceOnUse" x="372" y="25" width="32" height="22">
<rect x="372" y="25" width="32" height="22" rx="2" fill="white"/>
</mask>
<g mask="url(#mask2)">
</g>
<mask id="mask3" mask-type="alpha" maskUnits="userSpaceOnUse" x="372" y="25" width="33" height="19">
<path d="M372 26.9959C372 25.8913 372.895 25 374 25H402C403.105 25 404 25.8939 404 26.9985C404 29.1237 404 32.5682 404 35.4448C404 36.6415 402.94 37.5625 401.747 37.4767C386.387 36.3734 390.528 44.754 373.824 43.7779C372.791 43.7175 372 42.8495 372 41.8149C372 37.2294 372 30.3573 372 26.9959Z" fill="url(#paint10_linear)"/>
</mask>
<g mask="url(#mask3)">
<path d="M372 26.9958C372 25.8913 372.895 25 374 25H402C403.105 25 404 25.8952 404 26.9998C404 29.6794 404 34.4525 404 37.5223C385.36 35.3409 391.68 45.4257 372 43.6409C372 39.2874 372 30.8427 372 26.9958Z" fill="url(#paint11_linear)"/>
<path opacity="0.4" d="M372 43.3272C387.08 43.6341 384.2 32.4831 404 37.1378C404 37.2401 404 37.2913 404 37.4959C385.36 35.2452 391.68 45.4755 372 43.6341C372 37.7005 372 43.5829 372 43.3272Z" fill="white" fill-opacity="0.48"/>
<path opacity="0.24" d="M372 37.5714C383.8 37.5714 389.96 43.0395 404 40.791C404 40.1777 404 43.4483 404 43.8572C403.16 43.8572 375.6 43.8572 372 43.8572C372 37.9292 372 37.827 372 37.5714Z" fill="white" fill-opacity="0.48"/>
</g>
<g opacity="0.48">
<rect x="200" y="1" width="72" height="72" rx="36" fill="#5CA8FF"/>
</g>
<rect x="220.5" y="26.5" width="31" height="21" rx="1.5" fill="white" stroke="#DCDEE0"/>
<mask id="mask4" mask-type="alpha" maskUnits="userSpaceOnUse" x="220" y="26" width="32" height="22">
<rect x="220" y="26" width="32" height="22" rx="2" fill="white"/>
</mask>
<g mask="url(#mask4)">
</g>
<mask id="mask5" mask-type="alpha" maskUnits="userSpaceOnUse" x="220" y="26" width="33" height="19">
<path d="M220 27.9959C220 26.8913 220.895 26 222 26H250C251.105 26 252 26.8939 252 27.9985C252 30.1237 252 33.5682 252 36.4448C252 37.6415 250.94 38.5625 249.747 38.4767C234.387 37.3734 238.528 45.754 221.824 44.7779C220.791 44.7175 220 43.8495 220 42.8149C220 38.2294 220 31.3573 220 27.9959Z" fill="url(#paint12_linear)"/>
</mask>
<g mask="url(#mask5)">
<path d="M220 27.9958C220 26.8913 220.895 26 222 26H250C251.105 26 252 26.8952 252 27.9998C252 30.6794 252 35.4525 252 38.5223C233.36 36.3409 239.68 46.4257 220 44.6409C220 40.2874 220 31.8427 220 27.9958Z" fill="url(#paint13_linear)"/>
<path opacity="0.4" d="M220 44.3272C235.08 44.6341 232.2 33.4831 252 38.1378C252 38.2401 252 38.2913 252 38.4959C233.36 36.2452 239.68 46.4755 220 44.6341C220 38.7005 220 44.5829 220 44.3272Z" fill="white" fill-opacity="0.48"/>
<path opacity="0.24" d="M220 38.5714C231.8 38.5714 237.96 44.0395 252 41.791C252 41.1777 252 44.4483 252 44.8572C251.16 44.8572 223.6 44.8572 220 44.8572C220 38.9292 220 38.827 220 38.5714Z" fill="white" fill-opacity="0.48"/>
</g>
<g opacity="0.48">
<rect y="31" width="72" height="72" rx="36" fill="#5CA8FF"/>
</g>
<rect x="20.5" y="56.5" width="31" height="21" rx="1.5" fill="white" stroke="#DCDEE0"/>
<mask id="mask6" mask-type="alpha" maskUnits="userSpaceOnUse" x="20" y="56" width="32" height="22">
<rect x="20" y="56" width="32" height="22" rx="2" fill="white"/>
</mask>
<g mask="url(#mask6)">
</g>
<mask id="mask7" mask-type="alpha" maskUnits="userSpaceOnUse" x="20" y="56" width="33" height="19">
<path d="M20 57.9959C20 56.8913 20.8954 56 22 56H50C51.1046 56 52 56.8939 52 57.9985C52 60.1237 52 63.5682 52 66.4448C52 67.6415 50.9404 68.5625 49.7468 68.4767C34.3871 67.3734 38.5282 75.754 21.8239 74.7779C20.7911 74.7175 20 73.8495 20 72.8149C20 68.2294 20 61.3573 20 57.9959Z" fill="url(#paint14_linear)"/>
</mask>
<g mask="url(#mask7)">
<path d="M20 57.9958C20 56.8913 20.8954 56 22 56H50C51.1046 56 52 56.8952 52 57.9998C52 60.6794 52 65.4525 52 68.5223C33.36 66.3409 39.68 76.4257 20 74.6409C20 70.2874 20 61.8427 20 57.9958Z" fill="url(#paint15_linear)"/>
<path opacity="0.4" d="M20 74.3272C35.08 74.6341 32.2 63.4831 52 68.1378C52 68.2401 52 68.2913 52 68.4959C33.36 66.2452 39.68 76.4755 20 74.6341C20 68.7005 20 74.5829 20 74.3272Z" fill="white" fill-opacity="0.48"/>
<path opacity="0.24" d="M20 68.5714C31.8 68.5714 37.96 74.0395 52 71.791C52 71.1777 52 74.4483 52 74.8572C51.16 74.8572 23.6 74.8572 20 74.8572C20 68.9292 20 68.827 20 68.5714Z" fill="white" fill-opacity="0.48"/>
</g>
<defs>
<linearGradient id="paint0_linear" x1="96.9869" y1="141.841" x2="96.9869" y2="159.247" gradientUnits="userSpaceOnUse">
<stop stop-color="#E2E3E4"/>
<stop offset="0.9872" stop-color="white"/>
</linearGradient>
<linearGradient id="paint1_linear" x1="487.376" y1="144.107" x2="487.376" y2="162.179" gradientUnits="userSpaceOnUse">
<stop stop-color="#E2E3E4"/>
<stop offset="0.9872" stop-color="white"/>
</linearGradient>
<linearGradient id="paint2_linear" x1="752.344" y1="414.406" x2="746.646" y2="95.1651" gradientUnits="userSpaceOnUse">
<stop stop-color="#469AED" stop-opacity="0.01"/>
<stop offset="0.8775" stop-color="#469AED"/>
</linearGradient>
<linearGradient id="paint3_linear" x1="1042.38" y1="412.693" x2="1037.69" y2="101.935" gradientUnits="userSpaceOnUse">
<stop stop-color="#469AED" stop-opacity="0.01"/>
<stop offset="0.8775" stop-color="#469AED"/>
</linearGradient>
<linearGradient id="paint4_linear" x1="386.977" y1="158.349" x2="386.977" y2="175.898" gradientUnits="userSpaceOnUse">
<stop stop-color="#E2E3E4"/>
<stop offset="0.9872" stop-color="white"/>
</linearGradient>
<linearGradient id="paint5_linear" x1="771.927" y1="409.896" x2="764.502" y2="120.451" gradientUnits="userSpaceOnUse">
<stop stop-color="#469AED" stop-opacity="0.01"/>
<stop offset="0.8775" stop-color="#469AED"/>
</linearGradient>
<linearGradient id="paint6_linear" x1="496.808" y1="412.636" x2="488.31" y2="109.006" gradientUnits="userSpaceOnUse">
<stop stop-color="#469AED" stop-opacity="0.01"/>
<stop offset="0.8775" stop-color="#469AED"/>
</linearGradient>
<linearGradient id="paint7_linear" x1="229.936" y1="143.948" x2="229.936" y2="162.701" gradientUnits="userSpaceOnUse">
<stop stop-color="#E2E3E4"/>
<stop offset="0.9872" stop-color="white"/>
</linearGradient>
<linearGradient id="paint8_linear" x1="512" y1="42" x2="528.496" y2="69.9934" gradientUnits="userSpaceOnUse">
<stop stop-color="#145ECC"/>
<stop offset="1" stop-color="#66A3FF"/>
</linearGradient>
<linearGradient id="paint9_linear" x1="543.565" y1="60.9029" x2="509.815" y2="47.5034" gradientUnits="userSpaceOnUse">
<stop stop-color="#3F46AD"/>
<stop offset="1" stop-color="#7980E5"/>
</linearGradient>
<linearGradient id="paint10_linear" x1="372" y1="25" x2="388.496" y2="52.9934" gradientUnits="userSpaceOnUse">
<stop stop-color="#145ECC"/>
<stop offset="1" stop-color="#66A3FF"/>
</linearGradient>
<linearGradient id="paint11_linear" x1="372" y1="25" x2="388.492" y2="52.991" gradientUnits="userSpaceOnUse">
<stop stop-color="#FF575A"/>
<stop offset="1" stop-color="#E33235"/>
</linearGradient>
<linearGradient id="paint12_linear" x1="220" y1="26" x2="236.496" y2="53.9934" gradientUnits="userSpaceOnUse">
<stop stop-color="#145ECC"/>
<stop offset="1" stop-color="#66A3FF"/>
</linearGradient>
<linearGradient id="paint13_linear" x1="220" y1="26" x2="236.492" y2="53.991" gradientUnits="userSpaceOnUse">
<stop stop-color="#0080FF"/>
<stop offset="1" stop-color="#0069D1"/>
</linearGradient>
<linearGradient id="paint14_linear" x1="20" y1="56" x2="36.4961" y2="83.9934" gradientUnits="userSpaceOnUse">
<stop stop-color="#145ECC"/>
<stop offset="1" stop-color="#66A3FF"/>
</linearGradient>
<linearGradient id="paint15_linear" x1="20" y1="56" x2="36.4918" y2="83.991" gradientUnits="userSpaceOnUse">
<stop stop-color="#1F657E"/>
<stop offset="1" stop-color="#005E81"/>
</linearGradient>
</defs>
</svg>
