<?xml version="1.0" encoding="UTF-8"?>
<svg width="219px" height="34px" viewBox="0 0 219 34" version="1.1" xmlns="http://www.w3.org/2000/svg" xmlns:xlink="http://www.w3.org/1999/xlink">
    <!-- Generator: sketchtool 42 (36781) - http://www.bohemiancoding.com/sketch -->
    <title>6361D292-7A94-4230-BC64-ED2F5D978F84</title>
    <desc>Created with sketchtool.</desc>
    <defs></defs>
    <g id="Page-1" stroke="none" stroke-width="1" fill="none" fill-rule="evenodd">
        <g id="email-template---monthly-digest---320" transform="translate(-373.000000, -139.000000)" fill-rule="nonzero" fill="#515F71">
            <g id="::-logotype-(oc)" transform="translate(373.000000, 75.000000)">
                <g id="::-wordwark-(oc)" transform="translate(0.000000, 63.950000)">
                    <path d="M109.50602,7.96955453 C114.316954,7.96955453 118.21152,11.9387975 118.21152,16.84198 C118.21152,21.7451625 114.316954,25.7144055 109.50602,25.7144055 C104.695086,25.7144055 100.800521,21.7451625 100.800521,16.84198 C100.800521,11.9387975 104.695086,7.96955453 109.50602,7.96955453 Z M109.50602,11.1799717 C106.413277,11.1799717 103.950537,13.7483054 103.950537,16.84198 C103.950537,19.9356547 106.47055,22.5039884 109.50602,22.5039884 C112.54149,22.5039884 115.061503,19.9356547 115.061503,16.84198 C115.061503,13.7483054 112.598763,11.1799717 109.50602,11.1799717 Z M123.251546,0.673151977 C123.308819,0.673151977 123.366092,0.731523198 123.423365,0.848265639 L123.423365,25.2474358 C123.423365,25.3641782 123.366092,25.4225494 123.251546,25.4225494 L120.445168,25.4225494 C120.330622,25.4225494 120.273349,25.3641782 120.273349,25.2474358 L120.273349,0.848265639 C120.273349,0.731523198 120.330622,0.673151977 120.445168,0.673151977 L123.251546,0.673151977 Z M201.429222,8.26141063 C201.543768,8.26141063 201.601041,8.37815307 201.486495,8.49489551 L195.816466,25.305807 C195.759193,25.3641782 195.70192,25.4225494 195.644647,25.4225494 L191.750081,25.4225494 C191.635535,25.4225494 191.578262,25.3641782 191.578262,25.305807 L185.908233,8.49489551 C185.908233,8.37815307 185.965506,8.26141063 186.080052,8.26141063 L188.829157,8.26141063 C188.943703,8.26141063 189.000976,8.31978185 189.000976,8.37815307 L193.468272,21.7451625 C193.582818,22.0370187 193.926456,22.0370187 194.041002,21.7451625 L198.508298,8.37815307 C198.565571,8.31978185 198.622844,8.26141063 198.680117,8.26141063 L201.429222,8.26141063 Z M46.5629678,22.5039884 C48.6820696,22.5039884 50.5148064,21.2781928 51.5457208,19.5270562 C51.5457208,19.4103137 51.6602668,19.4103137 51.7175399,19.4103137 L54.523918,19.9356547 C54.638464,19.9356547 54.6957371,20.0523972 54.638464,20.1691396 C53.3211845,23.3795567 50.2284413,25.6560343 46.6202408,25.6560343 C41.6374878,25.6560343 37.6856492,21.4533064 37.9147413,16.3750103 C38.0865604,11.8220551 41.8093069,8.14466819 46.2766027,7.96955453 C50.5148064,7.79444087 54.1230068,10.7713731 55.0393752,14.7989873 C55.0393752,14.8573585 55.0393752,14.9157298 54.9248292,14.974101 L52.118451,16.1998966 L42.4965831,20.3442533 C42.3820371,20.4026245 42.3820371,20.5193669 42.4393101,20.6361094 C43.4702245,21.8035338 44.9020501,22.5039884 46.5629678,22.5039884 Z M46.5629678,11.1799717 C43.5274976,11.1799717 41.0074845,13.6899341 41.0074845,16.9003513 L41.0074845,17.367321 C41.0074845,17.4256922 41.1220306,17.5424347 41.2365766,17.4840635 C41.3511227,17.4256922 50.6293524,13.398078 50.6293524,13.398078 C50.7438985,13.3397068 50.7438985,13.2229644 50.6866254,13.1062219 C49.7129841,11.9387975 48.2238855,11.1799717 46.5629678,11.1799717 Z M8.70549951,7.96955453 C13.5164335,7.96955453 17.410999,11.9387975 17.410999,16.84198 C17.410999,21.7451625 13.5164335,25.7144055 8.70549951,25.7144055 C3.89456557,25.7144055 0,21.7451625 0,16.84198 C0,11.9387975 3.89456557,7.96955453 8.70549951,7.96955453 Z M8.70549951,11.1799717 C5.67002929,11.1799717 3.15001627,13.7483054 3.15001627,16.84198 C3.15001627,19.9356547 5.67002929,22.5039884 8.70549951,22.5039884 C11.7409697,22.5039884 14.2609828,19.9356547 14.2609828,16.84198 C14.2609828,13.7483054 11.7982428,11.1799717 8.70549951,11.1799717 Z M27.5483241,7.79444087 C31.7292548,7.73606965 35.5092743,10.7713731 36.1965506,15.0324722 C37.227465,20.6361094 32.9892613,25.5392919 27.6628702,25.5392919 C25.3719492,25.5392919 23.5964855,24.6053523 22.393752,23.1460718 C22.279206,23.0293294 22.1073869,23.0877006 22.1073869,23.2628143 L22.1073869,32.8940656 C22.1073869,33.0108081 22.0501139,33.0691793 21.9355678,33.0691793 L19.1864627,33.0691793 C19.0719167,33.0691793 19.0146437,33.0108081 19.0146437,32.8940656 L19.0146437,8.43652429 C19.0146437,8.31978185 19.0719167,8.26141063 19.1864627,8.26141063 L21.9928409,8.26141063 C22.1073869,8.26141063 22.1646599,8.31978185 22.1646599,8.43652429 L22.1646599,10.0709185 C22.1646599,10.2460321 22.336479,10.3044033 22.4510251,10.1876609 C23.6537585,8.7283804 25.3719492,7.85281209 27.5483241,7.79444087 Z M28.6365116,22.2705035 C30.9274325,21.861905 32.8174422,19.9940259 33.1610804,17.6591771 C33.7910836,13.8066766 30.5265213,10.479517 26.7465018,11.1216004 C24.4555809,11.4718278 22.6228441,13.398078 22.221933,15.7329268 C21.5919297,19.5854274 24.856492,22.912587 28.6365116,22.2705035 Z M65.0621542,7.96955453 C71.1330947,7.96955453 73.4240156,12.3473961 73.3667426,17.2505786 L73.3667426,25.305807 C73.3667426,25.4225494 73.2521966,25.4809207 73.1949235,25.4809207 L70.3885454,25.4809207 C70.2739993,25.4809207 70.2167263,25.3641782 70.2167263,25.305807 L70.2167263,17.2505786 C70.2167263,14.0985327 69.0139928,11.4134565 65.0048812,11.4134565 C61.969411,11.4134565 59.8503091,13.6899341 59.8503091,16.9003513 L59.8503091,25.305807 C59.8503091,25.4225494 59.7357631,25.4809207 59.6784901,25.4809207 L56.8721119,25.4809207 C56.7575659,25.4809207 56.7002929,25.3641782 56.7002929,25.305807 L56.7002929,16.9003513 L56.7002929,8.43652429 C56.7002929,8.31978185 56.8148389,8.26141063 56.8721119,8.26141063 L59.6784901,8.26141063 C59.7930361,8.26141063 59.8503091,8.37815307 59.8503091,8.43652429 L59.8503091,10.479517 C59.8503091,10.5962594 60.0794012,10.6546307 60.1366743,10.5378882 C61.1103157,9.13697894 63.2294175,7.96955453 65.0621542,7.96955453 Z M129.379759,0.673151977 C129.437032,0.673151977 129.551578,0.731523198 129.551578,0.848265639 L129.551578,25.2474358 C129.551578,25.3641782 129.494305,25.4225494 129.379759,25.4225494 L126.573381,25.4225494 C126.458835,25.4225494 126.401562,25.3641782 126.401562,25.2474358 L126.401562,0.848265639 C126.401562,0.731523198 126.458835,0.673151977 126.573381,0.673151977 L129.379759,0.673151977 Z M140.433453,22.5039884 C142.495281,22.5039884 144.385291,21.2781928 145.416206,19.5270562 C145.416206,19.4103137 145.530752,19.4103137 145.588025,19.4103137 L148.394403,19.9356547 C148.508949,19.9356547 148.566222,20.0523972 148.508949,20.1691396 C147.191669,23.3795567 144.098926,25.6560343 140.490726,25.6560343 C135.507973,25.6560343 131.556134,21.4533064 131.785226,16.3750103 C131.957045,11.8220551 135.679792,8.14466819 140.147088,7.96955453 C144.385291,7.79444087 147.993492,10.7713731 148.90986,14.7989873 C148.90986,14.8573585 148.90986,14.9157298 148.795314,14.974101 L145.988936,16.1998966 L136.367068,20.3442533 C136.252522,20.4026245 136.252522,20.5193669 136.309795,20.6361094 C137.340709,21.8035338 138.772535,22.5039884 140.433453,22.5039884 Z M140.433453,11.1799717 C137.340709,11.1799717 134.820696,13.6899341 134.877969,16.9003513 L134.877969,17.367321 C134.877969,17.4256922 134.992515,17.5424347 135.107062,17.4840635 C135.221608,17.4256922 144.499837,13.398078 144.499837,13.398078 C144.614383,13.3397068 144.614383,13.2229644 144.55711,13.1062219 C143.583469,11.9387975 142.09437,11.1799717 140.433453,11.1799717 Z M159.161731,22.5039884 C160.822649,22.5039884 162.311747,21.8035338 163.285389,20.5193669 C163.342662,20.4609957 163.457208,20.4609957 163.514481,20.5193669 C163.915392,20.9279655 165.175399,22.2121323 165.519037,22.5623596 C165.57631,22.6207309 165.57631,22.6791021 165.519037,22.7374733 C163.915392,24.4886099 161.624471,25.5976631 159.104458,25.5976631 C154.121705,25.5976631 150.169867,21.3949352 150.398959,16.3166391 C150.628051,11.8220551 154.293524,8.14466819 158.703547,7.91118331 C161.395379,7.79444087 163.858119,8.90349406 165.519037,10.7713731 C165.57631,10.8297443 165.57631,10.9464868 165.519037,11.004858 C165.404491,11.1216004 163.972665,12.5808809 163.514481,13.0478507 C163.457208,13.1062219 163.342662,13.1062219 163.285389,13.0478507 C162.025382,11.5885702 160.020827,10.8297443 157.901725,11.2967141 C155.954442,11.7053126 154.007159,13.7483054 153.663521,15.7329268 C153.033518,19.3519425 155.72535,22.5039884 159.161731,22.5039884 Z M177.546372,8.26141063 C177.603645,8.26141063 177.718191,8.37815307 177.718191,8.43652429 L177.718191,11.2967141 C177.718191,11.4134565 177.660918,11.4718278 177.546372,11.4718278 L174.396355,11.4718278 C174.339082,11.4718278 174.281809,11.530199 174.281809,11.5885702 L174.281809,25.2474358 C174.281809,25.3641782 174.224536,25.4225494 174.10999,25.4225494 L171.303612,25.4225494 C171.189066,25.4225494 171.131793,25.3641782 171.131793,25.2474358 L171.131793,11.5885702 C171.131793,11.530199 171.07452,11.4718278 171.017247,11.4718278 L167.924504,11.4718278 C167.809958,11.4718278 167.752685,11.4134565 167.752685,11.2967141 L167.752685,8.43652429 C167.752685,8.31978185 167.809958,8.26141063 167.924504,8.26141063 L171.017247,8.26141063 C171.07452,8.26141063 171.131793,8.20303941 171.131793,8.14466819 L171.131793,0.848265639 C171.131793,0.731523198 171.189066,0.673151977 171.303612,0.673151977 L174.10999,0.673151977 C174.224536,0.673151977 174.281809,0.731523198 174.281809,0.848265639 L174.281809,8.14466819 C174.281809,8.20303941 174.339082,8.26141063 174.396355,8.26141063 L177.546372,8.26141063 Z M210.47836,22.5039884 C212.597462,22.5039884 214.430199,21.2781928 215.461113,19.5270562 C215.461113,19.4103137 215.575659,19.4103137 215.632932,19.4103137 L218.43931,19.9356547 C218.553856,19.9356547 218.611129,20.0523972 218.553856,20.1691396 C217.236577,23.3795567 214.143833,25.6560343 210.535633,25.6560343 C205.55288,25.6560343 201.601041,21.4533064 201.830133,16.3750103 C202.001952,11.8220551 205.724699,8.14466819 210.191995,7.96955453 C214.430199,7.79444087 218.038399,10.7713731 218.954767,14.7989873 C218.954767,14.8573585 218.954767,14.9157298 218.840221,14.974101 L216.033843,16.1998966 L206.411975,20.3442533 C206.297429,20.4026245 206.297429,20.5193669 206.354702,20.6361094 C207.385617,21.8035338 208.817442,22.5039884 210.47836,22.5039884 Z M210.47836,11.1799717 C207.385617,11.1799717 204.865604,13.6899341 204.922877,16.9003513 L204.922877,17.367321 C204.922877,17.4256922 205.037423,17.5424347 205.151969,17.4840635 C205.266515,17.4256922 214.544745,13.398078 214.544745,13.398078 C214.659291,13.3397068 214.659291,13.2229644 214.602018,13.1062219 C213.628376,11.9387975 212.139278,11.1799717 210.47836,11.1799717 Z M183.330947,2.77451591 C183.445493,2.77451591 183.502766,2.83288713 183.502766,2.94962957 L183.502766,5.80981937 C183.502766,5.92656182 183.445493,5.98493304 183.330947,5.98493304 L180.524569,5.98493304 C180.410023,5.98493304 180.35275,5.92656182 180.35275,5.80981937 L180.35275,2.94962957 C180.35275,2.83288713 180.410023,2.77451591 180.524569,2.77451591 L183.330947,2.77451591 Z M183.330947,8.26141063 C183.445493,8.26141063 183.502766,8.37815307 183.502766,8.43652429 L183.502766,25.2474358 C183.502766,25.3641782 183.445493,25.4225494 183.330947,25.4225494 L180.524569,25.4225494 C180.410023,25.4225494 180.35275,25.3641782 180.35275,25.2474358 L180.35275,8.43652429 C180.35275,8.31978185 180.410023,8.26141063 180.524569,8.26141063 L183.330947,8.26141063 Z M93.5268467,22.5039884 C95.1877644,22.5039884 96.676863,21.8035338 97.6505044,20.5193669 C97.7077774,20.4609957 97.8223235,20.4609957 97.8795965,20.5193669 C98.2805076,20.9279655 99.5405142,22.2121323 99.8841523,22.5623596 C99.9414253,22.6207309 99.9414253,22.6791021 99.8841523,22.7374733 C98.2805076,24.4886099 95.9895867,25.5976631 93.4695737,25.5976631 C88.4868207,25.5976631 84.5349821,21.3949352 84.7640742,16.3166391 C84.9931663,11.8220551 88.6586398,8.14466819 93.0686625,7.91118331 C95.7604946,7.79444087 98.2232346,8.90349406 99.8841523,10.7713731 C99.9414253,10.8297443 99.9414253,10.9464868 99.8841523,11.004858 C99.7696062,11.1216004 98.3377807,12.5808809 97.8795965,13.0478507 C97.8223235,13.1062219 97.7077774,13.1062219 97.6505044,13.0478507 C96.3904979,11.5885702 94.3859421,10.8297443 92.2668402,11.2967141 C90.3195574,11.7053126 88.3722747,13.7483054 88.0286365,15.7329268 C87.3986333,19.3519425 90.0904653,22.5039884 93.5268467,22.5039884 Z" id="wordmark"></path>
                </g>
            </g>
        </g>
    </g>
</svg>