<?xml version="1.0" encoding="utf-8"?>
<!-- Generator: Adobe Illustrator 19.1.0, SVG Export Plug-In . SVG Version: 6.00 Build 0)  -->
<svg version="1.1" id="Layer_1" xmlns="http://www.w3.org/2000/svg" xmlns:xlink="http://www.w3.org/1999/xlink" x="0px" y="0px"
	 viewBox="182 10.5 439 55.5" style="enable-background:new 182 10.5 439 55.5;" xml:space="preserve">
<style type="text/css">
	.st0{fill:#fff;}
	.st1{fill:#B8D3F4;}
	.st2{fill:#7FADF2;}
</style>
<path id="XMLID_191_" class="st0" d="M429.8,28.2c5.4,0,9.7,4.4,9.7,9.7s-4.4,9.7-9.7,9.7c-5.3,0-9.7-4.4-9.7-9.7
	S424.4,28.2,429.8,28.2 M429.8,22.7c-8.4,0-15.2,6.8-15.2,15.2s6.8,15.2,15.2,15.2S445,46.3,445,37.9S438.2,22.7,429.8,22.7
	L429.8,22.7z"/>
<path id="XMLID_190_" class="st0" d="M453.8,10.2h-4.9c-0.2,0-0.3,0.1-0.3,0.3v41.8c0,0.2,0.1,0.3,0.3,0.3h4.9
	c0.2,0,0.3-0.1,0.3-0.3V10.5C454,10.3,453.9,10.2,453.8,10.2z"/>
<path id="XMLID_188_" class="st0" d="M590.3,23.2h-4.8c-0.1,0-0.2,0.1-0.3,0.2l-7.8,22.9c-0.2,0.5-0.8,0.5-1,0l-7.8-22.9
	c0-0.1-0.1-0.2-0.3-0.2h-4.8c-0.2,0-0.3,0.2-0.3,0.4l9.9,28.8c0,0.1,0.1,0.2,0.3,0.2h6.8c0.1,0,0.2-0.1,0.3-0.2l9.9-28.8
	C590.6,23.4,590.5,23.2,590.3,23.2z"/>
<path id="XMLID_185_" class="st0" d="M319.9,47.6c-2.9,0-5.4-1.2-7.2-3.2c-0.1-0.2-0.1-0.4,0.1-0.5l16.8-7.1l4.9-2.1
	c0.2-0.1,0.2-0.2,0.2-0.3c-1.6-6.9-7.9-12-15.3-11.7c-7.8,0.3-14.3,6.6-14.6,14.4C304.4,45.8,311.3,53,320,53c6.3,0,11.7-3.9,14-9.4
	c0.1-0.2,0-0.4-0.2-0.4l-4.9-0.9c-0.1,0-0.3,0-0.3,0.2C326.8,45.5,323.6,47.6,319.9,47.6z M319.9,28.2c2.9,0,5.5,1.3,7.2,3.3
	c0.1,0.2,0.1,0.4-0.1,0.5c0,0-16.2,6.9-16.4,7c-0.2,0.1-0.4-0.1-0.4-0.2c0-0.3,0-0.5,0-0.8C310.2,32.5,314.6,28.2,319.9,28.2z"/>
<path id="XMLID_182_" class="st0" d="M253.8,28.2c5.4,0,9.7,4.4,9.7,9.7s-4.4,9.7-9.7,9.7s-9.7-4.4-9.7-9.7S248.5,28.2,253.8,28.2
	 M253.8,22.7c-8.4,0-15.2,6.8-15.2,15.2s6.8,15.2,15.2,15.2c8.4,0,15.2-6.8,15.2-15.2S262.2,22.7,253.8,22.7L253.8,22.7z"/>
<path id="XMLID_121_" class="st0" d="M286.7,22.4c-3.8,0.1-6.8,1.6-8.9,4.1c-0.2,0.2-0.5,0.1-0.5-0.2v-2.8c0-0.2-0.1-0.3-0.3-0.3
	h-4.9c-0.2,0-0.3,0.1-0.3,0.3v41.9c0,0.2,0.1,0.3,0.3,0.3h4.8c0.2,0,0.3-0.1,0.3-0.3V48.9c0-0.3,0.3-0.4,0.5-0.2
	c2.1,2.5,5.2,4.1,9.2,4.1c9.3,0,16.7-8.4,14.9-18C300.6,27.5,294,22.3,286.7,22.4z M288.6,47.2c-6.6,1.1-12.3-4.6-11.2-11.2
	c0.7-4,3.9-7.3,7.9-7.9c6.6-1.1,12.3,4.6,11.2,11.2C295.9,43.3,292.6,46.5,288.6,47.2z"/>
<path id="XMLID_178_" class="st0" d="M352.2,22.7c-3.2,0-6.9,2-8.6,4.4c-0.1,0.2-0.5,0.1-0.5-0.1v-3.5c0-0.1-0.1-0.3-0.3-0.3h-4.9
	c-0.1,0-0.3,0.1-0.3,0.3V38v14.4c0,0.1,0.1,0.3,0.3,0.3h4.9c0.1,0,0.3-0.1,0.3-0.3V38c0-5.5,3.7-9.4,9-9.4c7,0,9.1,4.6,9.1,10v13.8
	c0,0.1,0.1,0.3,0.3,0.3h4.9c0.1,0,0.3-0.1,0.3-0.3V38.6C366.8,30.2,362.8,22.7,352.2,22.7z"/>
<path id="XMLID_177_" class="st0" d="M409.8,45.3"/>
<path id="XMLID_176_" class="st0" d="M464.5,10.2h-4.9c-0.2,0-0.3,0.1-0.3,0.3v41.8c0,0.2,0.1,0.3,0.3,0.3h4.9
	c0.2,0,0.3-0.1,0.3-0.3V10.5C464.8,10.3,464.6,10.2,464.5,10.2z"/>
<path id="XMLID_173_" class="st0" d="M483.8,47.6c-2.9,0-5.4-1.2-7.2-3.2c-0.1-0.2-0.1-0.4,0.1-0.5l16.8-7.1l4.9-2.1
	c0.2-0.1,0.2-0.2,0.2-0.3c-1.6-6.9-7.9-12-15.3-11.7c-7.8,0.3-14.3,6.6-14.6,14.4c-0.4,8.7,6.5,15.9,15.2,15.9
	c6.3,0,11.7-3.9,14-9.4c0.1-0.2,0-0.4-0.2-0.4l-4.9-0.9c-0.1,0-0.3,0-0.3,0.2C490.7,45.5,487.4,47.6,483.8,47.6z M483.8,28.2
	c2.9,0,5.5,1.3,7.2,3.3c0.1,0.2,0.1,0.4-0.1,0.5c0,0-16.2,6.9-16.4,7c-0.2,0.1-0.4-0.1-0.4-0.2c0-0.3,0-0.5,0-0.8
	C474,32.5,478.4,28.2,483.8,28.2z"/>
<path id="XMLID_172_" class="st0" d="M516.5,47.6c-6,0-10.7-5.4-9.6-11.6c0.6-3.4,4-6.9,7.4-7.6c3.7-0.8,7.2,0.5,9.4,3
	c0.1,0.1,0.3,0.1,0.4,0c0.8-0.8,3.3-3.3,3.5-3.5c0.1-0.1,0.1-0.3,0-0.4c-2.9-3.2-7.2-5.1-11.9-4.9C508,23,501.6,29.3,501.2,37
	c-0.4,8.7,6.5,15.9,15.2,15.9c4.4,0,8.4-1.9,11.2-4.9c0.1-0.1,0.1-0.2,0-0.3c-0.6-0.6-2.8-2.8-3.5-3.5c-0.1-0.1-0.3-0.1-0.4,0
	C522,46.4,519.4,47.6,516.5,47.6z"/>
<path id="XMLID_171_" class="st0" d="M548.6,23.2h-5.5c-0.1,0-0.2-0.1-0.2-0.2V10.5c0-0.2-0.1-0.3-0.3-0.3h-4.9
	c-0.2,0-0.3,0.1-0.3,0.3V23c0,0.1-0.1,0.2-0.2,0.2h-5.4c-0.2,0-0.3,0.1-0.3,0.3v4.9c0,0.2,0.1,0.3,0.3,0.3h5.4
	c0.1,0,0.2,0.1,0.2,0.2v23.4c0,0.2,0.1,0.3,0.3,0.3h4.9c0.2,0,0.3-0.1,0.3-0.3V28.9c0-0.1,0.1-0.2,0.2-0.2h5.5
	c0.2,0,0.3-0.1,0.3-0.3v-4.9C548.9,23.4,548.7,23.2,548.6,23.2z"/>
<path id="XMLID_168_" class="st0" d="M606.1,47.6c-2.9,0-5.4-1.2-7.2-3.2c-0.1-0.2-0.1-0.4,0.1-0.5l16.8-7.1l4.9-2.1
	c0.2-0.1,0.2-0.2,0.2-0.3c-1.6-6.9-7.9-12-15.3-11.7c-7.8,0.3-14.3,6.6-14.6,14.4c-0.4,8.7,6.5,15.9,15.2,15.9
	c6.3,0,11.7-3.9,14-9.4c0.1-0.2,0-0.4-0.2-0.4l-4.9-0.9c-0.1,0-0.3,0-0.3,0.2C613,45.5,609.8,47.6,606.1,47.6z M606.1,28.2
	c2.9,0,5.5,1.3,7.2,3.3c0.1,0.2,0.1,0.4-0.1,0.5c0,0-16.2,6.9-16.4,7c-0.2,0.1-0.4-0.1-0.4-0.2c0-0.3,0-0.5,0-0.8
	C596.3,32.5,600.7,28.2,606.1,28.2z"/>
<path id="XMLID_167_" class="st0" d="M558.7,13.8h-4.9c-0.2,0-0.3,0.1-0.3,0.3V19c0,0.2,0.1,0.3,0.3,0.3h4.9c0.2,0,0.3-0.1,0.3-0.3
	v-4.9C559,13.9,558.9,13.8,558.7,13.8z"/>
<path id="XMLID_161_" class="st0" d="M558.7,23.2h-4.9c-0.2,0-0.3,0.1-0.3,0.3v28.8c0,0.2,0.1,0.3,0.3,0.3h4.9
	c0.2,0,0.3-0.1,0.3-0.3V23.5C559,23.4,558.9,23.2,558.7,23.2z"/>
<path id="XMLID_125_" class="st0" d="M401.9,47.6c-6,0-10.7-5.4-9.6-11.6c0.6-3.4,4-6.9,7.4-7.6c3.7-0.8,7.2,0.5,9.4,3
	c0.1,0.1,0.3,0.1,0.4,0c0.8-0.8,3.3-3.3,3.5-3.5c0.1-0.1,0.1-0.3,0-0.4c-2.9-3.2-7.2-5.1-11.9-4.9C393.4,23,387,29.3,386.6,37
	c-0.4,8.7,6.5,15.9,15.2,15.9c4.4,0,8.4-1.9,11.2-4.9c0.1-0.1,0.1-0.2,0-0.3c-0.6-0.6-2.8-2.8-3.5-3.5c-0.1-0.1-0.3-0.1-0.4,0
	C407.4,46.4,404.8,47.6,401.9,47.6z"/>
<path class="st1" d="M212.1,37.8c0,2.3-0.7,4.5-1.9,6.4l4.8,4.8c2.3-3.1,3.7-6.9,3.7-11.1c0-4.2-1.4-8-3.8-11.1l-4.7,4.7
	C211.4,33.3,212.1,35.5,212.1,37.8z"/>
<path class="st2" d="M200.3,49.6c-6.5,0-11.8-5.3-11.8-11.8c0-6.5,5.3-11.8,11.8-11.8c2.4,0,4.6,0.7,6.4,1.9l4.7-4.7
	c-3.1-2.3-6.9-3.7-11.1-3.7c-10.1,0-18.3,8.2-18.3,18.3s8.2,18.3,18.3,18.3c4.2,0,8-1.4,11.1-3.8l-4.8-4.8
	C204.9,48.9,202.7,49.6,200.3,49.6z"/>
</svg>
