<?xml version="1.0" standalone="no"?><!DOCTYPE svg PUBLIC "-//W3C//DTD SVG 1.1//EN" "http://www.w3.org/Graphics/SVG/1.1/DTD/svg11.dtd"><svg  height="64" viewBox="0 0 128 64" version="1.1" xmlns="http://www.w3.org/2000/svg" xmlns:xlink="http://www.w3.org/1999/xlink" xml:space="preserve" style="fill-rule:evenodd;clip-rule:evenodd;stroke-linejoin:round;stroke-miterlimit:1.41421;"><g><path d="M120,32.281c0,-11.046 -8.954,-20 -20,-20c-22.196,0 -57.804,0 -80,0c-11.046,0 -20,8.954 -20,20c0,0 0,0 0,0c0,11.046 8.954,20 20,20c22.196,0 57.804,0 80,0c11.046,0 20,-8.954 20,-20c0,0 0,0 0,0Z" style="fill:#fff;"/><path d="M100.129,12.281l0.129,0.002l0.129,0.002l0.129,0.002l0.129,0.004l0.128,0.005l0.128,0.005l0.128,0.006l0.128,0.007l0.127,0.008l0.128,0.008l0.127,0.009l0.127,0.01l0.126,0.011l0.127,0.012l0.126,0.012l0.126,0.013l0.126,0.014l0.125,0.015l0.125,0.016l0.125,0.016l0.125,0.017l0.125,0.018l0.124,0.018l0.124,0.02l0.124,0.02l0.123,0.021l0.123,0.021l0.123,0.023l0.123,0.023l0.123,0.024l0.122,0.024l0.122,0.026l0.121,0.026l0.122,0.027l0.121,0.027l0.121,0.028l0.12,0.029l0.12,0.03l0.12,0.031l0.12,0.031l0.119,0.032l0.119,0.032l0.119,0.034l0.119,0.034l0.118,0.034l0.118,0.036l0.117,0.036l0.118,0.037l0.117,0.038l0.116,0.038l0.117,0.039l0.116,0.039l0.115,0.041l0.116,0.041l0.115,0.042l0.114,0.042l0.115,0.043l0.114,0.044l0.113,0.044l0.227,0.091l0.225,0.094l0.224,0.096l0.222,0.099l0.221,0.101l0.219,0.104l0.218,0.107l0.216,0.109l0.215,0.112l0.213,0.114l0.212,0.117l0.21,0.119l0.209,0.121l0.207,0.124l0.205,0.127l0.204,0.129l0.202,0.131l0.2,0.134l0.199,0.136l0.197,0.138l0.195,0.14l0.193,0.143l0.192,0.145l0.19,0.148l0.188,0.149l0.186,0.152l0.184,0.154l0.183,0.156l0.18,0.158l0.179,0.161l0.176,0.162l0.175,0.165l0.172,0.166l0.171,0.169l0.169,0.17l0.166,0.173l0.165,0.175l0.162,0.176l0.161,0.179l0.158,0.18l0.156,0.183l0.154,0.184l0.152,0.186l0.149,0.188l0.148,0.19l0.145,0.192l0.143,0.193l0.14,0.195l0.138,0.197l0.136,0.199l0.134,0.2l0.131,0.202l0.129,0.204l0.127,0.205l0.124,0.207l0.121,0.209l0.119,0.21l0.117,0.212l0.114,0.213l0.112,0.215l0.109,0.216l0.107,0.218l0.104,0.219l0.101,0.221l0.099,0.222l0.096,0.224l0.094,0.225l0.091,0.226l0.044,0.114l0.044,0.114l0.043,0.115l0.042,0.114l0.042,0.115l0.041,0.116l0.041,0.115l0.039,0.116l0.039,0.117l0.038,0.116l0.038,0.117l0.037,0.118l0.036,0.117l0.035,0.118l0.035,0.118l0.034,0.119l0.034,0.119l0.032,0.119l0.032,0.119l0.031,0.12l0.031,0.12l0.03,0.12l0.029,0.12l0.028,0.121l0.027,0.121l0.027,0.122l0.026,0.121l0.026,0.122l0.024,0.122l0.024,0.123l0.023,0.123l0.023,0.123l0.021,0.123l0.021,0.123l0.02,0.124l0.02,0.124l0.018,0.124l0.018,0.125l0.017,0.125l0.016,0.125l0.016,0.125l0.015,0.125l0.014,0.126l0.013,0.126l0.012,0.126l0.012,0.127l0.011,0.126l0.01,0.127l0.009,0.127l0.008,0.128l0.008,0.127l0.007,0.128l0.006,0.128l0.005,0.128l0.005,0.128l0.003,0.129l0.003,0.129l0.002,0.128l0.002,0.13l0,0.129l0,0.129l-0.002,0.129l-0.002,0.129l-0.003,0.129l-0.003,0.129l-0.005,0.128l-0.005,0.128l-0.006,0.128l-0.007,0.128l-0.008,0.127l-0.008,0.128l-0.009,0.127l-0.01,0.127l-0.011,0.126l-0.012,0.127l-0.012,0.126l-0.013,0.126l-0.014,0.126l-0.015,0.125l-0.016,0.125l-0.016,0.125l-0.017,0.125l-0.018,0.125l-0.018,0.124l-0.02,0.124l-0.02,0.124l-0.021,0.123l-0.021,0.123l-0.023,0.123l-0.023,0.123l-0.024,0.122l-0.024,0.123l-0.026,0.122l-0.026,0.121l-0.027,0.122l-0.027,0.121l-0.028,0.121l-0.029,0.12l-0.03,0.12l-0.031,0.12l-0.031,0.12l-0.032,0.119l-0.032,0.119l-0.034,0.119l-0.034,0.119l-0.035,0.118l-0.035,0.118l-0.036,0.117l-0.037,0.118l-0.038,0.117l-0.038,0.116l-0.039,0.117l-0.039,0.116l-0.041,0.115l-0.041,0.116l-0.042,0.115l-0.042,0.114l-0.043,0.115l-0.044,0.114l-0.044,0.113l-0.091,0.227l-0.094,0.225l-0.096,0.223l-0.099,0.223l-0.101,0.22l-0.104,0.22l-0.107,0.218l-0.109,0.216l-0.112,0.215l-0.114,0.213l-0.117,0.212l-0.119,0.21l-0.121,0.209l-0.124,0.207l-0.127,0.205l-0.129,0.204l-0.131,0.202l-0.134,0.2l-0.136,0.199l-0.138,0.197l-0.14,0.195l-0.143,0.193l-0.145,0.192l-0.148,0.19l-0.149,0.188l-0.152,0.186l-0.154,0.184l-0.156,0.182l-0.158,0.181l-0.161,0.179l-0.162,0.176l-0.165,0.175l-0.166,0.172l-0.169,0.171l-0.171,0.169l-0.172,0.166l-0.175,0.165l-0.176,0.162l-0.179,0.161l-0.18,0.158l-0.183,0.156l-0.184,0.154l-0.186,0.152l-0.188,0.149l-0.19,0.148l-0.192,0.145l-0.193,0.143l-0.195,0.14l-0.197,0.138l-0.199,0.136l-0.2,0.134l-0.202,0.131l-0.204,0.129l-0.205,0.126l-0.207,0.125l-0.209,0.121l-0.21,0.119l-0.212,0.117l-0.213,0.114l-0.215,0.112l-0.216,0.109l-0.218,0.107l-0.219,0.104l-0.221,0.101l-0.222,0.099l-0.224,0.096l-0.225,0.094l-0.227,0.091l-0.113,0.044l-0.114,0.044l-0.115,0.043l-0.114,0.042l-0.115,0.042l-0.116,0.041l-0.115,0.04l-0.116,0.04l-0.117,0.039l-0.116,0.038l-0.117,0.038l-0.118,0.037l-0.117,0.036l-0.118,0.035l-0.118,0.035l-0.119,0.034l-0.119,0.034l-0.119,0.032l-0.119,0.032l-0.12,0.031l-0.12,0.031l-0.12,0.03l-0.12,0.029l-0.121,0.028l-0.121,0.027l-0.122,0.027l-0.121,0.026l-0.122,0.026l-0.122,0.024l-0.123,0.024l-0.123,0.023l-0.123,0.023l-0.123,0.021l-0.123,0.021l-0.124,0.02l-0.124,0.02l-0.124,0.018l-0.125,0.018l-0.125,0.017l-0.125,0.016l-0.125,0.016l-0.125,0.015l-0.126,0.014l-0.126,0.013l-0.126,0.012l-0.127,0.012l-0.126,0.011l-0.127,0.01l-0.127,0.009l-0.128,0.008l-0.127,0.008l-0.128,0.007l-0.128,0.006l-0.128,0.005l-0.128,0.005l-0.129,0.003l-0.129,0.003l-0.129,0.002l-0.129,0.002l-0.129,0l-80,0l-0.129,0l-0.129,-0.002l-0.129,-0.002l-0.129,-0.003l-0.129,-0.003l-0.128,-0.005l-0.128,-0.005l-0.128,-0.006l-0.128,-0.007l-0.127,-0.008l-0.128,-0.008l-0.127,-0.009l-0.127,-0.01l-0.126,-0.011l-0.127,-0.012l-0.126,-0.012l-0.126,-0.013l-0.126,-0.014l-0.125,-0.015l-0.125,-0.016l-0.125,-0.016l-0.125,-0.017l-0.125,-0.018l-0.124,-0.018l-0.124,-0.02l-0.124,-0.02l-0.123,-0.021l-0.123,-0.021l-0.123,-0.023l-0.123,-0.023l-0.123,-0.024l-0.122,-0.024l-0.122,-0.026l-0.121,-0.026l-0.122,-0.027l-0.121,-0.027l-0.121,-0.028l-0.12,-0.029l-0.12,-0.03l-0.12,-0.031l-0.12,-0.031l-0.119,-0.032l-0.119,-0.032l-0.119,-0.034l-0.119,-0.034l-0.118,-0.035l-0.118,-0.035l-0.117,-0.036l-0.118,-0.037l-0.117,-0.038l-0.116,-0.038l-0.117,-0.039l-0.116,-0.04l-0.115,-0.04l-0.116,-0.041l-0.115,-0.042l-0.114,-0.042l-0.115,-0.043l-0.114,-0.044l-0.113,-0.044l-0.227,-0.091l-0.225,-0.094l-0.224,-0.096l-0.222,-0.099l-0.221,-0.101l-0.219,-0.104l-0.218,-0.107l-0.216,-0.109l-0.215,-0.112l-0.213,-0.114l-0.212,-0.117l-0.21,-0.119l-0.209,-0.121l-0.207,-0.125l-0.205,-0.126l-0.204,-0.129l-0.202,-0.131l-0.2,-0.134l-0.199,-0.136l-0.197,-0.138l-0.195,-0.14l-0.193,-0.143l-0.192,-0.145l-0.19,-0.148l-0.188,-0.149l-0.186,-0.152l-0.184,-0.154l-0.183,-0.156l-0.18,-0.158l-0.179,-0.161l-0.176,-0.162l-0.175,-0.165l-0.172,-0.166l-0.171,-0.169l-0.169,-0.171l-0.166,-0.172l-0.165,-0.175l-0.162,-0.176l-0.161,-0.179l-0.158,-0.181l-0.156,-0.182l-0.154,-0.184l-0.152,-0.186l-0.149,-0.188l-0.148,-0.19l-0.145,-0.192l-0.143,-0.193l-0.14,-0.195l-0.138,-0.197l-0.136,-0.199l-0.134,-0.2l-0.131,-0.202l-0.129,-0.204l-0.127,-0.205l-0.124,-0.207l-0.121,-0.209l-0.119,-0.21l-0.117,-0.212l-0.114,-0.213l-0.112,-0.215l-0.109,-0.216l-0.107,-0.218l-0.104,-0.22l-0.101,-0.22l-0.099,-0.223l-0.096,-0.223l-0.094,-0.225l-0.091,-0.227l-0.044,-0.113l-0.044,-0.114l-0.043,-0.115l-0.042,-0.114l-0.042,-0.115l-0.041,-0.116l-0.041,-0.115l-0.039,-0.116l-0.039,-0.117l-0.038,-0.116l-0.038,-0.117l-0.037,-0.118l-0.036,-0.117l-0.035,-0.118l-0.035,-0.118l-0.034,-0.119l-0.034,-0.119l-0.032,-0.119l-0.032,-0.119l-0.031,-0.12l-0.031,-0.12l-0.03,-0.12l-0.029,-0.12l-0.028,-0.121l-0.027,-0.121l-0.027,-0.122l-0.026,-0.121l-0.026,-0.122l-0.024,-0.123l-0.024,-0.122l-0.023,-0.123l-0.023,-0.123l-0.021,-0.123l-0.021,-0.123l-0.02,-0.124l-0.02,-0.124l-0.018,-0.124l-0.018,-0.125l-0.017,-0.125l-0.016,-0.125l-0.016,-0.125l-0.015,-0.125l-0.014,-0.126l-0.013,-0.126l-0.012,-0.126l-0.012,-0.127l-0.011,-0.126l-0.01,-0.127l-0.009,-0.127l-0.008,-0.128l-0.008,-0.127l-0.007,-0.128l-0.006,-0.128l-0.005,-0.128l-0.005,-0.128l-0.003,-0.129l-0.003,-0.129l-0.002,-0.129l-0.002,-0.129l0,-0.129l0,0l0,-0.129l0.002,-0.13l0.002,-0.128l0.003,-0.129l0.003,-0.129l0.005,-0.128l0.005,-0.128l0.006,-0.128l0.007,-0.128l0.008,-0.127l0.008,-0.128l0.009,-0.127l0.01,-0.127l0.011,-0.126l0.012,-0.127l0.012,-0.126l0.013,-0.126l0.014,-0.126l0.015,-0.125l0.016,-0.125l0.016,-0.125l0.017,-0.125l0.018,-0.125l0.018,-0.124l0.02,-0.124l0.02,-0.124l0.021,-0.123l0.021,-0.123l0.023,-0.123l0.023,-0.123l0.024,-0.123l0.024,-0.122l0.026,-0.122l0.026,-0.121l0.027,-0.122l0.027,-0.121l0.028,-0.121l0.029,-0.12l0.03,-0.12l0.031,-0.12l0.031,-0.12l0.032,-0.119l0.032,-0.119l0.034,-0.119l0.034,-0.119l0.035,-0.118l0.035,-0.118l0.036,-0.117l0.037,-0.118l0.038,-0.117l0.038,-0.116l0.039,-0.117l0.039,-0.116l0.041,-0.115l0.041,-0.116l0.042,-0.115l0.042,-0.114l0.043,-0.115l0.044,-0.114l0.044,-0.114l0.091,-0.226l0.094,-0.225l0.096,-0.224l0.099,-0.222l0.101,-0.221l0.104,-0.219l0.107,-0.218l0.109,-0.216l0.112,-0.215l0.114,-0.213l0.117,-0.212l0.119,-0.21l0.121,-0.209l0.124,-0.207l0.127,-0.205l0.129,-0.204l0.131,-0.202l0.134,-0.2l0.136,-0.199l0.138,-0.197l0.14,-0.195l0.143,-0.193l0.145,-0.192l0.148,-0.19l0.149,-0.188l0.152,-0.186l0.154,-0.184l0.156,-0.183l0.158,-0.18l0.161,-0.179l0.162,-0.176l0.165,-0.175l0.166,-0.173l0.169,-0.17l0.171,-0.169l0.172,-0.166l0.175,-0.165l0.176,-0.162l0.179,-0.161l0.18,-0.158l0.183,-0.156l0.184,-0.154l0.186,-0.152l0.188,-0.149l0.19,-0.148l0.192,-0.145l0.193,-0.143l0.195,-0.14l0.197,-0.138l0.199,-0.136l0.2,-0.134l0.202,-0.131l0.204,-0.129l0.205,-0.127l0.207,-0.124l0.209,-0.121l0.21,-0.119l0.212,-0.117l0.213,-0.114l0.215,-0.112l0.216,-0.109l0.218,-0.107l0.219,-0.104l0.221,-0.101l0.222,-0.099l0.224,-0.096l0.225,-0.094l0.227,-0.091l0.113,-0.044l0.114,-0.044l0.115,-0.043l0.114,-0.042l0.115,-0.042l0.116,-0.041l0.115,-0.041l0.116,-0.039l0.117,-0.039l0.116,-0.038l0.117,-0.038l0.118,-0.037l0.117,-0.036l0.118,-0.036l0.118,-0.034l0.119,-0.034l0.119,-0.034l0.119,-0.032l0.119,-0.032l0.12,-0.031l0.12,-0.031l0.12,-0.03l0.12,-0.029l0.121,-0.028l0.121,-0.027l0.122,-0.027l0.121,-0.026l0.122,-0.026l0.122,-0.024l0.123,-0.024l0.123,-0.023l0.123,-0.023l0.123,-0.021l0.123,-0.021l0.124,-0.02l0.124,-0.02l0.124,-0.018l0.125,-0.018l0.125,-0.017l0.125,-0.016l0.125,-0.016l0.125,-0.015l0.126,-0.014l0.126,-0.013l0.126,-0.012l0.127,-0.012l0.126,-0.011l0.127,-0.01l0.127,-0.009l0.128,-0.008l0.127,-0.008l0.128,-0.007l0.128,-0.006l0.128,-0.005l0.128,-0.005l0.129,-0.004l0.129,-0.002l0.129,-0.002l0.129,-0.002l0.129,0l80,0l0.129,0ZM20.003,14.281l-0.12,0l-0.116,0.001l-0.116,0.002l-0.117,0.003l-0.115,0.003l-0.116,0.004l-0.116,0.005l-0.115,0.005l-0.115,0.007l-0.115,0.007l-0.115,0.007l-0.114,0.009l-0.114,0.009l-0.114,0.009l-0.114,0.011l-0.114,0.011l-0.113,0.012l-0.113,0.012l-0.113,0.014l-0.113,0.014l-0.113,0.014l-0.112,0.016l-0.112,0.016l-0.112,0.016l-0.111,0.018l-0.112,0.018l-0.111,0.019l-0.111,0.019l-0.11,0.02l-0.111,0.021l-0.11,0.022l-0.11,0.022l-0.109,0.022l-0.11,0.024l-0.109,0.024l-0.109,0.025l-0.109,0.025l-0.108,0.026l-0.108,0.027l-0.108,0.028l-0.108,0.028l-0.107,0.028l-0.107,0.03l-0.107,0.03l-0.106,0.03l-0.107,0.031l-0.106,0.032l-0.105,0.033l-0.106,0.033l-0.105,0.034l-0.105,0.034l-0.104,0.035l-0.105,0.036l-0.104,0.036l-0.104,0.037l-0.103,0.038l-0.103,0.038l-0.103,0.039l-0.103,0.039l-0.099,0.039l-0.206,0.083l-0.203,0.084l-0.201,0.086l-0.2,0.089l-0.198,0.091l-0.198,0.094l-0.196,0.096l-0.194,0.098l-0.194,0.101l-0.191,0.102l-0.191,0.105l-0.189,0.108l-0.188,0.109l-0.186,0.112l-0.185,0.114l-0.183,0.116l-0.182,0.118l-0.181,0.12l-0.178,0.122l-0.178,0.125l-0.175,0.126l-0.175,0.129l-0.172,0.131l-0.171,0.132l-0.169,0.135l-0.168,0.137l-0.166,0.138l-0.164,0.141l-0.163,0.142l-0.16,0.145l-0.159,0.146l-0.158,0.148l-0.155,0.15l-0.154,0.152l-0.152,0.154l-0.15,0.155l-0.148,0.158l-0.146,0.159l-0.145,0.16l-0.142,0.163l-0.141,0.164l-0.138,0.166l-0.137,0.168l-0.135,0.169l-0.132,0.171l-0.131,0.172l-0.129,0.175l-0.126,0.175l-0.125,0.178l-0.122,0.178l-0.12,0.181l-0.118,0.182l-0.116,0.183l-0.114,0.185l-0.112,0.186l-0.109,0.188l-0.108,0.189l-0.105,0.19l-0.102,0.192l-0.101,0.194l-0.098,0.194l-0.096,0.196l-0.094,0.198l-0.091,0.198l-0.089,0.2l-0.086,0.201l-0.084,0.203l-0.083,0.206l-0.039,0.099l-0.039,0.103l-0.039,0.103l-0.038,0.103l-0.038,0.103l-0.037,0.104l-0.036,0.104l-0.036,0.104l-0.035,0.105l-0.034,0.105l-0.034,0.105l-0.033,0.106l-0.033,0.105l-0.031,0.106l-0.032,0.107l-0.03,0.106l-0.03,0.107l-0.03,0.107l-0.028,0.107l-0.028,0.108l-0.028,0.108l-0.027,0.108l-0.026,0.108l-0.025,0.109l-0.025,0.109l-0.024,0.109l-0.023,0.11l-0.023,0.109l-0.022,0.11l-0.022,0.11l-0.021,0.111l-0.02,0.11l-0.019,0.111l-0.019,0.111l-0.018,0.112l-0.017,0.111l-0.017,0.112l-0.016,0.112l-0.016,0.112l-0.014,0.113l-0.014,0.113l-0.014,0.113l-0.012,0.113l-0.012,0.113l-0.011,0.114l-0.011,0.114l-0.009,0.114l-0.009,0.114l-0.009,0.114l-0.007,0.115l-0.007,0.115l-0.007,0.115l-0.005,0.115l-0.005,0.116l-0.004,0.116l-0.003,0.115l-0.003,0.117l-0.002,0.116l-0.001,0.116l0,0.117l0,0.117l0.001,0.116l0.002,0.116l0.003,0.117l0.003,0.115l0.004,0.116l0.005,0.116l0.005,0.115l0.007,0.115l0.007,0.115l0.007,0.115l0.009,0.114l0.009,0.114l0.009,0.114l0.011,0.114l0.011,0.114l0.012,0.113l0.012,0.113l0.014,0.113l0.014,0.113l0.014,0.113l0.016,0.112l0.016,0.112l0.017,0.112l0.017,0.111l0.018,0.112l0.019,0.111l0.019,0.111l0.02,0.11l0.021,0.111l0.022,0.11l0.022,0.11l0.023,0.109l0.023,0.11l0.024,0.109l0.025,0.109l0.025,0.109l0.026,0.108l0.027,0.108l0.028,0.108l0.028,0.108l0.028,0.107l0.03,0.107l0.03,0.107l0.03,0.106l0.032,0.107l0.031,0.106l0.033,0.105l0.033,0.106l0.034,0.105l0.034,0.105l0.035,0.104l0.036,0.105l0.036,0.104l0.037,0.104l0.038,0.103l0.038,0.103l0.039,0.103l0.039,0.103l0.039,0.099l0.083,0.206l0.084,0.203l0.086,0.201l0.089,0.2l0.091,0.198l0.094,0.198l0.096,0.196l0.098,0.194l0.101,0.194l0.102,0.191l0.105,0.191l0.108,0.189l0.109,0.188l0.112,0.186l0.114,0.185l0.116,0.183l0.118,0.182l0.12,0.181l0.122,0.178l0.125,0.178l0.126,0.175l0.129,0.174l0.131,0.173l0.132,0.171l0.135,0.169l0.137,0.168l0.138,0.166l0.141,0.164l0.142,0.163l0.145,0.16l0.146,0.159l0.148,0.158l0.15,0.155l0.152,0.154l0.154,0.152l0.155,0.15l0.158,0.148l0.159,0.146l0.16,0.145l0.163,0.142l0.164,0.141l0.166,0.138l0.168,0.137l0.169,0.135l0.171,0.132l0.172,0.131l0.175,0.129l0.175,0.126l0.178,0.125l0.178,0.122l0.181,0.12l0.182,0.118l0.183,0.116l0.185,0.114l0.186,0.112l0.188,0.109l0.189,0.108l0.191,0.105l0.191,0.102l0.194,0.101l0.194,0.098l0.196,0.096l0.198,0.094l0.198,0.091l0.2,0.089l0.201,0.086l0.203,0.084l0.206,0.083l0.099,0.039l0.103,0.039l0.103,0.039l0.103,0.038l0.103,0.038l0.104,0.037l0.104,0.036l0.105,0.036l0.104,0.035l0.105,0.034l0.105,0.034l0.106,0.033l0.105,0.033l0.106,0.031l0.107,0.032l0.106,0.03l0.107,0.03l0.107,0.03l0.107,0.028l0.108,0.028l0.108,0.028l0.108,0.027l0.108,0.026l0.109,0.025l0.109,0.025l0.109,0.024l0.11,0.023l0.109,0.023l0.11,0.022l0.11,0.022l0.111,0.021l0.11,0.02l0.111,0.019l0.111,0.019l0.112,0.018l0.111,0.017l0.112,0.017l0.112,0.016l0.112,0.016l0.113,0.014l0.113,0.014l0.113,0.013l0.113,0.013l0.113,0.012l0.114,0.011l0.114,0.011l0.114,0.009l0.114,0.009l0.114,0.009l0.115,0.007l0.115,0.007l0.115,0.006l0.115,0.006l0.116,0.005l0.116,0.004l0.115,0.003l0.117,0.003l0.116,0.001l0.116,0.002l0.12,0l79.994,0l0.12,0l0.116,-0.002l0.116,-0.001l0.117,-0.003l0.115,-0.003l0.116,-0.004l0.116,-0.005l0.115,-0.006l0.115,-0.006l0.115,-0.007l0.115,-0.007l0.114,-0.009l0.114,-0.009l0.114,-0.009l0.114,-0.011l0.114,-0.011l0.113,-0.012l0.113,-0.013l0.113,-0.013l0.113,-0.014l0.113,-0.014l0.112,-0.016l0.112,-0.016l0.112,-0.017l0.111,-0.017l0.112,-0.018l0.111,-0.019l0.111,-0.019l0.11,-0.02l0.111,-0.021l0.11,-0.022l0.11,-0.022l0.109,-0.023l0.11,-0.023l0.109,-0.024l0.109,-0.025l0.109,-0.025l0.108,-0.026l0.108,-0.027l0.108,-0.028l0.108,-0.028l0.107,-0.028l0.107,-0.03l0.107,-0.03l0.106,-0.03l0.107,-0.032l0.106,-0.031l0.105,-0.033l0.106,-0.033l0.105,-0.034l0.105,-0.034l0.104,-0.035l0.105,-0.036l0.104,-0.036l0.104,-0.037l0.103,-0.038l0.103,-0.038l0.103,-0.039l0.103,-0.039l0.099,-0.039l0.206,-0.083l0.203,-0.084l0.201,-0.086l0.2,-0.089l0.198,-0.091l0.198,-0.094l0.196,-0.096l0.194,-0.098l0.194,-0.101l0.191,-0.102l0.191,-0.105l0.189,-0.108l0.188,-0.109l0.186,-0.112l0.185,-0.114l0.183,-0.116l0.182,-0.118l0.181,-0.12l0.178,-0.122l0.178,-0.125l0.175,-0.126l0.174,-0.129l0.173,-0.131l0.171,-0.132l0.169,-0.135l0.168,-0.137l0.166,-0.138l0.164,-0.141l0.163,-0.142l0.16,-0.145l0.159,-0.146l0.158,-0.148l0.155,-0.15l0.154,-0.152l0.152,-0.154l0.15,-0.155l0.148,-0.158l0.146,-0.159l0.145,-0.16l0.142,-0.163l0.141,-0.164l0.138,-0.166l0.137,-0.168l0.135,-0.169l0.132,-0.171l0.131,-0.173l0.129,-0.174l0.126,-0.175l0.125,-0.178l0.122,-0.178l0.12,-0.181l0.118,-0.182l0.116,-0.183l0.114,-0.185l0.112,-0.186l0.109,-0.188l0.108,-0.189l0.105,-0.191l0.102,-0.192l0.101,-0.193l0.098,-0.194l0.096,-0.196l0.094,-0.198l0.091,-0.198l0.089,-0.2l0.086,-0.201l0.084,-0.203l0.083,-0.206l0.039,-0.099l0.039,-0.103l0.039,-0.103l0.038,-0.103l0.038,-0.103l0.037,-0.104l0.036,-0.104l0.036,-0.105l0.035,-0.104l0.034,-0.105l0.034,-0.105l0.033,-0.106l0.033,-0.105l0.032,-0.106l0.031,-0.107l0.03,-0.106l0.03,-0.107l0.03,-0.107l0.028,-0.108l0.028,-0.107l0.028,-0.108l0.027,-0.108l0.026,-0.108l0.025,-0.109l0.025,-0.109l0.024,-0.109l0.023,-0.11l0.023,-0.109l0.022,-0.11l0.022,-0.11l0.021,-0.111l0.02,-0.11l0.019,-0.111l0.019,-0.111l0.018,-0.112l0.017,-0.111l0.017,-0.112l0.016,-0.112l0.016,-0.112l0.014,-0.113l0.014,-0.113l0.014,-0.113l0.012,-0.113l0.012,-0.113l0.011,-0.114l0.011,-0.114l0.009,-0.114l0.009,-0.114l0.009,-0.114l0.007,-0.115l0.007,-0.115l0.007,-0.115l0.005,-0.115l0.005,-0.116l0.004,-0.116l0.003,-0.115l0.003,-0.117l0.002,-0.116l0.001,-0.116l0,-0.117l0,-0.117l-0.001,-0.116l-0.002,-0.117l-0.003,-0.116l-0.003,-0.115l-0.004,-0.116l-0.005,-0.116l-0.005,-0.115l-0.007,-0.115l-0.007,-0.115l-0.007,-0.115l-0.009,-0.114l-0.009,-0.114l-0.009,-0.114l-0.011,-0.114l-0.011,-0.114l-0.012,-0.113l-0.012,-0.113l-0.014,-0.113l-0.014,-0.113l-0.014,-0.113l-0.016,-0.112l-0.016,-0.112l-0.017,-0.112l-0.017,-0.111l-0.018,-0.112l-0.019,-0.111l-0.019,-0.111l-0.02,-0.11l-0.021,-0.111l-0.022,-0.11l-0.022,-0.11l-0.023,-0.109l-0.023,-0.11l-0.024,-0.109l-0.025,-0.109l-0.025,-0.109l-0.026,-0.108l-0.027,-0.108l-0.028,-0.108l-0.028,-0.108l-0.028,-0.107l-0.03,-0.107l-0.03,-0.107l-0.03,-0.106l-0.031,-0.107l-0.032,-0.106l-0.033,-0.105l-0.033,-0.106l-0.034,-0.105l-0.034,-0.105l-0.035,-0.105l-0.036,-0.104l-0.036,-0.104l-0.037,-0.104l-0.038,-0.103l-0.038,-0.103l-0.039,-0.103l-0.039,-0.103l-0.039,-0.099l-0.083,-0.206l-0.084,-0.203l-0.086,-0.201l-0.089,-0.2l-0.091,-0.198l-0.094,-0.198l-0.096,-0.196l-0.098,-0.194l-0.101,-0.194l-0.102,-0.192l-0.105,-0.19l-0.108,-0.189l-0.109,-0.188l-0.112,-0.186l-0.114,-0.185l-0.116,-0.183l-0.118,-0.182l-0.12,-0.181l-0.122,-0.178l-0.125,-0.178l-0.126,-0.175l-0.129,-0.175l-0.131,-0.172l-0.132,-0.171l-0.135,-0.169l-0.137,-0.168l-0.138,-0.166l-0.141,-0.164l-0.142,-0.163l-0.145,-0.16l-0.146,-0.159l-0.148,-0.158l-0.15,-0.155l-0.152,-0.154l-0.154,-0.152l-0.155,-0.15l-0.158,-0.148l-0.159,-0.146l-0.16,-0.145l-0.163,-0.142l-0.164,-0.141l-0.166,-0.138l-0.168,-0.137l-0.169,-0.135l-0.171,-0.132l-0.173,-0.131l-0.174,-0.129l-0.175,-0.126l-0.178,-0.125l-0.178,-0.122l-0.181,-0.12l-0.182,-0.118l-0.183,-0.116l-0.185,-0.114l-0.186,-0.112l-0.188,-0.109l-0.189,-0.108l-0.191,-0.105l-0.191,-0.102l-0.194,-0.101l-0.194,-0.098l-0.196,-0.096l-0.198,-0.094l-0.198,-0.091l-0.2,-0.089l-0.201,-0.086l-0.203,-0.084l-0.206,-0.083l-0.099,-0.039l-0.103,-0.04l-0.103,-0.038l-0.103,-0.038l-0.103,-0.038l-0.104,-0.037l-0.104,-0.036l-0.105,-0.036l-0.104,-0.035l-0.105,-0.034l-0.105,-0.034l-0.106,-0.033l-0.105,-0.033l-0.106,-0.032l-0.107,-0.031l-0.106,-0.03l-0.107,-0.03l-0.107,-0.03l-0.107,-0.028l-0.108,-0.028l-0.108,-0.028l-0.108,-0.027l-0.108,-0.026l-0.109,-0.025l-0.109,-0.025l-0.109,-0.024l-0.11,-0.024l-0.109,-0.022l-0.11,-0.022l-0.11,-0.022l-0.111,-0.021l-0.11,-0.02l-0.111,-0.019l-0.111,-0.019l-0.112,-0.018l-0.111,-0.018l-0.112,-0.016l-0.112,-0.016l-0.112,-0.016l-0.113,-0.014l-0.113,-0.014l-0.113,-0.014l-0.113,-0.012l-0.113,-0.012l-0.114,-0.011l-0.114,-0.011l-0.114,-0.009l-0.114,-0.009l-0.114,-0.009l-0.115,-0.007l-0.115,-0.007l-0.115,-0.007l-0.115,-0.005l-0.116,-0.005l-0.116,-0.004l-0.115,-0.003l-0.117,-0.003l-0.116,-0.002l-0.116,-0.001l-0.12,0l-79.994,0Z" style="fill:#7fadf2;"/><path d="M29.239,19.897l0,9.121l3.909,0c2.058,0 3.283,-0.926 3.283,-2.476c0,-1.251 -0.769,-2.111 -2.085,-2.306c1.069,-0.222 1.681,-0.991 1.681,-2.059c0,-1.433 -1.107,-2.28 -2.945,-2.28l-3.843,0ZM30.281,20.9l2.749,0c1.225,0 1.942,0.521 1.942,1.446c0,0.952 -0.717,1.486 -1.942,1.486l-2.749,0l0,-2.932ZM30.281,24.822l2.749,0c1.486,0 2.346,0.586 2.346,1.577c0,1.042 -0.86,1.628 -2.346,1.628l-2.749,0l0,-3.205Z" style="fill:#5e6b7b;fill-rule:nonzero;"/><path d="M41.135,22.125c-1.994,0 -3.401,1.42 -3.401,3.466c0,2.045 1.394,3.466 3.414,3.466c1.146,0 2.111,-0.417 2.762,-1.147l-0.56,-0.599c-0.534,0.56 -1.277,0.86 -2.124,0.86c-1.329,0 -2.306,-0.847 -2.489,-2.189l5.603,0c0.104,-2.333 -0.99,-3.87 -3.205,-3.857ZM38.737,25.148c0.157,-1.303 1.095,-2.15 2.398,-2.15c1.342,0 2.228,0.834 2.293,2.15l-4.691,0Z" style="fill:#5e6b7b;fill-rule:nonzero;"/><path d="M48.796,22.125c-1.98,0 -3.4,1.42 -3.4,3.466c0,2.045 1.407,3.466 3.4,3.466c1.186,0 2.137,-0.443 2.75,-1.186l-0.587,-0.625c-0.482,0.573 -1.225,0.886 -2.124,0.886c-1.42,0 -2.436,-1.043 -2.436,-2.541c0,-1.499 1.016,-2.528 2.436,-2.528c0.834,0 1.525,0.3 2.046,0.795l0.56,-0.717c-0.625,-0.651 -1.537,-1.029 -2.645,-1.016Z" style="fill:#5e6b7b;fill-rule:nonzero;"/><path d="M55.858,22.125c-2.032,0 -3.479,1.407 -3.479,3.453c0,2.058 1.447,3.479 3.479,3.479c2.033,0 3.479,-1.421 3.479,-3.479c0,-2.046 -1.446,-3.453 -3.479,-3.453ZM55.858,23.05c1.434,0 2.463,1.042 2.463,2.541c0,1.511 -1.029,2.554 -2.463,2.554c-1.433,0 -2.462,-1.043 -2.462,-2.554c0,-1.499 1.029,-2.541 2.462,-2.541Z" style="fill:#5e6b7b;fill-rule:nonzero;"/><path d="M69.917,22.112c-1.316,0.013 -2.28,0.586 -2.71,1.798c-0.286,-1.134 -1.172,-1.798 -2.462,-1.798c-1.238,0.013 -2.163,0.521 -2.619,1.589l0,-1.55l-1.004,0l0,6.867l1.004,0l0,-3.375c0,-1.472 0.847,-2.489 2.254,-2.528c1.198,0 1.902,0.717 1.902,1.942l0,3.961l1.029,0l0,-3.375c0,-1.472 0.821,-2.489 2.242,-2.528c1.185,0 1.902,0.717 1.902,1.942l0,3.961l1.016,0l0,-4.235c0,-1.655 -0.951,-2.671 -2.554,-2.671Z" style="fill:#5e6b7b;fill-rule:nonzero;"/><path d="M77.435,22.125c-1.993,0 -3.4,1.42 -3.4,3.466c0,2.045 1.394,3.466 3.414,3.466c1.146,0 2.11,-0.417 2.762,-1.147l-0.56,-0.599c-0.535,0.56 -1.277,0.86 -2.124,0.86c-1.329,0 -2.307,-0.847 -2.489,-2.189l5.603,0c0.104,-2.333 -0.99,-3.87 -3.206,-3.857ZM75.038,25.148c0.156,-1.303 1.095,-2.15 2.397,-2.15c1.343,0 2.229,0.834 2.294,2.15l-4.691,0Z" style="fill:#5e6b7b;fill-rule:nonzero;"/><path d="M90.218,29.018l0.99,0l-0.013,-4.535c-0.013,-1.472 -0.951,-2.371 -2.645,-2.371c-1.173,0 -1.916,0.339 -2.802,0.925l0.43,0.743c0.717,-0.495 1.421,-0.782 2.176,-0.782c1.212,0 1.838,0.599 1.838,1.603l0,0.403l-2.255,0c-1.615,0.013 -2.566,0.769 -2.566,1.968c0,1.186 0.912,2.098 2.332,2.098c1.094,0 1.967,-0.365 2.515,-1.108l0,1.056ZM87.898,28.184c-0.964,0 -1.576,-0.495 -1.576,-1.251c0,-0.756 0.599,-1.108 1.746,-1.108l2.137,0l0,0.821c-0.261,0.951 -1.147,1.538 -2.307,1.538Z" style="fill:#5e6b7b;fill-rule:nonzero;"/><path d="M33.163,33.341l0,10.914l5.348,0c2.573,0 4.194,-1.17 4.194,-3.025c0,-1.419 -0.873,-2.495 -2.245,-2.76c1.154,-0.327 1.871,-1.247 1.871,-2.401c0,-1.668 -1.559,-2.728 -4.007,-2.728l-5.161,0ZM35.923,35.461l2.245,0c0.811,0 1.325,0.406 1.325,1.107c0,0.702 -0.514,1.138 -1.325,1.138l-2.245,0l0,-2.245ZM35.923,39.702l2.245,0c1.029,0 1.668,0.452 1.668,1.185c0,0.779 -0.639,1.232 -1.668,1.232l-2.245,0l0,-2.417Z" style="fill:#7fadf2;fill-rule:nonzero;"/><path d="M48.068,35.726c-1.403,0 -2.588,0.343 -3.897,0.951l0.764,1.778c0.888,-0.452 1.808,-0.702 2.51,-0.702c1.091,0 1.637,0.499 1.637,1.325l0,0.125l-2.214,0c-2.089,0.016 -3.227,0.951 -3.227,2.541c0,1.544 1.091,2.635 2.884,2.635c1.138,0 2.027,-0.374 2.572,-1.091l0,0.967l2.635,0l0,-5.488c-0.015,-1.903 -1.356,-3.041 -3.664,-3.041ZM47.351,42.555c-0.748,0 -1.185,-0.39 -1.185,-0.998c0,-0.623 0.406,-0.904 1.216,-0.904l1.7,0l0,0.748c-0.172,0.686 -0.889,1.154 -1.731,1.154Z" style="fill:#7fadf2;fill-rule:nonzero;"/><path d="M57.314,35.757c-2.604,0 -4.366,1.731 -4.366,4.319c0,2.557 1.747,4.272 4.335,4.272c1.777,0 3.134,-0.717 3.82,-1.949l-1.965,-1.153c-0.359,0.639 -0.951,0.951 -1.715,0.951c-1.045,0 -1.762,-0.842 -1.762,-2.136c0,-1.263 0.717,-2.121 1.762,-2.121c0.733,0 1.31,0.328 1.699,0.873l1.934,-1.169c-0.733,-1.201 -2.074,-1.887 -3.742,-1.887Z" style="fill:#7fadf2;fill-rule:nonzero;"/><path d="M66.092,41.012l1.824,3.243l3.196,0l-3.181,-5.177l3.087,-3.227l-3.055,0l-2.776,2.947l0,-6.112l-2.697,0l0,11.569l2.697,0l0,-2.292l0.905,-0.951Z" style="fill:#7fadf2;fill-rule:nonzero;"/><path d="M75.477,35.757c-2.603,0 -4.381,1.715 -4.381,4.319c0,2.557 1.715,4.272 4.459,4.272c1.544,0 2.807,-0.546 3.664,-1.481l-1.418,-1.388c-0.562,0.562 -1.279,0.858 -2.012,0.858c-0.998,0 -1.715,-0.561 -1.98,-1.559l5.909,0c0.187,-3.072 -1.278,-5.021 -4.241,-5.021ZM73.762,39.328c0.172,-1.014 0.811,-1.7 1.747,-1.7c0.966,0 1.621,0.671 1.621,1.7l-3.368,0Z" style="fill:#7fadf2;fill-rule:nonzero;"/><path d="M83.881,35.851l-2.697,0l0,8.404l2.697,0l0,-4.319c0.14,-1.185 1.169,-1.918 2.729,-1.778l0,-2.432c-1.201,0.016 -2.152,0.562 -2.729,1.544l0,-1.419Z" style="fill:#7fadf2;fill-rule:nonzero;"/></g></svg>