<?xml version="1.0" standalone="no"?><!DOCTYPE svg PUBLIC "-//W3C//DTD SVG 1.1//EN" "http://www.w3.org/Graphics/SVG/1.1/DTD/svg11.dtd"><svg width="100%" height="100%" viewBox="0 0 223 223" version="1.1" xmlns="http://www.w3.org/2000/svg" xmlns:xlink="http://www.w3.org/1999/xlink" xml:space="preserve" style="fill-rule:evenodd;clip-rule:evenodd;stroke-linejoin:round;stroke-miterlimit:1.41421;"><g><circle cx="111.269" cy="111.269" r="111.269" style="fill:#fff;"/><g><circle cx="111.826" cy="113.715" r="85.781" style="fill:#c2d7ef;fill-opacity:0.3;"/><path id=":: office" d="M49.631,128.801l0,-76.163c0.008,-0.144 0.008,-0.287 0.025,-0.43c0.032,-0.285 0.096,-0.566 0.191,-0.838c0.382,-1.093 1.261,-1.971 2.354,-2.354c0.271,-0.094 0.552,-0.159 0.837,-0.191c0.143,-0.016 0.287,-0.016 0.43,-0.024l122.768,0c0.143,0.008 0.287,0.016 0.43,0.024c0.141,0.024 0.284,0.04 0.424,0.072c0.28,0.064 0.552,0.159 0.811,0.284c0.91,0.438 1.623,1.236 1.956,2.189c0.095,0.272 0.159,0.553 0.192,0.838c0.016,0.143 0.016,0.286 0.024,0.43l0,76.933c-0.003,0.048 -0.005,0.096 -0.007,0.144l14.285,20.696c0.08,0.132 0.168,0.26 0.24,0.397c0.215,0.41 0.355,0.86 0.411,1.32c0.011,0.086 0.018,0.172 0.022,0.258c0.041,0.083 0.079,0.168 0.114,0.254c0.171,0.421 0.257,0.863 0.279,1.317c0.055,3.462 0.16,6.93 -0.006,10.389c-0.046,0.576 -0.201,1.131 -0.486,1.637c-0.095,0.168 -0.202,0.329 -0.321,0.481l-0.001,0.001l0,0l-0.005,0.006l-0.01,0.013l-0.006,0.008l-0.003,0.003l-0.002,0.003l-0.007,0.008l-0.01,0.013l-0.003,0.004l-0.002,0.002l-0.005,0.006l-0.012,0.014l-0.004,0.006l-0.001,0l-0.001,0.001l-0.008,0.011l-0.013,0.014l0,0.001l0,0c-0.007,0.008 -0.013,0.016 -0.02,0.023l-0.002,0.003l-0.004,0.005l-0.005,0.005l-0.008,0.01l-0.006,0.006l-0.01,0.012l-0.006,0.006l-0.001,0.001c-0.063,0.072 -0.129,0.14 -0.198,0.207c-0.052,0.051 -0.106,0.1 -0.161,0.147l-0.011,0.009l-0.004,0.004l0,0l-0.001,0.001c-0.199,0.169 -0.414,0.319 -0.644,0.445c-0.422,0.232 -0.888,0.384 -1.367,0.444c-0.159,0.02 -0.32,0.02 -0.481,0.03l-153.39,0c-0.026,-0.001 -0.052,-0.003 -0.078,-0.004c-0.444,0.001 -0.891,-0.075 -1.317,-0.232c-0.424,-0.156 -0.819,-0.386 -1.162,-0.679c-0.375,-0.319 -0.687,-0.71 -0.915,-1.147c-0.268,-0.514 -0.405,-1.074 -0.433,-1.651c-0.055,-3.428 -0.158,-6.862 0.001,-10.286c-0.215,-0.568 -0.298,-1.188 -0.223,-1.809c0.056,-0.46 0.196,-0.91 0.411,-1.32c0.072,-0.137 0.16,-0.265 0.24,-0.397l14.915,-21.61ZM42,156.427c0.023,1.279 0.041,2.558 0.04,3.836l145.64,0c-0.017,-1.279 -0.024,-2.558 -0.005,-3.836l-145.675,0ZM55.775,133.408l-10.592,15.346l138.701,0l-10.592,-15.346c-39.172,0 -78.345,0 -117.517,0ZM172.4,56.474l-115.096,0l0,69.261l115.096,0l0,-69.261Z" style="fill:#7faff5;"/><rect x="56.268" y="55.93" width="118.429" height="73.288" style="fill:#fff;stroke-width:6px;stroke:#7faff5;"/><path id=":: engeneering" d="M123.59,68.614c0.155,0.026 0.299,0.059 0.442,0.126c0.471,0.223 0.788,0.7 0.812,1.22c0.007,0.154 -0.011,0.309 -0.054,0.457c-0.014,0.049 -0.034,0.097 -0.05,0.145l-17.186,42.068c-0.022,0.047 -0.042,0.094 -0.066,0.14c-0.098,0.18 -0.235,0.339 -0.4,0.462c-0.123,0.092 -0.261,0.164 -0.408,0.212c-0.546,0.179 -1.164,0.001 -1.532,-0.44c-0.099,-0.119 -0.178,-0.253 -0.234,-0.396c-0.093,-0.24 -0.119,-0.504 -0.076,-0.757c0.024,-0.135 0.04,-0.166 0.085,-0.295l17.186,-42.069c0.058,-0.123 0.068,-0.157 0.146,-0.27c0.176,-0.254 0.434,-0.447 0.727,-0.543c0.151,-0.049 0.298,-0.063 0.455,-0.07c0.051,0.003 0.102,0.006 0.153,0.01ZM123.904,106.159c0.189,0.004 0.376,0.044 0.549,0.121c0.153,0.067 0.294,0.162 0.414,0.278c0.362,0.349 0.513,0.878 0.392,1.366c-0.034,0.136 -0.088,0.266 -0.161,0.387c-0.091,0.153 -0.212,0.286 -0.353,0.396c-0.187,0.142 -0.377,0.301 -0.581,0.429c-0.148,0.089 -0.31,0.153 -0.48,0.186c-0.55,0.105 -1.125,-0.133 -1.44,-0.596c-0.088,-0.129 -0.154,-0.273 -0.196,-0.424c-0.046,-0.166 -0.061,-0.341 -0.044,-0.513c0.018,-0.182 0.071,-0.361 0.156,-0.523c0.093,-0.178 0.224,-0.332 0.38,-0.457c0.193,-0.15 0.386,-0.308 0.594,-0.439c0.195,-0.118 0.413,-0.189 0.64,-0.207c0.043,-0.003 0.086,-0.004 0.13,-0.004ZM101.994,75.601c0.042,0.005 0.084,0.008 0.126,0.015c0.168,0.028 0.331,0.086 0.478,0.171c0.488,0.281 0.768,0.841 0.701,1.4c-0.016,0.127 -0.048,0.251 -0.096,0.369c-0.065,0.158 -0.158,0.303 -0.273,0.428c-0.078,0.083 -0.102,0.099 -0.19,0.17l-15.855,11.892l0,1.678l17.3,12.975c0.033,0.027 0.067,0.052 0.099,0.081c0.126,0.114 0.232,0.25 0.31,0.401c0.079,0.151 0.129,0.316 0.15,0.485c0.067,0.559 -0.213,1.119 -0.701,1.4c-0.147,0.085 -0.31,0.143 -0.478,0.171c-0.294,0.049 -0.601,0.003 -0.868,-0.131c-0.101,-0.051 -0.123,-0.07 -0.217,-0.134l-18.437,-13.828l0,-4.519l16.992,-12.744c0.094,-0.064 0.116,-0.083 0.217,-0.134c0.152,-0.076 0.318,-0.124 0.487,-0.142c0.042,-0.005 0.085,-0.005 0.127,-0.008c0.043,0.001 0.085,0.003 0.128,0.004ZM126.891,74.923c0.112,0.017 0.141,0.018 0.25,0.05c0.167,0.048 0.311,0.129 0.454,0.227l17.9,13.425l0,4.519l-17.311,12.984c-0.036,0.024 -0.07,0.05 -0.106,0.072c-0.145,0.09 -0.305,0.153 -0.472,0.186c-0.167,0.032 -0.34,0.035 -0.507,0.007c-0.556,-0.092 -1.015,-0.517 -1.148,-1.064c-0.041,-0.166 -0.051,-0.338 -0.031,-0.507c0.036,-0.296 0.166,-0.578 0.369,-0.797c0.077,-0.083 0.102,-0.098 0.189,-0.17l16.176,-12.131l0,-1.678l-16.764,-12.573c-0.033,-0.027 -0.067,-0.053 -0.099,-0.081c-0.126,-0.114 -0.232,-0.25 -0.31,-0.402c-0.079,-0.151 -0.129,-0.315 -0.15,-0.484c-0.067,-0.559 0.213,-1.119 0.701,-1.4c0.147,-0.085 0.31,-0.144 0.478,-0.171c0.112,-0.019 0.14,-0.016 0.254,-0.019c0.042,0.002 0.084,0.005 0.127,0.007ZM106.146,72.423c0.185,0.005 0.368,0.043 0.539,0.117c0.561,0.243 0.91,0.837 0.849,1.446c-0.016,0.163 -0.061,0.323 -0.132,0.471c-0.083,0.174 -0.202,0.328 -0.346,0.456c-0.291,0.251 -0.609,0.471 -0.921,0.695c-0.147,0.101 -0.31,0.177 -0.484,0.219c-0.564,0.137 -1.171,-0.094 -1.502,-0.572c-0.093,-0.134 -0.163,-0.285 -0.205,-0.443c-0.044,-0.166 -0.058,-0.339 -0.041,-0.509c0.019,-0.184 0.074,-0.364 0.161,-0.527c0.095,-0.177 0.226,-0.33 0.383,-0.454c0.299,-0.227 0.592,-0.471 0.909,-0.676c0.182,-0.115 0.384,-0.187 0.598,-0.214c0.064,-0.007 0.127,-0.01 0.192,-0.009Z" style="fill:#7190b7;stroke-width:1px;stroke:#7190b7;"/><path d="M149.699,202.627c1.657,-0.708 3.574,0.058 4.288,1.712c0.135,0.309 0.222,0.512 0.222,0.512c0.066,0.167 0.087,0.207 0.137,0.379c0.075,0.258 0.119,0.526 0.129,0.794c0.02,0.538 -0.094,1.078 -0.331,1.562c-0.207,0.422 -0.505,0.799 -0.87,1.096c-0.156,0.128 -0.324,0.241 -0.501,0.337c-0.157,0.086 -0.2,0.1 -0.364,0.171c-0.064,0.023 -0.127,0.046 -0.19,0.068c-0.172,0.051 -0.214,0.067 -0.39,0.101c-0.198,0.039 -0.399,0.059 -0.601,0.06c-0.47,0.004 -0.94,-0.096 -1.369,-0.29c-0.429,-0.193 -0.814,-0.48 -1.123,-0.835c-0.132,-0.152 -0.25,-0.317 -0.352,-0.491c-0.091,-0.154 -0.106,-0.197 -0.182,-0.359c0,0 -0.088,-0.204 -0.222,-0.514c-0.345,-0.799 -0.357,-1.701 -0.035,-2.509c0.323,-0.807 0.954,-1.453 1.753,-1.794c0.001,0 0.001,0 0.001,0ZM71.75,202.424c0.067,-0.17 0.201,-0.305 0.371,-0.374c0.17,-0.069 0.36,-0.066 0.527,0.009c1.776,0.789 3.58,1.526 5.409,2.21l-0.226,0.57c-0.027,0.062 -0.052,0.124 -0.08,0.185c-0.057,0.122 -0.122,0.24 -0.194,0.354c-0.251,0.398 -0.588,0.74 -0.983,0.996c-0.281,0.183 -0.591,0.323 -0.915,0.412c-0.324,0.089 -0.661,0.128 -0.997,0.115c-0.878,-0.034 -1.721,-0.431 -2.308,-1.085c-0.224,-0.251 -0.409,-0.535 -0.547,-0.842c-0.166,-0.367 -0.262,-0.765 -0.284,-1.168c-0.018,-0.336 0.017,-0.674 0.101,-0.999c0.045,-0.173 0.065,-0.214 0.126,-0.382c0,0 0,-0.001 0,-0.001ZM18.252,149.138c0.814,-0.351 1.734,-0.362 2.555,-0.03c0.822,0.332 1.476,0.978 1.818,1.796c0,0 0,0.001 0.001,0.002c0.681,1.629 -0.076,3.502 -1.697,4.202c-1.62,0.7 -3.298,1.424 -3.298,1.424c-0.062,0.025 -0.124,0.052 -0.187,0.074c-0.127,0.046 -0.256,0.084 -0.387,0.113c-0.459,0.104 -0.939,0.107 -1.4,0.01c-0.328,-0.07 -0.646,-0.19 -0.938,-0.356c-0.292,-0.166 -0.558,-0.377 -0.786,-0.624c-0.597,-0.645 -0.913,-1.522 -0.865,-2.399c0.018,-0.336 0.089,-0.668 0.208,-0.982c0.143,-0.377 0.356,-0.727 0.626,-1.027c0.224,-0.25 0.487,-0.464 0.777,-0.634c0.155,-0.091 0.197,-0.107 0.36,-0.182c0,0 1.613,-0.697 3.213,-1.387ZM201.848,148.874c0.319,-0.813 0.948,-1.466 1.749,-1.814c0.802,-0.348 1.708,-0.363 2.52,-0.04c1.164,0.461 2.208,0.875 2.208,0.875c0.164,0.071 0.207,0.086 0.365,0.172c0.235,0.129 0.455,0.287 0.652,0.47c0.395,0.366 0.696,0.829 0.87,1.338c0.153,0.445 0.208,0.922 0.161,1.39c-0.021,0.201 -0.059,0.399 -0.116,0.593c-0.051,0.172 -0.071,0.212 -0.137,0.378c-0.029,0.061 -0.058,0.122 -0.086,0.183c-0.086,0.157 -0.104,0.198 -0.204,0.347c-0.113,0.167 -0.241,0.324 -0.383,0.467c-0.33,0.335 -0.733,0.597 -1.173,0.763c-0.44,0.167 -0.916,0.236 -1.385,0.204c-0.201,-0.015 -0.401,-0.047 -0.596,-0.098c-0.173,-0.045 -0.214,-0.064 -0.383,-0.125c0,0 -1.061,-0.422 -2.233,-0.887c-1.665,-0.662 -2.483,-2.544 -1.83,-4.213c0.001,-0.001 0.001,-0.002 0.001,-0.003ZM22.204,77.548c-0.671,1.659 -2.554,2.465 -4.217,1.804c-1.818,-0.721 -3.774,-1.497 -3.774,-1.497c-0.061,-0.027 -0.124,-0.052 -0.185,-0.081c-0.121,-0.057 -0.239,-0.121 -0.353,-0.193c-0.398,-0.251 -0.74,-0.588 -0.997,-0.983c-0.183,-0.282 -0.322,-0.591 -0.412,-0.915c-0.089,-0.324 -0.128,-0.662 -0.115,-0.997c0.035,-0.878 0.431,-1.722 1.086,-2.308c0.25,-0.224 0.535,-0.41 0.841,-0.548c0.368,-0.165 0.766,-0.262 1.169,-0.283c0.335,-0.018 0.673,0.016 0.998,0.101c0.174,0.045 0.215,0.064 0.383,0.125c0,0 1.929,0.766 3.742,1.486c0.814,0.324 1.465,0.958 1.809,1.763c0.345,0.805 0.354,1.714 0.025,2.525c0,0.001 0,0.001 0,0.001ZM200.04,74.246c-0.353,-0.787 -0.375,-1.681 -0.063,-2.484c0.312,-0.804 0.933,-1.448 1.725,-1.789c1.859,-0.804 3.88,-1.676 3.88,-1.676c0.166,-0.066 0.207,-0.086 0.379,-0.136c0.258,-0.076 0.525,-0.119 0.794,-0.129c0.537,-0.021 1.078,0.094 1.561,0.33c0.423,0.207 0.799,0.506 1.097,0.87c0.127,0.156 0.24,0.324 0.337,0.501c0.085,0.157 0.1,0.2 0.17,0.365c0.023,0.063 0.046,0.126 0.069,0.189c0.05,0.172 0.067,0.214 0.101,0.39c0.038,0.198 0.058,0.4 0.06,0.601c0.003,0.471 -0.097,0.941 -0.29,1.37c-0.194,0.428 -0.481,0.814 -0.836,1.122c-0.152,0.133 -0.316,0.251 -0.49,0.353c-0.155,0.09 -0.197,0.106 -0.36,0.182c0,0 -1.962,0.847 -3.785,1.633c-1.668,0.72 -3.605,-0.034 -4.349,-1.691c0,-0.001 0,-0.001 0,-0.001ZM73.101,25.171c-0.791,0.347 -1.689,0.364 -2.493,0.047c-0.805,-0.316 -1.45,-0.941 -1.792,-1.735c-1.105,-2.558 -2.503,-5.796 -2.503,-5.796c-0.024,-0.063 -0.051,-0.125 -0.074,-0.188c-0.045,-0.126 -0.083,-0.255 -0.113,-0.386c-0.104,-0.46 -0.107,-0.94 -0.009,-1.4c0.069,-0.329 0.19,-0.647 0.356,-0.939c0.166,-0.292 0.377,-0.558 0.623,-0.786c0.646,-0.597 1.522,-0.912 2.4,-0.864c0.335,0.018 0.668,0.088 0.982,0.207c0.377,0.143 0.726,0.357 1.026,0.626c0.25,0.225 0.465,0.488 0.635,0.778c0.091,0.154 0.106,0.197 0.182,0.359c0,0 1.385,3.21 2.484,5.755c0.717,1.663 -0.043,3.594 -1.702,4.322c-0.001,-0.001 -0.001,0 -0.002,0ZM146.411,23.47c-0.824,-0.317 -1.488,-0.951 -1.843,-1.76c-0.355,-0.809 -0.371,-1.727 -0.045,-2.548c0.742,-1.87 1.538,-3.874 1.538,-3.874c0.071,-0.164 0.085,-0.207 0.171,-0.364c0.129,-0.236 0.287,-0.455 0.47,-0.652c0.366,-0.395 0.829,-0.696 1.338,-0.871c0.445,-0.152 0.922,-0.208 1.39,-0.16c0.201,0.02 0.4,0.059 0.593,0.116c0.172,0.05 0.212,0.071 0.379,0.137c0.06,0.028 0.121,0.057 0.182,0.086c0.157,0.086 0.199,0.104 0.347,0.204c0.167,0.113 0.324,0.241 0.467,0.382c0.335,0.331 0.597,0.733 0.764,1.174c0.166,0.44 0.236,0.915 0.203,1.385c-0.014,0.201 -0.047,0.4 -0.098,0.595c-0.045,0.174 -0.064,0.215 -0.125,0.383c0,0 -0.82,2.064 -1.566,3.944c-0.654,1.645 -2.51,2.458 -4.162,1.823c-0.001,0 -0.002,0 -0.003,0Z" style="fill:#facfe2;"/></g></g></svg>