<?xml version="1.0" encoding="utf-8"?>
<!-- Generator: Adobe Illustrator 19.0.0, SVG Export Plug-In . SVG Version: 6.00 Build 0)  -->
<svg version="1.1" id="Layer_1" xmlns="http://www.w3.org/2000/svg" xmlns:xlink="http://www.w3.org/1999/xlink" x="0px" y="0px"
     viewBox="0 0 163.5 163.5" enable-background="new 0 0 163.5 163.5" xml:space="preserve">
<rect id="XMLID_21_" x="0" y="0" fill="#84ABDA" width="163.5" height="163.5"/>
<g id="XMLID_19_">
    <path id="XMLID_20_" fill="#4675B9" d="M45.8,68.7c-2.8,0-5-2.2-5-5c0-4.1-3.4-7.5-7.5-7.5s-7.5,3.4-7.5,7.5c0,2.8-2.2,5-5,5
        s-5-2.2-5-5c0-9.6,7.9-17.5,17.5-17.5s17.5,7.9,17.5,17.5C50.8,66.5,48.5,68.7,45.8,68.7z"/>
</g>
<g id="XMLID_16_">
    <path id="XMLID_18_" fill="#4675B9" d="M142.7,68.7c-2.8,0-5-2.2-5-5c0-4.1-3.4-7.5-7.5-7.5s-7.5,3.4-7.5,7.5c0,2.8-2.2,5-5,5
        s-5-2.2-5-5c0-9.6,7.9-17.5,17.5-17.5s17.5,7.9,17.5,17.5C147.7,66.5,145.4,68.7,142.7,68.7z"/>
</g>
<g id="XMLID_15_">
    <path id="XMLID_17_" fill="#4675B9" d="M121.9,86.8c0,22.2-18,40.2-40.2,40.2s-40.2-18-40.2-40.2H121.9z"/>
</g>
</svg>
