<?xml version="1.0" encoding="UTF-8" standalone="no"?><!DOCTYPE svg PUBLIC "-//W3C//DTD SVG 1.1//EN" "http://www.w3.org/Graphics/SVG/1.1/DTD/svg11.dtd"><svg width="100%" height="100%" viewBox="0 0 238 213" version="1.1" xmlns="http://www.w3.org/2000/svg" xmlns:xlink="http://www.w3.org/1999/xlink" xml:space="preserve" style="fill-rule:evenodd;clip-rule:evenodd;stroke-linecap:round;stroke-linejoin:round;stroke-miterlimit:10;"><g><path d="M208.675,22.626l0.161,0.006l0.161,0.01l0.159,0.014l0.159,0.018l0.159,0.022l0.158,0.025l0.155,0.029l0.156,0.034l0.156,0.037l0.153,0.04l0.152,0.044l0.152,0.049l0.15,0.051l0.148,0.055l0.147,0.059l0.146,0.063l0.144,0.066l0.143,0.069l0.141,0.073l0.139,0.077l0.137,0.08l0.136,0.083l0.133,0.086l0.132,0.091l0.13,0.093l0.127,0.097l0.125,0.1l0.122,0.102l0.121,0.107l0.118,0.11l0.115,0.112l0.112,0.115l0.111,0.119l0.106,0.121l0.103,0.122l0.1,0.125l0.096,0.127l0.094,0.13l0.09,0.132l0.087,0.133l0.083,0.135l0.08,0.137l0.076,0.139l0.073,0.142l0.07,0.143l0.066,0.143l0.062,0.146l0.059,0.147l0.056,0.149l0.051,0.15l0.048,0.151l0.044,0.153l0.041,0.153l0.037,0.155l0.033,0.156l0.029,0.156l0.026,0.157l0.022,0.16l0.017,0.158l0.014,0.16l0.01,0.16l0.006,0.161l0.002,0.146l0,111.821l-0.002,0.147l-0.006,0.16l-0.01,0.16l-0.014,0.16l-0.017,0.158l-0.022,0.16l-0.026,0.157l-0.029,0.156l-0.033,0.156l-0.037,0.155l-0.041,0.153l-0.044,0.153l-0.048,0.151l-0.051,0.15l-0.056,0.149l-0.059,0.147l-0.062,0.146l-0.066,0.144l-0.07,0.142l-0.073,0.141l-0.076,0.14l-0.08,0.137l-0.083,0.135l-0.087,0.133l-0.09,0.132l-0.094,0.13l-0.096,0.127l-0.1,0.125l-0.103,0.122l-0.106,0.121l-0.111,0.119l-0.112,0.115l-0.115,0.112l-0.118,0.11l-0.121,0.107l-0.122,0.102l-0.125,0.1l-0.128,0.097l-0.13,0.094l-0.131,0.089l-0.133,0.087l-0.136,0.083l-0.137,0.08l-0.139,0.077l-0.141,0.073l-0.143,0.069l-0.144,0.066l-0.146,0.063l-0.147,0.059l-0.148,0.055l-0.151,0.052l-0.151,0.048l-0.152,0.044l-0.154,0.041l-0.154,0.036l-0.156,0.033l-0.156,0.03l-0.158,0.025l-0.159,0.022l-0.159,0.018l-0.16,0.014l-0.16,0.01l-0.161,0.006l-0.146,0.001l-179.419,0l-0.147,-0.001l-0.161,-0.006l-0.16,-0.01l-0.16,-0.014l-0.158,-0.018l-0.16,-0.022l-0.157,-0.025l-0.156,-0.029l-0.156,-0.034l-0.154,-0.036l-0.154,-0.041l-0.153,-0.044l-0.15,-0.048l-0.151,-0.052l-0.149,-0.055l-0.147,-0.059l-0.146,-0.063l-0.144,-0.066l-0.142,-0.069l-0.141,-0.073l-0.14,-0.077l-0.137,-0.08l-0.135,-0.083l-0.134,-0.087l-0.13,-0.089l-0.13,-0.094l-0.128,-0.097l-0.125,-0.1l-0.122,-0.102l-0.121,-0.107l-0.119,-0.11l-0.115,-0.112l-0.112,-0.115l-0.11,-0.119l-0.107,-0.121l-0.102,-0.122l-0.1,-0.125l-0.097,-0.128l-0.094,-0.129l-0.089,-0.131l-0.087,-0.134l-0.083,-0.135l-0.08,-0.137l-0.077,-0.14l-0.073,-0.141l-0.069,-0.142l-0.066,-0.144l-0.063,-0.146l-0.059,-0.147l-0.055,-0.149l-0.052,-0.151l-0.047,-0.15l-0.045,-0.153l-0.041,-0.154l-0.036,-0.153l-0.033,-0.156l-0.03,-0.157l-0.025,-0.157l-0.022,-0.16l-0.018,-0.158l-0.014,-0.16l-0.009,-0.16l-0.007,-0.161l-0.001,-0.147l0,-111.819l0.001,-0.146l0.007,-0.162l0.009,-0.16l0.014,-0.16l0.018,-0.158l0.022,-0.16l0.025,-0.157l0.03,-0.157l0.033,-0.156l0.037,-0.154l0.04,-0.153l0.045,-0.153l0.047,-0.15l0.052,-0.151l0.055,-0.149l0.059,-0.147l0.063,-0.146l0.066,-0.143l0.069,-0.143l0.073,-0.142l0.077,-0.139l0.08,-0.137l0.083,-0.135l0.087,-0.134l0.09,-0.131l0.093,-0.129l0.097,-0.128l0.1,-0.125l0.102,-0.122l0.107,-0.121l0.11,-0.119l0.112,-0.115l0.115,-0.112l0.119,-0.11l0.121,-0.107l0.122,-0.102l0.125,-0.1l0.127,-0.097l0.13,-0.093l0.132,-0.091l0.133,-0.086l0.135,-0.083l0.138,-0.08l0.139,-0.077l0.141,-0.073l0.142,-0.069l0.144,-0.066l0.146,-0.063l0.147,-0.059l0.149,-0.055l0.15,-0.051l0.151,-0.049l0.153,-0.044l0.153,-0.04l0.155,-0.037l0.156,-0.034l0.156,-0.029l0.157,-0.025l0.16,-0.022l0.158,-0.018l0.159,-0.014l0.161,-0.01l0.161,-0.006l0.146,-0.001l179.421,0l0.145,0.001ZM29.14,27.625l-0.053,0l-0.037,0.002l-0.036,0.002l-0.038,0.003l-0.037,0.004l-0.035,0.005l-0.037,0.006l-0.037,0.007l-0.036,0.008l-0.034,0.008l-0.036,0.009l-0.036,0.011l-0.034,0.011l-0.035,0.012l-0.034,0.012l-0.034,0.014l-0.034,0.014l-0.033,0.016l-0.033,0.016l-0.033,0.017l-0.032,0.017l-0.031,0.019l-0.032,0.019l-0.031,0.02l-0.03,0.021l-0.029,0.021l-0.03,0.022l-0.029,0.023l-0.028,0.025l-0.028,0.024l-0.027,0.025l-0.027,0.026l-0.026,0.027l-0.025,0.027l-0.024,0.028l-0.025,0.028l-0.023,0.029l-0.022,0.029l-0.021,0.03l-0.021,0.031l-0.02,0.03l-0.019,0.032l-0.019,0.032l-0.018,0.032l-0.016,0.032l-0.016,0.033l-0.016,0.033l-0.014,0.034l-0.014,0.034l-0.012,0.034l-0.012,0.034l-0.011,0.035l-0.011,0.036l-0.009,0.035l-0.009,0.036l-0.007,0.036l-0.007,0.036l-0.006,0.037l-0.005,0.035l-0.004,0.037l-0.003,0.037l-0.002,0.037l-0.002,0.037l0,0.052l0,111.761l0,0.052l0.002,0.037l0.002,0.037l0.003,0.037l0.004,0.037l0.005,0.035l0.006,0.037l0.007,0.036l0.008,0.036l0.008,0.036l0.009,0.035l0.011,0.036l0.011,0.035l0.012,0.034l0.012,0.034l0.014,0.035l0.014,0.033l0.016,0.033l0.016,0.033l0.017,0.033l0.017,0.031l0.019,0.032l0.019,0.032l0.02,0.03l0.021,0.032l0.021,0.029l0.022,0.029l0.023,0.029l0.025,0.029l0.024,0.027l0.025,0.027l0.026,0.027l0.027,0.026l0.027,0.025l0.028,0.024l0.028,0.025l0.029,0.023l0.029,0.022l0.03,0.021l0.031,0.021l0.03,0.02l0.032,0.019l0.032,0.019l0.031,0.018l0.033,0.016l0.033,0.016l0.033,0.016l0.034,0.014l0.034,0.014l0.034,0.012l0.034,0.012l0.035,0.011l0.036,0.011l0.035,0.009l0.036,0.009l0.036,0.007l0.036,0.007l0.037,0.006l0.035,0.005l0.037,0.004l0.037,0.003l0.037,0.002l0.037,0.002l0.052,0l179.36,0l0.052,0l0.037,-0.002l0.038,-0.002l0.036,-0.003l0.037,-0.004l0.036,-0.005l0.037,-0.006l0.036,-0.007l0.035,-0.007l0.037,-0.009l0.035,-0.009l0.035,-0.011l0.036,-0.011l0.034,-0.012l0.034,-0.012l0.034,-0.014l0.033,-0.014l0.034,-0.016l0.033,-0.016l0.032,-0.016l0.032,-0.018l0.032,-0.019l0.031,-0.019l0.031,-0.02l0.031,-0.021l0.029,-0.021l0.029,-0.022l0.029,-0.023l0.029,-0.025l0.028,-0.024l0.026,-0.025l0.027,-0.026l0.027,-0.027l0.025,-0.027l0.024,-0.027l0.024,-0.029l0.024,-0.029l0.022,-0.03l0.021,-0.028l0.02,-0.031l0.021,-0.031l0.019,-0.032l0.019,-0.032l0.017,-0.031l0.017,-0.033l0.016,-0.033l0.015,-0.033l0.015,-0.033l0.013,-0.035l0.013,-0.034l0.012,-0.035l0.011,-0.034l0.01,-0.036l0.01,-0.036l0.008,-0.034l0.008,-0.036l0.006,-0.037l0.006,-0.037l0.005,-0.035l0.004,-0.037l0.004,-0.037l0.002,-0.037l0.001,-0.038l0.001,-0.052l0,-111.759l-0.001,-0.052l-0.001,-0.038l-0.002,-0.037l-0.004,-0.037l-0.004,-0.037l-0.005,-0.035l-0.006,-0.037l-0.006,-0.037l-0.008,-0.035l-0.008,-0.035l-0.01,-0.036l-0.01,-0.036l-0.011,-0.034l-0.012,-0.035l-0.013,-0.034l-0.013,-0.034l-0.015,-0.034l-0.015,-0.033l-0.016,-0.033l-0.017,-0.032l-0.017,-0.032l-0.019,-0.032l-0.02,-0.032l-0.02,-0.031l-0.02,-0.03l-0.021,-0.029l-0.022,-0.03l-0.024,-0.029l-0.024,-0.028l-0.024,-0.028l-0.025,-0.027l-0.027,-0.027l-0.027,-0.026l-0.026,-0.025l-0.028,-0.024l-0.029,-0.025l-0.029,-0.023l-0.029,-0.022l-0.03,-0.021l-0.029,-0.021l-0.032,-0.02l-0.031,-0.019l-0.031,-0.019l-0.033,-0.018l-0.032,-0.016l-0.033,-0.016l-0.034,-0.016l-0.033,-0.014l-0.034,-0.014l-0.034,-0.012l-0.035,-0.012l-0.035,-0.011l-0.035,-0.011l-0.036,-0.009l-0.035,-0.008l-0.036,-0.008l-0.036,-0.007l-0.037,-0.006l-0.036,-0.005l-0.037,-0.004l-0.037,-0.003l-0.037,-0.002l-0.037,-0.002l-0.053,0l-179.358,0Z" style="fill:#7faff5;"/><path d="M118.102,84.821c-0.193,0.121 -0.438,0.121 -0.631,0c-5.395,-3.394 -78.363,-49.301 -90.608,-57.006c-0.224,-0.14 -0.327,-0.411 -0.254,-0.665c0.073,-0.254 0.305,-0.428 0.569,-0.428c18.9,0 162.317,0 181.217,0c0.264,0 0.496,0.174 0.569,0.428c0.073,0.254 -0.031,0.525 -0.254,0.665c-12.246,7.705 -85.213,53.612 -90.608,57.006Z" style="fill:#fff;"/><path d="M208.521,24.224l0.128,0.008l0.128,0.013l0.124,0.018l0.123,0.023l0.122,0.028l0.122,0.033l0.12,0.038l0.117,0.042l0.115,0.048l0.111,0.05l0.108,0.055l0.107,0.059l0.107,0.065l0.104,0.069l0.096,0.069l0.097,0.076l0.094,0.08l0.088,0.081l0.089,0.088l0.085,0.092l0.079,0.093l0.076,0.096l0.072,0.099l0.069,0.104l0.067,0.109l0.06,0.109l0.057,0.113l0.053,0.118l0.047,0.116l0.041,0.116l0.039,0.123l0.034,0.128l0.027,0.122l0.022,0.124l0.018,0.129l0.012,0.123l0.007,0.123l0.001,0.128l-0.003,0.125l-0.008,0.122l-0.013,0.122l-0.018,0.122l-0.023,0.123l-0.028,0.122l-0.032,0.117l-0.036,0.114l-0.042,0.117l-0.045,0.112l-0.051,0.113l-0.055,0.11l-0.058,0.107l-0.064,0.105l-0.068,0.103l-0.072,0.101l-0.076,0.097l-0.081,0.096l-0.085,0.092l-0.089,0.09l-0.092,0.085l-0.097,0.083l-0.098,0.076l-0.103,0.074l-0.087,0.058l-90.651,57.032l-0.073,0.044l-0.094,0.053l-0.103,0.052l-0.119,0.056l-0.18,0.073l-0.207,0.067l-0.208,0.051l-0.215,0.038l-0.214,0.022l-0.213,0.008l-0.212,-0.008l-0.214,-0.022l-0.215,-0.038l-0.207,-0.051l-0.208,-0.067l-0.181,-0.073l-0.118,-0.056l-0.102,-0.051l-0.095,-0.054l-0.075,-0.045l-90.649,-57.031l-0.086,-0.057l-0.102,-0.073l-0.102,-0.08l-0.097,-0.083l-0.09,-0.083l-0.09,-0.09l-0.084,-0.092l-0.079,-0.093l-0.078,-0.1l-0.072,-0.101l-0.068,-0.103l-0.064,-0.105l-0.059,-0.107l-0.055,-0.11l-0.05,-0.113l-0.045,-0.112l-0.041,-0.113l-0.038,-0.121l-0.032,-0.118l-0.027,-0.118l-0.023,-0.123l-0.018,-0.118l-0.013,-0.126l-0.008,-0.125l-0.004,-0.122l0.002,-0.124l0.007,-0.127l0.012,-0.127l0.018,-0.125l0.022,-0.124l0.027,-0.122l0.034,-0.128l0.037,-0.119l0.043,-0.12l0.048,-0.119l0.052,-0.115l0.057,-0.113l0.06,-0.109l0.065,-0.107l0.071,-0.106l0.072,-0.099l0.075,-0.096l0.082,-0.095l0.083,-0.09l0.089,-0.088l0.088,-0.081l0.092,-0.079l0.099,-0.077l0.098,-0.071l0.102,-0.067l0.107,-0.065l0.105,-0.059l0.11,-0.055l0.112,-0.051l0.114,-0.047l0.117,-0.042l0.119,-0.038l0.122,-0.033l0.123,-0.028l0.122,-0.023l0.125,-0.018l0.129,-0.013l0.127,-0.008l0.101,-0.002l181.267,0l0.101,0.002ZM33.793,29.222l83.993,52.844l83.994,-52.844l-167.987,0Z" style="fill:#7faff5;"/><g><path d="M86.326,102.379c-1.365,-1.554 -2.194,-3.591 -2.194,-5.821c0,-4.87 3.954,-8.824 8.825,-8.824c4.871,0 8.825,3.954 8.825,8.824c0,2.23 -0.829,4.267 -2.194,5.821c-1.465,-1.127 -3.89,-1.865 -6.631,-1.865c-2.741,0 -5.165,0.738 -6.631,1.865Z" style="fill:#fff;stroke-width:2px;stroke:#7faff5;"/><path d="M133.889,102.379c-1.365,-1.554 -2.194,-3.591 -2.194,-5.821c0,-4.87 3.954,-8.824 8.825,-8.824c4.871,0 8.825,3.954 8.825,8.824c0,2.23 -0.829,4.267 -2.194,5.821c-1.466,-1.127 -3.89,-1.865 -6.631,-1.865c-2.741,0 -5.166,0.738 -6.631,1.865Z" style="fill:#fff;stroke-width:2px;stroke:#7faff5;"/></g><path d="M108.88,111.338l17.634,0c0,0 0.162,8.817 -8.817,8.817c-8.979,0 -8.817,-8.817 -8.817,-8.817Z" style="fill:#fff;stroke-width:2px;stroke:#7faff5;"/></g><path d="M75.834,153.146l0.119,0.009l0.118,0.014l0.117,0.02l0.117,0.025l0.115,0.031l0.113,0.036l0.112,0.042l0.109,0.047l0.107,0.052l0.104,0.057l0.102,0.062l0.098,0.066l0.096,0.072l0.091,0.075l0.089,0.08l0.084,0.084l0.08,0.088l0.075,0.092l0.072,0.095l0.066,0.099l0.062,0.102l0.057,0.104l0.052,0.107l0.047,0.109l0.042,0.112l0.036,0.113l0.031,0.115l0.025,0.117l0.02,0.117l0.014,0.118l0.009,0.119l0.002,0.119l0,14.584l-0.002,0.119l-0.009,0.119l-0.014,0.118l-0.02,0.118l-0.025,0.116l-0.031,0.115l-0.036,0.113l-0.042,0.112l-0.047,0.109l-0.052,0.107l-0.057,0.104l-0.062,0.102l-0.066,0.099l-0.072,0.095l-0.075,0.092l-0.08,0.088l-0.084,0.084l-0.089,0.08l-0.091,0.076l-0.096,0.071l-0.098,0.067l-0.102,0.062l-0.104,0.057l-0.107,0.052l-0.109,0.046l-0.112,0.042l-0.113,0.036l-0.115,0.031l-0.117,0.025l-0.117,0.02l-0.118,0.014l-0.119,0.009l-0.119,0.002l-0.119,-0.002l-0.118,-0.009l-0.118,-0.014l-0.118,-0.02l-0.116,-0.025l-0.115,-0.031l-0.113,-0.036l-0.112,-0.042l-0.109,-0.046l-0.107,-0.052l-0.105,-0.057l-0.101,-0.062l-0.099,-0.067l-0.095,-0.071l-0.092,-0.076l-0.088,-0.08l-0.084,-0.084l-0.08,-0.088l-0.076,-0.092l-0.071,-0.095l-0.067,-0.099l-0.062,-0.102l-0.057,-0.104l-0.052,-0.107l-0.047,-0.109l-0.041,-0.112l-0.036,-0.113l-0.031,-0.115l-0.025,-0.116l-0.02,-0.118l-0.014,-0.118l-0.009,-0.119l-0.003,-0.119l0,-14.584l0.003,-0.119l0.009,-0.119l0.014,-0.118l0.02,-0.117l0.025,-0.117l0.031,-0.115l0.036,-0.113l0.041,-0.112l0.047,-0.109l0.052,-0.107l0.057,-0.104l0.062,-0.102l0.067,-0.099l0.071,-0.095l0.076,-0.092l0.08,-0.088l0.084,-0.084l0.088,-0.08l0.092,-0.075l0.095,-0.072l0.099,-0.066l0.101,-0.062l0.105,-0.057l0.107,-0.052l0.109,-0.047l0.112,-0.042l0.113,-0.036l0.115,-0.031l0.116,-0.025l0.118,-0.02l0.118,-0.014l0.118,-0.009l0.119,-0.002l0.119,0.002Z" style="fill:#7faff5;"/><path d="M153.573,153.146l0.118,0.009l0.119,0.014l0.117,0.02l0.116,0.025l0.115,0.031l0.114,0.036l0.111,0.042l0.109,0.047l0.107,0.052l0.105,0.057l0.101,0.062l0.099,0.066l0.095,0.072l0.092,0.075l0.088,0.08l0.084,0.084l0.08,0.088l0.076,0.092l0.071,0.095l0.067,0.099l0.062,0.102l0.057,0.104l0.052,0.107l0.047,0.109l0.041,0.112l0.037,0.113l0.03,0.115l0.026,0.117l0.019,0.117l0.015,0.118l0.008,0.119l0.003,0.119l0,14.584l-0.003,0.119l-0.008,0.119l-0.015,0.118l-0.019,0.118l-0.026,0.116l-0.03,0.115l-0.037,0.113l-0.041,0.112l-0.047,0.109l-0.052,0.107l-0.057,0.104l-0.062,0.102l-0.067,0.099l-0.071,0.095l-0.076,0.092l-0.08,0.088l-0.084,0.084l-0.088,0.08l-0.092,0.076l-0.095,0.071l-0.099,0.067l-0.101,0.062l-0.105,0.057l-0.107,0.052l-0.109,0.046l-0.111,0.042l-0.114,0.036l-0.115,0.031l-0.116,0.025l-0.117,0.02l-0.119,0.014l-0.118,0.009l-0.119,0.002l-0.119,-0.002l-0.119,-0.009l-0.118,-0.014l-0.117,-0.02l-0.117,-0.025l-0.114,-0.031l-0.114,-0.036l-0.111,-0.042l-0.11,-0.046l-0.107,-0.052l-0.104,-0.057l-0.102,-0.062l-0.098,-0.067l-0.096,-0.071l-0.091,-0.076l-0.088,-0.08l-0.084,-0.084l-0.081,-0.088l-0.075,-0.092l-0.072,-0.095l-0.066,-0.099l-0.062,-0.102l-0.057,-0.104l-0.052,-0.107l-0.047,-0.109l-0.042,-0.112l-0.036,-0.113l-0.031,-0.115l-0.025,-0.116l-0.02,-0.118l-0.014,-0.118l-0.008,-0.119l-0.003,-0.119l0,-14.584l0.003,-0.119l0.008,-0.119l0.014,-0.118l0.02,-0.117l0.025,-0.117l0.031,-0.115l0.036,-0.113l0.042,-0.112l0.047,-0.109l0.052,-0.107l0.057,-0.104l0.062,-0.102l0.066,-0.099l0.072,-0.095l0.075,-0.092l0.081,-0.088l0.084,-0.084l0.088,-0.08l0.091,-0.075l0.096,-0.072l0.098,-0.066l0.102,-0.062l0.104,-0.057l0.107,-0.052l0.11,-0.047l0.111,-0.042l0.114,-0.036l0.114,-0.031l0.117,-0.025l0.117,-0.02l0.118,-0.014l0.119,-0.009l0.119,-0.002l0.119,0.002Z" style="fill:#7faff5;"/><path d="M134.25,153.154l0.153,0.019l0.151,0.028l0.149,0.038l0.147,0.047l0.144,0.055l0.14,0.065l0.135,0.073l0.131,0.081l0.126,0.089l0.12,0.096l0.114,0.104l0.107,0.11l0.1,0.117l0.093,0.123l0.085,0.129l0.077,0.133l0.068,0.138l0.06,0.141l0.052,0.146l0.042,0.148l0.033,0.15l0.023,0.152l0.014,0.154l0.005,0.154l0,24.536l-0.005,0.154l-0.014,0.154l-0.023,0.152l-0.033,0.15l-0.042,0.148l-0.052,0.146l-0.06,0.141l-0.068,0.138l-0.077,0.134l-0.085,0.128l-0.093,0.123l-0.1,0.117l-0.107,0.11l-0.114,0.104l-0.12,0.097l-0.126,0.088l-0.131,0.082l-0.135,0.072l-0.14,0.065l-0.144,0.055l-0.147,0.047l-0.149,0.038l-0.151,0.028l-0.153,0.019l-0.154,0.009l-0.154,0l-0.153,-0.009l-0.153,-0.019l-0.152,-0.028l-0.149,-0.038l-0.147,-0.047l-0.143,-0.055l-0.14,-0.065l-0.136,-0.072l-0.131,-0.082l-0.125,-0.088l-0.12,-0.097l-0.114,-0.104l-0.107,-0.11l-0.1,-0.117l-0.093,-0.123l-0.085,-0.128l-0.077,-0.134l-0.069,-0.138l-0.06,-0.141l-0.051,-0.146l-0.042,-0.148l-0.033,-0.15l-0.024,-0.152l-0.014,-0.154l-0.005,-0.154l0,-24.536l0.005,-0.154l0.014,-0.154l0.024,-0.152l0.033,-0.15l0.042,-0.148l0.051,-0.146l0.06,-0.141l0.069,-0.138l0.077,-0.133l0.085,-0.129l0.093,-0.123l0.1,-0.117l0.107,-0.11l0.114,-0.104l0.12,-0.096l0.125,-0.089l0.131,-0.081l0.136,-0.073l0.14,-0.065l0.143,-0.055l0.147,-0.047l0.149,-0.038l0.152,-0.028l0.153,-0.019l0.153,-0.009l0.154,0l0.154,0.009Z" style="fill:#7faff5;"/><path d="M95.381,153.154l0.152,0.019l0.152,0.028l0.149,0.038l0.147,0.047l0.143,0.055l0.14,0.065l0.136,0.073l0.131,0.081l0.126,0.089l0.12,0.096l0.113,0.104l0.107,0.11l0.101,0.117l0.092,0.123l0.086,0.129l0.076,0.133l0.069,0.138l0.06,0.141l0.051,0.146l0.042,0.148l0.033,0.15l0.024,0.152l0.014,0.154l0.005,0.154l0,24.536l-0.005,0.154l-0.014,0.154l-0.024,0.152l-0.033,0.15l-0.042,0.148l-0.051,0.146l-0.06,0.141l-0.069,0.138l-0.076,0.134l-0.086,0.128l-0.092,0.123l-0.101,0.117l-0.107,0.11l-0.113,0.104l-0.12,0.097l-0.126,0.088l-0.131,0.082l-0.136,0.072l-0.14,0.065l-0.143,0.055l-0.147,0.047l-0.149,0.038l-0.152,0.028l-0.152,0.019l-0.154,0.009l-0.154,0l-0.154,-0.009l-0.153,-0.019l-0.151,-0.028l-0.149,-0.038l-0.147,-0.047l-0.144,-0.055l-0.139,-0.065l-0.136,-0.072l-0.131,-0.082l-0.126,-0.088l-0.12,-0.097l-0.113,-0.104l-0.108,-0.11l-0.1,-0.117l-0.093,-0.123l-0.085,-0.128l-0.077,-0.134l-0.068,-0.138l-0.06,-0.141l-0.051,-0.146l-0.043,-0.148l-0.032,-0.15l-0.024,-0.152l-0.014,-0.154l-0.005,-0.154l0,-24.536l0.005,-0.154l0.014,-0.154l0.024,-0.152l0.032,-0.15l0.043,-0.148l0.051,-0.146l0.06,-0.141l0.068,-0.138l0.077,-0.133l0.085,-0.129l0.093,-0.123l0.1,-0.117l0.108,-0.11l0.113,-0.104l0.12,-0.096l0.126,-0.089l0.131,-0.081l0.136,-0.073l0.139,-0.065l0.144,-0.055l0.147,-0.047l0.149,-0.038l0.151,-0.028l0.153,-0.019l0.154,-0.009l0.154,0l0.154,0.009Z" style="fill:#7faff5;"/><path d="M114.846,153.157l0.173,0.025l0.17,0.036l0.168,0.048l0.164,0.06l0.16,0.071l0.154,0.082l0.148,0.092l0.141,0.103l0.133,0.112l0.126,0.121l0.117,0.13l0.107,0.137l0.098,0.145l0.087,0.151l0.076,0.157l0.066,0.162l0.054,0.166l0.042,0.169l0.03,0.172l0.018,0.173l0.007,0.175l0,31.572l-0.007,0.174l-0.018,0.174l-0.03,0.171l-0.042,0.17l-0.054,0.166l-0.066,0.161l-0.076,0.157l-0.087,0.151l-0.098,0.145l-0.107,0.138l-0.117,0.129l-0.126,0.121l-0.133,0.113l-0.141,0.102l-0.148,0.093l-0.154,0.082l-0.16,0.071l-0.164,0.059l-0.168,0.048l-0.17,0.037l-0.173,0.024l-0.174,0.012l-0.175,0l-0.174,-0.012l-0.173,-0.024l-0.17,-0.037l-0.168,-0.048l-0.164,-0.059l-0.159,-0.071l-0.154,-0.082l-0.148,-0.093l-0.142,-0.102l-0.133,-0.113l-0.126,-0.121l-0.117,-0.129l-0.107,-0.138l-0.098,-0.145l-0.087,-0.151l-0.076,-0.157l-0.066,-0.161l-0.054,-0.166l-0.042,-0.17l-0.03,-0.171l-0.018,-0.174l-0.006,-0.174l0,-31.572l0.006,-0.175l0.018,-0.173l0.03,-0.172l0.042,-0.169l0.054,-0.166l0.066,-0.162l0.076,-0.157l0.087,-0.151l0.098,-0.145l0.107,-0.137l0.117,-0.13l0.126,-0.121l0.133,-0.112l0.142,-0.103l0.148,-0.092l0.154,-0.082l0.159,-0.071l0.164,-0.06l0.168,-0.048l0.17,-0.036l0.173,-0.025l0.174,-0.012l0.175,0l0.174,0.012Z" style="fill:#7faff5;"/></svg>