<?xml version="1.0" encoding="UTF-8" standalone="no"?>
<svg width="133px" height="118px" viewBox="0 0 133 118" version="1.1" xmlns="http://www.w3.org/2000/svg" xmlns:xlink="http://www.w3.org/1999/xlink">
    <!-- Generator: sketchtool 3.8.3 (29802) - http://www.bohemiancoding.com/sketch -->
    <title>BD06B9CE-DECE-4376-9449-3F22C88933E8</title>
    <desc>Created with sketchtool.</desc>
    <defs></defs>
    <g id="home" stroke="none" stroke-width="1" fill="none" fill-rule="evenodd" fill-opacity="0.2">
        <g id="HOME" transform="translate(-534.000000, -4654.000000)" fill="#CECECE">
            <g id="::-data" transform="translate(163.000000, 4506.000000)">
                <g id="::-backers" transform="translate(371.000000, 148.000000)">
                    <path d="M102.930877,56.1623831 C102.026368,55.9531874 101.135882,55.6741803 100.273444,55.3265532 C98.1395511,54.46785 96.1692646,53.1981415 94.491132,51.6046323 C92.8714303,50.0680682 91.527522,48.2348655 90.5412101,46.2153404 C89.7021438,44.4922156 89.1248475,42.6375692 88.8397052,40.7355082 C88.545214,38.7729282 88.5569002,36.7622188 88.877101,34.803451 C89.1832783,32.9078232 89.7816097,31.0629456 90.6417111,29.352687 C92.4296935,25.7985039 95.3348728,22.871908 98.8430579,21.0937443 C100.39498,20.3069968 102.056752,19.7470766 103.762931,19.4356656 C104.604335,19.2822236 105.45275,19.195019 106.305839,19.1564203 C106.621366,19.1461749 106.934555,19.1421244 107.250081,19.1442688 C108.107845,19.160709 108.960935,19.2264699 109.80935,19.3584681 C111.527216,19.626515 113.207685,20.1459304 114.78298,20.8959852 C118.333235,22.5862296 121.306194,25.4425376 123.178317,28.9519271 C124.075814,30.6359766 124.716215,32.4596487 125.069137,34.3419338 C125.436083,36.2909328 125.496851,38.2999743 125.251441,40.2687492 C125.013044,42.1829616 124.480155,44.057384 123.678484,45.8057647 C122.741254,47.8507841 121.439416,49.7178202 119.854773,51.2946509 C118.216373,52.9265206 116.278808,54.2438819 114.168288,55.1538119 C113.153929,55.5910262 112.104512,55.9329349 111.031722,56.1769172 C112.478469,56.4154194 113.90418,56.7802015 115.290159,57.2667364 C118.758611,58.4845034 121.955944,60.4668593 124.613377,63.0446368 C127.504533,65.8485268 129.734252,69.3388552 131.078161,73.1682331 C131.748946,75.076489 132.202369,77.0640867 132.422069,79.07837 C132.515558,79.9356436 132.562303,80.7955382 132.578664,81.6578153 C132.627745,89.8993648 132.581001,98.1411525 132.581001,106.38294 C132.571652,106.617154 132.555291,106.842313 132.499198,107.071046 C132.37065,107.596657 132.097194,108.081286 131.713888,108.456551 C131.496525,108.670512 131.244104,108.848019 130.968311,108.980494 C129.921231,109.487043 128.642765,109.274988 127.806036,108.456551 C127.588673,108.24259 127.404032,107.992651 127.263798,107.719124 C127.121227,107.445597 127.0254,107.148959 126.976319,106.843981 C126.943597,106.640742 126.948272,106.588324 126.938923,106.38294 C126.938923,98.0806335 127.083831,89.7768971 126.934248,81.4757817 C126.908539,80.6370926 126.843096,79.8017393 126.72156,78.9713895 C126.455116,77.163681 125.952611,75.39338 125.225732,73.722435 C124.330572,71.6643112 123.101188,69.7610589 121.598348,68.1110811 C120.256777,66.637657 118.702518,65.3691398 116.996338,64.3581859 C114.813364,63.0632214 112.389654,62.1954642 109.89349,61.8156715 C106.80367,61.3462915 103.618023,61.6236307 100.654413,62.6231479 C98.6350443,63.3043445 96.7442236,64.3179193 95.0286954,65.5983497 L94.8393796,65.7274887 C94.6383777,65.8420937 94.4420502,65.9447854 94.2200131,66.0167411 C93.9559059,66.1029927 93.6801126,66.1482628 93.4043192,66.1525516 C93.5679254,66.5590299 93.7221827,66.9693203 93.8670911,67.3831848 C94.6430521,69.5961802 95.1689293,71.9011455 95.4236876,74.2373234 C95.5335375,75.2315988 95.5872938,76.2287333 95.6059917,77.2284888 C95.6831203,89.8216908 95.6083289,102.415131 95.6083289,115.008571 C95.5966427,115.243976 95.6036544,115.304257 95.559247,115.536802 C95.4470599,116.148188 95.1385453,116.714303 94.6874595,117.133409 C93.8367071,117.924445 92.5605785,118.105764 91.5298592,117.582298 C91.296136,117.463881 91.0811107,117.312345 90.8871204,117.133409 C90.6300249,116.89443 90.4173368,116.607322 90.2630795,116.290193 C90.1088222,115.972825 90.0106584,115.626628 89.9802744,115.273759 C89.9709255,115.185601 89.9709255,115.096967 89.966251,115.008571 C89.966251,102.438957 90.0410425,89.8691053 89.966251,77.2997297 C89.9475532,76.3886084 89.8937968,75.4805846 89.7839469,74.5758964 C89.5291887,72.4879896 89.0103232,70.4348693 88.2437111,68.4815815 C87.4046448,66.3426862 86.2687501,64.3262585 84.8804344,62.5090195 C83.3565591,60.5147504 81.5288438,58.7632722 79.4837658,57.3353565 C75.2440271,54.3758801 70.1044541,52.860998 64.9695556,53.0563745 C62.2139591,53.1609723 59.4793978,53.7521052 56.9177916,54.796416 C54.1738813,55.9148269 51.6379846,57.5507471 49.4737079,59.5998169 C47.1551738,61.7925599 45.2713649,64.4496793 43.9555033,67.3803256 C42.9738659,69.5649676 42.3103257,71.8956654 41.9910598,74.2763987 C41.8564353,75.2794898 41.789123,76.2878228 41.7706589,77.299968 C41.6937639,89.8691053 41.7687891,102.438957 41.7687891,115.008571 C41.7580378,115.243976 41.7634135,115.304257 41.7206421,115.536802 C41.6086887,116.148188 41.2992392,116.714303 40.8483872,117.133409 C39.9971673,117.924445 38.722441,118.105764 37.6912543,117.582298 C37.4577648,117.463881 37.2408697,117.312345 37.0482818,117.133409 C36.7911863,116.89443 36.5784981,116.607322 36.4235397,116.290193 C36.2685812,115.972825 36.1720535,115.626628 36.1400334,115.273759 C36.1318531,115.185601 36.1318531,115.096967 36.1278798,115.008571 C36.1278798,102.415131 36.0530884,89.8214525 36.1302171,77.2284888 C36.1484475,76.2284951 36.202905,75.2315988 36.31182,74.2375616 C36.5677469,71.9011455 37.0917543,69.5961802 37.8693513,67.3831848 C38.037632,66.9037978 38.2180663,66.429176 38.4099531,65.9595578 C38.2856124,65.9278687 38.1631414,65.8876021 38.0439426,65.8385197 C37.8564966,65.7615605 37.8146601,65.7310627 37.6379654,65.6319449 C37.2429732,65.3658041 36.8613032,65.0801256 36.4635063,64.8175588 C34.7505491,63.7103463 32.8931508,62.8573614 30.9352517,62.3119752 C28.1859657,61.546195 25.280319,61.3896556 22.4669929,61.854032 C19.9734002,62.265752 17.5616106,63.1625775 15.3938279,64.4847041 C13.7007371,65.5175782 12.1602676,66.8063478 10.8357582,68.2971653 C9.35442064,69.9647745 8.14817525,71.8825609 7.27895869,73.9504536 C6.57217976,75.6309291 6.08907392,77.4079015 5.8460018,79.2194222 C5.73428211,80.0519164 5.67842227,80.8889376 5.66323026,81.728818 C5.61344722,89.9467793 5.6615942,98.1649789 5.6615942,106.38294 C5.65341389,106.588324 5.6576209,106.640742 5.62513338,106.843981 C5.57651895,107.148959 5.47929011,107.445597 5.33858874,107.719124 C5.19765366,107.992651 5.01347978,108.24259 4.7949486,108.456551 C3.95892074,109.274988 2.67928626,109.487043 1.63220635,108.980494 C1.35828277,108.848019 1.10586172,108.670512 0.887330536,108.456551 C0.504258223,108.081286 0.229867195,107.596657 0.102721778,107.071046 C0.0473293811,106.842313 0.0300338649,106.617154 0.0206849372,106.38294 C0.0206849372,98.1411525 -0.0272283174,89.8993648 0.0227884459,81.6578153 C0.0384478998,80.7955382 0.0854262616,79.9356436 0.179382985,79.0786082 C0.400017679,77.0640867 0.851804611,75.076489 1.52235645,73.1682331 C2.75992076,69.6457391 4.74423066,66.4072557 7.30747292,63.7289309 C10.0925185,60.8187752 13.5413379,58.5905309 17.3124616,57.2667364 C18.7098926,56.776151 20.1486926,56.4089863 21.6078265,56.1707224 C20.6114645,55.9565231 19.6326318,55.6579784 18.6839493,55.2765178 C16.5561334,54.4206738 14.5923911,53.1540627 12.9182319,51.565557 C11.3034383,50.0335199 9.96256839,48.2053208 8.98022981,46.1917523 C8.14209844,44.4736311 7.56760683,42.6242264 7.28316571,40.7274072 C6.98937566,38.7705455 7.00152926,36.7653163 7.3193928,34.8122668 C7.60266531,33.0712723 8.13041228,31.3731652 8.88229979,29.7834682 C10.6443389,26.0584499 13.6247771,22.9831773 17.257303,21.1421119 C18.8052517,20.3575088 20.4621154,19.7987798 22.163854,19.4887985 C23.0019853,19.3360713 23.8478296,19.2488667 24.6981145,19.2102679 C25.0124722,19.2002608 25.3261288,19.1962103 25.6404864,19.1981165 C26.4952122,19.2147949 27.346432,19.2803175 28.1918088,19.4120775 C29.905701,19.6791713 31.5805614,20.1969189 33.151415,20.9450676 C36.7586987,22.6636654 39.7676511,25.5871638 41.6264517,29.1768483 C42.4669203,30.8001404 43.0696924,32.5494742 43.408591,34.3521792 C43.7755364,36.2956981 43.8363045,38.2985447 43.5908951,40.2616012 C43.3524974,42.1703336 42.8219458,44.0390376 42.0223788,45.7824148 C41.0879534,47.8217159 39.7889199,49.6835102 38.2094186,51.2560522 C36.5749923,52.8831566 34.6437376,54.1957526 32.5397614,55.1037765 C31.5303109,55.5393229 30.483231,55.8800404 29.4146486,56.1235461 C29.8472702,56.1878774 30.2784895,56.2636453 30.707839,56.3515647 C33.0885434,56.8385762 35.4000658,57.6710703 37.5514878,58.8185494 C38.6640102,59.4115884 39.727217,60.0906406 40.745549,60.8383128 L40.9243472,60.9810329 L40.9715593,61.02535 C42.0242485,59.3822819 43.2332986,57.8428586 44.5795442,56.4361484 C47.8072615,53.0606632 51.8086026,50.4769291 56.1815635,48.9413181 C58.2476765,48.2160427 60.3909182,47.7237894 62.5622067,47.4762331 C63.6583684,47.3513828 64.7568675,47.2958674 65.8577037,47.2887194 C65.9839142,47.2887194 66.112462,47.2903873 66.2386725,47.2911021 C67.2203099,47.3094484 68.1972729,47.3652022 69.1742358,47.4762331 C71.3455243,47.7237894 73.4887659,48.2160427 75.554879,48.9413181 C79.9278399,50.4769291 83.9268437,53.0606632 87.1568983,56.4363866 C88.6480522,57.994871 89.9709255,59.7163279 91.0998085,61.5609673 C91.4223465,61.1230382 91.8710951,60.8206813 92.3081574,60.5109382 C93.0046525,60.0174936 93.7268572,59.559312 94.4677597,59.1382996 C96.9148416,57.751127 99.5816232,56.7773423 102.334882,56.2655514 C102.533547,56.2286205 102.732212,56.1943105 102.930877,56.1623831 L102.930877,56.1623831 Z M76.351875,71.97739 C78.3408594,70.2895283 80.3181576,68.5799845 82.4427015,67.0751095 C82.6483779,66.94192 82.8704149,66.8644842 83.113487,66.8397048 C83.1719178,66.8361308 83.2303486,66.835416 83.2911166,66.8368456 C83.4523856,66.8482823 83.606643,66.8797331 83.7562258,66.9414435 C84.2680796,67.1546897 84.5976293,67.6538526 84.6326878,68.212105 C84.6583973,69.4787161 84.7004675,70.7481863 84.6864441,72.0152739 C85.1679139,72.0271871 85.6493837,72.0410064 86.1331907,72.0564936 C86.2804363,72.0707894 86.4230074,72.098428 86.5632413,72.1546583 C86.9231751,72.2997611 87.2129918,72.5956849 87.355563,72.9621348 C87.4093193,73.1039018 87.4373661,73.2497194 87.4513895,73.401017 C87.5659138,77.1134073 87.5635766,80.8310395 87.4513895,84.5434298 C87.4116565,84.9708753 87.224678,85.3301773 86.8974655,85.6001304 C84.7425377,87.1638566 82.5432024,88.6649194 80.2947853,90.086402 C79.9628984,90.2662913 79.5936157,90.3294312 79.2266703,90.2293603 C79.1051343,90.1967182 78.9952844,90.1457297 78.8877717,90.086402 C76.6393546,88.6649194 74.4400193,87.1638566 72.2850915,85.6001304 C71.957879,85.3301773 71.7685632,84.9708753 71.7311675,84.5434298 C71.6189804,80.8310395 71.6166432,77.1134073 71.7311675,73.401017 C71.7451909,73.2497194 71.7709005,73.1039018 71.826994,72.9621348 C71.9695652,72.5956849 72.2593819,72.2997611 72.6193157,72.1546583 C72.7572123,72.098428 72.8997835,72.0707894 73.0493663,72.0564936 C74.1502026,72.0212305 75.2510388,71.9947832 76.351875,71.97739 L76.351875,71.97739 Z M83.2256742,74.9287653 C81.0613974,74.9764181 78.8924462,75.0640992 76.7328439,74.9287653 L83.2256742,74.9287653 Z M74.547532,74.9287653 L74.547532,83.6856797 L79.5912785,87.1128681 L84.6326878,83.6856797 L84.6326878,74.9287653 L74.547532,74.9287653 L74.547532,74.9287653 Z M80.9375241,71.9561845 C81.2296781,71.9580906 81.5218321,71.9607115 81.8139861,71.9638089 L81.8139861,71.2483023 L80.9375241,71.9561845 Z M106.848077,24.8942923 C105.043734,24.9290788 103.267438,25.3272179 101.631376,26.1063409 C99.2146778,27.2566792 97.181286,29.1880467 95.8794478,31.5604406 C95.246058,32.7157825 94.7879605,33.9697655 94.5285278,35.2663979 C94.2340365,36.7231436 94.1896291,38.2320691 94.3929683,39.7045402 C94.5729352,41.0242841 94.9562412,42.313292 95.5241886,43.5136657 C96.1926369,44.9244264 97.111169,46.2081925 98.2236914,47.2889577 C99.3736095,48.4073686 100.729204,49.3051471 102.199323,49.9184385 C103.725535,50.5538884 105.366272,50.8781656 107.014021,50.8781656 C108.659432,50.8781656 110.302506,50.5538884 111.828718,49.9184385 C113.298837,49.3051471 114.654432,48.4071303 115.80435,47.2889577 C116.916872,46.2081925 117.835405,44.9244264 118.501516,43.5136657 C119.069463,42.313292 119.452769,41.0242841 119.635073,39.7045402 C119.836075,38.2323073 119.791668,36.7233818 119.499514,35.2666361 C119.24943,34.0209923 118.817042,32.8149003 118.221048,31.6974424 C116.923884,29.2628615 114.857771,27.2788378 112.394329,26.1063409 C110.758266,25.3272179 108.98197,24.9290788 107.179964,24.8942923 C107.011683,24.8933393 107.014021,24.8933393 106.848077,24.8942923 L106.848077,24.8942923 Z M25.2398849,24.9483782 C23.444657,24.9829265 21.674905,25.3789212 20.0460881,26.1549468 C17.5459511,27.3460282 15.4595042,29.3736543 14.1712219,31.861368 C13.6154282,32.9349853 13.2096847,34.0881827 12.9708196,35.277358 C12.6791331,36.7281471 12.6344919,38.2306395 12.8359613,39.697154 C13.0166294,41.0114178 13.3982993,42.2951839 13.9636757,43.4905541 C14.627917,44.8953582 15.5436445,46.1736442 16.6505576,47.2498824 C17.7962686,48.363528 19.1450852,49.2577326 20.6105296,49.868403 C22.1290292,50.501232 23.7646241,50.8240797 25.4046597,50.8240797 C27.0446954,50.8240797 28.6800566,50.501232 30.1985562,49.868403 C31.6640006,49.2577326 33.0128171,48.3632898 34.1585282,47.2496441 C35.265675,46.1736442 36.1814024,44.89512 36.8456438,43.4905541 C37.4107864,42.2951839 37.7924564,41.0114178 37.9731244,39.697154 C38.1745938,38.2306395 38.1299527,36.7281471 37.8384999,35.277358 C37.5994011,34.0881827 37.1936576,32.9349853 36.6378638,31.861368 C35.3495816,29.3736543 33.2631347,27.3460282 30.7632314,26.1549468 C29.1344145,25.3789212 27.3644287,24.9829265 25.5694346,24.9483782 C25.4032574,24.9471869 25.4046597,24.9471869 25.2398849,24.9483782 L25.2398849,24.9483782 Z M66.3742319,0.0014295836 C67.332497,0.0200141704 68.2860877,0.0872045997 69.2350038,0.222776778 C71.4413508,0.538238226 73.5986158,1.18989008 75.6179842,2.15080853 C80.140528,4.30471449 83.8987969,8.00114115 86.1752608,12.5305385 C87.1872823,14.543154 87.9048125,16.7080201 88.2951302,18.9343583 C88.715832,21.3329613 88.7602394,23.8004226 88.4283524,26.2135597 C88.1058144,28.5549794 87.4256799,30.8427897 86.418333,32.9723927 C85.2403681,35.4670161 83.6136547,37.7376714 81.6480426,39.6485481 C79.6123136,41.6278066 77.2143136,43.2155975 74.6106373,44.301128 C71.9111344,45.4264485 69.0012806,46.0032855 66.0844152,46.0032855 C63.1675497,46.0032855 60.257696,45.4264485 57.5558559,44.3008897 C54.9521795,43.2155975 52.5541796,41.6278066 50.5184505,39.6485481 C48.5528385,37.7376714 46.9284623,35.4670161 45.7481602,32.9723927 C44.7408132,30.8427897 44.0606787,28.5549794 43.7404779,26.2133214 C43.408591,23.8004226 43.4529984,21.3329613 43.8737002,18.9343583 C44.2640179,16.7080201 44.9792109,14.543154 45.9912323,12.5305385 C48.2700334,8.00114115 52.0259651,4.30471449 56.5508461,2.15080853 C58.5702145,1.18989008 60.7274796,0.538238226 62.9314893,0.222776778 C63.8804055,0.0872045997 64.8363333,0.0200141704 65.7922612,0.0014295836 C66.0844152,-0.000476527867 66.082078,-0.000476527867 66.3742319,0.0014295836 L66.3742319,0.0014295836 Z M65.8647154,5.75169136 C65.0022768,5.76813157 64.1445127,5.83961075 63.2960975,5.9832839 C61.7909201,6.23751152 60.3208013,6.70307924 58.9371599,7.36140249 C57.0276415,8.2703794 55.2910781,9.54747408 53.8373199,11.1023845 C52.427969,12.6089274 51.2873998,14.3737483 50.4904038,16.2910582 C49.8383161,17.864315 49.4176143,19.536213 49.2493336,21.2355113 C49.0530061,23.195947 49.1838911,25.1902161 49.6443258,27.1049051 C50.0019223,28.6047766 50.5628579,30.0536595 51.3014232,31.4010421 C53.1314758,34.7360224 56.0483413,37.4074376 59.5004328,38.8975402 C61.5127895,39.7650592 63.6817408,40.222526 65.8647154,40.2511176 C68.0570389,40.2799476 70.2470253,39.8760902 72.2850915,39.056224 C74.2483663,38.2663791 76.0620583,37.0957884 77.6069686,35.6290356 C79.1004598,34.213033 80.3391927,32.5242183 81.2483759,30.6631387 C82.0196625,29.0803514 82.5478769,27.3772408 82.8119841,25.6298131 C83.0924519,23.7491958 83.0714168,21.8197345 82.7418671,19.9467417 C82.4497132,18.2803238 81.9121498,16.6598908 81.1548867,15.1535862 C79.5094754,11.8788867 76.8310076,9.18102415 73.5986158,7.54272135 C72.1729044,6.81982857 70.6466919,6.30589327 69.0807465,6.01973828 C68.3047855,5.87844777 67.5241501,5.79839109 66.7388401,5.76288976 C66.4466861,5.75335921 66.1568694,5.74978525 65.8647154,5.75169136 L65.8647154,5.75169136 Z" id="backers"></path>
                </g>
            </g>
        </g>
    </g>
</svg>