<?xml version="1.0" encoding="UTF-8" standalone="no"?>
<svg width="15px" height="15px" viewBox="0 0 15 15" version="1.1" xmlns="http://www.w3.org/2000/svg" xmlns:xlink="http://www.w3.org/1999/xlink">
    <!-- Generator: Sketch 3.8.2 (29753) - http://www.bohemiancoding.com/sketch -->
    <title>link</title>
    <desc>Created with Sketch.</desc>
    <defs></defs>
    <g id="Page-1" stroke="none" stroke-width="1" fill="none" fill-rule="evenodd">
        <g id="Donation" transform="translate(-489.000000, -369.000000)" fill="#D7D9DB">
            <g id="::-donation-overlay" transform="translate(80.000000, 108.000000)">
                <g id="::-01-(user-info)" transform="translate(322.000000, 54.000000)">
                    <g id="::-user-info" transform="translate(78.000000, 132.000000)">
                        <g id="::-personal-info" transform="translate(0.000000, 1.000000)">
                            <g id="::-url" transform="translate(0.000000, 60.000000)">
                                <path d="M19.8757561,27.4254977 L16.9176744,24.4670899 L17.7312569,23.6536704 L18.2270694,24.1493198 C18.3544057,24.2766561 18.5211983,24.3404058 18.6881539,24.3404058 C18.8551095,24.3404058 19.0220651,24.2766561 19.1494014,24.1493198 C19.4040739,23.8946473 19.4040739,23.4816604 19.1494014,23.2269879 L18.6535888,22.7311754 L19.4674975,21.9175928 L22.4255792,24.8756746 L19.8757561,27.4254977 Z M13.5327471,21.0823256 L10.5746654,18.1240808 L13.1244885,15.5744208 L16.0825702,18.5325025 L15.2686616,19.3464112 L14.7730121,18.8507617 C14.5183396,18.5960892 14.1053527,18.5960892 13.8506802,18.8507617 C13.5960076,19.1055973 13.5960076,19.5184211 13.8506802,19.7730936 L14.3463296,20.2687431 L13.5327471,21.0823256 Z M23.8089956,24.4145901 L19.9285819,20.5340134 C19.6740724,20.2795039 19.2610855,20.2795039 19.00625,20.5340134 L17.7312569,21.8090065 L16.1909935,20.2687431 L17.4659866,18.99375 C17.7206591,18.7389145 17.7206591,18.3260906 17.4659866,18.0714181 L13.5857359,14.1910044 C13.3312265,13.9363319 12.9182396,13.9363319 12.663567,14.1910044 L9.19108592,17.6628334 C9.06880397,17.7851153 9,17.9510927 9,18.1240808 C9,18.297069 9.06880397,18.4628834 9.19108592,18.5853283 L13.0716627,22.465742 C13.1989989,22.5930783 13.3657915,22.656828 13.5327471,22.656828 C13.6997027,22.656828 13.8666583,22.5930783 13.9939946,22.465742 L15.2686616,21.191075 L16.808925,22.7313384 L15.534258,24.0060054 C15.2795854,24.2606779 15.2795854,24.6736648 15.534258,24.9283373 L19.4145086,28.8089141 C19.5367906,28.931196 19.7027679,29 19.8757561,29 C20.0487443,29 20.2145586,28.931196 20.3370036,28.8089141 L23.8089956,25.3369221 C24.0636681,25.0820865 24.0636681,24.6692627 23.8089956,24.4145901 L23.8089956,24.4145901 Z" id="link"></path>
                            </g>
                        </g>
                    </g>
                </g>
            </g>
        </g>
    </g>
</svg>