<?xml version="1.0" encoding="utf-8"?>
<!-- Generator: Adobe Illustrator 19.1.0, SVG Export Plug-In . SVG Version: 6.00 Build 0)  -->
<svg version="1.1" id="Layer_1" xmlns="http://www.w3.org/2000/svg" xmlns:xlink="http://www.w3.org/1999/xlink" x="0px" y="0px"
	 viewBox="0 0 612 109.9" style="enable-background:new 0 0 612 109.9;" xml:space="preserve">
<style type="text/css">
	.st0{fill:#505E63;}
	.st1{fill:#9DB2B7;}
</style>
<g>
	<g>
		<path class="st0" d="M196.7,41.6c-3.7,0-7.2,1.4-9.8,3.6v-2.3c0-0.6-0.5-1-1-1h-3.4c-0.6,0-1,0.5-1,1v43.7c0,0.5,0.4,1,1,1h3.5
			c0.5,0,1-0.4,1-1V68.3c2.6,2.2,6.1,3.6,9.8,3.6c8.4,0,15.2-6.8,15.2-15.2C211.8,48.3,205,41.6,196.7,41.6z M196.7,66.4
			c-5.4,0-9.7-4.4-9.7-9.7c0-5.4,4.4-9.7,9.7-9.7c5.4,0,9.7,4.4,9.7,9.7C206.4,62.1,202,66.4,196.7,66.4z"/>
		<path class="st0" d="M262.6,41.6c-3.7,0-7.1,1.3-9.7,3.5v-1.3c0-1.1-0.9-2-2-2h-1.5c-1.1,0-2,0.9-2,2v26.3c0,0.8,0.7,1.5,1.5,1.5
			h2.5c0.8,0,1.5-0.7,1.5-1.5V57.6c0-5.4,4.4-10.6,9.7-10.6c3.5,0,9.7,1.9,9.7,10.6c0,5.1,0,10.1,0,12.5c0,0.8,0.7,1.5,1.5,1.5h2.5
			c0.8,0,1.5-0.7,1.5-1.5V57.5C277.8,44.3,267.4,41.6,262.6,41.6z"/>
		<path class="st0" d="M244.2,53.5L244.2,53.5c-1.5-7.1-8-12.3-15.6-11.9C221,42,214.8,48,214.3,55.6c-0.6,8.9,6.4,16.3,15.1,16.3
			c5.9,0,11-3.3,13.5-8.2c0.4-0.7-0.1-1.6-0.9-1.8l-3-0.6c-0.5-0.1-1,0.1-1.3,0.6c-1.7,2.7-4.8,4.6-8.2,4.6c-3,0-5.7-1.4-7.5-3.5
			l17.2-7.2L244.2,53.5z M219.8,57.9c0-0.4-0.1-0.8-0.1-1.2c0-5.4,4.4-9.7,9.7-9.7c3,0,5.8,1.4,7.5,3.6L219.8,57.9z"/>
		<path class="st0" d="M163.3,41.4c-8.4,0-15.2,6.8-15.2,15.2s6.8,15.2,15.2,15.2s15.2-6.8,15.2-15.2S171.7,41.4,163.3,41.4z
			 M163.3,66.3c-5.4,0-9.7-4.4-9.7-9.7c0-5.4,4.4-9.7,9.7-9.7c5.4,0,9.7,4.4,9.7,9.7C173.1,61.9,168.7,66.3,163.3,66.3z"/>
		<path class="st0" d="M344.7,41.3c-8.4,0-15.2,6.8-15.2,15.2c0,8.4,6.8,15.2,15.2,15.2s15.2-6.8,15.2-15.2
			C359.9,48.1,353.1,41.3,344.7,41.3z M344.7,66.2c-5.4,0-9.7-4.4-9.7-9.7c0-5.4,4.4-9.7,9.7-9.7c5.4,0,9.7,4.4,9.7,9.7
			C354.4,61.8,350.1,66.2,344.7,66.2z"/>
		<path class="st0" d="M476.6,32.3h-3.1c-0.7,0-1.2,0.5-1.2,1.2v3.1c0,0.7,0.5,1.2,1.2,1.2h3.1c0.7,0,1.2-0.5,1.2-1.2v-3.1
			C477.8,32.8,477.2,32.3,476.6,32.3z"/>
		<path class="st0" d="M540.5,61.7l-3.6-0.7c-0.4-0.1-0.8,0.1-1,0.5c-1.7,2.8-4.8,4.7-8.3,4.7c-3,0-5.7-1.4-7.5-3.5l17.2-7.2
			l5.2-2.2c0,0,0,0,0,0c-1.5-7.1-8-12.3-15.6-11.9c-7.6,0.4-13.8,6.5-14.3,14.1c-0.6,8.9,6.4,16.3,15.1,16.3c6,0,11.2-3.5,13.6-8.5
			C541.5,62.5,541.1,61.8,540.5,61.7z M517.8,56.4c0-5.4,4.4-9.7,9.7-9.7c3,0,5.8,1.4,7.5,3.6l-17.2,7.3
			C517.8,57.2,517.8,56.8,517.8,56.4z"/>
		<path class="st0" d="M418,53.2C418,53.2,418,53.2,418,53.2c-1.5-7.1-8-12.3-15.6-11.9c-7.6,0.4-13.8,6.5-14.3,14.1
			c-0.6,8.9,6.4,16.3,15.1,16.3c6,0,11.2-3.5,13.7-8.6c0.3-0.6-0.1-1.3-0.7-1.4l-3.6-0.7c-0.4-0.1-0.8,0.1-1,0.5
			c-1.7,2.8-4.8,4.7-8.3,4.7c-3,0-5.7-1.4-7.5-3.5l17.2-7.2L418,53.2z M393.5,57.6c0-0.4-0.1-0.8-0.1-1.2c0-5.4,4.4-9.7,9.7-9.7
			c3,0,5.8,1.4,7.5,3.6L393.5,57.6z"/>
		<path class="st0" d="M369.2,28.7h-3.6c-0.5,0-0.9,0.4-0.9,0.9v40.7c0,0.5,0.4,1,1,1h3.5c0.5,0,1-0.4,1-1V29.6
			C370.2,29.1,369.7,28.7,369.2,28.7z"/>
		<path class="st0" d="M381.5,28.7h-3.6c-0.5,0-0.9,0.4-0.9,0.9v40.7c0,0.5,0.4,1,1,1h3.5c0.5,0,1-0.4,1-1V29.6
			C382.4,29.1,382,28.7,381.5,28.7z"/>
		<path class="st0" d="M476.6,41.4h-3.1c-0.7,0-1.2,0.5-1.2,1.2v27.6c0,0.7,0.5,1.2,1.2,1.2h3.1c0.7,0,1.2-0.5,1.2-1.2V42.5
			C477.8,41.9,477.2,41.4,476.6,41.4z"/>
		<path class="st0" d="M466.4,41.4h-3.9c-0.4,0-0.8-0.4-0.8-0.8V29.5c0-0.4-0.4-0.8-0.8-0.8H457c-0.4,0-0.8,0.4-0.8,0.8v11.1
			c0,0.4-0.4,0.8-0.8,0.8h-3.9c-0.4,0-0.8,0.4-0.8,0.8V46c0,0.4,0.4,0.8,0.8,0.8h3.9c0.4,0,0.8,0.4,0.8,0.8v22.7c0,0.6,0.5,1,1,1
			h3.4c0.6,0,1-0.5,1-1V47.6c0-0.4,0.4-0.8,0.8-0.8h3.9c0.4,0,0.8-0.4,0.8-0.8v-3.9C467.2,41.7,466.9,41.4,466.4,41.4z"/>
		<path class="st0" d="M444.8,63.5c-0.4-0.4-1.1-0.4-1.5,0c-1.8,1.7-4.1,2.7-6.8,2.7c-5.7,0-10.3-5-9.7-10.8
			c0.5-4.5,4.2-8.1,8.7-8.6c2.8-0.3,5.5,0.7,7.4,2.4c0.6,0.5,1.5,0.5,2.1-0.1l1.7-1.7c0.6-0.6,0.6-1.6,0-2.2
			c-2.9-2.7-6.9-4.2-11.2-3.9c-7.7,0.5-13.9,6.9-14.2,14.7c-0.3,8.6,6.6,15.6,15.2,15.6c4.1,0,7.9-1.6,10.6-4.3
			c0.4-0.4,0.4-1.1,0-1.5L444.8,63.5z"/>
		<path class="st0" d="M325.1,63.5c-0.4-0.4-1.1-0.4-1.5,0c-1.8,1.7-4.1,2.7-6.8,2.7c-5.7,0-10.3-5-9.7-10.8
			c0.5-4.5,4.2-8.1,8.7-8.6c2.8-0.3,5.5,0.7,7.4,2.4c0.6,0.5,1.5,0.5,2.1-0.1l1.7-1.7c0.6-0.6,0.6-1.6,0-2.2
			c-2.9-2.7-6.9-4.2-11.2-3.9c-7.7,0.5-13.9,6.9-14.2,14.7c-0.3,8.6,6.6,15.6,15.2,15.6c4.1,0,7.9-1.6,10.6-4.3
			c0.4-0.4,0.4-1.1,0-1.5L325.1,63.5z"/>
		<path class="st0" d="M510,41.7h-4.9c-0.1,0-0.2,0.1-0.2,0.2l-8,23.5c-0.1,0.2-0.4,0.2-0.4,0l-8-23.5c0-0.1-0.1-0.2-0.2-0.2h-4.9
			c-0.2,0-0.3,0.2-0.2,0.3l9.9,29.1c0,0.1,0.1,0.2,0.2,0.2h6.8c0.1,0,0.2-0.1,0.2-0.2l9.9-29.1C510.3,41.9,510.2,41.7,510,41.7z"/>
	</g>
	<g>
		<path class="st1" d="M112.4,53.1c0,2.5-0.6,4.9-1.7,7c-0.4,0.8-0.2,1.7,0.4,2.4l3.4,3.4c0.9,0.9,2.5,0.7,3.2-0.4
			c2.2-3.6,3.4-7.9,3.4-12.4c0-4.5-1.2-8.8-3.4-12.4c-0.7-1.2-2.3-1.4-3.2-0.4l-3.4,3.4c-0.6,0.6-0.8,1.6-0.4,2.4
			C111.8,48.2,112.4,50.6,112.4,53.1z"/>
	</g>
	<g>
		<defs>
			<path id="SVGID_1_" d="M96.5,68.7c-8.8,0-16-7.4-15.6-16.3c0.3-8.2,7.2-14.8,15.4-14.9c2.7,0,5.3,0.6,7.6,1.8
				c0.6,0.3,1.3,0.2,1.8-0.3l4.1-4.1c0.7-0.7,0.6-1.9-0.3-2.4c-4.2-2.6-9.2-4-14.6-3.7c-12.1,0.8-22,10.6-22.7,22.8
				c-0.9,14.2,10.3,25.9,24.3,25.9c4.8,0,9.2-1.4,13-3.8c0.8-0.5,1-1.7,0.3-2.4l-4.1-4.1c-0.5-0.5-1.2-0.6-1.8-0.3
				C101.6,68.1,99.1,68.7,96.5,68.7z"/>
		</defs>
		<use xlink:href="#SVGID_1_"  style="overflow:visible;fill:#505E63;"/>
		<clipPath id="SVGID_2_">
			<use xlink:href="#SVGID_1_"  style="overflow:visible;"/>
		</clipPath>
	</g>
</g>
</svg>
