<?xml version="1.0" encoding="UTF-8" standalone="no"?>
<svg width="32px" height="32px" viewBox="0 0 32 32" version="1.1" xmlns="http://www.w3.org/2000/svg" xmlns:xlink="http://www.w3.org/1999/xlink">
    <!-- Generator: sketchtool 39.1 (31720) - http://www.bohemiancoding.com/sketch -->
    <title>35249C68-6EE6-4287-9376-3F8BD93357DB</title>
    <desc>Created with sketchtool.</desc>
    <defs></defs>
    <g id="Page-1" stroke="none" stroke-width="1" fill="none" fill-rule="evenodd">
        <g id="Editable-Version" transform="translate(-1475.000000, -915.000000)">
            <g id="::-all" transform="translate(55.000000, 98.000000)">
                <g id="::-edit-cover" transform="translate(-2.000000, 70.000000)">
                    <g id="::-cover-icon" transform="translate(1423.000000, 748.000000)">
                        <path d="M15.6905304,15.6467457 C16.3839384,15.6467457 16.9478693,15.085883 16.9478693,14.3967704 C16.9478693,13.7074533 16.3839384,13.1467951 15.6905304,13.1467951 C14.9971223,13.1467951 14.4329869,13.7074533 14.4329869,14.3967704 C14.4329869,15.085883 14.9971223,15.6467457 15.6905304,15.6467457 L15.6905304,15.6467457 Z M19.0908887,20.7047378 L19.0908887,19.2148311 L17.9470723,18.1264464 L16.3996883,19.5181715 C16.1278479,19.7493075 15.7467803,19.7448075 15.4798489,19.5081488 L11.5272187,16.0591087 L7.63636109,19.2246492 L7.63636109,20.7047378 L19.0908887,20.7047378 Z M7.63636109,12.3183873 L7.63636109,17.3659476 L11.0933784,14.5649065 C11.3654235,14.3392932 11.795991,14.3464523 12.0602633,14.580861 L15.9523481,18.0243784 L17.5774592,16.6400169 C17.8454134,16.4121536 18.1417993,16.4127673 18.4093443,16.6414487 L19.0908887,17.3301522 L19.0908887,12.3183873 L7.63636109,12.3183873 Z M20.9317949,21.5229184 C20.9317949,21.9747586 20.5654546,22.3410989 20.1136144,22.3410989 L6.81818054,22.3410989 C6.36613579,22.3410989 6,21.9747586 6,21.5229184 L6,11.5002067 C6,11.048162 6.36613579,10.6820262 6.81818054,10.6820262 L20.1136144,10.6820262 C20.5654546,10.6820262 20.9317949,11.048162 20.9317949,11.5002067 L20.9317949,21.5229184 Z M24.7541299,10.3490267 L22.8091102,19.7155576 C22.7489739,20.005398 22.4937016,20.204625 22.2089747,20.204625 C22.1676566,20.204625 22.1255203,20.2005341 22.0835886,20.1917386 C21.7518164,20.1228069 21.5384758,19.7979893 21.6074075,19.466217 L23.427041,10.7035034 L11.6969911,8.33446166 L11.4071507,9.64007326 C11.3335144,9.97082275 11.0058331,10.1800724 10.6750836,10.1060271 C10.3441296,10.0323908 10.1354936,9.70470953 10.2089253,9.37396004 L10.6292655,7.48069026 C10.7016745,7.15444077 11.0221967,6.94600928 11.349878,7.0122819 L24.2746761,9.62289147 C24.4348349,9.65500506 24.5753574,9.749914 24.6653573,9.88634561 C24.7553571,10.0225727 24.7872662,10.1890724 24.7541299,10.3490267 L24.7541299,10.3490267 Z" id="photo-group" fill="#FFFFFF"></path>
                        <circle id="Oval-179" stroke="#FFFFFF" stroke-width="2" cx="15" cy="15" r="15"></circle>
                    </g>
                </g>
            </g>
        </g>
    </g>
</svg>