<?xml version="1.0" encoding="UTF-8" standalone="no"?><!DOCTYPE svg PUBLIC "-//W3C//DTD SVG 1.1//EN" "http://www.w3.org/Graphics/SVG/1.1/DTD/svg11.dtd"><svg width="100%" height="100%" viewBox="0 0 244 175" version="1.1" xmlns="http://www.w3.org/2000/svg" xmlns:xlink="http://www.w3.org/1999/xlink" xml:space="preserve" style="fill-rule:evenodd;clip-rule:evenodd;stroke-linecap:round;stroke-linejoin:round;stroke-miterlimit:10;"><g><path d="M218.837,29.125c0,-2.209 -1.791,-4 -4,-4c-25.099,0 -160.614,0 -185.712,0c-2.209,0 -4,1.791 -4,4c0,18.674 0,97.157 0,115.831c0,2.21 1.791,4 4,4c25.098,0 160.613,0 185.712,0c2.209,0 4,-1.79 4,-4c0,-18.674 0,-97.157 0,-115.831Z" style="fill:#fdfdff;"/><path d="M215.004,22.627l0.166,0.006l0.164,0.01l0.164,0.015l0.163,0.019l0.163,0.022l0.161,0.027l0.159,0.031l0.158,0.034l0.158,0.038l0.155,0.042l0.154,0.046l0.152,0.05l0.151,0.053l0.149,0.056l0.147,0.06l0.145,0.064l0.144,0.067l0.141,0.07l0.139,0.073l0.137,0.077l0.136,0.081l0.132,0.082l0.131,0.086l0.129,0.089l0.126,0.092l0.123,0.095l0.121,0.097l0.119,0.101l0.117,0.104l0.114,0.106l0.111,0.108l0.109,0.112l0.106,0.114l0.103,0.116l0.101,0.119l0.098,0.121l0.095,0.125l0.091,0.125l0.089,0.128l0.087,0.131l0.083,0.133l0.079,0.135l0.077,0.137l0.074,0.14l0.07,0.142l0.067,0.142l0.063,0.146l0.061,0.148l0.056,0.147l0.053,0.151l0.05,0.153l0.045,0.153l0.043,0.157l0.038,0.156l0.034,0.158l0.031,0.16l0.026,0.161l0.023,0.162l0.019,0.163l0.014,0.164l0.011,0.165l0.006,0.166l0.002,0.151l0,115.863l-0.002,0.151l-0.006,0.166l-0.011,0.165l-0.014,0.164l-0.019,0.163l-0.023,0.162l-0.026,0.161l-0.031,0.16l-0.034,0.158l-0.038,0.156l-0.043,0.157l-0.046,0.153l-0.049,0.152l-0.053,0.152l-0.057,0.148l-0.06,0.147l-0.063,0.146l-0.067,0.143l-0.07,0.141l-0.074,0.14l-0.077,0.137l-0.079,0.134l-0.083,0.134l-0.087,0.131l-0.089,0.128l-0.092,0.126l-0.094,0.124l-0.098,0.121l-0.101,0.119l-0.104,0.117l-0.105,0.113l-0.108,0.111l-0.112,0.11l-0.114,0.106l-0.116,0.102l-0.119,0.101l-0.122,0.098l-0.123,0.095l-0.126,0.092l-0.129,0.089l-0.131,0.086l-0.133,0.083l-0.135,0.08l-0.137,0.076l-0.139,0.074l-0.142,0.071l-0.143,0.066l-0.145,0.064l-0.147,0.06l-0.149,0.056l-0.151,0.053l-0.152,0.05l-0.153,0.046l-0.156,0.042l-0.158,0.038l-0.158,0.035l-0.159,0.03l-0.161,0.027l-0.163,0.023l-0.162,0.018l-0.165,0.015l-0.164,0.01l-0.166,0.007l-0.151,0.001l-185.744,0l-0.151,-0.001l-0.166,-0.007l-0.165,-0.01l-0.164,-0.015l-0.163,-0.018l-0.162,-0.023l-0.161,-0.027l-0.16,-0.03l-0.158,-0.035l-0.157,-0.038l-0.156,-0.042l-0.153,-0.046l-0.153,-0.05l-0.15,-0.052l-0.149,-0.057l-0.147,-0.06l-0.146,-0.064l-0.143,-0.067l-0.141,-0.07l-0.14,-0.074l-0.137,-0.076l-0.134,-0.08l-0.134,-0.083l-0.131,-0.086l-0.128,-0.089l-0.126,-0.092l-0.123,-0.095l-0.122,-0.098l-0.119,-0.101l-0.116,-0.102l-0.114,-0.107l-0.112,-0.109l-0.108,-0.111l-0.106,-0.113l-0.104,-0.117l-0.1,-0.119l-0.098,-0.121l-0.095,-0.124l-0.092,-0.126l-0.089,-0.129l-0.086,-0.13l-0.083,-0.133l-0.08,-0.135l-0.077,-0.138l-0.073,-0.139l-0.07,-0.141l-0.067,-0.144l-0.064,-0.145l-0.06,-0.147l-0.056,-0.149l-0.054,-0.151l-0.049,-0.152l-0.046,-0.153l-0.042,-0.156l-0.038,-0.157l-0.034,-0.158l-0.031,-0.16l-0.027,-0.161l-0.022,-0.162l-0.019,-0.163l-0.015,-0.164l-0.01,-0.165l-0.006,-0.166l-0.002,-0.151l0,-115.863l0.002,-0.151l0.006,-0.166l0.01,-0.165l0.015,-0.164l0.019,-0.163l0.022,-0.162l0.027,-0.161l0.031,-0.16l0.034,-0.158l0.038,-0.157l0.042,-0.155l0.046,-0.154l0.05,-0.153l0.053,-0.15l0.056,-0.149l0.06,-0.147l0.064,-0.146l0.067,-0.143l0.07,-0.141l0.073,-0.139l0.077,-0.138l0.08,-0.135l0.083,-0.133l0.086,-0.13l0.089,-0.129l0.092,-0.125l0.095,-0.125l0.098,-0.122l0.1,-0.118l0.103,-0.116l0.107,-0.114l0.109,-0.112l0.11,-0.108l0.114,-0.106l0.117,-0.104l0.119,-0.101l0.122,-0.097l0.123,-0.095l0.126,-0.092l0.128,-0.089l0.131,-0.086l0.133,-0.083l0.135,-0.08l0.138,-0.077l0.139,-0.073l0.141,-0.07l0.143,-0.067l0.146,-0.064l0.146,-0.06l0.15,-0.056l0.15,-0.053l0.153,-0.05l0.154,-0.046l0.155,-0.042l0.157,-0.038l0.158,-0.034l0.16,-0.031l0.161,-0.027l0.162,-0.022l0.164,-0.019l0.163,-0.015l0.165,-0.01l0.166,-0.006l0.151,-0.002l185.744,0l0.151,0.002ZM29.14,27.625l-0.055,0l-0.04,0.002l-0.039,0.002l-0.038,0.004l-0.038,0.004l-0.037,0.005l-0.037,0.006l-0.036,0.007l-0.037,0.008l-0.035,0.009l-0.036,0.01l-0.034,0.01l-0.035,0.011l-0.034,0.012l-0.033,0.013l-0.034,0.014l-0.033,0.014l-0.033,0.015l-0.033,0.017l-0.032,0.017l-0.031,0.017l-0.031,0.018l-0.031,0.02l-0.03,0.019l-0.03,0.021l-0.029,0.022l-0.029,0.022l-0.029,0.023l-0.027,0.023l-0.027,0.024l-0.026,0.024l-0.027,0.026l-0.025,0.026l-0.025,0.026l-0.024,0.028l-0.024,0.028l-0.022,0.028l-0.022,0.028l-0.022,0.03l-0.02,0.03l-0.02,0.03l-0.02,0.031l-0.018,0.031l-0.018,0.031l-0.017,0.033l-0.016,0.032l-0.015,0.033l-0.014,0.032l-0.014,0.034l-0.013,0.034l-0.012,0.034l-0.011,0.035l-0.01,0.035l-0.01,0.035l-0.009,0.036l-0.008,0.036l-0.007,0.036l-0.006,0.037l-0.005,0.037l-0.004,0.038l-0.004,0.038l-0.002,0.039l-0.002,0.04l0,0.055l0,115.801l0,0.055l0.002,0.04l0.002,0.039l0.004,0.038l0.004,0.038l0.005,0.037l0.006,0.037l0.007,0.036l0.008,0.037l0.009,0.035l0.009,0.035l0.011,0.035l0.011,0.035l0.012,0.034l0.013,0.034l0.014,0.034l0.014,0.033l0.015,0.032l0.016,0.032l0.017,0.033l0.018,0.031l0.018,0.031l0.02,0.031l0.02,0.03l0.02,0.03l0.021,0.029l0.023,0.029l0.022,0.028l0.024,0.028l0.024,0.027l0.025,0.027l0.025,0.026l0.026,0.025l0.027,0.025l0.027,0.024l0.028,0.024l0.028,0.022l0.029,0.023l0.029,0.021l0.03,0.021l0.03,0.019l0.03,0.019l0.032,0.019l0.032,0.018l0.031,0.016l0.033,0.017l0.033,0.015l0.033,0.014l0.033,0.014l0.034,0.013l0.034,0.012l0.035,0.011l0.035,0.011l0.035,0.009l0.035,0.009l0.037,0.008l0.036,0.007l0.037,0.006l0.037,0.005l0.039,0.004l0.037,0.004l0.039,0.002l0.04,0.002l0.055,0l185.681,0l0.056,0l0.039,-0.002l0.039,-0.002l0.038,-0.004l0.038,-0.004l0.038,-0.005l0.036,-0.006l0.037,-0.007l0.036,-0.008l0.036,-0.009l0.035,-0.009l0.035,-0.011l0.035,-0.011l0.034,-0.012l0.034,-0.013l0.033,-0.014l0.033,-0.014l0.033,-0.016l0.032,-0.016l0.032,-0.016l0.032,-0.018l0.031,-0.018l0.031,-0.02l0.03,-0.019l0.029,-0.021l0.03,-0.021l0.029,-0.023l0.028,-0.022l0.027,-0.024l0.028,-0.024l0.027,-0.025l0.025,-0.025l0.026,-0.026l0.025,-0.027l0.024,-0.027l0.023,-0.027l0.023,-0.029l0.022,-0.029l0.022,-0.029l0.02,-0.03l0.02,-0.03l0.019,-0.03l0.019,-0.032l0.017,-0.032l0.017,-0.031l0.016,-0.033l0.016,-0.033l0.014,-0.032l0.013,-0.034l0.014,-0.034l0.011,-0.034l0.012,-0.035l0.01,-0.035l0.01,-0.034l0.008,-0.036l0.008,-0.037l0.007,-0.036l0.006,-0.037l0.006,-0.037l0.004,-0.039l0.003,-0.037l0.003,-0.039l0.001,-0.04l0.001,-0.055l0,-115.801l-0.001,-0.055l-0.001,-0.04l-0.003,-0.039l-0.003,-0.037l-0.004,-0.039l-0.006,-0.037l-0.006,-0.037l-0.007,-0.036l-0.008,-0.036l-0.008,-0.037l-0.01,-0.034l-0.01,-0.035l-0.011,-0.035l-0.012,-0.033l-0.014,-0.035l-0.013,-0.034l-0.014,-0.032l-0.016,-0.034l-0.016,-0.032l-0.017,-0.031l-0.017,-0.032l-0.019,-0.031l-0.019,-0.031l-0.02,-0.03l-0.02,-0.03l-0.022,-0.03l-0.022,-0.028l-0.023,-0.028l-0.023,-0.028l-0.024,-0.027l-0.025,-0.027l-0.025,-0.026l-0.027,-0.025l-0.026,-0.025l-0.027,-0.024l-0.028,-0.023l-0.028,-0.023l-0.029,-0.022l-0.03,-0.022l-0.029,-0.021l-0.03,-0.019l-0.032,-0.02l-0.03,-0.018l-0.031,-0.017l-0.033,-0.017l-0.033,-0.017l-0.032,-0.015l-0.033,-0.014l-0.034,-0.014l-0.033,-0.013l-0.034,-0.012l-0.035,-0.011l-0.035,-0.01l-0.035,-0.01l-0.036,-0.009l-0.036,-0.008l-0.037,-0.007l-0.036,-0.006l-0.038,-0.005l-0.037,-0.004l-0.039,-0.004l-0.039,-0.002l-0.039,-0.002l-0.056,0l-185.681,0Z" style="fill:#7faff5;"/><path d="M121.228,86.842c-0.192,0.121 -0.438,0.121 -0.63,0c-5.5,-3.46 -81.245,-51.114 -93.735,-58.973c-0.224,-0.14 -0.327,-0.412 -0.254,-0.665c0.073,-0.254 0.305,-0.428 0.569,-0.428c19.276,0 168.194,0 187.47,0c0.264,0 0.496,0.174 0.569,0.428c0.073,0.253 -0.03,0.525 -0.254,0.665c-12.49,7.859 -88.235,55.513 -93.735,58.973Z" style="fill:#fff;"/><path d="M214.778,24.278l0.127,0.008l0.124,0.013l0.125,0.018l0.125,0.023l0.123,0.028l0.118,0.033l0.12,0.038l0.119,0.043l0.11,0.045l0.114,0.051l0.111,0.056l0.107,0.059l0.106,0.065l0.102,0.067l0.099,0.072l0.095,0.075l0.092,0.078l0.093,0.085l0.088,0.088l0.081,0.088l0.082,0.095l0.078,0.099l0.07,0.097l0.068,0.102l0.065,0.107l0.063,0.113l0.056,0.112l0.053,0.116l0.047,0.118l0.043,0.118l0.038,0.125l0.033,0.122l0.027,0.122l0.023,0.127l0.017,0.125l0.012,0.123l0.007,0.131l0.002,0.124l-0.003,0.121l-0.009,0.125l-0.013,0.125l-0.018,0.121l-0.022,0.118l-0.028,0.122l-0.033,0.121l-0.036,0.113l-0.041,0.116l-0.046,0.115l-0.051,0.112l-0.055,0.111l-0.058,0.105l-0.063,0.104l-0.067,0.103l-0.074,0.103l-0.077,0.098l-0.08,0.094l-0.085,0.092l-0.086,0.087l-0.095,0.088l-0.097,0.083l-0.098,0.077l-0.104,0.074l-0.085,0.056l-93.777,59l-0.076,0.045l-0.095,0.054l-0.097,0.049l-0.12,0.056l-0.182,0.074l-0.207,0.067l-0.211,0.052l-0.212,0.037l-0.213,0.022l-0.214,0.008l-0.214,-0.008l-0.213,-0.022l-0.212,-0.037l-0.211,-0.052l-0.206,-0.067l-0.184,-0.074l-0.119,-0.056l-0.097,-0.049l-0.095,-0.054l-0.075,-0.045l-93.777,-58.999l-0.086,-0.057l-0.104,-0.075l-0.097,-0.076l-0.097,-0.082l-0.096,-0.089l-0.086,-0.087l-0.085,-0.092l-0.081,-0.095l-0.075,-0.097l-0.074,-0.102l-0.067,-0.103l-0.064,-0.105l-0.058,-0.107l-0.055,-0.109l-0.051,-0.114l-0.046,-0.113l-0.041,-0.114l-0.037,-0.117l-0.032,-0.117l-0.028,-0.122l-0.022,-0.122l-0.018,-0.121l-0.013,-0.123l-0.008,-0.123l-0.004,-0.125l0.002,-0.124l0.007,-0.125l0.012,-0.129l0.017,-0.123l0.023,-0.125l0.028,-0.126l0.032,-0.12l0.038,-0.123l0.044,-0.122l0.047,-0.116l0.052,-0.116l0.057,-0.114l0.06,-0.108l0.066,-0.109l0.069,-0.103l0.071,-0.098l0.077,-0.098l0.082,-0.096l0.083,-0.088l0.086,-0.087l0.093,-0.085l0.092,-0.078l0.094,-0.074l0.101,-0.073l0.102,-0.068l0.104,-0.063l0.108,-0.06l0.112,-0.056l0.113,-0.051l0.11,-0.045l0.119,-0.043l0.121,-0.039l0.118,-0.032l0.122,-0.028l0.125,-0.023l0.125,-0.018l0.124,-0.013l0.127,-0.008l0.104,-0.002l187.522,0l0.104,0.002ZM33.793,29.276l87.12,54.811l87.12,-54.811l-174.24,0Z" style="fill:#7faff5;"/><g><path d="M190.752,56.727c0,0 3.837,8.412 6.111,13.396c0.991,2.173 0.578,4.729 -1.047,6.479c-0.002,0.001 -0.003,0.003 -0.005,0.005c-1.286,1.385 -3.103,2.156 -4.993,2.118c-1.89,-0.037 -3.675,-0.88 -4.905,-2.315c0,0 0,-0.001 -0.001,-0.001c-1.417,-1.653 -1.778,-3.965 -0.933,-5.971c2.078,-4.936 5.773,-13.711 5.773,-13.711Z" style="fill:#fff;stroke-width:2px;stroke:#7faff5;"/></g><g><path d="M88.391,115.324c-1.411,-1.607 -2.268,-3.713 -2.268,-6.018c0,-5.035 4.088,-9.122 9.123,-9.122c5.035,0 9.123,4.087 9.123,9.122c0,2.305 -0.857,4.411 -2.269,6.018c-1.514,-1.166 -4.021,-1.929 -6.854,-1.929c-2.833,0 -5.34,0.763 -6.855,1.929Z" style="fill:#fff;stroke-width:2px;stroke:#7faff5;"/><path d="M137.559,115.324c-1.412,-1.607 -2.268,-3.713 -2.268,-6.018c0,-5.035 4.088,-9.122 9.123,-9.122c5.035,0 9.122,4.087 9.122,9.122c0,2.305 -0.856,4.411 -2.268,6.018c-1.514,-1.166 -4.021,-1.929 -6.854,-1.929c-2.834,0 -5.34,0.763 -6.855,1.929Z" style="fill:#fff;stroke-width:2px;stroke:#7faff5;"/><path d="M143.332,92.143l16.233,7.044" style="fill:none;stroke-width:2px;stroke:#7faff5;"/><path d="M98.309,92.143l-16.233,7.044" style="fill:none;stroke-width:2px;stroke:#7faff5;"/></g><path d="M111.706,124.585l18.229,0c0,0 0.167,9.114 -9.115,9.114c-9.281,0 -9.114,-9.114 -9.114,-9.114Z" style="fill:#fff;stroke-width:2px;stroke:#7faff5;"/></g></svg>