<?xml version="1.0" encoding="UTF-8" standalone="no"?>
<svg width="12px" height="12px" viewBox="0 0 12 12" version="1.1" xmlns="http://www.w3.org/2000/svg" xmlns:xlink="http://www.w3.org/1999/xlink">
    <!-- Generator: sketchtool 3.7.2 (28276) - http://www.bohemiancoding.com/sketch -->
    <title>E8DE4586-5F42-41C1-89FC-4DA35F86795D</title>
    <desc>Created with sketchtool.</desc>
    <defs></defs>
    <g id="Page-1" stroke="none" stroke-width="1" fill="none" fill-rule="evenodd">
        <g id="Onboarding" transform="translate(-922.000000, -1900.000000)" fill="#D8D8D8">
            <g id="::-step-2" transform="translate(80.000000, 1648.000000)">
                <g id="::-pick-a-repo" transform="translate(336.000000, 120.000000)">
                    <g id="::-repo" transform="translate(34.000000, 108.000000)">
                        <g id="::-repo-name" transform="translate(20.000000, 20.000000)">
                            <g id="::-stars" transform="translate(452.000000, 0.000000)">
                                <path d="M6,12.179501 C6.10322729,12.179501 6.20631821,12.2086828 6.29659095,12.2671828 L8.45304576,13.6643648 L7.78800022,11.3075918 C7.72990931,11.1018191 7.79754568,10.8810463 7.96090933,10.7429099 L10.0795914,8.95190971 L7.64631839,8.77681877 C7.44750018,8.76250059 7.27227289,8.64086421 7.18936378,8.45963692 L6,5.85740932 L4.81063622,8.45963692 C4.72772711,8.64086421 4.55249982,8.76250059 4.35368161,8.77681877 L1.92040858,8.95190971 L4.03909067,10.7429099 C4.20245432,10.8810463 4.27009069,11.1018191 4.21199978,11.3075918 L3.54695424,13.6643648 L5.70340905,12.2671828 C5.79368179,12.2086828 5.89677271,12.179501 6,12.179501 M9.37090951,15.4545469 C9.26795495,15.4545469 9.16486403,15.4253651 9.07445493,15.366865 L6,13.3748648 L2.92554507,15.366865 C2.73490869,15.4902742 2.48795411,15.4826378 2.30522681,15.3480469 C2.12249952,15.2133196 2.04245405,14.9794559 2.10409043,14.760865 L3.06668145,11.3493191 L0.193362916,8.92054607 C0.0239992585,8.77736423 -0.041864386,8.54595511 0.0268628952,8.33500054 C0.0955901765,8.12418233 0.285135655,7.97581868 0.5063175,7.96000049 L3.95277247,7.71195501 L5.50390903,4.31868186 C5.59268177,4.12450002 5.78659088,4 6,4 C6.21340912,4 6.40731823,4.12450002 6.49609097,4.31868186 L8.04722753,7.71195501 L11.4936825,7.96000049 C11.7148643,7.97581868 11.9044098,8.12418233 11.9731371,8.33500054 C12.0418644,8.54595511 11.9760007,8.77736423 11.8066371,8.92054607 L8.93331855,11.3493191 L9.89590957,14.760865 C9.95754595,14.9794559 9.87750048,15.2133196 9.69477319,15.3480469 C9.59877317,15.4188196 9.48504589,15.4545469 9.37090951,15.4545469" id="star"></path>
                            </g>
                        </g>
                    </g>
                </g>
            </g>
        </g>
    </g>
</svg>