<?xml version="1.0" encoding="UTF-8" standalone="no"?>
<svg width="15px" height="14px" viewBox="0 0 15 14" version="1.1" xmlns="http://www.w3.org/2000/svg" xmlns:xlink="http://www.w3.org/1999/xlink">
    <!-- Generator: Sketch 3.8.2 (29753) - http://www.bohemiancoding.com/sketch -->
    <title>user</title>
    <desc>Created with Sketch.</desc>
    <defs></defs>
    <g id="Page-1" stroke="none" stroke-width="1" fill="none" fill-rule="evenodd">
        <g id="Donation" transform="translate(-488.000000, -309.000000)" fill="#D7D9DB">
            <g id="::-donation-overlay" transform="translate(80.000000, 108.000000)">
                <g id="::-01-(user-info)" transform="translate(322.000000, 54.000000)">
                    <g id="::-user-info" transform="translate(78.000000, 132.000000)">
                        <g id="::-personal-info" transform="translate(0.000000, 1.000000)">
                            <g id="::-name">
                                <path d="M9.63652679,26.6385238 C10.3512515,25.8821567 12.0608549,25.0397505 13.4894942,24.5418251 L15.0336625,25.8550973 C15.2757389,26.0610404 15.6313999,26.0610404 15.8734762,25.8550973 L17.4176446,24.5418251 C18.8462839,25.0397505 20.5558873,25.8821567 21.270612,26.6385238 L9.63652679,26.6385238 Z M17.4733837,23.1938779 C17.2601491,23.1255003 17.0269846,23.1724896 16.8565265,23.3175086 L15.4534884,24.5105528 L14.0506122,23.3175086 C13.8801542,23.1724896 13.6469896,23.1255003 13.4337551,23.1938779 C12.5263739,23.4832677 8,25.0410468 8,27.2866532 C8,27.6445827 8.29019995,27.9347826 8.64812942,27.9347826 L22.2588473,27.9347826 C22.6167768,27.9347826 22.9069767,27.6445827 22.9069767,27.2866532 C22.9069767,25.0410468 18.3806029,23.4832677 17.4733837,23.1938779 L17.4733837,23.1938779 Z M15.4534884,15.2962588 C17.144458,15.2962588 18.5201127,16.6805013 18.5201127,18.3821651 C18.5201127,20.0841529 17.144458,21.4687194 15.4534884,21.4687194 C13.7626807,21.4687194 12.387026,20.0841529 12.387026,18.3821651 C12.387026,16.6805013 13.7626807,15.2962588 15.4534884,15.2962588 L15.4534884,15.2962588 Z M15.4534884,22.7649783 C17.8591828,22.7649783 19.8163716,20.7988777 19.8163716,18.3821651 C19.8163716,15.9657765 17.8591828,14 15.4534884,14 C13.047956,14 11.0907672,15.9657765 11.0907672,18.3821651 C11.0907672,20.7988777 13.047956,22.7649783 15.4534884,22.7649783 L15.4534884,22.7649783 Z" id="user"></path>
                            </g>
                        </g>
                    </g>
                </g>
            </g>
        </g>
    </g>
</svg>