<?xml version="1.0" encoding="UTF-8" standalone="no"?>
<svg width="47px" height="36px" viewBox="0 0 47 36" version="1.1" xmlns="http://www.w3.org/2000/svg" xmlns:xlink="http://www.w3.org/1999/xlink">
    <!-- Generator: Sketch 3.6.1 (26313) - http://www.bohemiancoding.com/sketch -->
    <title>:: travel</title>
    <desc>Created with Sketch.</desc>
    <defs></defs>
    <g stroke="none" stroke-width="1" fill-rule="evenodd">
        <g transform="translate(-178.000000, -572.000000)">
            <g transform="translate(178.000000, 572.000000)">
                <path d="M34.378,0.483 L34.52,0.483 C35.08,0.489 35.639,0.512 36.197,0.549 L46.072,1.264 C46.113,1.27 46.154,1.273 46.195,1.281 C46.316,1.305 46.433,1.352 46.537,1.418 C46.855,1.621 47.035,1.996 46.994,2.371 C46.985,2.453 46.966,2.534 46.937,2.611 C46.922,2.65 46.903,2.687 46.887,2.724 C45.316,5.735 43.757,8.752 42.173,11.756 C41.92,12.225 41.658,12.687 41.379,13.14 C40.783,14.107 40.124,15.034 39.406,15.913 C38.069,17.551 36.529,19.023 34.831,20.284 C34.039,20.873 33.212,21.411 32.359,21.908 L25.351,25.954 C23.576,29.122 21.623,32.186 19.762,35.304 C19.685,35.426 19.592,35.532 19.472,35.615 C19.305,35.73 19.107,35.789 18.909,35.79 L18.9,35.79 C18.717,35.79 18.534,35.74 18.374,35.64 C18.251,35.563 18.153,35.462 18.07,35.344 C17.107,33.787 16.238,32.174 15.323,30.589 L15.323,30.589 C15.301,30.551 15.281,30.512 15.265,30.472 C15.256,30.45 15.248,30.428 15.241,30.406 C15.237,30.394 15.233,30.383 15.23,30.371 C15.228,30.366 15.227,30.361 15.225,30.357 C15.147,30.076 15.148,30.077 15.068,29.797 C14.77,28.787 14.437,27.789 14.055,26.807 C13.361,25.023 12.522,23.296 11.551,21.645 C10.558,19.956 9.428,18.347 8.187,16.83 C7.48,15.965 6.735,15.133 5.965,14.325 L5.945,14.301 C5.933,14.287 5.921,14.273 5.909,14.259 L5.887,14.233 C5.883,14.227 5.879,14.221 5.876,14.215 C5.869,14.207 5.863,14.199 5.857,14.19 L5.843,14.167 C5.835,14.156 5.828,14.144 5.821,14.133 C4.869,12.595 4.012,10.999 3.108,9.432 C3.046,9.316 3,9.197 2.983,9.065 C2.93,8.672 3.122,8.274 3.464,8.072 C3.597,7.993 3.742,7.953 3.894,7.935 C7.537,7.764 11.186,7.706 14.832,7.766 C17.126,6.44 19.421,5.116 21.722,3.802 C22.211,3.529 22.706,3.267 23.211,3.024 C24.144,2.575 25.104,2.182 26.084,1.849 C26.28,1.782 26.477,1.718 26.674,1.656 C26.761,1.601 26.856,1.559 26.956,1.533 C27.02,1.516 27.037,1.515 27.103,1.506 C27.148,1.503 27.166,1.501 27.188,1.501 C28.572,1.099 29.988,0.814 31.419,0.65 C32.29,0.55 33.165,0.499 34.041,0.484 C34.191,0.483 34.247,0.483 34.326,0.483 L34.378,0.483 L34.378,0.483 Z M17.555,30.455 L18.918,32.817 L21.785,28.013 C20.375,28.827 18.965,29.641 17.555,30.455 L17.555,30.455 Z M27.194,3.589 C26.968,3.661 26.744,3.736 26.52,3.814 C25.549,4.154 24.601,4.558 23.682,5.021 C23.286,5.221 22.897,5.434 22.511,5.654 L15.612,9.637 C13.214,11.126 10.735,12.48 8.281,13.876 C8.426,14.035 8.569,14.197 8.712,14.358 C8.921,14.597 8.921,14.597 9.128,14.837 C9.603,15.397 10.067,15.965 10.515,16.547 C11.517,17.85 12.442,19.214 13.275,20.632 C14.198,22.2 15.008,23.835 15.695,25.52 C16.101,26.517 16.462,27.531 16.783,28.558 C19.199,27.113 21.675,25.767 24.113,24.359 C24.151,24.339 24.189,24.32 24.227,24.303 L24.233,24.301 C26.672,22.896 29.109,21.489 31.539,20.071 C32.262,19.641 32.964,19.18 33.638,18.678 C34.47,18.06 35.261,17.387 36.005,16.666 C36.007,16.563 36.009,16.461 36.009,16.359 C36.006,15.917 35.991,15.476 35.955,15.036 C35.884,14.17 35.741,13.309 35.513,12.471 C35.289,11.645 34.98,10.842 34.588,10.082 C34.318,9.559 34.009,9.057 33.665,8.58 C32.648,7.172 31.333,6.004 29.884,5.058 C29.026,4.498 28.123,4.017 27.194,3.589 L27.194,3.589 Z M11.472,24.904 C11.49,24.904 11.509,24.905 11.527,24.906 C11.676,24.919 11.818,24.957 11.949,25.03 C12.035,25.077 12.113,25.137 12.181,25.207 C12.472,25.508 12.545,25.972 12.359,26.347 C12.278,26.511 12.155,26.642 12.005,26.744 C11.124,27.283 10.229,27.8 9.321,28.294 C9.18,28.362 9.03,28.402 8.872,28.404 L8.865,28.404 L8.849,28.404 C8.483,28.398 8.142,28.186 7.975,27.86 C7.93,27.773 7.898,27.679 7.881,27.582 C7.86,27.47 7.859,27.354 7.878,27.242 C7.899,27.112 7.946,26.987 8.016,26.875 C8.094,26.749 8.199,26.647 8.322,26.564 C9.203,26.024 10.099,25.507 11.006,25.014 C11.126,24.956 11.248,24.921 11.381,24.907 C11.408,24.905 11.436,24.904 11.463,24.904 L11.472,24.904 L11.472,24.904 Z M11.635,25.815 C11.629,25.815 11.573,25.844 11.457,25.907 C10.595,26.405 9.719,26.881 8.87,27.401 L8.912,27.378 C9.698,26.949 11.656,25.821 11.635,25.815 L11.635,25.815 L11.635,25.815 Z M9.475,21.443 C9.493,21.443 9.511,21.444 9.53,21.444 C9.711,21.461 9.883,21.516 10.034,21.62 C10.377,21.858 10.539,22.298 10.431,22.702 C10.405,22.797 10.366,22.888 10.314,22.971 C10.235,23.098 10.13,23.2 10.007,23.283 C8.556,24.169 7.084,25.02 5.591,25.833 C5.457,25.897 5.317,25.938 5.168,25.942 C5.159,25.943 5.151,25.943 5.143,25.943 L5.131,25.943 C5.012,25.943 4.893,25.921 4.782,25.879 C4.69,25.844 4.603,25.796 4.526,25.736 C4.263,25.535 4.115,25.208 4.136,24.878 C4.144,24.763 4.171,24.65 4.217,24.544 C4.297,24.361 4.428,24.214 4.592,24.103 C6.043,23.217 7.516,22.365 9.009,21.553 C9.129,21.495 9.25,21.46 9.383,21.446 C9.411,21.444 9.438,21.443 9.465,21.443 L9.475,21.443 L9.475,21.443 Z M7.472,17.976 C7.491,17.976 7.509,17.976 7.527,17.977 C7.709,17.993 7.881,18.048 8.032,18.153 C8.361,18.381 8.525,18.796 8.44,19.188 C8.416,19.297 8.374,19.403 8.316,19.498 C8.237,19.627 8.131,19.73 8.007,19.815 C5.987,21.049 3.936,22.234 1.856,23.366 C1.723,23.43 1.582,23.47 1.434,23.475 C1.425,23.476 1.417,23.476 1.409,23.476 L1.397,23.476 C1.278,23.476 1.159,23.454 1.048,23.412 C0.736,23.294 0.498,23.021 0.425,22.696 C0.403,22.601 0.396,22.503 0.403,22.406 C0.411,22.294 0.437,22.184 0.481,22.081 C0.561,21.896 0.692,21.749 0.857,21.636 C2.877,20.401 4.928,19.217 7.007,18.085 C7.127,18.027 7.248,17.993 7.381,17.978 C7.409,17.977 7.436,17.976 7.463,17.976 L7.472,17.976 L7.472,17.976 Z M27.048,7.96 C27.072,7.961 27.1,7.961 27.145,7.961 C27.386,7.97 27.625,7.989 27.863,8.029 C28.336,8.109 28.798,8.256 29.229,8.466 C29.778,8.733 30.276,9.101 30.693,9.547 C31.096,9.98 31.422,10.485 31.651,11.031 C31.842,11.487 31.965,11.971 32.013,12.463 C32.116,13.504 31.885,14.567 31.361,15.471 C31.116,15.895 30.808,16.282 30.45,16.615 C30.018,17.019 29.513,17.344 28.967,17.573 C28.371,17.823 27.727,17.955 27.081,17.96 L27.05,17.96 C25.923,17.962 24.808,17.575 23.925,16.874 C23.568,16.591 23.251,16.258 22.985,15.889 C22.687,15.477 22.453,15.02 22.292,14.538 C22.137,14.072 22.052,13.584 22.039,13.094 C22.024,12.493 22.117,11.89 22.314,11.323 C22.512,10.751 22.813,10.217 23.201,9.753 C23.631,9.238 24.165,8.813 24.763,8.507 C25.207,8.28 25.686,8.119 26.178,8.034 C26.418,7.992 26.66,7.971 26.904,7.962 C26.964,7.961 26.994,7.96 27.025,7.96 L27.048,7.96 L27.048,7.96 Z M27.01,9.961 L26.955,9.961 C26.81,9.967 26.665,9.979 26.521,10.004 C26.226,10.056 25.94,10.152 25.674,10.288 C25.315,10.472 24.994,10.726 24.736,11.035 C24.503,11.313 24.323,11.634 24.204,11.977 C24.086,12.318 24.029,12.681 24.039,13.042 C24.046,13.335 24.097,13.627 24.19,13.906 C24.286,14.196 24.428,14.471 24.607,14.719 C24.766,14.94 24.956,15.138 25.169,15.308 C25.68,15.714 26.322,15.945 26.975,15.959 C26.998,15.96 27.02,15.96 27.043,15.96 L27.061,15.96 C27.399,15.958 27.736,15.898 28.054,15.783 C28.389,15.662 28.702,15.481 28.974,15.252 C29.181,15.078 29.363,14.876 29.515,14.653 C30.037,13.886 30.178,12.895 29.885,12.015 C29.773,11.677 29.599,11.359 29.377,11.081 C29.132,10.775 28.826,10.52 28.483,10.331 C28.1,10.122 27.679,10.004 27.245,9.968 C27.172,9.963 27.1,9.961 27.028,9.961 L27.01,9.961 L27.01,9.961 Z M27.776,10.502 C27.869,10.511 27.957,10.541 28.034,10.596 C28.075,10.626 28.111,10.662 28.141,10.703 C28.275,10.884 28.27,11.14 28.128,11.315 C28.053,11.407 27.946,11.471 27.829,11.492 C27.78,11.501 27.73,11.5 27.68,11.502 C27.623,11.505 27.608,11.506 27.551,11.511 C27.489,11.518 27.428,11.526 27.367,11.536 C27.185,11.571 27.008,11.625 26.843,11.71 C26.74,11.763 26.643,11.828 26.555,11.903 C26.481,11.966 26.414,12.036 26.354,12.112 C26.08,12.459 25.983,12.91 26.002,13.345 C26.011,13.53 26.039,13.714 26.082,13.894 C26.104,13.987 26.137,14.077 26.157,14.17 C26.161,14.195 26.164,14.22 26.165,14.245 C26.166,14.322 26.154,14.397 26.123,14.467 C26.098,14.521 26.065,14.571 26.023,14.613 C25.847,14.794 25.553,14.813 25.354,14.655 C25.28,14.596 25.228,14.519 25.195,14.431 C25.172,14.362 25.153,14.292 25.134,14.222 C25.05,13.89 24.998,13.553 25,13.21 C25.004,12.595 25.185,11.979 25.569,11.492 C25.686,11.343 25.821,11.208 25.969,11.09 C26.142,10.953 26.332,10.839 26.534,10.75 C26.856,10.608 27.198,10.536 27.547,10.508 C27.623,10.504 27.7,10.498 27.776,10.502 L27.776,10.502 Z M34.328,2.483 C34.255,2.483 34.203,2.483 34.065,2.484 C33.257,2.498 32.451,2.545 31.648,2.637 C31.14,2.695 30.633,2.77 30.13,2.861 C30.779,3.24 31.407,3.654 32.009,4.106 C32.898,4.776 33.725,5.529 34.457,6.367 C35.299,7.331 36.012,8.406 36.562,9.561 C36.993,10.465 37.323,11.416 37.557,12.39 C37.729,13.107 37.848,13.836 37.921,14.57 C38.558,13.782 39.144,12.954 39.676,12.092 C39.97,11.613 40.245,11.124 40.507,10.627 L44.409,3.149 C41.551,2.942 38.693,2.723 35.834,2.529 C35.613,2.516 35.613,2.516 35.391,2.506 C35.096,2.494 34.802,2.486 34.506,2.483 L34.375,2.483 L34.328,2.483 L34.328,2.483 Z M5.691,9.907 L7.055,12.269 C8.462,11.456 9.868,10.641 11.274,9.827 L5.691,9.907 L5.691,9.907 Z"></path>
            </g>
        </g>
    </g>
</svg>