<?xml version="1.0" standalone="no"?><!DOCTYPE svg PUBLIC "-//W3C//DTD SVG 1.1//EN" "http://www.w3.org/Graphics/SVG/1.1/DTD/svg11.dtd"><svg width="100%" height="100%" viewBox="0 0 29 37" version="1.1" xmlns="http://www.w3.org/2000/svg" xmlns:xlink="http://www.w3.org/1999/xlink" xml:space="preserve" style="fill-rule:evenodd;clip-rule:evenodd;stroke-linejoin:round;stroke-miterlimit:1.41421;"><path d="M13.006,12.048c0.281,0.017 0.557,0.065 0.825,0.156c0.582,0.198 1.097,0.576 1.459,1.074c0.128,0.176 0.233,0.365 0.323,0.564c2.891,6.91 5.565,13.909 8.347,20.863c0.01,0.029 0.022,0.058 0.03,0.088c0.036,0.12 0.048,0.245 0.038,0.369c-0.008,0.093 -0.029,0.185 -0.063,0.272c-0.135,0.354 -0.47,0.606 -0.848,0.639c-0.124,0.01 -0.25,-0.002 -0.369,-0.037c-0.03,-0.009 -0.059,-0.021 -0.088,-0.031l-20.783,-8.313c-0.371,-0.155 -0.708,-0.371 -0.993,-0.655c-0.618,-0.614 -0.942,-1.488 -0.875,-2.356c0.021,-0.275 0.08,-0.546 0.175,-0.805c0.096,-0.259 0.227,-0.505 0.39,-0.729c0.073,-0.101 0.154,-0.195 0.238,-0.287c3.262,-3.365 6.627,-6.629 9.941,-9.943c0.11,-0.107 0.225,-0.208 0.35,-0.298c0.297,-0.217 0.635,-0.378 0.991,-0.473c0.208,-0.056 0.419,-0.085 0.634,-0.098c0.093,-0.003 0.185,-0.003 0.278,0ZM21.932,0.017c0.154,0.011 0.304,0.036 0.451,0.086c0.401,0.137 0.74,0.43 0.932,0.807c0.082,0.161 0.132,0.331 0.162,0.509c0.373,3.069 0.565,6.158 0.903,9.232c0.025,0.178 0.062,0.354 0.118,0.525c0.162,0.49 0.462,0.919 0.855,1.251l-0.001,-0.001c0.081,0.068 0.161,0.136 0.24,0.206c0.076,0.069 0.151,0.139 0.224,0.209c0.289,0.285 0.556,0.588 0.796,0.915c0.574,0.783 0.99,1.679 1.217,2.623c0.127,0.528 0.19,1.066 0.202,1.608c0.037,5.247 0.065,10.495 0,15.741c-0.01,0.262 -0.058,0.519 -0.152,0.764c-0.265,0.686 -0.86,1.212 -1.572,1.391c-0.145,0.037 -0.293,0.059 -0.442,0.066c-0.112,0.006 -0.224,0.003 -0.333,-0.021c-0.114,-0.026 -0.223,-0.071 -0.321,-0.134c-0.332,-0.213 -0.511,-0.614 -0.447,-1.004c0.019,-0.115 0.058,-0.226 0.115,-0.328c0.057,-0.101 0.132,-0.193 0.22,-0.269c0.118,-0.101 0.259,-0.174 0.41,-0.211c0.037,-0.01 0.076,-0.017 0.114,-0.022c0.062,-0.008 0.128,-0.002 0.19,-0.015c0.026,-0.006 0.052,-0.016 0.076,-0.029c0.086,-0.05 0.139,-0.139 0.142,-0.238c0.066,-5.245 0.108,-10.493 -0.002,-15.737c-0.012,-0.345 -0.052,-0.687 -0.128,-1.023c-0.177,-0.784 -0.533,-1.525 -1.035,-2.153c-0.153,-0.192 -0.32,-0.373 -0.498,-0.542c-0.119,-0.112 -0.245,-0.217 -0.369,-0.322c-0.089,-0.078 -0.088,-0.078 -0.174,-0.158c-0.222,-0.217 -0.427,-0.449 -0.605,-0.704c-0.333,-0.474 -0.577,-1.009 -0.718,-1.57c-0.057,-0.226 -0.094,-0.454 -0.119,-0.686l-0.855,-8.767l-2.049,0l-0.785,8.044c-0.055,0.495 -0.191,0.977 -0.348,1.449c-0.162,0.485 -0.349,0.964 -0.574,1.424l-0.033,0.065c-0.02,0.034 -0.037,0.068 -0.059,0.101c-0.064,0.097 -0.145,0.182 -0.239,0.251c-0.284,0.211 -0.669,0.254 -0.993,0.113c-0.107,-0.047 -0.206,-0.112 -0.29,-0.192c-0.084,-0.08 -0.154,-0.175 -0.206,-0.279c-0.087,-0.174 -0.121,-0.373 -0.098,-0.566c0.012,-0.102 0.024,-0.127 0.054,-0.225c0.058,-0.132 0.123,-0.26 0.182,-0.392c0.145,-0.331 0.274,-0.67 0.385,-1.014c0.09,-0.278 0.172,-0.561 0.219,-0.85l0.006,-0.046c0.314,-2.801 0.548,-5.61 0.822,-8.414l0.008,-0.066c0.03,-0.178 0.079,-0.348 0.162,-0.509c0.192,-0.377 0.531,-0.67 0.931,-0.807c0.147,-0.05 0.298,-0.075 0.452,-0.086c0.952,-0.023 1.905,-0.023 2.857,0ZM11.195,19.553c-2.327,2.32 -4.716,4.58 -7.052,6.891l7.31,2.924c0.018,-0.212 0.07,-0.422 0.156,-0.62c0.072,-0.167 0.168,-0.324 0.283,-0.465c0.16,-0.196 0.357,-0.362 0.578,-0.485c0.256,-0.142 0.538,-0.222 0.83,-0.247c0.064,-0.004 0.127,-0.005 0.191,-0.004c0.291,0.01 0.576,0.076 0.839,0.206c0.225,0.111 0.429,0.266 0.598,0.453c0.134,0.148 0.246,0.316 0.33,0.498c0.259,0.56 0.243,1.226 -0.044,1.772c-0.058,0.111 -0.127,0.216 -0.205,0.314l6.227,2.491c-0.518,-1.296 -1.025,-2.599 -1.526,-3.903c-0.071,0.108 -0.156,0.206 -0.252,0.293c-0.131,0.118 -0.282,0.213 -0.445,0.279c-0.181,0.073 -0.375,0.111 -0.57,0.111c-0.195,0 -0.389,-0.038 -0.57,-0.111c-0.163,-0.066 -0.314,-0.161 -0.445,-0.279c-0.133,-0.12 -0.244,-0.262 -0.327,-0.42c-0.205,-0.392 -0.228,-0.865 -0.062,-1.275c0.056,-0.139 0.134,-0.27 0.229,-0.387c0.113,-0.138 0.251,-0.257 0.405,-0.348c0.214,-0.127 0.45,-0.19 0.697,-0.208c0.074,-0.002 0.073,-0.002 0.146,0c0.107,0.007 0.212,0.024 0.315,0.05c-0.926,-2.42 -1.85,-4.841 -2.825,-7.24c-0.127,0.217 -0.286,0.415 -0.468,0.588c-0.164,0.156 -0.348,0.292 -0.546,0.402c-0.249,0.139 -0.521,0.238 -0.801,0.292c-0.69,0.133 -1.419,-0.009 -2.006,-0.396c-0.243,-0.161 -0.461,-0.362 -0.641,-0.592c-0.14,-0.179 -0.258,-0.376 -0.349,-0.584ZM24.552,29.516c0.056,0.003 0.111,0.014 0.163,0.034c0.186,0.074 0.308,0.253 0.316,0.452c0.005,0.347 0.031,0.7 -0.003,1.047c-0.008,0.069 -0.029,0.136 -0.065,0.196c-0.032,0.056 -0.076,0.106 -0.128,0.145c-0.047,0.037 -0.102,0.065 -0.16,0.082c-0.228,0.069 -0.48,-0.039 -0.589,-0.251c-0.034,-0.067 -0.051,-0.139 -0.054,-0.214c-0.005,-0.348 -0.031,-0.7 0.003,-1.047c0.006,-0.051 0.019,-0.1 0.039,-0.147c0.073,-0.165 0.231,-0.275 0.409,-0.295c0.023,-0.002 0.046,-0.003 0.069,-0.002ZM13.99,30.383c0.008,-0.005 0.016,-0.01 0.024,-0.016c0.09,-0.063 0.171,-0.141 0.236,-0.23c0.179,-0.243 0.237,-0.562 0.158,-0.853c-0.032,-0.119 -0.085,-0.231 -0.158,-0.329c-0.075,-0.103 -0.17,-0.191 -0.277,-0.258c-0.125,-0.078 -0.264,-0.125 -0.41,-0.144c-0.048,-0.005 -0.096,-0.007 -0.144,-0.007c-0.146,0.006 -0.288,0.038 -0.419,0.103c-0.113,0.056 -0.215,0.134 -0.299,0.227c-0.22,0.244 -0.303,0.585 -0.231,0.899l1.52,0.608ZM18.418,28.032c-0.084,0.006 -0.164,0.027 -0.236,0.07c-0.234,0.138 -0.321,0.444 -0.195,0.684c0.028,0.053 0.066,0.102 0.111,0.143c0.045,0.04 0.096,0.072 0.151,0.094c0.061,0.025 0.128,0.038 0.194,0.038c0.066,0 0.133,-0.013 0.194,-0.038c0.055,-0.022 0.106,-0.054 0.151,-0.094c0.045,-0.041 0.083,-0.09 0.111,-0.143c0.126,-0.24 0.038,-0.546 -0.195,-0.684c-0.072,-0.043 -0.153,-0.064 -0.236,-0.07c-0.025,-0.001 -0.025,-0.001 -0.05,0ZM24.599,17.52c0.044,0.008 0.087,0.018 0.129,0.036c0.125,0.053 0.224,0.157 0.272,0.284c0.016,0.043 0.023,0.086 0.029,0.131c0.158,3.511 0.002,7.03 0.002,10.545c-0.006,0.137 -0.053,0.264 -0.154,0.361c-0.179,0.171 -0.464,0.184 -0.657,0.03c-0.047,-0.038 -0.087,-0.084 -0.118,-0.135c-0.039,-0.066 -0.058,-0.136 -0.069,-0.212c-0.157,-3.511 -0.002,-7.029 -0.002,-10.544c0.003,-0.061 0.011,-0.119 0.032,-0.176c0.053,-0.141 0.17,-0.253 0.314,-0.3c0.044,-0.014 0.087,-0.02 0.132,-0.024c0.045,0 0.045,0 0.09,0.004ZM9.983,23.047c0.293,0.01 0.579,0.076 0.842,0.206c0.227,0.112 0.432,0.268 0.601,0.455c0.135,0.149 0.247,0.318 0.331,0.5c0.261,0.562 0.244,1.231 -0.044,1.779c-0.102,0.194 -0.236,0.371 -0.395,0.522c-0.169,0.162 -0.367,0.293 -0.582,0.386c-0.237,0.103 -0.494,0.159 -0.752,0.165c-0.258,0.007 -0.517,-0.037 -0.758,-0.128c-0.218,-0.082 -0.421,-0.202 -0.597,-0.354c-0.167,-0.143 -0.311,-0.314 -0.423,-0.504c-0.315,-0.534 -0.364,-1.201 -0.131,-1.776c0.075,-0.184 0.177,-0.358 0.303,-0.512c0.161,-0.197 0.358,-0.363 0.58,-0.487c0.257,-0.143 0.54,-0.223 0.833,-0.248c0.064,-0.004 0.128,-0.005 0.192,-0.004ZM9.911,24.046c-0.147,0.006 -0.29,0.039 -0.422,0.104c-0.114,0.056 -0.217,0.135 -0.302,0.229c-0.078,0.087 -0.141,0.187 -0.185,0.295c-0.114,0.28 -0.094,0.606 0.053,0.87c0.054,0.097 0.124,0.184 0.206,0.258c0.074,0.067 0.159,0.124 0.25,0.166c0.11,0.051 0.23,0.082 0.352,0.09c0.121,0.009 0.244,-0.004 0.36,-0.039c0.094,-0.027 0.185,-0.069 0.267,-0.124c0.352,-0.232 0.524,-0.672 0.424,-1.082c-0.029,-0.119 -0.08,-0.233 -0.151,-0.334c-0.073,-0.105 -0.166,-0.197 -0.273,-0.267c-0.124,-0.082 -0.263,-0.133 -0.409,-0.155c-0.057,-0.008 -0.113,-0.011 -0.17,-0.011ZM14.012,15.155c-0.081,-0.181 -0.163,-0.361 -0.245,-0.541c-0.018,-0.037 -0.038,-0.073 -0.06,-0.108c-0.119,-0.181 -0.287,-0.322 -0.49,-0.398c-0.069,-0.026 -0.139,-0.042 -0.212,-0.054c-0.051,-0.006 -0.102,-0.009 -0.154,-0.009c-0.25,0.008 -0.481,0.101 -0.667,0.27c-3.363,3.26 -6.784,6.471 -9.935,9.937c-0.08,0.094 -0.145,0.199 -0.188,0.315c-0.129,0.352 -0.046,0.757 0.212,1.03c0.102,0.108 0.225,0.187 0.362,0.244l0.467,0.187c3.481,-3.773 7.264,-7.257 10.91,-10.873ZM14.467,16.183c-0.811,0.869 -1.637,1.724 -2.474,2.569c0.005,0.031 0.011,0.061 0.018,0.092c0.058,0.246 0.163,0.477 0.32,0.676c0.14,0.179 0.315,0.329 0.513,0.44c0.181,0.1 0.38,0.167 0.585,0.197c0.203,0.029 0.412,0.022 0.612,-0.022c0.162,-0.035 0.319,-0.095 0.464,-0.175c0.125,-0.07 0.241,-0.155 0.344,-0.254c0.381,-0.361 0.573,-0.886 0.523,-1.405c-0.13,-0.311 -0.261,-0.621 -0.393,-0.931c-0.012,-0.015 -0.025,-0.029 -0.037,-0.043c-0.035,-0.038 -0.072,-0.073 -0.104,-0.113c-0.018,-0.025 -0.033,-0.049 -0.048,-0.075c-0.03,-0.063 -0.05,-0.129 -0.055,-0.199c-0.002,-0.041 0.001,-0.082 0.008,-0.121c-0.091,-0.212 -0.183,-0.424 -0.276,-0.636Z" style="fill:#000;"/></svg>