<?xml version="1.0" encoding="UTF-8" standalone="no"?>
<svg width="31px" height="32px" viewBox="0 0 31 32" version="1.1" xmlns="http://www.w3.org/2000/svg" xmlns:xlink="http://www.w3.org/1999/xlink">
    <!-- Generator: Sketch 3.6.1 (26313) - http://www.bohemiancoding.com/sketch -->
    <title>:: web services@2x</title>
    <desc>Created with Sketch.</desc>
    <defs></defs>
    <g stroke="none" stroke-width="1" fill-rule="evenodd">
        <g transform="translate(-185.000000, -702.000000)">
            <path d="M189.125,729.347 C189.432,729.674 189.757,729.983 190.099,730.273 C191.151,731.165 192.351,731.864 193.618,732.403 C194.748,732.884 195.929,733.241 197.131,733.493 C197.573,733.586 198.018,733.665 198.465,733.731 C199.035,733.815 199.607,733.878 200.181,733.923 C200.895,733.979 201.611,734.007 202.327,734.011 C203.608,734.018 204.891,733.943 206.159,733.755 C207.257,733.591 208.344,733.343 209.396,732.988 C210.701,732.549 211.954,731.945 213.089,731.164 C213.818,730.663 214.489,730.088 215.106,729.455 C215.158,729.4 215.159,729.401 215.209,729.344 C215.296,729.234 215.366,729.114 215.411,728.981 C215.547,728.58 215.451,728.125 215.162,727.815 C215.116,727.764 215.064,727.718 215.009,727.677 C214.965,727.644 214.919,727.614 214.871,727.587 C214.705,727.496 214.506,727.436 214.316,727.447 C214.281,727.449 214.247,727.449 214.213,727.455 C214.129,727.469 214.048,727.501 213.977,727.549 C213.937,727.576 213.901,727.608 213.868,727.643 C213.789,727.733 213.708,727.822 213.627,727.911 C213.472,728.075 213.315,728.236 213.15,728.392 C212.779,728.742 212.383,729.066 211.966,729.361 C211.684,729.561 211.392,729.748 211.093,729.921 C209.142,731.049 206.906,731.593 204.678,731.806 C203.776,731.892 202.869,731.925 201.963,731.916 C200.228,731.898 198.49,731.707 196.809,731.269 C195.388,730.899 193.994,730.364 192.755,729.568 C192.027,729.101 191.355,728.546 190.76,727.918 C190.259,727.388 189.813,726.807 189.425,726.19 C188.725,725.078 188.201,723.857 187.883,722.581 C187.565,721.304 187.461,719.987 187.515,718.673 C187.586,716.967 187.925,715.276 188.511,713.672 C188.865,712.704 189.298,711.76 189.838,710.882 C190.325,710.09 190.899,709.352 191.552,708.689 C192.948,707.275 194.686,706.222 196.568,705.593 C198.121,705.073 199.756,704.832 201.39,704.778 C202.501,704.742 203.617,704.785 204.717,704.946 C206.24,705.168 207.74,705.623 209.075,706.4 C209.89,706.874 210.628,707.466 211.279,708.148 C212.038,708.942 212.672,709.855 213.122,710.859 C213.537,711.783 213.792,712.773 213.9,713.78 C214.016,714.872 213.972,715.982 213.749,717.058 C213.531,718.108 213.148,719.119 212.638,720.06 C212.193,720.883 211.647,721.651 210.994,722.322 C210.547,722.781 210.05,723.19 209.522,723.551 C209.068,723.861 208.572,724.146 208.032,724.273 C207.799,724.327 207.546,724.359 207.31,724.309 C206.947,724.233 206.643,723.968 206.501,723.628 C206.409,723.409 206.379,723.164 206.388,722.928 C206.393,722.774 206.414,722.621 206.437,722.469 C206.476,722.208 206.526,721.948 206.576,721.688 C207.233,718.437 207.986,715.205 208.624,711.95 C208.673,711.655 208.652,711.354 208.55,711.071 C208.48,710.879 208.375,710.699 208.242,710.544 C208.109,710.389 207.948,710.259 207.769,710.161 C207.309,709.911 206.744,709.886 206.266,710.102 C205.896,710.27 205.594,710.574 205.43,710.947 C205.361,711.103 205.326,711.265 205.289,711.431 L205.266,711.505 C205.23,711.579 205.193,711.641 205.131,711.696 C204.971,711.837 204.731,711.86 204.547,711.751 C204.475,711.709 204.428,711.654 204.379,711.589 C204.324,711.502 204.268,711.418 204.209,711.334 C203.972,711.007 203.701,710.709 203.384,710.458 C202.982,710.14 202.519,709.907 202.029,709.758 C201.551,709.614 201.051,709.548 200.552,709.536 C199.67,709.514 198.781,709.64 197.948,709.933 C197.291,710.163 196.673,710.497 196.113,710.91 C195.235,711.557 194.508,712.385 193.897,713.284 C193.269,714.205 192.759,715.206 192.401,716.261 C192.07,717.235 191.87,718.25 191.797,719.275 C191.714,720.423 191.767,721.597 192.118,722.7 C192.312,723.311 192.599,723.892 192.978,724.41 C193.516,725.146 194.232,725.766 195.05,726.172 C195.809,726.549 196.65,726.732 197.495,726.759 C198.131,726.78 198.769,726.713 199.382,726.535 C199.983,726.361 200.55,726.083 201.065,725.728 C201.386,725.506 201.684,725.255 201.967,724.985 L202.029,724.934 C202.09,724.899 202.104,724.886 202.172,724.866 C202.355,724.813 202.556,724.87 202.683,725.011 C202.731,725.064 202.736,725.083 202.77,725.145 C202.806,725.25 202.832,725.357 202.868,725.462 C202.934,725.641 203.017,725.813 203.13,725.967 C203.194,726.055 203.266,726.136 203.346,726.21 C203.425,726.284 203.512,726.351 203.605,726.408 C203.754,726.498 203.916,726.563 204.083,726.612 C204.323,726.682 204.572,726.72 204.821,726.742 C204.92,726.75 205.019,726.756 205.118,726.759 C205.249,726.764 205.38,726.764 205.511,726.762 C205.664,726.76 205.817,726.755 205.969,726.747 C206.652,726.71 207.332,726.609 207.994,726.434 C208.678,726.253 209.341,725.994 209.965,725.66 C211.105,725.05 212.1,724.2 212.94,723.222 C214.178,721.779 215.123,720.081 215.602,718.237 C215.883,717.156 216.004,716.038 215.987,714.921 C215.971,713.871 215.837,712.823 215.57,711.807 C215.334,710.908 214.996,710.037 214.566,709.213 C214.262,708.629 213.913,708.069 213.515,707.545 C213.059,706.947 212.541,706.397 211.972,705.907 C210.271,704.44 208.145,703.509 205.959,703.048 C204.842,702.812 203.704,702.7 202.564,702.676 C202.384,702.673 202.205,702.672 202.025,702.673 C200.574,702.687 199.126,702.825 197.708,703.14 C195.918,703.537 194.175,704.209 192.618,705.182 C191.956,705.596 191.329,706.065 190.747,706.584 C189.334,707.845 188.208,709.392 187.352,711.076 C186.744,712.27 186.27,713.532 185.95,714.834 C185.628,716.149 185.462,717.5 185.442,718.853 C185.423,720.179 185.544,721.506 185.832,722.801 C186.075,723.891 186.433,724.955 186.901,725.97 C187.161,726.535 187.452,727.088 187.785,727.615 L189.125,729.347 Z M200.861,711.562 C201.202,711.574 201.538,711.622 201.864,711.728 C202.123,711.813 202.371,711.931 202.601,712.078 C202.783,712.194 202.952,712.328 203.109,712.476 C203.297,712.654 203.467,712.85 203.613,713.064 C204.174,713.882 204.361,714.894 204.375,715.871 C204.384,716.493 204.329,717.116 204.227,717.729 C204.145,718.222 204.033,718.71 203.896,719.19 C203.812,719.485 203.72,719.778 203.619,720.068 C203.31,720.958 202.924,721.84 202.367,722.606 C202.199,722.836 202.014,723.054 201.816,723.259 C201.576,723.509 201.315,723.74 201.029,723.936 C200.84,724.064 200.639,724.177 200.434,724.276 C200.174,724.401 199.901,724.5 199.621,724.568 C199.296,724.647 198.962,724.687 198.628,724.686 C198.298,724.684 197.969,724.641 197.653,724.545 C197.399,724.467 197.156,724.357 196.93,724.217 C196.725,724.09 196.535,723.94 196.361,723.774 C196.175,723.595 196.007,723.398 195.864,723.182 C195.63,722.826 195.466,722.428 195.353,722.019 C195.2,721.462 195.138,720.883 195.122,720.308 C195.106,719.692 195.152,719.078 195.244,718.469 C195.312,718.018 195.404,717.571 195.513,717.128 C195.707,716.346 195.942,715.57 196.289,714.841 C196.501,714.397 196.752,713.971 197.051,713.58 C197.481,713.016 198.013,712.522 198.625,712.159 C198.92,711.984 199.235,711.841 199.564,711.74 C199.922,711.63 200.289,711.576 200.663,711.562 C200.762,711.561 200.761,711.561 200.861,711.562 L200.861,711.562 Z"></path>
        </g>
    </g>
</svg>