<?xml version="1.0" encoding="UTF-8" standalone="no"?>
<svg width="28px" height="42px" viewBox="0 0 28 42" version="1.1" xmlns="http://www.w3.org/2000/svg" xmlns:xlink="http://www.w3.org/1999/xlink">
    <!-- Generator: Sketch 3.6.1 (26313) - http://www.bohemiancoding.com/sketch -->
    <title>:: design</title>
    <desc>Created with Sketch.</desc>
    <defs></defs>
    <g stroke="none" stroke-width="1" fill-rule="evenodd">
        <g transform="translate(-190.000000, -487.000000)">
            <g transform="translate(190.000000, 487.000000)">
                <path d="M13.989,4.834 C14.011,4.833 14.03,4.834 14.073,4.836 L14.084,4.837 C14.186,4.85 14.282,4.87 14.377,4.909 C14.391,4.914 14.404,4.92 14.416,4.926 L14.428,4.931 C14.601,5.015 14.749,5.148 14.849,5.313 C14.875,5.356 14.889,5.382 14.901,5.411 C14.915,5.441 14.928,5.471 14.938,5.502 L14.939,5.502 C14.991,5.652 15.045,5.8 15.101,5.949 C15.253,6.343 15.419,6.732 15.6,7.114 C16.191,8.357 16.92,9.529 17.696,10.664 C18.596,11.979 19.563,13.246 20.507,14.529 C20.707,14.803 20.906,15.078 21.104,15.353 C21.961,16.558 22.79,17.789 23.451,19.114 C23.963,20.141 24.371,21.227 24.567,22.36 C24.629,22.719 24.669,23.081 24.685,23.444 C24.702,23.817 24.695,24.192 24.681,24.565 C24.647,25.478 24.541,26.39 24.345,27.284 C24.115,28.332 23.76,29.354 23.255,30.302 C22.657,31.426 21.847,32.435 20.856,33.237 C20.727,33.341 20.596,33.441 20.463,33.537 C20.383,33.662 20.3,33.785 20.221,33.911 C19.865,34.487 19.545,35.084 19.276,35.706 C18.872,36.639 18.58,37.619 18.411,38.622 C18.325,39.133 18.269,39.649 18.243,40.166 C18.234,40.346 18.228,40.526 18.226,40.706 C18.225,40.817 18.227,40.929 18.224,41.041 C18.219,41.097 18.219,41.096 18.211,41.152 C18.182,41.301 18.129,41.44 18.042,41.564 C17.966,41.671 17.869,41.762 17.758,41.832 C17.42,42.046 16.974,42.034 16.648,41.803 C16.556,41.738 16.475,41.658 16.41,41.566 C16.3,41.411 16.243,41.233 16.227,41.044 C16.223,40.923 16.225,40.802 16.226,40.68 C16.234,40.223 16.257,39.767 16.302,39.312 C16.388,38.446 16.548,37.587 16.785,36.749 C16.953,36.153 17.16,35.569 17.402,35 C17.192,35.06 16.98,35.114 16.767,35.161 C15.858,35.362 14.931,35.445 14.002,35.451 C13.695,35.452 13.389,35.441 13.084,35.421 C12.237,35.366 11.393,35.229 10.578,34.997 C10.602,35.053 10.625,35.109 10.648,35.165 C11.155,36.396 11.49,37.694 11.648,39.016 C11.707,39.517 11.742,40.021 11.753,40.525 C11.755,40.629 11.756,40.733 11.757,40.836 C11.757,40.962 11.76,41.086 11.731,41.21 C11.702,41.338 11.647,41.459 11.571,41.566 C11.495,41.673 11.398,41.764 11.287,41.834 C10.948,42.046 10.503,42.033 10.177,41.801 C10.085,41.736 10.005,41.655 9.94,41.564 C9.83,41.408 9.774,41.23 9.758,41.041 C9.753,40.839 9.755,40.637 9.75,40.435 C9.726,39.785 9.664,39.138 9.549,38.498 C9.363,37.46 9.046,36.447 8.609,35.488 C8.394,35.017 8.152,34.559 7.886,34.115 C7.803,33.978 7.719,33.842 7.632,33.708 C7.593,33.647 7.553,33.588 7.514,33.528 C7.385,33.434 7.258,33.337 7.134,33.237 C5.964,32.291 5.054,31.06 4.435,29.693 C3.942,28.606 3.63,27.442 3.46,26.261 C3.379,25.699 3.33,25.132 3.309,24.565 C3.293,24.14 3.286,23.713 3.313,23.289 C3.349,22.719 3.444,22.155 3.586,21.603 C3.861,20.534 4.308,19.517 4.833,18.549 C5.546,17.238 6.404,16.013 7.279,14.807 C7.884,13.98 8.499,13.159 9.106,12.333 C10.222,10.804 11.316,9.245 12.175,7.553 C12.392,7.127 12.593,6.692 12.773,6.249 C12.833,6.104 12.89,5.958 12.944,5.81 C12.971,5.739 13.004,5.66 13.027,5.583 C13.03,5.571 13.033,5.559 13.037,5.547 L13.037,5.546 L13.037,5.545 C13.039,5.538 13.041,5.531 13.044,5.524 C13.052,5.498 13.061,5.473 13.072,5.448 L13.072,5.447 L13.073,5.446 C13.085,5.418 13.098,5.39 13.112,5.364 C13.127,5.334 13.142,5.307 13.173,5.264 C13.254,5.145 13.362,5.046 13.485,4.973 L13.485,4.973 L13.485,4.973 L13.486,4.972 L13.488,4.971 C13.528,4.947 13.569,4.927 13.612,4.909 C13.617,4.907 13.622,4.905 13.627,4.903 C13.639,4.898 13.652,4.893 13.664,4.889 C13.712,4.872 13.76,4.861 13.808,4.852 C13.843,4.845 13.88,4.84 13.916,4.836 C13.932,4.835 13.944,4.835 13.955,4.834 C13.96,4.834 13.966,4.833 13.972,4.833 L13.989,4.834 L13.989,4.834 Z M12.493,36.177 C12.64,36.189 12.776,36.255 12.866,36.375 C12.896,36.414 12.917,36.456 12.936,36.502 C12.978,36.628 13.014,36.757 13.051,36.885 C13.32,37.854 13.491,38.846 13.558,39.85 C13.575,40.114 13.586,40.378 13.59,40.643 C13.592,40.767 13.595,40.892 13.591,41.017 C13.588,41.046 13.584,41.074 13.578,41.103 C13.558,41.179 13.525,41.248 13.474,41.309 C13.326,41.484 13.071,41.536 12.866,41.432 C12.814,41.406 12.767,41.371 12.727,41.328 C12.653,41.249 12.61,41.15 12.595,41.043 C12.587,40.951 12.592,40.858 12.592,40.766 C12.59,40.623 12.587,40.48 12.582,40.338 C12.55,39.555 12.46,38.775 12.298,38.008 C12.246,37.76 12.186,37.513 12.119,37.268 C12.076,37.11 12.025,36.953 11.981,36.795 C11.975,36.766 11.971,36.738 11.968,36.708 C11.966,36.65 11.971,36.592 11.987,36.536 C12.028,36.395 12.132,36.277 12.266,36.218 C12.32,36.194 12.376,36.183 12.435,36.177 C12.464,36.176 12.463,36.176 12.493,36.177 L12.493,36.177 Z M14.995,21.411 C15.825,21.792 16.402,22.631 16.402,23.604 C16.402,24.935 15.322,26.016 13.991,26.016 C12.66,26.016 11.58,24.935 11.58,23.604 C11.58,22.628 12.16,21.787 12.995,21.408 L12.995,10.176 C12.967,10.223 12.938,10.269 12.91,10.315 C12.291,11.316 11.615,12.28 10.925,13.233 C10.253,14.153 9.569,15.065 8.896,15.985 C8.073,17.12 7.261,18.271 6.591,19.505 C6.104,20.399 5.688,21.345 5.465,22.342 C5.386,22.695 5.332,23.054 5.309,23.416 C5.286,23.773 5.294,24.132 5.307,24.489 C5.332,25.158 5.401,25.827 5.523,26.485 C5.683,27.34 5.934,28.181 6.303,28.969 C6.763,29.951 7.41,30.844 8.235,31.551 C8.493,31.773 8.768,31.976 9.055,32.158 C10.561,33.114 12.365,33.469 14.13,33.45 C15.023,33.44 15.918,33.334 16.781,33.098 C17.803,32.818 18.773,32.349 19.598,31.681 C19.889,31.447 20.16,31.189 20.411,30.911 C20.595,30.707 20.768,30.492 20.929,30.268 C21.911,28.899 22.412,27.243 22.601,25.583 C22.653,25.126 22.682,24.666 22.691,24.205 C22.697,23.862 22.696,23.519 22.661,23.177 C22.612,22.688 22.507,22.206 22.364,21.736 C22.084,20.819 21.661,19.95 21.185,19.121 C20.557,18.029 19.83,16.999 19.091,15.981 C18.487,15.155 17.873,14.336 17.267,13.511 C16.54,12.513 15.825,11.507 15.171,10.459 C15.111,10.365 15.053,10.27 14.995,10.174 L14.995,21.411 L14.995,21.411 Z M2.975,3 C2.784,3.415 2.362,3.703 1.872,3.703 C1.203,3.703 0.659,3.164 0.659,2.5 C0.659,1.836 1.203,1.297 1.872,1.297 C2.362,1.297 2.784,1.585 2.975,2 L12.451,2 C12.65,1.333 13.269,0.847 14,0.847 C14.731,0.847 15.35,1.333 15.549,2 L25.025,2 C25.216,1.585 25.638,1.297 26.128,1.297 C26.797,1.297 27.341,1.836 27.341,2.5 C27.341,3.164 26.797,3.703 26.128,3.703 C25.638,3.703 25.216,3.415 25.025,3 L15.526,3 C15.304,3.629 14.705,4.081 14,4.081 C13.295,4.081 12.696,3.629 12.474,3 L2.975,3 L2.975,3 Z"></path>
            </g>
        </g>
    </g>
</svg>