<?xml version="1.0" standalone="no"?><!DOCTYPE svg PUBLIC "-//W3C//DTD SVG 1.1//EN" "http://www.w3.org/Graphics/SVG/1.1/DTD/svg11.dtd"><svg width="100%" height="100%" viewBox="0 0 29 35" version="1.1" xmlns="http://www.w3.org/2000/svg" xmlns:xlink="http://www.w3.org/1999/xlink" xml:space="preserve" style="fill-rule:evenodd;clip-rule:evenodd;stroke-linejoin:round;stroke-miterlimit:1.41421;"><path d="M23.091,9.732c0.026,-0.022 0.052,-0.043 0.078,-0.064c0.666,-0.529 1.546,-0.753 2.383,-0.608c0.323,0.057 0.629,0.168 0.918,0.32c0.067,0.038 0.067,0.038 0.133,0.077c0.276,0.174 0.526,0.384 0.736,0.635c0.561,0.672 0.804,1.577 0.653,2.44c-0.056,0.322 -0.167,0.628 -0.32,0.917c-2.04,3.555 -4.041,7.021 -6.087,10.544c-0.214,0.339 -0.482,0.636 -0.808,0.87c-0.733,0.526 -1.686,0.696 -2.555,0.454c-0.292,-0.081 -0.572,-0.207 -0.827,-0.372c-0.272,-0.176 -0.516,-0.397 -0.717,-0.651c-0.226,-0.284 -0.399,-0.608 -0.509,-0.953c-0.117,-0.367 -0.163,-0.755 -0.135,-1.139c0.008,-0.109 0.023,-0.217 0.043,-0.323l-2.747,-1.586c0,0 -7.493,13.017 -8.02,13.89c-0.066,0.099 -0.143,0.187 -0.237,0.259c-0.22,0.169 -0.506,0.24 -0.778,0.193c-0.105,-0.018 -0.202,-0.054 -0.297,-0.101c-1.19,-0.656 -2.368,-1.336 -3.532,-2.039c-0.088,-0.058 -0.167,-0.125 -0.235,-0.206c-0.177,-0.213 -0.259,-0.496 -0.223,-0.77c0.016,-0.118 0.054,-0.229 0.107,-0.335c0.492,-0.894 8.019,-13.891 8.019,-13.891l-2.776,-1.603c-0.064,0.055 -0.13,0.107 -0.199,0.157c-0.732,0.525 -1.686,0.695 -2.554,0.454c-0.293,-0.082 -0.573,-0.208 -0.827,-0.373c-0.273,-0.176 -0.516,-0.397 -0.718,-0.651c-0.225,-0.283 -0.398,-0.608 -0.508,-0.953c-0.118,-0.367 -0.164,-0.755 -0.135,-1.139c0.031,-0.425 0.157,-0.832 0.356,-1.208c1.984,-3.54 4.014,-7.055 6.087,-10.544c0.187,-0.297 0.416,-0.563 0.692,-0.782c0.665,-0.529 1.545,-0.753 2.383,-0.607c0.322,0.056 0.628,0.167 0.917,0.32c0.068,0.038 0.067,0.037 0.133,0.077c0.277,0.174 0.526,0.383 0.736,0.634c0.545,0.652 0.791,1.527 0.666,2.368c-0.007,0.042 -0.014,0.083 -0.022,0.125c3.579,2.048 7.216,4.002 10.726,6.164ZM4.598,31.417l-1.732,-1l-0.5,0.866l1.732,1l0.5,-0.866ZM11.598,19.293l-1.732,-1l-5.985,10.365l1.732,1l5.985,-10.365ZM24.16,11.534l-6.025,10.439c-0.055,0.111 -0.092,0.229 -0.104,0.353c-0.028,0.282 0.068,0.571 0.26,0.779c0.08,0.087 0.176,0.159 0.281,0.213c0.096,0.049 0.199,0.082 0.306,0.098c0.119,0.018 0.242,0.013 0.36,-0.012c0.126,-0.028 0.246,-0.079 0.353,-0.152c0.117,-0.08 0.212,-0.183 0.288,-0.303c2.06,-3.467 4.166,-6.912 6.049,-10.479c0.044,-0.089 0.077,-0.183 0.094,-0.281c0.048,-0.279 -0.027,-0.574 -0.203,-0.796c-0.073,-0.092 -0.161,-0.167 -0.26,-0.229c-0.023,-0.014 -0.022,-0.014 -0.045,-0.027c-0.096,-0.05 -0.198,-0.087 -0.305,-0.106c-0.279,-0.049 -0.574,0.026 -0.795,0.203c-0.092,0.073 -0.168,0.161 -0.23,0.26l-0.022,0.037l-0.002,0.003ZM9.805,4.398c0.17,-0.314 0.338,-0.629 0.505,-0.944c0.048,-0.097 0.082,-0.199 0.098,-0.306c0.041,-0.272 -0.035,-0.557 -0.207,-0.772c-0.072,-0.091 -0.161,-0.167 -0.259,-0.229c-0.023,-0.014 -0.023,-0.014 -0.046,-0.026c-0.096,-0.051 -0.197,-0.088 -0.304,-0.107c-0.279,-0.048 -0.574,0.027 -0.796,0.203c-0.092,0.073 -0.167,0.161 -0.229,0.26c-2.061,3.467 -4.167,6.912 -6.049,10.479c-0.056,0.111 -0.092,0.229 -0.105,0.353c-0.027,0.282 0.068,0.571 0.261,0.779c0.08,0.087 0.175,0.159 0.28,0.213c0.096,0.049 0.2,0.082 0.306,0.098c0.12,0.018 0.242,0.013 0.36,-0.012c0.126,-0.028 0.247,-0.079 0.353,-0.152c0.117,-0.079 0.213,-0.183 0.288,-0.303c0.41,-0.69 5.544,-9.534 5.544,-9.534ZM8.268,15.061l5,-8.661l-1.732,-1l-5,8.661l1.732,1ZM10,16.061l3.529,2.037l5,-8.66l-3.562,-2.059l-4.967,8.682ZM21.918,11.395l-1.742,-1.006l-5,8.66l1.742,1.006c1.637,-2.904 3.303,-5.791 5,-8.66Z" style="fill:#000;"/></svg>