<?xml version="1.0" encoding="UTF-8" standalone="no"?>
<svg width="44px" height="32px" viewBox="0 0 44 32" version="1.1" xmlns="http://www.w3.org/2000/svg" xmlns:xlink="http://www.w3.org/1999/xlink">
    <!-- Generator: Sketch 3.6.1 (26313) - http://www.bohemiancoding.com/sketch -->
    <title>:: engeneering</title>
    <desc>Created with Sketch.</desc>
    <defs></defs>
    <g stroke="none" stroke-width="1" fill-rule="evenodd">
        <g transform="translate(-258.000000, -492.000000)">
            <g transform="translate(258.000000, 492.000000)">
                <path d="M28.541,0.354 C28.65,0.373 28.752,0.395 28.852,0.443 C29.184,0.6 29.407,0.935 29.424,1.302 C29.429,1.41 29.416,1.519 29.386,1.623 C29.376,1.658 29.362,1.691 29.35,1.725 L17.255,31.333 C17.24,31.366 17.226,31.399 17.209,31.431 C17.14,31.558 17.043,31.67 16.928,31.756 C16.841,31.821 16.743,31.872 16.64,31.905 C16.255,32.031 15.821,31.907 15.562,31.596 C15.492,31.512 15.436,31.418 15.397,31.317 C15.332,31.148 15.313,30.963 15.344,30.785 C15.36,30.689 15.372,30.667 15.404,30.577 L27.499,0.969 C27.54,0.882 27.547,0.858 27.602,0.779 C27.725,0.6 27.907,0.464 28.114,0.397 C28.22,0.362 28.323,0.352 28.433,0.347 C28.469,0.349 28.505,0.352 28.541,0.354 L28.541,0.354 Z M28.762,26.779 C28.895,26.781 29.027,26.81 29.149,26.863 C29.256,26.911 29.355,26.977 29.44,27.059 C29.695,27.305 29.801,27.677 29.716,28.02 C29.692,28.116 29.654,28.208 29.603,28.293 C29.538,28.4 29.454,28.494 29.354,28.571 C29.223,28.672 29.089,28.784 28.945,28.873 C28.841,28.937 28.727,28.982 28.608,29.004 C28.22,29.078 27.816,28.911 27.594,28.585 C27.532,28.494 27.485,28.393 27.456,28.287 C27.424,28.17 27.413,28.047 27.425,27.926 C27.438,27.797 27.475,27.672 27.535,27.557 C27.601,27.432 27.692,27.324 27.802,27.236 C27.938,27.13 28.074,27.019 28.221,26.927 C28.358,26.844 28.511,26.794 28.671,26.781 C28.701,26.779 28.732,26.778 28.762,26.779 L28.762,26.779 Z M13.342,5.272 C13.372,5.275 13.401,5.277 13.431,5.282 C13.549,5.302 13.663,5.343 13.767,5.403 C14.11,5.601 14.307,5.995 14.26,6.388 C14.25,6.477 14.227,6.565 14.193,6.648 C14.147,6.759 14.082,6.861 14.001,6.949 C13.946,7.007 13.929,7.018 13.867,7.069 L2.708,15.438 L2.708,16.619 L14.884,25.751 C14.907,25.77 14.931,25.788 14.954,25.808 C15.043,25.888 15.117,25.984 15.172,26.09 C15.227,26.197 15.263,26.313 15.277,26.432 C15.324,26.825 15.127,27.219 14.784,27.417 C14.68,27.477 14.566,27.518 14.448,27.537 C14.241,27.572 14.025,27.539 13.837,27.445 C13.765,27.409 13.75,27.396 13.684,27.351 L0.708,17.619 L0.708,14.438 L12.667,5.469 C12.733,5.424 12.748,5.41 12.82,5.374 C12.927,5.321 13.044,5.287 13.163,5.274 C13.192,5.271 13.222,5.271 13.252,5.269 C13.282,5.27 13.312,5.271 13.342,5.272 L13.342,5.272 Z M30.865,4.795 C30.943,4.806 30.964,4.807 31.04,4.829 C31.158,4.864 31.259,4.921 31.36,4.989 L43.958,14.438 L43.958,17.619 L31.774,26.757 C31.75,26.774 31.726,26.792 31.7,26.807 C31.598,26.87 31.485,26.915 31.368,26.938 C31.25,26.961 31.129,26.963 31.011,26.943 C30.62,26.878 30.297,26.579 30.203,26.194 C30.174,26.078 30.167,25.956 30.181,25.838 C30.206,25.629 30.298,25.431 30.441,25.277 C30.495,25.218 30.513,25.207 30.574,25.157 L41.958,16.619 L41.958,15.438 L30.16,6.589 C30.137,6.57 30.113,6.552 30.09,6.532 C30.002,6.452 29.927,6.356 29.872,6.25 C29.817,6.143 29.781,6.027 29.767,5.908 C29.72,5.515 29.917,5.121 30.26,4.923 C30.364,4.863 30.478,4.822 30.596,4.803 C30.675,4.789 30.695,4.792 30.775,4.789 C30.805,4.791 30.835,4.793 30.865,4.795 L30.865,4.795 Z M16.264,3.035 C16.395,3.038 16.523,3.065 16.644,3.117 C17.039,3.288 17.284,3.707 17.241,4.135 C17.23,4.25 17.198,4.362 17.148,4.466 C17.09,4.589 17.006,4.697 16.905,4.787 C16.7,4.964 16.476,5.119 16.256,5.276 C16.153,5.348 16.038,5.401 15.916,5.431 C15.519,5.527 15.092,5.364 14.859,5.028 C14.793,4.933 14.744,4.827 14.714,4.716 C14.683,4.6 14.674,4.478 14.686,4.358 C14.699,4.229 14.738,4.102 14.799,3.987 C14.866,3.863 14.958,3.755 15.069,3.668 C15.279,3.508 15.485,3.336 15.708,3.192 C15.836,3.111 15.979,3.06 16.129,3.042 C16.174,3.037 16.219,3.034 16.264,3.035 L16.264,3.035 Z"></path>
            </g>
        </g>
    </g>
</svg>