<?xml version="1.0" encoding="UTF-8" standalone="no"?>
<svg width="45px" height="39px" viewBox="0 0 45 39" version="1.1" xmlns="http://www.w3.org/2000/svg" xmlns:xlink="http://www.w3.org/1999/xlink">
    <!-- Generator: Sketch 3.6.1 (26313) - http://www.bohemiancoding.com/sketch -->
    <title>:: fund</title>
    <desc>Created with Sketch.</desc>
    <defs></defs>
    <g stroke="none" stroke-width="1" fill-rule="evenodd">
        <g transform="translate(-105.000000, -641.000000)">
            <g transform="translate(105.000000, 641.000000)">
                <path d="M16.281,8.958 C16.279,8.953 16.278,8.948 16.276,8.944 C16.253,8.875 16.24,8.807 16.229,8.735 C16.221,8.646 16.218,8.557 16.215,8.468 C16.195,7.552 16.311,6.639 16.58,5.763 C16.82,4.985 17.175,4.243 17.635,3.571 C18.258,2.659 19.073,1.879 20.024,1.315 C20.475,1.048 20.955,0.829 21.454,0.667 C22.12,0.451 22.811,0.341 23.51,0.325 C23.606,0.324 23.606,0.324 23.702,0.325 C24.36,0.337 25.012,0.433 25.642,0.624 C26.845,0.988 27.937,1.676 28.806,2.58 C29.41,3.207 29.906,3.936 30.275,4.724 C30.589,5.396 30.811,6.11 30.936,6.841 C30.972,7.056 31,7.272 31.02,7.489 C31.355,7.565 31.687,7.648 32.018,7.74 L32.103,7.765 C32.244,7.618 32.244,7.618 32.387,7.472 C32.529,7.332 32.528,7.332 32.672,7.193 C33.101,6.791 33.549,6.41 34.035,6.077 C34.767,5.574 35.576,5.184 36.443,4.981 C36.8,4.898 37.164,4.846 37.529,4.818 C37.867,4.792 38.207,4.784 38.546,4.76 C38.601,4.755 38.601,4.755 38.657,4.75 L38.773,4.745 C38.811,4.748 38.85,4.751 38.888,4.754 C38.926,4.761 38.964,4.766 39.002,4.776 C39.151,4.814 39.292,4.888 39.409,4.989 C39.706,5.246 39.826,5.666 39.709,6.041 C39.681,6.133 39.639,6.218 39.585,6.298 C39.573,6.35 39.563,6.402 39.552,6.454 C39.488,6.806 39.439,7.159 39.39,7.512 C39.287,8.284 39.19,9.057 39.086,9.829 C38.994,10.487 38.896,11.142 38.782,11.796 L38.757,11.937 C38.821,11.991 38.883,12.048 38.944,12.105 C39.013,12.172 39.081,12.241 39.147,12.311 C39.572,12.77 39.922,13.29 40.236,13.829 C40.675,14.582 41.042,15.374 41.432,16.153 C41.507,16.298 41.581,16.441 41.659,16.584 C41.708,16.67 41.758,16.755 41.811,16.839 L41.843,16.887 C41.924,16.896 41.923,16.896 42.003,16.907 L42.128,16.927 C42.278,16.955 42.427,16.988 42.574,17.029 C42.706,17.066 42.837,17.109 42.966,17.157 C43.69,17.429 44.39,17.894 44.754,18.597 C44.869,18.819 44.947,19.06 44.98,19.308 C45.006,19.494 45.002,19.682 44.996,19.869 C44.988,20.111 44.969,20.353 44.938,20.593 C44.855,21.234 44.686,21.87 44.387,22.445 C44.241,22.724 44.065,22.985 43.86,23.224 C43.532,23.606 43.117,23.914 42.66,24.125 C42.328,24.279 41.976,24.377 41.616,24.438 L41.585,24.443 C41.543,24.565 41.497,24.685 41.45,24.805 C41.403,24.922 41.354,25.037 41.304,25.152 C40.869,26.131 40.3,27.045 39.651,27.895 C39.123,28.588 38.542,29.242 37.908,29.839 C37.553,30.172 37.181,30.49 36.782,30.769 C36.446,31.004 36.089,31.215 35.697,31.341 L35.679,31.346 C35.611,31.662 35.576,31.983 35.542,32.303 C35.493,32.795 35.45,33.288 35.4,33.779 C35.328,34.441 35.243,35.105 35.065,35.748 C34.938,36.206 34.761,36.661 34.478,37.047 C34.322,37.26 34.133,37.449 33.914,37.595 C33.781,37.683 33.639,37.755 33.489,37.808 C33.223,37.903 32.942,37.934 32.66,37.918 C32.232,37.894 31.815,37.766 31.451,37.539 C31.163,37.36 30.914,37.125 30.707,36.859 C30.075,36.049 29.839,35.029 29.556,34.064 L29.546,34.031 C27.441,34.06 25.337,34.104 23.232,34.136 C22.51,34.146 21.789,34.156 21.067,34.163 C20.87,34.165 20.674,34.167 20.477,34.168 C20.298,34.169 20.092,34.16 19.902,34.173 C19.866,34.176 19.83,34.181 19.795,34.192 C19.704,34.222 19.65,34.312 19.608,34.392 C19.588,34.431 19.578,34.45 19.559,34.49 C19.542,34.529 19.526,34.566 19.51,34.605 C19.493,34.65 19.476,34.694 19.46,34.739 C19.438,34.8 19.43,34.826 19.409,34.888 C19.331,35.132 19.257,35.378 19.176,35.621 C19.088,35.875 18.992,36.125 18.872,36.366 C18.678,36.757 18.412,37.114 18.074,37.392 C17.788,37.628 17.455,37.801 17.101,37.91 C16.797,38.004 16.479,38.051 16.161,38.063 C15.727,38.08 15.293,38.03 14.889,37.867 C14.477,37.702 14.118,37.427 13.841,37.081 C13.295,36.398 13.088,35.507 12.977,34.658 C12.956,34.497 12.938,34.335 12.923,34.173 C12.898,33.909 12.88,33.644 12.863,33.38 C12.841,33.036 12.822,32.692 12.797,32.349 C12.786,32.218 12.775,32.088 12.762,31.958 C12.738,31.747 12.711,31.535 12.663,31.328 C12.635,31.212 12.604,31.09 12.544,30.986 C12.521,30.95 12.47,30.944 12.433,30.923 C12.291,30.841 12.148,30.759 12.007,30.674 C11.731,30.507 11.461,30.332 11.2,30.142 C10.804,29.852 10.43,29.532 10.088,29.18 C9.811,28.895 9.554,28.59 9.32,28.267 C9.154,28.04 9,27.804 8.858,27.562 C7.944,26.008 7.523,24.213 7.379,22.43 C7.376,22.388 7.373,22.346 7.37,22.304 C7.355,22.213 7.339,22.122 7.322,22.03 C7.263,21.71 7.196,21.392 7.12,21.075 L7.11,21.032 C7.103,21.249 7.095,21.466 7.084,21.683 C7.075,21.835 7.065,21.986 7.051,22.137 C7.04,22.249 7.029,22.36 7.013,22.471 C6.942,22.977 6.803,23.515 6.422,23.882 C6.358,23.943 6.289,23.999 6.215,24.047 C6.135,24.099 6.049,24.142 5.959,24.176 C5.838,24.222 5.71,24.25 5.58,24.259 C5.414,24.27 5.247,24.252 5.088,24.202 C4.885,24.139 4.7,24.027 4.545,23.882 C4.317,23.669 4.161,23.391 4.049,23.103 C3.88,22.672 3.795,22.213 3.719,21.759 L3.719,21.756 C3.691,21.801 3.661,21.844 3.631,21.888 C3.59,21.943 3.59,21.943 3.548,21.997 C3.473,22.089 3.394,22.176 3.306,22.257 C3.1,22.446 2.859,22.595 2.598,22.694 C2.298,22.808 1.977,22.855 1.657,22.851 C1.544,22.849 1.428,22.845 1.317,22.824 C1.197,22.802 1.081,22.757 0.977,22.693 C0.612,22.469 0.428,22.023 0.528,21.606 C0.553,21.505 0.594,21.407 0.649,21.318 C0.713,21.213 0.796,21.121 0.893,21.047 C1.046,20.93 1.232,20.859 1.424,20.844 C1.529,20.836 1.633,20.853 1.737,20.85 C1.774,20.848 1.81,20.844 1.846,20.837 C1.872,20.83 1.897,20.822 1.92,20.809 C1.978,20.774 2.016,20.711 2.047,20.653 C2.087,20.579 2.118,20.501 2.144,20.421 C2.194,20.264 2.228,20.102 2.255,19.939 C2.297,19.688 2.322,19.434 2.347,19.18 C2.362,19.033 2.378,18.886 2.395,18.74 C2.407,18.651 2.419,18.562 2.433,18.473 C2.461,18.316 2.493,18.16 2.544,18.008 C2.618,17.786 2.731,17.574 2.893,17.403 C2.953,17.34 3.019,17.283 3.09,17.233 C3.169,17.178 3.253,17.132 3.342,17.097 C3.464,17.048 3.588,17.025 3.718,17.01 C3.799,17.007 3.799,17.006 3.88,17.01 C3.991,17.017 4.101,17.036 4.207,17.073 C4.287,17.101 4.365,17.135 4.438,17.178 C4.494,17.211 4.546,17.247 4.596,17.287 C5.028,17.634 5.186,18.199 5.3,18.716 L5.308,18.756 C5.324,18.695 5.341,18.635 5.36,18.575 C5.379,18.518 5.4,18.463 5.422,18.407 C5.515,18.189 5.636,17.986 5.808,17.821 C5.917,17.715 6.043,17.628 6.181,17.564 C6.269,17.523 6.363,17.491 6.458,17.47 C6.552,17.45 6.647,17.441 6.742,17.44 C7.051,17.439 7.352,17.541 7.606,17.714 C7.683,17.766 7.756,17.825 7.824,17.889 C8.5,15.88 9.775,14.101 11.267,12.613 C12.054,11.828 12.912,11.114 13.818,10.471 C14.604,9.913 15.428,9.407 16.281,8.958 L16.281,8.958 Z M9.402,22.589 C9.413,22.693 9.424,22.796 9.437,22.898 C9.635,24.49 10.119,26.096 11.143,27.359 C11.523,27.828 11.971,28.238 12.463,28.587 C12.822,28.841 13.202,29.059 13.584,29.276 L13.654,29.319 C13.781,29.406 13.899,29.501 14.004,29.615 C14.428,30.073 14.599,30.702 14.693,31.303 C14.716,31.45 14.735,31.597 14.75,31.745 C14.772,31.945 14.788,32.146 14.802,32.347 C14.832,32.797 14.856,33.247 14.89,33.697 C14.927,34.157 14.971,34.62 15.081,35.07 C15.142,35.318 15.222,35.576 15.37,35.788 C15.411,35.846 15.458,35.9 15.515,35.943 C15.675,36.066 15.889,36.072 16.082,36.065 C16.325,36.055 16.59,36.014 16.787,35.86 C16.865,35.8 16.929,35.725 16.983,35.644 C17.119,35.442 17.204,35.209 17.281,34.98 C17.372,34.71 17.451,34.436 17.542,34.166 C17.577,34.065 17.577,34.065 17.613,33.966 C17.697,33.75 17.788,33.539 17.906,33.34 C18.118,32.981 18.408,32.671 18.773,32.466 C18.907,32.39 19.05,32.329 19.197,32.283 C19.425,32.211 19.66,32.18 19.898,32.171 C20.088,32.168 20.277,32.169 20.466,32.168 C20.881,32.166 21.295,32.161 21.71,32.156 C24.422,32.122 27.133,32.064 29.845,32.027 L30.076,32.025 C30.208,32.031 30.34,32.05 30.465,32.097 C30.553,32.131 30.637,32.172 30.715,32.224 C30.76,32.254 30.804,32.288 30.845,32.323 C31.19,32.62 31.342,33.067 31.471,33.489 C31.553,33.767 31.63,34.045 31.711,34.323 C31.753,34.461 31.796,34.599 31.843,34.735 C31.879,34.838 31.918,34.94 31.96,35.041 C31.989,35.111 32.02,35.181 32.054,35.249 C32.084,35.311 32.116,35.372 32.151,35.432 C32.255,35.607 32.391,35.803 32.588,35.882 C32.66,35.911 32.737,35.921 32.814,35.922 C32.816,35.922 32.825,35.912 32.826,35.911 C32.841,35.896 32.853,35.88 32.866,35.863 C32.935,35.765 32.986,35.656 33.029,35.544 C33.092,35.383 33.139,35.217 33.18,35.049 C33.285,34.611 33.344,34.163 33.395,33.715 C33.459,33.13 33.505,32.543 33.567,31.958 C33.582,31.82 33.598,31.683 33.617,31.545 C33.634,31.414 33.654,31.282 33.678,31.152 C33.764,30.677 33.899,30.168 34.25,29.815 C34.323,29.742 34.403,29.677 34.49,29.621 C34.605,29.547 34.743,29.487 34.878,29.46 C34.885,29.459 34.967,29.442 34.999,29.438 C35.03,29.435 35.062,29.432 35.093,29.429 C35.105,29.428 35.105,29.431 35.115,29.427 C35.141,29.418 35.167,29.407 35.192,29.396 C35.473,29.261 35.727,29.073 35.97,28.878 C36.351,28.571 36.706,28.232 37.043,27.878 C37.704,27.183 38.3,26.422 38.804,25.606 C39.258,24.873 39.641,24.088 39.856,23.251 L39.893,23.137 C39.937,23.041 39.944,23.014 40.005,22.927 C40.119,22.763 40.281,22.636 40.468,22.565 C40.567,22.527 40.595,22.526 40.698,22.507 C40.824,22.498 40.95,22.498 41.076,22.489 C41.242,22.475 41.407,22.45 41.567,22.404 C41.832,22.326 42.077,22.191 42.273,21.996 C42.368,21.9 42.45,21.793 42.522,21.68 C42.611,21.539 42.682,21.388 42.741,21.232 C42.834,20.985 42.896,20.726 42.936,20.466 C42.965,20.283 42.982,20.098 42.992,19.913 C42.996,19.841 42.998,19.77 42.999,19.698 C43,19.659 43.004,19.612 42.997,19.571 C42.993,19.552 42.986,19.535 42.978,19.518 C42.945,19.457 42.897,19.406 42.846,19.36 C42.766,19.288 42.675,19.228 42.581,19.176 C42.316,19.028 42.016,18.93 41.717,18.886 C41.615,18.872 41.514,18.87 41.412,18.866 L41.314,18.854 C41.195,18.829 41.082,18.798 40.972,18.746 C40.706,18.622 40.491,18.413 40.313,18.183 C40.093,17.899 39.918,17.58 39.754,17.262 C39.645,17.052 39.539,16.84 39.435,16.628 C39.286,16.327 39.138,16.025 38.987,15.725 C38.89,15.536 38.792,15.348 38.691,15.161 C38.449,14.722 38.192,14.286 37.876,13.895 C37.678,13.651 37.455,13.415 37.176,13.265 L37.076,13.204 C36.995,13.14 36.972,13.127 36.902,13.049 C36.747,12.874 36.656,12.646 36.65,12.412 C36.647,12.308 36.656,12.282 36.671,12.18 C36.705,12.019 36.736,11.858 36.767,11.697 C37.051,10.147 37.225,8.582 37.439,7.022 L37.465,6.833 C37.445,6.835 37.425,6.838 37.404,6.84 C37.074,6.883 36.749,6.953 36.435,7.064 C35.903,7.252 35.411,7.539 34.958,7.874 C34.289,8.368 33.703,8.963 33.152,9.584 L33.073,9.663 C32.997,9.725 32.98,9.744 32.893,9.792 C32.699,9.901 32.47,9.943 32.25,9.908 C32.115,9.887 31.989,9.831 31.862,9.786 C31.739,9.745 31.74,9.745 31.616,9.707 C30.823,9.473 30.012,9.306 29.196,9.173 C28.102,8.994 26.996,8.883 25.888,8.838 C25.257,8.813 24.626,8.809 23.996,8.831 C23.601,8.844 23.205,8.863 22.813,8.905 C22.44,8.944 22.069,9.003 21.701,9.078 C20.264,9.37 18.874,9.891 17.565,10.547 C15.87,11.396 14.283,12.487 12.914,13.8 C12.075,14.604 11.314,15.497 10.699,16.484 C10.239,17.223 9.861,18.018 9.617,18.855 C9.476,19.338 9.381,19.834 9.341,20.336 C9.319,20.614 9.317,20.892 9.321,21.171 C9.326,21.468 9.338,21.766 9.358,22.063 C9.373,22.155 9.387,22.248 9.4,22.341 C9.406,22.393 9.406,22.392 9.409,22.445 C9.41,22.494 9.407,22.542 9.402,22.589 L9.402,22.589 Z M20.157,10.794 C20.325,10.818 20.473,10.91 20.552,11.064 C20.65,11.254 20.614,11.494 20.464,11.647 C20.423,11.688 20.375,11.722 20.322,11.747 C20.278,11.768 20.23,11.783 20.182,11.79 C20.103,11.82 20.026,11.855 19.949,11.889 C19.186,12.24 18.452,12.655 17.741,13.101 C17.26,13.403 16.79,13.721 16.334,14.059 C15.98,14.32 15.634,14.593 15.299,14.878 C15.058,15.083 14.822,15.294 14.593,15.512 C14.395,15.701 14.202,15.894 14.016,16.094 C13.86,16.259 13.709,16.429 13.563,16.603 C12.642,17.696 11.888,18.987 11.673,20.419 C11.629,20.716 11.61,21.016 11.612,21.317 L11.611,21.36 C11.6,21.449 11.575,21.53 11.524,21.604 C11.491,21.652 11.449,21.694 11.402,21.728 C11.207,21.867 10.932,21.845 10.761,21.677 C10.675,21.592 10.631,21.485 10.614,21.368 C10.61,21.278 10.612,21.187 10.613,21.097 C10.623,20.745 10.658,20.396 10.721,20.05 C11.039,18.323 12.014,16.793 13.186,15.517 C13.351,15.338 13.521,15.162 13.694,14.991 C13.934,14.754 14.182,14.524 14.436,14.302 C14.753,14.024 15.079,13.757 15.413,13.5 C15.864,13.154 16.328,12.826 16.803,12.515 C17.493,12.062 18.207,11.642 18.942,11.266 C19.168,11.151 19.395,11.039 19.627,10.937 C19.76,10.879 19.895,10.818 20.039,10.795 C20.079,10.792 20.117,10.792 20.157,10.794 L20.157,10.794 Z M35.774,15.551 C35.883,15.555 35.99,15.574 36.093,15.612 C36.181,15.644 36.264,15.688 36.339,15.742 C36.395,15.783 36.446,15.829 36.492,15.88 C36.63,16.032 36.718,16.225 36.748,16.427 C36.762,16.519 36.768,16.613 36.773,16.706 C36.781,16.885 36.783,17.065 36.783,17.244 C36.783,17.423 36.781,17.603 36.773,17.782 C36.768,17.875 36.762,17.968 36.748,18.061 C36.718,18.261 36.633,18.451 36.498,18.602 C36.451,18.655 36.398,18.702 36.342,18.744 C36.272,18.794 36.195,18.836 36.115,18.868 C36.014,18.908 35.906,18.931 35.797,18.936 C35.68,18.941 35.563,18.926 35.452,18.891 C35.362,18.863 35.276,18.822 35.198,18.77 C35.133,18.727 35.072,18.677 35.019,18.62 C34.894,18.486 34.808,18.32 34.768,18.142 C34.742,18.024 34.734,17.903 34.728,17.782 C34.72,17.603 34.717,17.423 34.717,17.244 C34.717,17.065 34.72,16.885 34.728,16.706 C34.733,16.613 34.738,16.519 34.752,16.427 C34.779,16.247 34.851,16.075 34.964,15.932 C35.007,15.878 35.055,15.829 35.107,15.785 C35.173,15.73 35.245,15.684 35.321,15.648 C35.42,15.601 35.526,15.572 35.634,15.558 C35.681,15.553 35.727,15.551 35.774,15.551 L35.774,15.551 Z M35.983,7.984 C36.06,7.989 36.133,8.008 36.2,8.045 C36.435,8.174 36.527,8.476 36.403,8.714 C36.36,8.796 36.296,8.861 36.218,8.911 C36.139,8.956 36.055,8.993 35.975,9.037 C35.302,9.423 34.756,9.991 34.269,10.588 C34.152,10.73 34.039,10.876 33.928,11.023 C33.86,11.115 33.796,11.212 33.723,11.299 C33.702,11.322 33.68,11.342 33.657,11.362 C33.595,11.408 33.528,11.441 33.452,11.457 C33.393,11.47 33.331,11.472 33.271,11.463 C33.015,11.423 32.827,11.185 32.849,10.926 C32.856,10.842 32.886,10.764 32.931,10.692 C33.023,10.559 33.123,10.43 33.221,10.301 C33.756,9.61 34.342,8.941 35.059,8.434 C35.224,8.318 35.395,8.212 35.573,8.117 C35.669,8.067 35.763,8.013 35.87,7.991 C35.908,7.985 35.945,7.983 35.983,7.984 L35.983,7.984 Z M28.951,7.112 C28.823,6.418 28.586,5.747 28.234,5.131 C27.87,4.493 27.389,3.922 26.814,3.464 C26.329,3.078 25.778,2.773 25.189,2.578 C24.681,2.409 24.146,2.323 23.611,2.325 C23.156,2.326 22.702,2.388 22.264,2.511 C21.88,2.62 21.508,2.774 21.16,2.969 C19.846,3.704 18.894,4.986 18.471,6.421 C18.314,6.955 18.231,7.505 18.216,8.059 C19.318,7.613 20.461,7.266 21.63,7.055 C22.005,6.988 22.382,6.935 22.761,6.9 C23.149,6.864 23.539,6.845 23.928,6.832 C24.542,6.811 25.157,6.812 25.771,6.832 C26.834,6.868 27.897,6.962 28.951,7.112 L28.951,7.112 Z M38.98,6.719 L38.865,6.739 L38.969,6.727 L39.063,6.695 C39.035,6.703 39.007,6.711 38.98,6.719 L38.98,6.719 Z M39.108,6.679 C39.144,6.667 39.144,6.668 39.177,6.65 C39.154,6.66 39.131,6.669 39.108,6.679 L39.108,6.679 Z"></path>
            </g>
        </g>
    </g>
</svg>