<?xml version="1.0" encoding="UTF-8" standalone="no"?>
<svg width="55px" height="20px" viewBox="0 0 55 20" version="1.1" xmlns="http://www.w3.org/2000/svg" xmlns:xlink="http://www.w3.org/1999/xlink">
    <!-- Generator: Sketch 3.6.1 (26313) - http://www.bohemiancoding.com/sketch -->
    <title>:: other</title>
    <desc>Created with Sketch.</desc>
    <defs></defs>
    <g stroke="none" stroke-width="1" fill-rule="evenodd">
        <g transform="translate(-252.000000, -576.000000)">
            <g transform="translate(252.000000, 576.000000)">
                <path d="M37.788,17.831 C37.61,18.102 37.424,18.367 37.232,18.629 L37.141,18.749 C37.096,18.805 37.086,18.82 37.035,18.87 C36.958,18.945 36.868,19.007 36.771,19.053 C36.674,19.099 36.57,19.13 36.463,19.143 C36.357,19.156 36.248,19.152 36.143,19.131 C35.74,19.049 35.421,18.719 35.354,18.313 C35.323,18.127 35.346,17.934 35.42,17.761 C35.448,17.695 35.459,17.68 35.494,17.618 C35.613,17.445 35.742,17.278 35.863,17.107 C36.511,16.174 37.059,15.175 37.442,14.105 C37.678,13.446 37.852,12.765 37.956,12.073 C38.031,11.578 38.07,11.078 38.074,10.578 C38.077,10.227 38.064,9.875 38.034,9.525 C37.854,7.392 37.092,5.346 36.081,3.473 C35.891,3.12 35.69,2.773 35.484,2.43 L35.445,2.359 C35.389,2.235 35.35,2.11 35.342,1.973 C35.32,1.591 35.525,1.221 35.86,1.038 C35.98,0.972 36.107,0.938 36.242,0.919 C36.322,0.915 36.322,0.915 36.403,0.916 C36.474,0.924 36.492,0.923 36.562,0.939 C36.719,0.975 36.867,1.049 36.99,1.154 C37.052,1.207 37.103,1.267 37.153,1.331 C37.22,1.433 37.218,1.433 37.281,1.537 C37.947,2.66 38.541,3.826 39.007,5.047 C39.7,6.859 40.111,8.788 40.072,10.734 C40.06,11.373 39.999,12.011 39.89,12.641 C39.74,13.508 39.499,14.357 39.176,15.175 C38.868,15.957 38.486,16.708 38.047,17.424 C38.116,17.358 38.196,17.302 38.282,17.259 C38.423,17.187 38.576,17.153 38.734,17.15 C39.842,17.15 40.95,17.131 42.058,17.151 C42.204,17.159 42.344,17.193 42.475,17.259 C42.593,17.319 42.699,17.402 42.784,17.503 C42.862,17.595 42.924,17.701 42.964,17.814 C42.996,17.905 43.016,18 43.021,18.096 C43.042,18.488 42.824,18.865 42.475,19.042 C42.333,19.114 42.18,19.148 42.022,19.15 C40.914,19.15 39.806,19.17 38.698,19.15 C38.553,19.142 38.412,19.108 38.282,19.042 C38.164,18.982 38.058,18.899 37.972,18.798 C37.894,18.706 37.833,18.6 37.792,18.487 C37.716,18.273 37.718,18.04 37.788,17.831 L37.788,17.831 Z M17.918,17.425 C17.259,16.351 16.731,15.196 16.382,13.984 C16.167,13.235 16.021,12.467 15.947,11.691 C15.895,11.145 15.879,10.595 15.897,10.047 C15.958,8.182 16.418,6.35 17.123,4.628 C17.561,3.558 18.094,2.531 18.684,1.537 L18.767,1.399 C18.806,1.339 18.814,1.323 18.861,1.268 C18.982,1.124 19.145,1.017 19.324,0.96 C19.403,0.936 19.48,0.925 19.561,0.916 C19.642,0.915 19.642,0.915 19.722,0.919 C19.857,0.938 19.984,0.972 20.104,1.038 C20.44,1.221 20.644,1.591 20.622,1.973 C20.614,2.11 20.575,2.235 20.519,2.359 C20.457,2.473 20.388,2.583 20.323,2.694 C20.246,2.823 20.172,2.954 20.097,3.084 C19.792,3.629 19.505,4.184 19.247,4.753 C18.546,6.297 18.046,7.947 17.921,9.643 C17.892,10.031 17.883,10.421 17.895,10.81 C17.91,11.31 17.96,11.808 18.045,12.301 C18.171,13.033 18.376,13.75 18.648,14.441 C18.939,15.179 19.307,15.885 19.732,16.554 C19.949,16.896 20.182,17.227 20.425,17.552 L20.47,17.618 C20.511,17.689 20.547,17.758 20.573,17.836 C20.632,18.015 20.64,18.209 20.594,18.392 C20.568,18.496 20.525,18.596 20.468,18.687 C20.278,18.986 19.935,19.165 19.581,19.15 C19.474,19.145 19.367,19.123 19.267,19.085 C19.166,19.046 19.072,18.992 18.989,18.924 C18.848,18.808 18.747,18.65 18.641,18.504 C18.482,18.285 18.328,18.063 18.18,17.837 C18.299,18.201 18.197,18.612 17.918,18.876 C17.848,18.943 17.768,18.999 17.682,19.042 C17.541,19.114 17.388,19.148 17.23,19.15 C16.122,19.15 15.014,19.17 13.906,19.15 C13.76,19.142 13.62,19.108 13.49,19.042 C13.371,18.982 13.266,18.899 13.18,18.798 C13.102,18.706 13.041,18.6 13,18.487 C12.968,18.396 12.949,18.301 12.943,18.205 C12.922,17.813 13.14,17.436 13.49,17.259 C13.631,17.187 13.784,17.153 13.942,17.15 C15.05,17.15 16.158,17.131 17.266,17.151 C17.412,17.159 17.552,17.193 17.682,17.259 C17.768,17.302 17.848,17.358 17.918,17.425 L17.918,17.425 Z M7.949,0.851 C8.057,0.86 8.16,0.878 8.262,0.917 C8.489,1.005 8.678,1.176 8.79,1.392 C8.827,1.465 8.851,1.539 8.873,1.618 L12.757,17.919 C12.771,17.989 12.776,18.006 12.782,18.078 C12.789,18.185 12.78,18.293 12.753,18.397 C12.652,18.796 12.305,19.098 11.897,19.144 C11.79,19.156 11.682,19.151 11.577,19.129 C11.471,19.106 11.37,19.067 11.277,19.013 C11.115,18.917 10.981,18.776 10.895,18.608 C10.858,18.536 10.834,18.461 10.811,18.382 L6.928,2.081 C6.907,1.974 6.895,1.87 6.904,1.761 C6.933,1.437 7.124,1.14 7.407,0.98 C7.527,0.912 7.653,0.877 7.788,0.856 C7.868,0.85 7.868,0.85 7.949,0.851 L7.949,0.851 Z M48.177,0.856 C48.311,0.877 48.438,0.912 48.557,0.98 C48.84,1.14 49.031,1.437 49.06,1.761 C49.069,1.87 49.057,1.974 49.036,2.081 L45.153,18.382 C45.131,18.461 45.107,18.536 45.069,18.608 C44.983,18.776 44.849,18.917 44.687,19.013 C44.594,19.067 44.493,19.106 44.388,19.129 C43.986,19.214 43.561,19.037 43.339,18.692 C43.281,18.601 43.237,18.501 43.211,18.397 C43.184,18.293 43.175,18.185 43.183,18.078 C43.188,18.006 43.193,17.989 43.207,17.919 L47.091,1.618 C47.113,1.539 47.137,1.465 47.175,1.392 C47.286,1.176 47.476,1.005 47.702,0.917 C47.804,0.878 47.907,0.86 48.016,0.851 C48.096,0.85 48.096,0.85 48.177,0.856 L48.177,0.856 Z M32.474,8.439 C32.581,8.448 32.684,8.468 32.784,8.507 C32.855,8.535 32.922,8.571 32.984,8.614 C33.16,8.735 33.294,8.912 33.363,9.113 C33.399,9.216 33.416,9.326 33.432,9.433 C33.467,9.664 33.477,9.899 33.462,10.133 C33.454,10.263 33.438,10.392 33.415,10.52 C33.392,10.645 33.362,10.769 33.326,10.891 C33.273,11.07 33.206,11.245 33.128,11.414 C32.741,12.253 32.087,12.944 31.377,13.521 C30.827,13.967 30.23,14.354 29.613,14.701 C29.023,15.033 28.411,15.33 27.784,15.585 C27.728,15.607 27.729,15.607 27.673,15.628 C27.526,15.675 27.376,15.694 27.224,15.674 C27.103,15.659 26.985,15.622 26.878,15.565 C26.771,15.508 26.674,15.431 26.595,15.34 C26.525,15.26 26.468,15.168 26.426,15.071 C26.289,14.744 26.337,14.36 26.551,14.078 C26.644,13.956 26.762,13.861 26.898,13.789 C26.966,13.757 27.037,13.73 27.107,13.701 C27.204,13.661 27.217,13.655 27.32,13.611 C27.652,13.464 27.98,13.308 28.301,13.138 C28.57,12.996 28.835,12.846 29.094,12.686 C29.291,12.565 29.484,12.438 29.673,12.304 C29.824,12.196 29.972,12.085 30.116,11.968 C30.501,11.655 30.869,11.302 31.141,10.884 C31.297,10.642 31.423,10.372 31.458,10.084 C31.471,9.979 31.472,9.873 31.459,9.769 C31.452,9.707 31.439,9.646 31.428,9.585 C31.423,9.54 31.423,9.54 31.419,9.495 C31.415,9.388 31.424,9.283 31.451,9.179 C31.527,8.898 31.725,8.659 31.988,8.535 C32.099,8.482 32.216,8.453 32.338,8.441 C32.383,8.438 32.428,8.438 32.474,8.439 L32.474,8.439 Z M23.458,5.784 C23.558,5.79 23.657,5.806 23.753,5.839 C23.984,5.919 24.182,6.084 24.301,6.298 C24.343,6.374 24.373,6.454 24.396,6.538 C24.434,6.703 24.469,6.869 24.508,7.034 C24.628,7.53 24.761,8.022 24.919,8.508 C25.029,8.849 25.15,9.187 25.292,9.517 C25.391,9.749 25.499,9.977 25.63,10.193 C25.703,10.314 25.783,10.436 25.884,10.537 C25.926,10.579 25.976,10.609 26.022,10.646 C26.056,10.674 26.087,10.702 26.117,10.733 C26.235,10.861 26.322,11.011 26.364,11.18 C26.389,11.277 26.399,11.379 26.393,11.479 C26.37,11.903 26.069,12.276 25.659,12.388 C25.535,12.422 25.404,12.432 25.275,12.417 C25.147,12.401 25.022,12.361 24.909,12.298 C24.747,12.208 24.602,12.083 24.471,11.953 C24.175,11.657 23.945,11.299 23.75,10.93 C23.445,10.356 23.216,9.742 23.016,9.124 C22.789,8.423 22.598,7.709 22.448,6.988 C22.44,6.946 22.434,6.904 22.43,6.861 C22.424,6.76 22.429,6.66 22.452,6.561 C22.519,6.265 22.724,6.011 22.998,5.88 C23.103,5.831 23.214,5.803 23.329,5.789 C23.372,5.786 23.414,5.784 23.458,5.784 L23.458,5.784 Z M26.263,5.19 C26.349,5.195 26.434,5.206 26.517,5.231 C26.752,5.301 26.956,5.458 27.084,5.667 C27.137,5.753 27.174,5.846 27.201,5.943 C27.239,6.109 27.274,6.275 27.313,6.44 C27.433,6.935 27.566,7.428 27.724,7.913 C27.834,8.255 27.955,8.593 28.097,8.923 C28.196,9.154 28.304,9.383 28.435,9.598 C28.508,9.72 28.588,9.842 28.689,9.943 C28.731,9.985 28.781,10.015 28.828,10.051 C28.861,10.079 28.892,10.108 28.922,10.139 C29.04,10.267 29.127,10.416 29.169,10.586 C29.273,10.998 29.097,11.443 28.738,11.672 C28.654,11.726 28.561,11.767 28.464,11.794 C28.34,11.828 28.209,11.838 28.08,11.822 C27.952,11.807 27.827,11.767 27.714,11.704 C27.552,11.614 27.407,11.489 27.276,11.359 C26.98,11.063 26.75,10.704 26.555,10.336 C26.25,9.761 26.021,9.147 25.821,8.529 C25.594,7.829 25.403,7.114 25.253,6.394 C25.245,6.351 25.239,6.309 25.235,6.266 C25.228,6.151 25.237,6.037 25.267,5.925 C25.348,5.632 25.563,5.387 25.843,5.268 C25.936,5.229 26.033,5.206 26.134,5.194 C26.177,5.191 26.219,5.19 26.263,5.19 L26.263,5.19 Z M54.056,0.85 C54.219,0.859 54.375,0.9 54.517,0.981 C54.842,1.166 55.04,1.528 55.021,1.901 C55.015,2.005 54.994,2.107 54.957,2.204 C54.916,2.312 54.857,2.412 54.782,2.5 C54.699,2.596 54.599,2.676 54.487,2.735 C54.353,2.805 54.207,2.841 54.056,2.849 C53.026,2.867 51.995,2.867 50.964,2.849 C50.802,2.841 50.645,2.799 50.504,2.718 C50.414,2.667 50.332,2.602 50.262,2.525 C50.009,2.25 49.931,1.845 50.064,1.495 C50.105,1.387 50.164,1.287 50.239,1.199 C50.321,1.103 50.422,1.023 50.534,0.964 C50.668,0.894 50.814,0.858 50.964,0.85 C51.995,0.832 53.026,0.832 54.056,0.85 L54.056,0.85 Z M5,0.85 C5.162,0.859 5.319,0.9 5.461,0.981 C5.551,1.032 5.632,1.097 5.702,1.174 C5.955,1.449 6.033,1.854 5.901,2.204 C5.86,2.312 5.8,2.412 5.725,2.5 C5.643,2.596 5.542,2.676 5.43,2.735 C5.296,2.805 5.151,2.841 5,2.849 C3.969,2.867 2.938,2.867 1.908,2.849 C1.757,2.841 1.611,2.805 1.478,2.735 C1.365,2.676 1.265,2.596 1.182,2.5 C1.108,2.412 1.048,2.312 1.007,2.204 C0.875,1.854 0.952,1.449 1.205,1.174 C1.275,1.097 1.357,1.032 1.447,0.981 C1.589,0.9 1.746,0.859 1.908,0.85 C2.938,0.832 3.969,0.832 5,0.85 L5,0.85 Z"></path>
            </g>
        </g>
    </g>
</svg>