<?xml version="1.0" encoding="UTF-8" standalone="no"?>
<svg width="47px" height="41px" viewBox="0 0 47 41" version="1.1" xmlns="http://www.w3.org/2000/svg" xmlns:xlink="http://www.w3.org/1999/xlink">
    <!-- Generator: Sketch 3.6.1 (26313) - http://www.bohemiancoding.com/sketch -->
    <title>:: team2</title>
    <desc>Created with Sketch.</desc>
    <defs></defs>
    <g stroke="none" stroke-width="1" fill-rule="evenodd">
        <g transform="translate(-104.000000, -571.000000)">
            <g transform="translate(103.000000, 571.000000)">
                <path d="M37.487,19.533 C37.167,19.461 36.851,19.364 36.545,19.243 C35.789,18.944 35.09,18.502 34.495,17.948 C33.921,17.414 33.444,16.776 33.095,16.074 C32.797,15.474 32.592,14.829 32.491,14.168 C32.387,13.485 32.391,12.786 32.504,12.105 C32.614,11.445 32.826,10.804 33.13,10.209 C33.764,8.973 34.794,7.955 36.038,7.337 C36.588,7.063 37.177,6.868 37.782,6.76 C38.081,6.706 38.381,6.676 38.684,6.663 C38.796,6.659 38.907,6.658 39.019,6.658 C39.323,6.664 39.626,6.687 39.926,6.733 C40.535,6.826 41.131,7.007 41.689,7.268 C42.948,7.856 44.003,8.849 44.666,10.07 C44.984,10.655 45.212,11.29 45.337,11.944 C45.467,12.622 45.489,13.321 45.401,14.006 C45.317,14.671 45.128,15.323 44.844,15.931 C44.512,16.643 44.05,17.292 43.488,17.84 C42.907,18.408 42.22,18.866 41.472,19.183 C41.112,19.335 40.74,19.454 40.36,19.538 C40.872,19.621 41.378,19.748 41.869,19.917 C43.099,20.341 44.233,21.03 45.175,21.927 C46.2,22.902 46.991,24.116 47.468,25.448 C47.705,26.112 47.865,26.803 47.944,27.504 C47.977,27.802 47.994,28.101 47.999,28.401 C48.017,31.267 48,34.134 48,37 C47.997,37.082 47.991,37.16 47.971,37.239 C47.926,37.422 47.829,37.591 47.693,37.721 C47.615,37.796 47.526,37.857 47.429,37.903 C47.057,38.08 46.604,38.006 46.307,37.721 C46.23,37.647 46.164,37.56 46.115,37.465 C46.065,37.37 46.03,37.266 46.013,37.16 C46.001,37.09 46.003,37.071 46,37 C46,34.112 46.051,31.224 45.998,28.337 C45.989,28.046 45.965,27.755 45.922,27.466 C45.828,26.838 45.65,26.222 45.392,25.641 C45.075,24.925 44.639,24.263 44.106,23.689 C43.63,23.177 43.079,22.735 42.475,22.384 C41.701,21.933 40.841,21.632 39.956,21.5 C38.861,21.336 37.731,21.433 36.68,21.78 C35.964,22.017 35.294,22.37 34.685,22.815 L34.618,22.86 C34.547,22.9 34.477,22.936 34.399,22.961 C34.306,22.991 34.208,23.006 34.11,23.008 C34.167,23.149 34.222,23.292 34.274,23.436 C34.549,24.206 34.735,25.007 34.826,25.82 C34.865,26.166 34.884,26.512 34.89,26.86 C34.917,31.24 34.891,35.62 34.891,40 C34.887,40.082 34.889,40.103 34.874,40.184 C34.834,40.396 34.725,40.593 34.565,40.739 C34.263,41.014 33.811,41.077 33.445,40.895 C33.363,40.854 33.286,40.801 33.217,40.739 C33.126,40.656 33.051,40.556 32.996,40.446 C32.941,40.335 32.907,40.215 32.895,40.092 C32.892,40.062 32.892,40.031 32.891,40 C32.891,35.628 32.917,31.257 32.89,26.885 C32.885,26.568 32.865,26.252 32.826,25.938 C32.736,25.211 32.552,24.497 32.28,23.818 C31.982,23.074 31.58,22.373 31.087,21.741 C30.547,21.047 29.9,20.438 29.174,19.941 C27.671,18.912 25.849,18.385 24.028,18.453 C23.051,18.49 22.081,18.695 21.173,19.058 C20.2,19.447 19.301,20.016 18.534,20.729 C17.712,21.492 17.044,22.416 16.577,23.435 C16.229,24.195 15.994,25.005 15.881,25.833 C15.833,26.182 15.809,26.533 15.803,26.885 C15.775,31.257 15.802,35.628 15.802,40 C15.798,40.082 15.8,40.103 15.785,40.184 C15.745,40.396 15.636,40.593 15.476,40.739 C15.174,41.014 14.722,41.077 14.356,40.895 C14.274,40.854 14.197,40.801 14.128,40.739 C14.037,40.656 13.962,40.556 13.907,40.446 C13.852,40.335 13.818,40.215 13.806,40.092 C13.803,40.062 13.803,40.031 13.802,40 C13.802,35.62 13.775,31.24 13.803,26.86 C13.809,26.512 13.829,26.166 13.867,25.82 C13.958,25.007 14.144,24.206 14.419,23.436 C14.479,23.269 14.543,23.104 14.611,22.941 C14.567,22.93 14.524,22.916 14.481,22.899 C14.415,22.872 14.4,22.861 14.337,22.827 C14.197,22.734 14.062,22.635 13.921,22.544 C13.314,22.159 12.655,21.862 11.961,21.672 C10.986,21.406 9.956,21.351 8.958,21.513 C8.074,21.656 7.219,21.968 6.451,22.428 C5.85,22.787 5.304,23.235 4.835,23.754 C4.309,24.334 3.882,25.001 3.573,25.72 C3.323,26.304 3.152,26.923 3.065,27.553 C3.026,27.842 3.006,28.133 3.001,28.425 C2.983,31.284 3,34.142 3,37 C2.997,37.071 2.999,37.09 2.987,37.16 C2.97,37.266 2.935,37.37 2.885,37.465 C2.836,37.56 2.77,37.647 2.693,37.721 C2.396,38.006 1.943,38.08 1.571,37.903 C1.474,37.857 1.385,37.796 1.307,37.721 C1.171,37.591 1.074,37.422 1.029,37.239 C1.009,37.16 1.003,37.082 1,37 C1,34.134 0.983,31.267 1.001,28.401 C1.006,28.101 1.023,27.802 1.056,27.504 C1.134,26.803 1.295,26.112 1.532,25.448 C1.971,24.223 2.675,23.097 3.584,22.165 C4.571,21.153 5.794,20.378 7.131,19.917 C7.626,19.747 8.136,19.619 8.654,19.536 C8.301,19.462 7.953,19.358 7.617,19.225 C6.863,18.928 6.166,18.487 5.573,17.935 C5,17.402 4.525,16.766 4.177,16.066 C3.879,15.468 3.676,14.825 3.575,14.165 C3.471,13.484 3.475,12.787 3.588,12.108 C3.688,11.502 3.875,10.912 4.142,10.359 C4.767,9.063 5.823,7.994 7.111,7.353 C7.66,7.08 8.248,6.886 8.851,6.778 C9.148,6.725 9.448,6.695 9.75,6.681 C9.861,6.678 9.972,6.677 10.084,6.677 C10.387,6.683 10.689,6.706 10.988,6.752 C11.596,6.845 12.19,7.025 12.747,7.285 C14.026,7.883 15.093,8.899 15.752,10.148 C16.05,10.712 16.263,11.321 16.384,11.948 C16.513,12.624 16.535,13.32 16.448,14.003 C16.363,14.667 16.175,15.317 15.892,15.923 C15.561,16.633 15.1,17.28 14.54,17.827 C13.961,18.393 13.276,18.849 12.53,19.165 C12.172,19.317 11.801,19.435 11.422,19.52 C11.575,19.542 11.728,19.569 11.88,19.599 C12.724,19.769 13.544,20.058 14.307,20.457 C14.701,20.663 15.078,20.9 15.439,21.16 L15.503,21.209 L15.519,21.225 C15.893,20.653 16.321,20.118 16.798,19.629 C17.943,18.455 19.362,17.556 20.912,17.022 C21.645,16.77 22.405,16.598 23.175,16.512 C23.563,16.469 23.952,16.45 24.343,16.447 C24.388,16.447 24.433,16.448 24.478,16.448 C24.826,16.454 25.173,16.474 25.518,16.512 C26.288,16.598 27.048,16.77 27.781,17.022 C29.331,17.556 30.75,18.455 31.895,19.629 C32.424,20.171 32.892,20.769 33.293,21.411 C33.407,21.259 33.566,21.154 33.721,21.046 C33.968,20.874 34.224,20.715 34.487,20.568 C35.354,20.086 36.3,19.747 37.276,19.569 C37.346,19.556 37.417,19.544 37.487,19.533 L37.487,19.533 Z M28.064,25.034 C28.769,24.447 29.47,23.852 30.223,23.329 C30.297,23.283 30.375,23.256 30.461,23.247 C30.482,23.246 30.503,23.245 30.524,23.246 C30.581,23.25 30.636,23.261 30.689,23.282 C30.871,23.356 30.987,23.53 31,23.724 C31.009,24.165 31.024,24.606 31.018,25.047 C31.189,25.051 31.36,25.056 31.531,25.061 C31.584,25.066 31.635,25.076 31.684,25.095 C31.811,25.146 31.914,25.249 31.965,25.376 C31.984,25.426 31.994,25.476 31.999,25.529 C32.04,26.82 32.039,28.113 31.999,29.404 C31.985,29.553 31.918,29.678 31.802,29.772 C31.038,30.316 30.258,30.838 29.462,31.332 C29.344,31.395 29.213,31.417 29.083,31.382 C29.04,31.37 29.001,31.353 28.962,31.332 C28.166,30.838 27.386,30.316 26.622,29.772 C26.506,29.678 26.439,29.553 26.425,29.404 C26.385,28.113 26.385,26.82 26.425,25.529 C26.43,25.476 26.44,25.426 26.459,25.376 C26.51,25.249 26.613,25.146 26.74,25.095 C26.789,25.076 26.84,25.066 26.893,25.061 C27.283,25.049 27.673,25.04 28.064,25.034 L28.064,25.034 Z M30.501,26.06 C29.734,26.077 28.964,26.107 28.198,26.06 L30.501,26.06 Z M27.424,26.06 L27.424,29.106 L29.212,30.298 L31,29.106 L31,26.06 L27.424,26.06 L27.424,26.06 Z M29.69,25.026 C29.793,25.027 29.897,25.028 30,25.029 L30,24.78 L29.69,25.026 L29.69,25.026 Z M38.876,8.658 C38.237,8.67 37.607,8.809 37.027,9.08 C36.17,9.48 35.449,10.152 34.988,10.977 C34.763,11.379 34.6,11.815 34.508,12.266 C34.404,12.772 34.388,13.297 34.46,13.809 C34.524,14.268 34.66,14.717 34.862,15.134 C35.098,15.625 35.424,16.071 35.818,16.447 C36.226,16.836 36.706,17.148 37.228,17.362 C37.769,17.583 38.351,17.696 38.935,17.696 C39.519,17.696 40.101,17.583 40.642,17.362 C41.164,17.148 41.644,16.836 42.052,16.447 C42.446,16.071 42.772,15.625 43.008,15.134 C43.21,14.717 43.346,14.268 43.41,13.809 C43.482,13.297 43.466,12.772 43.362,12.266 C43.273,11.833 43.12,11.413 42.909,11.025 C42.449,10.178 41.716,9.488 40.843,9.08 C40.263,8.809 39.633,8.67 38.994,8.658 L38.876,8.658 L38.876,8.658 Z M9.942,8.677 C9.305,8.689 8.678,8.827 8.1,9.097 C7.214,9.511 6.474,10.216 6.017,11.082 C5.82,11.455 5.676,11.856 5.591,12.27 C5.488,12.774 5.472,13.297 5.544,13.807 C5.608,14.264 5.743,14.71 5.944,15.126 C6.179,15.615 6.504,16.059 6.896,16.434 C7.302,16.821 7.781,17.132 8.3,17.344 C8.839,17.564 9.418,17.677 10,17.677 C10.582,17.677 11.161,17.564 11.7,17.344 C12.219,17.132 12.698,16.821 13.104,16.434 C13.496,16.059 13.821,15.615 14.056,15.126 C14.257,14.71 14.392,14.264 14.456,13.807 C14.528,13.297 14.512,12.774 14.409,12.27 C14.324,11.856 14.18,11.455 13.983,11.082 C13.526,10.216 12.786,9.511 11.9,9.097 C11.322,8.827 10.695,8.689 10.058,8.677 L9.942,8.677 L9.942,8.677 Z M24.526,0.001 C24.866,0.007 25.204,0.03 25.54,0.078 C26.323,0.187 27.087,0.414 27.803,0.748 C29.407,1.497 30.739,2.783 31.547,4.358 C31.906,5.058 32.16,5.811 32.298,6.585 C32.447,7.42 32.463,8.278 32.345,9.117 C32.231,9.932 31.99,10.727 31.633,11.468 C31.215,12.336 30.639,13.125 29.942,13.79 C29.22,14.478 28.37,15.031 27.446,15.408 C26.489,15.799 25.457,16 24.423,16 C23.389,16 22.357,15.799 21.4,15.408 C20.476,15.03 19.626,14.478 18.904,13.79 C18.207,13.125 17.631,12.336 17.213,11.468 C16.856,10.727 16.615,9.932 16.501,9.117 C16.383,8.278 16.399,7.42 16.548,6.585 C16.687,5.811 16.941,5.058 17.299,4.358 C18.107,2.783 19.439,1.497 21.043,0.748 C21.759,0.414 22.524,0.187 23.306,0.078 C23.642,0.03 23.981,0.007 24.32,0.001 C24.423,5.68434189e-14 24.423,5.68434189e-14 24.526,0.001 L24.526,0.001 Z M24.345,2.001 C24.04,2.006 23.736,2.031 23.434,2.081 C22.901,2.169 22.38,2.331 21.889,2.56 C21.212,2.877 20.596,3.321 20.081,3.862 C19.581,4.386 19.177,4.999 18.894,5.666 C18.663,6.213 18.514,6.795 18.454,7.386 C18.385,8.068 18.431,8.761 18.594,9.427 C18.721,9.949 18.92,10.453 19.182,10.921 C19.831,12.081 20.865,13.01 22.089,13.529 C22.802,13.83 23.572,13.99 24.346,13.999 C25.122,14.009 25.899,13.869 26.622,13.584 C27.318,13.309 27.961,12.902 28.509,12.392 C29.038,11.899 29.478,11.312 29.8,10.665 C30.073,10.114 30.261,9.522 30.354,8.914 C30.454,8.26 30.446,7.589 30.329,6.938 C30.226,6.358 30.035,5.794 29.767,5.27 C29.183,4.132 28.234,3.193 27.088,2.623 C26.582,2.372 26.041,2.193 25.485,2.094 C25.211,2.045 24.934,2.017 24.655,2.004 C24.552,2.001 24.449,2 24.345,2.001 L24.345,2.001 Z"></path>
            </g>
        </g>
    </g>
</svg>