<?xml version="1.0" encoding="UTF-8" standalone="no"?>
<svg width="30px" height="40px" viewBox="0 0 30 40" version="1.1" xmlns="http://www.w3.org/2000/svg" xmlns:xlink="http://www.w3.org/1999/xlink">
    <!-- Generator: Sketch 3.6.1 (26313) - http://www.bohemiancoding.com/sketch -->
    <title>:: mkt</title>
    <desc>Created with Sketch.</desc>
    <defs></defs>
    <g stroke="none" stroke-width="1" fill-rule="evenodd">
        <g transform="translate(-265.000000, -640.000000)">
            <g transform="translate(265.000000, 640.000000)">
                <path d="M7.622,32.788 C7.388,32.621 7.171,32.429 6.979,32.208 C6.873,32.085 6.775,31.955 6.688,31.817 C6.554,31.607 6.445,31.382 6.36,31.148 C6.087,30.394 6.084,29.586 6.119,28.796 C6.141,28.363 6.172,27.932 6.194,27.499 C6.205,27.232 6.211,26.965 6.208,26.698 C6.207,26.63 6.207,26.63 6.205,26.562 L6.204,26.559 L6.184,26.45 C6.175,26.311 6.175,26.173 6.166,26.035 C6.159,25.964 6.152,25.893 6.143,25.822 C6.015,24.92 5.592,24.066 4.97,23.401 C4.849,23.276 4.719,23.16 4.595,23.039 C4.248,22.691 3.916,22.33 3.607,21.948 C2.888,21.062 2.283,20.084 1.82,19.04 C1.284,17.831 0.942,16.538 0.815,15.221 C0.701,14.043 0.757,12.849 0.983,11.688 C1.171,10.718 1.478,9.772 1.89,8.875 C2.781,6.937 4.162,5.243 5.842,3.935 C6.992,3.04 8.28,2.325 9.644,1.811 C10.788,1.381 11.984,1.093 13.198,0.951 C13.736,0.888 14.276,0.856 14.817,0.847 C15,0.846 15,0.846 15.183,0.847 C15.724,0.856 16.264,0.888 16.802,0.951 C17.902,1.079 18.988,1.328 20.033,1.694 C21.36,2.159 22.621,2.813 23.76,3.637 C25.399,4.822 26.782,6.362 27.745,8.144 C28.186,8.961 28.538,9.826 28.788,10.721 C29.09,11.798 29.242,12.916 29.242,14.035 C29.242,15.317 29.041,16.597 28.647,17.818 C28.162,19.32 27.387,20.723 26.393,21.948 C26.118,22.287 25.827,22.612 25.521,22.923 C25.445,22.999 25.366,23.078 25.288,23.153 C25.202,23.236 25.113,23.315 25.03,23.401 C24.98,23.454 24.932,23.508 24.885,23.564 C24.41,24.138 24.053,24.816 23.903,25.549 C23.849,25.81 23.826,26.073 23.823,26.339 L23.816,26.45 L23.796,26.56 C23.79,26.579 23.794,26.6 23.794,26.621 C23.791,26.722 23.791,26.736 23.79,26.859 C23.794,27.506 23.848,28.15 23.881,28.796 C23.889,28.96 23.889,28.959 23.894,29.124 C23.907,29.777 23.879,30.437 23.67,31.062 C23.591,31.297 23.489,31.523 23.362,31.736 C23.28,31.875 23.187,32.007 23.084,32.132 C22.878,32.385 22.639,32.601 22.377,32.787 C22.394,32.854 22.404,32.922 22.407,32.99 C22.411,33.096 22.396,33.203 22.382,33.308 C22.343,33.6 22.272,33.889 22.161,34.162 C22.081,34.358 21.98,34.546 21.859,34.72 C21.775,34.841 21.682,34.955 21.581,35.062 C21.287,35.373 20.935,35.612 20.554,35.798 C20.578,35.85 20.598,35.904 20.613,35.96 C20.657,36.125 20.648,36.288 20.626,36.456 C20.59,36.718 20.523,36.977 20.414,37.22 C20.201,37.695 19.834,38.076 19.388,38.342 C19.039,38.55 18.652,38.688 18.259,38.789 C17.774,38.912 17.275,38.98 16.777,39.024 C16.127,39.08 15.472,39.095 14.819,39.091 C14.194,39.087 13.568,39.064 12.946,38.997 C12.774,38.978 12.602,38.955 12.43,38.928 C12.311,38.91 12.192,38.888 12.074,38.864 C11.3,38.708 10.501,38.422 9.966,37.812 C9.887,37.722 9.815,37.626 9.75,37.525 C9.643,37.357 9.558,37.175 9.495,36.986 C9.445,36.838 9.41,36.684 9.385,36.529 C9.368,36.421 9.352,36.309 9.354,36.199 C9.356,36.06 9.388,35.923 9.446,35.798 C9.379,35.765 9.313,35.73 9.247,35.694 C8.975,35.543 8.72,35.361 8.498,35.143 C8.264,34.913 8.069,34.646 7.924,34.352 C7.777,34.053 7.684,33.73 7.632,33.402 C7.603,33.219 7.575,33.032 7.609,32.848 C7.613,32.828 7.617,32.808 7.622,32.788 L7.622,32.788 Z M18.6,36.376 C18.449,36.401 18.298,36.423 18.147,36.443 C17.84,36.484 17.532,36.515 17.224,36.538 C16.402,36.602 15.577,36.619 14.753,36.614 C13.966,36.609 13.177,36.582 12.393,36.505 C12.061,36.473 11.73,36.432 11.401,36.376 C11.412,36.406 11.426,36.434 11.444,36.46 C11.499,36.539 11.583,36.595 11.666,36.641 C11.822,36.727 11.994,36.785 12.165,36.832 C12.239,36.852 12.314,36.87 12.389,36.887 C12.475,36.906 12.561,36.922 12.648,36.937 C12.782,36.96 12.916,36.979 13.051,36.995 C13.752,37.08 14.462,37.095 15.168,37.091 C15.865,37.086 16.568,37.062 17.258,36.953 C17.584,36.901 17.919,36.833 18.222,36.697 C18.346,36.641 18.487,36.568 18.563,36.449 C18.578,36.425 18.59,36.401 18.6,36.376 L18.6,36.376 Z M9.909,33.725 C10.032,33.843 10.184,33.933 10.336,34.006 C10.721,34.192 11.144,34.295 11.562,34.373 C11.746,34.408 11.93,34.436 12.115,34.461 C13.147,34.597 14.194,34.62 15.234,34.614 C15.786,34.61 16.339,34.595 16.889,34.557 C17.364,34.525 17.839,34.477 18.308,34.397 C18.769,34.317 19.24,34.211 19.664,34.006 C19.816,33.933 19.968,33.843 20.091,33.725 C20.056,33.733 20.021,33.741 19.987,33.748 C19.744,33.801 19.5,33.846 19.254,33.885 C18.985,33.928 18.714,33.963 18.443,33.993 C18.081,34.033 17.718,34.063 17.355,34.086 C16.875,34.117 16.394,34.135 15.913,34.145 C15.232,34.159 14.55,34.158 13.869,34.14 C13.397,34.128 12.925,34.107 12.455,34.074 C12.098,34.048 11.743,34.016 11.388,33.974 C11.122,33.942 10.857,33.905 10.593,33.86 C10.399,33.827 10.206,33.79 10.013,33.748 C9.979,33.741 9.944,33.733 9.909,33.725 L9.909,33.725 Z M18.012,32.028 C18.571,31.974 19.128,31.895 19.674,31.769 C20.127,31.664 20.585,31.528 20.993,31.3 C21.24,31.162 21.471,30.984 21.625,30.743 C21.736,30.569 21.8,30.371 21.839,30.17 C21.885,29.932 21.897,29.687 21.898,29.444 C21.899,29.308 21.895,29.173 21.89,29.037 C21.869,28.554 21.832,28.073 21.808,27.59 C21.793,27.217 21.786,26.844 21.797,26.471 L21.801,26.373 C21.805,26.29 21.809,26.208 21.827,26.126 C21.829,26.045 21.835,25.963 21.84,25.882 C21.87,25.534 21.925,25.19 22.012,24.852 C22.296,23.755 22.883,22.741 23.671,21.93 C23.781,21.827 23.89,21.723 23.998,21.618 C24.293,21.321 24.576,21.013 24.84,20.688 C25.448,19.939 25.96,19.112 26.351,18.23 C26.801,17.216 27.088,16.133 27.195,15.029 C27.29,14.043 27.243,13.042 27.054,12.069 C26.896,11.256 26.639,10.463 26.293,9.71 C25.535,8.063 24.358,6.625 22.929,5.514 C21.938,4.742 20.827,4.126 19.651,3.683 C18.659,3.31 17.622,3.06 16.569,2.937 C16.101,2.882 15.631,2.855 15.159,2.847 C15,2.846 15,2.846 14.841,2.847 C14.369,2.855 13.899,2.882 13.431,2.937 C12.329,3.066 11.244,3.333 10.21,3.736 C7.784,4.681 5.646,6.383 4.289,8.617 C4.027,9.048 3.795,9.498 3.596,9.961 C3.269,10.724 3.033,11.525 2.897,12.344 C2.734,13.322 2.714,14.324 2.836,15.309 C2.978,16.452 3.315,17.569 3.823,18.603 C4.249,19.471 4.793,20.279 5.429,21.007 C5.712,21.331 6.015,21.636 6.329,21.93 C6.395,21.998 6.46,22.066 6.524,22.137 C7.254,22.965 7.794,23.966 8.035,25.047 C8.113,25.395 8.155,25.747 8.173,26.103 C8.174,26.138 8.176,26.137 8.183,26.171 C8.213,26.46 8.212,26.754 8.209,27.044 C8.201,27.661 8.148,28.276 8.116,28.892 C8.11,29.032 8.105,29.173 8.102,29.313 C8.101,29.584 8.106,29.855 8.152,30.123 C8.186,30.316 8.241,30.507 8.337,30.678 C8.561,31.08 8.987,31.319 9.4,31.486 C9.81,31.652 10.242,31.759 10.675,31.842 C11.109,31.926 11.548,31.984 11.988,32.027 L9.148,19.353 C9.139,19.302 9.133,19.254 9.137,19.202 C9.152,19.031 9.255,18.877 9.407,18.799 C9.469,18.767 9.533,18.753 9.601,18.745 C9.652,18.744 9.652,18.744 9.703,18.748 C9.753,18.758 9.801,18.769 9.848,18.791 C9.955,18.841 10.043,18.93 10.091,19.038 C10.11,19.079 10.111,19.091 10.123,19.134 L13.03,32.106 C13.466,32.129 13.903,32.142 14.339,32.149 C15.216,32.162 16.094,32.153 16.97,32.106 L19.877,19.134 C19.889,19.091 19.89,19.079 19.909,19.038 C19.957,18.93 20.045,18.841 20.152,18.791 C20.199,18.769 20.247,18.758 20.297,18.748 C20.348,18.744 20.348,18.744 20.399,18.745 C20.467,18.753 20.531,18.767 20.593,18.799 C20.745,18.877 20.848,19.031 20.863,19.202 C20.867,19.254 20.861,19.302 20.852,19.353 L18.012,32.028 L18.012,32.028 Z M18.607,16.398 C18.679,16.407 18.741,16.426 18.806,16.458 C19.204,16.699 19.583,16.971 19.971,17.228 C20.076,17.305 20.153,17.406 20.182,17.535 C20.195,17.59 20.198,17.648 20.191,17.704 C20.16,17.966 19.92,18.164 19.657,18.144 C19.57,18.137 19.492,18.106 19.418,18.062 L18.566,17.497 L17.045,18.506 L17.008,18.527 C16.97,18.546 16.933,18.563 16.891,18.574 C16.749,18.609 16.61,18.578 16.488,18.503 L15.006,17.499 L13.501,18.505 L13.465,18.526 C13.337,18.59 13.197,18.609 13.06,18.561 C13.019,18.547 12.984,18.528 12.947,18.506 L11.425,17.497 L10.579,18.061 L10.542,18.083 C10.439,18.134 10.329,18.158 10.214,18.137 C10.158,18.127 10.104,18.108 10.055,18.08 C9.839,17.957 9.745,17.685 9.839,17.456 C9.872,17.375 9.925,17.311 9.99,17.254 C10.364,16.981 10.761,16.738 11.146,16.481 C11.183,16.459 11.218,16.439 11.259,16.425 C11.364,16.388 11.482,16.388 11.588,16.424 C11.628,16.438 11.664,16.458 11.7,16.48 L13.222,17.488 L14.731,16.481 L14.767,16.459 C14.805,16.44 14.843,16.423 14.884,16.412 C15.026,16.376 15.166,16.407 15.289,16.483 L16.771,17.487 L18.289,16.48 L18.325,16.458 C18.39,16.426 18.452,16.408 18.524,16.398 C18.566,16.397 18.565,16.397 18.607,16.398 L18.607,16.398 Z M12.129,4.117 C12.235,4.125 12.334,4.157 12.419,4.224 C12.633,4.392 12.671,4.712 12.502,4.926 C12.452,4.989 12.39,5.034 12.319,5.071 C12.192,5.123 12.062,5.168 11.934,5.217 C11.203,5.509 10.497,5.855 9.827,6.27 C8.186,7.284 6.774,8.672 5.776,10.326 C5.45,10.867 5.168,11.436 4.938,12.025 C4.875,12.185 4.816,12.348 4.76,12.511 C4.719,12.634 4.684,12.76 4.641,12.882 C4.625,12.918 4.625,12.917 4.606,12.952 C4.533,13.064 4.43,13.148 4.299,13.181 C4.235,13.197 4.169,13.2 4.104,13.191 C4.052,13.183 4.002,13.167 3.955,13.144 C3.75,13.043 3.638,12.808 3.689,12.585 C3.705,12.512 3.731,12.442 3.754,12.371 C3.773,12.311 3.793,12.251 3.813,12.191 C3.873,12.013 3.938,11.836 4.007,11.66 C4.303,10.902 4.677,10.175 5.118,9.491 C6.323,7.622 8.021,6.091 9.971,5.03 C10.43,4.78 10.902,4.556 11.386,4.359 C11.511,4.308 11.627,4.262 11.754,4.215 C11.841,4.182 11.923,4.147 12.012,4.126 C12.052,4.12 12.089,4.117 12.129,4.117 L12.129,4.117 Z"></path>
            </g>
        </g>
    </g>
</svg>