<?xml version="1.0" encoding="UTF-8" standalone="no"?>
<svg width="43px" height="32px" viewBox="0 0 43 32" version="1.1" xmlns="http://www.w3.org/2000/svg" xmlns:xlink="http://www.w3.org/1999/xlink">
    <!-- Generator: Sketch 3.6.1 (26313) - http://www.bohemiancoding.com/sketch -->
    <title>:: office</title>
    <desc>Created with Sketch.</desc>
    <defs></defs>
    <g stroke="none" stroke-width="1" fill-rule="evenodd">
        <g transform="translate(-334.000000, -570.000000)">
            <g transform="translate(334.000000, 570.000000)">
                <path d="M5,21.799 L5,1.947 C5.002,1.91 5.002,1.872 5.006,1.835 C5.015,1.761 5.031,1.687 5.056,1.617 C5.156,1.332 5.385,1.103 5.67,1.003 C5.74,0.978 5.814,0.962 5.888,0.953 C5.925,0.949 5.963,0.949 6,0.947 L38,0.947 C38.037,0.949 38.075,0.951 38.112,0.953 C38.149,0.959 38.186,0.964 38.223,0.972 C38.296,0.989 38.366,1.013 38.434,1.046 C38.671,1.16 38.857,1.368 38.944,1.617 C38.969,1.687 38.985,1.761 38.994,1.835 C38.998,1.872 38.998,1.91 39,1.947 L39,22 C38.999,22.012 38.999,22.025 38.998,22.038 L42.722,27.432 C42.743,27.466 42.765,27.5 42.784,27.535 C42.84,27.642 42.877,27.759 42.891,27.879 C42.894,27.902 42.896,27.924 42.897,27.947 C42.908,27.968 42.918,27.99 42.927,28.013 C42.971,28.123 42.994,28.238 42.999,28.356 C43.014,29.259 43.041,30.163 42.998,31.064 C42.986,31.214 42.945,31.359 42.871,31.491 C42.847,31.535 42.819,31.576 42.788,31.616 L42.787,31.616 L42.787,31.617 L42.786,31.618 L42.783,31.621 L42.782,31.623 L42.781,31.624 L42.781,31.625 L42.779,31.627 L42.776,31.63 L42.775,31.632 L42.775,31.632 L42.774,31.634 L42.771,31.637 L42.769,31.639 L42.769,31.639 L42.769,31.639 L42.767,31.642 L42.764,31.646 L42.763,31.646 L42.763,31.646 C42.762,31.648 42.76,31.65 42.758,31.652 L42.758,31.653 L42.757,31.654 L42.755,31.655 L42.753,31.658 L42.752,31.66 L42.749,31.663 L42.747,31.664 L42.747,31.665 C42.731,31.683 42.714,31.701 42.696,31.718 C42.682,31.732 42.668,31.744 42.654,31.757 L42.651,31.759 L42.65,31.76 L42.65,31.76 L42.65,31.76 C42.598,31.804 42.541,31.843 42.482,31.876 C42.372,31.937 42.25,31.976 42.125,31.992 C42.084,31.997 42.042,31.997 42,32 L2.018,32 C2.012,32 2.005,31.999 1.998,31.999 C1.882,31.999 1.766,31.979 1.655,31.938 C1.544,31.898 1.441,31.838 1.352,31.761 C1.254,31.678 1.173,31.576 1.113,31.463 C1.043,31.329 1.008,31.183 1.001,31.032 C0.986,30.139 0.959,29.244 1.001,28.351 C0.945,28.203 0.923,28.041 0.943,27.879 C0.957,27.759 0.994,27.642 1.05,27.535 C1.069,27.5 1.091,27.466 1.112,27.432 L5,21.799 L5,21.799 Z M3.011,29 C3.017,29.333 3.022,29.667 3.021,30 L40.983,30 C40.979,29.667 40.977,29.333 40.981,29 L3.011,29 L3.011,29 Z M6.601,23 L3.841,27 L39.993,27 L37.233,23 L6.601,23 L6.601,23 Z M37,2.947 L7,2.947 L7,21 L37,21 L37,2.947 L37,2.947 Z M11,7 C11,8.058 11.024,9.115 10.999,10.173 C10.995,10.22 10.996,10.22 10.99,10.267 C10.958,10.457 10.883,10.633 10.756,10.78 C10.683,10.864 10.596,10.935 10.5,10.991 C10.135,11.202 9.664,11.157 9.345,10.881 C9.249,10.798 9.169,10.696 9.111,10.583 C9.045,10.454 9.011,10.316 9.001,10.173 C8.968,8.766 8.968,7.359 9.001,5.952 C9.008,5.857 9.024,5.764 9.055,5.673 C9.149,5.401 9.361,5.179 9.628,5.072 C9.733,5.03 9.841,5.009 9.952,5.001 C11.911,4.955 13.871,4.955 15.83,5.001 C15.99,5.013 16.143,5.053 16.282,5.134 C16.618,5.328 16.814,5.709 16.778,6.095 C16.768,6.19 16.746,6.283 16.71,6.372 C16.663,6.49 16.593,6.598 16.506,6.69 C16.418,6.782 16.313,6.857 16.197,6.91 C16.066,6.97 15.926,6.997 15.782,7 L11,7 L11,7 Z"></path>
            </g>
        </g>
    </g>
</svg>