<?xml version="1.0" encoding="UTF-8" standalone="no"?>
<svg width="31px" height="27px" viewBox="0 0 31 27" version="1.1" xmlns="http://www.w3.org/2000/svg" xmlns:xlink="http://www.w3.org/1999/xlink">
    <!-- Generator: Sketch 3.6.1 (26313) - http://www.bohemiancoding.com/sketch -->
    <title>:: office supplies</title>
    <desc>Created with Sketch.</desc>
    <defs></defs>
    <g stroke="none" stroke-width="1" fill-rule="evenodd">
        <g transform="translate(-340.000000, -646.000000)">
            <g transform="translate(356.104389, 658.481245) rotate(45.000000) translate(-356.104389, -658.481245) translate(338.858905, 650.021196)">
                <path d="M6.02420564,8.24334157 C6.14720174,8.13466248 6.27735634,8.03574498 6.41857408,7.95114449 C6.80513324,7.7194693 7.24505579,7.60233016 7.69473993,7.59712398 L21.4755089,7.59712398 C21.5106507,7.59842553 21.5451416,7.59842553 21.5802834,7.60233016 C21.718898,7.61664717 21.8542588,7.66089973 21.9753026,7.73053244 C22.0664108,7.78324506 22.1484082,7.8496239 22.2186917,7.92771666 C22.2889752,8.00580942 22.3462432,8.09431455 22.3891942,8.18997818 C22.5479828,8.54725256 22.4803024,8.97546119 22.2186917,9.26570595 C22.0781247,9.42189147 21.8887498,9.53122133 21.6831055,9.57482312 C21.5919973,9.59434631 21.5685695,9.59174322 21.4755089,9.5969494 C16.8673853,9.5969494 12.2423416,9.19997787 7.65178891,9.5995525 C7.57890234,9.60736177 7.50861885,9.62948805 7.44549387,9.66723289 C7.23854806,9.79153053 7.14874138,10.0563951 7.23724651,10.2809118 C7.25937279,10.3368783 7.29191144,10.3889401 7.33225937,10.4331927 C7.37586116,10.4806991 7.427923,10.5203963 7.4858418,10.5483795 C7.54961755,10.5789659 7.61794872,10.5939336 7.6882322,10.5965367 C13.5477923,10.6746295 19.4086539,10.6681218 25.268214,10.595886 C25.5708234,10.5848228 25.8649728,10.5151901 26.1356944,10.3785278 C26.3153077,10.2887211 26.4812548,10.1722327 26.6263772,10.0336181 C26.7728011,9.89435266 26.8977496,9.73426251 26.9966671,9.5585538 C27.2875626,9.04574467 27.340926,8.41774873 27.1417894,7.86263936 C27.0578397,7.62705954 26.9296374,7.40709826 26.7662934,7.21772332 C26.5912355,7.01468215 26.3758296,6.84613194 26.1356944,6.72573894 C25.8649728,6.58972738 25.5708234,6.5194439 25.268214,6.50838075 C18.929685,6.42963722 12.5885529,6.38798775 6.25067465,6.50903153 C5.64480499,6.52790394 5.05064924,6.67432787 4.51050765,6.95090639 C4.01787249,7.20275554 3.57925149,7.55677605 3.2271833,7.98368314 C2.90439989,8.37479771 2.65515383,8.8257834 2.49896831,9.30800619 C2.36230598,9.7297071 2.29657791,10.1722327 2.30178409,10.6147584 C2.31089492,11.361195 2.52955464,12.0998224 2.92847849,12.7304214 C3.17837532,13.1254406 3.49595255,13.4755565 3.86429006,13.7625474 C4.16429642,13.9961749 4.49684142,14.1875021 4.85021116,14.3287199 C5.31356153,14.5141902 5.80619669,14.609203 6.30533958,14.6183139 C12.9816198,14.6599633 19.6598523,14.7445638 26.3348309,14.6163615 C27.0610936,14.5935845 27.7775947,14.4497637 28.4511447,14.1744867 C29.5255709,13.7358657 30.4613825,12.9816198 31.1225679,12.0275866 C31.4967623,11.4880957 31.7818009,10.8867815 31.9614143,10.2542301 C32.1416784,9.61972646 32.2152157,8.955938 32.1813755,8.29670495 C32.1475353,7.62445645 32.0004606,6.95871567 31.7453576,6.33527514 C31.4622714,5.64155112 31.0470782,5.00249204 30.5297137,4.46039813 C29.9967306,3.90138412 29.3563699,3.44584303 28.6522336,3.12696426 C28.134869,2.89333675 27.5836643,2.73389737 27.0213964,2.65515383 C26.7409133,2.61610745 26.4591286,2.59853658 26.1760423,2.59658426 L12.2618648,2.59658426 C12.1688043,2.59202885 12.1447257,2.59463194 12.0536175,2.57510875 C11.8479732,2.53150696 11.659249,2.4221771 11.5186821,2.26599158 C11.4483986,2.18789882 11.3904798,2.09939369 11.3481795,2.00373006 C11.1893909,1.64645569 11.2570713,1.21824705 11.5186821,0.927351522 C11.5883148,0.849909536 11.6709629,0.782879917 11.7614204,0.730818077 C11.8824642,0.661185366 12.0184757,0.616932802 12.1570904,0.601965023 C12.1915813,0.598711158 12.2267231,0.598711158 12.2618648,0.596758839 C16.9350657,0.596758839 21.6089174,0.567474054 26.2827691,0.597409612 C26.6224726,0.603917342 26.9615253,0.62734517 27.297975,0.674200826 C27.9526526,0.765959819 28.5956163,0.939065436 29.2073429,1.18896227 C30.6084572,1.76164251 31.8338628,2.73584968 32.7111048,3.96906452 C33.2375801,4.70964419 33.6371547,5.54003053 33.88575,6.41466944 C34.1161237,7.22618337 34.2156919,8.07414059 34.183804,8.91754239 C34.1493131,9.81691068 33.9638428,10.7084697 33.6332501,11.5460145 C33.2668649,12.4753184 32.7241202,13.333688 32.0434117,14.0651568 C31.3425291,14.8181012 30.497175,15.4343832 29.5646173,15.8697503 C28.8481162,16.2042477 28.0815056,16.4313674 27.2986257,16.5406973 C26.9615253,16.5882037 26.6224726,16.6116316 26.2827691,16.6181393 C19.5902196,16.6604395 12.8963685,16.7398338 6.20512054,16.6168377 C5.41182825,16.5921084 4.62959911,16.4216058 3.90333644,16.0994732 C3.33781471,15.8489256 2.81133935,15.5118252 2.34798898,15.102489 C1.90025715,14.706819 1.51174567,14.2447702 1.19872386,13.7358657 C0.798498469,13.0850927 0.523221491,12.3581792 0.391765345,11.6052349 C0.218008954,10.6115045 0.296101714,9.57612467 0.619535894,8.62013913 C0.85511572,7.92576434 1.21759628,7.27564212 1.68420052,6.71012038 C2.20937433,6.07431516 2.86470274,5.54653826 3.59877468,5.17039147 C4.15128096,4.88730522 4.74738902,4.69077177 5.35976641,4.58925118 C5.63764648,4.5430463 5.91812965,4.51831693 6.19991435,4.50985688 C12.5716328,4.38816233 18.9459543,4.4298118 25.3183235,4.5092061 C25.4849214,4.51506306 25.6502177,4.52742775 25.8148633,4.55215712 C26.2385165,4.6152821 26.6517574,4.74608748 27.0344119,4.93871628 C27.4190187,5.13199586 27.7723885,5.38774965 28.077601,5.69231141 C28.3587349,5.97344535 28.5982194,6.29622876 28.7849913,6.64764618 C29.0335865,7.11294887 29.1897721,7.62705954 29.2418339,8.15223335 C29.3010542,8.74703987 29.2262153,9.3535603 29.0251265,9.91647895 C28.8578778,10.3824324 28.6047271,10.8171488 28.2819437,11.191994 C27.9350817,11.5948225 27.5088254,11.9273675 27.0344119,12.1662012 C26.6517574,12.3581792 26.2385165,12.4889846 25.8148633,12.5527604 C25.6502177,12.576839 25.4849214,12.5892036 25.3183235,12.5957114 C19.4249232,12.6679472 13.5302214,12.6744549 7.63682113,12.5963622 C7.30362536,12.5833467 6.97758809,12.513714 6.67237555,12.3757501 C6.43484341,12.2683726 6.21423136,12.1232502 6.02095178,11.9475415 C5.81400597,11.7594681 5.63894803,11.5362529 5.50488879,11.2902607 C5.18796234,10.7065174 5.11767886,10.0043333 5.31095844,9.36852808 C5.41833598,9.01450757 5.60510783,8.69432726 5.84979848,8.41774873 C5.90576496,8.35722684 5.96368375,8.29930805 6.02420564,8.24334157 L6.02420564,8.24334157 Z"></path>
            </g>
        </g>
    </g>
</svg>