<?xml version="1.0" standalone="no"?><!DOCTYPE svg PUBLIC "-//W3C//DTD SVG 1.1//EN" "http://www.w3.org/Graphics/SVG/1.1/DTD/svg11.dtd"><svg width="100%" height="100%" viewBox="0 0 23 36" version="1.1" xmlns="http://www.w3.org/2000/svg" xmlns:xlink="http://www.w3.org/1999/xlink" xml:space="preserve" style="fill-rule:evenodd;clip-rule:evenodd;stroke-linejoin:round;stroke-miterlimit:1.41421;"><path id="money" d="M13.527,0.006c0.037,0.007 0.074,0.011 0.111,0.019c0.073,0.017 0.144,0.042 0.211,0.074c0.237,0.114 0.423,0.322 0.51,0.571c0.025,0.07 0.041,0.144 0.05,0.218c0.004,0.037 0.004,0.075 0.006,0.112l0,3.895c0.207,0.031 0.413,0.067 0.618,0.104c0.181,0.034 0.362,0.07 0.542,0.108c2.049,0.444 4.048,1.176 5.826,2.298l0.098,0.063c0.03,0.022 0.061,0.042 0.09,0.066c0.058,0.047 0.11,0.1 0.156,0.158c0.161,0.206 0.236,0.472 0.206,0.732c-0.008,0.074 -0.025,0.146 -0.05,0.217c-0.012,0.035 -0.028,0.068 -0.042,0.102l-2.236,4.64c-0.018,0.031 -0.034,0.064 -0.053,0.095c-0.039,0.062 -0.085,0.12 -0.136,0.172c-0.233,0.237 -0.578,0.344 -0.905,0.28c-0.072,-0.014 -0.142,-0.036 -0.209,-0.066c-0.033,-0.014 -0.065,-0.033 -0.097,-0.049c-0.149,-0.086 -0.298,-0.169 -0.448,-0.252c-1.096,-0.589 -2.244,-1.081 -3.43,-1.458c-0.445,-0.141 -0.896,-0.266 -1.352,-0.367c-0.389,-0.086 -0.784,-0.156 -1.181,-0.196c-0.302,-0.03 -0.607,-0.04 -0.911,-0.018c-0.302,0.022 -0.618,0.072 -0.891,0.209c-0.121,0.06 -0.248,0.144 -0.3,0.274c-0.041,0.103 -0.041,0.224 -0.025,0.332c0.013,0.084 0.041,0.164 0.085,0.237c0.059,0.099 0.14,0.183 0.226,0.258c0.262,0.228 0.584,0.386 0.901,0.524c0.469,0.204 0.957,0.359 1.445,0.51c0.738,0.222 1.48,0.428 2.218,0.647c0.299,0.091 0.598,0.183 0.894,0.281c0.252,0.084 0.504,0.171 0.753,0.264c1.486,0.551 2.948,1.3 4.037,2.477c0.196,0.211 0.377,0.434 0.544,0.668c0.422,0.595 0.738,1.261 0.94,1.962c0.198,0.687 0.288,1.402 0.296,2.116c0.012,1.067 -0.168,2.137 -0.585,3.122c-0.364,0.862 -0.903,1.644 -1.57,2.301c-0.206,0.203 -0.423,0.394 -0.65,0.574c-1.363,1.075 -3.026,1.69 -4.72,2.006l-0.084,0.015l0,4.174l-0.006,0.112c-0.006,0.037 -0.011,0.074 -0.019,0.111c-0.017,0.073 -0.041,0.144 -0.074,0.211c-0.114,0.237 -0.322,0.423 -0.571,0.51c-0.07,0.025 -0.143,0.042 -0.218,0.05c-0.037,0.004 -0.075,0.004 -0.112,0.006l-4.405,0c-0.038,-0.002 -0.075,-0.002 -0.112,-0.006c-0.075,-0.008 -0.148,-0.025 -0.219,-0.05c-0.285,-0.1 -0.514,-0.329 -0.613,-0.613c-0.025,-0.071 -0.042,-0.144 -0.05,-0.219c-0.004,-0.037 -0.004,-0.074 -0.006,-0.112l0,-4.337c-0.162,-0.033 -0.323,-0.069 -0.484,-0.106c-0.146,-0.034 -0.292,-0.07 -0.438,-0.107c-1.897,-0.498 -3.721,-1.273 -5.363,-2.351c-0.433,-0.285 -0.851,-0.592 -1.255,-0.917l-0.104,-0.086c-0.028,-0.025 -0.057,-0.049 -0.083,-0.076c-0.053,-0.054 -0.099,-0.114 -0.138,-0.178c-0.137,-0.225 -0.18,-0.502 -0.116,-0.758c0.024,-0.098 0.038,-0.12 0.078,-0.211l2.302,-4.572c0.019,-0.033 0.036,-0.067 0.057,-0.099c0.062,-0.095 0.141,-0.179 0.231,-0.248c0.275,-0.209 0.647,-0.261 0.969,-0.135c0.07,0.027 0.138,0.063 0.2,0.105c0.031,0.022 0.06,0.046 0.09,0.069c0.106,0.092 0.213,0.183 0.322,0.272c1.128,0.903 2.4,1.621 3.743,2.153c0.892,0.353 1.822,0.632 2.773,0.765c0.543,0.076 1.099,0.102 1.644,0.029c0.295,-0.039 0.596,-0.106 0.862,-0.243c0.138,-0.072 0.273,-0.165 0.362,-0.296c0.084,-0.123 0.117,-0.272 0.121,-0.42c0.003,-0.123 -0.013,-0.247 -0.065,-0.359c-0.058,-0.128 -0.154,-0.235 -0.259,-0.326c-0.259,-0.228 -0.579,-0.386 -0.894,-0.522c-0.548,-0.236 -1.123,-0.406 -1.696,-0.573c-0.651,-0.185 -1.305,-0.36 -1.957,-0.544c-0.298,-0.086 -0.596,-0.173 -0.892,-0.266c-0.252,-0.08 -0.503,-0.162 -0.752,-0.25c-1.531,-0.539 -3.049,-1.284 -4.156,-2.501c-0.172,-0.189 -0.334,-0.388 -0.482,-0.597c-0.381,-0.536 -0.673,-1.133 -0.869,-1.761c-0.187,-0.601 -0.286,-1.226 -0.316,-1.853c-0.039,-0.815 0.033,-1.636 0.243,-2.425c0.292,-1.105 0.854,-2.125 1.625,-2.968c0.818,-0.893 1.846,-1.573 2.953,-2.053c0.565,-0.246 1.149,-0.436 1.744,-0.592l0,-4.138c0.002,-0.037 0.002,-0.075 0.006,-0.112c0.008,-0.074 0.025,-0.148 0.05,-0.218c0.099,-0.285 0.328,-0.514 0.613,-0.614c0.071,-0.025 0.144,-0.041 0.219,-0.05c0.037,-0.004 0.074,-0.004 0.112,-0.006l4.405,0c0.037,0.002 0.075,0.004 0.112,0.006ZM11.459,9.515c1.009,0.039 2.006,0.25 2.974,0.528c1.308,0.375 2.574,0.886 3.789,1.497l0.055,0.028l1.384,-2.87c-0.151,-0.083 -0.304,-0.163 -0.457,-0.241c-1.844,-0.916 -3.856,-1.464 -5.899,-1.69l-0.111,-0.019c-0.036,-0.01 -0.072,-0.019 -0.108,-0.031c-0.07,-0.025 -0.138,-0.057 -0.202,-0.097c-0.223,-0.14 -0.385,-0.367 -0.444,-0.625c-0.022,-0.097 -0.019,-0.123 -0.025,-0.222l0,-3.773l-2.405,0l0,3.94c-0.003,0.038 -0.003,0.076 -0.007,0.114c-0.009,0.076 -0.026,0.151 -0.052,0.223c-0.091,0.253 -0.284,0.463 -0.529,0.574c-0.094,0.042 -0.12,0.044 -0.218,0.07c-0.177,0.034 -0.176,0.034 -0.352,0.072c-0.355,0.081 -0.707,0.174 -1.053,0.29c-1.085,0.362 -2.125,0.925 -2.923,1.756c-0.598,0.624 -1.034,1.388 -1.255,2.224c-0.157,0.592 -0.208,1.207 -0.178,1.818c0.026,0.543 0.119,1.086 0.311,1.596c0.175,0.467 0.433,0.899 0.759,1.276c0.546,0.632 1.257,1.097 2.001,1.463c1.115,0.548 2.32,0.895 3.513,1.223c0.465,0.129 0.93,0.255 1.394,0.387c0.225,0.065 0.449,0.131 0.672,0.2c0.672,0.214 1.344,0.451 1.958,0.802c0.465,0.266 0.897,0.604 1.213,1.041c0.187,0.258 0.329,0.548 0.416,0.855c0.173,0.616 0.134,1.305 -0.116,1.895c-0.114,0.267 -0.272,0.515 -0.466,0.732c-0.485,0.542 -1.164,0.86 -1.862,1.022c-0.392,0.091 -0.793,0.137 -1.195,0.151c-0.8,0.03 -1.6,-0.07 -2.381,-0.239c-0.863,-0.187 -1.708,-0.46 -2.525,-0.793c-1.224,-0.498 -2.386,-1.135 -3.463,-1.9l-0.028,-0.021l-1.381,2.742c0.116,0.085 0.234,0.168 0.353,0.25c1.476,0.998 3.121,1.732 4.843,2.192c0.563,0.15 1.133,0.268 1.708,0.36l0.107,0.023c0.105,0.035 0.202,0.072 0.295,0.135c0.211,0.142 0.362,0.365 0.417,0.614c0.021,0.094 0.018,0.119 0.024,0.215l0,4.173l2.405,0l0,-4.039c0.002,-0.037 0.002,-0.075 0.006,-0.112c0.009,-0.074 0.025,-0.146 0.05,-0.217c0.086,-0.247 0.269,-0.454 0.504,-0.569c0.067,-0.033 0.137,-0.058 0.21,-0.075c0.036,-0.009 0.073,-0.013 0.109,-0.02c0.16,-0.019 0.319,-0.04 0.478,-0.063c0.304,-0.048 0.605,-0.103 0.905,-0.173c0.229,-0.053 0.458,-0.113 0.683,-0.182c1.318,-0.398 2.597,-1.08 3.484,-2.157c0.132,-0.161 0.254,-0.329 0.366,-0.504c0.174,-0.275 0.322,-0.566 0.44,-0.869c0.172,-0.439 0.28,-0.9 0.334,-1.368c0.067,-0.589 0.055,-1.194 -0.039,-1.78c-0.118,-0.732 -0.386,-1.434 -0.824,-2.034c-0.481,-0.659 -1.134,-1.168 -1.837,-1.571c-1.032,-0.59 -2.168,-0.967 -3.3,-1.311c-0.65,-0.194 -1.304,-0.377 -1.955,-0.568c-0.854,-0.257 -1.721,-0.523 -2.508,-0.951c-0.524,-0.283 -1.015,-0.65 -1.359,-1.142c-0.156,-0.222 -0.279,-0.467 -0.361,-0.726c-0.214,-0.676 -0.162,-1.449 0.191,-2.069c0.181,-0.318 0.436,-0.589 0.733,-0.799c0.706,-0.499 1.591,-0.649 2.437,-0.664c0.099,0 0.198,0.001 0.297,0.003Z" style="fill:#000;fill-rule:nonzero;"/></svg>