<?xml version="1.0" encoding="UTF-8" standalone="no"?>
<svg width="38px" height="42px" viewBox="0 0 38 42" version="1.1" xmlns="http://www.w3.org/2000/svg" xmlns:xlink="http://www.w3.org/1999/xlink">
    <!-- Generator: Sketch 3.6.1 (26313) - http://www.bohemiancoding.com/sketch -->
    <title>Shape</title>
    <desc>Created with Sketch.</desc>
    <defs></defs>
    <g stroke="none" stroke-width="1" fill-rule="evenodd">
        <g transform="translate(-99.000000, -488.000000)">
            <g transform="translate(99.000000, 488.000000)">
                <path d="M16.476,23.003 C16.129,22.798 15.806,22.553 15.514,22.275 C15.05,21.833 14.667,21.307 14.389,20.731 C14.161,20.258 14.004,19.751 13.925,19.232 C13.843,18.697 13.843,18.15 13.925,17.614 C14.011,17.053 14.188,16.506 14.447,16.001 C14.954,15.011 15.773,14.192 16.762,13.685 C17.268,13.426 17.815,13.249 18.376,13.163 C18.599,13.129 18.823,13.112 19.048,13.104 C19.186,13.102 19.185,13.102 19.322,13.104 C19.547,13.112 19.771,13.129 19.994,13.163 C20.555,13.249 21.102,13.426 21.608,13.685 C22.597,14.192 23.416,15.011 23.923,16.001 C24.183,16.506 24.359,17.053 24.445,17.614 C24.527,18.15 24.527,18.697 24.445,19.232 C24.366,19.751 24.209,20.258 23.981,20.731 C23.703,21.308 23.32,21.833 22.856,22.275 C22.569,22.548 22.252,22.789 21.912,22.993 C21.921,23.046 21.925,23.1 21.927,23.156 L21.927,40.21 C21.923,40.318 21.91,40.422 21.876,40.526 C21.799,40.756 21.638,40.954 21.428,41.075 C21.343,41.125 21.25,41.158 21.158,41.191 C21.003,41.245 20.846,41.291 20.686,41.329 C20.036,41.486 19.357,41.529 18.691,41.482 C18.159,41.445 17.627,41.349 17.13,41.154 L17.082,41.134 L17.081,41.134 C17.065,41.128 17.049,41.121 17.034,41.113 C17.025,41.109 17.016,41.105 17.007,41.1 C16.987,41.09 16.966,41.079 16.935,41.059 C16.915,41.047 16.896,41.034 16.878,41.021 L16.878,41.021 L16.878,41.021 C16.875,41.019 16.873,41.017 16.87,41.016 L16.87,41.015 L16.866,41.012 L16.864,41.011 L16.864,41.011 C16.831,40.986 16.799,40.96 16.77,40.931 C16.74,40.902 16.712,40.872 16.686,40.84 C16.652,40.798 16.621,40.753 16.594,40.706 C16.578,40.677 16.563,40.647 16.549,40.617 C16.525,40.563 16.506,40.507 16.491,40.449 C16.472,40.369 16.466,40.291 16.462,40.21 L16.462,23.156 C16.464,23.104 16.468,23.053 16.476,23.003 L16.476,23.003 Z M19.927,23.693 C19.682,23.728 19.433,23.745 19.185,23.745 C18.943,23.745 18.702,23.728 18.462,23.696 L18.462,39.446 C18.938,39.522 19.428,39.514 19.903,39.446 L19.927,39.442 L19.927,23.693 L19.927,23.693 Z M19.423,0.241 C20.124,0.254 20.822,0.298 21.517,0.386 C23.017,0.577 24.493,0.955 25.9,1.511 C27.684,2.215 29.354,3.202 30.834,4.423 C32.304,5.637 33.584,7.079 34.613,8.683 C35.575,10.184 36.317,11.826 36.805,13.541 C37.337,15.415 37.564,17.371 37.484,19.317 C37.407,21.196 37.04,23.062 36.394,24.829 C35.539,27.169 34.201,29.324 32.489,31.133 C31.672,31.997 30.771,32.782 29.802,33.473 C29.569,33.639 29.332,33.799 29.092,33.955 C28.914,34.069 28.741,34.192 28.531,34.237 C28.145,34.32 27.736,34.161 27.506,33.839 C27.439,33.744 27.388,33.638 27.357,33.526 C27.326,33.413 27.315,33.296 27.324,33.18 C27.343,32.947 27.444,32.724 27.608,32.558 C27.681,32.484 27.705,32.472 27.789,32.412 C27.934,32.321 28.078,32.228 28.221,32.134 C28.644,31.849 29.056,31.548 29.452,31.227 C30.341,30.506 31.154,29.692 31.874,28.802 C32.894,27.542 33.726,26.13 34.33,24.626 C35.104,22.702 35.505,20.627 35.5,18.553 C35.497,17.179 35.329,15.808 34.986,14.477 C34.573,12.873 33.912,11.334 33.034,9.929 C31.996,8.266 30.656,6.793 29.1,5.6 C27.476,4.354 25.62,3.418 23.651,2.858 C21.533,2.256 19.294,2.092 17.109,2.37 C14.987,2.64 12.925,3.334 11.071,4.401 C9.313,5.412 7.749,6.752 6.477,8.331 C5.279,9.818 4.344,11.514 3.731,13.323 C3.207,14.871 2.921,16.497 2.879,18.131 C2.837,19.791 3.046,21.456 3.504,23.053 C3.994,24.764 4.77,26.391 5.787,27.853 C6.822,29.34 8.105,30.654 9.567,31.724 C10.491,32.401 11.487,32.98 12.532,33.448 C12.965,33.643 13.407,33.815 13.855,33.973 L13.962,34.018 C13.996,34.037 14.031,34.054 14.064,34.075 C14.162,34.138 14.248,34.218 14.319,34.31 C14.389,34.403 14.444,34.508 14.478,34.619 C14.583,34.957 14.498,35.334 14.258,35.594 C14.179,35.68 14.085,35.751 13.982,35.805 C13.809,35.894 13.611,35.931 13.418,35.91 C13.315,35.899 13.29,35.888 13.191,35.859 C13.025,35.801 12.86,35.741 12.695,35.679 C12.2,35.488 11.712,35.281 11.235,35.05 C10.131,34.517 9.081,33.872 8.106,33.13 C6.163,31.65 4.52,29.783 3.302,27.666 C2.328,25.972 1.628,24.122 1.239,22.206 C0.887,20.468 0.789,18.679 0.947,16.913 C1.114,15.027 1.577,13.17 2.315,11.426 C3.147,9.459 4.327,7.643 5.783,6.079 C7.386,4.358 9.319,2.947 11.45,1.951 C13.018,1.219 14.69,0.712 16.401,0.45 C17.168,0.333 17.94,0.27 18.715,0.245 C18.951,0.241 19.187,0.239 19.423,0.241 L19.423,0.241 Z M25.355,33.736 C25.482,33.737 25.607,33.762 25.725,33.81 C25.815,33.847 25.9,33.897 25.976,33.958 C26.232,34.166 26.372,34.495 26.343,34.823 C26.333,34.937 26.303,35.049 26.256,35.152 C26.205,35.264 26.133,35.365 26.046,35.451 C25.949,35.545 25.835,35.618 25.709,35.668 C25.551,35.728 25.393,35.795 25.229,35.84 C25.095,35.875 24.954,35.883 24.817,35.862 C24.688,35.842 24.563,35.796 24.452,35.729 C24.347,35.665 24.255,35.583 24.18,35.486 C24.113,35.399 24.06,35.301 24.024,35.197 C23.896,34.819 24.009,34.39 24.307,34.126 C24.399,34.045 24.505,33.981 24.619,33.938 C24.684,33.914 24.749,33.891 24.814,33.867 C24.905,33.834 24.995,33.795 25.089,33.769 C25.137,33.757 25.185,33.748 25.233,33.742 C25.274,33.738 25.314,33.735 25.355,33.736 L25.355,33.736 Z M19.34,6.716 C19.792,6.724 20.243,6.753 20.693,6.81 C21.663,6.933 22.617,7.178 23.526,7.537 C24.988,8.114 26.33,8.985 27.455,10.083 C28.544,11.147 29.426,12.419 30.036,13.813 C30.486,14.841 30.788,15.933 30.929,17.046 C31.098,18.37 31.043,19.722 30.765,21.027 C30.538,22.089 30.164,23.119 29.656,24.079 C29.415,24.533 29.145,24.972 28.847,25.392 C28.779,25.489 28.709,25.584 28.637,25.679 C28.601,25.727 28.551,25.793 28.509,25.839 C28.447,25.907 28.375,25.967 28.296,26.015 C28.191,26.079 28.074,26.124 27.952,26.146 C27.861,26.162 27.768,26.166 27.676,26.157 C27.27,26.117 26.92,25.824 26.81,25.431 C26.752,25.222 26.764,24.997 26.843,24.796 C26.873,24.719 26.886,24.703 26.926,24.631 C27.038,24.47 27.16,24.315 27.272,24.154 C27.59,23.692 27.872,23.208 28.109,22.699 C28.594,21.659 28.893,20.535 28.989,19.391 C29.116,17.885 28.897,16.354 28.342,14.947 C27.833,13.658 27.049,12.482 26.058,11.514 C25.123,10.602 24.008,9.877 22.792,9.397 C21.647,8.945 20.418,8.715 19.187,8.715 C17.996,8.715 16.807,8.93 15.694,9.354 C14.693,9.734 13.757,10.281 12.932,10.962 C11.866,11.842 10.988,12.945 10.372,14.183 C9.996,14.938 9.719,15.743 9.55,16.57 C9.138,18.579 9.367,20.701 10.207,22.572 C10.819,23.935 11.745,25.152 12.892,26.109 C13.346,26.488 13.832,26.819 14.343,27.115 L14.421,27.165 C14.485,27.215 14.504,27.226 14.561,27.285 C14.689,27.418 14.78,27.587 14.819,27.767 C14.845,27.888 14.849,28.013 14.83,28.135 C14.815,28.226 14.788,28.315 14.75,28.399 C14.578,28.77 14.186,29.004 13.779,28.978 C13.656,28.97 13.534,28.939 13.422,28.888 C13.394,28.875 13.368,28.859 13.34,28.845 C13.177,28.75 13.177,28.75 13.015,28.653 C12.58,28.381 12.159,28.089 11.759,27.767 C10.863,27.044 10.073,26.19 9.422,25.241 C8.91,24.497 8.485,23.693 8.156,22.852 C7.277,20.599 7.113,18.087 7.687,15.738 C7.905,14.846 8.227,13.981 8.646,13.164 C9.231,12.023 10.002,10.979 10.919,10.083 C11.872,9.154 12.98,8.385 14.186,7.822 C15.199,7.348 16.28,7.02 17.386,6.851 C17.882,6.775 18.381,6.734 18.882,6.719 C19.035,6.716 19.187,6.715 19.34,6.716 L19.34,6.716 Z M25.348,26.472 C25.474,26.474 25.599,26.498 25.716,26.546 C26.094,26.699 26.346,27.079 26.34,27.487 C26.338,27.599 26.318,27.711 26.279,27.817 C26.219,27.982 26.114,28.129 25.979,28.241 C25.881,28.323 25.769,28.391 25.662,28.461 C25.481,28.579 25.308,28.703 25.094,28.748 C24.967,28.776 24.834,28.778 24.706,28.754 C24.586,28.732 24.471,28.689 24.367,28.626 C24.271,28.568 24.185,28.493 24.113,28.406 C23.848,28.084 23.812,27.617 24.026,27.258 C24.091,27.15 24.176,27.055 24.275,26.978 C24.368,26.908 24.47,26.851 24.567,26.788 C24.656,26.729 24.742,26.665 24.833,26.61 C24.963,26.535 25.105,26.49 25.254,26.476 C25.285,26.473 25.317,26.472 25.348,26.472 L25.348,26.472 Z M19.099,15.103 C18.958,15.108 18.818,15.119 18.678,15.14 C18.329,15.194 17.989,15.304 17.675,15.465 C17.056,15.782 16.544,16.294 16.227,16.913 C16.078,17.203 15.973,17.514 15.916,17.835 C15.851,18.196 15.847,18.568 15.902,18.93 C15.951,19.253 16.049,19.568 16.191,19.862 C16.365,20.223 16.605,20.551 16.894,20.827 C17.184,21.104 17.524,21.328 17.894,21.484 C18.301,21.657 18.743,21.745 19.185,21.745 C19.628,21.745 20.069,21.657 20.477,21.484 C20.846,21.328 21.186,21.104 21.476,20.827 C21.766,20.551 22.005,20.223 22.179,19.862 C22.321,19.568 22.419,19.253 22.468,18.93 C22.524,18.568 22.519,18.196 22.455,17.835 C22.397,17.514 22.292,17.203 22.143,16.913 C21.826,16.294 21.314,15.782 20.696,15.465 C20.381,15.304 20.041,15.194 19.692,15.14 C19.552,15.119 19.412,15.108 19.271,15.103 C19.185,15.102 19.185,15.102 19.099,15.103 L19.099,15.103 Z M19.195,16.608 C19.271,16.61 19.345,16.628 19.413,16.662 C19.62,16.769 19.728,17.012 19.668,17.237 C19.652,17.295 19.627,17.349 19.592,17.398 C19.517,17.504 19.4,17.577 19.272,17.6 C19.202,17.612 19.131,17.607 19.06,17.617 C19.02,17.624 18.981,17.633 18.942,17.644 C18.683,17.728 18.475,17.936 18.4,18.2 C18.385,18.252 18.376,18.306 18.372,18.36 C18.368,18.41 18.369,18.46 18.361,18.51 C18.355,18.542 18.347,18.573 18.335,18.604 C18.307,18.674 18.265,18.738 18.209,18.79 C18.052,18.936 17.81,18.965 17.623,18.859 C17.571,18.829 17.525,18.791 17.487,18.745 C17.445,18.696 17.413,18.638 17.393,18.577 C17.363,18.482 17.367,18.382 17.374,18.284 C17.385,18.148 17.41,18.014 17.451,17.884 C17.618,17.348 18.034,16.911 18.561,16.718 C18.747,16.65 18.941,16.615 19.138,16.608 C19.167,16.608 19.167,16.607 19.195,16.608 L19.195,16.608 Z"></path>
            </g>
        </g>
    </g>
</svg>