<?xml version="1.0" encoding="UTF-8" standalone="no"?>
<svg width="42px" height="25px" viewBox="0 0 42 25" version="1.1" xmlns="http://www.w3.org/2000/svg" xmlns:xlink="http://www.w3.org/1999/xlink">
    <!-- Generator: Sketch 3.6.1 (26313) - http://www.bohemiancoding.com/sketch -->
    <title>:: donations</title>
    <desc>Created with Sketch.</desc>
    <defs></defs>
    <g stroke="none" stroke-width="1" fill-rule="evenodd">
        <g transform="translate(-107.000000, -707.000000)">
            <g transform="translate(107.000004, 706.986580)">
                <path d="M40.997,24.585 L1.003,24.585 C0.963,24.582 0.923,24.582 0.883,24.577 C0.803,24.568 0.724,24.548 0.649,24.52 C0.383,24.419 0.169,24.205 0.068,23.939 C0.04,23.864 0.02,23.785 0.01,23.705 C0.006,23.665 0.006,23.625 0.003,23.585 L0.003,1.618 C0.006,1.578 0.006,1.537 0.01,1.497 C0.02,1.417 0.04,1.339 0.068,1.263 C0.169,0.998 0.383,0.784 0.649,0.683 C0.724,0.654 0.803,0.635 0.883,0.625 C0.923,0.62 0.963,0.62 1.003,0.618 L40.997,0.618 C41.037,0.62 41.077,0.623 41.117,0.625 C41.157,0.632 41.197,0.637 41.236,0.647 C41.314,0.666 41.39,0.695 41.462,0.732 C41.713,0.864 41.9,1.103 41.968,1.379 C41.994,1.483 41.99,1.511 41.997,1.618 L41.997,23.585 C41.994,23.625 41.994,23.665 41.99,23.705 C41.98,23.785 41.96,23.864 41.932,23.939 C41.831,24.205 41.617,24.419 41.351,24.52 C41.276,24.548 41.197,24.568 41.117,24.577 C41.077,24.582 41.037,24.582 40.997,24.585 L40.997,24.585 Z M39.997,14.455 L39.997,2.618 L10.144,2.618 C10.125,2.741 10.104,2.863 10.08,2.985 C9.954,3.626 9.758,4.253 9.498,4.852 C8.948,6.123 8.106,7.262 7.057,8.166 C6.138,8.958 5.062,9.565 3.909,9.94 C3.29,10.141 2.65,10.276 2.003,10.342 L2.003,22.585 L31.867,22.585 C31.877,22.49 31.889,22.396 31.902,22.302 C31.996,21.626 32.167,20.961 32.41,20.322 C32.896,19.044 33.672,17.881 34.661,16.938 C35.571,16.07 36.659,15.391 37.84,14.958 C38.446,14.736 39.075,14.579 39.714,14.489 C39.808,14.476 39.902,14.465 39.997,14.455 L39.997,14.455 Z M39.997,16.471 C39.409,16.555 38.834,16.706 38.283,16.931 C37.454,17.271 36.69,17.767 36.041,18.385 C35.288,19.103 34.693,19.984 34.311,20.952 C34.104,21.477 33.96,22.026 33.882,22.585 L39.997,22.585 L39.997,16.471 L39.997,16.471 Z M24.305,6.056 C24.419,6.066 24.533,6.077 24.647,6.095 C24.945,6.141 25.238,6.221 25.519,6.332 C25.832,6.456 26.13,6.62 26.4,6.82 C26.611,6.977 26.806,7.155 26.979,7.353 C27.101,7.494 27.213,7.643 27.314,7.8 C27.394,7.925 27.466,8.055 27.532,8.188 C28.083,9.31 28.1,10.624 27.85,11.827 C27.69,12.601 27.417,13.349 27.068,14.057 C26.895,14.406 26.71,14.748 26.493,15.071 C25.981,15.833 25.344,16.509 24.668,17.127 C23.702,18.009 22.64,18.781 21.539,19.485 L21.481,19.519 C21.421,19.55 21.361,19.578 21.297,19.598 C21.126,19.651 20.942,19.657 20.768,19.615 C20.68,19.594 20.599,19.56 20.519,19.519 C20.398,19.448 20.4,19.446 20.275,19.366 C19.813,19.065 19.359,18.751 18.915,18.424 L18.861,18.382 C18.741,18.273 18.644,18.15 18.582,17.999 C18.539,17.894 18.514,17.781 18.508,17.667 C18.503,17.554 18.517,17.439 18.55,17.33 C18.663,16.953 18.999,16.671 19.39,16.625 C19.549,16.607 19.711,16.627 19.86,16.683 C19.925,16.707 19.984,16.74 20.043,16.774 C20.166,16.858 20.164,16.861 20.284,16.949 C20.438,17.061 20.491,17.097 20.646,17.206 C20.823,17.329 20.822,17.328 21,17.449 C21.17,17.334 21.169,17.334 21.338,17.218 C22.143,16.651 22.923,16.044 23.63,15.357 C24.091,14.908 24.528,14.425 24.88,13.884 C25.008,13.687 25.117,13.481 25.224,13.272 C25.434,12.859 25.613,12.429 25.747,11.985 C25.873,11.572 25.961,11.146 25.992,10.715 C26.024,10.276 25.999,9.825 25.868,9.403 C25.775,9.104 25.625,8.819 25.403,8.595 C25.007,8.195 24.42,8.012 23.865,8.051 C23.595,8.071 23.33,8.143 23.087,8.261 C22.7,8.449 22.381,8.748 22.133,9.096 C22.026,9.246 21.94,9.407 21.848,9.566 L21.81,9.622 C21.727,9.73 21.632,9.823 21.514,9.893 C21.18,10.094 20.749,10.079 20.429,9.857 C20.316,9.778 20.228,9.679 20.152,9.566 C20.099,9.473 20.049,9.379 19.994,9.288 C19.693,8.804 19.277,8.39 18.736,8.184 C18.024,7.914 17.143,8.043 16.597,8.595 C16.419,8.775 16.286,8.995 16.193,9.23 C16.008,9.698 15.972,10.217 16.008,10.715 C16.076,11.652 16.402,12.551 16.832,13.379 L16.861,13.441 C16.883,13.497 16.89,13.511 16.907,13.569 C16.95,13.723 16.955,13.887 16.923,14.043 C16.838,14.453 16.494,14.773 16.08,14.83 C15.967,14.845 15.852,14.841 15.74,14.818 C15.606,14.79 15.479,14.735 15.367,14.656 C15.274,14.591 15.192,14.509 15.127,14.416 C15.075,14.342 15.035,14.261 14.994,14.181 C14.932,14.058 14.871,13.934 14.813,13.808 C14.539,13.213 14.319,12.59 14.176,11.95 C14.131,11.748 14.094,11.545 14.065,11.341 C13.895,10.138 14.02,8.843 14.686,7.8 C14.847,7.549 15.038,7.316 15.255,7.11 C15.884,6.512 16.719,6.151 17.581,6.066 C18.049,6.02 18.524,6.054 18.98,6.168 C19.508,6.3 20.008,6.538 20.446,6.86 C20.644,7.005 20.827,7.167 21,7.341 C21.063,7.277 21.128,7.215 21.194,7.154 C21.375,6.992 21.566,6.841 21.771,6.71 C22.157,6.465 22.576,6.279 23.02,6.168 C23.328,6.091 23.64,6.055 23.957,6.046 C24.074,6.046 24.189,6.05 24.305,6.056 L24.305,6.056 Z M17.438,14.837 C17.573,14.838 17.707,14.865 17.83,14.918 C18.211,15.082 18.47,15.475 18.458,15.89 C18.454,16.008 18.43,16.124 18.386,16.233 C18.341,16.345 18.275,16.449 18.193,16.538 C18.106,16.633 18.001,16.71 17.885,16.765 C17.76,16.824 17.624,16.856 17.486,16.86 C17.346,16.864 17.204,16.838 17.075,16.784 C16.701,16.629 16.439,16.252 16.435,15.847 C16.434,15.727 16.455,15.608 16.495,15.496 C16.537,15.382 16.599,15.276 16.678,15.184 C16.762,15.087 16.864,15.006 16.979,14.947 C17.101,14.884 17.236,14.848 17.374,14.839 C17.395,14.838 17.416,14.837 17.438,14.837 L17.438,14.837 Z M8.114,2.618 L2.003,2.618 L2.003,8.327 C2.523,8.258 3.035,8.136 3.53,7.956 C4.342,7.659 5.097,7.214 5.752,6.65 C6.531,5.98 7.164,5.143 7.595,4.21 C7.83,3.702 8.004,3.167 8.114,2.618 L8.114,2.618 Z"></path>
            </g>
        </g>
    </g>
</svg>