<?xml version="1.0" encoding="UTF-8" standalone="no"?>
<svg width="15px" height="15px" viewBox="0 0 15 15" version="1.1" xmlns="http://www.w3.org/2000/svg" xmlns:xlink="http://www.w3.org/1999/xlink">
    <!-- Generator: Sketch Beta 39 (31533) - http://www.bohemiancoding.com/sketch -->
    <title>AIGA_information</title>
    <desc>Created with Sketch Beta.</desc>
    <defs></defs>
    <g id="Page-1" stroke="none" stroke-width="1" fill="none" fill-rule="evenodd">
        <g id="AIGA_information">
            <g id="svg1825">
                <g id="g1835">
                    <g id="g1837" fill="#CCCFD1">
                        <path d="M7.49127273,14.9959459 C11.6285114,14.9959459 14.9825455,11.6388514 14.9825455,7.49797297 C14.9825455,3.35702703 11.6285114,0 7.49127273,0 C3.35410227,0 0,3.35702703 0,7.49797297 C0,11.6388514 3.35410227,14.9959459 7.49127273,14.9959459 L7.49127273,14.9959459 Z" id="path1839"></path>
                    </g>
                    <g id="g1843" transform="translate(1.622578, 1.722973)" fill="#FFFFFF">
                        <path d="M5.78672727,11.5443919 C8.97027273,11.5443919 11.5510227,8.96131757 11.5510227,5.775 C11.5510227,2.58861486 8.97027273,0.00560810811 5.78672727,0.00560810811 C2.60325,0.00560810811 0.0224659091,2.58861486 0.0224659091,5.775 C0.0224659091,8.96131757 2.60325,11.5443919 5.78672727,11.5443919 L5.78672727,11.5443919 Z" id="path1845"></path>
                    </g>
                    <g id="g1849" transform="translate(4.261364, 2.615751)" fill="#CCCFD1">
                        <path d="M2.45328409,7.61060811 L4.14184091,7.60716216 L4.14184091,6.30709459 C4.14184091,5.95445946 4.30772727,5.62128378 4.75159091,5.33273649 C5.19542045,5.04432432 6.43445455,4.45905405 6.43445455,2.92027027 C6.43445455,1.38141892 5.13330682,0.323716216 4.03956818,0.0993243243 C2.946,-0.125067568 1.76110227,0.0225675676 0.92025,0.935472973 C0.167284091,1.75293919 0.008625,2.39956081 0.008625,3.82618243 L1.69581818,3.82618243 L1.69581818,3.49459459 C1.69581818,2.73442568 1.78455682,1.93195946 2.88047727,1.7125 C3.47863636,1.5927027 4.03936364,1.77864865 4.37195455,2.10101351 C4.75240909,2.46966216 4.75547727,3.30033784 4.14923864,3.7139527 L3.19823864,4.35513514 C2.64351136,4.70777027 2.45328409,5.10037162 2.45328409,5.67739865 L2.45328409,7.61060811 L2.45328409,7.61060811 Z" id="path1851"></path>
                        <g id="g1853" transform="translate(2.420455, 8.243243)">
                            <polygon id="path1855" points="0.02175 1.74635135 0.02175 0.0232094595 1.73352273 0.0232094595 1.73352273 1.74635135"></polygon>
                        </g>
                    </g>
                </g>
            </g>
        </g>
    </g>
</svg>