<?xml version="1.0" encoding="UTF-8" standalone="no"?>
<svg width="160px" height="116px" viewBox="0 0 160 116" version="1.1" xmlns="http://www.w3.org/2000/svg" xmlns:xlink="http://www.w3.org/1999/xlink">
    <!-- Generator: Sketch 3.7 (28169) - http://www.bohemiancoding.com/sketch -->
    <title>:: icon (donation done)</title>
    <desc>Created with Sketch.</desc>
    <defs></defs>
    <g id="Page-1" stroke="none" stroke-width="1" fill="none" fill-rule="evenodd">
        <g id="Donation" transform="translate(-640.000000, -187.000000)">
            <g id="::-donation-overlay" transform="translate(80.000000, 108.000000)">
                <g id="::-02-(success-confirmation)" transform="translate(498.000000, 79.000000)">
                    <g id="::-icon-(donation-done)" transform="translate(62.000000, 0.000000)">
                        <g id="::-envelope" transform="translate(34.157303, 4.518193)">
                            <path d="M55.3707865,26.0610501 L77.6629213,26.0610501 C78.3820225,26.0610501 79.1011236,25.5214164 79.1011236,24.6220269 C79.1011236,23.7226374 78.5617978,23.1830037 77.6629213,23.1830037 L55.3707865,23.1830037 C54.6516854,23.1830037 53.9325843,23.7226374 53.9325843,24.6220269 C53.9325843,25.5214164 54.6516854,26.0610501 55.3707865,26.0610501 L55.3707865,26.0610501 Z" id="Shape" fill="#5CAAE2"></path>
                            <path d="M55.3707865,38.4726252 L77.6629213,38.4726252 C78.3820225,38.4726252 79.1011236,37.9329915 79.1011236,37.033602 C79.1011236,36.1342125 78.5617978,35.5945788 77.6629213,35.5945788 L55.3707865,35.5945788 C54.6516854,35.5945788 53.9325843,36.1342125 53.9325843,37.033602 C53.9325843,37.9329915 54.6516854,38.4726252 55.3707865,38.4726252 L55.3707865,38.4726252 Z" id="Shape" fill="#5CAAE2"></path>
                            <path d="M55.3707865,51.0640781 L77.6629213,51.0640781 C78.3820225,51.0640781 79.1011236,50.5244444 79.1011236,49.6250549 C79.1011236,48.7256654 78.5617978,48.1860317 77.6629213,48.1860317 L55.3707865,48.1860317 C54.6516854,48.1860317 53.9325843,48.7256654 53.9325843,49.6250549 C53.9325843,50.5244444 54.6516854,51.0640781 55.3707865,51.0640781 L55.3707865,51.0640781 Z" id="Shape" fill="#5CAAE2"></path>
                            <path d="M99.7752809,39.5518926 L90.7865169,39.5518926 L90.7865169,8.61289377 C90.7865169,8.07326007 90.6067416,7.71350427 90.247191,7.35374847 L83.9550562,1.05802198 C83.2359551,0.338510379 82.1573034,0.338510379 81.4382022,1.05802198 L76.4044944,6.09460317 L71.3707865,1.05802198 C70.6516854,0.338510379 69.5730337,0.338510379 68.8539326,1.05802198 L63.8202247,6.09460317 L58.7865169,1.05802198 C58.0674157,0.338510379 56.988764,0.338510379 56.2696629,1.05802198 L51.2359551,6.09460317 L46.2022472,1.05802198 C45.4831461,0.338510379 44.4044944,0.338510379 43.6853933,1.05802198 L38.6516854,6.09460317 L33.6179775,1.05802198 C32.8988764,0.338510379 31.8202247,0.338510379 31.1011236,1.05802198 L26.0674157,6.09460317 L21.0337079,1.05802198 C20.3146067,0.338510379 19.2359551,0.338510379 18.5168539,1.05802198 L12.2247191,7.35374847 C11.8651685,7.71350427 11.6853933,8.07326007 11.6853933,8.61289377 L11.6853933,39.5518926 L2.69662921,39.5518926 C1.61797753,39.5518926 0.898876404,40.2714042 0.898876404,41.3506716 L0.898876404,108.984762 C0.898876404,110.064029 1.61797753,110.783541 2.69662921,110.783541 L99.5955056,110.783541 C100.674157,110.783541 101.393258,110.064029 101.393258,108.984762 L101.393258,41.3506716 C101.573034,40.4512821 100.674157,39.5518926 99.7752809,39.5518926 L99.7752809,39.5518926 Z M90.7865169,43.1494505 L95.2808989,43.1494505 L90.7865169,46.7470085 L90.7865169,43.1494505 L90.7865169,43.1494505 Z M15.2808989,9.33240537 L19.7752809,4.83545788 L24.8089888,9.87203907 C25.5280899,10.5915507 26.6067416,10.5915507 27.3258427,9.87203907 L32.3595506,4.83545788 L37.3932584,9.87203907 C38.1123596,10.5915507 39.1910112,10.5915507 39.9101124,9.87203907 L44.9438202,4.83545788 L49.9775281,9.87203907 C50.6966292,10.5915507 51.7752809,10.5915507 52.494382,9.87203907 L57.5280899,4.83545788 L62.5617978,9.87203907 C63.2808989,10.5915507 64.3595506,10.5915507 65.0786517,9.87203907 L70.1123596,4.83545788 L75.1460674,9.87203907 C75.8651685,10.5915507 76.9438202,10.5915507 77.6629213,9.87203907 L82.6966292,4.83545788 L87.1910112,9.33240537 L87.1910112,49.445177 L72.8089888,60.7774847 L29.6629213,60.7774847 L15.2808989,49.445177 L15.2808989,9.33240537 L15.2808989,9.33240537 Z M69.3932584,63.4756532 L56.988764,73.3689377 L56.6292135,73.7286935 L56.2696629,73.3689377 L52.1348315,70.3110134 C51.5955056,69.9512576 50.8764045,69.9512576 50.5168539,70.3110134 L46.5617978,73.3689377 L46.2022472,73.7286935 L45.8426966,73.3689377 L33.4382022,63.4756532 L69.3932584,63.4756532 L69.3932584,63.4756532 Z M11.6853933,43.1494505 L11.6853933,46.7470085 L7.19101124,43.1494505 L11.6853933,43.1494505 L11.6853933,43.1494505 Z M4.6741573,44.5884737 L43.8651685,75.3475946 L4.6741573,105.926838 L4.6741573,44.5884737 L4.6741573,44.5884737 Z M7.37078652,107.185983 L50.8764045,73.1890598 L51.2359551,72.829304 L51.5955056,73.1890598 L95.2808989,107.185983 L7.37078652,107.185983 L7.37078652,107.185983 Z M97.9775281,105.926838 L59.505618,76.0671062 L58.6067416,75.3475946 L97.9775281,44.4085958 L97.9775281,105.926838 L97.9775281,105.926838 Z" id="Shape" fill="#5CAAE2"></path>
                            <path d="M32.4550781,39.7358398 C32.8994163,44.2934798 34.3593626,46.5722656 36.8349609,46.5722656 C37.7617234,46.5722656 38.609127,46.3500999 39.3771973,45.9057617 C40.1452675,45.4614236 40.8847621,44.4204183 41.5957031,42.7827148 C42.0527367,41.7163033 42.4462874,41.0529798 42.7763672,40.7927246 C43.106447,40.5324694 43.4619122,40.4023438 43.8427734,40.4023438 C44.604496,40.4023438 45.1979959,40.6213357 45.623291,41.0593262 C46.0485861,41.4973166 46.2612305,42.1098593 46.2612305,42.8969727 C46.2612305,44.7631929 45.3471771,46.4865644 43.519043,48.0671387 C41.6909088,49.647713 39.475599,50.4379883 36.8730469,50.4379883 C34.4355347,50.4379883 32.3090911,49.5524991 30.4936523,47.7814941 C28.6782136,46.0104892 27.5927752,43.3286312 27.2373047,39.7358398 L24.8188477,39.7358398 C24.5903309,39.7358398 24.4760742,39.5708024 24.4760742,39.2407227 C24.4760742,38.9233383 24.5966785,38.5234399 24.8378906,38.0410156 C25.0791028,37.5585913 25.2822257,37.3173828 25.4472656,37.3173828 L27.0849609,37.3173828 L27.0849609,36.6318359 C27.0849609,36.0732394 27.1103513,35.2670951 27.1611328,34.2133789 L24.8188477,34.2133789 C24.5903309,34.2133789 24.4760742,34.0546891 24.4760742,33.7373047 C24.4760742,33.4072249 24.5966785,33.000979 24.8378906,32.5185547 C25.0791028,32.0361304 25.2822257,31.7949219 25.4472656,31.7949219 L27.3515625,31.7949219 C28.1767619,25.180631 31.2997776,21.8735352 36.7207031,21.8735352 C39.1074338,21.8735352 41.1640539,22.4892517 42.890625,23.7207031 C44.6171961,24.9521546 45.4804688,26.4819245 45.4804688,28.3100586 C45.4804688,28.932132 45.2773458,29.4589822 44.8710938,29.890625 C44.4648417,30.3222678 43.9697295,30.5380859 43.3857422,30.5380859 C42.738278,30.5380859 42.2653824,30.3730485 41.967041,30.0429688 C41.6686997,29.712889 41.3735366,29.2050816 41.081543,28.5195312 C40.7133771,27.6181596 40.2753932,26.9294457 39.7675781,26.4533691 C39.2597631,25.9772925 38.3964905,25.7392578 37.1777344,25.7392578 C35.781243,25.7392578 34.705326,26.2280225 33.9499512,27.2055664 C33.1945763,28.1831104 32.7089855,29.7128802 32.4931641,31.7949219 L38.625,31.7949219 C38.8789075,31.7949219 39.0058594,31.9599593 39.0058594,32.2900391 C39.0058594,32.6455096 38.8884289,33.0549293 38.6535645,33.5183105 C38.4187,33.9816918 38.2124032,34.2133789 38.034668,34.2133789 L32.3408203,34.2133789 L32.3027344,36.0795898 C32.3027344,36.6508818 32.3154296,37.0634753 32.3408203,37.3173828 L38.625,37.3173828 C38.8789075,37.3173828 39.0058594,37.4760726 39.0058594,37.793457 C39.0058594,38.1616229 38.8884289,38.5773903 38.6535645,39.0407715 C38.4187,39.5041527 38.2124032,39.7358398 38.034668,39.7358398 L32.4550781,39.7358398 Z" id="euros" fill="#5CAAE1"></path>
                        </g>
                        <g id="::-sparks" fill="#75CC1F">
                            <path d="M139.146067,17.0884005 C137.348315,17.0884005 136.089888,18.5274237 136.089888,20.1463248 C136.089888,21.7652259 137.52809,23.2042491 139.146067,23.2042491 C140.764045,23.2042491 142.202247,21.7652259 142.202247,20.1463248 C142.202247,18.5274237 140.94382,17.0884005 139.146067,17.0884005 L139.146067,17.0884005 Z M139.146067,21.4054701 C138.426966,21.4054701 137.88764,20.8658364 137.88764,20.1463248 C137.88764,19.4268132 138.426966,18.8871795 139.146067,18.8871795 C139.865169,18.8871795 140.404494,19.4268132 140.404494,20.1463248 C140.404494,20.8658364 139.865169,21.4054701 139.146067,21.4054701 L139.146067,21.4054701 Z" id="Shape"></path>
                            <path d="M19.2359551,11.1524298 L15.6404494,11.1524298 L15.6404494,7.55487179 C15.6404494,7.0152381 15.2808989,6.6554823 14.741573,6.6554823 C14.2022472,6.6554823 13.8426966,7.0152381 13.8426966,7.55487179 L13.8426966,11.1524298 L10.247191,11.1524298 C9.70786517,11.1524298 9.34831461,11.5121856 9.34831461,12.0518193 C9.34831461,12.591453 9.70786517,12.9512088 10.247191,12.9512088 L13.8426966,12.9512088 L13.8426966,16.5487668 C13.8426966,17.0884005 14.2022472,17.4481563 14.741573,17.4481563 C15.2808989,17.4481563 15.6404494,17.0884005 15.6404494,16.5487668 L15.6404494,12.9512088 L19.2359551,12.9512088 C19.7752809,12.9512088 20.1348315,12.591453 20.1348315,12.0518193 C20.1348315,11.5121856 19.7752809,11.1524298 19.2359551,11.1524298 L19.2359551,11.1524298 Z" id="Shape"></path>
                            <path d="M23.9101124,31.2987546 C22.6516854,31.2987546 21.5730337,32.378022 21.5730337,33.6371673 C21.5730337,34.8963126 22.6516854,35.97558 23.9101124,35.97558 C25.1685393,35.97558 26.247191,34.8963126 26.247191,33.6371673 C26.247191,32.378022 25.1685393,31.2987546 23.9101124,31.2987546 L23.9101124,31.2987546 Z M23.9101124,34.176801 C23.5505618,34.176801 23.3707865,33.9969231 23.3707865,33.6371673 C23.3707865,33.2774115 23.5505618,33.0975336 23.9101124,33.0975336 C24.2696629,33.0975336 24.4494382,33.2774115 24.4494382,33.6371673 C24.4494382,33.9969231 24.0898876,34.176801 23.9101124,34.176801 L23.9101124,34.176801 Z" id="Shape"></path>
                            <path d="M158.202247,42.0914286 L155.865169,42.0914286 L155.865169,39.7530159 C155.865169,39.2133822 155.505618,38.8536264 154.966292,38.8536264 C154.426966,38.8536264 154.067416,39.2133822 154.067416,39.7530159 L154.067416,42.0914286 L151.730337,42.0914286 C151.191011,42.0914286 150.831461,42.4511844 150.831461,42.9908181 C150.831461,43.5304518 151.191011,43.8902076 151.730337,43.8902076 L154.067416,43.8902076 L154.067416,46.2286203 C154.067416,46.768254 154.426966,47.1280098 154.966292,47.1280098 C155.505618,47.1280098 155.865169,46.768254 155.865169,46.2286203 L155.865169,43.8902076 L158.202247,43.8902076 C158.741573,43.8902076 159.101124,43.5304518 159.101124,42.9908181 C159.101124,42.4511844 158.741573,42.0914286 158.202247,42.0914286 L158.202247,42.0914286 Z" id="Shape"></path>
                            <ellipse id="Oval" cx="1.79775281" cy="54.1432479" rx="1.79775281" ry="1.798779"></ellipse>
                            <ellipse id="Oval" cx="154.067416" cy="1.798779" rx="1.79775281" ry="1.798779"></ellipse>
                        </g>
                    </g>
                </g>
            </g>
        </g>
    </g>
</svg>