<?xml version="1.0" encoding="UTF-8" standalone="no"?>
<svg width="160px" height="116px" viewBox="0 0 160 116" version="1.1" xmlns="http://www.w3.org/2000/svg" xmlns:xlink="http://www.w3.org/1999/xlink">
    <!-- Generator: Sketch 3.6.1 (26313) - http://www.bohemiancoding.com/sketch -->
    <title>:: icon (donation done)</title>
    <desc>Created with Sketch.</desc>
    <defs></defs>
    <g stroke="none" stroke-width="1" fill-rule="evenodd">
        <g transform="translate(-640.000000, -187.000000)">
            <g transform="translate(80.000000, 108.000000)">
                <g transform="translate(498.000000, 79.000000)">
                    <g transform="translate(62.000000, 0.000000)">
                        <g transform="translate(34.157303, 4.518193)">
                            <path d="M55.3707865,26.0610501 L77.6629213,26.0610501 C78.3820225,26.0610501 79.1011236,25.5214164 79.1011236,24.6220269 C79.1011236,23.7226374 78.5617978,23.1830037 77.6629213,23.1830037 L55.3707865,23.1830037 C54.6516854,23.1830037 53.9325843,23.7226374 53.9325843,24.6220269 C53.9325843,25.5214164 54.6516854,26.0610501 55.3707865,26.0610501 L55.3707865,26.0610501 Z"></path>
                            <path d="M55.3707865,38.4726252 L77.6629213,38.4726252 C78.3820225,38.4726252 79.1011236,37.9329915 79.1011236,37.033602 C79.1011236,36.1342125 78.5617978,35.5945788 77.6629213,35.5945788 L55.3707865,35.5945788 C54.6516854,35.5945788 53.9325843,36.1342125 53.9325843,37.033602 C53.9325843,37.9329915 54.6516854,38.4726252 55.3707865,38.4726252 L55.3707865,38.4726252 Z"></path>
                            <path d="M55.3707865,51.0640781 L77.6629213,51.0640781 C78.3820225,51.0640781 79.1011236,50.5244444 79.1011236,49.6250549 C79.1011236,48.7256654 78.5617978,48.1860317 77.6629213,48.1860317 L55.3707865,48.1860317 C54.6516854,48.1860317 53.9325843,48.7256654 53.9325843,49.6250549 C53.9325843,50.5244444 54.6516854,51.0640781 55.3707865,51.0640781 L55.3707865,51.0640781 Z"></path>
                            <path d="M99.7752809,39.5518926 L90.7865169,39.5518926 L90.7865169,8.61289377 C90.7865169,8.07326007 90.6067416,7.71350427 90.247191,7.35374847 L83.9550562,1.05802198 C83.2359551,0.338510379 82.1573034,0.338510379 81.4382022,1.05802198 L76.4044944,6.09460317 L71.3707865,1.05802198 C70.6516854,0.338510379 69.5730337,0.338510379 68.8539326,1.05802198 L63.8202247,6.09460317 L58.7865169,1.05802198 C58.0674157,0.338510379 56.988764,0.338510379 56.2696629,1.05802198 L51.2359551,6.09460317 L46.2022472,1.05802198 C45.4831461,0.338510379 44.4044944,0.338510379 43.6853933,1.05802198 L38.6516854,6.09460317 L33.6179775,1.05802198 C32.8988764,0.338510379 31.8202247,0.338510379 31.1011236,1.05802198 L26.0674157,6.09460317 L21.0337079,1.05802198 C20.3146067,0.338510379 19.2359551,0.338510379 18.5168539,1.05802198 L12.2247191,7.35374847 C11.8651685,7.71350427 11.6853933,8.07326007 11.6853933,8.61289377 L11.6853933,39.5518926 L2.69662921,39.5518926 C1.61797753,39.5518926 0.898876404,40.2714042 0.898876404,41.3506716 L0.898876404,108.984762 C0.898876404,110.064029 1.61797753,110.783541 2.69662921,110.783541 L99.5955056,110.783541 C100.674157,110.783541 101.393258,110.064029 101.393258,108.984762 L101.393258,41.3506716 C101.573034,40.4512821 100.674157,39.5518926 99.7752809,39.5518926 L99.7752809,39.5518926 Z M90.7865169,43.1494505 L95.2808989,43.1494505 L90.7865169,46.7470085 L90.7865169,43.1494505 L90.7865169,43.1494505 Z M15.2808989,9.33240537 L19.7752809,4.83545788 L24.8089888,9.87203907 C25.5280899,10.5915507 26.6067416,10.5915507 27.3258427,9.87203907 L32.3595506,4.83545788 L37.3932584,9.87203907 C38.1123596,10.5915507 39.1910112,10.5915507 39.9101124,9.87203907 L44.9438202,4.83545788 L49.9775281,9.87203907 C50.6966292,10.5915507 51.7752809,10.5915507 52.494382,9.87203907 L57.5280899,4.83545788 L62.5617978,9.87203907 C63.2808989,10.5915507 64.3595506,10.5915507 65.0786517,9.87203907 L70.1123596,4.83545788 L75.1460674,9.87203907 C75.8651685,10.5915507 76.9438202,10.5915507 77.6629213,9.87203907 L82.6966292,4.83545788 L87.1910112,9.33240537 L87.1910112,49.445177 L72.8089888,60.7774847 L29.6629213,60.7774847 L15.2808989,49.445177 L15.2808989,9.33240537 L15.2808989,9.33240537 Z M69.3932584,63.4756532 L56.988764,73.3689377 L56.6292135,73.7286935 L56.2696629,73.3689377 L52.1348315,70.3110134 C51.5955056,69.9512576 50.8764045,69.9512576 50.5168539,70.3110134 L46.5617978,73.3689377 L46.2022472,73.7286935 L45.8426966,73.3689377 L33.4382022,63.4756532 L69.3932584,63.4756532 L69.3932584,63.4756532 Z M11.6853933,43.1494505 L11.6853933,46.7470085 L7.19101124,43.1494505 L11.6853933,43.1494505 L11.6853933,43.1494505 Z M4.6741573,44.5884737 L43.8651685,75.3475946 L4.6741573,105.926838 L4.6741573,44.5884737 L4.6741573,44.5884737 Z M7.37078652,107.185983 L50.8764045,73.1890598 L51.2359551,72.829304 L51.5955056,73.1890598 L95.2808989,107.185983 L7.37078652,107.185983 L7.37078652,107.185983 Z M97.9775281,105.926838 L59.505618,76.0671062 L58.6067416,75.3475946 L97.9775281,44.4085958 L97.9775281,105.926838 L97.9775281,105.926838 Z"></path>
                            <path d="M35.2359551,50.5244444 C35.2359551,51.6037118 36.1348315,52.5031013 37.2134831,52.5031013 C38.2921348,52.5031013 39.1910112,51.6037118 39.1910112,50.5244444 L39.1910112,48.5457875 C43.1460674,48.1860317 46.0224719,46.2073748 46.9213483,43.1494505 C47.1011236,42.4299389 47.2808989,41.7104274 47.2808989,40.9909158 C47.2808989,40.4512821 47.2808989,39.9116484 47.1011236,39.5518926 C46.5617978,36.1342125 44.0449438,34.1555556 38.8314607,32.7165324 L38.8314607,26.9604396 C39.9101124,27.1403175 40.988764,27.6799512 42.0674157,28.2195849 C42.4269663,28.3994628 42.9662921,28.5793407 43.3258427,28.5793407 C44.7640449,28.5793407 45.8426966,27.5000733 45.8426966,26.0610501 C45.8426966,24.9817827 45.1235955,24.2622711 44.4044944,23.7226374 C42.7865169,22.8232479 40.988764,22.2836142 38.8314607,21.9238584 L38.8314607,21.3842247 C38.8314607,20.3049573 37.9325843,19.4055678 36.8539326,19.4055678 C35.7752809,19.4055678 34.8764045,20.3049573 34.8764045,21.3842247 L34.8764045,21.9238584 C30.0224719,22.4634921 26.7865169,25.1616606 26.7865169,29.4787302 C26.7865169,33.9756777 29.4831461,36.1342125 35.0561798,37.5732357 L35.0561798,39.5518926 L35.0561798,43.1494505 L35.0561798,43.6890842 C34.5168539,43.5092063 33.9775281,43.3293284 33.4382022,43.1494505 C32.3595506,42.7896947 31.2808989,42.2500611 30.0224719,41.5305495 C29.4831461,41.1707937 28.9438202,40.9909158 28.5842697,40.9909158 C27.3258427,40.9909158 26.247191,41.8903053 26.0674157,43.1494505 L26.0674157,43.5092063 C26.0674157,44.5884737 26.6067416,45.3079853 27.3258427,45.847619 C29.6629213,47.2866422 32.1797753,48.1860317 34.8764045,48.5457875 L34.8764045,50.5244444 L35.2359551,50.5244444 Z M39.011236,43.1494505 L39.011236,39.5518926 L39.011236,38.4726252 C39.9101124,38.832381 40.6292135,39.1921368 40.988764,39.5518926 C41.5280899,40.0915263 41.7078652,40.63116 41.7078652,41.3506716 C41.7078652,42.2500611 41.3483146,42.7896947 40.8089888,43.1494505 C40.4494382,43.5092063 39.7303371,43.6890842 39.011236,43.8689621 L39.011236,43.1494505 L39.011236,43.1494505 Z M32.8988764,29.1189744 C32.8988764,27.8598291 33.6179775,26.9604396 35.5955056,26.7805617 L35.5955056,31.9970208 C33.4382022,31.0976313 32.8988764,30.1982418 32.8988764,29.1189744 L32.8988764,29.1189744 Z"></path>
                        </g>
                        <g fill="currentColor">
                            <path d="M139.146067,17.0884005 C137.348315,17.0884005 136.089888,18.5274237 136.089888,20.1463248 C136.089888,21.7652259 137.52809,23.2042491 139.146067,23.2042491 C140.764045,23.2042491 142.202247,21.7652259 142.202247,20.1463248 C142.202247,18.5274237 140.94382,17.0884005 139.146067,17.0884005 L139.146067,17.0884005 Z M139.146067,21.4054701 C138.426966,21.4054701 137.88764,20.8658364 137.88764,20.1463248 C137.88764,19.4268132 138.426966,18.8871795 139.146067,18.8871795 C139.865169,18.8871795 140.404494,19.4268132 140.404494,20.1463248 C140.404494,20.8658364 139.865169,21.4054701 139.146067,21.4054701 L139.146067,21.4054701 Z"></path>
                            <path d="M19.2359551,11.1524298 L15.6404494,11.1524298 L15.6404494,7.55487179 C15.6404494,7.0152381 15.2808989,6.6554823 14.741573,6.6554823 C14.2022472,6.6554823 13.8426966,7.0152381 13.8426966,7.55487179 L13.8426966,11.1524298 L10.247191,11.1524298 C9.70786517,11.1524298 9.34831461,11.5121856 9.34831461,12.0518193 C9.34831461,12.591453 9.70786517,12.9512088 10.247191,12.9512088 L13.8426966,12.9512088 L13.8426966,16.5487668 C13.8426966,17.0884005 14.2022472,17.4481563 14.741573,17.4481563 C15.2808989,17.4481563 15.6404494,17.0884005 15.6404494,16.5487668 L15.6404494,12.9512088 L19.2359551,12.9512088 C19.7752809,12.9512088 20.1348315,12.591453 20.1348315,12.0518193 C20.1348315,11.5121856 19.7752809,11.1524298 19.2359551,11.1524298 L19.2359551,11.1524298 Z"></path>
                            <path d="M23.9101124,31.2987546 C22.6516854,31.2987546 21.5730337,32.378022 21.5730337,33.6371673 C21.5730337,34.8963126 22.6516854,35.97558 23.9101124,35.97558 C25.1685393,35.97558 26.247191,34.8963126 26.247191,33.6371673 C26.247191,32.378022 25.1685393,31.2987546 23.9101124,31.2987546 L23.9101124,31.2987546 Z M23.9101124,34.176801 C23.5505618,34.176801 23.3707865,33.9969231 23.3707865,33.6371673 C23.3707865,33.2774115 23.5505618,33.0975336 23.9101124,33.0975336 C24.2696629,33.0975336 24.4494382,33.2774115 24.4494382,33.6371673 C24.4494382,33.9969231 24.0898876,34.176801 23.9101124,34.176801 L23.9101124,34.176801 Z"></path>
                            <path d="M158.202247,42.0914286 L155.865169,42.0914286 L155.865169,39.7530159 C155.865169,39.2133822 155.505618,38.8536264 154.966292,38.8536264 C154.426966,38.8536264 154.067416,39.2133822 154.067416,39.7530159 L154.067416,42.0914286 L151.730337,42.0914286 C151.191011,42.0914286 150.831461,42.4511844 150.831461,42.9908181 C150.831461,43.5304518 151.191011,43.8902076 151.730337,43.8902076 L154.067416,43.8902076 L154.067416,46.2286203 C154.067416,46.768254 154.426966,47.1280098 154.966292,47.1280098 C155.505618,47.1280098 155.865169,46.768254 155.865169,46.2286203 L155.865169,43.8902076 L158.202247,43.8902076 C158.741573,43.8902076 159.101124,43.5304518 159.101124,42.9908181 C159.101124,42.4511844 158.741573,42.0914286 158.202247,42.0914286 L158.202247,42.0914286 Z"></path>
                            <ellipse cx="1.79775281" cy="54.1432479" rx="1.79775281" ry="1.798779"></ellipse>
                            <ellipse cx="154.067416" cy="1.798779" rx="1.79775281" ry="1.798779"></ellipse>
                        </g>
                    </g>
                </g>
            </g>
        </g>
    </g>
</svg>