<?xml version="1.0" encoding="UTF-8" standalone="no"?>
<svg width="17px" height="17px" viewBox="0 0 17 17" version="1.1" xmlns="http://www.w3.org/2000/svg" xmlns:xlink="http://www.w3.org/1999/xlink">
    <!-- Generator: Sketch 3.6.1 (26313) - http://www.bohemiancoding.com/sketch -->
    <title>:: symbol</title>
    <desc>Created with Sketch.</desc>
    <defs></defs>
    <g stroke="none" stroke-width="1" fill="rgb(0,0,0)" fill-rule="evenodd">
        <g transform="translate(-110.000000, -173.000000)">
            <g transform="translate(110.000000, 138.000000)">
                <g transform="translate(0.000000, 35.000000)">
                    <path d="M13.4387244,8.83928571 C13.4387244,9.86607143 13.1261959,10.8482143 12.5904328,11.6964286 L14.7334852,13.8392857 C15.7603645,12.4553571 16.3854214,10.7589286 16.3854214,8.88392857 C16.3854214,7.00892857 15.7603645,5.3125 14.6888383,3.92857143 L12.5904328,6.02678571 C13.1261959,6.83035714 13.4387244,7.8125 13.4387244,8.83928571 L13.4387244,8.83928571 Z"></path>
                    <path d="M13.4387244,8.83928571 C13.4387244,9.86607143 13.1261959,10.8482143 12.5904328,11.6964286 L14.7334852,13.8392857 C15.7603645,12.4553571 16.3854214,10.7589286 16.3854214,8.88392857 C16.3854214,7.00892857 15.7603645,5.3125 14.6888383,3.92857143 L12.5904328,6.02678571 C13.1261959,6.83035714 13.4387244,7.8125 13.4387244,8.83928571 L13.4387244,8.83928571 Z" fill-opacity="0.46" fill="#FFFFFF"></path>
                    <path d="M2.90205011,8.83928571 C2.90205011,5.9375 5.26833713,3.57142857 8.17038724,3.57142857 C9.24191344,3.57142857 10.2241458,3.88392857 11.0277904,4.41964286 L13.1261959,2.32142857 C11.7421412,1.29464286 10.0455581,0.669642857 8.17038724,0.669642857 C3.66104784,0.669642857 0,4.33035714 0,8.83928571 C0,13.3482143 3.66104784,17.0089286 8.17038724,17.0089286 C10.0455581,17.0089286 11.7421412,16.3839286 13.1261959,15.3125 L10.9831435,13.1696429 C10.2241458,13.7946429 9.24191344,14.1071429 8.17038724,14.1071429 C5.26833713,14.1071429 2.90205011,11.7410714 2.90205011,8.83928571 Z"></path>
                </g>
            </g>
        </g>
    </g>
</svg>