<svg width="144" height="29" viewBox="0 0 144 29" fill="none" xmlns="http://www.w3.org/2000/svg">
<path fill-rule="evenodd" clip-rule="evenodd" d="M40 14H0V15H40V14ZM144 14H104V15H144V14Z" fill="#66A3FF"/>
<path opacity="0.56" fill-rule="evenodd" clip-rule="evenodd" d="M83.3181 6.02881C84.8768 8.29251 85.7904 11.0413 85.7904 14.0054C85.7904 16.9695 84.8768 19.7185 83.3181 21.982L79.7188 18.3541C80.4256 17.065 80.8279 15.5824 80.8279 14.0054C80.8279 12.4284 80.4256 10.946 79.7188 9.65694L83.3181 6.02881Z" fill="white"/>
<path fill-rule="evenodd" clip-rule="evenodd" d="M79.809 2.49194L76.2094 6.1198C74.9305 5.40733 73.4598 5.00181 71.8952 5.00181C66.9619 5.00181 62.9625 9.03294 62.9625 14.0053C62.9625 18.9778 66.9619 23.0089 71.8952 23.0089C73.4598 23.0089 74.9305 22.6034 76.2094 21.8909L79.809 25.5188C77.5632 27.0899 74.836 28.0107 71.8952 28.0107C64.2212 28.0107 58 21.7402 58 14.0053C58 6.27047 64.2212 0 71.8952 0C74.836 0 77.5632 0.920826 79.809 2.49194Z" fill="white"/>
</svg>
