<svg width="184" height="192" viewBox="0 0 184 192" fill="none" xmlns="http://www.w3.org/2000/svg">
<g filter="url(#filter0_d)">
<path fill-rule="evenodd" clip-rule="evenodd" d="M108.487 4.35952L156.365 31.7914C163.584 35.9276 168 43.3682 168 51.3964V109.978C168 118.189 163.383 125.77 155.902 129.842L107.869 155.986C98.035 161.338 85.9653 161.338 76.1314 155.986L28.0986 129.842C20.6175 125.77 16.0001 118.189 16.0001 109.978L16.0001 51.3964C16.0001 43.3682 20.4159 35.9276 27.635 31.7914L75.5133 4.35952C85.6585 -1.45317 98.3417 -1.45317 108.487 4.35952Z" fill="url(#paint0_linear)"/>
<g filter="url(#filter1_d)">
<path d="M108.156 75.0198L142.746 94.7017C146.54 96.8603 147.779 101.541 145.514 105.157C144.829 106.252 143.866 107.165 142.715 107.813L103.264 130.029C98.8049 132.54 97.0489 133.189 94.9809 133.614C92.9129 134.039 90.8971 134.037 88.8304 133.606C86.7637 133.175 85.0095 132.522 80.5578 129.999L40.118 107.081C36.3204 104.928 35.0724 100.249 37.3305 96.6298C38.019 95.5262 38.9887 94.6062 40.1497 93.9551L74.0976 74.9167C80.7931 71.1617 83.4288 70.1938 86.5318 69.5612C89.6348 68.9285 92.6585 68.9377 95.7572 69.5891C98.8559 70.2405 101.485 71.2244 108.156 75.0198Z" fill="url(#paint1_linear)"/>
</g>
<g filter="url(#filter2_d)">
<path d="M108.156 54.4114L142.746 74.0933C146.54 76.2519 147.779 80.9329 145.514 84.5487C144.829 85.6433 143.866 86.5565 142.715 87.205L103.264 109.421C98.8049 111.932 97.0489 112.58 94.9809 113.006C92.9129 113.431 90.8971 113.428 88.8304 112.997C86.7637 112.567 85.0095 111.914 80.5578 109.391L40.118 86.4722C36.3204 84.3199 35.0724 79.641 37.3305 76.0214C38.019 74.9178 38.9887 73.9978 40.1497 73.3467L74.0976 54.3083C80.7931 50.5533 83.4288 49.5854 86.5318 48.9528C89.6348 48.3201 92.6585 48.3293 95.7572 48.9807C98.8559 49.6321 101.485 50.616 108.156 54.4114Z" fill="url(#paint2_linear)" style="mix-blend-mode:screen"/>
</g>
<g filter="url(#filter3_d)">
<path d="M108.156 33.8039L142.746 53.4859C146.54 55.6445 147.779 60.3255 145.514 63.9413C144.829 65.0358 143.866 65.9491 142.715 66.5975L103.264 88.8135C98.8049 91.3246 97.0488 91.9729 94.9809 92.3982C92.9129 92.8235 90.8971 92.8208 88.8304 92.39C86.7637 91.9592 85.0095 91.3062 80.5579 88.7833L40.118 65.8648C36.3204 63.7125 35.0724 59.0335 37.3305 55.414C38.019 54.3104 38.9887 53.3904 40.1497 52.7393L74.0976 33.7008C80.7931 29.9459 83.4288 28.978 86.5318 28.3454C89.6348 27.7127 92.6585 27.7219 95.7572 28.3733C98.8559 29.0247 101.485 30.0086 108.156 33.8039Z" fill="url(#paint3_linear)" style="mix-blend-mode:screen"/>
</g>
</g>
<defs>
<filter id="filter0_d" x="0.00012207" y="0" width="184" height="192" filterUnits="userSpaceOnUse" color-interpolation-filters="sRGB">
<feFlood flood-opacity="0" result="BackgroundImageFix"/>
<feColorMatrix in="SourceAlpha" type="matrix" values="0 0 0 0 0 0 0 0 0 0 0 0 0 0 0 0 0 0 127 0"/>
<feOffset dy="16"/>
<feGaussianBlur stdDeviation="8"/>
<feColorMatrix type="matrix" values="0 0 0 0 0.0793272 0 0 0 0 0.0874277 0 0 0 0 0.349345 0 0 0 0.08 0"/>
<feBlend mode="normal" in2="BackgroundImageFix" result="effect1_dropShadow"/>
<feBlend mode="normal" in="SourceGraphic" in2="effect1_dropShadow" result="shape"/>
</filter>
<filter id="filter1_d" x="20.2054" y="69.0938" width="142.441" height="96.8375" filterUnits="userSpaceOnUse" color-interpolation-filters="sRGB">
<feFlood flood-opacity="0" result="BackgroundImageFix"/>
<feColorMatrix in="SourceAlpha" type="matrix" values="0 0 0 0 0 0 0 0 0 0 0 0 0 0 0 0 0 0 127 0"/>
<feOffset dy="16"/>
<feGaussianBlur stdDeviation="8"/>
<feColorMatrix type="matrix" values="0 0 0 0 0.0768 0 0 0 0 0.07808 0 0 0 0 0.08 0 0 0 0.08 0"/>
<feBlend mode="normal" in2="BackgroundImageFix" result="effect1_dropShadow"/>
<feBlend mode="normal" in="SourceGraphic" in2="effect1_dropShadow" result="shape"/>
</filter>
<filter id="filter2_d" x="20.2054" y="48.4854" width="142.441" height="96.8375" filterUnits="userSpaceOnUse" color-interpolation-filters="sRGB">
<feFlood flood-opacity="0" result="BackgroundImageFix"/>
<feColorMatrix in="SourceAlpha" type="matrix" values="0 0 0 0 0 0 0 0 0 0 0 0 0 0 0 0 0 0 127 0"/>
<feOffset dy="16"/>
<feGaussianBlur stdDeviation="8"/>
<feColorMatrix type="matrix" values="0 0 0 0 0.0768 0 0 0 0 0.07808 0 0 0 0 0.08 0 0 0 0.08 0"/>
<feBlend mode="normal" in2="BackgroundImageFix" result="effect1_dropShadow"/>
<feBlend mode="normal" in="SourceGraphic" in2="effect1_dropShadow" result="shape"/>
</filter>
<filter id="filter3_d" x="20.2054" y="27.8779" width="142.441" height="96.8375" filterUnits="userSpaceOnUse" color-interpolation-filters="sRGB">
<feFlood flood-opacity="0" result="BackgroundImageFix"/>
<feColorMatrix in="SourceAlpha" type="matrix" values="0 0 0 0 0 0 0 0 0 0 0 0 0 0 0 0 0 0 127 0"/>
<feOffset dy="16"/>
<feGaussianBlur stdDeviation="8"/>
<feColorMatrix type="matrix" values="0 0 0 0 0.0768 0 0 0 0 0.07808 0 0 0 0 0.08 0 0 0 0.08 0"/>
<feBlend mode="normal" in2="BackgroundImageFix" result="effect1_dropShadow"/>
<feBlend mode="normal" in="SourceGraphic" in2="effect1_dropShadow" result="shape"/>
</filter>
<linearGradient id="paint0_linear" x1="92.0001" y1="0" x2="92.0001" y2="160" gradientUnits="userSpaceOnUse">
<stop stop-color="#282878"/>
<stop offset="1" stop-color="#3131A0"/>
</linearGradient>
<linearGradient id="paint1_linear" x1="122.613" y1="118.44" x2="76.6137" y2="67.739" gradientUnits="userSpaceOnUse">
<stop stop-color="#FDE75B"/>
<stop offset="1" stop-color="#FC57B3"/>
</linearGradient>
<linearGradient id="paint2_linear" x1="125.503" y1="97.19" x2="77.9071" y2="45.8414" gradientUnits="userSpaceOnUse">
<stop stop-color="#F67AFE"/>
<stop offset="1" stop-color="#662DFF"/>
</linearGradient>
<linearGradient id="paint3_linear" x1="124.361" y1="77.211" x2="59.7553" y2="1.54006" gradientUnits="userSpaceOnUse">
<stop stop-color="#4AF2FF"/>
<stop offset="1" stop-color="#3D44FF"/>
</linearGradient>
</defs>
</svg>
