<svg width="448" height="377" viewBox="0 0 448 377" fill="none" xmlns="http://www.w3.org/2000/svg">
<g opacity="0.32">
<g filter="url(#filter0_d)">
<rect x="53.44" y="118.813" width="341.12" height="201.512" rx="16" fill="white"/>
</g>
<rect x="38.6087" y="114.783" width="370.783" height="209.573" rx="16" fill="white"/>
<rect x="38.1087" y="114.283" width="371.783" height="210.573" rx="16.5" stroke="#141414" stroke-opacity="0.04"/>
</g>
<g opacity="0.56">
<g filter="url(#filter1_d)">
<rect x="49.28" y="87.2588" width="349.44" height="206.427" rx="16" fill="white"/>
</g>
<rect x="34.087" y="83.1304" width="379.826" height="214.684" rx="16" fill="white"/>
<rect x="33.587" y="82.6304" width="380.826" height="215.684" rx="16.5" stroke="#141414" stroke-opacity="0.04"/>
</g>
<g opacity="0.72">
<g filter="url(#filter2_d)">
<rect x="40.96" y="49.021" width="366.08" height="216.257" rx="16" fill="white"/>
</g>
<rect x="25.0435" y="44.6958" width="397.913" height="224.907" rx="16" fill="white"/>
<rect x="24.5435" y="44.1958" width="398.913" height="225.907" rx="16.5" stroke="#141414" stroke-opacity="0.04"/>
</g>
<g filter="url(#filter3_d)">
<rect x="32.64" y="8.52197" width="382.72" height="226.087" rx="16" fill="white"/>
</g>
<rect x="16" y="4" width="416" height="235.13" rx="16" fill="white"/>
<rect x="15.5" y="3.5" width="417" height="236.13" rx="16.5" stroke="#141414" stroke-opacity="0.04"/>
<mask id="mask0" mask-type="alpha" maskUnits="userSpaceOnUse" x="16" y="4" width="416" height="236">
<rect x="16" y="4" width="416" height="235.13" rx="16" fill="white"/>
</mask>
<g mask="url(#mask0)">
<path d="M16 11.9274C16 7.50911 19.5817 4 24 4H424C428.419 4 432 7.56851 432 11.9868C432 34.2798 432 98.0612 432 136.549C189.68 113.459 271.84 220.206 16 201.314C16 149.248 16 41.902 16 11.9274Z" fill="url(#paint0_linear)"/>
<path opacity="0.4" d="M16 197.992C212.04 201.241 174.6 83.2078 432 132.479C432 133.561 432 134.103 432 136.269C189.68 112.446 271.84 220.733 16 201.241C16 138.434 16 200.7 16 197.992Z" fill="white" fill-opacity="0.48"/>
<path opacity="0.24" d="M16 137.068C169.4 137.068 249.48 194.948 432 171.147C432 164.656 432 199.275 432 203.603C421.08 203.603 62.8 203.603 16 203.603C16 140.855 16 139.773 16 137.068Z" fill="white" fill-opacity="0.48"/>
<path d="M380.036 178.954V184.733C380.036 186.096 378.945 186.846 377.701 186.846C376.456 186.846 375.365 186.096 375.365 184.733V178.954H374.309V184.733C374.309 186.693 375.86 187.835 377.701 187.835C379.542 187.835 381.093 186.693 381.093 184.733V178.954H380.036ZM387.671 181.204H388.694C388.609 179.824 387.433 178.835 385.745 178.835C384.075 178.835 382.762 179.807 382.762 181.273C382.762 182.449 383.615 183.148 384.978 183.54L386.052 183.846C387.228 184.187 387.791 184.511 387.791 185.295C387.791 186.25 386.87 186.881 385.66 186.881C384.62 186.881 383.7 186.42 383.615 185.432H382.524C382.626 186.863 383.785 187.835 385.66 187.835C387.671 187.835 388.814 186.727 388.814 185.295C388.814 184.085 388.012 183.352 386.359 182.909L385.473 182.67C384.314 182.363 383.785 181.937 383.785 181.238C383.785 180.386 384.552 179.773 385.711 179.773C386.768 179.773 387.518 180.267 387.671 181.204ZM392.973 187.682C395.632 187.682 397.132 186.028 397.132 183.301C397.132 180.591 395.632 178.954 393.092 178.954H390.28V187.682H392.973ZM393.024 179.892C395.069 179.892 396.109 181.187 396.109 183.301C396.109 185.432 395.069 186.744 392.905 186.744H391.337V179.892H393.024Z" fill="#9D9FA3"/>
<path d="M306.771 207.984H309.089L309.123 205.416C313.646 204.962 316.18 202.2 316.18 198.712C316.18 195.484 314.043 193.53 309.634 192.348L309.282 192.257L309.384 184.121C311.418 184.518 312.805 185.768 313.134 187.802H315.862C315.657 184.518 313.146 182.075 309.418 181.575L309.452 178.893H307.134L307.1 181.518C303.077 181.848 300.043 184.337 300.043 187.984C300.043 191.121 302.316 192.984 305.952 194.03L306.941 194.314L306.839 202.893C304.464 202.643 302.521 201.405 302.316 199.075H299.407C299.657 202.643 302.373 205.132 306.805 205.45L306.771 207.984ZM302.771 187.893C302.771 185.837 304.452 184.291 307.066 184.03L306.975 191.632C304.089 190.814 302.771 189.7 302.771 187.893ZM313.452 198.712C313.452 200.882 311.668 202.416 309.157 202.825L309.248 194.973C312.089 195.837 313.452 196.723 313.452 198.712ZM327.15 181.802H324.786C324.513 182.075 323.013 185.257 319.377 185.257V187.621C322.059 187.621 323.968 186.53 324.286 185.893H324.468V205.075H327.15V181.802ZM347.929 192.121C347.929 185.302 345.247 181.484 340.202 181.484C335.111 181.484 332.384 185.302 332.384 192.121V194.348C332.384 201.212 335.156 205.393 340.247 205.393C345.293 205.393 347.929 201.212 347.929 194.348V192.121ZM345.111 194.848C345.111 199.212 343.566 202.893 340.247 202.893C336.884 202.893 335.202 199.212 335.202 194.848V191.621C335.202 187.212 336.838 183.984 340.202 183.984C343.52 183.984 345.111 187.212 345.111 191.621V194.848ZM366.035 192.121C366.035 185.302 363.354 181.484 358.308 181.484C353.217 181.484 350.49 185.302 350.49 192.121V194.348C350.49 201.212 353.263 205.393 358.354 205.393C363.399 205.393 366.035 201.212 366.035 194.348V192.121ZM363.217 194.848C363.217 199.212 361.672 202.893 358.354 202.893C354.99 202.893 353.308 199.212 353.308 194.848V191.621C353.308 187.212 354.945 183.984 358.308 183.984C361.626 183.984 363.217 187.212 363.217 191.621V194.848Z" fill="#313233"/>
<path d="M54.174 61.6244H52.5603L56.7649 68.4653V73.2607H58.174V68.4653L62.3785 61.6244H60.7649L57.5376 67.0562H57.4012L54.174 61.6244ZM66.3887 73.4426C68.7524 73.4426 70.3433 71.6471 70.3433 68.9426C70.3433 66.2153 68.7524 64.4198 66.3887 64.4198C64.0251 64.4198 62.4342 66.2153 62.4342 68.9426C62.4342 71.6471 64.0251 73.4426 66.3887 73.4426ZM66.3887 72.238C64.5933 72.238 63.7751 70.6926 63.7751 68.9426C63.7751 67.1926 64.5933 65.6244 66.3887 65.6244C68.1842 65.6244 69.0024 67.1926 69.0024 68.9426C69.0024 70.6926 68.1842 72.238 66.3887 72.238ZM77.5026 69.8062C77.5026 71.4426 76.2526 72.0789 75.2526 72.0789C74.139 72.0789 73.3436 71.3517 73.3436 70.0789V64.5335H72.0026V70.0789C72.0026 72.3744 73.5481 73.3744 74.8208 73.3744C76.139 73.3744 76.9799 72.6926 77.4117 72.0335H77.5026V73.2607H78.8436V64.5335H77.5026V69.8062ZM92.1424 67.1471C91.9151 65.5107 90.5288 64.4198 88.6879 64.4198C86.3242 64.4198 84.7561 66.2835 84.7561 68.8971C84.7561 71.5789 86.2788 73.4426 88.7106 73.4426C90.6424 73.4426 91.9151 72.2607 92.1424 70.7153H90.8015C90.5515 71.6698 89.7561 72.238 88.7106 72.238C87.1197 72.238 86.097 70.9198 86.097 68.8971C86.097 66.9198 87.1424 65.6244 88.7106 65.6244C89.8924 65.6244 90.597 66.3517 90.8015 67.1471H92.1424ZM99.0362 73.2607H100.377V67.5107C100.377 64.738 98.2634 64.4198 97.1498 64.4198C95.8316 64.4198 94.3316 64.8744 93.6498 66.4653L94.9225 66.9198C95.218 66.2835 95.9225 65.6017 97.218 65.6017C98.2634 65.6017 99.0362 66.0562 99.0362 67.5107V67.5335C99.0362 68.1017 97.9907 68.0562 96.7862 68.2153C95.1498 68.4198 93.3998 68.8062 93.3998 70.7835C93.3998 72.488 94.718 73.4653 96.3771 73.4653C97.8998 73.4653 98.6953 72.6471 98.968 72.0789H99.0362V73.2607ZM99.0362 70.1017C99.0362 71.1926 98.1725 72.2607 96.5816 72.2607C95.5134 72.2607 94.7407 71.7835 94.7407 70.8517C94.7407 69.8289 95.6725 69.5107 96.718 69.3744C97.2862 69.3062 98.8089 69.1471 99.0362 68.8744V70.1017ZM103.887 68.1017C103.887 66.4653 105.137 65.7153 106.137 65.7153C107.251 65.7153 108.046 66.5335 108.046 67.8062V73.2607H109.387V67.7153C109.387 65.488 108.205 64.4198 106.569 64.4198C105.251 64.4198 104.387 65.1244 103.978 66.0107H103.887V64.5335H102.546V73.2607H103.887V68.1017ZM117.05 68.1017C117.05 66.4653 118.3 65.7153 119.3 65.7153C120.413 65.7153 121.209 66.5335 121.209 67.8062V73.2607H122.55V67.7153C122.55 65.488 121.368 64.4198 119.732 64.4198C118.413 64.4198 117.55 65.1244 117.141 66.0107H117.05V64.5335H115.709V73.2607H117.05V68.1017ZM128.211 73.4426C130.574 73.4426 132.165 71.6471 132.165 68.9426C132.165 66.2153 130.574 64.4198 128.211 64.4198C125.847 64.4198 124.256 66.2153 124.256 68.9426C124.256 71.6471 125.847 73.4426 128.211 73.4426ZM128.211 72.238C126.415 72.238 125.597 70.6926 125.597 68.9426C125.597 67.1926 126.415 65.6244 128.211 65.6244C130.006 65.6244 130.824 67.1926 130.824 68.9426C130.824 70.6926 130.006 72.238 128.211 72.238ZM144.833 64.5335H143.424L141.538 71.1926H141.447L139.606 64.5335H138.174L136.31 71.2153H136.219L134.333 64.5335H132.924L135.583 73.2607H136.901L138.81 66.5562H138.947L140.856 73.2607H142.174L144.833 64.5335ZM150.244 66.9426C150.244 67.988 150.971 68.9426 152.54 69.3289L153.994 69.6926C154.858 69.8971 155.221 70.3289 155.221 70.8971C155.221 71.6244 154.517 72.2607 153.267 72.2607C151.971 72.2607 151.358 71.5789 151.04 70.7835L149.812 71.238C150.244 72.3289 151.199 73.4426 153.29 73.4426C155.449 73.4426 156.608 72.1698 156.608 70.8517C156.608 69.8517 155.949 68.9198 154.358 68.5335L153.062 68.2153C152.062 67.9653 151.585 67.4653 151.585 66.8744C151.585 66.1244 152.38 65.5789 153.449 65.5789C154.79 65.5789 155.13 66.4426 155.29 66.8289L156.494 66.488C156.04 65.2153 155.017 64.4198 153.449 64.4198C151.608 64.4198 150.244 65.5107 150.244 66.9426ZM163.975 69.8062C163.975 71.4426 162.725 72.0789 161.725 72.0789C160.611 72.0789 159.815 71.3517 159.815 70.0789V64.5335H158.475V70.0789C158.475 72.3744 160.02 73.3744 161.293 73.3744C162.611 73.3744 163.452 72.6926 163.884 72.0335H163.975V73.2607H165.315V64.5335H163.975V69.8062ZM167.478 76.5335H168.819V71.9198H168.932C169.228 72.3971 169.796 73.4426 171.478 73.4426C173.659 73.4426 175.182 71.6926 175.182 68.9198C175.182 66.1698 173.659 64.4198 171.455 64.4198C169.75 64.4198 169.228 65.4653 168.932 65.9198H168.773V64.5335H167.478V76.5335ZM173.841 68.8971C173.841 70.7607 172.978 72.238 171.296 72.238C169.682 72.238 168.796 70.8744 168.796 68.8971C168.796 66.9426 169.659 65.6244 171.296 65.6244C173 65.6244 173.841 67.0562 173.841 68.8971ZM176.934 76.5335H178.275V71.9198H178.388C178.684 72.3971 179.252 73.4426 180.934 73.4426C183.116 73.4426 184.638 71.6926 184.638 68.9198C184.638 66.1698 183.116 64.4198 180.911 64.4198C179.207 64.4198 178.684 65.4653 178.388 65.9198H178.229V64.5335H176.934V76.5335ZM183.298 68.8971C183.298 70.7607 182.434 72.238 180.752 72.238C179.138 72.238 178.252 70.8744 178.252 68.8971C178.252 66.9426 179.116 65.6244 180.752 65.6244C182.457 65.6244 183.298 67.0562 183.298 68.8971ZM189.936 73.4426C192.299 73.4426 193.89 71.6471 193.89 68.9426C193.89 66.2153 192.299 64.4198 189.936 64.4198C187.572 64.4198 185.981 66.2153 185.981 68.9426C185.981 71.6471 187.572 73.4426 189.936 73.4426ZM189.936 72.238C188.14 72.238 187.322 70.6926 187.322 68.9426C187.322 67.1926 188.14 65.6244 189.936 65.6244C191.731 65.6244 192.549 67.1926 192.549 68.9426C192.549 70.6926 191.731 72.238 189.936 72.238ZM200.461 64.7153C200.189 64.5562 199.757 64.3971 199.302 64.3971C198.28 64.3971 197.325 65.1926 197.075 66.0335H196.984V64.5335H195.643V73.2607H196.984V68.3289C197.007 67.1471 197.825 65.7835 199.257 65.7835C199.643 65.7835 199.871 65.8971 200.007 65.9653L200.461 64.7153ZM205.743 64.5335H203.879V62.6698H202.538V64.5335H201.22V65.7835H202.538V71.1244C202.538 72.6471 203.766 73.3744 204.902 73.3744C205.402 73.3744 205.72 73.2835 205.902 73.2153L205.629 72.0107C205.516 72.0335 205.334 72.0789 205.038 72.0789C204.448 72.0789 203.879 71.8971 203.879 70.7607V65.7835H205.743V64.5335ZM215.182 73.4426C217.546 73.4426 219.137 71.6471 219.137 68.9426C219.137 66.2153 217.546 64.4198 215.182 64.4198C212.819 64.4198 211.228 66.2153 211.228 68.9426C211.228 71.6471 212.819 73.4426 215.182 73.4426ZM215.182 72.238C213.387 72.238 212.569 70.6926 212.569 68.9426C212.569 67.1926 213.387 65.6244 215.182 65.6244C216.978 65.6244 217.796 67.1926 217.796 68.9426C217.796 70.6926 216.978 72.238 215.182 72.238ZM220.703 76.5335H222.044V71.9198H222.157C222.453 72.3971 223.021 73.4426 224.703 73.4426C226.884 73.4426 228.407 71.6926 228.407 68.9198C228.407 66.1698 226.884 64.4198 224.68 64.4198C222.975 64.4198 222.453 65.4653 222.157 65.9198H221.998V64.5335H220.703V76.5335ZM227.066 68.8971C227.066 70.7607 226.203 72.238 224.521 72.238C222.907 72.238 222.021 70.8744 222.021 68.8971C222.021 66.9426 222.884 65.6244 224.521 65.6244C226.225 65.6244 227.066 67.0562 227.066 68.8971ZM233.818 73.4426C235.591 73.4426 236.886 72.5562 237.295 71.238L236 70.8744C235.659 71.7835 234.886 72.238 233.818 72.238C232.113 72.238 231.091 71.0789 231.091 68.8971C231.091 66.8289 232.159 65.6244 233.682 65.6244C235.136 65.6244 236.068 66.7153 236.068 68.1926H230.704V69.3517H237.432V68.7835C237.432 65.5335 235.5 64.4198 233.682 64.4198C231.318 64.4198 229.75 66.2835 229.75 68.9653C229.75 71.6471 231.295 73.4426 233.818 73.4426ZM240.55 68.1017C240.55 66.4653 241.8 65.7153 242.8 65.7153C243.913 65.7153 244.709 66.5335 244.709 67.8062V73.2607H246.05V67.7153C246.05 65.488 244.868 64.4198 243.232 64.4198C241.913 64.4198 241.05 65.1244 240.641 66.0107H240.55V64.5335H239.209V73.2607H240.55V68.1017ZM259.349 67.1471C259.121 65.5107 257.735 64.4198 255.894 64.4198C253.53 64.4198 251.962 66.2835 251.962 68.8971C251.962 71.5789 253.485 73.4426 255.917 73.4426C257.849 73.4426 259.121 72.2607 259.349 70.7153H258.008C257.758 71.6698 256.962 72.238 255.917 72.238C254.326 72.238 253.303 70.9198 253.303 68.8971C253.303 66.9198 254.349 65.6244 255.917 65.6244C257.099 65.6244 257.803 66.3517 258.008 67.1471H259.349ZM264.576 73.4426C266.94 73.4426 268.531 71.6471 268.531 68.9426C268.531 66.2153 266.94 64.4198 264.576 64.4198C262.213 64.4198 260.622 66.2153 260.622 68.9426C260.622 71.6471 262.213 73.4426 264.576 73.4426ZM264.576 72.238C262.781 72.238 261.963 70.6926 261.963 68.9426C261.963 67.1926 262.781 65.6244 264.576 65.6244C266.372 65.6244 267.19 67.1926 267.19 68.9426C267.19 70.6926 266.372 72.238 264.576 72.238ZM271.625 61.6244H270.284V73.2607H271.625V61.6244ZM275.128 61.6244H273.787V73.2607H275.128V61.6244ZM280.949 73.4426C282.722 73.4426 284.017 72.5562 284.427 71.238L283.131 70.8744C282.79 71.7835 282.017 72.238 280.949 72.238C279.245 72.238 278.222 71.0789 278.222 68.8971C278.222 66.8289 279.29 65.6244 280.813 65.6244C282.267 65.6244 283.199 66.7153 283.199 68.1926H277.836V69.3517H284.563V68.7835C284.563 65.5335 282.631 64.4198 280.813 64.4198C278.449 64.4198 276.881 66.2835 276.881 68.9653C276.881 71.6471 278.427 73.4426 280.949 73.4426ZM293.317 67.1471C293.09 65.5107 291.704 64.4198 289.863 64.4198C287.499 64.4198 285.931 66.2835 285.931 68.8971C285.931 71.5789 287.454 73.4426 289.886 73.4426C291.817 73.4426 293.09 72.2607 293.317 70.7153H291.977C291.727 71.6698 290.931 72.238 289.886 72.238C288.295 72.238 287.272 70.9198 287.272 68.8971C287.272 66.9198 288.317 65.6244 289.886 65.6244C291.067 65.6244 291.772 66.3517 291.977 67.1471H293.317ZM298.768 64.5335H296.904V62.6698H295.563V64.5335H294.245V65.7835H295.563V71.1244C295.563 72.6471 296.791 73.3744 297.927 73.3744C298.427 73.3744 298.745 73.2835 298.927 73.2153L298.654 72.0107C298.541 72.0335 298.359 72.0789 298.063 72.0789C297.473 72.0789 296.904 71.8971 296.904 70.7607V65.7835H298.768V64.5335ZM301.162 63.2835C301.753 63.2835 302.116 62.8744 302.116 62.3744C302.116 61.9198 301.753 61.4653 301.162 61.4653C300.571 61.4653 300.207 61.9198 300.207 62.3744C300.207 62.8744 300.571 63.2835 301.162 63.2835ZM301.844 64.5335H300.503V73.2607H301.844V64.5335ZM311.142 64.5335H309.688L307.279 71.488H307.188L304.779 64.5335H303.324L306.551 73.2607H307.915L311.142 64.5335ZM315.98 73.4426C317.753 73.4426 319.049 72.5562 319.458 71.238L318.162 70.8744C317.821 71.7835 317.049 72.238 315.98 72.238C314.276 72.238 313.253 71.0789 313.253 68.8971C313.253 66.8289 314.321 65.6244 315.844 65.6244C317.299 65.6244 318.23 66.7153 318.23 68.1926H312.867V69.3517H319.594V68.7835C319.594 65.5335 317.662 64.4198 315.844 64.4198C313.48 64.4198 311.912 66.2835 311.912 68.9653C311.912 71.6471 313.458 73.4426 315.98 73.4426ZM321.144 66.9426C321.144 67.988 321.871 68.9426 323.44 69.3289L324.894 69.6926C325.758 69.8971 326.121 70.3289 326.121 70.8971C326.121 71.6244 325.417 72.2607 324.167 72.2607C322.871 72.2607 322.258 71.5789 321.94 70.7835L320.712 71.238C321.144 72.3289 322.099 73.4426 324.19 73.4426C326.349 73.4426 327.508 72.1698 327.508 70.8517C327.508 69.8517 326.849 68.9198 325.258 68.5335L323.962 68.2153C322.962 67.9653 322.485 67.4653 322.485 66.8744C322.485 66.1244 323.28 65.5789 324.349 65.5789C325.69 65.5789 326.03 66.4426 326.19 66.8289L327.394 66.488C326.94 65.2153 325.917 64.4198 324.349 64.4198C322.508 64.4198 321.144 65.5107 321.144 66.9426ZM344.761 64.5335H343.352L341.466 71.1926H341.375L339.534 64.5335H338.102L336.238 71.2153H336.148L334.261 64.5335H332.852L335.511 73.2607H336.829L338.738 66.5562H338.875L340.784 73.2607H342.102L344.761 64.5335ZM346.899 63.2835C347.49 63.2835 347.854 62.8744 347.854 62.3744C347.854 61.9198 347.49 61.4653 346.899 61.4653C346.308 61.4653 345.945 61.9198 345.945 62.3744C345.945 62.8744 346.308 63.2835 346.899 63.2835ZM347.581 64.5335H346.24V73.2607H347.581V64.5335ZM353.402 64.5335H351.539V62.6698H350.198V64.5335H348.88V65.7835H350.198V71.1244C350.198 72.6471 351.425 73.3744 352.561 73.3744C353.061 73.3744 353.38 73.2835 353.561 73.2153L353.289 72.0107C353.175 72.0335 352.993 72.0789 352.698 72.0789C352.107 72.0789 351.539 71.8971 351.539 70.7607V65.7835H353.402V64.5335ZM356.478 67.988C356.478 66.3517 357.66 65.7153 358.728 65.7153C359.887 65.7153 360.637 66.4426 360.637 67.7153V73.2607H361.978V67.7153C361.978 65.5562 360.796 64.4198 359.16 64.4198C357.842 64.4198 357.001 65.1017 356.569 65.7607H356.478V61.6244H355.137V73.2607H356.478V67.988ZM57.0149 86.5335H55.1512V84.6698H53.8103V86.5335H52.4921V87.7835H53.8103V93.1244C53.8103 94.6471 55.0376 95.3744 56.174 95.3744C56.674 95.3744 56.9921 95.2835 57.174 95.2153L56.9012 94.0107C56.7876 94.0335 56.6058 94.0789 56.3103 94.0789C55.7194 94.0789 55.1512 93.8971 55.1512 92.7607V87.7835H57.0149V86.5335ZM60.0904 89.988C60.0904 88.3517 61.2722 87.7153 62.3404 87.7153C63.4995 87.7153 64.2495 88.4426 64.2495 89.7153V95.2607H65.5904V89.7153C65.5904 87.5562 64.4086 86.4198 62.7722 86.4198C61.4541 86.4198 60.6132 87.1017 60.1813 87.7607H60.0904V83.6244H58.7495V95.2607H60.0904V89.988ZM68.4117 85.2835C69.0026 85.2835 69.3663 84.8744 69.3663 84.3744C69.3663 83.9198 69.0026 83.4653 68.4117 83.4653C67.8208 83.4653 67.4572 83.9198 67.4572 84.3744C67.4572 84.8744 67.8208 85.2835 68.4117 85.2835ZM69.0936 86.5335H67.7526V95.2607H69.0936V86.5335ZM71.0285 88.9426C71.0285 89.988 71.7558 90.9426 73.3239 91.3289L74.7785 91.6926C75.6421 91.8971 76.0058 92.3289 76.0058 92.8971C76.0058 93.6244 75.3012 94.2607 74.0512 94.2607C72.7558 94.2607 72.1421 93.5789 71.8239 92.7835L70.5967 93.238C71.0285 94.3289 71.983 95.4426 74.0739 95.4426C76.233 95.4426 77.3921 94.1698 77.3921 92.8517C77.3921 91.8517 76.733 90.9198 75.1421 90.5335L73.8467 90.2153C72.8467 89.9653 72.3694 89.4653 72.3694 88.8744C72.3694 88.1244 73.1649 87.5789 74.233 87.5789C75.5739 87.5789 75.9149 88.4426 76.0739 88.8289L77.2785 88.488C76.8239 87.2153 75.8012 86.4198 74.233 86.4198C72.3921 86.4198 71.0285 87.5107 71.0285 88.9426ZM88.6455 95.2607H89.9865V89.5107C89.9865 86.738 87.8728 86.4198 86.7592 86.4198C85.441 86.4198 83.941 86.8744 83.2592 88.4653L84.5319 88.9198C84.8274 88.2835 85.5319 87.6017 86.8274 87.6017C87.8728 87.6017 88.6455 88.0562 88.6455 89.5107V89.5335C88.6455 90.1017 87.6001 90.0562 86.3955 90.2153C84.7592 90.4198 83.0092 90.8062 83.0092 92.7835C83.0092 94.488 84.3274 95.4653 85.9865 95.4653C87.5092 95.4653 88.3046 94.6471 88.5774 94.0789H88.6455V95.2607ZM88.6455 92.1017C88.6455 93.1926 87.7819 94.2607 86.191 94.2607C85.1228 94.2607 84.3501 93.7835 84.3501 92.8517C84.3501 91.8289 85.2819 91.5107 86.3274 91.3744C86.8955 91.3062 88.4183 91.1471 88.6455 90.8744V92.1017ZM98.4512 89.7835C98.4512 88.5562 99.133 87.7153 100.315 87.7153C101.042 87.7153 102.019 88.1471 102.019 89.5107V95.2607H103.36V89.5562C103.36 87.4198 102.178 86.4198 100.724 86.4198C99.4512 86.4198 98.4512 87.2607 98.2012 87.988H98.1103C97.7239 87.1244 96.9512 86.4198 95.8603 86.4198C94.7467 86.4198 93.8376 87.2607 93.5876 88.0107H93.4967V86.5335H92.1558V95.2607H93.4967V90.0562C93.4967 88.6244 94.4739 87.7153 95.4967 87.7153C96.4739 87.7153 97.0876 88.238 97.0876 89.5562V95.2607H98.4512V89.7835ZM109.017 95.4426C111.38 95.4426 112.971 93.6471 112.971 90.9426C112.971 88.2153 111.38 86.4198 109.017 86.4198C106.653 86.4198 105.062 88.2153 105.062 90.9426C105.062 93.6471 106.653 95.4426 109.017 95.4426ZM109.017 94.238C107.221 94.238 106.403 92.6926 106.403 90.9426C106.403 89.1926 107.221 87.6244 109.017 87.6244C110.812 87.6244 111.63 89.1926 111.63 90.9426C111.63 92.6926 110.812 94.238 109.017 94.238ZM120.131 91.8062C120.131 93.4426 118.881 94.0789 117.881 94.0789C116.767 94.0789 115.972 93.3517 115.972 92.0789V86.5335H114.631V92.0789C114.631 94.3744 116.176 95.3744 117.449 95.3744C118.767 95.3744 119.608 94.6926 120.04 94.0335H120.131V95.2607H121.472V86.5335H120.131V91.8062ZM124.975 90.1017C124.975 88.4653 126.225 87.7153 127.225 87.7153C128.338 87.7153 129.134 88.5335 129.134 89.8062V95.2607H130.475V89.7153C130.475 87.488 129.293 86.4198 127.657 86.4198C126.338 86.4198 125.475 87.1244 125.066 88.0107H124.975V86.5335H123.634V95.2607H124.975V90.1017ZM136.202 86.5335H134.339V84.6698H132.998V86.5335H131.68V87.7835H132.998V93.1244C132.998 94.6471 134.225 95.3744 135.361 95.3744C135.861 95.3744 136.18 95.2835 136.361 95.2153L136.089 94.0107C135.975 94.0335 135.793 94.0789 135.498 94.0789C134.907 94.0789 134.339 93.8971 134.339 92.7607V87.7835H136.202V86.5335ZM139.823 93.8062H138.369V94.8971C138.369 95.7607 138.073 96.5562 137.687 97.4653L138.823 97.6926C139.414 96.8062 139.801 95.8744 139.823 94.8744V93.8062ZM153.186 89.1471C152.959 87.5107 151.573 86.4198 149.732 86.4198C147.368 86.4198 145.8 88.2835 145.8 90.8971C145.8 93.5789 147.323 95.4426 149.754 95.4426C151.686 95.4426 152.959 94.2607 153.186 92.7153H151.845C151.595 93.6698 150.8 94.238 149.754 94.238C148.163 94.238 147.141 92.9198 147.141 90.8971C147.141 88.9198 148.186 87.6244 149.754 87.6244C150.936 87.6244 151.641 88.3517 151.845 89.1471H153.186ZM158.414 95.4426C160.777 95.4426 162.368 93.6471 162.368 90.9426C162.368 88.2153 160.777 86.4198 158.414 86.4198C156.05 86.4198 154.459 88.2153 154.459 90.9426C154.459 93.6471 156.05 95.4426 158.414 95.4426ZM158.414 94.238C156.618 94.238 155.8 92.6926 155.8 90.9426C155.8 89.1926 156.618 87.6244 158.414 87.6244C160.209 87.6244 161.027 89.1926 161.027 90.9426C161.027 92.6926 160.209 94.238 158.414 94.238ZM169.528 91.8062C169.528 93.4426 168.278 94.0789 167.278 94.0789C166.164 94.0789 165.369 93.3517 165.369 92.0789V86.5335H164.028V92.0789C164.028 94.3744 165.573 95.3744 166.846 95.3744C168.164 95.3744 169.005 94.6926 169.437 94.0335H169.528V95.2607H170.869V86.5335H169.528V91.8062ZM177.849 86.7153C177.576 86.5562 177.144 86.3971 176.69 86.3971C175.667 86.3971 174.713 87.1926 174.463 88.0335H174.372V86.5335H173.031V95.2607H174.372V90.3289C174.394 89.1471 175.213 87.7835 176.644 87.7835C177.031 87.7835 177.258 87.8971 177.394 87.9653L177.849 86.7153ZM183.13 86.5335H181.267V84.6698H179.926V86.5335H178.608V87.7835H179.926V93.1244C179.926 94.6471 181.153 95.3744 182.29 95.3744C182.79 95.3744 183.108 95.2835 183.29 95.2153L183.017 94.0107C182.903 94.0335 182.721 94.0789 182.426 94.0789C181.835 94.0789 181.267 93.8971 181.267 92.7607V87.7835H183.13V86.5335ZM188.415 95.4426C190.188 95.4426 191.483 94.5562 191.892 93.238L190.597 92.8744C190.256 93.7835 189.483 94.238 188.415 94.238C186.71 94.238 185.688 93.0789 185.688 90.8971C185.688 88.8289 186.756 87.6244 188.279 87.6244C189.733 87.6244 190.665 88.7153 190.665 90.1926H185.301V91.3517H192.029V90.7835C192.029 87.5335 190.097 86.4198 188.279 86.4198C185.915 86.4198 184.347 88.2835 184.347 90.9653C184.347 93.6471 185.892 95.4426 188.415 95.4426ZM193.578 88.9426C193.578 89.988 194.306 90.9426 195.874 91.3289L197.328 91.6926C198.192 91.8971 198.556 92.3289 198.556 92.8971C198.556 93.6244 197.851 94.2607 196.601 94.2607C195.306 94.2607 194.692 93.5789 194.374 92.7835L193.147 93.238C193.578 94.3289 194.533 95.4426 196.624 95.4426C198.783 95.4426 199.942 94.1698 199.942 92.8517C199.942 91.8517 199.283 90.9198 197.692 90.5335L196.397 90.2153C195.397 89.9653 194.919 89.4653 194.919 88.8744C194.919 88.1244 195.715 87.5789 196.783 87.5789C198.124 87.5789 198.465 88.4426 198.624 88.8289L199.828 88.488C199.374 87.2153 198.351 86.4198 196.783 86.4198C194.942 86.4198 193.578 87.5107 193.578 88.9426ZM203.825 96.1244C203.325 97.4198 202.711 97.5335 201.756 97.3062L201.415 98.488C201.552 98.5562 201.938 98.6471 202.393 98.6471C203.597 98.6471 204.461 98.0107 204.961 96.6698L208.711 86.5335H207.256L204.847 93.488H204.751L202.347 86.5335H200.893L204.131 95.3176L203.825 96.1244ZM217.892 95.4426C220.255 95.4426 221.846 93.6471 221.846 90.9426C221.846 88.2153 220.255 86.4198 217.892 86.4198C215.528 86.4198 213.937 88.2153 213.937 90.9426C213.937 93.6471 215.528 95.4426 217.892 95.4426ZM217.892 94.238C216.096 94.238 215.278 92.6926 215.278 90.9426C215.278 89.1926 216.096 87.6244 217.892 87.6244C219.687 87.6244 220.505 89.1926 220.505 90.9426C220.505 92.6926 219.687 94.238 217.892 94.238ZM224.19 95.2607H225.531V87.7835H227.486V86.5335H225.531V86.0335C225.531 85.1698 225.895 84.7153 226.781 84.7153C227.168 84.7153 227.395 84.8062 227.531 84.8517L227.918 83.6926C227.713 83.6017 227.304 83.4653 226.645 83.4653C225.395 83.4653 224.19 84.2153 224.19 85.7153V86.5335H222.781V87.7835H224.19V95.2607ZM235.45 96.1244C234.95 97.4198 234.336 97.5335 233.381 97.3062L233.04 98.488C233.177 98.5562 233.563 98.6471 234.018 98.6471C235.222 98.6471 236.086 98.0107 236.586 96.6698L240.336 86.5335H238.881L236.472 93.488H236.376L233.972 86.5335H232.518L235.756 95.3176L235.45 96.1244ZM245.061 95.4426C247.424 95.4426 249.015 93.6471 249.015 90.9426C249.015 88.2153 247.424 86.4198 245.061 86.4198C242.697 86.4198 241.106 88.2153 241.106 90.9426C241.106 93.6471 242.697 95.4426 245.061 95.4426ZM245.061 94.238C243.265 94.238 242.447 92.6926 242.447 90.9426C242.447 89.1926 243.265 87.6244 245.061 87.6244C246.856 87.6244 247.674 89.1926 247.674 90.9426C247.674 92.6926 246.856 94.238 245.061 94.238ZM256.175 91.8062C256.175 93.4426 254.925 94.0789 253.925 94.0789C252.811 94.0789 252.015 93.3517 252.015 92.0789V86.5335H250.675V92.0789C250.675 94.3744 252.22 95.3744 253.493 95.3744C254.811 95.3744 255.652 94.6926 256.084 94.0335H256.175V95.2607H257.515V86.5335H256.175V91.8062ZM264.496 86.7153C264.223 86.5562 263.791 86.3971 263.337 86.3971C262.314 86.3971 261.359 87.1926 261.109 88.0335H261.019V86.5335H259.678V95.2607H261.019V90.3289C261.041 89.1471 261.859 87.7835 263.291 87.7835C263.678 87.7835 263.905 87.8971 264.041 87.9653L264.496 86.7153ZM276.708 89.1471C276.481 87.5107 275.094 86.4198 273.253 86.4198C270.89 86.4198 269.322 88.2835 269.322 90.8971C269.322 93.5789 270.844 95.4426 273.276 95.4426C275.208 95.4426 276.481 94.2607 276.708 92.7153H275.367C275.117 93.6698 274.322 94.238 273.276 94.238C271.685 94.238 270.663 92.9198 270.663 90.8971C270.663 88.9198 271.708 87.6244 273.276 87.6244C274.458 87.6244 275.163 88.3517 275.367 89.1471H276.708ZM281.936 95.4426C284.299 95.4426 285.89 93.6471 285.89 90.9426C285.89 88.2153 284.299 86.4198 281.936 86.4198C279.572 86.4198 277.981 88.2153 277.981 90.9426C277.981 93.6471 279.572 95.4426 281.936 95.4426ZM281.936 94.238C280.14 94.238 279.322 92.6926 279.322 90.9426C279.322 89.1926 280.14 87.6244 281.936 87.6244C283.731 87.6244 284.549 89.1926 284.549 90.9426C284.549 92.6926 283.731 94.238 281.936 94.238ZM293.939 89.7835C293.939 88.5562 294.621 87.7153 295.802 87.7153C296.53 87.7153 297.507 88.1471 297.507 89.5107V95.2607H298.848V89.5562C298.848 87.4198 297.666 86.4198 296.211 86.4198C294.939 86.4198 293.939 87.2607 293.689 87.988H293.598C293.211 87.1244 292.439 86.4198 291.348 86.4198C290.234 86.4198 289.325 87.2607 289.075 88.0107H288.984V86.5335H287.643V95.2607H288.984V90.0562C288.984 88.6244 289.961 87.7153 290.984 87.7153C291.961 87.7153 292.575 88.238 292.575 89.5562V95.2607H293.939V89.7835ZM301.006 98.5335H302.347V93.9198H302.46C302.756 94.3971 303.324 95.4426 305.006 95.4426C307.188 95.4426 308.71 93.6926 308.71 90.9198C308.71 88.1698 307.188 86.4198 304.983 86.4198C303.279 86.4198 302.756 87.4653 302.46 87.9198H302.301V86.5335H301.006V98.5335ZM307.369 90.8971C307.369 92.7607 306.506 94.238 304.824 94.238C303.21 94.238 302.324 92.8744 302.324 90.8971C302.324 88.9426 303.188 87.6244 304.824 87.6244C306.529 87.6244 307.369 89.0562 307.369 90.8971ZM315.689 95.2607H317.03V89.5107C317.03 86.738 314.917 86.4198 313.803 86.4198C312.485 86.4198 310.985 86.8744 310.303 88.4653L311.576 88.9198C311.871 88.2835 312.576 87.6017 313.871 87.6017C314.917 87.6017 315.689 88.0562 315.689 89.5107V89.5335C315.689 90.1017 314.644 90.0562 313.439 90.2153C311.803 90.4198 310.053 90.8062 310.053 92.7835C310.053 94.488 311.371 95.4653 313.03 95.4653C314.553 95.4653 315.348 94.6471 315.621 94.0789H315.689V95.2607ZM315.689 92.1017C315.689 93.1926 314.826 94.2607 313.235 94.2607C312.167 94.2607 311.394 93.7835 311.394 92.8517C311.394 91.8289 312.326 91.5107 313.371 91.3744C313.939 91.3062 315.462 91.1471 315.689 90.8744V92.1017ZM320.54 90.1017C320.54 88.4653 321.79 87.7153 322.79 87.7153C323.904 87.7153 324.7 88.5335 324.7 89.8062V95.2607H326.04V89.7153C326.04 87.488 324.859 86.4198 323.222 86.4198C321.904 86.4198 321.04 87.1244 320.631 88.0107H320.54V86.5335H319.2V95.2607H320.54V90.1017ZM329.968 96.1244C329.468 97.4198 328.855 97.5335 327.9 97.3062L327.559 98.488C327.696 98.5562 328.082 98.6471 328.536 98.6471C329.741 98.6471 330.605 98.0107 331.105 96.6698L334.855 86.5335H333.4L330.991 93.488H330.894L328.491 86.5335H327.036L330.275 95.3176L329.968 96.1244Z" fill="#B8DEFF"/>
<path d="M337.308 95.4198C337.876 95.4198 338.331 94.9653 338.331 94.3971C338.331 93.8517 337.876 93.3971 337.308 93.3971C336.763 93.3971 336.285 93.8289 336.285 94.3971C336.285 94.9653 336.74 95.4198 337.308 95.4198Z" fill="white"/>
<path d="M53.1647 43.6089H56.3288V38.3482H61.4872V43.6089H64.6448V30.518H61.4872V35.7722H56.3288V30.518H53.1647V43.6089ZM71.0574 43.7943C73.6334 43.7943 75.3273 42.5478 75.6852 40.6174L72.8152 40.5343C72.5787 41.1863 71.9331 41.5379 71.1213 41.5379C69.9132 41.5379 69.1781 40.7389 69.1781 39.5372V39.4541H75.7172V38.6742C75.7172 35.4399 73.7485 33.6629 70.9679 33.6629C68.002 33.6629 66.0908 35.6955 66.0908 38.7381C66.0908 41.883 67.9764 43.7943 71.0574 43.7943ZM69.1781 37.6387C69.2165 36.6607 69.9963 35.9193 71.0254 35.9193C72.0546 35.9193 72.796 36.6352 72.8152 37.6387H69.1781ZM80.2889 30.518H77.1632V43.6089H80.2889V30.518ZM85.2041 30.518H82.0784V43.6089H85.2041V30.518ZM91.6151 43.7943C94.7088 43.7943 96.5753 41.7552 96.5753 38.7318C96.5753 35.7019 94.7088 33.6629 91.6151 33.6629C88.5277 33.6629 86.6548 35.7019 86.6548 38.7318C86.6548 41.7552 88.5277 43.7943 91.6151 43.7943ZM91.6406 41.4356C90.4773 41.4356 89.8445 40.3362 89.8445 38.7126C89.8445 37.0826 90.4773 35.9768 91.6406 35.9768C92.7592 35.9768 93.3921 37.0826 93.3921 38.7126C93.3921 40.3362 92.7592 41.4356 91.6406 41.4356ZM101.701 30.518H98.4863L98.7803 39.6011H101.407L101.701 30.518ZM100.091 43.7751C101.011 43.7751 101.753 43.0847 101.753 42.241C101.753 41.3908 101.011 40.7069 100.091 40.7069C99.1766 40.7069 98.4351 41.3908 98.4351 42.241C98.4351 43.0847 99.1766 43.7751 100.091 43.7751Z" fill="white"/>
</g>
<defs>
<filter id="filter0_d" x="21.44" y="110.813" width="405.12" height="265.512" filterUnits="userSpaceOnUse" color-interpolation-filters="sRGB">
<feFlood flood-opacity="0" result="BackgroundImageFix"/>
<feColorMatrix in="SourceAlpha" type="matrix" values="0 0 0 0 0 0 0 0 0 0 0 0 0 0 0 0 0 0 127 0"/>
<feOffset dy="24"/>
<feGaussianBlur stdDeviation="16"/>
<feColorMatrix type="matrix" values="0 0 0 0 0.0768 0 0 0 0 0.07808 0 0 0 0 0.08 0 0 0 0.12 0"/>
<feBlend mode="normal" in2="BackgroundImageFix" result="effect1_dropShadow"/>
<feBlend mode="normal" in="SourceGraphic" in2="effect1_dropShadow" result="shape"/>
</filter>
<filter id="filter1_d" x="17.28" y="79.2588" width="413.44" height="270.427" filterUnits="userSpaceOnUse" color-interpolation-filters="sRGB">
<feFlood flood-opacity="0" result="BackgroundImageFix"/>
<feColorMatrix in="SourceAlpha" type="matrix" values="0 0 0 0 0 0 0 0 0 0 0 0 0 0 0 0 0 0 127 0"/>
<feOffset dy="24"/>
<feGaussianBlur stdDeviation="16"/>
<feColorMatrix type="matrix" values="0 0 0 0 0.0768 0 0 0 0 0.07808 0 0 0 0 0.08 0 0 0 0.12 0"/>
<feBlend mode="normal" in2="BackgroundImageFix" result="effect1_dropShadow"/>
<feBlend mode="normal" in="SourceGraphic" in2="effect1_dropShadow" result="shape"/>
</filter>
<filter id="filter2_d" x="8.95996" y="41.021" width="430.08" height="280.257" filterUnits="userSpaceOnUse" color-interpolation-filters="sRGB">
<feFlood flood-opacity="0" result="BackgroundImageFix"/>
<feColorMatrix in="SourceAlpha" type="matrix" values="0 0 0 0 0 0 0 0 0 0 0 0 0 0 0 0 0 0 127 0"/>
<feOffset dy="24"/>
<feGaussianBlur stdDeviation="16"/>
<feColorMatrix type="matrix" values="0 0 0 0 0.0768 0 0 0 0 0.07808 0 0 0 0 0.08 0 0 0 0.12 0"/>
<feBlend mode="normal" in2="BackgroundImageFix" result="effect1_dropShadow"/>
<feBlend mode="normal" in="SourceGraphic" in2="effect1_dropShadow" result="shape"/>
</filter>
<filter id="filter3_d" x="0.640015" y="0.521973" width="446.72" height="290.087" filterUnits="userSpaceOnUse" color-interpolation-filters="sRGB">
<feFlood flood-opacity="0" result="BackgroundImageFix"/>
<feColorMatrix in="SourceAlpha" type="matrix" values="0 0 0 0 0 0 0 0 0 0 0 0 0 0 0 0 0 0 127 0"/>
<feOffset dy="24"/>
<feGaussianBlur stdDeviation="16"/>
<feColorMatrix type="matrix" values="0 0 0 0 0.0768 0 0 0 0 0.07808 0 0 0 0 0.08 0 0 0 0.12 0"/>
<feBlend mode="normal" in2="BackgroundImageFix" result="effect1_dropShadow"/>
<feBlend mode="normal" in="SourceGraphic" in2="effect1_dropShadow" result="shape"/>
</filter>
<linearGradient id="paint0_linear" x1="16" y1="4" x2="171.655" y2="328.463" gradientUnits="userSpaceOnUse">
<stop stop-color="#145ECC"/>
<stop offset="1" stop-color="#66A3FF"/>
</linearGradient>
</defs>
</svg>
