<svg width="1088" height="400" viewBox="0 0 1088 400" fill="none" xmlns="http://www.w3.org/2000/svg">
<rect width="1088" height="400" fill="white"/>
<mask id="mask0" mask-type="alpha" maskUnits="userSpaceOnUse" x="0" y="0" width="1088" height="400">
<rect width="1088" height="400" rx="24" fill="url(#paint0_linear)"/>
<rect width="1088" height="400" rx="24" fill="white"/>
</mask>
<g mask="url(#mask0)">
<path d="M1088 0H0V400H1088V0Z" fill="url(#paint1_linear)"/>
<path d="M232.829 163.033L470.907 400.532H611.32L288.011 61.449L232.829 163.033Z" fill="url(#paint2_linear)"/>
<path d="M134.282 335.2L193.785 398.924H406.031L239.296 233.536L134.282 335.2Z" fill="url(#paint3_linear)"/>
<path d="M75.147 247.201L227.79 399.079H440.035L220.432 188.219L75.147 247.201Z" fill="url(#paint4_linear)"/>
<path d="M946.707 198.949L1088.12 341.184L1088 243.493L993.543 154.381L946.707 198.949Z" fill="url(#paint5_linear)"/>
<path d="M888.556 106.12L1087.88 282.721V171.702L935.949 51.4871L888.556 106.12Z" fill="url(#paint6_linear)"/>
<path d="M1087.88 360.398L877.829 153.042L790.465 312.471L877.129 398.924H1087.88V360.398Z" fill="url(#paint7_linear)"/>
<path d="M1087.88 384.337L939.593 239.798L878.01 312.471L964.676 398.924H1087.88V384.337Z" fill="url(#paint8_linear)"/>
<path d="M457.882 312.471L544.548 398.924H817.94L626.911 208.711L457.882 312.471Z" fill="url(#paint9_linear)"/>
<path d="M630.481 309.98C630.481 314.859 626.513 318.816 621.622 318.816H466.378C461.485 318.816 457.52 314.859 457.52 309.98V215.787C457.52 210.906 461.486 206.95 466.378 206.95H621.619C626.513 206.95 630.477 210.908 630.477 215.787V309.98H630.481Z" fill="#DCE0E6"/>
<path d="M650.477 146.355C650.477 143.485 646.509 141.158 641.618 141.158H446.382C441.489 141.158 437.524 143.485 437.524 146.355L457.52 201.75C457.52 204.621 461.486 206.948 466.378 206.948H621.619C626.513 206.948 630.477 204.621 630.477 201.75L650.477 146.355Z" fill="#BCC3CC"/>
<path d="M638.864 152.236C638.864 149.973 635.33 148.139 630.969 148.139H457.03C452.672 148.139 449.136 149.973 449.136 152.236L466.949 195.904C466.949 198.167 470.483 200.001 474.843 200.001H613.155C617.512 200.001 621.049 198.167 621.049 195.904L638.864 152.236Z" fill="white"/>
<path d="M563.496 282.781H524.505V310.707H563.496V282.781Z" fill="#BCC3CC"/>
<path d="M480.97 221.691H472.391V227.837H480.97V221.691Z" fill="#BCC3CC"/>
<path d="M492.191 221.691H483.61V227.837H492.191V221.691Z" fill="#BCC3CC"/>
<path d="M503.409 221.691H494.829V227.837H503.409V221.691Z" fill="#BCC3CC"/>
<path d="M514.63 221.691H506.05V227.837H514.63V221.691Z" fill="#BCC3CC"/>
<path d="M525.851 221.691H517.271V227.837H525.851V221.691Z" fill="#BCC3CC"/>
<path d="M537.07 221.691H528.49V227.837H537.07V221.691Z" fill="#BCC3CC"/>
<path d="M548.288 221.691H539.71V227.837H548.288V221.691Z" fill="#BCC3CC"/>
<path d="M559.51 221.691H550.93V227.837H559.51V221.691Z" fill="#BCC3CC"/>
<path d="M570.729 221.691H562.15V227.837H570.729V221.691Z" fill="#BCC3CC"/>
<path d="M581.947 221.691H573.367V227.837H581.947V221.691Z" fill="#BCC3CC"/>
<path d="M593.17 221.691H584.59V227.837H593.17V221.691Z" fill="#BCC3CC"/>
<path d="M604.388 221.691H595.808V227.837H604.388V221.691Z" fill="#BCC3CC"/>
<path d="M615.61 221.691H607.03V227.837H615.61V221.691Z" fill="#BCC3CC"/>
<path d="M480.97 230.471H472.391V236.617H480.97V230.471Z" fill="#BCC3CC"/>
<path d="M492.191 230.471H483.61V236.617H492.191V230.471Z" fill="#BCC3CC"/>
<path d="M503.409 230.471H494.829V236.617H503.409V230.471Z" fill="#BCC3CC"/>
<path d="M514.63 230.471H506.05V236.617H514.63V230.471Z" fill="#BCC3CC"/>
<path d="M525.851 230.471H517.271V236.617H525.851V230.471Z" fill="#BCC3CC"/>
<path d="M537.07 230.471H528.49V236.617H537.07V230.471Z" fill="#BCC3CC"/>
<path d="M548.288 230.471H539.71V236.617H548.288V230.471Z" fill="#BCC3CC"/>
<path d="M559.51 230.471H550.93V236.617H559.51V230.471Z" fill="#BCC3CC"/>
<path d="M570.729 230.471H562.15V236.617H570.729V230.471Z" fill="#BCC3CC"/>
<path d="M581.947 230.471H573.367V236.617H581.947V230.471Z" fill="#BCC3CC"/>
<path d="M593.17 230.471H584.59V236.617H593.17V230.471Z" fill="#BCC3CC"/>
<path d="M604.388 230.471H595.808V236.617H604.388V230.471Z" fill="#BCC3CC"/>
<path d="M615.61 230.471H607.03V236.617H615.61V230.471Z" fill="#BCC3CC"/>
<path d="M480.97 239.25H472.391V245.395H480.97V239.25Z" fill="#BCC3CC"/>
<path d="M492.191 239.25H483.61V245.395H492.191V239.25Z" fill="#BCC3CC"/>
<path d="M503.409 239.25H494.829V245.395H503.409V239.25Z" fill="#BCC3CC"/>
<path d="M514.63 239.25H506.05V245.395H514.63V239.25Z" fill="#BCC3CC"/>
<path d="M525.851 239.25H517.271V245.395H525.851V239.25Z" fill="#BCC3CC"/>
<path d="M537.07 239.25H528.49V245.395H537.07V239.25Z" fill="#BCC3CC"/>
<path d="M548.288 239.25H539.71V245.395H548.288V239.25Z" fill="#BCC3CC"/>
<path d="M559.51 239.25H550.93V245.395H559.51V239.25Z" fill="#BCC3CC"/>
<path d="M570.729 239.25H562.15V245.395H570.729V239.25Z" fill="#BCC3CC"/>
<path d="M581.947 239.25H573.367V245.395H581.947V239.25Z" fill="#BCC3CC"/>
<path d="M593.17 239.25H584.59V245.395H593.17V239.25Z" fill="#BCC3CC"/>
<path d="M604.388 239.25H595.808V245.395H604.388V239.25Z" fill="#BCC3CC"/>
<path d="M480.97 248.027H472.391V254.172H480.97V248.027Z" fill="#BCC3CC"/>
<path d="M492.191 248.027H483.61V254.172H492.191V248.027Z" fill="#BCC3CC"/>
<path d="M503.409 248.027H494.829V254.172H503.409V248.027Z" fill="#BCC3CC"/>
<path d="M514.63 248.027H506.05V254.172H514.63V248.027Z" fill="#BCC3CC"/>
<path d="M525.851 248.027H517.271V254.172H525.851V248.027Z" fill="#BCC3CC"/>
<path d="M537.07 248.027H528.49V254.172H537.07V248.027Z" fill="#BCC3CC"/>
<path d="M548.288 248.027H539.71V254.172H548.288V248.027Z" fill="#BCC3CC"/>
<path d="M559.51 248.027H550.93V254.172H559.51V248.027Z" fill="#BCC3CC"/>
<path d="M570.729 248.027H562.15V254.172H570.729V248.027Z" fill="#BCC3CC"/>
<path d="M581.947 248.027H573.367V254.172H581.947V248.027Z" fill="#BCC3CC"/>
<path d="M593.17 248.027H584.59V254.172H593.17V248.027Z" fill="#BCC3CC"/>
<path d="M604.388 248.027H595.808V254.172H604.388V248.027Z" fill="#BCC3CC"/>
<path d="M616 239H607V254H616V239Z" fill="#BCC3CC"/>
<path d="M492.19 256.807H472.391V262.953H492.19V256.807Z" fill="#BCC3CC"/>
<path d="M492.191 256.807H483.61V262.953H492.191V256.807Z" fill="#BCC3CC"/>
<path d="M503.409 256.807H494.829V262.953H503.409V256.807Z" fill="#BCC3CC"/>
<path d="M514.63 256.807H506.05V262.953H514.63V256.807Z" fill="#BCC3CC"/>
<path d="M525.851 256.807H517.271V262.953H525.851V256.807Z" fill="#BCC3CC"/>
<path d="M537.07 256.807H528.49V262.953H537.07V256.807Z" fill="#BCC3CC"/>
<path d="M548.288 256.807H539.71V262.953H548.288V256.807Z" fill="#BCC3CC"/>
<path d="M559.51 256.807H550.93V262.953H559.51V256.807Z" fill="#BCC3CC"/>
<path d="M570.729 256.807H562.15V262.953H570.729V256.807Z" fill="#BCC3CC"/>
<path d="M581.947 256.807H573.367V262.953H581.947V256.807Z" fill="#BCC3CC"/>
<path d="M593.17 256.807H584.59V262.953H593.17V256.807Z" fill="#BCC3CC"/>
<path d="M604.388 256.807H595.808V262.953H604.388V256.807Z" fill="#BCC3CC"/>
<path d="M615.61 256.807H595.808V262.953H615.61V256.807Z" fill="#BCC3CC"/>
<path d="M480.97 265.585H472.391V271.731H480.97V265.585Z" fill="#BCC3CC"/>
<path d="M492.191 265.585H483.61V271.731H492.191V265.585Z" fill="#BCC3CC"/>
<path d="M503.409 265.585H494.829V271.731H503.409V265.585Z" fill="#BCC3CC"/>
<path d="M514.63 265.585H506.05V271.731H514.63V265.585Z" fill="#BCC3CC"/>
<path d="M525.851 265.585H517.271V271.731H525.851V265.585Z" fill="#BCC3CC"/>
<path d="M537.07 265.585H528.49V271.731H537.07V265.585Z" fill="#BCC3CC"/>
<path d="M548.288 265.585H539.71V271.731H548.288V265.585Z" fill="#BCC3CC"/>
<path d="M559.51 265.585H550.93V271.731H559.51V265.585Z" fill="#BCC3CC"/>
<path d="M581.948 265.585H506.05V271.731H581.948V265.585Z" fill="#BCC3CC"/>
<path d="M581.947 265.585H573.367V271.731H581.947V265.585Z" fill="#BCC3CC"/>
<path d="M593.17 265.585H584.59V271.731H593.17V265.585Z" fill="#BCC3CC"/>
<path d="M604.388 265.585H595.808V271.731H604.388V265.585Z" fill="#BCC3CC"/>
<path d="M615.61 265.585H607.03V271.731H615.61V265.585Z" fill="#BCC3CC"/>
<path d="M615.13 181C616.945 178.472 618 175.471 618 172.25C618 168.365 616.47 164.801 613.917 162L608 167.262C609.078 168.686 609.711 170.402 609.711 172.25C609.711 173.732 609.303 175.128 608.585 176.357L615.13 181Z" fill="#99C9FF"/>
<path d="M605.86 179.197C604.273 180.32 602.277 180.991 600.105 180.991C594.93 180.991 590.736 177.19 590.736 172.501C590.736 167.812 594.93 164.011 600.105 164.011C601.89 164.011 603.561 164.463 604.98 165.251L610.534 160.217C607.648 158.201 604.031 157 600.105 157C590.657 157 583 163.94 583 172.5C583 181.06 590.657 188 600.105 188C604.729 188 608.921 186.335 612 183.634L605.86 179.197Z" fill="#3385FF"/>
<path d="M574.13 181C575.946 178.472 577 175.471 577 172.25C577 168.365 575.469 164.801 572.916 162L567 167.262C568.077 168.686 568.711 170.402 568.711 172.25C568.711 173.732 568.302 175.128 567.586 176.357L574.13 181Z" fill="#99C9FF"/>
<path d="M565.647 179.197C564.008 180.32 561.942 180.991 559.696 180.991C554.342 180.991 550.003 177.19 550.003 172.501C550.003 167.812 554.342 164.011 559.696 164.011C561.541 164.011 563.27 164.463 564.738 165.251L570.484 160.217C567.498 158.201 563.758 157 559.696 157C549.922 157 542 163.94 542 172.5C542 181.06 549.922 188 559.696 188C564.479 188 568.816 186.335 572 183.634L565.647 179.197Z" fill="#3385FF"/>
<path d="M530.892 158.89H468.517V160.885H530.892V158.89Z" fill="#3364FF"/>
<path d="M530.892 164.542H468.517V166.537H530.892V164.542Z" fill="#3364FF"/>
<path d="M530.892 169.824H468.517V171.819H530.892V169.824Z" fill="#3364FF"/>
<path d="M530.892 176.288H468.517V178.283H530.892V176.288Z" fill="#3364FF"/>
<path d="M530.892 181.939H468.517V183.934H530.892V181.939Z" fill="#3364FF"/>
<path d="M530.892 187.222H468.517V189.217H530.892V187.222Z" fill="#3364FF"/>
<path d="M455.02 154.622L468.517 195.015H483.61L474.016 154.622H455.02Z" fill="white"/>
<path d="M984.1 152.272C988.641 150.453 993.933 152.987 995.922 157.928L1002.13 173.354C1004.11 178.295 1002.05 183.776 997.504 185.593L956.884 201.852C952.342 203.67 947.051 201.136 945.063 196.196L938.857 180.769C936.873 175.828 938.94 170.348 943.48 168.53L984.1 152.272Z" fill="#BCC3CC"/>
<path d="M953.55 199.786L942.381 172.017L981.353 156.417L992.522 184.186L953.55 199.786Z" fill="#3364FF"/>
<path d="M992.53 171.898C994.554 171.898 996.195 170.261 996.195 168.242C996.195 166.223 994.554 164.586 992.53 164.586C990.506 164.586 988.865 166.223 988.865 168.242C988.865 170.261 990.506 171.898 992.53 171.898Z" fill="#DCE0E6"/>
<path d="M964.273 193.686L954.343 169.002L955.723 168.45L965.651 193.134L964.273 193.686Z" fill="white"/>
<path d="M966.978 192.586L957.049 167.902L958.427 167.351L968.356 192.035L966.978 192.586Z" fill="white"/>
<path d="M959.878 166.78L969.807 191.464L971.185 190.91L961.256 166.226L959.878 166.78Z" fill="white"/>
<path d="M975.348 189.24L965.42 164.558L966.798 164.006L976.727 188.688L975.348 189.24Z" fill="white"/>
<path d="M978.151 188.121L968.223 163.437L969.601 162.885L979.53 187.569L978.151 188.121Z" fill="white"/>
<path d="M688.56 255.896C687.546 260.672 682.494 263.65 677.271 262.548L660.968 259.107C655.745 258.005 652.332 253.242 653.347 248.464L662.407 205.75C663.422 200.974 668.475 197.996 673.698 199.098L690 202.538C695.223 203.642 698.636 208.405 697.62 213.181L688.56 255.896Z" fill="#BCC3CC"/>
<path d="M665.935 204.109L695.278 210.302L686.585 251.283L657.241 245.09L665.935 204.109Z" fill="white"/>
<path d="M670.569 257.654C672.593 257.654 674.234 256.017 674.234 253.998C674.234 251.979 672.593 250.342 670.569 250.342C668.545 250.342 666.904 251.979 666.904 253.998C666.904 256.017 668.545 257.654 670.569 257.654Z" fill="#DCE0E6"/>
<path d="M691.145 221.864L665.065 216.359L664.759 217.808L690.839 223.313L691.145 221.864Z" fill="#86BCF2"/>
<path d="M690.549 224.751L664.468 219.247L664.162 220.696L690.243 226.2L690.549 224.751Z" fill="#86BCF2"/>
<path d="M689.973 227.74L663.892 222.236L663.585 223.687L689.667 229.191L689.973 227.74Z" fill="#86BCF2"/>
<path d="M688.662 233.571L662.583 228.067L662.277 229.516L688.356 235.02L688.662 233.571Z" fill="#86BCF2"/>
<path d="M688.106 236.501L662.021 230.999L661.715 232.448L687.8 237.951L688.106 236.501Z" fill="#86BCF2"/>
<path d="M749.399 206.951L846.695 173.571L861.677 217.029L764.381 250.41L749.399 206.951Z" fill="#3364FF"/>
<path d="M754.125 205.335L846.697 173.577L885.493 286.118L792.924 317.875L754.125 205.335Z" fill="#3364FF"/>
<path d="M755.938 204.71L846.696 173.574L885.493 286.114L794.737 317.251L755.938 204.71Z" fill="#ABCCF5"/>
<path d="M775.767 166.081L877.826 153.045L883.678 198.632L781.617 211.668L775.767 166.081Z" fill="#3364FF"/>
<path d="M780.726 165.453L877.827 153.051L892.98 271.104L795.878 283.506L780.726 165.453Z" fill="#3364FF"/>
<path d="M782.625 165.214L877.825 153.055L892.979 271.107L797.778 283.268L782.625 165.214Z" fill="#ABCCF5"/>
<path d="M218.08 76.3129L288.004 61.4419L306.659 148.74L236.738 163.611L218.08 76.3129Z" fill="#ABCCF5"/>
<path d="M225.901 74.6538L230.464 73.6838L249.112 160.982L244.548 161.952L225.901 74.6538Z" fill="#3998D8"/>
<path d="M267.907 65.716L276.463 63.897L295.12 151.194L286.564 153.014L267.907 65.716Z" fill="#3364FF"/>
<path d="M409.959 303.42C411.272 306.371 409.94 309.825 406.982 311.139L367.751 328.533C364.793 329.846 361.33 328.516 360.017 325.565L333.171 265.315C331.857 262.365 333.189 258.911 336.147 257.598L375.381 240.203C378.338 238.89 381.801 240.221 383.113 243.171L409.959 303.42Z" fill="#DCE0E6"/>
<path d="M390.681 260.154L383.112 243.171C381.799 240.22 378.337 238.891 375.38 240.203L336.146 257.598C333.189 258.911 331.856 262.364 333.17 265.315L340.736 282.298L390.681 260.154Z" fill="#BCC3CC"/>
<path d="M341.152 262.738L375.867 247.343L380.336 257.369L345.618 272.764L341.152 262.738Z" fill="white"/>
<path d="M350.222 283.094L357.53 279.854L360.778 287.145L353.47 290.384L350.222 283.094Z" fill="#BCC3CC"/>
<path d="M359.332 279.066L366.641 275.827L369.889 283.117L362.579 286.357L359.332 279.066Z" fill="#BCC3CC"/>
<path d="M368.469 275.018L375.778 271.777L379.025 279.066L371.716 282.309L368.469 275.018Z" fill="#BCC3CC"/>
<path d="M377.63 270.939L384.938 267.7L388.186 274.99L380.878 278.23L377.63 270.939Z" fill="#BCC3CC"/>
<path d="M354.257 292.232L361.566 288.991L364.814 296.282L357.506 299.521L354.257 292.232Z" fill="#BCC3CC"/>
<path d="M363.394 288.182L370.701 284.941L373.949 292.23L366.641 295.473L363.394 288.182Z" fill="#BCC3CC"/>
<path d="M372.53 284.131L379.839 280.893L383.086 288.182L375.778 291.421L372.53 284.131Z" fill="#BCC3CC"/>
<path d="M381.691 280.055L388.997 276.813L392.246 284.104L384.94 287.344L381.691 280.055Z" fill="#BCC3CC"/>
<path d="M358.317 301.346L365.626 298.105L368.872 305.396L361.564 308.636L358.317 301.346Z" fill="#BCC3CC"/>
<path d="M367.452 297.296L374.762 294.057L378.01 301.346L370.7 304.586L367.452 297.296Z" fill="#BCC3CC"/>
<path d="M376.589 293.245L383.898 290.006L387.145 297.295L379.837 300.535L376.589 293.245Z" fill="#BCC3CC"/>
<path d="M385.726 289.193L393.034 285.954L396.281 293.244L388.973 296.484L385.726 289.193Z" fill="#B7B7B7"/>
<path d="M362.377 310.459L369.686 307.221L372.934 314.509L365.626 317.75L362.377 310.459Z" fill="#BCC3CC"/>
<path d="M371.514 306.409L378.823 303.17L382.071 310.459L374.761 313.7L371.514 306.409Z" fill="#BCC3CC"/>
<path d="M380.65 302.359L387.959 299.118L391.205 306.409L383.898 309.648L380.65 302.359Z" fill="#BCC3CC"/>
<path d="M385.726 289.193L393.034 285.954L400.343 302.359L393.033 305.6L385.726 289.193Z" fill="#5FB3ED"/>
<path d="M884.664 218.889C883.834 222.011 880.623 223.868 877.495 223.038L836.003 212.034C832.872 211.206 831.013 208.006 831.846 204.885L848.824 141.163C849.656 138.043 852.865 136.186 855.993 137.015L897.486 148.017C900.614 148.846 902.476 152.047 901.644 155.168L884.664 218.889Z" fill="#DCE0E6"/>
<path d="M896.859 173.132L901.645 155.169C902.477 152.048 900.615 148.847 897.487 148.018L855.994 137.016C852.866 136.187 849.657 138.044 848.825 141.164L844.039 159.127L896.859 173.132Z" fill="#BCC3CC"/>
<path d="M856.604 144.172L893.321 153.908L890.493 164.511L853.779 154.775L856.604 144.172Z" fill="white"/>
<path d="M850.892 165.65L858.62 167.7L856.566 175.41L848.837 173.36L850.892 165.65Z" fill="#BCC3CC"/>
<path d="M860.547 168.276L868.277 170.327L866.222 178.037L858.491 175.986L860.547 168.276Z" fill="#BCC3CC"/>
<path d="M870.193 170.82L877.921 172.87L875.866 180.581L868.138 178.531L870.193 170.82Z" fill="#BCC3CC"/>
<path d="M879.854 173.384L887.581 175.433L885.528 183.143L877.799 181.093L879.854 173.384Z" fill="#BCC3CC"/>
<path d="M848.313 175.313L856.041 177.363L853.988 185.072L846.258 183.022L848.313 175.313Z" fill="#BCC3CC"/>
<path d="M857.963 177.896L865.692 179.946L863.637 187.656L855.907 185.606L857.963 177.896Z" fill="#BCC3CC"/>
<path d="M867.636 180.438L875.365 182.488L873.31 190.196L865.58 188.146L867.636 180.438Z" fill="#BCC3CC"/>
<path d="M877.378 182.978L885.11 185.026L883.055 192.737L875.324 190.689L877.378 182.978Z" fill="#BCC3CC"/>
<path d="M845.823 184.932L853.553 186.98L851.498 194.691L843.769 192.642L845.823 184.932Z" fill="#BCC3CC"/>
<path d="M855.404 187.515L863.134 189.565L861.078 197.273L853.35 195.224L855.404 187.515Z" fill="#BCC3CC"/>
<path d="M865.148 190.055L872.878 192.104L870.823 199.816L863.095 197.767L865.148 190.055Z" fill="#BCC3CC"/>
<path d="M874.717 192.659L882.446 194.709L880.392 202.419L872.661 200.369L874.717 192.659Z" fill="#B7B7B7"/>
<path d="M843.24 194.594L850.973 196.644L848.919 204.355L841.188 202.307L843.24 194.594Z" fill="#BCC3CC"/>
<path d="M852.823 197.173L860.553 199.223L858.498 206.934L850.77 204.883L852.823 197.173Z" fill="#BCC3CC"/>
<path d="M862.579 199.694L870.311 201.743L868.256 209.454L860.527 207.404L862.579 199.694Z" fill="#BCC3CC"/>
<path d="M874.764 192.671L882.492 194.723L877.865 212.07L870.137 210.02L874.764 192.671Z" fill="#5FB3ED"/>
<path d="M438.814 226.799H433.65V298.61H438.814V226.799Z" fill="#5FB3ED"/>
<path d="M441.398 273.009H438.814V298.61H441.398V273.009Z" fill="#BCC3CC"/>
<path d="M437.524 219.814H434.94L433.65 226.799H438.814L437.524 219.814Z" fill="#D1D1D1"/>
<path d="M438.814 294.794H433.65V303.096H438.814V294.794Z" fill="#BCC3CC"/>
<path d="M437.524 303.096H434.94V306.086H437.524V303.096Z" fill="#D1D1D1"/>
<path d="M750.017 104.118L753.431 107.985L699.413 155.451L696 151.583L750.017 104.118Z" fill="#3364FF"/>
<path d="M718.653 138.544L720.361 140.478L701.1 157.397L699.394 155.463L718.653 138.544Z" fill="#B7B7B7"/>
<path d="M757.829 102.404L756.122 100.469L750.015 104.117L753.43 107.985L757.829 102.404Z" fill="#D1D1D1"/>
<path d="M698.846 149.016L702.259 152.882L696.016 158.367L692.602 154.501L698.846 149.016Z" fill="#B7B7B7"/>
<path d="M693.471 155.526L695.178 157.459L692.926 159.437L691.221 157.503L693.471 155.526Z" fill="#D1D1D1"/>
<path d="M944.362 310.374C944.362 315.255 940.395 319.212 935.505 319.212H822.75C817.856 319.212 813.892 315.255 813.892 310.374V244.271C813.892 239.39 817.858 235.433 822.75 235.433H935.503C940.396 235.433 944.36 239.39 944.36 244.271L944.362 310.374Z" fill="#BCC3CC"/>
<path d="M937.53 305.602C937.53 309.78 933.979 313.165 929.598 313.165H828.654C824.274 313.165 820.722 309.78 820.722 305.602V249.045C820.722 244.868 824.274 241.482 828.654 241.482H929.6C933.979 241.482 937.531 244.868 937.531 249.045L937.53 305.602Z" fill="white"/>
<path d="M930.115 250.484H828.137V275.328H930.115V250.484Z" fill="#3364FF"/>
<path d="M879.126 279.158H828.137V304.002H879.126V279.158Z" fill="#3364FF"/>
<path d="M878.126 280.154H829.137V303.005H878.126V280.154Z" fill="white"/>
<path d="M847.385 256.798H835.138V269.016H847.385V256.798Z" fill="white"/>
<path d="M863.381 256.798H851.134V269.016H863.381V256.798Z" fill="white"/>
<path d="M880.128 256.798H867.881V269.016H880.128V256.798Z" fill="white"/>
<path d="M882.823 303.232L881.933 302.775L894.048 279.215L901.198 288.805L908.706 282.061L916.109 292.643L922.787 282.521L931.97 291.682L931.263 292.387L922.948 284.092L916.133 294.418L908.534 283.557L901.05 290.277L894.202 281.096L882.823 303.232Z" fill="#3364FF"/>
<path d="M262.023 172.38C263.441 177.052 260.451 182.089 255.341 183.633L239.395 188.451C234.287 189.994 228.996 187.459 227.578 182.788L214.889 141C213.471 136.329 216.462 131.291 221.571 129.748L237.518 124.93C242.626 123.387 247.917 125.922 249.336 130.593L262.023 172.38Z" fill="#BCC3CC"/>
<path d="M217.226 137.842L245.932 129.167L258.106 169.259L229.399 177.933L217.226 137.842Z" fill="white"/>
<path d="M245.339 183.017C247.364 183.017 249.005 181.38 249.005 179.36C249.005 177.34 247.364 175.703 245.339 175.703C243.314 175.703 241.673 177.34 241.673 179.36C241.673 181.38 243.314 183.017 245.339 183.017Z" fill="#DCE0E6"/>
<path d="M219.53 139.624L245.047 131.914L247.178 138.934L221.661 146.644L219.53 139.624Z" fill="#3364FF"/>
<path d="M227.936 167.311L253.452 159.601L255.584 166.621L230.067 174.331L227.936 167.311Z" fill="#DCE0E6"/>
<path d="M247.902 141.291L222.382 149.001L222.811 150.42L248.331 142.71L247.902 141.291Z" fill="#3364FF"/>
<path d="M248.772 144.155L223.252 151.865L223.681 153.285L249.201 145.575L248.772 144.155Z" fill="#3364FF"/>
<path d="M249.64 147.023L224.12 154.733L224.548 156.151L250.069 148.441L249.64 147.023Z" fill="#3364FF"/>
<path d="M250.511 149.878L224.993 157.587L225.421 159.004L250.939 151.296L250.511 149.878Z" fill="#3364FF"/>
<path d="M251.382 152.744L225.864 160.453L226.292 161.87L251.81 154.161L251.382 152.744Z" fill="#3364FF"/>
<path d="M252.253 155.598L226.735 163.307L227.164 164.725L252.681 157.016L252.253 155.598Z" fill="#3364FF"/>
<path d="M376.81 219.366C396.719 219.366 412.858 203.266 412.858 183.405C412.858 163.544 396.719 147.444 376.81 147.444C356.901 147.444 340.762 163.544 340.762 183.405C340.762 203.266 356.901 219.366 376.81 219.366Z" fill="#DEECFC"/>
<path d="M378.861 159.542C378.945 159.162 379.005 158.765 379.005 158.345V153.096C379.005 150.913 377.774 149.143 376.255 149.143C374.735 149.143 373.505 150.913 373.505 153.096V158.345C373.505 158.808 373.569 159.245 373.672 159.658C361.894 161.193 352.797 171.235 352.797 183.403C352.797 196.634 363.548 207.358 376.81 207.358C390.072 207.358 400.824 196.634 400.824 183.403C400.823 170.865 391.161 160.582 378.861 159.542Z" fill="#B8D3F4"/>
<path d="M376.81 204.578C388.532 204.578 398.035 195.099 398.035 183.405C398.035 171.712 388.532 162.232 376.81 162.232C365.088 162.232 355.585 171.712 355.585 183.405C355.585 195.099 365.088 204.578 376.81 204.578Z" fill="#3364FF"/>
<path d="M381.8 196.874C383.169 196.874 384.278 195.767 384.278 194.402C384.278 193.037 383.169 191.93 381.8 191.93C380.431 191.93 379.322 193.037 379.322 194.402C379.322 195.767 380.431 196.874 381.8 196.874Z" fill="white"/>
<path d="M387.552 196.875C388.598 196.875 389.446 196.027 389.446 194.981C389.446 193.935 388.598 193.087 387.552 193.087C386.506 193.087 385.658 193.935 385.658 194.981C385.658 196.027 386.506 196.875 387.552 196.875Z" fill="white"/>
<path d="M385.654 191.501C386.3 191.501 386.823 190.978 386.823 190.332C386.823 189.686 386.3 189.163 385.654 189.163C385.008 189.163 384.485 189.686 384.485 190.332C384.485 190.978 385.008 191.501 385.654 191.501Z" fill="white"/>
<path d="M363.059 183.79L349.531 189.061C347.478 190.028 346.599 192.474 347.57 194.522C348.54 196.571 350.991 197.447 353.047 196.48L365.702 189.369L363.059 183.79Z" fill="white"/>
<path d="M914.62 116.439C934.53 116.439 950.671 100.339 950.671 80.4781C950.671 60.6174 934.53 44.5171 914.62 44.5171C894.71 44.5171 878.569 60.6174 878.569 80.4781C878.569 100.339 894.71 116.439 914.62 116.439Z" fill="#DEECFC"/>
<path d="M930.429 62.4512C930.723 62.1952 931.004 61.9092 931.253 61.5712L934.363 57.3392C935.658 55.5802 935.717 53.4272 934.492 52.5302C933.269 51.6342 931.225 52.3342 929.93 54.0932L926.818 58.3242C926.545 58.6982 926.339 59.0902 926.173 59.4832C915.768 53.7682 902.478 56.4932 895.26 66.3032C887.41 76.9692 889.719 91.9622 900.408 99.7902C911.1 107.618 926.131 105.318 933.975 94.6532C941.419 84.5432 939.729 70.5502 930.429 62.4512Z" fill="#B8D3F4"/>
<path d="M914.62 101.65C926.342 101.65 935.845 92.1715 935.845 80.4791C935.845 68.7867 926.342 59.3081 914.62 59.3081C902.898 59.3081 893.395 68.7867 893.395 80.4791C893.395 92.1715 902.898 101.65 914.62 101.65Z" fill="#3364FF"/>
<path d="M912.12 94.7622C913.489 94.7622 914.599 93.655 914.599 92.2892C914.599 90.9234 913.489 89.8162 912.12 89.8162C910.751 89.8162 909.641 90.9234 909.641 92.2892C909.641 93.655 910.751 94.7622 912.12 94.7622Z" fill="white"/>
<path d="M916.414 98.0451C917.463 98.0451 918.313 97.1971 918.313 96.1511C918.313 95.105 917.463 94.2571 916.414 94.2571C915.365 94.2571 914.515 95.105 914.515 96.1511C914.515 97.1971 915.365 98.0451 916.414 98.0451Z" fill="white"/>
<path d="M917.642 92.452C918.288 92.452 918.811 91.9286 918.811 91.283C918.811 90.6374 918.288 90.114 917.642 90.114C916.996 90.114 916.473 90.6374 916.473 91.283C916.473 91.9286 916.996 92.452 917.642 92.452Z" fill="white"/>
<path d="M903.308 72.6722L889.277 68.9362C887.047 68.5032 884.887 69.9572 884.455 72.1812C884.023 74.4052 885.477 76.5582 887.708 76.9912L902.131 78.7282L903.308 72.6722Z" fill="white"/>
<path d="M194.787 276.857C193.866 279.952 190.603 281.714 187.501 280.796L77.869 248.339C74.765 247.42 72.998 244.167 73.917 241.072L98.709 157.741C99.631 154.645 102.892 152.881 105.995 153.8L215.627 186.259C218.73 187.176 220.499 190.432 219.577 193.525L194.787 276.857Z" fill="#3364FF"/>
<path d="M104.42 159.305L157.049 174.885L132.024 259.008L79.395 243.428L104.42 159.305Z" fill="white"/>
<path d="M161.231 176.128L213.861 191.708L188.836 275.831L136.206 260.251L161.231 176.128Z" fill="white"/>
<path d="M146.66 179.229L107.782 167.718L107.299 169.349L146.177 180.86L146.66 179.229Z" fill="#D1D1D1"/>
<path d="M106.067 173.46L144.94 184.968L144.455 186.599L105.582 175.091L106.067 173.46Z" fill="#D1D1D1"/>
<path d="M143.242 190.704L104.365 179.194L103.882 180.825L142.759 192.335L143.242 190.704Z" fill="#D1D1D1"/>
<path d="M141.518 196.444L102.641 184.938L102.159 186.569L141.035 198.075L141.518 196.444Z" fill="#D1D1D1"/>
<path d="M100.947 190.671L139.821 202.18L139.335 203.811L100.462 192.301L100.947 190.671Z" fill="#D1D1D1"/>
<path d="M138.123 207.915L99.2457 196.405L98.7631 198.035L137.641 209.545L138.123 207.915Z" fill="#D1D1D1"/>
<path d="M97.534 202.146L136.408 213.652L135.923 215.283L97.05 203.773L97.534 202.146Z" fill="#D1D1D1"/>
<path d="M95.825 207.882L134.699 219.391L134.214 221.02L95.34 209.514L95.825 207.882Z" fill="#D1D1D1"/>
<path d="M133.003 225.126L94.1266 213.616L93.6431 215.249L132.52 226.759L133.003 225.126Z" fill="#D1D1D1"/>
<path d="M92.412 219.355L131.286 230.864L130.801 232.494L91.927 220.986L92.412 219.355Z" fill="#D1D1D1"/>
<path d="M129.583 236.6L90.7061 225.09L90.2229 226.722L129.1 238.232L129.583 236.6Z" fill="#D1D1D1"/>
<path d="M89 230.829L127.873 242.338L127.387 243.968L88.514 232.46L89 230.829Z" fill="#D1D1D1"/>
<path d="M126.176 248.075L87.2996 236.564L86.8167 238.196L125.693 249.706L126.176 248.075Z" fill="#D1D1D1"/>
<path d="M206.46 196.935L169.078 185.868L168.596 187.498L205.978 198.566L206.46 196.935Z" fill="#D1D1D1"/>
<path d="M204.753 202.673L167.371 191.605L166.888 193.237L204.27 204.304L204.753 202.673Z" fill="#D1D1D1"/>
<path d="M165.661 197.345L203.04 208.411L202.554 210.041L165.176 198.976L165.661 197.345Z" fill="#D1D1D1"/>
<path d="M163.958 203.082L201.337 214.146L200.852 215.777L163.472 204.713L163.958 203.082Z" fill="#D1D1D1"/>
<path d="M199.635 219.883L162.252 208.815L161.769 210.446L199.152 221.514L199.635 219.883Z" fill="#D1D1D1"/>
<path d="M160.544 214.557L197.924 225.622L197.438 227.251L160.06 216.186L160.544 214.557Z" fill="#D1D1D1"/>
<path d="M196.228 231.354L158.845 220.287L158.362 221.919L195.745 232.987L196.228 231.354Z" fill="#D1D1D1"/>
<path d="M194.5 237.098L157.119 226.035L156.636 227.667L194.017 238.73L194.5 237.098Z" fill="#D1D1D1"/>
<path d="M192.816 242.829L155.434 231.761L154.952 233.392L192.333 244.459L192.816 242.829Z" fill="#D1D1D1"/>
<path d="M191.107 248.569L153.725 237.501L153.242 239.132L190.624 250.2L191.107 248.569Z" fill="#D1D1D1"/>
<path d="M152.012 243.24L189.391 254.307L188.906 255.936L151.527 244.87L152.012 243.24Z" fill="#D1D1D1"/>
<path d="M150.304 248.977L187.684 260.043L187.198 261.671L149.819 250.605L150.304 248.977Z" fill="#D1D1D1"/>
<path d="M185.966 265.781L148.585 254.718L148.101 256.35L185.483 267.413L185.966 265.781Z" fill="#D1D1D1"/>
<path d="M152.689 178.608L163.454 181.795L162.52 184.932L151.755 181.745L152.689 178.608Z" fill="#B7B7B7"/>
<path d="M150.628 185.535L161.393 188.721L160.46 191.856L149.695 188.67L150.628 185.535Z" fill="#B7B7B7"/>
<path d="M148.565 192.46L159.331 195.647L158.397 198.784L147.632 195.596L148.565 192.46Z" fill="#B7B7B7"/>
<path d="M144.15 207.302L154.916 210.489L153.982 213.624L143.217 210.438L144.15 207.302Z" fill="#B7B7B7"/>
<path d="M142.094 214.227L152.858 217.414L151.925 220.548L141.16 217.359L142.094 214.227Z" fill="#B7B7B7"/>
<path d="M140.032 221.152L150.797 224.341L149.864 227.477L139.1 224.287L140.032 221.152Z" fill="#B7B7B7"/>
<path d="M135.62 235.979L146.385 239.164L145.452 242.299L134.688 239.111L135.62 235.979Z" fill="#B7B7B7"/>
<path d="M133.558 242.911L144.323 246.1L143.39 249.232L132.625 246.047L133.558 242.911Z" fill="#B7B7B7"/>
<path d="M131.499 249.828L142.264 253.016L141.331 256.15L130.567 252.964L131.499 249.828Z" fill="#B7B7B7"/>
<path d="M258.908 296.678C260.355 301.339 257.741 306.292 253.067 307.737L145.366 341.028C140.691 342.471 135.728 339.862 134.282 335.202L114.67 272.059C113.221 267.397 115.837 262.446 120.51 261.001L228.21 227.711C232.883 226.266 237.847 228.874 239.294 233.536L258.908 296.678Z" fill="#BCC3CC"/>
<path d="M251.218 294.945C252.458 298.937 250.071 303.216 245.886 304.511L149.464 334.314C145.278 335.607 140.884 333.424 139.645 329.433L122.864 275.41C121.627 271.421 124.012 267.139 128.196 265.846L224.62 236.04C228.804 234.748 233.2 236.936 234.438 240.923L251.218 294.945Z" fill="white"/>
<path d="M157.195 296.737C163.269 296.737 168.193 291.825 168.193 285.766C168.193 279.707 163.269 274.795 157.195 274.795C151.121 274.795 146.197 279.707 146.197 285.766C146.197 291.825 151.121 296.737 157.195 296.737Z" fill="#3364FF"/>
<path d="M183.561 273.975C179.605 275.2 175.389 272.983 174.165 269.036C172.938 265.09 175.161 260.885 179.117 259.663C183.072 258.438 187.288 260.653 188.513 264.601C189.738 268.546 187.517 272.751 183.561 273.975ZM179.411 260.611C175.98 261.672 174.056 265.316 175.119 268.738C176.181 272.159 179.835 274.08 183.265 273.019C186.696 271.958 188.62 268.312 187.557 264.892C186.495 261.473 182.841 259.552 179.411 260.611Z" fill="#3364FF"/>
<path d="M202.661 268.07C198.705 269.294 194.489 267.077 193.264 263.13C192.039 259.184 194.26 254.981 198.216 253.757C202.172 252.533 206.387 254.748 207.612 258.695C208.837 262.642 206.617 266.848 202.661 268.07ZM198.51 254.709C195.08 255.77 193.156 259.414 194.218 262.836C195.281 266.257 198.935 268.178 202.364 267.118C205.795 266.056 207.718 262.411 206.656 258.991C205.595 255.568 201.939 253.648 198.51 254.709Z" fill="#3364FF"/>
<path d="M221.76 262.166C217.804 263.391 213.589 261.174 212.364 257.228C211.137 253.281 213.36 249.076 217.316 247.853C221.273 246.628 225.487 248.845 226.712 252.792C227.939 256.739 225.717 260.941 221.76 262.166ZM217.611 248.805C214.18 249.868 212.257 253.512 213.319 256.932C214.382 260.354 218.037 262.274 221.465 261.214C224.896 260.154 226.819 256.507 225.757 253.087C224.695 249.666 221.04 247.745 217.611 248.805Z" fill="#3364FF"/>
<path d="M189.142 291.943C185.186 293.168 180.971 290.951 179.746 287.005C178.519 283.06 180.742 278.855 184.697 277.63C188.653 276.406 192.869 278.623 194.093 282.569C195.321 286.518 193.098 290.723 189.142 291.943ZM184.994 278.583C181.562 279.643 179.639 283.289 180.702 286.71C181.765 290.132 185.419 292.053 188.848 290.992C192.278 289.931 194.203 286.285 193.14 282.866C192.077 279.443 188.423 277.523 184.994 278.583Z" fill="#3364FF"/>
<path d="M208.242 286.042C204.286 287.266 200.07 285.049 198.845 281.102C197.618 277.157 199.84 272.952 203.796 271.729C207.753 270.505 211.968 272.721 213.193 276.668C214.42 280.614 212.199 284.818 208.242 286.042ZM204.092 272.68C200.663 273.743 198.738 277.387 199.8 280.807C200.863 284.229 204.517 286.149 207.946 285.088C211.375 284.027 213.3 280.383 212.238 276.962C211.177 273.54 207.522 271.619 204.092 272.68Z" fill="#3364FF"/>
<path d="M227.342 280.139C223.386 281.362 219.17 279.145 217.945 275.2C216.72 271.255 218.941 267.05 222.897 265.826C226.853 264.602 231.069 266.819 232.294 270.766C233.52 274.711 231.298 278.914 227.342 280.139ZM223.193 266.775C219.763 267.837 217.839 271.482 218.901 274.9C219.964 278.324 223.619 280.244 227.047 279.185C230.476 278.123 232.401 274.478 231.339 271.058C230.277 267.636 226.622 265.717 223.193 266.775Z" fill="#3364FF"/>
<path d="M194.968 310.697C191.011 311.919 186.797 309.704 185.572 305.757C184.345 301.813 186.567 297.606 190.523 296.384C194.479 295.16 198.695 297.376 199.92 301.322C201.145 305.27 198.924 309.475 194.968 310.697ZM190.817 297.335C187.388 298.397 185.463 302.042 186.525 305.462C187.588 308.884 191.244 310.805 194.672 309.744C198.102 308.683 200.026 305.038 198.964 301.618C197.902 298.195 194.247 296.273 190.817 297.335Z" fill="#3364FF"/>
<path d="M176.667 316.354C172.711 317.579 168.495 315.362 167.269 311.416C166.044 307.471 168.265 303.264 172.221 302.041C176.177 300.818 180.393 303.035 181.619 306.98C182.844 310.927 180.623 315.133 176.667 316.354ZM172.516 302.993C169.087 304.055 167.162 307.699 168.224 311.12C169.287 314.54 172.941 316.461 176.37 315.4C179.799 314.34 181.724 310.695 180.662 307.273C179.601 303.854 175.945 301.934 172.516 302.993Z" fill="#3364FF"/>
<path d="M157.065 322.412C153.109 323.636 148.894 321.42 147.669 317.473C146.442 313.528 148.665 309.324 152.621 308.1C156.577 306.876 160.792 309.092 162.017 313.038C163.243 316.984 161.021 321.189 157.065 322.412ZM152.915 309.051C149.483 310.112 147.56 313.757 148.623 317.178C149.685 320.6 153.339 322.52 156.769 321.46C160.199 320.398 162.124 316.753 161.061 313.334C159.999 309.912 156.344 307.991 152.915 309.051Z" fill="#3364FF"/>
<path d="M214.068 304.793C210.112 306.018 205.896 303.801 204.672 299.854C203.446 295.909 205.668 291.703 209.624 290.481C213.58 289.256 217.795 291.473 219.02 295.419C220.245 299.365 218.024 303.57 214.068 304.793ZM209.917 291.432C206.486 292.493 204.562 296.139 205.625 299.559C206.687 302.979 210.342 304.901 213.771 303.84C217.203 302.78 219.126 299.134 218.064 295.714C217.002 292.293 213.346 290.37 209.917 291.432Z" fill="#3364FF"/>
<path d="M233.167 298.889C229.211 300.114 224.996 297.897 223.771 293.951C222.546 290.005 224.766 285.801 228.721 284.577C232.677 283.354 236.894 285.569 238.119 289.516C239.344 293.462 237.123 297.666 233.167 298.889ZM229.016 285.527C225.586 286.588 223.662 290.234 224.724 293.654C225.787 297.076 229.442 298.996 232.87 297.935C236.298 296.874 238.224 293.228 237.162 289.81C236.102 286.389 232.447 284.468 229.016 285.527Z" fill="#3364FF"/>
<path d="M206.02 282.466C208.003 282.466 209.61 280.863 209.61 278.885C209.61 276.907 208.003 275.304 206.02 275.304C204.037 275.304 202.43 276.907 202.43 278.885C202.43 280.863 204.037 282.466 206.02 282.466Z" fill="#3364FF"/>
<path d="M192.943 307.225C194.926 307.225 196.533 305.622 196.533 303.645C196.533 301.668 194.926 300.065 192.943 300.065C190.96 300.065 189.353 301.668 189.353 303.645C189.353 305.622 190.96 307.225 192.943 307.225Z" fill="#3364FF"/>
<path d="M219.538 258.59C221.52 258.59 223.127 256.987 223.127 255.009C223.127 253.031 221.52 251.428 219.538 251.428C217.556 251.428 215.949 253.031 215.949 255.009C215.949 256.987 217.556 258.59 219.538 258.59Z" fill="#3364FF"/>
<path d="M154.888 318.986C156.87 318.986 158.477 317.383 158.477 315.406C158.477 313.429 156.87 311.826 154.888 311.826C152.906 311.826 151.299 313.429 151.299 315.406C151.299 317.383 152.906 318.986 154.888 318.986Z" fill="#3364FF"/>
<path d="M107.332 229.624L102.874 232.225L66.529 170.239L70.988 167.638L107.332 229.624Z" fill="#5FB3ED"/>
<path d="M79.491 192.343L77.262 193.644L64.303 171.549L66.532 170.248L79.491 192.343Z" fill="#B7B7B7"/>
<path d="M107.524 237.609L109.754 236.309L107.331 229.632L102.873 232.232L107.524 237.609Z" fill="#D1D1D1"/>
<path d="M72.915 170.945L68.457 173.547L64.255 166.383L68.713 163.781L72.915 170.945Z" fill="#B7B7B7"/>
<path d="M67.597 164.423L65.367 165.725L63.853 163.142L66.083 161.841L67.597 164.423Z" fill="#D1D1D1"/>
<path d="M65.986 174.31C67.322 175.596 67.748 177.526 66.732 179.351C65.993 180.676 64.927 181.857 63.853 182.955C62.644 184.189 61.18 185.18 59.997 186.434C59.515 186.948 59.07 188.104 59.33 188.562C59.693 189.212 60.713 189.818 61.478 189.851C62.872 189.907 64.322 189.679 65.672 189.304C74.103 186.967 82.507 184.545 90.933 182.179C92.156 181.837 93.423 181.507 94.686 181.453C97.218 181.34 98.8 182.678 99.384 185.161C99.898 187.349 99.055 189.129 96.681 190.047C93.654 191.218 90.535 192.153 87.443 193.159C83.743 194.363 80.025 195.525 76.321 196.721C75.799 196.889 75.301 197.145 74.796 197.363C74.858 197.517 74.917 197.673 74.981 197.825C75.454 197.727 75.93 197.647 76.396 197.526C80.935 196.353 80.474 196.429 85.011 195.254C92.584 193.884 92.959 203.483 85.585 205.059C82.358 205.747 82.428 206.01 79.252 206.912C78.801 207.038 78.363 207.218 77.921 207.371C77.94 207.504 77.959 207.642 77.978 207.776C78.411 207.757 78.857 207.809 79.275 207.714C82.592 206.964 81.652 207.52 84.97 206.764C91.799 204.583 96.629 214.02 79.987 217.118C79.585 217.191 79.219 217.421 78.839 217.577C78.872 217.698 78.905 217.818 78.942 217.941C79.264 217.92 79.593 217.931 79.909 217.869C81.22 217.599 80.282 217.745 81.592 217.473C86.361 217.001 86.985 223.99 82.56 225.459C78.565 226.787 74.506 227.927 70.486 229.176C65.325 230.78 60.168 232.447 54.705 232.637C45.929 232.942 42.761 228.991 42.761 228.991C28.333 213.417 32.747 203.456 34.428 198.665C36.409 193.022 40.525 188.82 45.514 185.371C49.976 182.288 54.081 178.687 58.368 175.345C59.156 174.731 60.015 174.183 60.904 173.726C62.787 172.758 64.628 173.007 65.986 174.31Z" fill="white"/>
<path d="M0.121002 244.025L55.208 223.811L48.13 198.758L0.121002 212.259V244.025Z" fill="white"/>
<path d="M0.121002 247.326L25.085 239.225L16.631 205.68L0.121002 210.139V247.326Z" fill="#5DA4F9"/>
<path d="M0.121002 247.326L25.085 239.225L19.352 216.479L0.121002 221.885V247.326Z" fill="#ABCCF5"/>
<path d="M288.868 399.471L239.824 332.104L217.585 345.717L250.65 399.471H288.868Z" fill="white"/>
<path d="M291.523 399.471L262.89 356.825L232.835 374.066L248.098 399.471H291.523Z" fill="#5DA4F9"/>
<path d="M189.143 335.229C190.02 333.594 191.767 332.664 193.802 333.141C195.281 333.494 196.711 334.192 198.061 334.924C199.582 335.75 200.936 336.884 202.467 337.68C203.094 338.003 204.33 338.116 204.702 337.743C205.227 337.218 205.537 336.072 205.36 335.33C205.036 333.976 204.422 332.646 203.693 331.451C199.143 323.995 194.519 316.585 189.946 309.14C189.283 308.06 188.621 306.933 188.224 305.736C187.425 303.337 188.287 301.455 190.522 300.216C192.493 299.127 194.439 299.451 195.97 301.482C197.923 304.07 199.675 306.808 201.486 309.503C203.654 312.728 205.788 315.98 207.948 319.209C208.252 319.664 208.635 320.071 208.982 320.498C209.115 320.397 209.249 320.3 209.378 320.196C209.154 319.768 208.947 319.335 208.704 318.92C206.337 314.882 206.537 315.306 204.168 311.269C200.787 304.373 209.942 301.4 213.468 308.049C215.01 310.958 215.247 310.82 216.98 313.623C217.224 314.022 217.514 314.392 217.785 314.776C217.91 314.721 218.034 314.668 218.161 314.612C218.026 314.201 217.955 313.758 217.75 313.382C216.125 310.403 216.915 311.155 215.284 308.176C211.323 302.213 219.11 295.01 226.626 310.142C226.808 310.507 227.127 310.796 227.381 311.121C227.49 311.057 227.597 310.988 227.706 310.923C227.596 310.62 227.519 310.3 227.372 310.016C226.754 308.831 227.15 309.692 226.533 308.507C224.779 304.059 231.348 301.561 233.971 305.406C236.34 308.879 238.543 312.464 240.842 315.982C243.793 320.501 246.804 324.999 248.474 330.191C251.155 338.531 248.206 342.646 248.206 342.646C237.108 360.734 226.299 359.209 221.219 358.898C215.238 358.531 210.065 355.724 205.379 351.875C201.191 348.43 196.601 345.468 192.211 342.264C191.403 341.674 190.642 340.998 189.96 340.272C188.517 338.721 188.257 336.884 189.143 335.229Z" fill="white"/>
<path d="M226.184 361.895L252.813 345.594L257.318 352.917L230.689 369.217L226.184 361.895Z" fill="#3364FF"/>
<path d="M241.759 366.02C246.521 366.02 250.382 362.169 250.382 357.417C250.382 352.666 246.521 348.814 241.759 348.814C236.997 348.814 233.136 352.666 233.136 357.417C233.136 362.169 236.997 366.02 241.759 366.02Z" fill="#B7B7B7"/>
<path d="M241.759 364.215C245.523 364.215 248.575 361.172 248.575 357.417C248.575 353.663 245.523 350.619 241.759 350.619C237.995 350.619 234.943 353.663 234.943 357.417C234.943 361.172 237.995 364.215 241.759 364.215Z" fill="white"/>
<path d="M234.726 349.305L237.709 347.479L239.277 350.029L236.294 351.855L234.726 349.305Z" fill="#B7B7B7"/>
<path d="M291.523 399.471L262.89 356.825L242.509 368.518L261.548 399.471H291.523Z" fill="#3385FF"/>
<path d="M464.391 399.471L483.034 313.139L457.529 307.654L430.071 399.471H464.391Z" fill="white"/>
<path d="M466.895 399.471L478.078 344.932L443.991 338.611L428.285 399.471H466.895Z" fill="#3385FF"/>
<path d="M483.99 326.775C479.302 328.75 469.613 333.767 453.128 320.376C453.128 320.376 448.978 317.471 448.732 308.714C448.58 303.264 449.924 298.026 451.206 292.786C452.204 288.705 453.323 284.648 454.17 280.533C455.153 275.747 455.889 270.906 456.756 266.095C457.221 263.491 458.774 262.406 461.349 262.824C463.482 263.169 464.518 264.882 464.149 267.368C463.395 272.473 462.66 277.585 461.928 282.695C461.884 283.012 461.918 283.341 461.914 283.662C462.039 283.688 462.163 283.718 462.287 283.742C462.42 283.35 462.6 282.971 462.676 282.567C463.436 278.62 464.17 274.665 464.921 270.713C465.687 266.673 466.437 262.629 467.235 258.597C467.969 254.884 470.848 254.42 473.488 255.086C475.47 255.583 476.267 257.312 475.878 259.689C474.628 267.355 473.368 275.021 472.127 282.689C472.06 283.111 472.138 283.554 472.148 283.986C472.286 283.997 472.421 284.007 472.556 284.017C472.684 283.566 472.833 283.12 472.933 282.663C473.634 279.445 474.326 276.228 475.019 273.014C476.176 267.651 477.304 262.284 478.502 256.932C479.244 253.61 482.073 252.305 485.129 253.791C487.286 254.839 487.991 256.619 487.412 259.617C485.777 268.055 484.133 276.486 482.499 284.923C482.407 285.395 482.355 285.873 482.288 286.35C482.444 286.403 482.603 286.454 482.762 286.503C482.949 285.984 483.173 285.475 483.311 284.943C484.274 281.179 485.205 277.408 486.177 273.646C486.99 270.504 487.732 267.341 488.712 264.253C489.483 261.833 491.212 260.884 493.432 261.257C495.953 261.685 497.391 263.177 497.435 265.702C497.457 266.963 497.207 268.244 496.943 269.483C495.104 278.02 493.206 286.542 491.395 295.08C491.104 296.449 490.967 297.908 491.111 299.291C491.192 300.052 491.862 301.027 492.534 301.349C493.01 301.578 494.138 301.064 494.621 300.552C495.804 299.293 496.702 297.777 497.861 296.493C498.892 295.354 500.007 294.222 501.286 293.399C503.049 292.274 505.005 292.577 506.375 293.829C507.764 295.097 508.128 296.917 507.283 298.854C506.882 299.768 506.387 300.658 505.822 301.481C502.746 305.958 499.401 310.27 496.597 314.906C493.459 320.092 489.512 324.449 483.99 326.775Z" fill="white"/>
<path d="M478.478 339.645L447.934 333.081L449.747 324.684L480.29 331.246L478.478 339.645Z" fill="#3364FF"/>
<path d="M464.121 340.777C468.883 340.777 472.744 336.926 472.744 332.175C472.744 327.424 468.883 323.573 464.121 323.573C459.359 323.573 455.498 327.424 455.498 332.175C455.498 336.926 459.359 340.777 464.121 340.777Z" fill="#B7B7B7"/>
<path d="M464.121 338.974C467.885 338.974 470.937 335.93 470.937 332.175C470.937 328.42 467.885 325.376 464.121 325.376C460.357 325.376 457.305 328.42 457.305 332.175C457.305 335.93 460.357 338.974 464.121 338.974Z" fill="white"/>
<path d="M464.014 324.357L467.435 325.091L468.062 322.165L464.642 321.432L464.014 324.357Z" fill="#B7B7B7"/>
<path d="M441.096 399.471L453.53 340.379L443.991 338.611L428.285 399.471H441.096Z" fill="#5DA4F9"/>
<path d="M656.533 399.471L628.056 304.824L602.558 310.35L621.961 399.471H656.533Z" fill="white"/>
<path d="M601.625 323.988C606.316 325.954 616.016 330.955 632.476 317.536C632.476 317.536 636.622 314.622 636.851 305.866C636.997 300.416 635.641 295.178 634.352 289.941C633.346 285.861 632.221 281.806 631.368 277.695C630.375 272.911 629.635 268.07 628.76 263.261C628.287 260.657 626.737 259.573 624.159 259.997C622.026 260.347 620.994 262.06 621.366 264.547C622.13 269.651 622.873 274.761 623.614 279.869C623.659 280.186 623.625 280.515 623.63 280.837C623.503 280.864 623.382 280.892 623.258 280.916C623.124 280.526 622.944 280.147 622.867 279.744C622.1 275.797 621.357 271.845 620.602 267.891C619.831 263.852 619.072 259.807 618.265 255.778C617.524 252.067 614.645 251.61 612.004 252.278C610.024 252.78 609.231 254.508 609.623 256.883C610.888 264.549 612.157 272.213 613.412 279.879C613.481 280.3 613.401 280.742 613.391 281.174C613.253 281.186 613.119 281.195 612.982 281.205C612.854 280.755 612.704 280.309 612.604 279.851C611.898 276.636 611.203 273.419 610.5 270.205C609.333 264.846 608.195 259.476 606.99 254.13C606.241 250.811 603.409 249.512 600.355 250.998C598.202 252.051 597.498 253.833 598.083 256.831C599.731 265.264 601.392 273.693 603.039 282.127C603.133 282.598 603.185 283.077 603.255 283.555C603.099 283.608 602.94 283.659 602.779 283.708C602.591 283.189 602.368 282.68 602.229 282.148C601.258 278.388 600.322 274.616 599.34 270.857C598.526 267.718 597.777 264.556 596.791 261.47C596.017 259.05 594.285 258.103 592.064 258.482C589.544 258.913 588.109 260.407 588.068 262.935C588.047 264.195 588.297 265.476 588.567 266.715C590.421 275.246 592.335 283.765 594.159 292.302C594.453 293.667 594.592 295.127 594.45 296.511C594.373 297.271 593.702 298.248 593.03 298.572C592.553 298.801 591.426 298.291 590.939 297.778C589.757 296.521 588.854 295.007 587.694 293.724C586.662 292.586 585.546 291.456 584.262 290.638C582.498 289.517 580.543 289.821 579.173 291.075C577.786 292.347 577.426 294.167 578.274 296.105C578.678 297.015 579.174 297.906 579.742 298.726C582.825 303.199 586.178 307.504 588.99 312.136C592.145 317.318 596.099 321.672 601.625 323.988Z" fill="white"/>
<path d="M658.201 399.471L641.645 335.757L607.566 342.133L619.426 399.471H658.201Z" fill="#5DA4F9"/>
<path d="M658.201 399.471L641.645 335.757L616.715 340.15L628.987 399.471H658.201Z" fill="#3385FF"/>
<path d="M902.265 399.471V336.373H876.172L871.243 399.471H902.265Z" fill="white"/>
<path d="M921.007 312.596C919.403 311.659 917.426 311.778 915.943 313.246C914.866 314.316 914.014 315.658 913.247 316.988C912.387 318.484 911.825 320.158 910.937 321.634C910.572 322.238 909.577 322.978 909.064 322.853C908.338 322.679 907.477 321.866 907.238 321.14C906.806 319.818 906.634 318.364 906.629 316.964C906.597 308.235 906.651 299.506 906.65 290.776C906.649 289.508 906.623 288.203 906.334 286.975C905.758 284.512 904.035 283.356 901.48 283.469C899.23 283.571 897.741 284.862 897.5 287.389C897.192 290.615 897.137 293.864 897.006 297.104C896.85 300.985 896.735 304.87 896.587 308.75C896.566 309.298 896.452 309.845 896.381 310.392C896.217 310.373 896.051 310.359 895.887 310.339C895.853 309.859 895.801 309.379 895.79 308.901C895.689 304.223 895.742 304.686 895.644 300.012C894.911 292.368 885.547 294.614 886.029 302.118C886.24 305.402 885.966 305.408 885.961 308.701C885.961 309.169 885.907 309.639 885.879 310.101C885.744 310.122 885.608 310.138 885.475 310.16C885.371 309.74 885.203 309.325 885.18 308.896C885.002 305.509 884.724 306.56 884.552 303.171C884.802 296.023 874.388 293.944 875.914 310.765C875.95 311.17 875.83 311.583 875.782 311.993C875.655 311.994 875.529 311.994 875.401 311.994C875.337 311.68 875.233 311.366 875.211 311.046C875.116 309.715 875.231 310.654 875.138 309.323C874.3 304.615 867.39 305.914 867.17 310.56C866.974 314.755 866.975 318.96 866.858 323.161C866.712 328.553 866.504 333.955 867.801 339.252C869.889 347.762 874.56 349.731 874.56 349.731C893.502 359.358 901.914 352.419 906.081 349.502C910.985 346.068 913.926 340.981 915.898 335.252C917.663 330.13 920.021 325.212 922.085 320.189C922.464 319.265 922.759 318.292 922.959 317.314C923.371 315.245 922.632 313.545 921.007 312.596Z" fill="white"/>
<path d="M903.414 354.66H872.172V363.253H903.414V354.66Z" fill="#3364FF"/>
<path d="M887.794 367.561C892.556 367.561 896.416 363.709 896.416 358.958C896.416 354.207 892.556 350.355 887.794 350.355C883.032 350.355 879.172 354.207 879.172 358.958C879.172 363.709 883.032 367.561 887.794 367.561Z" fill="#B7B7B7"/>
<path d="M887.794 365.756C891.557 365.756 894.608 362.712 894.608 358.958C894.608 355.203 891.557 352.16 887.794 352.16C884.031 352.16 880.98 355.203 880.98 358.958C880.98 362.712 884.031 365.756 887.794 365.756Z" fill="white"/>
<path d="M889.544 348.376H886.044V351.368H889.544V348.376Z" fill="#B7B7B7"/>
<path d="M904.452 399.471L904.132 368.494L869.475 369.479L868.278 399.471H904.452Z" fill="#3385FF"/>
<path d="M879.33 399.471L879.171 369.201L869.475 369.479L868.278 399.471H879.33Z" fill="#5DA4F9"/>
<path d="M1087.88 199.687L1050.29 177.312L1035.22 198.562L1087.88 235.723V199.687Z" fill="white"/>
<path d="M1087.88 195.271L1081.25 190.977L1060.43 218.634L1087.88 238.438V195.271Z" fill="#5DA4F9"/>
<path d="M1004.93 200.091C1005.1 198.245 1006.33 196.703 1008.4 196.342C1009.89 196.083 1011.48 196.165 1013.01 196.309C1014.74 196.472 1016.43 196.982 1018.15 197.113C1018.86 197.163 1020.03 196.78 1020.23 196.291C1020.51 195.601 1020.34 194.428 1019.88 193.815C1019.05 192.7 1017.96 191.716 1016.82 190.905C1009.69 185.838 1002.52 180.843 995.378 175.798C994.341 175.065 993.286 174.289 992.449 173.344C990.767 171.452 990.813 169.384 992.384 167.368C993.766 165.594 995.683 165.127 997.892 166.391C1000.71 168.003 1003.4 169.832 1006.13 171.599C1009.39 173.711 1012.64 175.862 1015.9 177.983C1016.36 178.281 1016.87 178.505 1017.36 178.762C1017.44 178.618 1017.52 178.473 1017.6 178.329C1017.23 178.025 1016.87 177.705 1016.48 177.42C1012.71 174.637 1013.06 174.949 1009.29 172.169C1003.46 167.158 1010.7 160.829 1016.57 165.557C1019.13 167.625 1019.3 167.406 1021.99 169.301C1022.38 169.572 1022.79 169.799 1023.19 170.045C1023.28 169.948 1023.38 169.848 1023.47 169.748C1023.19 169.422 1022.94 169.042 1022.61 168.778C1019.94 166.676 1020.96 167.057 1018.29 164.961C1012.29 161.035 1016.6 151.355 1029.49 162.312C1029.8 162.578 1030.21 162.717 1030.57 162.916C1030.64 162.812 1030.71 162.709 1030.79 162.606C1030.57 162.372 1030.37 162.106 1030.12 161.901C1029.09 161.057 1029.79 161.69 1028.76 160.845C1025.39 157.446 1030.44 152.567 1034.37 155.073C1037.92 157.335 1041.36 159.764 1044.86 162.096C1049.36 165.091 1053.9 168.041 1057.48 172.158C1063.24 178.772 1062.16 183.713 1062.16 183.713C1059.09 204.698 1048.56 207.542 1043.76 209.25C1038.12 211.264 1032.26 210.716 1026.43 209.018C1021.22 207.497 1015.83 206.578 1010.53 205.356C1009.56 205.13 1008.59 204.809 1007.68 204.408C1005.74 203.549 1004.77 201.963 1004.93 200.091Z" fill="white"/>
<path d="M1087.88 195.271L1081.25 190.977L1067.13 209.73L1087.88 224.374V195.271Z" fill="#3385FF"/>
<path d="M982.727 238.824L987.481 240.84L959.314 306.926L954.561 304.91L982.727 238.824Z" fill="#5FB3ED"/>
<path d="M969.328 283.377L971.705 284.387L961.659 307.941L959.282 306.934L969.328 283.377Z" fill="#B7B7B7"/>
<path d="M988.99 233.919L986.614 232.91L982.684 238.832L987.437 240.85L988.99 233.919Z" fill="#D1D1D1"/>
<path d="M956.012 301.427L960.763 303.445L957.506 311.082L952.753 309.064L956.012 301.427Z" fill="#B7B7B7"/>
<path d="M953.916 309.559L956.293 310.566L955.119 313.32L952.741 312.313L953.916 309.559Z" fill="#D1D1D1"/>
<path d="M687.421 127.742L684.973 123.206L748.348 89.147L750.797 93.683L687.421 127.742Z" fill="#5FB3ED"/>
<path d="M725.764 101.291L724.538 99.0209L747.137 86.8899L748.362 89.1589L725.764 101.291Z" fill="#B7B7B7"/>
<path d="M679.413 127.673L680.64 129.943L687.413 127.766L684.965 123.229L679.413 127.673Z" fill="#D1D1D1"/>
<path d="M747.441 95.4949L744.99 90.9579L752.318 87.0229L754.766 91.5599L747.441 95.4949Z" fill="#B7B7B7"/>
<path d="M754.134 90.428L752.908 88.159L755.55 86.74L756.776 89.009L754.134 90.428Z" fill="#D1D1D1"/>
</g>
<defs>
<linearGradient id="paint0_linear" x1="544" y1="326" x2="544" y2="392" gradientUnits="userSpaceOnUse">
<stop stop-color="#F7F8FA"/>
<stop offset="1" stop-color="#F7F8FA" stop-opacity="0"/>
</linearGradient>
<linearGradient id="paint1_linear" x1="285" y1="281" x2="-8.05632e-06" y2="8.171e-06" gradientUnits="userSpaceOnUse">
<stop stop-color="#EBF4FF"/>
<stop offset="1" stop-color="white"/>
</linearGradient>
<linearGradient id="paint2_linear" x1="54.4326" y1="-156.385" x2="339" y2="414.628" gradientUnits="userSpaceOnUse">
<stop stop-color="#338DFF" stop-opacity="0.56"/>
<stop offset="1" stop-color="#DBECFF" stop-opacity="0"/>
</linearGradient>
<linearGradient id="paint3_linear" x1="6.19696" y1="127.287" x2="111.801" y2="439.217" gradientUnits="userSpaceOnUse">
<stop stop-color="#338DFF" stop-opacity="0.56"/>
<stop offset="1" stop-color="#DBECFF" stop-opacity="0"/>
</linearGradient>
<linearGradient id="paint4_linear" x1="-96.8377" y1="52.7583" x2="32.3106" y2="454.518" gradientUnits="userSpaceOnUse">
<stop stop-color="#338DFF" stop-opacity="0.56"/>
<stop offset="1" stop-color="#DBECFF" stop-opacity="0"/>
</linearGradient>
<linearGradient id="paint5_linear" x1="880.054" y1="34.3751" x2="1067.44" y2="289.382" gradientUnits="userSpaceOnUse">
<stop stop-color="#338DFF" stop-opacity="0.56"/>
<stop offset="1" stop-color="#DBECFF" stop-opacity="0"/>
</linearGradient>
<linearGradient id="paint6_linear" x1="794.608" y1="-97.0623" x2="1016.08" y2="246.123" gradientUnits="userSpaceOnUse">
<stop stop-color="#338DFF" stop-opacity="0.56"/>
<stop offset="1" stop-color="#DBECFF" stop-opacity="0"/>
</linearGradient>
<linearGradient id="paint7_linear" x1="650.283" y1="-4.91755" x2="846.5" y2="421.743" gradientUnits="userSpaceOnUse">
<stop stop-color="#338DFF" stop-opacity="0.56"/>
<stop offset="1" stop-color="#DBECFF" stop-opacity="0"/>
</linearGradient>
<linearGradient id="paint8_linear" x1="779.091" y1="137.572" x2="898.874" y2="421.569" gradientUnits="userSpaceOnUse">
<stop stop-color="#338DFF" stop-opacity="0.56"/>
<stop offset="1" stop-color="#DBECFF" stop-opacity="0"/>
</linearGradient>
<linearGradient id="paint9_linear" x1="288.174" y1="86.5143" x2="396.342" y2="454.597" gradientUnits="userSpaceOnUse">
<stop stop-color="#338DFF" stop-opacity="0.56"/>
<stop offset="1" stop-color="#DBECFF" stop-opacity="0"/>
</linearGradient>
</defs>
</svg>
