<svg width="80" height="80" viewBox="0 0 80 80" fill="none" xmlns="http://www.w3.org/2000/svg">
<g clip-path="url(#clip0)">
<path d="M15.8488 35.8883C14.4939 41.2697 13.1705 46.3488 11.9417 51.4279C11.6581 52.5767 11.1855 53 9.95668 52.8488C8.66483 52.7279 6.96337 53.2418 6.14415 52.6069C5.32493 52.0023 5.35644 50.3093 5.07286 49.1C3.40291 41.8744 1.73297 34.6186 0 27.1511C1.70146 27.1511 3.3399 27.1511 4.97834 27.1511C5.79756 27.1511 5.64002 27.8162 5.73454 28.2395C6.77432 33.3186 7.78259 38.3976 8.79086 43.4767C8.85388 43.8697 8.79086 44.293 9.32651 44.5953C10.6184 39.2744 11.9732 33.9535 13.1705 28.6325C13.4541 27.4232 13.8952 27.0302 15.2186 27.0907C18.2434 27.2116 18.2434 27.1209 18.9366 29.9628C20.1339 34.8302 21.2997 39.6976 22.8121 44.5953C23.3793 41.693 23.9779 38.7907 24.5451 35.8883C25.0492 33.3186 25.5849 30.7488 26.0575 28.179C26.1835 27.393 26.4671 27.0604 27.3494 27.1209C28.7987 27.2116 30.2481 27.1511 31.8236 27.1511C29.87 35.5558 27.9795 43.779 26.089 52.0023C25.9315 52.6976 25.5849 52.8488 24.8917 52.8488C23.4108 52.7883 21.6778 53.2721 20.575 52.6674C19.4092 52.0325 19.6298 50.1581 19.2832 48.8279C18.2434 45.1093 17.3297 41.3302 16.3529 37.5814C16.2584 37.0976 16.1008 36.6441 15.8488 35.8883Z" fill="#20272E"/>
<path d="M67.9322 46.3187C68.8144 43.5676 69.6021 41.1187 70.3898 38.7001C71.4926 35.2234 72.5954 31.7769 73.6352 28.3001C73.8558 27.5443 74.2024 27.0908 75.1476 27.1513C76.4395 27.242 77.7628 27.2118 79.0862 27.1513C80.0314 27.1211 80.1575 27.4234 79.8739 28.2094C77.5738 34.4676 75.2737 40.7257 73.005 46.9839C72.4379 48.556 71.8077 50.0978 71.3036 51.7001C71.02 52.5466 70.6419 52.8792 69.6651 52.8792C65.1279 52.9094 65.1279 52.9699 63.6155 48.8885C61.1263 42.056 58.6687 35.2234 56.148 28.3908C55.7699 27.3629 56.022 27.0606 57.1248 27.1513C58.7002 27.2722 60.5592 26.6071 61.725 27.4234C62.8278 28.2094 62.7963 30.0536 63.2374 31.4443C64.6868 35.949 66.0732 40.4839 67.4911 45.0187C67.5541 45.3211 67.6801 45.6234 67.9322 46.3187Z" fill="#4FA5AA"/>
<path d="M46.8217 42.056C46.8217 45.2304 46.7902 48.4048 46.8532 51.549C46.8532 52.4862 46.6957 52.9397 45.5929 52.849C44.5531 52.7583 43.4818 52.7583 42.442 52.849C41.4338 52.9397 41.2132 52.5769 41.2447 51.6699C41.2762 45.442 41.2132 39.1839 41.3077 32.956C41.3077 31.7164 40.9927 31.2932 39.6693 31.3839C37.8418 31.5048 36.0143 31.3839 34.1553 31.4141C33.3361 31.4444 33.1155 31.142 33.084 30.3862C32.9895 27.1513 32.958 27.1513 36.3609 27.1513C42.127 27.1513 47.893 27.1816 53.6591 27.1211C54.7303 27.1211 55.0769 27.3327 55.0769 28.4211C55.0139 31.4141 55.0769 31.4141 51.9576 31.4141C50.6342 31.4141 49.3424 31.4746 48.019 31.3839C47.0738 31.3234 46.7587 31.5955 46.7587 32.5327C46.8532 35.7374 46.8217 38.9118 46.8217 42.056Z" fill="#20272E"/>
</g>
<defs>
<clipPath id="clip0">
<rect width="80" height="80" fill="white"/>
</clipPath>
</defs>
</svg>
