<svg width="430" height="167" viewBox="0 0 430 167" fill="none" 
  xmlns="http://www.w3.org/2000/svg">
  <path fill-rule="evenodd" clip-rule="evenodd" d="M397.86 140.376C411.979 141.942 424.694 131.765 426.26 117.645C427.825 103.526 417.648 90.8112 403.529 89.2457C389.41 87.6802 376.695 97.8571 375.129 111.976C373.564 126.096 383.741 138.811 397.86 140.376Z" fill="white"/>
  <path opacity="0.8" fill-rule="evenodd" clip-rule="evenodd" d="M251.685 108.959C254.825 110.389 258.53 109.003 259.96 105.863C261.389 102.723 260.003 99.0185 256.863 97.5888C253.723 96.159 250.019 97.5454 248.589 100.685C247.159 103.825 248.546 107.53 251.685 108.959Z" fill="white"/>
  <path opacity="0.4" fill-rule="evenodd" clip-rule="evenodd" d="M289.275 88.4976C291.637 89.5727 294.422 88.5302 295.498 86.1689C296.573 83.8077 295.53 81.0219 293.169 79.9468C290.808 78.8716 288.022 79.9142 286.947 82.2754C285.872 84.6366 286.914 87.4224 289.275 88.4976Z" fill="white"/>
  <path fill-rule="evenodd" clip-rule="evenodd" d="M4.27537 69.4976C6.6366 70.5727 9.42235 69.5302 10.4975 67.1689C11.5727 64.8077 10.5302 62.0219 8.16894 60.9468C5.80771 59.8716 3.02195 60.9142 1.94677 63.2754C0.871591 65.6366 1.91414 68.4224 4.27537 69.4976Z" fill="white"/>
  <path opacity="0.6" fill-rule="evenodd" clip-rule="evenodd" d="M212.746 82.9303C218.129 85.3813 224.479 83.0046 226.93 77.622C229.381 72.2393 227.005 65.8888 221.622 63.4379C216.239 60.9869 209.889 63.3635 207.438 68.7462C204.987 74.1289 207.364 80.4794 212.746 82.9303Z" fill="white"/>
  <path opacity="0.6" fill-rule="evenodd" clip-rule="evenodd" d="M67.7464 81.9303C73.129 84.3813 79.4795 82.0047 81.9304 76.622C84.3814 71.2393 82.0048 64.8888 76.6222 62.4379C71.2395 59.9869 64.8891 62.3635 62.4381 67.7462C59.9871 73.1289 62.3637 79.4794 67.7464 81.9303Z" fill="white"/>
  <path fill-rule="evenodd" clip-rule="evenodd" d="M163.244 85.8839C172.215 89.9689 182.799 86.0078 186.884 77.0367C190.969 68.0655 187.008 57.4814 178.037 53.3965C169.066 49.3115 158.481 53.2726 154.396 62.2437C150.312 71.2149 154.273 81.799 163.244 85.8839Z" fill="white"/>
  <path fill-rule="evenodd" clip-rule="evenodd" d="M359.915 126.542C342.806 133.134 323.593 124.609 317 107.5C310.408 90.3913 318.934 71.1779 336.042 64.5858C353.151 57.9936 372.364 66.519 378.957 83.6277C385.549 100.736 377.023 119.95 359.915 126.542Z" fill="white"/>
  <path fill-rule="evenodd" clip-rule="evenodd" d="M109.107 126.092C117.45 129.891 127.294 126.207 131.093 117.864C134.892 109.521 131.208 99.6778 122.865 95.8788C114.521 92.0797 104.678 95.7635 100.879 104.107C97.0801 112.45 100.764 122.293 109.107 126.092Z" fill="white"/>
  <path fill-rule="evenodd" clip-rule="evenodd" d="M251.177 61.8201C265.083 68.1518 281.488 62.0122 287.82 48.1069C294.151 34.2016 288.012 17.7963 274.106 11.4646C260.201 5.13286 243.796 11.2725 237.464 25.1778C231.132 39.0831 237.272 55.4884 251.177 61.8201Z" fill="white"/>
  <path fill-rule="evenodd" clip-rule="evenodd" d="M226.177 154.82C240.083 161.152 256.488 155.012 262.82 141.107C269.151 127.202 263.012 110.796 249.106 104.465C235.201 98.1329 218.796 104.272 212.464 118.178C206.132 132.083 212.272 148.488 226.177 154.82Z" fill="white"/>
  <path fill-rule="evenodd" clip-rule="evenodd" d="M40.5899 76.6449C50.8569 81.32 62.9698 76.7868 67.6448 66.5198C72.3199 56.2528 67.7867 44.1399 57.5197 39.4649C47.2527 34.7898 35.1398 39.323 30.4648 49.59C25.7898 59.857 30.323 71.9699 40.5899 76.6449Z" fill="white"/>
</svg>
