<svg width="264" height="135" viewBox="0 0  264 135" fill="none" 
  xmlns="http://www.w3.org/2000/svg">
  <path opacity="0.5" d="M0 16C0 7.16345 7.16344 0 16 0H248C256.837 0 264 7.16344 264 16V135H0V16Z" fill="#F5F7FA"/>
  <path d="M132.5 69.516C134.909 69.516 137.264 68.8017 139.267 67.4633C141.27 66.125 142.831 64.2227 143.753 61.997C144.675 59.7714 144.916 57.3224 144.446 54.9596C143.976 52.5969 142.816 50.4266 141.113 48.7231C139.409 47.0197 137.239 45.8596 134.876 45.3897C132.513 44.9197 130.064 45.1609 127.839 46.0828C125.613 47.0048 123.711 48.5659 122.372 50.569C121.034 52.572 120.32 54.927 120.32 57.336C120.323 60.5652 121.608 63.6611 123.891 65.9445C126.175 68.2279 129.271 69.5123 132.5 69.516ZM132.5 47.5699C134.431 47.5699 136.32 48.1426 137.926 49.2157C139.532 50.2888 140.783 51.814 141.523 53.5985C142.262 55.3831 142.455 57.3467 142.078 59.2412C141.702 61.1356 140.772 62.8758 139.406 64.2416C138.04 65.6074 136.3 66.5376 134.405 66.9144C132.511 67.2913 130.547 67.0979 128.763 66.3587C126.978 65.6196 125.453 64.3678 124.38 62.7618C123.307 61.1558 122.734 59.2676 122.734 57.336C122.737 54.7468 123.767 52.2645 125.597 50.4336C127.428 48.6027 129.911 47.5728 132.5 47.5699Z" fill="#D7DBE0"/>
  <path d="M125.468 58.8496C125.468 59.1697 125.595 59.4767 125.822 59.7031C126.048 59.9295 126.355 60.0566 126.675 60.0566H127.951C128.479 61.09 129.284 61.9566 130.276 62.5603C131.267 63.1639 132.407 63.4811 133.567 63.4766H135.454C135.774 63.4766 136.081 63.3494 136.307 63.123C136.533 62.8967 136.661 62.5897 136.661 62.2695C136.661 61.9494 136.533 61.6424 136.307 61.416C136.081 61.1897 135.774 61.0625 135.454 61.0625H133.567C132.578 61.062 131.622 60.7049 130.874 60.0566H134.123C134.444 60.0566 134.751 59.9295 134.977 59.7031C135.203 59.4767 135.331 59.1697 135.331 58.8496C135.331 58.5295 135.203 58.2225 134.977 57.9961C134.751 57.7697 134.444 57.6426 134.123 57.6426H129.759C129.752 57.4414 129.744 57.4414 129.744 57.3408C129.743 57.24 129.748 57.1392 129.759 57.0391H134.123C134.444 57.0391 134.751 56.9119 134.977 56.6855C135.203 56.4592 135.331 56.1522 135.331 55.832C135.331 55.5119 135.203 55.2049 134.977 54.9785C134.751 54.7522 134.444 54.625 134.123 54.625H130.874C131.566 54.0215 132.518 53.418 133.567 53.418H135.454C135.774 53.418 136.081 53.2908 136.307 53.0644C136.533 52.8381 136.661 52.5311 136.661 52.2109C136.661 51.8908 136.533 51.5838 136.307 51.3574C136.081 51.1311 135.774 51.0039 135.454 51.0039H133.567C131.099 51.0039 128.961 52.6133 127.951 54.625H126.675C126.355 54.625 126.048 54.7522 125.822 54.9785C125.595 55.2049 125.468 55.5119 125.468 55.832C125.468 56.1522 125.595 56.4592 125.822 56.6855C126.048 56.9119 126.355 57.0391 126.675 57.0391H127.338C127.333 57.0391 127.33 57.2416 127.33 57.3408C127.33 57.44 127.333 57.4414 127.338 57.6426H126.675C126.355 57.6426 126.048 57.7697 125.822 57.9961C125.595 58.2225 125.468 58.5295 125.468 58.8496Z" fill="#D7DBE0"/>
  <path d="M111.013 76.0349C111.016 76.7515 111.302 77.4378 111.81 77.9435C112.318 78.4493 113.005 78.7333 113.722 78.7334C114.826 78.7366 115.919 78.5207 116.939 78.0981C117.959 77.6755 118.884 77.0547 119.662 76.2717L119.677 76.2528C120.025 75.9011 120.439 75.6221 120.896 75.4319C121.352 75.2416 121.842 75.1439 122.337 75.1445H142.382C142.851 75.144 143.314 75.2366 143.747 75.4167C144.179 75.5969 144.571 75.8611 144.9 76.194L144.973 76.2849C145.748 77.0699 146.672 77.6933 147.69 78.1191C148.708 78.5449 149.801 78.7646 150.904 78.7656H150.907C151.625 78.764 152.312 78.4794 152.821 77.9737C153.329 77.4679 153.618 76.7819 153.623 76.0647C153.627 74.7049 153.303 73.3643 152.678 72.1569C155.001 69.2313 156.604 65.8002 157.357 62.1408C158.11 58.4814 157.991 54.6962 157.011 51.091C156.129 47.819 154.586 44.7624 152.478 42.1095C150.369 39.4565 147.74 37.2635 144.752 35.6655C145.359 35.2028 145.778 34.5854 145.778 33.7721V31.7445C145.778 31.728 145.822 31.7119 145.822 31.6956C145.822 31.6849 145.847 31.6755 145.847 31.6646C145.847 30.2035 143.938 29.7497 143.117 29.5557C142.578 29.4282 141.943 29.3121 141.226 29.2085C141.808 28.5768 142.302 27.869 142.694 27.1047L145.371 21.8694C145.488 21.6398 145.529 21.3787 145.487 21.1244C145.445 20.87 145.323 20.6358 145.138 20.4559C144.954 20.276 144.716 20.1599 144.461 20.1246C144.206 20.0894 143.946 20.1368 143.719 20.26C142.455 20.95 140.775 20.1795 139.588 19.4116C138.352 18.5997 136.938 18.0993 135.467 17.9531C133.995 17.807 132.51 18.0195 131.139 18.5725C129.011 19.448 127.934 20.7987 127.493 21.492C123.885 23.0595 121.883 20.8305 121.656 20.5575C121.474 20.3326 121.216 20.181 120.931 20.1305C120.645 20.0799 120.351 20.1337 120.102 20.2821C119.853 20.4305 119.666 20.6635 119.574 20.9385C119.483 21.2136 119.494 21.5124 119.604 21.7802L121.527 26.4215C121.96 27.4685 122.578 28.4291 123.351 29.2572C120.697 29.6646 119.146 30.3306 119.146 31.6654C119.146 31.6761 119.186 31.6855 119.186 31.6964C119.186 31.7127 119.222 31.7288 119.222 31.7453V33.7721C119.222 34.5273 119.596 35.1463 120.274 35.6545C117.299 37.2442 114.68 39.4239 112.576 42.0604C110.472 44.6969 108.928 47.7348 108.038 50.9884C107.051 54.5459 106.907 58.2843 107.617 61.9072C108.327 65.5301 109.87 68.9379 112.126 71.8606C111.397 73.1311 111.014 74.5702 111.013 76.0349ZM143.365 33.7174C143.159 33.8797 142.669 34.1801 141.572 34.5086C141.562 34.5118 141.551 34.5142 141.541 34.5176C139.328 35.1771 136.039 35.5553 132.508 35.5553C128.399 35.5553 125.39 35.0761 123.562 34.551C123.485 34.5187 123.404 34.4946 123.321 34.4792C122.448 34.2108 121.879 33.936 121.626 33.7109C122.323 33.8832 123.028 34.0183 123.739 34.1155C126.09 34.4595 129.205 34.6488 132.508 34.6488C135.812 34.6488 138.926 34.4595 141.278 34.1155C141.98 34.0192 142.677 33.8863 143.365 33.7174ZM126.24 31.3536C127.132 31.7694 128.085 32.0422 129.062 32.1621C127.262 32.0967 125.467 31.9301 123.685 31.663C124.365 31.5536 125.21 31.4465 126.24 31.3536ZM135.223 32.1903C136.317 32.0865 137.384 31.7917 138.376 31.3192C139.593 31.4198 140.565 31.5405 141.326 31.6638C139.304 31.9632 137.266 32.139 135.223 32.1903ZM138.277 21.438C139.635 22.3162 140.93 22.8122 142.123 22.9209L140.547 26.005C139.903 27.2699 138.889 28.3085 137.64 28.9824C137.59 29.0043 137.543 29.0295 137.497 29.0578C136.96 29.3316 136.39 29.5345 135.8 29.6613L137.162 22.5099C137.203 22.2941 137.184 22.0712 137.108 21.8652C137.032 21.6592 136.901 21.4779 136.729 21.3409C136.02 20.8367 135.213 20.4893 134.359 20.3217C135.748 20.2906 137.114 20.6797 138.277 21.438ZM128.732 23.5803C128.814 23.5529 128.893 23.5166 128.968 23.4721C131.792 22.1301 133.719 22.5692 134.628 22.9424L133.313 29.8808H130.227C128.839 29.8775 127.483 29.4621 126.331 28.6872C125.179 27.9123 124.283 26.8129 123.757 25.5283L123.226 24.2293C124.603 24.5997 126.481 24.6337 128.732 23.5803ZM110.347 51.6257C112.167 44.977 116.948 39.5151 123.175 36.9371C126.794 37.9243 131.666 37.9693 132.509 37.9693C134.381 37.9736 136.252 37.864 138.11 37.6412C137.235 39.1318 136.608 40.7546 136.253 42.4462C136.221 42.6013 136.219 42.7614 136.248 42.9172C136.277 43.073 136.336 43.2216 136.423 43.3544C136.509 43.4873 136.621 43.6018 136.752 43.6914C136.883 43.781 137.03 43.844 137.185 43.8768C137.34 43.9095 137.5 43.9114 137.656 43.8823C137.812 43.8532 137.96 43.7937 138.093 43.7072C138.226 43.6207 138.34 43.5089 138.43 43.3781C138.52 43.2474 138.583 43.1002 138.615 42.9451C138.984 41.1946 139.695 39.5342 140.708 38.0599L140.791 38.1806L140.805 38.2033C142.286 40.7407 143.365 43.4927 144.003 46.361C144.078 46.6696 144.271 46.9365 144.54 47.1038C144.81 47.2712 145.135 47.3255 145.444 47.2551C145.754 47.1847 146.023 46.9952 146.194 46.7276C146.365 46.46 146.423 46.1359 146.357 45.8255C145.709 42.9337 144.649 40.1498 143.21 37.559C146.011 38.978 148.48 40.9723 150.456 43.4115C152.432 45.8506 153.871 48.6796 154.679 51.7132C155.567 54.9809 155.667 58.4124 154.972 61.7265C154.278 65.0406 152.808 68.1428 150.683 70.7791L150.678 70.7849C150.414 71.1137 150.254 71.5135 150.217 71.9335C150.18 72.3536 150.269 72.7751 150.472 73.1446C150.959 74.0381 151.212 75.0401 151.209 76.0576C151.207 76.1361 151.174 76.2104 151.117 76.2652C151.061 76.32 150.986 76.3509 150.907 76.3515C150.121 76.3502 149.343 76.193 148.618 75.8891C147.893 75.5853 147.235 75.1408 146.683 74.5812L146.611 74.4965C146.058 73.9369 145.4 73.4927 144.674 73.1895C143.948 72.8863 143.169 72.7303 142.382 72.7304H122.337C121.521 72.7297 120.714 72.8911 119.962 73.2054C119.21 73.5197 118.527 73.9806 117.955 74.5611C117.401 75.1194 116.741 75.5621 116.014 75.8635C115.288 76.165 114.508 76.3193 113.722 76.3173C113.683 76.3183 113.645 76.3116 113.61 76.2977C113.574 76.2837 113.542 76.2628 113.514 76.2361C113.487 76.2094 113.465 76.1775 113.45 76.1423C113.435 76.107 113.427 76.0691 113.427 76.0309C113.424 74.9231 113.73 73.8365 114.31 72.8926C114.526 72.54 114.629 72.1299 114.606 71.7172C114.582 71.3045 114.433 70.9087 114.179 70.5827C112.096 67.9463 110.663 64.8559 109.997 61.5623C109.331 58.2686 109.451 54.8644 110.347 51.6257Z" fill="#D7DBE0"/>
  <path d="M165.292 82.2692L164.934 82.4624C163.138 80.3436 160.077 79.5345 157.739 80.7194C157.73 80.724 157.721 80.7287 157.712 80.7335L156.749 81.2521C155.512 80.2149 153.987 79.5812 152.379 79.436C150.771 79.2907 149.157 79.6409 147.754 80.4396L142.249 83.3926H134.917C133.343 83.4044 131.786 83.0614 130.363 82.3891L129.351 81.9198C126.45 80.5106 123.216 79.9315 120.007 80.2467C116.798 80.5619 113.739 81.759 111.168 83.7056C111.141 83.7257 111.116 83.7515 111.091 83.7734L108.647 85.9517C107.762 86.7386 106.721 87.3289 105.591 87.6836L104.233 83.2359C104.157 82.9891 104.004 82.7733 103.796 82.6204C103.588 82.4674 103.337 82.3855 103.079 82.3867H91.2599C91.0894 82.3856 90.9206 82.4208 90.7648 82.49C90.609 82.5593 90.4697 82.661 90.3563 82.7883C90.2429 82.9156 90.158 83.0657 90.1072 83.2284C90.0564 83.3912 90.0409 83.5629 90.0617 83.7322L94.0013 116.083C94.0351 116.38 94.1748 116.656 94.3947 116.859C94.6147 117.062 94.9002 117.179 95.1994 117.189H112.927C113.119 117.179 113.306 117.125 113.474 117.032C113.642 116.939 113.786 116.81 113.897 116.653C114.008 116.496 114.083 116.317 114.114 116.128C114.146 115.938 114.135 115.744 114.082 115.56L111.776 107.984L118.957 103.437C119.904 102.914 121.013 102.77 122.062 103.034C122.086 103.04 122.112 103.044 122.137 103.049L136.892 105.765C140.924 106.486 145.081 105.899 148.756 104.089C148.807 104.064 148.857 104.035 148.904 104.002L174.423 86.4804C174.677 86.3062 174.854 86.0418 174.92 85.7412C174.985 85.4405 174.933 85.1263 174.774 84.8627C173.832 83.2926 172.32 82.1467 170.554 81.6635C168.787 81.1804 166.903 81.3974 165.292 82.2692ZM158.842 82.8665C160.098 82.2385 161.669 82.7205 162.719 83.6575L153.175 88.8063L152.717 89.0477C152.422 88.2502 152.01 87.5014 151.493 86.8262L158.842 82.8665ZM148.921 82.5929C148.93 82.5879 148.941 82.5825 148.95 82.577C149.772 82.1022 150.703 81.8488 151.653 81.8418C152.602 81.8347 153.537 82.0742 154.366 82.5368L149.675 85.0643C148.816 84.4468 147.849 83.9958 146.824 83.7346L148.921 82.5929ZM96.2691 114.775L92.623 84.8008H102.185L111.298 114.775H96.2691ZM147.61 101.963C144.419 103.514 140.819 104.013 137.326 103.389L122.611 100.679C120.966 100.274 119.229 100.51 117.753 101.339C117.734 101.349 117.715 101.36 117.697 101.372L111.046 105.577L106.295 89.9954C107.758 89.5389 109.107 88.7758 110.252 87.757L112.658 85.6151C114.875 83.9499 117.508 82.9286 120.268 82.6635C123.027 82.3985 125.807 82.9 128.3 84.113L129.312 84.5622C131.063 85.3925 132.979 85.8179 134.917 85.8066H144.733C146.131 85.8169 147.484 86.3046 148.567 87.1887C149.651 88.0729 150.4 89.3006 150.69 90.6686L143.712 90.3732C141.119 90.2598 138.522 90.3831 135.951 90.7418C135.794 90.7635 135.642 90.8161 135.505 90.8964C135.367 90.9768 135.247 91.0833 135.151 91.2101C134.958 91.466 134.873 91.7885 134.917 92.1066C134.939 92.2641 134.991 92.4158 135.072 92.553C135.152 92.6902 135.259 92.8103 135.385 92.9063C135.641 93.1002 135.964 93.1844 136.282 93.1406C138.707 92.8061 141.158 92.6933 143.603 92.8036L151.976 93.183C151.994 93.183 152.012 93.1846 152.03 93.1846C152.35 93.1846 152.657 93.0575 152.884 92.8311C153.11 92.6047 153.237 92.2977 153.237 91.9776C153.237 91.8205 153.232 91.6646 153.224 91.5095L154.31 90.9363L166.438 84.3936C167.33 83.9106 168.354 83.7292 169.358 83.8764C170.362 84.0237 171.291 84.4917 172.007 85.2106L147.61 101.963Z" fill="#D7DBE0"/>
  <path d="M99.564 110.235C99.564 110.942 99.7734 111.632 100.166 112.219C100.558 112.806 101.116 113.264 101.768 113.534C102.421 113.805 103.139 113.875 103.831 113.738C104.524 113.6 105.16 113.26 105.66 112.76C106.159 112.261 106.499 111.625 106.637 110.932C106.775 110.239 106.704 109.521 106.434 108.869C106.163 108.216 105.706 107.659 105.119 107.266C104.531 106.874 103.841 106.665 103.135 106.665C102.188 106.666 101.28 107.042 100.611 107.712C99.9416 108.381 99.565 109.289 99.564 110.235ZM103.135 109.079C103.364 109.079 103.587 109.146 103.777 109.274C103.968 109.401 104.116 109.581 104.203 109.793C104.291 110.004 104.314 110.237 104.269 110.461C104.225 110.685 104.114 110.892 103.953 111.053C103.791 111.215 103.585 111.325 103.36 111.37C103.136 111.414 102.903 111.392 102.692 111.304C102.481 111.216 102.3 111.068 102.173 110.878C102.046 110.688 101.978 110.464 101.978 110.235C101.978 109.929 102.1 109.635 102.317 109.418C102.534 109.201 102.828 109.079 103.135 109.079Z" fill="#D7DBE0"/>
</svg>
