<svg xmlns:svg="http://www.w3.org/2000/svg" xmlns="http://www.w3.org/2000/svg" height="450" width="1400" version="1.1" id="hero-background-mask" fill="#000">
  <g transform="translate(80.732391,-1.464695)" fill="#000">
    <path d="M258.364-0.000109522C423.955 222.866 953.755 376.365 1100.37 401.399 1199.84 418.384 1269.96 411.477 1320 392 1320 338 1320 0.999947 1320 0.999947 979.261 0.669132 556.291-0.000300721 258.364-0.000109522Z" style="fill:#000;opacity:0.23999999"/>
    <path d="M302.278 0.930348C401.25 0.930342 1121.25-0.000539424 1320-0.000522532 1320 49.9995 1320 164.069 1320 196c0 46 193.75 255-304.63 199.184C768.75 367.565 630.825 215.037 503.749 189 402.716 168.298 281.014 106.867 302.278 0.930348Z" style="fill:#000;opacity:0.06000001"/>
    <path d="m924.832 402.872c2.555 0.283 4.856-1.558 5.139-4.113 0.283-2.555-1.558-4.856-4.113-5.139-2.555-0.283-4.855 1.558-5.138 4.113-0.284 2.555 1.558 4.856 4.112 5.139zm-77.884-9.812v0 0c1.922 0.213 3.652-1.172 3.865-3.093 0.213-1.921-1.172-3.651-3.093-3.864-1.921-0.214-3.651 1.171-3.864 3.092-0.214 1.922 1.171 3.652 3.092 3.865z" style="fill:#000;opacity:0.4;stroke:#41b783"/>
    <path d="m1130.2 413.37c3.43 0.381 6.52-2.091 6.9-5.519 0.38-3.429-2.1-6.516-5.52-6.896-3.43-0.38-6.52 2.091-6.9 5.519-0.38 3.429 2.09 6.516 5.52 6.896z" style="fill:#000;opacity:0.8;stroke:#41b783"/>
    <path d="m753.475 340.494c4.379 0.485 8.323-2.671 8.809-7.051 0.486-4.38-2.671-8.324-7.051-8.809-4.379-0.486-8.323 2.671-8.809 7.05-0.486 4.38 2.671 8.324 7.051 8.81z" style="fill:#000;opacity:0.56000001;stroke:#41b783"/>
    <path d="m1057.38 394.659c5.54 0.614 10.53-3.379 11.14-8.918 0.62-5.539-3.38-10.527-8.92-11.141-5.53-0.614-10.52 3.378-11.14 8.917-0.61 5.539 3.38 10.527 8.92 11.142z" style="fill:#000;stroke:#41b783"/>
    <path d="m878.117 384.473c6.788 0.753 12.901-4.14 13.654-10.928 0.753-6.789-4.14-12.902-10.929-13.655-6.788-0.752-12.901 4.14-13.654 10.929-0.753 6.788 4.14 12.902 10.929 13.654z" style="fill:#000;opacity:0.8;stroke:#41b783"/>
    <path d="m1169.63 398.372c7.88 0.873 14.97-4.803 15.84-12.679 0.88-7.876-4.8-14.968-12.68-15.841-7.87-0.873-14.96 4.803-15.84 12.679-0.87 7.875 4.81 14.968 12.68 15.841zm-206.731-7.026v0 0c13.577 1.505 25.803-8.281 27.309-21.858 1.505-13.577-8.281-25.803-21.858-27.308-13.577-1.506-25.803 8.28-27.309 21.857-1.505 13.577 8.281 25.803 21.858 27.309zM814.315 343.562c13.577 1.505 25.803-8.281 27.309-21.858 1.505-13.577-8.281-25.803-21.858-27.309-13.577-1.505-25.803 8.281-27.309 21.858-1.505 13.577 8.281 25.803 21.858 27.309z" style="fill:#000;stroke:#41b783;opacity:0.6;"/>
    <path d="m551.447 265.578c2.339 1.066 5.099 0.033 6.164-2.307 1.065-2.339 0.032-5.099-2.307-6.164-2.339-1.065-5.099-0.032-6.164 2.307-1.066 2.339-0.033 5.099 2.307 6.164zm-57.053-36.059v0 0c1.759 0.801 3.835 0.024 4.636-1.735 0.801-1.759 0.024-3.834-1.735-4.635-1.76-0.802-3.835-0.025-4.636 1.734-0.801 1.76-0.024 3.835 1.735 4.636z" style="fill:#000;opacity:0.4;stroke:#41b783"/>
    <path d="m656.973 287.329c4.01 1.826 8.741 0.055 10.567-3.955 1.826-4.011 0.056-8.742-3.955-10.568-4.01-1.826-8.741-0.055-10.567 3.955-1.826 4.01-0.056 8.742 3.955 10.568z" style="fill:#000;opacity:0.8;stroke:#41b783"/>
    <path d="m478.038 200.918c4.01 1.826 8.741 0.056 10.567-3.955 1.826-4.01 0.056-8.741-3.955-10.567-4.01-1.826-8.741-0.056-10.567 3.955-1.826 4.01-0.056 8.741 3.955 10.567z" style="fill:#000;opacity:0.56000001;stroke:#41b783"/>
    <path d="m601.017 278.653c6.684 3.043 14.569 0.092 17.613-6.592 3.043-6.684 0.092-14.569-6.592-17.613-6.684-3.043-14.569-0.092-17.613 6.592-3.043 6.684-0.092 14.569 6.592 17.613zm-74.331-47.581v0 0c6.216 2.83 13.549 0.086 16.38-6.13 2.83-6.216 0.086-13.55-6.13-16.38-6.216-2.831-13.55-0.086-16.38 6.13-2.831 6.216-0.086 13.549 6.13 16.38z" style="fill:#000;opacity:0.8;stroke:#41b783"/>
    <path d="m699.676 283.395c10.36 4.718 22.582 0.143 27.3-10.217 4.717-10.36 0.143-22.582-10.217-27.299-10.36-4.718-22.583-0.144-27.3 10.216-4.717 10.36-0.143 22.583 10.217 27.3zm-123.03-40.853v0 0c12.432 5.661 27.099 0.172 32.76-12.26 5.661-12.432 0.172-27.099-12.26-32.76-12.432-5.661-27.099-0.172-32.76 12.26-5.661 12.432-0.172 27.099 12.26 32.76zm-97.839-70.225c12.432 5.661 27.099 0.171 32.76-12.26 5.661-12.432 0.172-27.099-12.26-32.76-12.432-5.661-27.099-0.172-32.76 12.26-5.661 12.432-0.172 27.099 12.26 32.76z" style="fill:#000;stroke:#41b783;opacity: 0.25;"/>
    <path d="m1320-64c0 0 0 349.125 0 456-449.234 0-845.775-180.581-1082.5-456 125.569 0 1082.5 0 1082.5 0zm0 0v0 0c0 0 0 349.125 0 456-449.234 0-845.775-180.581-1082.5-456 125.569 0 1082.5 0 1082.5 0z" fill="#000"/>
  </g>
</svg>
