<svg xmlns:svg="http://www.w3.org/2000/svg" 
  xmlns="http://www.w3.org/2000/svg" height="450" width="1400" version="1.1" id="hero-background-mask" fill="#000">
  <g transform="translate(80.732391,-1.464695)" fill="#000">
    <path d="M258.364-0.000109522C423.955 222.866 953.755 376.365 1100.37 401.399 1199.84 418.384 1269.96 411.477 1320 392 1320 338 1320 0.999947 1320 0.999947 979.261 0.669132 556.291-0.000300721 258.364-0.000109522Z" style="fill:#000;opacity:0.23999999"/>
    <path d="M302.278 0.930348C401.25 0.930342 1121.25-0.000539424 1320-0.000522532 1320 49.9995 1320 164.069 1320 196c0 46 193.75 255-304.63 199.184C768.75 367.565 630.825 215.037 503.749 189 402.716 168.298 281.014 106.867 302.278 0.930348Z" style="fill:#000;opacity:0.06000001"/>
    <path d="m1320-64c0 0 0 349.125 0 456-449.234 0-845.775-180.581-1082.5-456 125.569 0 1082.5 0 1082.5 0zm0 0v0 0c0 0 0 349.125 0 456-449.234 0-845.775-180.581-1082.5-456 125.569 0 1082.5 0 1082.5 0z" fill="#000"/>
  </g>
</svg>
