<svg width="1271" height="945" viewBox="0 0 1271 945" fill="none" 
  xmlns="http://www.w3.org/2000/svg">
  <g opacity="0.88" clip-path="url(#clip0)">
    <path fill-rule="evenodd" clip-rule="evenodd" d="M696.453 428.282C699.877 427.862 702.312 424.744 701.891 421.32C701.471 417.896 698.354 415.461 694.929 415.882C691.505 416.302 689.07 419.42 689.491 422.844C689.912 426.268 693.029 428.703 696.453 428.282Z" stroke="#D7DBE0"/>
    <path fill-rule="evenodd" clip-rule="evenodd" d="M591.696 439.573C594.271 439.257 596.102 436.913 595.786 434.338C595.469 431.762 593.125 429.931 590.55 430.248C587.975 430.564 586.144 432.908 586.46 435.483C586.777 438.059 589.121 439.89 591.696 439.573Z" fill="#F0F2F5" stroke="#D7DBE0"/>
    <path fill-rule="evenodd" clip-rule="evenodd" d="M967.922 378.431C972.517 377.866 975.785 373.683 975.22 369.087C974.655 364.492 970.472 361.224 965.877 361.789C961.281 362.354 958.014 366.537 958.579 371.132C959.143 375.728 963.326 378.995 967.922 378.431Z" fill="#F0F2F5" stroke="#D7DBE0"/>
    <path fill-rule="evenodd" clip-rule="evenodd" d="M453.345 399.851C459.215 399.13 463.389 393.786 462.668 387.916C461.946 382.046 456.603 377.872 450.733 378.593C444.862 379.314 440.688 384.658 441.41 390.528C442.131 396.399 447.475 400.573 453.345 399.851Z" stroke="#D7DBE0"/>
    <path fill-rule="evenodd" clip-rule="evenodd" d="M867.025 376.53C874.449 375.618 879.728 368.859 878.816 361.435C877.904 354.011 871.145 348.731 863.721 349.644C856.297 350.556 851.017 357.314 851.93 364.739C852.842 372.163 859.6 377.442 867.025 376.53Z" fill="#F0F2F5" stroke="#D7DBE0"/>
    <path fill-rule="evenodd" clip-rule="evenodd" d="M629.746 418.712C638.845 417.594 645.314 409.312 644.196 400.213C643.078 391.114 634.796 384.644 625.697 385.762C616.598 386.88 610.128 395.163 611.246 404.262C612.364 413.361 620.647 419.83 629.746 418.712Z" stroke="#D7DBE0"/>
    <path fill-rule="evenodd" clip-rule="evenodd" d="M1014.78 346.637C1025.33 345.34 1032.84 335.731 1031.54 325.175C1030.25 314.619 1020.64 307.113 1010.08 308.41C999.525 309.707 992.019 319.316 993.316 329.872C994.613 340.428 1004.22 347.934 1014.78 346.637Z" stroke="#D7DBE0"/>
    <path fill-rule="evenodd" clip-rule="evenodd" d="M742.602 401.447C760.8 399.211 773.739 382.646 771.503 364.448C769.267 346.25 752.702 333.311 734.504 335.547C716.306 337.783 703.366 354.348 705.603 372.546C707.839 390.744 724.404 403.683 742.602 401.447Z" stroke="#D7DBE0"/>
    <path fill-rule="evenodd" clip-rule="evenodd" d="M533.754 418.089C551.952 415.853 564.892 399.288 562.656 381.09C560.419 362.892 543.854 349.953 525.657 352.189C507.459 354.425 494.519 370.99 496.755 389.188C498.991 407.386 515.556 420.326 533.754 418.089Z" fill="#F0F2F5" stroke="#D7DBE0"/>
    <path fill-rule="evenodd" clip-rule="evenodd" d="M166.3 364.539C169.685 365.206 172.97 363.003 173.637 359.618C174.304 356.233 172.101 352.948 168.716 352.281C165.331 351.614 162.046 353.817 161.379 357.202C160.712 360.587 162.915 363.872 166.3 364.539Z" stroke="#D7DBE0"/>
    <path fill-rule="evenodd" clip-rule="evenodd" d="M80.626 335.102C83.1715 335.604 85.6418 333.947 86.1435 331.402C86.6452 328.856 84.9883 326.386 82.4428 325.884C79.8973 325.382 77.427 327.039 76.9253 329.585C76.4236 332.13 78.0805 334.6 80.626 335.102Z" fill="#F0F2F5" stroke="#D7DBE0"/>
    <path fill-rule="evenodd" clip-rule="evenodd" d="M310.854 360.284C316.657 361.428 322.288 357.651 323.432 351.848C324.576 346.045 320.799 340.414 314.996 339.271C309.193 338.127 303.562 341.904 302.418 347.707C301.274 353.509 305.051 359.141 310.854 360.284Z" fill="#F0F2F5" stroke="#D7DBE0"/>
    <path fill-rule="evenodd" clip-rule="evenodd" d="M18.5056 376.224C24.3084 377.368 29.9396 373.591 31.0833 367.788C32.227 361.985 28.45 356.354 22.6473 355.21C16.8445 354.067 11.2132 357.844 10.0696 363.647C8.92587 369.449 12.7028 375.081 18.5056 376.224Z" stroke="#D7DBE0"/>
    <path fill-rule="evenodd" clip-rule="evenodd" d="M284.348 531.153C293.342 532.926 302.071 527.072 303.843 518.077C305.616 509.083 299.762 500.354 290.767 498.582C281.773 496.809 273.044 502.663 271.272 511.658C269.499 520.652 275.353 529.38 284.348 531.153Z" stroke="#D7DBE0"/>
    <path fill-rule="evenodd" clip-rule="evenodd" d="M526.475 529.947C541.465 532.902 556.013 523.145 558.967 508.154C561.922 493.163 552.165 478.616 537.174 475.661C522.184 472.707 507.636 482.464 504.682 497.455C501.727 512.445 511.484 526.993 526.475 529.947Z" stroke="#D7DBE0"/>
    <path fill-rule="evenodd" clip-rule="evenodd" d="M393.824 586.813C386.03 589.816 377.278 585.932 374.275 578.138C371.272 570.344 375.155 561.592 382.949 558.589C390.743 555.586 399.495 559.47 402.498 567.263C405.501 575.057 401.617 583.81 393.824 586.813Z" fill="#F0F2F5" stroke="#D7DBE0"/>
    <path fill-rule="evenodd" clip-rule="evenodd" d="M777.832 544.638C760.723 551.23 741.51 542.704 734.918 525.596C728.326 508.487 736.851 489.274 753.96 482.681C771.068 476.089 790.282 484.615 796.874 501.723C803.466 518.832 794.941 538.046 777.832 544.638Z" stroke="#D7DBE0"/>
    <path fill-rule="evenodd" clip-rule="evenodd" d="M963.407 575.909C954.098 579.496 943.644 574.857 940.057 565.548C936.47 556.239 941.109 545.785 950.418 542.198C959.727 538.612 970.181 543.25 973.768 552.559C977.355 561.868 972.716 572.323 963.407 575.909Z" stroke="#D7DBE0"/>
    <path fill-rule="evenodd" clip-rule="evenodd" d="M1113.65 463.133C1110.98 465.315 1107.04 464.917 1104.86 462.245C1102.68 459.572 1103.08 455.637 1105.75 453.455C1108.42 451.273 1112.36 451.671 1114.54 454.344C1116.72 457.016 1116.32 460.951 1113.65 463.133Z" fill="#F5F7FA" stroke="#D7DBE0"/>
    <path fill-rule="evenodd" clip-rule="evenodd" d="M1187.51 442.891C1185.5 444.532 1182.54 444.233 1180.9 442.223C1179.26 440.213 1179.56 437.254 1181.57 435.613C1183.58 433.972 1186.54 434.271 1188.18 436.281C1189.82 438.291 1189.52 441.25 1187.51 442.891Z" stroke="#D7DBE0"/>
    <path fill-rule="evenodd" clip-rule="evenodd" d="M976.235 468.738C971.653 472.478 964.907 471.796 961.167 467.215C957.427 462.633 958.109 455.887 962.69 452.147C967.272 448.406 974.018 449.088 977.758 453.67C981.498 458.252 980.816 464.998 976.235 468.738Z" stroke="#D7DBE0"/>
    <path fill-rule="evenodd" clip-rule="evenodd" d="M1210.11 442.506C1205.53 446.246 1198.78 445.564 1195.04 440.982C1191.3 436.401 1191.98 429.655 1196.56 425.914C1201.15 422.174 1207.89 422.856 1211.63 427.438C1215.37 432.019 1214.69 438.766 1210.11 442.506Z" fill="#F0F2F5" stroke="#D7DBE0"/>
    <path fill-rule="evenodd" clip-rule="evenodd" d="M1148.26 464.065C1141.16 469.863 1130.7 468.806 1124.91 461.704C1119.11 454.603 1120.17 444.146 1127.27 438.349C1134.37 432.551 1144.83 433.608 1150.62 440.71C1156.42 447.811 1155.36 458.268 1148.26 464.065Z" stroke="#D7DBE0"/>
    <path fill-rule="evenodd" clip-rule="evenodd" d="M396.154 570.29C405.826 572.196 415.211 565.901 417.117 556.23C419.023 546.559 412.729 537.173 403.057 535.267C393.386 533.361 384 539.656 382.094 549.327C380.188 558.999 386.483 568.384 396.154 570.29Z" stroke="#D7DBE0"/>
    <path fill-rule="evenodd" clip-rule="evenodd" d="M924.642 497.902C912.806 507.564 895.378 505.802 885.716 493.966C876.054 482.131 877.816 464.703 889.651 455.04C901.487 445.378 918.915 447.14 928.577 458.976C938.24 470.812 936.478 488.239 924.642 497.902Z" stroke="#D7DBE0"/>
    <path fill-rule="evenodd" clip-rule="evenodd" d="M1087.05 494.937C1072.84 506.532 1051.93 504.418 1040.34 490.215C1028.74 476.012 1030.86 455.098 1045.06 443.504C1059.26 431.909 1080.17 434.023 1091.77 448.226C1103.36 462.429 1101.25 483.342 1087.05 494.937Z" fill="#F0F2F5" stroke="#D7DBE0"/>
    <path fill-rule="evenodd" clip-rule="evenodd" d="M353.148 530.671C371.137 534.216 388.594 522.508 392.139 504.519C395.685 486.53 383.976 469.073 365.987 465.528C347.999 461.983 330.542 473.691 326.996 491.68C323.451 509.669 335.16 527.126 353.148 530.671Z" stroke="#D7DBE0"/>
    <path fill-rule="evenodd" clip-rule="evenodd" d="M201.57 481.702C219.559 485.247 237.016 473.539 240.561 455.55C244.107 437.561 232.398 420.104 214.409 416.559C196.421 413.014 178.964 424.722 175.418 442.711C171.873 460.7 183.581 478.157 201.57 481.702Z" fill="#F0F2F5" stroke="#D7DBE0"/>
    <path fill-rule="evenodd" clip-rule="evenodd" d="M740.909 657.485C744.338 657.865 747.426 655.393 747.806 651.964C748.187 648.535 745.715 645.447 742.286 645.067C738.857 644.687 735.769 647.158 735.389 650.587C735.009 654.016 737.48 657.104 740.909 657.485Z" fill="#F0F2F5" stroke="#D7DBE0"/>
    <path fill-rule="evenodd" clip-rule="evenodd" d="M636.372 644.315C638.95 644.601 641.273 642.742 641.559 640.163C641.845 637.585 639.986 635.262 637.407 634.976C634.828 634.691 632.506 636.549 632.22 639.128C631.934 641.707 633.793 644.029 636.372 644.315Z" stroke="#D7DBE0"/>
    <path fill-rule="evenodd" clip-rule="evenodd" d="M1016.56 671.576C1021.16 672.086 1025.3 668.769 1025.81 664.168C1026.32 659.566 1023.01 655.422 1018.41 654.911C1013.8 654.401 1009.66 657.718 1009.15 662.32C1008.64 666.922 1011.96 671.066 1016.56 671.576Z" fill="#F0F2F5" stroke="#D7DBE0"/>
    <path fill-rule="evenodd" clip-rule="evenodd" d="M510.909 573.759C516.788 574.411 522.082 570.174 522.733 564.296C523.385 558.417 519.148 553.123 513.27 552.472C507.391 551.82 502.098 556.057 501.446 561.935C500.794 567.814 505.031 573.108 510.909 573.759Z" fill="#F0F2F5" stroke="#D7DBE0"/>
    <path fill-rule="evenodd" clip-rule="evenodd" d="M918.818 646.461C926.253 647.285 932.948 641.926 933.773 634.492C934.597 627.057 929.238 620.362 921.804 619.537C914.369 618.713 907.674 624.072 906.849 631.506C906.025 638.941 911.384 645.636 918.818 646.461Z" stroke="#D7DBE0"/>
    <path fill-rule="evenodd" clip-rule="evenodd" d="M1050.54 455.964C1042.9 462.198 1031.66 461.061 1025.42 453.425C1019.19 445.789 1020.33 434.545 1027.96 428.311C1035.6 422.078 1046.84 423.214 1053.07 430.85C1059.31 438.486 1058.17 449.73 1050.54 455.964Z" stroke="#D7DBE0"/>
    <path fill-rule="evenodd" clip-rule="evenodd" d="M678.207 632.789C687.318 633.8 695.524 627.232 696.534 618.121C697.544 609.009 690.977 600.804 681.865 599.794C672.753 598.783 664.548 605.351 663.538 614.462C662.527 623.574 669.095 631.779 678.207 632.789Z" stroke="#D7DBE0"/>
    <path fill-rule="evenodd" clip-rule="evenodd" d="M1069.48 651.445C1080.05 652.617 1089.57 644.998 1090.75 634.427C1091.92 623.856 1084.3 614.337 1073.73 613.165C1063.16 611.993 1053.64 619.612 1052.46 630.183C1051.29 640.753 1058.91 650.273 1069.48 651.445Z" stroke="#D7DBE0"/>
    <path fill-rule="evenodd" clip-rule="evenodd" d="M792.002 642.014C810.226 644.035 826.636 630.9 828.657 612.677C830.677 594.454 817.542 578.043 799.319 576.022C781.096 574.002 764.686 587.137 762.665 605.36C760.645 623.583 773.779 639.994 792.002 642.014Z" stroke="#D7DBE0"/>
    <path fill-rule="evenodd" clip-rule="evenodd" d="M617.139 569.053C631.259 570.619 643.974 560.442 645.539 546.322C647.105 532.203 636.928 519.488 622.809 517.923C608.689 516.357 595.974 526.534 594.409 540.653C592.843 554.773 603.02 567.488 617.139 569.053Z" fill="#F0F2F5" stroke="#D7DBE0"/>
    <path fill-rule="evenodd" clip-rule="evenodd" d="M239.744 473.207C242.884 474.636 246.588 473.25 248.018 470.11C249.448 466.97 248.061 463.266 244.922 461.836C241.782 460.406 238.077 461.793 236.648 464.933C235.218 468.073 236.604 471.777 239.744 473.207Z" stroke="#D7DBE0"/>
    <path fill-rule="evenodd" clip-rule="evenodd" d="M163.166 424.807C165.527 425.883 168.313 424.84 169.388 422.479C170.464 420.118 169.421 417.332 167.06 416.257C164.699 415.181 161.913 416.224 160.838 418.585C159.762 420.946 160.805 423.732 163.166 424.807Z" fill="#F0F2F5" stroke="#D7DBE0"/>
    <path fill-rule="evenodd" clip-rule="evenodd" d="M381.383 502.401C386.766 504.851 393.116 502.475 395.567 497.092C398.018 491.709 395.642 485.359 390.259 482.908C384.876 480.457 378.526 482.834 376.075 488.216C373.624 493.599 376.001 499.95 381.383 502.401Z" fill="#F0F2F5" stroke="#D7DBE0"/>
    <path fill-rule="evenodd" clip-rule="evenodd" d="M141.213 386.419C146.596 388.87 152.946 386.493 155.397 381.11C157.848 375.728 155.471 369.377 150.089 366.926C144.706 364.475 138.356 366.852 135.905 372.235C133.454 377.617 135.83 383.968 141.213 386.419Z" fill="#F0F2F5" stroke="#D7DBE0"/>
    <path fill-rule="evenodd" clip-rule="evenodd" d="M306.278 490.756C315.249 494.84 325.833 490.879 329.918 481.908C334.003 472.937 330.042 462.353 321.071 458.268C312.1 454.183 301.516 458.144 297.431 467.115C293.346 476.086 297.307 486.671 306.278 490.756Z" stroke="#D7DBE0"/>
    <path fill-rule="evenodd" clip-rule="evenodd" d="M584.967 595.397C567.859 601.989 548.645 593.464 542.053 576.355C535.461 559.246 543.986 540.033 561.095 533.441C578.204 526.849 597.417 535.374 604.009 552.483C610.601 569.592 602.076 588.805 584.967 595.397Z" stroke="#D7DBE0"/>
    <path fill-rule="evenodd" clip-rule="evenodd" d="M206.509 426.891C214.853 430.69 224.696 427.007 228.495 418.664C232.294 410.32 228.61 400.477 220.267 396.678C211.924 392.879 202.08 396.563 198.281 404.906C194.482 413.249 198.166 423.092 206.509 426.891Z" stroke="#D7DBE0"/>
    <path fill-rule="evenodd" clip-rule="evenodd" d="M438.7 497.12C452.605 503.452 469.011 497.312 475.342 483.407C481.674 469.502 475.534 453.097 461.629 446.765C447.724 440.433 431.319 446.573 424.987 460.478C418.655 474.383 424.795 490.789 438.7 497.12Z" stroke="#D7DBE0"/>
    <path fill-rule="evenodd" clip-rule="evenodd" d="M273.567 442.287C290.254 449.885 309.94 442.517 317.538 425.831C325.136 409.145 317.769 389.458 301.082 381.86C284.396 374.262 264.709 381.63 257.111 398.316C249.513 415.002 256.881 434.689 273.567 442.287Z" stroke="#D7DBE0"/>
    <path fill-rule="evenodd" clip-rule="evenodd" d="M113.87 393.322C124.137 397.997 136.25 393.464 140.925 383.197C145.6 372.93 141.066 360.817 130.799 356.142C120.533 351.467 108.42 356 103.745 366.267C99.0696 376.534 103.603 388.647 113.87 393.322Z" stroke="#D7DBE0"/>
  </g>
  <defs>
    <clipPath id="clip0">
      <rect width="1131.96" height="625.208" fill="white" transform="translate(0.214844 350.23) rotate(-18.0232)"/>
    </clipPath>
  </defs>
</svg>
